<svg id="Calque_1" data-name="Calque 1" xmlns="http://www.w3.org/2000/svg" viewBox="0 0 106.83 83.77"><defs><style>.cls-1{fill:#fff;fill-rule:evenodd;}</style></defs><g id="Calque_2" data-name="Calque 2"><g id="Calque_1-2" data-name="Calque 1-2"><path class="cls-1" d="M58,69.88a7.57,7.57,0,0,0,3.4,1.76,3.09,3.09,0,0,0,0-2.2A6.14,6.14,0,0,0,58,69.88Zm4.9-11.77.63.51,4.74,2.55c2.35,1.25,4.77,2.47,7.16,3.68a17.51,17.51,0,0,0,2.38,1.26q5.82,2.64,11.48,5.77l5.31,3a4.93,4.93,0,0,0-1.14-1.14,23.87,23.87,0,0,1-4.77-3.92c-1.44-1.57-3.18-2.71-4.62-4.16s-4-3.49-6-5.22c-1.18-1-2.33-2-3.53-2.9-1.85-1.3-3.57-2.87-5.38-4.28-1.24-1-2.41-2-3.65-2.94a27.7,27.7,0,0,1-3.18-2.59c-.2,0-.39-.35-.61,0a.81.81,0,0,0,0,.31c.29,3.38.67,6.79,1.08,10.16Zm-7.09,10.2a15.88,15.88,0,0,0,5.5,0,2.3,2.3,0,0,1,1.71,0h.55l8.26,2.08c2.13.51,4.3,1,6.36,1.64l1.21.28,11.8,2.86a10,10,0,0,1,2,.59h.83c-1.34-.82-2.45-1.57-3.6-2.24s-2.79-1.6-4.22-2.35-3.18-1.61-4.81-2.43S78.24,67.4,77,66.62c-2.16-1.06-4.35-2.2-6.52-3.38l-6.9-3.64a3.61,3.61,0,0,0-.89-.36c-.31.4-.66.67-.95,1-2,2.71-3.94,5.34-6,8.12Zm6.36,14h1.75a17.8,17.8,0,0,0,5.43-.51c1.15-.27,2.32-.43,3.5-.63l5.56-.9,7.95-1.45,2.45-.31L94,78a1.27,1.27,0,0,0,.67,0,.71.71,0,0,0,.73-.36l-2.7-.66c-2.93-.79-5.85-1.69-8.78-2.36s-6.36-1.45-9.54-2.23L63.94,69.76H62.7a12.53,12.53,0,0,0-.45,3.57v7.61c-.07.55-.11,1.1-.13,1.65Zm38.66-3.92-6.71.7a52.14,52.14,0,0,0-5.56.48,51.86,51.86,0,0,0-10.34,1.92,15.19,15.19,0,0,1-2.32.39l-3.43.67-8.11,1.13a20.72,20.72,0,0,1-2.73,0,.47.47,0,0,1-.42-.51h0c0-2.39.22-4.78.32-7.18V73.17l-2.38-1.33c-.77-.43-1.72-.87-2.52-1.42S55,70,54.33,69a5.24,5.24,0,0,1,.48-1c.92-1.21,1.91-2.39,2.86-3.61s2.67-3.49,4-5.29A2.16,2.16,0,0,0,62,58.07a14.41,14.41,0,0,0,0-1.61l-1-7.61a10.87,10.87,0,0,0-.32-1.69,8.91,8.91,0,0,1-.16-2,.73.73,0,0,1,1,0,113.73,113.73,0,0,0,9.13,8.24c.45.39.86.78,1.34,1.14A37.38,37.38,0,0,1,75.26,57c2,1.64,3.87,3.33,5.81,5L85.78,66c1.56,1.38,3.18,2.75,4.67,3.93s3.38,2.66,5.09,3.92l4.8,3.49a.68.68,0,0,1,.35.78Z"/><path class="cls-1" d="M7.39,54.34c-.6-.59-1.19-1.19-1.82-1.75-.13-.1-.47,0-.66.06s-.13.41,0,.53a14,14,0,0,0,3.2,3.36c.12.1.5.07.53,0s.16-.53,0-.66c-.4-.5-.88-1-1.31-1.44C7.36,54.38,7.39,54.38,7.39,54.34Z"/><path class="cls-1" d="M38.52,67.5c-.19-.13-.35-.28-.5-.28-1.29-.1-2.61-.16-3.89-.19-.16,0-.38.28-.48.47,0,0,.19.34.35.38,1.22.15,2.45.31,3.67.44a1,1,0,0,0,.69-.26A1.51,1.51,0,0,0,38.52,67.5Z"/><path class="cls-1" d="M44.48,68.57a2.77,2.77,0,0,0,.1.5.42.42,0,0,0,.31.22,12.88,12.88,0,0,0,3.92-.06.61.61,0,0,0,.32-.44.62.62,0,0,0-.35-.41c-1.32-.06-2.63-.06-3.92-.1C44.73,68.28,44.64,68.44,44.48,68.57Z"/><path class="cls-1" d="M18,61.88c-.19-.35-.25-.63-.44-.75-1-.66-2.13-1.32-3.2-2A.84.84,0,0,0,13.8,59a.4.4,0,0,0-.29.18.81.81,0,0,0,0,.38c0,.06.07.13.1.16a9.88,9.88,0,0,0,3.92,2.13C17.49,62,17.56,62,18,61.88Z"/><path class="cls-1" d="M22.11,63.89c.09.31.06.41.12.44A12.66,12.66,0,0,0,26.75,66a.66.66,0,0,0,.44-.28.59.59,0,0,0-.19-.47c-1.35-.47-2.7-.91-4.05-1.35A3.37,3.37,0,0,0,22.11,63.89Z"/><path class="cls-1" d="M7.8,15.32c-.6.6-1.2,1.19-1.82,1.76A.81.81,0,0,1,5.32,17c-.1,0-.13-.4,0-.53a14.39,14.39,0,0,1,3.2-3.36.62.62,0,0,1,.53,0c0,.06.16.54,0,.66-.41.5-.88,1-1.32,1.45Z"/><path class="cls-1" d="M38.9,2.16c-.19.13-.35.29-.51.29-1.28.09-2.6.15-3.89.19-.15,0-.37-.29-.47-.48,0,0,.19-.34.35-.37,1.22-.16,2.44-.32,3.67-.44a1,1,0,0,1,.69.25C38.83,1.69,38.83,1.94,38.9,2.16Z"/><path class="cls-1" d="M44.86,1.1c0-.17.09-.34.14-.51a.51.51,0,0,1,.3-.22,12.57,12.57,0,0,1,3.92.07.57.57,0,0,1,.31.44.61.61,0,0,1-.34.41c-1.32.06-2.64.06-3.92.09A2.71,2.71,0,0,1,44.86,1.1Z"/><path class="cls-1" d="M18.31,7.75c-.19.35-.25.63-.44.76-1,.66-2.13,1.31-3.2,1.94a.86.86,0,0,1-.57.1.35.35,0,0,1-.28-.19.81.81,0,0,1,0-.38c0-.06.06-.12.09-.16a10.25,10.25,0,0,1,3.93-2.13A2.78,2.78,0,0,1,18.31,7.75Z"/><path class="cls-1" d="M22.52,5.74c.09-.31.06-.4.12-.44a13.13,13.13,0,0,1,4.52-1.63A.65.65,0,0,1,27.6,4a.59.59,0,0,1-.19.47c-1.35.48-2.7.92-4.05,1.35A2,2,0,0,1,22.52,5.74Z"/><path class="cls-1" d="M68.11,1c.19.13.35.28.51.28,1.28.1,2.6.16,3.89.19.15,0,.37-.28.47-.47,0,0-.19-.34-.35-.38C71.41.44,70.19.28,69,.15a1,1,0,0,0-.69.26A4.1,4.1,0,0,0,68.11,1Z"/><path class="cls-1" d="M61.52.85a2.28,2.28,0,0,0-.09-.51.4.4,0,0,0-.31-.22,12.64,12.64,0,0,0-3.93.07.59.59,0,0,0-.31.44.65.65,0,0,0,.34.4c1.32.07,2.64.07,3.93.1C61.27,1.13,61.37,1,61.52.85Z"/><path class="cls-1" d="M2.68,22.16c0,.22.13.41.09.57-.34,1.25-.72,2.48-1.13,3.73-.06.16-.37.26-.59.32-.06,0-.25-.32-.25-.44.25-1.19.5-2.42.81-3.61a1.31,1.31,0,0,1,.47-.57C2.24,22.07,2.46,22.16,2.68,22.16Z"/><path class="cls-1" d="M1.11,43.45c.28.31.5.47.57.66.28,1.22.53,2.45.75,3.67a1.11,1.11,0,0,1-.09.57.53.53,0,0,1-.29.22,1,1,0,0,1-.34-.1.32.32,0,0,1-.13-.15,10.81,10.81,0,0,1-.72-4.43A3.83,3.83,0,0,1,1.11,43.45Z"/><path class="cls-1" d="M.61,38.83c-.25-.18-.35-.18-.38-.25a12.5,12.5,0,0,1,0-4.8.57.57,0,0,1,.41-.31c.12,0,.37.22.37.34,0,1.41,0,2.86-.09,4.27C.92,38.3.73,38.52.61,38.83Z"/></g></g><path class="cls-1" d="M80.05,1.61c.19.13.35.28.51.28,1.28.1,2.6.16,3.89.19.15,0,.37-.28.47-.47,0,0-.19-.34-.35-.38-1.22-.18-2.44-.34-3.63-.47a.92.92,0,0,0-.69.26A2.42,2.42,0,0,0,80.05,1.61Z"/><path class="cls-1" d="M91.26,2.26c.19.13.35.28.51.28,1.28.1,2.6.16,3.89.19.15,0,.37-.28.47-.47,0,0-.19-.34-.35-.38-1.22-.18-2.44-.34-3.63-.47a1,1,0,0,0-.69.26A4.1,4.1,0,0,0,91.26,2.26Z"/><path class="cls-1" d="M102,2.91c.19.13.35.28.51.28,1.28.1,2.6.16,3.89.19.15,0,.37-.28.47-.47,0,0-.19-.34-.35-.38-1.22-.18-2.44-.34-3.63-.47a1,1,0,0,0-.69.26A3.16,3.16,0,0,0,102,2.91Z"/></svg>