<svg id="Calque_1" data-name="Calque 1" xmlns="http://www.w3.org/2000/svg" viewBox="0 0 72.98 72.31"><defs><style>.cls-1{fill:#2a2f36;fill-rule:evenodd;}</style></defs><g id="Calque_2" data-name="Calque 2"><g id="Calque_1-2" data-name="Calque 1-2"><path class="cls-1" d="M55,68.76a2.6,2.6,0,0,0,1.07.45.65.65,0,0,0,0-.56A2.34,2.34,0,0,0,55,68.76Zm1.54-3,.2.13,1.49.65c.74.32,1.5.63,2.25.94a6.26,6.26,0,0,0,.75.32c1.22.45,2.42.94,3.61,1.47l1.67.76a1.43,1.43,0,0,0-.36-.29,7.49,7.49,0,0,1-1.5-1c-.45-.4-1-.69-1.45-1.06s-1.26-.89-1.89-1.33c-.37-.25-.73-.52-1.11-.74-.58-.33-1.12-.73-1.69-1.09-.39-.25-.76-.52-1.15-.75a8.77,8.77,0,0,1-1-.66c-.06,0-.12-.09-.19,0a.15.15,0,0,0,0,.08C56.26,64.05,56.38,64.92,56.51,65.78Zm-2.23,2.6a6.14,6.14,0,0,0,1.73,0,.91.91,0,0,1,.54,0l.17,0,2.6.53c.67.13,1.35.25,2,.42l.38.07,3.71.73c.21,0,.41.11.63.15l.26,0c-.42-.21-.77-.4-1.13-.57s-.88-.41-1.33-.6-1-.41-1.51-.62-1-.34-1.4-.54c-.68-.27-1.37-.56-2.05-.86l-2.17-.93a1.31,1.31,0,0,0-.28-.09c-.1.1-.21.17-.3.26C55.52,67,54.92,67.67,54.28,68.38Zm2,3.58c.22,0,.38,0,.55,0a7,7,0,0,0,1.71-.13c.36-.07.73-.11,1.1-.16l1.75-.23,2.5-.37.77-.08,1.62-.15a.49.49,0,0,0,.21,0c.07,0,.17,0,.23-.09l-.85-.17c-.92-.2-1.84-.43-2.76-.6s-2-.37-3-.57l-3.28-.66-.39,0a2.62,2.62,0,0,0-.14.91c0,.65,0,1.29,0,1.94A3.9,3.9,0,0,0,56.29,72Zm12.16-1-2.11.18c-.58,0-1.17.07-1.75.12a19.93,19.93,0,0,0-3.25.49,5.83,5.83,0,0,1-.73.1L59.55,72,57,72.29a8.23,8.23,0,0,1-.86,0,.13.13,0,0,1-.13-.13v0c0-.61.07-1.22.1-1.83,0-.24,0-.48,0-.73l-.75-.34c-.24-.11-.54-.22-.79-.36s-.53-.11-.73-.36a1.28,1.28,0,0,1,.15-.25c.29-.31.6-.61.9-.92s.84-.89,1.26-1.35a.45.45,0,0,0,.1-.27,2.83,2.83,0,0,0,0-.41l-.3-1.94c0-.14-.07-.28-.1-.43a1.7,1.7,0,0,1-.05-.51.27.27,0,0,1,.33,0A33.79,33.79,0,0,0,59,64.56c.14.1.27.2.42.29.34.21.7.4,1,.63.62.42,1.22.85,1.83,1.28l1.48,1c.49.35,1,.7,1.47,1s1.06.68,1.6,1,1,.59,1.51.89a.17.17,0,0,1,.11.2Z"/><path class="cls-1" d="M7.39,54.34c-.6-.59-1.19-1.19-1.82-1.75-.13-.1-.47,0-.66.06s-.13.41,0,.53a14,14,0,0,0,3.2,3.36c.12.1.5.07.53,0s.16-.53,0-.66c-.4-.5-.88-1-1.31-1.44C7.36,54.38,7.39,54.38,7.39,54.34Z"/><path class="cls-1" d="M38.52,67.5c-.19-.13-.35-.28-.5-.28-1.29-.1-2.61-.16-3.89-.19-.16,0-.38.28-.48.47,0,0,.19.34.35.38,1.22.15,2.45.31,3.67.44a1,1,0,0,0,.69-.26A1.57,1.57,0,0,0,38.52,67.5Z"/><path class="cls-1" d="M44.48,68.57a2.77,2.77,0,0,0,.1.5.42.42,0,0,0,.31.22,12.88,12.88,0,0,0,3.92-.06.61.61,0,0,0,.32-.44.62.62,0,0,0-.35-.41c-1.32-.06-2.63-.06-3.92-.1C44.73,68.28,44.64,68.44,44.48,68.57Z"/><path class="cls-1" d="M18,61.88c-.19-.35-.25-.63-.44-.75-1-.66-2.13-1.32-3.2-2a.84.84,0,0,0-.56-.09.4.4,0,0,0-.29.18.81.81,0,0,0,0,.38c0,.06.07.13.1.16a9.88,9.88,0,0,0,3.92,2.13C17.49,62,17.56,62,18,61.88Z"/><path class="cls-1" d="M22.11,63.89c.09.31.06.41.12.44A12.66,12.66,0,0,0,26.75,66a.68.68,0,0,0,.44-.28.59.59,0,0,0-.19-.47c-1.35-.47-2.7-.91-4.05-1.35A3.37,3.37,0,0,0,22.11,63.89Z"/><path class="cls-1" d="M7.8,15.32c-.6.6-1.2,1.19-1.82,1.76A.81.81,0,0,1,5.32,17c-.1,0-.13-.4,0-.53a14.39,14.39,0,0,1,3.2-3.36.64.64,0,0,1,.53,0c0,.06.16.54,0,.66-.41.5-.88,1-1.32,1.45Z"/><path class="cls-1" d="M38.9,2.16c-.19.13-.35.29-.51.29-1.28.09-2.6.15-3.89.19-.15,0-.37-.29-.47-.48,0,0,.19-.34.35-.37,1.22-.16,2.44-.32,3.67-.44a1,1,0,0,1,.69.25C38.83,1.69,38.83,1.94,38.9,2.16Z"/><path class="cls-1" d="M44.86,1.1A4.7,4.7,0,0,1,45,.59.45.45,0,0,1,45.3.37a12.57,12.57,0,0,1,3.92.07.57.57,0,0,1,.31.44.63.63,0,0,1-.34.41c-1.32.06-2.64.06-3.92.09A2.29,2.29,0,0,1,44.86,1.1Z"/><path class="cls-1" d="M18.31,7.75c-.19.35-.25.63-.44.76-1,.66-2.13,1.31-3.2,1.94a.86.86,0,0,1-.57.1.35.35,0,0,1-.28-.19.81.81,0,0,1,0-.38c0-.06.06-.12.09-.16a10.25,10.25,0,0,1,3.93-2.13S18,7.69,18.31,7.75Z"/><path class="cls-1" d="M22.52,5.74c.09-.31.06-.4.12-.44a13.05,13.05,0,0,1,4.52-1.63A.68.68,0,0,1,27.6,4a.59.59,0,0,1-.19.47c-1.35.48-2.7.92-4.05,1.35A2,2,0,0,1,22.52,5.74Z"/><path class="cls-1" d="M68.11,1c.19.13.35.28.51.28,1.28.1,2.6.16,3.89.19.15,0,.37-.28.47-.47,0,0-.19-.34-.35-.38C71.41.44,70.19.28,69,.15a1,1,0,0,0-.69.26A3.09,3.09,0,0,0,68.11,1Z"/><path class="cls-1" d="M61.52.85a2.28,2.28,0,0,0-.09-.51.4.4,0,0,0-.31-.22,12.64,12.64,0,0,0-3.93.07.59.59,0,0,0-.31.44.65.65,0,0,0,.34.4c1.32.07,2.64.07,3.93.1C61.27,1.13,61.37,1,61.52.85Z"/><path class="cls-1" d="M2.68,22.16c0,.22.13.41.09.57-.34,1.25-.72,2.48-1.13,3.73-.06.16-.37.26-.59.32-.06,0-.25-.32-.25-.44.25-1.19.5-2.42.81-3.61a1.31,1.31,0,0,1,.47-.57C2.24,22.07,2.46,22.16,2.68,22.16Z"/><path class="cls-1" d="M1.11,43.45c.28.31.5.47.57.66.28,1.22.53,2.45.75,3.67a1.11,1.11,0,0,1-.09.57.53.53,0,0,1-.29.22,1.13,1.13,0,0,1-.34-.1.28.28,0,0,1-.13-.15,10.65,10.65,0,0,1-.72-4.43A2.91,2.91,0,0,1,1.11,43.45Z"/><path class="cls-1" d="M.61,38.83c-.25-.18-.35-.18-.38-.25a12.5,12.5,0,0,1,0-4.8.57.57,0,0,1,.41-.31c.12,0,.37.22.37.34,0,1.41,0,2.86-.09,4.27C.92,38.3.73,38.52.61,38.83Z"/></g></g></svg>