<svg width="29" height="29" viewBox="0 0 29 29" fill="none" xmlns="http://www.w3.org/2000/svg">
<path fill-rule="evenodd" clip-rule="evenodd" d="M0.892809 24.1659C2.29872 21.6118 3.48147 19.0719 4.988 16.6907C8.14551 11.3812 11.3894 6.0215 14.547 0.71206C14.6695 0.525017 14.8784 0.287664 15.1738 0C15.3893 0.568846 15.6911 1.08738 15.8563 1.5698C17.9384 7.53173 20.3663 13.2924 23.4494 18.7874C24.8723 21.4303 26.4319 24.1094 27.8548 26.7524C28.1567 27.271 28.732 27.8617 28.2922 28.6963C27.9826 28.7608 27.5002 28.926 27.09 28.8176C24.9668 28.5494 22.8074 28.4179 20.7706 28.0994C16.1501 27.3179 11.4793 26.45 6.80844 25.582C5.21795 25.2351 3.62747 24.8882 2.03698 24.5413C1.54036 24.4832 1.30301 24.2743 0.892809 24.1659Z" fill="#F7F5F5" fill-opacity="0.6"/>
</svg>
