<svg width="28" height="28" viewBox="0 0 28 28" fill="none" xmlns="http://www.w3.org/2000/svg">
<path fill-rule="evenodd" clip-rule="evenodd" d="M0.784705 27.7353C1.14557 24.8422 1.30438 22.0449 1.82269 19.2752C2.79109 13.1742 3.82115 6.9945 4.78955 0.893497C4.83417 0.674386 4.94045 0.376554 5.1084 0C5.51906 0.448727 5.99139 0.81873 6.32333 1.20579C10.4641 5.97384 14.8515 10.427 19.7493 14.3908C22.0493 16.3195 24.4896 18.2312 26.7896 20.16C27.2619 20.53 28.015 20.8659 27.9153 21.804C27.6516 21.9785 27.2645 22.3104 26.8434 22.3616C24.7716 22.8982 22.717 23.5752 20.7069 24.033C16.1252 25.017 11.4648 25.9393 6.80439 26.8616C5.19844 27.1279 3.59249 27.3942 1.98654 27.6605C1.50371 27.7904 1.20587 27.6841 0.784705 27.7353Z" fill="#72CCA7"/>
</svg>
