<?xml version="1.0" standalone="no"?>
<!DOCTYPE svg PUBLIC "-//W3C//DTD SVG 1.1//EN" "http://www.w3.org/Graphics/SVG/1.1/DTD/svg11.dtd" >
<svg xmlns="http://www.w3.org/2000/svg" xmlns:xlink="http://www.w3.org/1999/xlink" version="1.1">
<metadata>
Created by FontForge 20170731 at Mon May 29 11:59:13 2023
 By Aleksey,,,
Copyright (c) 2020 by MadeType. All rights reserved.
</metadata>
<defs>
<font id="MADETommySoftOutline-Medium" horiz-adv-x="1187" >
  <font-face 
    font-family="MADE Tommy Soft Outline"
    font-weight="500"
    font-stretch="normal"
    units-per-em="2048"
    panose-1="2 0 6 3 0 0 0 2 0 4"
    ascent="1638"
    descent="-410"
    x-height="1042"
    cap-height="1434"
    bbox="-109 -512 2537 1993"
    underline-thickness="102"
    underline-position="-307"
    unicode-range="U+0020-F6C3"
  />
<missing-glyph horiz-adv-x="532" 
 />
    <glyph glyph-name=".notdef" horiz-adv-x="532" 
 />
    <glyph glyph-name=".null" horiz-adv-x="0" 
 />
    <glyph glyph-name="nonmarkingreturn" horiz-adv-x="682" 
 />
    <glyph glyph-name="space" unicode=" " horiz-adv-x="532" 
 />
    <glyph glyph-name="exclam" unicode="!" horiz-adv-x="569" 
d="M287 -25q-66 0 -112 46.5t-46 111.5q0 66 46 112t112 46q65 0 111 -46t46 -112q0 -65 -46.5 -111.5t-110.5 -46.5zM287 274q-59 0 -100.5 -41.5t-41.5 -99.5t41.5 -98.5t100.5 -40.5t99 40t40 99t-40.5 100t-98.5 41zM324 459h-76q-33 0 -56.5 22.5t-23.5 55.5l-25 815
q0 34 24 58t56 24h125q34 0 58 -24t24 -58l-24 -815q-1 -34 -24.5 -56t-57.5 -22zM348 1417h-125q-25 0 -43.5 -19.5t-17.5 -45.5l22 -815q2 -26 20 -44t44 -18h76q26 0 44.5 18t18.5 44l25 815q0 25 -19 45t-45 20z" />
    <glyph glyph-name="quotedbl" unicode="&#x22;" horiz-adv-x="841" 
d="M297 946h-109q-26 0 -43.5 18.5t-17.5 45.5v360q0 27 17.5 45.5t43.5 18.5h109q26 0 44.5 -19t18.5 -45v-360q0 -26 -18.5 -45t-44.5 -19zM297 1415h-109q-19 0 -32 -13t-13 -32v-360q0 -19 13 -32t32 -13h109q19 0 32 13t13 32v360q0 19 -13 32t-32 13zM649 946h-108
q-26 0 -45 19t-19 45v360q0 26 19 45t45 19h108q26 0 44 -19t18 -45v-360q0 -26 -18 -45t-44 -19zM649 1415h-108q-19 0 -32 -13t-13 -32v-360q0 -19 13 -32t32 -13h108q19 0 32 13t13 32v360q0 19 -13 32t-32 13z" />
    <glyph glyph-name="numbersign" unicode="#" horiz-adv-x="1329" 
d="M829 90h-77q-29 0 -48.5 22.5t-15.5 51.5l43 254h-235l-43 -260q-4 -29 -27.5 -48.5t-52.5 -19.5h-78q-29 0 -48 22.5t-14 51.5l41 254h-114q-28 0 -47 22t-15 52l11 71q5 24 22 38.5t41 14.5h135l33 205h-117q-31 0 -49 20.5t-14 51.5l12 72q3 23 20.5 38t40.5 15h140
l43 258q5 29 27 48t53 19h77q30 0 49 -22.5t13 -50.5l-41 -252h235l43 258q5 29 27 48t53 19h78q30 0 47.5 -22t14.5 -51l-41 -252h112q29 0 48.5 -22t13.5 -50l-11 -72q-3 -23 -20.5 -38t-40.5 -15h-135l-35 -205h119q30 0 47 -22t14 -51l-10 -72q-5 -23 -22.5 -38
t-40.5 -15h-138l-43 -260q-6 -29 -28.5 -48.5t-51.5 -19.5zM434 162l45 274h273l-45 -276q-3 -20 11 -35.5t34 -15.5h77q23 0 41 15t21 38l45 274h154q17 0 29.5 11t15.5 26l10 74q3 19 -9.5 35t-33.5 16h-139l38 240h152q17 0 29.5 11t13.5 28l12 71q3 22 -10 36.5
t-35 14.5h-135l45 275q3 21 -9.5 36t-33.5 15h-78q-23 0 -40.5 -14.5t-22.5 -36.5l-43 -275h-275l45 275q3 21 -9.5 36t-33.5 15h-77q-23 0 -41 -14.5t-21 -36.5l-45 -275h-156q-18 0 -30 -9.5t-13 -26.5l-12 -72q-4 -23 9.5 -38t35.5 -15h139l-40 -240h-150
q-17 0 -29.5 -11t-15.5 -28l-10 -72q-3 -21 9.5 -36t33.5 -15h135l-45 -276q-3 -21 10.5 -36t34.5 -15h78q23 0 40.5 15t20.5 38zM819 838l-41 -240h-272l39 240h274zM561 821l-33 -205h236l33 205h-236z" />
    <glyph glyph-name="dollar" unicode="$" horiz-adv-x="1214" 
d="M668 -223h-90q-19 0 -32.5 13t-13.5 32v158q-161 17 -277 85t-175 179q-17 34 -2 68.5t51 45.5l129 41q27 8 53 -2.5t39 -34.5q80 -129 275 -129q117 0 181 44t64 122q0 52 -38 86t-79.5 47t-142.5 37q-11 3 -16 4q-18 3 -52.5 12.5t-47.5 12.5q-198 50 -293 152t-95 268
q0 180 114.5 297t311.5 139v158q0 19 13.5 32t32.5 13h90q19 0 32 -13t13 -32v-160q125 -19 218 -83t144 -167q19 -34 2 -69t-55 -43l-127 -33q-26 -6 -51.5 5t-38.5 36q-57 102 -205 102q-83 0 -144 -42.5t-61 -123.5q0 -33 10 -59.5t33 -46t43.5 -32.5t58.5 -24.5
t59.5 -17t64.5 -14.5q6 -1 18 -4.5t18 -4.5q261 -60 363 -150.5t102 -260.5q0 -76 -24.5 -146t-75.5 -133t-141.5 -106t-210.5 -55v-158q0 -19 -13 -32t-32 -13zM262 381l-129 -41q-27 -9 -38 -36t1 -52q57 -109 172 -175t275 -81h8v-174q0 -10 8.5 -18.5t18.5 -8.5h90
q10 0 18 8t8 19v174h8q95 8 172 37.5t127 71t83.5 94.5t48 108t14.5 113q0 164 -97.5 249.5t-353.5 143.5q-6 1 -16.5 3.5t-20.5 4.5q-48 10 -78.5 17.5t-73 24.5t-67 37.5t-43 55t-18.5 78.5q0 90 65 137.5t156 47.5q75 0 132.5 -29.5t88.5 -83.5q10 -19 30 -27.5t40 -3.5
l127 31q28 6 41.5 33t-0.5 55q-49 100 -141.5 162.5t-215.5 79.5h-8v176q0 10 -8 18t-18 8h-90q-11 0 -19 -8t-8 -18v-174h-8q-194 -20 -306 -132.5t-112 -287.5q0 -161 90 -258t285 -144q4 -1 98 -24q45 -10 69.5 -16t60.5 -16t55.5 -19.5t43 -24t35 -30.5t19.5 -38t8 -49
q0 -86 -70 -135t-194 -49q-64 0 -116.5 14t-86 37t-53.5 44t-33 44q-27 41 -74 27z" />
    <glyph glyph-name="percent" unicode="%" horiz-adv-x="1794" 
d="M489 0h-92q-27 0 -40 22.5t3 47.5l877 1327q23 37 68 37h92q25 0 38 -23.5t-1 -46.5l-877 -1327q-23 -37 -68 -37zM1251 1386l-876 -1327q-9 -13 -2 -27t24 -14h92q35 0 54 29l876 1327q8 12 1.5 26.5t-23.5 14.5h-92q-35 0 -54 -29zM446 723q-146 0 -250 104t-104 250
t104 249.5t250 103.5t249.5 -103.5t103.5 -249.5t-103.5 -250t-249.5 -104zM446 1411q-139 0 -237 -98t-98 -236t98 -237t237 -99q138 0 236 99t98 237t-98 236t-236 98zM446 903q-72 0 -123 51t-51 123q0 71 51 121.5t123 50.5q70 0 121 -50.5t51 -121.5q0 -72 -50.5 -123
t-121.5 -51zM446 1231q-64 0 -109.5 -45.5t-45.5 -108.5q0 -65 45.5 -110t109.5 -45q63 0 108.5 45.5t45.5 109.5q0 63 -45.5 108.5t-108.5 45.5zM1348 4q-145 0 -249 103t-104 249t104 250.5t249 104.5q146 0 250 -104.5t104 -250.5t-104 -249t-250 -103zM1348 692
q-138 0 -236 -99t-98 -237t98 -235.5t236 -97.5q139 0 237 97.5t98 235.5t-98 237t-237 99zM1348 184q-70 0 -121 51t-51 121q0 72 50.5 123t121.5 51q72 0 123 -51t51 -123q0 -71 -51 -121.5t-123 -50.5zM1348 512q-63 0 -108.5 -46t-45.5 -110q0 -63 45.5 -108t108.5 -45
q64 0 109.5 45t45.5 108q0 65 -45.5 110.5t-109.5 45.5z" />
    <glyph glyph-name="ampersand" unicode="&#x26;" horiz-adv-x="1529" 
d="M608 -27q-233 0 -384.5 122.5t-151.5 310.5q0 247 286 393l-6 10q-30 49 -47.5 82.5t-35 90t-17.5 108.5q0 163 117 265.5t303 102.5q162 0 273.5 -98.5t111.5 -239.5q0 -67 -20 -123.5t-50.5 -94.5t-78 -71t-90.5 -53t-101 -41l110 -108q34 -33 105.5 -99.5t91.5 -85.5
q43 78 63 160q8 29 34 46.5t55 13.5l73 -11q36 -6 55 -34t13 -64q-39 -151 -115 -268q108 -95 205 -176q32 -29 16.5 -70t-59.5 -41h-137q-52 0 -88 33q-7 6 -42.5 36t-52.5 46q-189 -142 -436 -142zM672 1440q-178 0 -290 -97.5t-112 -252.5q0 -51 17.5 -105.5t32 -82.5
t47.5 -85l16 -26l-8 -5q-285 -139 -285 -380q0 -180 147 -297t371 -117q248 0 430 141l6 4l7 -4q57 -50 98 -88q37 -29 78 -29h137q32 0 43 30t-12 50q-11 10 -85.5 75t-123.5 108l-6 6l4 6q80 122 114 268q6 28 -9.5 50.5t-43.5 25.5l-71 10q-24 3 -44 -9.5t-26 -35.5
q-26 -101 -70 -174l-6 -8l-8 6q-171 158 -205 190q-28 26 -70.5 69t-60.5 60q65 24 109 43.5t94.5 52.5t80.5 69.5t50 91t20 120.5q0 135 -105.5 227.5t-260.5 92.5zM596 172q-114 0 -201.5 63t-87.5 171q0 87 46 152.5t132 100.5l193 -188q37 -35 115.5 -106.5t91.5 -83.5
l6 -7l-6 -6q-93 -96 -289 -96zM481 637q-75 -32 -116 -92.5t-41 -138.5q0 -98 83 -157t189 -59q181 0 268 84q-32 28 -66 60t-73 69.5t-59 55.5q-147 140 -185 178zM573 868l-6 -2l-12 17q-27 39 -41 62.5t-28.5 64.5t-14.5 80q0 76 49 132t135 56q73 0 120.5 -44.5
t47.5 -113.5q0 -86 -54 -140.5t-196 -111.5zM655 1260q-80 0 -123 -51t-43 -119q0 -36 14 -75t28.5 -63.5t41.5 -62.5q132 54 182 103.5t50 127.5q0 62 -42 101t-108 39z" />
    <glyph glyph-name="quotesingle" unicode="'" horiz-adv-x="483" 
d="M295 946h-107q-26 0 -44.5 19t-18.5 45v360q0 26 18.5 45t44.5 19h107q26 0 44.5 -19t18.5 -45v-360q0 -26 -18.5 -45t-44.5 -19zM295 1415h-107q-19 0 -32 -13t-13 -32v-360q0 -19 13 -32t32 -13h107q19 0 32 13t13 32v360q0 19 -13 32t-32 13z" />
    <glyph glyph-name="parenleft" unicode="(" horiz-adv-x="698" 
d="M356 -125q-34 57 -66 125.5t-72.5 178.5t-65.5 251t-25 287t25 287t65.5 251t72.5 178.5t66 125.5q19 31 54.5 38.5t64.5 -14.5l64 -47q25 -19 31.5 -47.5t-7.5 -56.5q-24 -44 -48 -101.5t-53 -149t-47 -213.5t-18 -251t18 -251t47 -213.5t53 -149t48 -101.5
q14 -26 7.5 -55.5t-31.5 -48.5l-64 -48q-31 -21 -65.5 -13.5t-53.5 38.5zM373 1550q-26 -44 -50.5 -92t-58.5 -132.5t-59 -171.5t-42.5 -203.5t-17.5 -233.5q0 -144 24.5 -283t65 -248.5t72.5 -177.5t66 -125q13 -24 42.5 -29t49.5 11l63 49q19 14 24 36t-5 44
q-24 44 -48.5 102.5t-54 150.5t-47.5 215.5t-18 254.5t18 254.5t47.5 215.5t54 150.5t48.5 102.5q10 22 5 44t-24 36l-63 49q-23 16 -51 10.5t-41 -29.5z" />
    <glyph glyph-name="parenright" unicode=")" horiz-adv-x="700" 
d="M344 -125q-19 -31 -53.5 -38.5t-65.5 13.5l-63 48q-25 19 -32 48.5t7 55.5q24 44 48 101.5t53 149t47 213.5t18 251t-18 251t-47 213.5t-53 149t-48 101.5q-14 28 -7 56.5t32 47.5l63 47q29 22 64.5 14.5t54.5 -38.5q34 -57 66 -125.5t72.5 -178.5t65.5 -251t25 -287
t-25 -287t-65.5 -251t-72.5 -178.5t-66 -125.5zM328 1550q-13 24 -41 29.5t-51 -10.5l-64 -49q-19 -13 -24 -35.5t6 -44.5q24 -44 48.5 -102.5t54 -150.5t47.5 -215.5t18 -254.5t-18 -254.5t-47.5 -215.5t-54 -150.5t-48.5 -102.5q-11 -22 -6 -44.5t24 -35.5l64 -49
q20 -16 49.5 -11t42.5 29q34 57 65.5 125t72 177t65 248.5t24.5 283.5t-24.5 283t-65 248t-72 177t-65.5 125z" />
    <glyph glyph-name="asterisk" unicode="*" horiz-adv-x="942" 
d="M565 760l-96 162l-96 -162q-14 -27 -42.5 -32t-49.5 11l-62 45q-22 15 -25.5 44t15.5 49l127 143l-186 41q-27 6 -41 29.5t-5 50.5l23 71q9 27 34 39t52 0l174 -75l-18 188q-3 28 16 49t45 21h78q26 0 45 -21t16 -49l-18 -188l174 75q26 10 51.5 -1.5t34.5 -37.5l23 -71
q9 -26 -4.5 -50t-41.5 -30l-186 -41l125 -143q20 -21 16 -49.5t-26 -43.5l-60 -45q-25 -15 -52 -9t-40 30zM356 768l113 188l113 -188q10 -17 28 -20.5t35 6.5l62 45q16 12 18.5 30.5t-10.5 36.5l-146 164l215 47q19 5 29 21.5t4 36.5l-24 73q-6 18 -23 26t-37 1l-203 -86
l21 217q3 20 -10 34.5t-33 14.5h-78q-20 0 -33 -14.5t-10 -34.5l21 -217l-203 86q-19 9 -36.5 0t-23.5 -27l-24 -73q-6 -19 4 -37t29 -21l215 -47l-146 -164q-13 -18 -10.5 -36.5t18.5 -30.5l62 -45q17 -10 35 -6.5t28 20.5z" />
    <glyph glyph-name="plus" unicode="+" horiz-adv-x="1069" 
d="M569 207h-73q-32 0 -56 24t-24 56v209h-207q-34 0 -58 23t-24 56v72q0 34 24 58t58 24h207v207q0 34 24 58t56 24h73q32 0 56 -24t24 -58v-207h207q34 0 58 -24t24 -58v-72q0 -33 -24 -56t-58 -23h-207v-209q0 -32 -24 -56t-56 -24zM434 711h-225q-26 0 -45 -19t-19 -45
v-72q0 -26 19 -44.5t45 -18.5h225v-225q0 -25 18 -43.5t44 -18.5h73q25 0 43.5 18.5t18.5 43.5v225h225q26 0 45 18.5t19 44.5v72q0 26 -19 45t-45 19h-225v225q0 26 -18.5 44.5t-43.5 18.5h-73q-26 0 -44 -18.5t-18 -44.5v-225z" />
    <glyph glyph-name="comma" unicode="," horiz-adv-x="530" 
d="M150 -197l-72 41q-22 12 -30 36t3 46l144 301q10 26 37.5 34t50.5 -7l112 -64q24 -13 30 -40t-9 -50l-180 -276q-13 -21 -39.5 -27t-46.5 6zM211 219l-143 -301q-7 -15 -2 -31.5t20 -25.5l74 -43q15 -8 32.5 -3.5t26.5 17.5l182 279q11 17 6 35.5t-22 27.5l-113 66
q-17 10 -36 3.5t-25 -24.5z" />
    <glyph glyph-name="hyphen" unicode="-" horiz-adv-x="921" 
d="M713 496h-504q-34 0 -58 23t-24 56v72q0 34 24 58t58 24h504q34 0 58 -24t24 -58v-72q0 -33 -24 -56t-58 -23zM713 711h-504q-26 0 -45 -19t-19 -45v-72q0 -26 19 -44.5t45 -18.5h504q26 0 44.5 18.5t18.5 44.5v72q0 26 -18.5 45t-44.5 19z" />
    <glyph glyph-name="period" unicode="." horiz-adv-x="485" 
d="M244 -25q-66 0 -112 46.5t-46 111.5q0 66 46 112t112 46t111.5 -46t45.5 -112q0 -65 -45.5 -111.5t-111.5 -46.5zM244 274q-59 0 -100.5 -41.5t-41.5 -99.5t41.5 -98.5t100.5 -40.5q58 0 98.5 40t40.5 99t-40.5 100t-98.5 41z" />
    <glyph glyph-name="slash" unicode="/" horiz-adv-x="1013" 
d="M266 -195h-94q-31 0 -50 25t-9 57l540 1674q10 31 36.5 49t58.5 18h96q32 0 50 -26t9 -56l-543 -1673q-9 -31 -34.5 -49.5t-59.5 -18.5zM672 1554l-543 -1673q-7 -23 6.5 -40t36.5 -17h94q28 0 49 15t29 40l541 1673q7 22 -6.5 40t-34.5 18h-96q-26 0 -47 -15.5
t-29 -40.5z" />
    <glyph glyph-name="zero" unicode="0" horiz-adv-x="1316" 
d="M659 -25q-272 0 -425.5 196.5t-153.5 545.5q0 348 153.5 544.5t425.5 196.5t425 -196t153 -545t-153 -545.5t-425 -196.5zM659 1440q-107 0 -195 -32t-145 -81t-99.5 -118.5t-65 -134.5t-36 -140t-17 -123t-3.5 -94t3.5 -94.5t17 -123t35.5 -140t65 -135t100 -119
t145 -81.5t195 -32t194.5 32t144.5 81.5t99.5 119t65 135t36 140t17 123t3.5 94.5t-3.5 94.5t-17 122.5t-36 139.5t-65 135t-99.5 118.5t-144.5 81t-194.5 32zM659 236q-146 0 -225.5 126t-79.5 355t79.5 355t225.5 126q145 0 224.5 -126t79.5 -355t-79.5 -355t-224.5 -126z
M659 1180q-62 0 -111 -24t-79 -66t-50.5 -88.5t-29.5 -103.5t-12.5 -98t-3.5 -83t3.5 -83t12.5 -98t29.5 -103.5t50.5 -88.5t79 -66t111 -24t110.5 24t78.5 66t50 88.5t29.5 103t13 98t3.5 83.5t-3.5 83.5t-13 98t-29.5 103t-50 88.5t-78.5 66t-110.5 24z" />
    <glyph glyph-name="one" unicode="1" horiz-adv-x="915" 
d="M625 0h-131q-34 0 -57 24t-23 58v1005l-174 -114q-28 -19 -62 -12t-51 36l-43 70q-17 28 -10 60t35 49l352 237q30 21 65 21h99q34 0 57 -24t23 -58v-1270q0 -34 -23 -58t-57 -24zM231 987l199 135v-1040q0 -26 19 -45t45 -19h131q26 0 44.5 19t18.5 45v1270
q0 26 -18.5 44.5t-44.5 18.5h-99q-29 0 -55 -16l-352 -238q-22 -13 -27.5 -38t8.5 -48l41 -67q13 -23 40.5 -29.5t49.5 8.5z" />
    <glyph glyph-name="two" unicode="2" horiz-adv-x="1136" 
d="M946 0h-758q-34 0 -58 24t-24 58v86q0 47 31 78q60 68 314 358l18 21q60 69 90.5 106t72.5 95t60.5 104.5t18.5 87.5q0 80 -44.5 127t-119.5 47q-127 0 -172 -123q-8 -22 -29.5 -33.5t-44.5 -5.5l-131 31q-36 6 -52.5 39.5t-4.5 68.5q54 138 173 213.5t283 75.5
q102 0 187 -37.5t138.5 -99.5t82.5 -138.5t29 -156.5q0 -36 -6.5 -71.5t-25.5 -77.5t-35 -74t-55 -86t-63.5 -86.5t-83 -101.5t-90.5 -106t-108 -124l-23 -27h430q34 0 57 -23t23 -56v-111q0 -34 -23 -58t-57 -24zM547 1210q83 0 132.5 -52t49.5 -140q0 -43 -19 -92
t-60.5 -107t-74.5 -99t-92 -108l-20 -22q-286 -327 -313 -357q-25 -25 -25 -65v-86q0 -26 18.5 -45t44.5 -19h758q26 0 44 19t18 45v111q0 25 -18 43t-44 18h-471l49 55q71 81 107 122.5t90.5 106.5t81.5 100.5t63.5 86.5t53.5 84t35.5 73.5t25 74.5t6.5 69q0 61 -17 120
t-52 112.5t-84 94t-117.5 64t-147.5 23.5q-158 0 -272.5 -72.5t-167.5 -204.5q-9 -28 3.5 -54t41.5 -32l131 -30q17 -3 32 5t21 23q23 66 72 100.5t117 34.5z" />
    <glyph glyph-name="three" unicode="3" horiz-adv-x="1165" 
d="M573 -25q-166 0 -298 66.5t-189 179.5q-18 35 -1 70.5t54 44.5l144 33q21 5 40 -4t29 -29q18 -36 71.5 -65t149.5 -29q100 0 156.5 52t56.5 144q0 172 -239 172h-66q-26 0 -43.5 18.5t-17.5 45.5v123q0 26 17.5 44.5t43.5 18.5h66q29 0 55.5 3t58.5 14t55 28.5t38.5 49
t15.5 73.5q0 80 -50 124t-142 44q-126 0 -181 -92q-22 -43 -69 -33l-125 29q-38 9 -55 45.5t2 71.5q61 113 175 177t253 64q212 0 342.5 -109t130.5 -286q0 -110 -49.5 -192.5t-143.5 -129.5q225 -85 225 -331q0 -195 -140.5 -315t-369.5 -120zM287 350l-144 -33
q-28 -6 -42 -34t-1 -54q56 -108 184 -172.5t289 -64.5q220 0 356 115.5t136 302.5q0 240 -234 323l-22 6l22 11q201 91 201 313q0 169 -125 273t-329 104q-133 0 -242.5 -61.5t-169.5 -170.5q-15 -28 -1.5 -57t42.5 -35l125 -29q15 -3 29 4t22 21q21 39 68.5 70.5
t126.5 31.5q98 0 153 -49t55 -137q0 -89 -62 -137.5t-177 -48.5h-66q-19 0 -32 -13t-13 -32v-123q0 -20 13 -32.5t32 -12.5h66q76 0 129.5 -17t80 -47t37.5 -60.5t11 -66.5q0 -41 -13 -78t-39 -68.5t-72.5 -50t-107.5 -18.5q-175 0 -237 105q-19 27 -49 22z" />
    <glyph glyph-name="four" unicode="4" horiz-adv-x="1302" 
d="M965 0h-131q-34 0 -57 24t-23 58v199h-582q-32 0 -56 23.5t-24 57.5v103q0 41 23 82l520 831q37 56 100 56h230q34 0 58 -24t24 -58v-820h83q34 0 58 -23t24 -56v-91q0 -34 -24 -57.5t-58 -23.5h-83v-199q0 -34 -24 -58t-58 -24zM965 1415h-230q-57 0 -84 -47l-520 -831
q-20 -33 -20 -72v-103q0 -26 17.5 -44.5t43.5 -18.5h600v-217q0 -26 18 -45t44 -19h131q26 0 44.5 19t18.5 45v217h102q26 0 45 18.5t19 44.5v91q0 26 -18.5 43.5t-45.5 17.5h-102v838q0 26 -18.5 44.5t-44.5 18.5zM772 1169v-655h-410zM754 1106l-359 -574h359v574z" />
    <glyph glyph-name="five" unicode="5" horiz-adv-x="1167" 
d="M575 -25q-151 0 -278 66.5t-186 175.5q-19 37 -2 73.5t55 45.5l141 33q47 10 70 -31q52 -96 198 -96q60 0 106 20t71.5 54.5t38 74t12.5 84.5q0 98 -61 156.5t-162 58.5q-94 0 -189 -63q-45 -35 -102 -19l-92 27q-29 7 -46 32t-14 54l74 641q5 31 28 51.5t54 20.5h627
q33 0 56 -24t23 -58v-111q0 -33 -23 -56.5t-56 -23.5h-478l-32 -287q106 58 219 58q207 0 333.5 -125.5t126.5 -329.5q0 -94 -31.5 -181t-92 -160t-161 -117t-227.5 -44zM309 350l-141 -33q-29 -6 -42 -35t1 -55q57 -106 180 -170.5t268 -64.5q99 0 181.5 28t139.5 75.5
t96.5 110.5t58 131.5t18.5 139.5q0 196 -122 316t-320 120q-115 0 -226 -63l-16 -8l41 338h492q26 0 44.5 17.5t18.5 43.5v111q0 26 -18.5 44.5t-44.5 18.5h-627q-25 0 -43 -16t-21 -39l-73 -641q-3 -24 9.5 -43t35.5 -25l92 -24q47 -15 88 14q92 68 199 68t174 -65t67 -169
q0 -46 -13.5 -89t-41.5 -80.5t-77 -60t-114 -22.5q-153 0 -215 105q-8 12 -22 18.5t-27 3.5z" />
    <glyph glyph-name="six" unicode="6" horiz-adv-x="1208" 
d="M602 -25q-227 0 -375.5 143t-148.5 363q0 66 14 128.5t41.5 118t45.5 86t48 73.5l11 16l321 471q41 60 111 60h145q33 0 47.5 -30t-4.5 -56l-274 -377h18q236 0 381 -135t145 -355t-148.5 -363t-377.5 -143zM815 1415h-145q-66 0 -97 -51l-329 -485q-30 -43 -48 -73
t-45 -84.5t-41 -115.5t-14 -125q0 -212 143 -350.5t363 -138.5q221 0 364.5 138.5t143.5 350.5q0 211 -140.5 341t-367.5 130h-37h-16l295 406q12 19 3 38t-32 19zM602 227q-100 0 -177 68.5t-77 185.5q0 110 72 182t182 72t183 -72t73 -182q0 -79 -38.5 -138.5t-95.5 -87.5
t-122 -28zM602 719q-102 0 -168.5 -67.5t-66.5 -170.5q0 -111 70 -174t165 -63q96 0 167 63t71 174q0 103 -67.5 170.5t-170.5 67.5z" />
    <glyph glyph-name="seven" unicode="7" horiz-adv-x="1079" 
d="M432 0h-147q-34 0 -52.5 27.5t-5.5 60.5l451 1073h-510q-34 0 -58 24t-24 56v111q0 34 24 58t58 24h739q34 0 58 -24t24 -58v-123q0 -33 -12 -60l-471 -1120q-19 -49 -74 -49zM907 1415h-739q-26 0 -45 -18.5t-19 -44.5v-111q0 -26 18.5 -43.5t45.5 -17.5h537l-461 -1100
q-9 -23 4.5 -42.5t36.5 -19.5h147q41 0 57 39l472 1119q10 27 10 53v123q0 26 -19 44.5t-45 18.5z" />
    <glyph glyph-name="eight" unicode="8" horiz-adv-x="1236" 
d="M618 -25q-238 0 -388 126.5t-150 326.5q0 109 55 196.5t158 143.5q-76 53 -118 129t-42 164q0 175 135.5 286t349.5 111q215 0 350.5 -111t135.5 -286q0 -89 -41.5 -164.5t-118.5 -128.5q103 -56 158 -143.5t55 -196.5q0 -200 -150.5 -326.5t-388.5 -126.5zM618 1440
q-206 0 -336 -106t-130 -273q0 -88 42.5 -163t120.5 -122l15 -10l-15 -6q-106 -54 -161.5 -139.5t-55.5 -192.5q0 -192 145 -314t375 -122t375.5 122t145.5 314q0 107 -55.5 192.5t-161.5 139.5l-15 6l15 10q78 47 120.5 122t42.5 163q0 167 -130.5 273t-336.5 106zM618 227
q-67 0 -118 19t-79.5 51t-42 68.5t-13.5 76.5q0 98 69.5 159t183.5 61t184 -61t70 -159q0 -40 -14 -76.5t-42 -68.5t-79.5 -51t-118.5 -19zM618 643q-106 0 -170.5 -55t-64.5 -146q0 -80 57.5 -139t177.5 -59t179 59.5t59 138.5q0 90 -66 145.5t-172 55.5zM618 842
q-98 0 -158.5 51.5t-60.5 136.5q0 93 66 144t153 51q88 0 154 -51t66 -144q0 -85 -61 -136.5t-159 -51.5zM618 1206q-80 0 -140 -45.5t-60 -130.5q0 -86 60 -128t140 -42t140.5 42t60.5 128q0 85 -60.5 130.5t-140.5 45.5z" />
    <glyph glyph-name="nine" unicode="9" horiz-adv-x="1208" 
d="M537 0h-146q-34 0 -48.5 30t5.5 56l275 377h-19q-235 0 -379.5 134.5t-144.5 354.5t148 363t376 143q227 0 375.5 -143t148.5 -363q0 -66 -14 -128t-42 -118.5t-45 -85.5t-48 -75l-10 -15l-320 -471q-43 -59 -112 -59zM641 481h18l-297 -405q-12 -19 -2.5 -38.5
t31.5 -19.5h146q64 0 96 52l332 485q31 46 47 73.5t43.5 83.5t41 116t13.5 124q0 212 -143 350t-363 138q-221 0 -364.5 -138t-143.5 -350t140 -341.5t368 -129.5h37zM604 698q-110 0 -183 72t-73 182q0 117 78 185.5t178 68.5t177 -68.5t77 -185.5q0 -110 -72 -182
t-182 -72zM604 1188q-96 0 -166.5 -62.5t-70.5 -173.5q0 -103 67 -170t170 -67t169.5 67t66.5 170q0 111 -70.5 173.5t-165.5 62.5z" />
    <glyph glyph-name="colon" unicode=":" horiz-adv-x="528" 
d="M264 -25q-66 0 -113 46.5t-47 111.5q0 66 47 112t113 46q65 0 111.5 -46t46.5 -112q0 -65 -47 -111.5t-111 -46.5zM264 274q-58 0 -99.5 -41t-41.5 -100q0 -58 41 -98.5t100 -40.5q57 0 98 40.5t41 98.5t-41 99.5t-98 41.5zM264 752q-66 0 -113 46.5t-47 112.5
q0 65 47 111.5t113 46.5q64 0 111 -46.5t47 -111.5q0 -66 -46.5 -112.5t-111.5 -46.5zM264 1051q-58 0 -99.5 -41.5t-41.5 -98.5q0 -59 41.5 -100t99.5 -41q57 0 98 41.5t41 99.5q0 57 -41 98.5t-98 41.5z" />
    <glyph glyph-name="semicolon" unicode=";" horiz-adv-x="593" 
d="M330 752q-66 0 -113 46.5t-47 112.5q0 65 47 111.5t113 46.5q64 0 110.5 -46.5t46.5 -111.5q0 -66 -46 -112.5t-111 -46.5zM330 1051q-58 0 -100 -41.5t-42 -98.5q0 -58 41.5 -99.5t100.5 -41.5q57 0 98 41.5t41 99.5q0 57 -41 98.5t-98 41.5zM162 -197l-72 41
q-22 12 -30 36t3 46l144 301q10 26 37.5 34t50.5 -7l113 -64q24 -13 29.5 -40t-9.5 -50l-180 -276q-13 -21 -39.5 -27t-46.5 6zM223 219l-143 -301q-7 -15 -2 -31.5t20 -25.5l74 -43q15 -8 32.5 -3.5t26.5 17.5l183 279q10 17 5 35.5t-22 27.5l-112 66q-17 10 -36.5 3.5
t-25.5 -24.5z" />
    <glyph glyph-name="less" unicode="&#x3c;" horiz-adv-x="1032" 
d="M829 137l-651 275q-23 9 -36 29.5t-13 45.5v158q0 25 13 46t36 30l651 274q28 12 51 -5t23 -44v-100q0 -57 -51 -76l-504 -205l504 -203q51 -22 51 -75v-101q0 -29 -22 -45t-52 -4zM836 979l-650 -274q-39 -16 -39 -60v-158q0 -43 39 -59l650 -274q21 -6 35 2.5t14 29.5
v101q0 45 -39 57l-547 221l547 223q39 12 39 58v100q0 19 -15.5 29.5t-33.5 3.5z" />
    <glyph glyph-name="equal" unicode="=" horiz-adv-x="1032" 
d="M823 692h-612q-34 0 -58 24t-24 58v72q0 34 24 58t58 24h612q34 0 58 -24t24 -58v-72q0 -34 -24 -58t-58 -24zM823 909h-612q-26 0 -45 -18.5t-19 -44.5v-72q0 -26 19 -44.5t45 -18.5h612q26 0 45 18.5t19 44.5v72q0 26 -19 44.5t-45 18.5zM823 297h-612q-34 0 -58 24
t-24 58v72q0 33 24 56t58 23h612q34 0 58 -23t24 -56v-72q0 -34 -24 -58t-58 -24zM823 512h-612q-27 0 -45.5 -17.5t-18.5 -43.5v-72q0 -26 19 -45t45 -19h612q26 0 45 19t19 45v72q0 26 -18.5 43.5t-45.5 17.5z" />
    <glyph glyph-name="greater" unicode="&#x3e;" horiz-adv-x="1032" 
d="M854 412l-651 -275q-30 -12 -52 4t-22 45v101q0 53 51 75l504 203l-504 205q-51 19 -51 76v100q0 27 23 44t51 5l651 -274q23 -9 36 -30t13 -46v-158q0 -25 -13 -45.5t-36 -29.5zM846 705l-649 274q-19 7 -34.5 -3.5t-15.5 -29.5v-100q0 -46 39 -58l547 -223l-547 -221
q-39 -12 -39 -57v-101q0 -21 14.5 -29.5t35.5 -2.5l649 274q39 16 39 59v158q0 44 -39 60z" />
    <glyph glyph-name="question" unicode="?" horiz-adv-x="999" 
d="M502 -25q-66 0 -113 46.5t-47 111.5q0 66 47 112t113 46q65 0 111 -46t46 -112q0 -65 -46.5 -111.5t-110.5 -46.5zM502 274q-59 0 -100.5 -41.5t-41.5 -99.5t41.5 -98.5t100.5 -40.5q57 0 98 40.5t41 98.5t-41 99.5t-98 41.5zM559 459h-100q-40 0 -63.5 27.5t-16.5 66.5
q9 44 25.5 83t44 77t44 57.5t52.5 58.5q41 43 62.5 68t40 64t18.5 79q0 77 -49 122.5t-132 45.5q-109 0 -159 -98q-10 -26 -37 -38.5t-56 -4.5l-94 23q-36 9 -51.5 41.5t-3.5 68.5q53 124 162 192t258 68q178 0 308 -114t130 -271q0 -48 -10.5 -91.5t-23.5 -73.5t-39 -65
t-43 -53.5t-50 -52.5q-39 -39 -60.5 -63.5t-45 -66t-31.5 -85.5q-4 -29 -27 -47t-53 -18zM485 1227q91 0 145 -50.5t54 -136.5q0 -33 -9 -62t-32 -61t-36 -47t-48 -53q-34 -36 -51.5 -56.5t-44 -56.5t-42.5 -74t-24 -81q-6 -30 13 -52t49 -22h100q23 0 41.5 15t22.5 38
q8 46 32.5 90t45.5 68t63 68q33 34 47.5 50t41 50.5t38.5 62.5t22.5 70t10.5 88q0 149 -125 258t-295 109q-142 0 -248 -65.5t-156 -184.5q-9 -27 3.5 -52.5t39.5 -31.5l97 -25q22 -4 41 5.5t30 29.5q51 109 174 109z" />
    <glyph glyph-name="at" unicode="@" horiz-adv-x="1896" 
d="M930 -117q-175 0 -326.5 60t-259 165.5t-168.5 254.5t-61 321q0 239 105.5 422.5t298 284t442.5 100.5q131 0 247.5 -29t205.5 -80t159.5 -120.5t116 -151.5t69 -171t23.5 -181q0 -115 -30.5 -209t-80.5 -153.5t-112.5 -91.5t-128.5 -32q-176 0 -244 140
q-102 -129 -285 -129q-164 0 -273.5 116t-109.5 289q0 102 43.5 193.5t131 152t200.5 60.5q161 0 258 -117v35q0 26 18.5 43.5t44.5 17.5h62q26 0 44.5 -17.5t18.5 -43.5v-385q0 -92 21 -135t82 -43q50 0 87.5 46.5t55 115.5t17.5 147q0 238 -160 395q-182 182 -496 176
q-134 -1 -255.5 -53t-215.5 -148q-89 -92 -136 -210.5t-44 -245.5q2 -119 39.5 -221.5t99.5 -176t143 -126t171 -78t182 -25.5q199 0 338 92q20 12 43.5 9.5t38.5 -19.5l28 -37q20 -21 15 -50.5t-27 -41.5q-178 -115 -436 -115zM961 1475q-245 0 -433.5 -98.5t-291.5 -278.5
t-103 -414q0 -228 101 -406t282.5 -277t413.5 -99q258 0 426 110q17 10 19.5 31.5t-9.5 36.5l-31 35q-11 12 -27.5 14.5t-31.5 -6.5q-138 -96 -346 -96q-94 0 -186.5 26.5t-176 80.5t-148 129t-103 181t-40.5 228q-2 132 46.5 253t140.5 216q95 98 220 152t263 55
q322 3 508 -183q80 -78 123 -183.5t43 -223.5q0 -84 -19.5 -156.5t-61 -121t-97.5 -48.5q-40 0 -66 15.5t-37 46.5t-14.5 60t-3.5 73v385q0 19 -13 32t-32 13h-62q-19 0 -32 -13t-13 -32v-88l-16 22q-91 129 -260 129q-107 0 -190 -57.5t-124.5 -145t-41.5 -184.5
q0 -166 104 -277.5t260 -111.5q182 0 279 135l10 12l6 -14q62 -141 234 -141q63 0 122.5 30.5t107 87t76.5 147.5t29 202q0 108 -32.5 211.5t-99 195t-160.5 160.5t-226 109.5t-286 40.5zM940 467q-97 0 -159 61.5t-62 159.5q0 95 63 157t158 62q97 0 159 -62t62 -157
q0 -91 -56.5 -156t-164.5 -65zM940 891q-88 0 -145.5 -57.5t-57.5 -145.5q0 -90 56.5 -146.5t146.5 -56.5q99 0 151 59.5t52 143.5q0 88 -57 145.5t-146 57.5z" />
    <glyph glyph-name="A" unicode="A" horiz-adv-x="1433" 
d="M1319 0h-150q-32 0 -57.5 18.5t-36.5 49.5l-71 215h-570l-74 -215q-11 -31 -36.5 -49.5t-57.5 -18.5h-149q-35 0 -52 26.5t-8 57.5l463 1284q11 29 36 47.5t56 18.5h211q31 0 58 -18.5t37 -47.5l460 -1284q12 -28 -7.5 -56.5t-51.5 -27.5zM344 74l76 227h596l78 -227
q8 -25 28.5 -40.5t46.5 -15.5h150q23 0 37 19t6 41l-463 1284q-7 24 -28 38.5t-48 14.5h-211q-25 0 -45.5 -14.5t-29.5 -38.5l-461 -1284q-7 -24 5 -42t36 -18h149q26 0 47.5 15.5t30.5 40.5zM719 1176l221 -650h-442zM719 1120l-197 -575h391z" />
    <glyph glyph-name="B" unicode="B" horiz-adv-x="1253" 
d="M672 0h-461q-32 0 -56 24t-24 58v1272q0 32 24 56t56 24h410q235 0 371 -105t136 -285q0 -193 -151 -288q207 -101 207 -338q0 -196 -135.5 -307t-376.5 -111zM621 1415h-410q-26 0 -43.5 -17.5t-17.5 -43.5v-1272q0 -27 17.5 -45.5t43.5 -18.5h461q235 0 364 105
t129 295q0 233 -207 327l-4 3v16l4 2q152 90 152 278q0 174 -130 272.5t-359 98.5zM672 238h-266v389h266q110 0 171.5 -50t61.5 -141q0 -92 -62.5 -145t-170.5 -53zM424 610v-354h248q101 0 158 47.5t57 132.5q0 54 -21.5 91t-57 53.5t-68 23t-68.5 6.5h-248zM621 827h-215
v371h215q112 0 171.5 -46.5t59.5 -133.5q0 -92 -59.5 -141.5t-171.5 -49.5zM424 1180v-334h197q31 0 59 4t57 16t50 30.5t34 49.5t13 72q0 47 -19 81t-52 50.5t-67.5 23.5t-74.5 7h-197z" />
    <glyph glyph-name="C" unicode="C" horiz-adv-x="1421" 
d="M807 -25q-206 0 -372.5 97t-260.5 267t-94 378q0 209 95 379.5t261.5 267t370.5 96.5q148 0 279 -51.5t231 -148.5q27 -26 24.5 -64t-36.5 -61l-107 -72q-25 -15 -52.5 -13t-47.5 21q-115 109 -291 109q-103 0 -187.5 -39.5t-137 -105.5t-81 -148t-28.5 -170
q0 -87 28.5 -169t81 -148t137 -106t187.5 -40q177 0 291 108q20 19 47.5 21.5t52.5 -12.5l107 -70q33 -22 37 -60.5t-25 -66.5q-100 -97 -231 -148t-279 -51zM807 1442q-152 0 -284 -54.5t-225.5 -150t-146.5 -230.5t-53 -290q0 -207 91 -372.5t253 -258t365 -92.5
q145 0 273.5 49.5t224.5 142.5q21 21 18.5 51t-29.5 48l-106 71q-19 12 -41 10t-37 -16q-123 -114 -303 -114q-107 0 -195 41.5t-143.5 110t-85 153.5t-29.5 176q0 92 29.5 177t85 153.5t143.5 109.5t195 41q181 0 303 -113q15 -15 37 -16.5t41 10.5l106 70q26 17 29.5 46.5
t-18.5 51.5q-97 94 -225.5 144.5t-272.5 50.5z" />
    <glyph glyph-name="D" unicode="D" horiz-adv-x="1423" 
d="M580 0h-367q-34 0 -58 24t-24 58v1272q0 32 24 56t58 24h367q347 0 554 -195t207 -522q0 -326 -207 -521.5t-554 -195.5zM580 1415h-367q-26 0 -44.5 -17.5t-18.5 -43.5v-1272q0 -26 18.5 -45t44.5 -19h367q340 0 542.5 190.5t202.5 508.5q0 319 -202.5 508.5
t-542.5 189.5zM580 256h-174v924h174q74 0 141.5 -15t131.5 -50t111 -87t75 -132t28 -179t-28 -178.5t-75 -131t-111 -86.5t-131.5 -50t-141.5 -15zM424 1161v-889h156q221 0 346 118t125 327t-125 326.5t-346 117.5h-156z" />
    <glyph glyph-name="E" unicode="E" horiz-adv-x="1071" 
d="M901 0h-692q-34 0 -57 24t-23 58v1272q0 33 23.5 56.5t56.5 23.5h674q33 0 56.5 -23.5t23.5 -56.5v-111q0 -34 -23 -58t-57 -24h-461v-301h414q34 0 58 -23t24 -57v-110q0 -34 -24 -58t-58 -24h-414v-316h479q34 0 58 -23t24 -56v-111q0 -34 -24 -58t-58 -24zM883 1415
h-674q-26 0 -44 -17.5t-18 -43.5v-1272q0 -26 18 -45t44 -19h692q26 0 45 19t19 45v111q0 26 -19 44.5t-45 18.5h-498v350h433q26 0 44.5 19t18.5 45v110q0 26 -18.5 44t-44.5 18h-433v338h480q26 0 43.5 18.5t17.5 44.5v111q0 26 -17.5 43.5t-43.5 17.5z" />
    <glyph glyph-name="F" unicode="F" horiz-adv-x="1064" 
d="M342 0h-131q-32 0 -56 24t-24 58v1272q0 32 24 56t56 24h686q32 0 56 -24t24 -56v-111q0 -34 -24 -58t-56 -24h-473v-332h414q34 0 58 -23.5t24 -57.5v-111q0 -34 -24 -57t-58 -23h-414v-475q0 -34 -24 -58t-58 -24zM897 1415h-686q-25 0 -43 -17.5t-18 -43.5v-1272
q0 -26 18 -45t43 -19h131q26 0 45 19t19 45v493h432q26 0 44.5 18t18.5 44v111q0 26 -18.5 44.5t-44.5 18.5h-432v369h491q26 0 43.5 18.5t17.5 44.5v111q0 26 -17.5 43.5t-43.5 17.5z" />
    <glyph glyph-name="G" unicode="G" horiz-adv-x="1581" 
d="M809 -25q-204 0 -370.5 97t-261.5 267t-95 378q0 209 95 379.5t261.5 267t370.5 96.5q148 0 279 -51.5t231 -148.5q27 -24 24 -66q-3 -39 -36 -59l-107 -72q-23 -15 -50.5 -13t-49.5 21q-115 109 -291 109q-103 0 -187.5 -39.5t-137 -105.5t-81 -148t-28.5 -170
q0 -87 28.5 -169t81 -148t137 -106t187.5 -40q160 0 267.5 80.5t144.5 228.5h-322q-32 0 -56 24t-24 58v94q0 32 24 56t56 24h490q33 0 56 -23.5t23 -56.5v-676q0 -26 -17.5 -44.5t-43.5 -18.5h-49q-23 0 -41.5 15t-22.5 38l-22 135q-160 -213 -463 -213zM809 1442
q-152 0 -284 -54.5t-225.5 -150t-146.5 -230.5t-53 -290q0 -207 91 -372.5t253 -258t365 -92.5q309 0 461 223l12 19l31 -181q3 -15 15.5 -26t29.5 -11h49q19 0 32 13t13 32v676q0 26 -18.5 44t-44.5 18h-490q-26 0 -43.5 -18t-17.5 -44v-94q0 -26 17.5 -44.5t43.5 -18.5
h344l-2 -13q-35 -158 -148.5 -245.5t-283.5 -87.5q-107 0 -195 41.5t-143.5 110t-85 153.5t-29.5 176q0 92 29.5 177t85 153.5t143.5 109.5t195 41q181 0 303 -113q37 -32 78 -6l106 70q26 16 29 47q3 27 -18 51q-97 94 -225.5 144.5t-272.5 50.5z" />
    <glyph glyph-name="H" unicode="H" horiz-adv-x="1417" 
d="M1206 0h-131q-34 0 -58 24t-24 58v506h-567v-506q0 -34 -24 -58t-56 -24h-131q-34 0 -58 24t-24 58v1272q0 32 24 56t58 24h131q32 0 56 -24t24 -56v-494h567v494q0 32 24 56t58 24h131q32 0 56 -24t24 -56v-1272q0 -34 -24 -58t-56 -24zM408 82v524h604v-524
q0 -26 18.5 -45t44.5 -19h131q26 0 44 19t18 45v1272q0 26 -18 43.5t-44 17.5h-131q-26 0 -44.5 -17.5t-18.5 -43.5v-512h-604v512q0 26 -18 43.5t-44 17.5h-131q-26 0 -44.5 -17.5t-18.5 -43.5v-1272q0 -26 18.5 -45t44.5 -19h131q26 0 44 19t18 45z" />
    <glyph glyph-name="I" unicode="I" horiz-adv-x="542" 
d="M336 0h-129q-34 0 -58 24t-24 58v1272q0 32 24 56t58 24h129q34 0 58 -24t24 -56v-1272q0 -34 -24 -58t-58 -24zM336 1415h-129q-27 0 -45.5 -17.5t-18.5 -43.5v-1272q0 -26 19 -45t45 -19h129q26 0 44.5 19t18.5 45v1272q0 26 -18.5 43.5t-44.5 17.5z" />
    <glyph glyph-name="J" unicode="J" horiz-adv-x="1189" 
d="M551 -25q-190 0 -324.5 91.5t-175.5 248.5q-9 35 11 65t55 36l153 28q24 4 44 -8.5t28 -36.5q7 -24 20 -46t36 -46t63 -38.5t90 -14.5q110 0 162.5 61t52.5 187v852q0 32 24 56t58 24h131q32 0 56 -24t24 -56v-852q0 -258 -129.5 -392.5t-378.5 -134.5zM272 426l-153 -27
q-27 -6 -41 -29t-8 -51q38 -151 167 -238t314 -87q489 0 489 508v852q0 26 -17.5 43.5t-43.5 17.5h-131q-27 0 -45.5 -17.5t-18.5 -43.5v-852q0 -266 -233 -266q-57 0 -101 17t-68.5 44.5t-37 51t-18.5 46.5q-5 16 -19.5 25t-34.5 6z" />
    <glyph glyph-name="K" unicode="K" horiz-adv-x="1304" 
d="M1171 0h-194q-50 0 -78 39l-477 602v-559q0 -34 -24 -58t-58 -24h-131q-32 0 -56 24t-24 58v1272q0 32 24 56t56 24h131q34 0 58 -24t24 -56v-576l442 615q27 41 82 41h176q35 0 49 -29t-6 -57l-469 -621l516 -639q22 -25 6.5 -56.5t-47.5 -31.5zM403 82v612l510 -645
q22 -31 64 -31h194q22 0 31.5 21.5t-4.5 38.5l-524 649l477 631q13 20 4 38.5t-33 18.5h-176q-41 0 -67 -33l-476 -659v631q0 26 -18.5 43.5t-44.5 17.5h-131q-25 0 -43.5 -17.5t-18.5 -43.5v-1272q0 -26 18.5 -45t43.5 -19h131q26 0 44.5 19t18.5 45z" />
    <glyph glyph-name="L" unicode="L" horiz-adv-x="1034" 
d="M885 0h-676q-34 0 -57 24t-23 58v1272q0 33 23.5 56.5t56.5 23.5h131q34 0 58 -24t24 -56v-1082h463q34 0 58 -23t24 -56v-111q0 -34 -24 -58t-58 -24zM340 1415h-131q-27 0 -45.5 -17.5t-18.5 -43.5v-1272q0 -26 19 -45t45 -19h676q26 0 44.5 19t18.5 45v111
q0 26 -18.5 44.5t-44.5 18.5h-482v1098q0 26 -18.5 43.5t-44.5 17.5z" />
    <glyph glyph-name="M" unicode="M" horiz-adv-x="1771" 
d="M1556 0h-129q-34 0 -57.5 24t-23.5 58v836l-392 -635q-17 -31 -53 -31h-31q-32 0 -53 31l-391 635v-836q0 -34 -24 -58t-58 -24h-129q-34 0 -58 24t-24 58v1272q0 32 24 56t58 24h160q63 0 100 -56l410 -663l413 663q32 56 99 56h159q34 0 58 -24t24 -56v-1272
q0 -34 -24 -58t-58 -24zM940 293l424 688v-899q0 -26 18.5 -45t44.5 -19h129q26 0 45 19t19 45v1272q0 26 -18.5 43.5t-45.5 17.5h-159q-56 0 -84 -45l-428 -690l-426 690q-28 45 -84 45h-160q-26 0 -44.5 -17.5t-18.5 -43.5v-1272q0 -26 18.5 -45t44.5 -19h129q26 0 45 19
t19 45v899l423 -688q13 -23 39 -23h31q26 0 39 23z" />
    <glyph glyph-name="N" unicode="N" horiz-adv-x="1431" 
d="M1219 0h-119q-62 0 -99 53l-577 862v-833q0 -34 -24 -58t-56 -24h-131q-34 0 -58 24t-24 58v1272q0 32 24 56t58 24h119q64 0 96 -52l580 -864v836q0 33 23 56.5t56 23.5h132q33 0 57 -24t24 -56v-1272q0 -34 -23.5 -58t-57.5 -24zM406 82v893l612 -914q29 -43 82 -43
h119q26 0 44.5 19t18.5 45v1272q0 26 -18.5 43.5t-44.5 17.5h-132q-26 0 -44.5 -17.5t-18.5 -43.5v-895l-610 913q-29 43 -82 43h-119q-26 0 -44.5 -17.5t-18.5 -43.5v-1272q0 -26 18.5 -45t44.5 -19h131q25 0 43.5 19t18.5 45z" />
    <glyph glyph-name="O" unicode="O" horiz-adv-x="1622" 
d="M811 -25q-205 0 -372 97t-262 267t-95 378q0 157 56 295t152.5 236t231.5 155t289 57q204 0 370.5 -96.5t261.5 -267t95 -379.5q0 -208 -95 -378t-261.5 -267t-370.5 -97zM811 1442q-203 0 -365.5 -93t-254 -259t-91.5 -373t91.5 -372.5t254 -258t365.5 -92.5
q152 0 283.5 54.5t225 149.5t147 229.5t53.5 289.5t-53.5 290t-147 230.5t-225 150t-283.5 54.5zM811 236q-108 0 -196.5 41.5t-144 110t-85 153.5t-29.5 176q0 73 18.5 142.5t56 130.5t90.5 107.5t128 73.5t162 27q107 0 195 -41t143.5 -109.5t85 -153.5t29.5 -177
q0 -91 -29.5 -176t-85 -153.5t-143.5 -110t-195 -41.5zM811 1180q-104 0 -188.5 -39.5t-137.5 -105.5t-81.5 -148t-28.5 -170q0 -87 28.5 -169t81.5 -148t137.5 -106t188.5 -40q103 0 187.5 40t137 106t81 148t28.5 169q0 88 -28.5 170t-81 148t-137 105.5t-187.5 39.5z" />
    <glyph glyph-name="P" unicode="P" horiz-adv-x="1234" 
d="M342 0h-131q-34 0 -57 24t-23 58v1272q0 33 23.5 56.5t56.5 23.5h403q251 0 401 -135.5t150 -362.5q0 -226 -150.5 -362t-400.5 -136h-192v-356q0 -34 -23 -58t-57 -24zM614 1415h-403q-27 0 -45.5 -17.5t-18.5 -43.5v-1272q0 -26 19 -45t45 -19h131q26 0 45 19t19 45
v375h208q243 0 388 130.5t145 348.5q0 219 -145 349t-388 130zM614 694h-208v486h208q129 0 200 -63.5t71 -180.5q0 -115 -71 -178.5t-200 -63.5zM422 1161v-450h192q120 0 187 59t67 166t-67 166t-187 59h-192z" />
    <glyph glyph-name="Q" unicode="Q" horiz-adv-x="1619" 
d="M1292 -29l-104 105q-170 -101 -379 -101q-204 0 -370.5 97t-261.5 267t-95 378q0 209 95 379.5t261.5 267t370.5 96.5q154 0 289 -57t231.5 -155t152.5 -236t56 -295q0 -277 -162 -477l92 -93q19 -19 19 -45t-19 -45l-88 -86q-20 -19 -44.5 -19t-43.5 19zM1186 94l6 4
l113 -114q14 -13 32.5 -12.5t30.5 12.5l88 88q14 14 14 30t-14 33l-102 103l4 8q162 197 162 471q0 207 -91.5 373t-254 259t-365.5 93t-365.5 -93t-254 -259t-91.5 -373t91.5 -372.5t254 -258t365.5 -92.5q209 0 377 100zM809 236q-107 0 -195 41.5t-143.5 110t-85 153.5
t-29.5 176q0 92 29.5 177t85 153.5t143.5 109.5t195 41q87 0 162 -27t128 -73.5t90.5 -107.5t56 -130.5t18.5 -142.5q0 -159 -84 -289l-6 -8l-177 176q-12 12 -30.5 12t-32.5 -12l-88 -88q-12 -12 -12 -31.5t12 -32.5l164 -163l-11 -7q-87 -38 -190 -38zM809 1180
q-103 0 -187.5 -39.5t-137 -105.5t-81 -148t-28.5 -170q0 -87 28.5 -169t81 -148t137 -106t187.5 -40q97 0 170 33l-145 145q-19 19 -19 45t19 43l88 88q19 19 45 19t45 -19l157 -159q76 118 76 268q0 88 -28.5 170t-81.5 148t-137.5 105.5t-188.5 39.5z" />
    <glyph glyph-name="R" unicode="R" horiz-adv-x="1294" 
d="M1176 0h-181q-28 0 -51 14t-35 37l-262 459h-16h-207v-428q0 -34 -24 -58t-58 -24h-131q-32 0 -56 24t-24 58v1272q0 32 24 56t56 24h420q236 0 385 -131t149 -340q0 -129 -63 -231.5t-180 -160.5l301 -489q17 -28 0.5 -56t-47.5 -26zM653 528h4l267 -469q23 -41 71 -41
h181q22 0 32 18.5t-2 37.5l-311 506l8 4q118 55 181 153t63 226q0 204 -142 328t-374 124h-420q-25 0 -43 -17.5t-18 -43.5v-1272q0 -26 18 -45t43 -19h131q26 0 45 19t19 45v446h225h22zM631 748h-225v432h225q118 0 187 -58.5t69 -158.5q0 -101 -68 -158t-188 -57z
M424 1161v-395h207q114 0 175.5 51.5t61.5 145.5q0 92 -63.5 145t-173.5 53h-207z" />
    <glyph glyph-name="S" unicode="S" horiz-adv-x="1214" 
d="M627 -27q-193 0 -336 71t-209 200q-19 32 -4.5 66t51.5 46l129 41q63 18 94 -35q28 -51 94 -91t181 -40t180 45t65 123q0 27 -8 48.5t-28 38t-39 28t-57 23t-66 18t-80 18.5q-5 1 -41 10t-57 15q-198 49 -292.5 151.5t-94.5 266.5q0 201 138 321.5t369 120.5
q159 0 280 -67.5t181 -190.5q17 -33 -0.5 -68.5t-54.5 -44.5l-127 -30q-27 -6 -51 4.5t-37 34.5q-29 50 -82.5 77t-122.5 27q-84 0 -144.5 -43t-60.5 -125q0 -22 5.5 -41.5t13 -34t24 -28.5t27 -23t35.5 -19t37 -15t42 -13t40.5 -10.5t42.5 -9.5l36 -9q261 -60 363 -149.5
t102 -259.5q0 -65 -17.5 -126.5t-58 -120.5t-101 -102.5t-153.5 -70.5t-208 -27zM262 381l-127 -41q-29 -9 -41 -35.5t2 -52.5q64 -124 203 -192t328 -68q111 0 201.5 25.5t148.5 67.5t97.5 98.5t56 115.5t16.5 121q0 164 -97 248.5t-354 144.5q-10 2 -37 8q-41 10 -56 13.5
t-53 14.5t-55 20t-44 26t-39.5 35t-22.5 44.5t-10 57.5q0 91 66 139t157 48q73 0 130.5 -30t88.5 -83q10 -20 29.5 -29t40.5 -4l127 33q30 7 42.5 33.5t0.5 54.5q-59 117 -175 181.5t-270 64.5q-224 0 -357.5 -115t-133.5 -309q0 -160 91 -257.5t284 -144.5q87 -20 98 -22
q47 -11 71 -16.5t61 -16.5t55.5 -20t42.5 -23.5t35.5 -30.5t19.5 -38t8 -48q0 -87 -70 -135.5t-194 -48.5q-65 0 -118 13.5t-86.5 36.5t-53.5 44.5t-33 44.5q-22 41 -74 27z" />
    <glyph glyph-name="T" unicode="T" horiz-adv-x="1110" 
d="M618 0h-131q-34 0 -56.5 23t-22.5 57v1079h-261q-33 0 -56 24t-23 58v111q0 34 23 58t56 24h811q34 0 58 -24t24 -58v-111q0 -34 -24 -58t-58 -24h-258v-1079q0 -34 -24 -57t-58 -23zM958 1415h-811q-26 0 -44.5 -18.5t-18.5 -44.5v-111q0 -26 18.5 -44.5t44.5 -18.5h279
v-1098q0 -27 17.5 -45.5t43.5 -18.5h131q26 0 45 19t19 45v1098h276q26 0 45 18.5t19 44.5v111q0 26 -19 44.5t-45 18.5z" />
    <glyph glyph-name="U" unicode="U" horiz-adv-x="1427" 
d="M715 -27q-274 0 -429 148t-155 409v822q0 34 24 58t58 24h131q34 0 57 -24t23 -58v-785q0 -81 22.5 -141.5t54 -92t75 -51t75 -24t64.5 -4.5q32 0 63.5 4.5t74.5 24t74.5 51t54 92t22.5 141.5v785q0 34 23.5 58t57.5 24h132q32 0 55.5 -24t23.5 -58v-822
q0 -261 -154 -409t-427 -148zM344 1415h-131q-26 0 -44.5 -18.5t-18.5 -44.5v-822q0 -253 149.5 -395.5t415.5 -142.5q264 0 413.5 142.5t149.5 395.5v822q0 26 -17.5 44.5t-43.5 18.5h-132q-26 0 -44.5 -18.5t-18.5 -44.5v-785q0 -157 -81 -244t-226 -87t-226 87t-81 244
v785q0 26 -19 44.5t-45 18.5z" />
    <glyph glyph-name="V" unicode="V" horiz-adv-x="1433" 
d="M819 0h-211q-31 0 -56.5 17t-35.5 46l-463 1285q-9 31 9.5 58.5t50.5 27.5h149q32 0 57.5 -19t36.5 -49l359 -1053l356 1053q11 30 36.5 49t57.5 19h150q31 0 51 -28t8 -58l-461 -1285q-10 -29 -36.5 -46t-57.5 -17zM262 1415h-149q-23 0 -36.5 -19.5t-4.5 -41.5
l460 -1284q9 -23 30 -38.5t46 -15.5h211q26 0 47 15.5t29 38.5l463 1284q6 22 -7 41.5t-36 19.5h-150q-26 0 -46.5 -15t-28.5 -40l-375 -1102l-375 1102q-9 25 -30.5 40t-47.5 15z" />
    <glyph glyph-name="W" unicode="W" horiz-adv-x="2039" 
d="M1475 0h-113q-34 0 -60.5 19.5t-35.5 50.5l-246 835l-248 -835q-9 -31 -35.5 -50.5t-58.5 -19.5h-115q-32 0 -57.5 18.5t-36.5 49.5l-412 1282q-10 32 8.5 58t51.5 26h149q33 0 59 -19.5t37 -52.5l267 -879l258 879q9 31 35.5 51.5t58.5 20.5h76q32 0 59.5 -20.5
t36.5 -51.5l256 -879l268 879q9 32 35.5 52t59.5 20h149q32 0 51 -26.5t10 -57.5l-413 -1282q-9 -30 -35 -49t-59 -19zM756 76l264 893l264 -893q8 -27 29.5 -43.5t48.5 -16.5h113q26 0 47 16t30 42l412 1282q6 22 -6.5 40.5t-36.5 18.5h-149q-26 0 -48.5 -16t-29.5 -41
l-285 -938l-274 936q-8 26 -29 42.5t-49 16.5h-76q-26 0 -48.5 -16.5t-29.5 -42.5l-274 -934l-285 936q-8 25 -29.5 41t-48.5 16h-149q-23 0 -36 -18.5t-7 -40.5l413 -1282q7 -26 28.5 -42t47.5 -16h115q26 0 48.5 17t29.5 43z" />
    <glyph glyph-name="X" unicode="X" horiz-adv-x="1335" 
d="M1198 0h-160q-68 0 -98 53l-272 426l-271 -426q-35 -53 -98 -53h-162q-38 0 -55 33q-17 31 2 63l405 633l-372 608q-21 31 -3 64t56 33h162q31 0 58 -16t42 -44l236 -401l235 401q37 60 103 60h159q37 0 55.5 -33t-1.5 -64l-371 -608l403 -633q20 -31 3 -64t-56 -32z
M381 63l287 449l286 -449q29 -47 84 -47h160q26 0 39.5 24t-0.5 46l-412 643l379 617q12 22 -0.5 45.5t-38.5 23.5h-159q-58 0 -86 -49l-252 -428l-252 428q-25 49 -84 49h-162q-29 0 -40 -23t3 -46l377 -617l-410 -643q-15 -22 -2 -45q14 -25 39 -25h162q53 0 82 47z" />
    <glyph glyph-name="Y" unicode="Y" horiz-adv-x="1409" 
d="M770 0h-129q-34 0 -58 23t-24 57v455l-477 802q-19 31 -1 64t54 33h141q32 0 60 -16.5t43 -43.5l326 -573l327 573q15 27 43 43.5t58 16.5h143q38 0 55 -33t-2 -64l-477 -802v-455q0 -34 -24 -57t-58 -23zM276 1415h-141q-26 0 -38.5 -23t-0.5 -46l482 -805v-461
q0 -26 18.5 -45t44.5 -19h129q26 0 45 19t19 45v461l481 805q12 23 -0.5 46t-38.5 23h-143q-56 0 -86 -51l-342 -598l-343 598q-12 23 -35 37t-51 14z" />
    <glyph glyph-name="Z" unicode="Z" horiz-adv-x="1191" 
d="M1042 0h-890q-34 0 -57 23t-23 57v106q0 44 24 78l647 895h-555q-34 0 -58 24t-24 58v111q0 34 24 58t58 24h836q34 0 58 -24t24 -58v-107q0 -42 -25 -78l-630 -895h591q34 0 58 -24t24 -58v-110q0 -34 -24 -57t-58 -23zM1024 1415h-836q-26 0 -44.5 -18.5t-18.5 -44.5
v-111q0 -26 18.5 -44.5t44.5 -18.5h592l-669 -924q-23 -33 -23 -68v-106q0 -26 19 -45t45 -19h890q26 0 45 19t19 45v110q0 26 -19 45t-45 19h-626l651 924q20 29 20 67v107q0 26 -18.5 44.5t-44.5 18.5z" />
    <glyph glyph-name="bracketleft" unicode="[" horiz-adv-x="729" 
d="M543 -195h-334q-34 0 -58 24t-24 56v1663q0 32 24 56t58 24h334q33 0 56.5 -23.5t23.5 -56.5v-84q0 -34 -23 -58t-57 -24h-146v-1331h146q34 0 57 -24t23 -58v-84q0 -33 -23.5 -56.5t-56.5 -23.5zM543 1610h-334q-26 0 -45 -18t-19 -44v-1663q0 -26 18.5 -43.5
t45.5 -17.5h334q26 0 43.5 17.5t17.5 43.5v84q0 27 -17.5 45.5t-43.5 18.5h-164v1368h164q26 0 43.5 18.5t17.5 44.5v84q0 26 -17.5 44t-43.5 18z" />
    <glyph glyph-name="backslash" unicode="\" horiz-adv-x="1013" 
d="M842 -195h-94q-34 0 -60 18.5t-35 49.5l-542 1673q-9 30 9 56t50 26h96q32 0 58 -18t36 -49l541 -1674q10 -32 -9 -57t-50 -25zM885 -119l-543 1673q-8 25 -29 40.5t-47 15.5h-96q-21 0 -34.5 -18t-6.5 -40l541 -1673q8 -25 29 -40t49 -15h94q23 0 36.5 17t6.5 40z" />
    <glyph glyph-name="bracketright" unicode="]" horiz-adv-x="729" 
d="M522 -195h-334q-34 0 -58 24t-24 56v84q0 34 24 58t58 24h146v1331h-146q-34 0 -58 24t-24 58v84q0 32 24 56t58 24h334q33 0 56.5 -23.5t23.5 -56.5v-1663q0 -33 -23.5 -56.5t-56.5 -23.5zM350 33h-162q-26 0 -44.5 -19t-18.5 -45v-84q0 -26 18.5 -43.5t44.5 -17.5h334
q27 0 45.5 17.5t18.5 43.5v1663q0 26 -19 44t-45 18h-334q-26 0 -44.5 -18t-18.5 -44v-84q0 -26 18.5 -44.5t44.5 -18.5h162v-1368z" />
    <glyph glyph-name="asciicircum" unicode="^" horiz-adv-x="1060" 
d="M889 813h-101q-28 0 -52 14.5t-36 38.5l-170 328l-168 -328q-12 -24 -36 -38.5t-52 -14.5h-100q-31 0 -46.5 25.5t-0.5 54.5l262 489q28 52 88 52h109q60 0 88 -52l262 -489q15 -29 -0.5 -54.5t-46.5 -25.5zM346 874l184 359l187 -359q19 -43 71 -43h101q21 0 32 17t1 37
l-265 489q-22 43 -71 43h-109q-49 0 -71 -43l-265 -489q-10 -20 1 -37t32 -17h100q53 0 72 43z" />
    <glyph glyph-name="underscore" unicode="_" horiz-adv-x="849" 
d="M739 -340h-630q-26 0 -44 19t-18 45v71q0 26 18 45t44 19h630q26 0 45 -19t19 -45v-71q0 -26 -19 -45t-45 -19zM739 -160h-630q-19 0 -32.5 -13t-13.5 -32v-71q0 -19 13.5 -32.5t32.5 -13.5h630q19 0 32 13.5t13 32.5v71q0 19 -13 32t-32 13z" />
    <glyph glyph-name="grave" unicode="`" horiz-adv-x="675" 
d="M481 1194h-112q-41 0 -66 35l-135 196q-17 23 -4.5 46.5t41.5 23.5h155q24 0 44.5 -12t29.5 -33l88 -190q12 -22 -2.5 -45t-38.5 -21zM360 1479h-155q-17 0 -24.5 -15.5t1.5 -27.5l135 -197q20 -27 52 -27h112q15 0 23.5 13t1.5 26l-88 191q-16 37 -58 37z" />
    <glyph glyph-name="a" unicode="a" horiz-adv-x="1282" 
d="M569 -27q-96 0 -179.5 31.5t-143 85t-102.5 124t-64 148.5t-21 158t21 158t64 148.5t102.5 124t143 85t179.5 31.5q203 0 320 -129v23q0 34 23 57.5t57 23.5h112q34 0 58 -23.5t24 -57.5v-881q0 -34 -24 -57t-58 -23h-112q-34 0 -57 23t-23 57v24q-116 -131 -320 -131z
M569 1049q-115 0 -210.5 -46.5t-155.5 -122.5t-92.5 -169t-32.5 -191q0 -78 20 -153.5t61.5 -143t98.5 -119t137.5 -82t173.5 -30.5q208 0 322 141l14 21v-74q0 -26 19 -45t45 -19h112q26 0 45 19t19 45v881q0 26 -19 44.5t-45 18.5h-112q-26 0 -45 -18.5t-19 -44.5v-74
l-14 20q-115 142 -322 142zM610 219q-127 0 -206.5 84t-79.5 217t79.5 217t206.5 84q126 0 205.5 -84.5t79.5 -216.5t-79.5 -216.5t-205.5 -84.5zM610 803q-120 0 -194 -79t-74 -204t74 -203.5t194 -78.5q118 0 192.5 78.5t74.5 203.5t-74.5 204t-192.5 79z" />
    <glyph glyph-name="b" unicode="b" horiz-adv-x="1282" 
d="M713 -27q-205 0 -318 131v-24q0 -34 -24 -57t-58 -23h-112q-34 0 -57 23t-23 57v1272q0 34 23 58t57 24h112q34 0 58 -24t24 -58v-414q114 129 318 129q120 0 219 -48t161 -127t96 -175t34 -197t-34 -197t-96 -175t-161 -127t-219 -48zM377 80v74l16 -21
q111 -141 320 -141q93 0 173.5 30.5t137.5 82t98.5 119t61.5 143t20 153.5q0 98 -32.5 191t-92.5 169t-155.5 122.5t-210.5 46.5q-208 0 -320 -142l-16 -20v465q0 26 -19 44.5t-45 18.5h-112q-26 0 -45 -18.5t-19 -44.5v-1272q0 -26 19 -45t45 -19h112q26 0 45 19t19 45z
M674 219q-126 0 -206.5 84.5t-80.5 216.5t80.5 216.5t206.5 84.5t205 -84.5t79 -216.5t-79 -216.5t-205 -84.5zM674 803q-118 0 -193 -79t-75 -204t75 -203.5t193 -78.5t193 78.5t75 203.5t-75 204t-193 79z" />
    <glyph glyph-name="c" unicode="c" horiz-adv-x="1107" 
d="M610 -27q-152 0 -278.5 72t-199.5 198t-73 277t73 277t199.5 198t278.5 72q128 0 241 -53t191 -150q16 -23 13 -49q-5 -27 -31 -43l-129 -76q-20 -11 -43.5 -6t-38.5 23q-74 90 -203 90q-117 0 -193.5 -80t-76.5 -203t76.5 -202.5t193.5 -79.5q130 0 203 92
q15 17 38.5 21t43.5 -7l129 -74q24 -15 29.5 -43t-11.5 -51q-78 -97 -191 -150t-241 -53zM610 1049q-147 0 -269.5 -70t-192.5 -191.5t-70 -267.5t70 -267.5t192.5 -191t269.5 -69.5q124 0 233.5 51t184.5 143q12 15 8 37t-22 31l-129 74q-14 9 -30.5 5t-27.5 -16
q-79 -98 -217 -98q-125 0 -206.5 85.5t-81.5 215.5t81.5 215.5t206.5 85.5q138 0 217 -98q10 -12 27.5 -15t30.5 5l129 73q19 13 22 31q3 23 -8 37q-75 93 -184.5 144t-233.5 51z" />
    <glyph glyph-name="d" unicode="d" horiz-adv-x="1282" 
d="M567 -27q-96 0 -179.5 31.5t-143 85t-102.5 124t-64 148.5t-21 158t21 158t64 148.5t102.5 124t143 85t179.5 31.5q204 0 318 -129v414q0 34 24 58t58 24h112q34 0 58 -24t24 -58v-1272q0 -34 -24 -57t-58 -23h-112q-34 0 -58 23t-24 57v24q-113 -131 -318 -131z
M567 1049q-115 0 -210.5 -46.5t-155.5 -122.5t-92.5 -169t-32.5 -191q0 -78 20 -153.5t61.5 -143t98.5 -119t137.5 -82t173.5 -30.5q209 0 320 141l16 21v-74q0 -26 19 -45t45 -19h112q26 0 45 19t19 45v1272q0 26 -19 44.5t-45 18.5h-112q-26 0 -45 -18.5t-19 -44.5v-465
l-16 20q-112 142 -320 142zM606 219q-126 0 -205 84.5t-79 216.5t79 216.5t205 84.5q127 0 207 -84.5t80 -216.5t-80 -216.5t-207 -84.5zM606 803q-118 0 -192 -79t-74 -204t74 -203.5t192 -78.5t193 78.5t75 203.5t-75 204t-193 79z" />
    <glyph glyph-name="e" unicode="e" horiz-adv-x="1175" 
d="M633 -27q-254 0 -415 153t-161 394q0 153 69.5 278.5t192.5 197t273 71.5q231 0 377 -152q154 -157 145 -423q0 -33 -23.5 -56.5t-56.5 -23.5h-682q28 -91 102.5 -142t178.5 -51q109 0 194 74q15 12 35.5 14t38.5 -8l115 -68q26 -15 30 -45.5t-18 -54.5
q-73 -75 -177 -116.5t-218 -41.5zM592 1049q-221 0 -368.5 -151.5t-147.5 -377.5q0 -233 155.5 -380.5t401.5 -147.5q110 0 210.5 39.5t172.5 111.5q15 15 12.5 39t-22.5 33l-113 68q-28 17 -53 -4q-86 -76 -207 -76q-116 0 -195.5 57t-105.5 160l-4 10h706q25 0 43.5 18
t18.5 44q9 259 -140 411q-67 70 -161.5 108t-202.5 38zM858 621l2 -11h-532l2 11q25 101 96.5 160t169.5 59q105 0 173.5 -57t88.5 -162zM350 629h490q-22 92 -85.5 142t-158.5 50q-91 0 -155.5 -50.5t-90.5 -141.5z" />
    <glyph glyph-name="f" unicode="f" horiz-adv-x="761" 
d="M403 0h-112q-34 0 -57 23t-23 57v711h-64q-34 0 -57.5 22.5t-23.5 56.5v91q0 34 23.5 57.5t57.5 23.5h64q0 33 3.5 65t14 75t26.5 80t45.5 74.5t67.5 64t95.5 43t126.5 16.5q39 0 55 -2q25 -3 42.5 -21t17.5 -42v-111q0 -26 -18 -44.5t-44 -18.5q-81 -1 -118.5 -44.5
t-39.5 -134.5h138q34 0 58 -23.5t24 -57.5v-91q0 -33 -24 -56t-58 -23h-138v-711q0 -34 -24 -57t-58 -23zM227 1024h-80q-26 0 -44.5 -18.5t-18.5 -44.5v-91q0 -26 18.5 -44.5t44.5 -18.5h80v-727q0 -26 19 -45t45 -19h112q26 0 45 19t19 45v727h156q26 0 44.5 18.5
t18.5 44.5v91q0 26 -18.5 44.5t-44.5 18.5h-156v8q0 103 42.5 153.5t133.5 53.5q17 0 30 13t13 32v111q0 17 -12 30.5t-29 14.5q-16 2 -55 2q-67 0 -122.5 -16.5t-92.5 -43t-65 -63.5t-43 -73.5t-24.5 -78.5t-12.5 -73t-3 -62v-8z" />
    <glyph glyph-name="g" unicode="g" horiz-adv-x="1275" 
d="M590 -410q-129 0 -249 42t-198 114q-22 22 -18 53.5t31 46.5l116 70q38 20 74 -8q85 -72 236 -72q145 0 222 77.5t77 223.5v49q-114 -141 -316 -141q-97 0 -180 29t-142 78.5t-101 115t-62.5 139t-20.5 150.5t20.5 150.5t62.5 138.5t101 114.5t142 78t180 28.5
q202 0 316 -141v35q0 34 23 57.5t57 23.5h112q34 0 58 -23.5t24 -57.5v-842q0 -241 -154 -385t-411 -144zM281 -100l-117 -70q-18 -9 -20.5 -33.5t12.5 -36.5q75 -70 191.5 -110.5t242.5 -40.5q249 0 398 139t149 371v842q0 26 -19 44.5t-45 18.5h-112q-26 0 -45 -18.5
t-19 -44.5v-91l-16 25q-109 154 -316 154q-115 0 -210 -42.5t-154 -112.5t-91 -157t-32 -180q0 -94 32 -181.5t91 -157.5t154 -112.5t210 -42.5q206 0 316 156l16 23v-105q0 -154 -81.5 -236.5t-233.5 -82.5q-157 0 -248 78q-24 18 -53 4zM604 274q-123 0 -202.5 80
t-79.5 203t79.5 203t202.5 80q124 0 203.5 -79t79.5 -204t-79.5 -204t-203.5 -79zM604 821q-117 0 -190.5 -73.5t-73.5 -190.5t73.5 -190.5t190.5 -73.5t190.5 73.5t73.5 190.5t-73.5 190.5t-190.5 73.5z" />
    <glyph glyph-name="h" unicode="h" 
d="M987 0h-113q-34 0 -57.5 23t-23.5 57v498q0 43 -8 79t-27.5 70t-59.5 54t-96 20q-55 0 -97 -20t-65.5 -53.5t-35 -71t-11.5 -78.5v-498q0 -34 -23 -57t-57 -23h-112q-34 0 -58 23t-24 57v1272q0 34 24 58t58 24h112q34 0 57 -24t23 -58v-416q107 131 289 131
q96 0 171.5 -37t121 -100t69 -139t23.5 -160v-551q0 -34 -23 -57t-57 -23zM602 817q102 0 155.5 -61t53.5 -178v-498q0 -26 18.5 -45t44.5 -19h113q26 0 45 19t19 45v551q0 81 -22.5 154t-66 133t-116 95.5t-164.5 35.5q-193 0 -289 -146l-16 -24v473q0 26 -19 44.5
t-45 18.5h-112q-26 0 -45 -18.5t-19 -44.5v-1272q0 -26 19 -45t45 -19h112q26 0 45 19t19 45v498q0 96 55.5 167.5t169.5 71.5z" />
    <glyph glyph-name="i" unicode="i" horiz-adv-x="505" 
d="M309 0h-112q-34 0 -58 23t-24 57v881q0 34 24 57.5t58 23.5h112q34 0 57 -23.5t23 -57.5v-881q0 -34 -23 -57t-57 -23zM309 1024h-112q-26 0 -45 -18.5t-19 -44.5v-881q0 -26 19 -45t45 -19h112q26 0 45 19t19 45v881q0 26 -19 44.5t-45 18.5zM252 1174q-60 0 -103 43
t-43 104q0 60 43 102.5t103 42.5q61 0 104 -42.5t43 -102.5q0 -61 -42.5 -104t-104.5 -43zM252 1448q-52 0 -89.5 -37t-37.5 -90q0 -54 37 -91.5t90 -37.5q54 0 91.5 37.5t37.5 91.5q0 53 -37.5 90t-91.5 37z" />
    <glyph glyph-name="j" unicode="j" horiz-adv-x="505" 
d="M8 -375q-25 0 -39 2q-25 3 -42 21t-17 43v131q0 25 17 43.5t42 19.5q75 5 110.5 47.5t35.5 128.5v900q0 34 24 57.5t58 23.5h112q34 0 57 -23.5t23 -57.5v-934q0 -191 -100 -296.5t-281 -105.5zM309 1024h-112q-26 0 -45 -18.5t-19 -44.5v-900q0 -94 -39.5 -142
t-122.5 -52q-19 -2 -31 -14t-12 -31v-131q0 -18 11.5 -30.5t29.5 -14.5q16 -2 39 -2q175 0 269 98.5t94 284.5v934q0 26 -18 44.5t-44 18.5zM252 1174q-60 0 -103 43t-43 104q0 60 43 102.5t103 42.5q61 0 103 -42.5t42 -102.5q0 -62 -42 -104.5t-103 -42.5zM252 1448
q-52 0 -89.5 -37t-37.5 -90q0 -54 37 -91.5t90 -37.5q54 0 91.5 37.5t37.5 91.5q0 53 -37.5 90t-91.5 37z" />
    <glyph glyph-name="k" unicode="k" horiz-adv-x="1097" 
d="M969 0h-176q-52 0 -80 39l-320 428v-387q0 -34 -24 -57t-58 -23h-112q-33 0 -56.5 23.5t-23.5 56.5v1272q0 34 24 58t56 24h112q34 0 58 -24t24 -58v-725l275 374q30 41 80 41h157q34 0 48.5 -31t-5.5 -57l-305 -393l369 -475q20 -26 5.5 -56.5t-48.5 -29.5zM375 80v442
l352 -473q26 -33 66 -33h176q24 0 32.5 20.5t-4.5 39.5l-376 485l313 406q13 17 3 37t-32 20h-157q-40 0 -66 -33l-307 -420v781q0 26 -19 44.5t-45 18.5h-112q-26 0 -44 -18.5t-18 -44.5v-1272q0 -26 18 -45t44 -19h112q26 0 45 19t19 45z" />
    <glyph glyph-name="l" unicode="l" horiz-adv-x="505" 
d="M309 0h-112q-33 0 -56.5 23.5t-23.5 56.5v1272q0 34 24 58t56 24h112q34 0 58 -24t24 -58v-1272q0 -34 -24 -57t-58 -23zM309 1415h-112q-26 0 -44 -18.5t-18 -44.5v-1272q0 -26 18 -45t44 -19h112q26 0 45 19t19 45v1272q0 26 -19 44.5t-45 18.5z" />
    <glyph glyph-name="m" unicode="m" horiz-adv-x="1742" 
d="M1538 0h-113q-34 0 -58 23t-24 57v516q0 39 -7 71.5t-23.5 64.5t-50.5 50.5t-82 18.5q-78 0 -125 -55.5t-47 -149.5v-516q0 -34 -24 -57t-58 -23h-113q-33 0 -56.5 23.5t-23.5 56.5v516q0 38 -7 71.5t-24 65t-51 50t-82 18.5q-78 0 -125 -55.5t-47 -149.5v-516
q0 -34 -24 -57t-58 -23h-112q-34 0 -57 23t-23 57v881q0 34 23 57.5t57 23.5h112q34 0 58 -23.5t24 -57.5v-11q91 117 260 117q194 0 285 -154q116 154 309 154q92 0 164 -35.5t115.5 -95.5t65.5 -133t22 -154v-569q0 -33 -23.5 -56.5t-56.5 -23.5zM1180 817q88 0 135 -57
t47 -164v-516q0 -26 18.5 -45t44.5 -19h113q26 0 43.5 18.5t17.5 45.5v569q0 77 -21 147t-62 127.5t-109.5 91.5t-155.5 34q-93 0 -170.5 -40.5t-130.5 -115.5l-8 -12l-8 12q-84 156 -277 156q-173 0 -262 -129l-16 -25v66q0 26 -19 44.5t-45 18.5h-112q-26 0 -45 -18.5
t-19 -44.5v-881q0 -26 19 -45t45 -19h112q26 0 45 19t19 45v516q0 101 51 161t139 60t135.5 -57t47.5 -164v-516q0 -27 17.5 -45.5t43.5 -18.5h113q26 0 44.5 19t18.5 45v516q0 101 52 161t139 60z" />
    <glyph glyph-name="n" unicode="n" 
d="M987 0h-113q-34 0 -56.5 23t-22.5 57v498q0 42 -8.5 78.5t-28 70.5t-59 54t-95.5 20t-98 -20t-65.5 -53.5t-34.5 -71t-11 -78.5v-498q0 -34 -24 -57t-58 -23h-112q-34 0 -57 23t-23 57v881q0 34 23 57.5t57 23.5h112q34 0 58 -23.5t24 -57.5v-25q104 131 289 131
q96 0 171.5 -37t121 -100t69 -139t23.5 -160v-551q0 -34 -24 -57t-58 -23zM604 817q100 0 153.5 -61t53.5 -178v-498q0 -26 18.5 -45t44.5 -19h113q26 0 45 19t19 45v551q0 81 -22.5 154t-66 133t-115.5 95.5t-163 35.5q-191 0 -291 -146l-16 -24v82q0 26 -19 44.5t-45 18.5
h-112q-26 0 -45 -18.5t-19 -44.5v-881q0 -26 19 -45t45 -19h112q26 0 45 19t19 45v498q0 44 12.5 84.5t37.5 76t71 57t106 21.5z" />
    <glyph glyph-name="o" unicode="o" horiz-adv-x="1218" 
d="M610 -27q-152 0 -278.5 72t-199.5 198t-73 277t73 277t199.5 198t278.5 72t278.5 -72t199.5 -198t73 -277t-73 -277t-199.5 -198t-278.5 -72zM610 1049q-147 0 -269.5 -70t-192.5 -191.5t-70 -267.5t70 -267.5t192.5 -191t269.5 -69.5t269.5 69.5t193 191t70.5 267.5
t-70.5 267.5t-193 191.5t-269.5 70zM610 219q-124 0 -205 85t-81 216t81 216t205 85q126 0 207.5 -85t81.5 -216t-81.5 -216t-207.5 -85zM610 803q-117 0 -192.5 -80t-75.5 -203t75.5 -202.5t192.5 -79.5t194 79.5t77 202.5t-77 203t-194 80z" />
    <glyph glyph-name="p" unicode="p" horiz-adv-x="1282" 
d="M315 -391h-112q-34 0 -58 24t-24 58v1272q0 32 24 55.5t58 23.5h112q32 0 56 -23.5t24 -55.5v-25q117 129 320 129q96 0 179 -31.5t142.5 -84.5t102 -123t63.5 -148t21 -158q0 -101 -33.5 -197.5t-96 -175t-161 -126.5t-217.5 -48q-203 0 -320 129v-413q0 -34 -24 -58
t-56 -24zM315 1024h-112q-27 0 -45.5 -17.5t-18.5 -43.5v-1272q0 -26 19 -45t45 -19h112q26 0 44 19t18 45v465l16 -21q113 -143 322 -143q115 0 210 46.5t155 122t93 169.5t33 192t-33 191t-93 169t-155.5 122.5t-209.5 46.5q-209 0 -322 -144l-16 -20v76q0 26 -18 43.5
t-44 17.5zM674 221q-126 0 -205.5 84t-79.5 217q0 132 79.5 215.5t205.5 83.5t206.5 -83.5t80.5 -215.5q0 -133 -80.5 -217t-206.5 -84zM674 803q-119 0 -193.5 -78.5t-74.5 -202.5q0 -126 74.5 -204t193.5 -78t193.5 78t74.5 204q0 124 -74.5 202.5t-193.5 78.5z" />
    <glyph glyph-name="q" unicode="q" horiz-adv-x="1282" 
d="M1079 -391h-112q-34 0 -58 24t-24 58v413q-114 -129 -318 -129q-119 0 -218 48t-161.5 126t-96.5 175t-34 198t34 197t96.5 174t161.5 126t218 48q204 0 318 -129v25q0 32 24 55.5t58 23.5h112q34 0 58 -23.5t24 -55.5v-1272q0 -34 -24 -58t-58 -24zM887 135l16 21v-465
q0 -26 19 -45t45 -19h112q26 0 45 19t19 45v1272q0 26 -18.5 43.5t-45.5 17.5h-112q-27 0 -45.5 -17.5t-18.5 -43.5v-76l-16 20q-113 144 -320 144q-115 0 -210.5 -46.5t-155.5 -122.5t-92.5 -169t-32.5 -191t32.5 -191.5t92.5 -169.5t155.5 -122.5t210.5 -46.5
q207 0 320 143zM606 221q-126 0 -205 83.5t-79 217.5q0 132 79 215.5t205 83.5q127 0 207 -83.5t80 -215.5q0 -134 -80 -217.5t-207 -83.5zM606 803q-118 0 -192 -78t-74 -203q0 -126 73.5 -204t192.5 -78t193.5 78t74.5 204q0 124 -74.5 202.5t-193.5 78.5z" />
    <glyph glyph-name="r" unicode="r" horiz-adv-x="790" 
d="M311 0h-112q-34 0 -58 24t-24 58v881q0 32 24 55.5t58 23.5h112q33 0 56.5 -23t23.5 -56v-66q48 65 119 109t152 57q31 3 51 -14q22 -19 22 -50v-161q0 -27 -19.5 -45.5t-45.5 -18.5q-132 3 -199 -61q-80 -78 -80 -281v-350q0 -34 -23 -58t-57 -24zM311 1024h-112
q-27 0 -45.5 -17.5t-18.5 -43.5v-881q0 -26 19 -45t45 -19h112q26 0 45 19t19 45v350q0 95 16.5 170t67.5 123q71 71 211 68q19 0 33 12.5t14 32.5v161q0 21 -17 35q-16 13 -34 10q-86 -14 -159 -62t-116 -120l-16 -26v127q0 26 -18.5 43.5t-45.5 17.5z" />
    <glyph glyph-name="s" unicode="s" horiz-adv-x="968" 
d="M477 -25q-131 0 -251 48t-173 147q-14 26 -3.5 53.5t38.5 36.5l145 45q20 6 41 -2t31 -27q45 -69 176 -69q75 0 117.5 26.5t42.5 73.5q0 20 -11 35t-25.5 24t-43 17t-48 11.5t-56.5 8.5q-41 6 -78 15q-158 32 -232.5 109.5t-74.5 209.5q0 149 113 239.5t298 90.5
q130 0 231.5 -55.5t147.5 -151.5q13 -25 0.5 -53.5t-41.5 -34.5l-131 -33q-20 -5 -39.5 3.5t-29.5 27.5q-39 64 -138 64q-18 0 -37 -3t-46 -11.5t-43.5 -30t-16.5 -52.5q0 -20 11 -35.5t26.5 -25t41.5 -17.5t44.5 -11.5t48 -8.5t41.5 -8q96 -21 159 -44t113.5 -58t73.5 -85
t23 -120q0 -163 -118 -256t-327 -93zM238 287l-144 -43q-21 -6 -28.5 -26.5t2.5 -39.5q53 -95 168 -140.5t241 -45.5q199 0 312.5 88.5t113.5 243.5q0 118 -78 181.5t-276 106.5q-10 2 -37 6.5t-43 8t-41.5 10t-41 15t-31.5 20.5t-23.5 28.5t-7.5 36.5q0 58 46.5 86.5
t112.5 28.5q108 0 154 -74q17 -26 49 -20l131 30q20 6 29 25.5t0 38.5q-43 92 -140.5 145.5t-222.5 53.5q-176 0 -284.5 -87t-108.5 -227q0 -125 71 -198.5t222 -104.5q12 -2 38 -6t38 -6q34 -5 51 -8t45.5 -10t43 -14.5t30.5 -19t23 -27.5t7 -36q0 -55 -47 -86t-131 -31
q-142 0 -190 78q-9 13 -24 18.5t-29 0.5z" />
    <glyph glyph-name="t" unicode="t" horiz-adv-x="782" 
d="M578 -14q-180 0 -278.5 103.5t-98.5 293.5v408h-84q-33 0 -56.5 23t-23.5 56v93q0 32 24 55.5t56 23.5h84v134q0 34 23.5 57.5t56.5 23.5h114q33 0 56.5 -23.5t23.5 -57.5v-134h137q34 0 58 -23.5t24 -55.5v-93q0 -33 -24 -56t-58 -23h-137v-367q0 -100 29 -138t121 -38
h4q28 0 46.5 -18t18.5 -46v-133q0 -23 -16 -41.5t-39 -21.5q-18 -2 -61 -2zM219 1024h-102q-25 0 -43.5 -17.5t-18.5 -43.5v-93q0 -26 18.5 -43.5t43.5 -17.5h102v-426q0 -181 94.5 -281t264.5 -100q27 0 59 4q17 3 28 15.5t11 29.5v133q0 20 -13.5 32.5t-31.5 12.5h-6
q-46 0 -77.5 10.5t-49 26t-27 43t-12 52t-2.5 63.5v385h155q27 0 45.5 17.5t18.5 43.5v93q0 26 -18.5 43.5t-45.5 17.5h-155v152q0 26 -18 44.5t-44 18.5h-114q-26 0 -44 -18.5t-18 -44.5v-152z" />
    <glyph glyph-name="u" unicode="u" 
d="M504 -25q-96 0 -171.5 37t-121 99.5t-69 138.5t-23.5 160v553q0 32 24 55.5t58 23.5h112q33 0 56.5 -23t23.5 -56v-500q0 -42 8.5 -77.5t28.5 -69.5t60 -54t96 -20q55 0 97 20t65 53t34 70t11 78v500q0 32 23.5 55.5t57.5 23.5h113q33 0 56.5 -23t23.5 -56v-881
q0 -34 -23 -58t-57 -24h-113q-34 0 -57.5 24t-23.5 58v24q-101 -131 -289 -131zM313 1024h-112q-27 0 -45.5 -17.5t-18.5 -43.5v-553q0 -80 22.5 -153t66 -133t115.5 -96t163 -36q192 0 291 147l16 25v-82q0 -26 18.5 -45t44.5 -19h113q26 0 45 19t19 45v881
q0 26 -18.5 43.5t-45.5 17.5h-113q-26 0 -44.5 -17.5t-18.5 -43.5v-500q0 -96 -55.5 -168t-169.5 -72q-101 0 -155 62t-54 178v500q0 26 -18.5 43.5t-45.5 17.5z" />
    <glyph glyph-name="v" unicode="v" horiz-adv-x="1116" 
d="M639 0h-158q-31 0 -56 17.5t-36 45.5l-332 895q-11 31 8 57.5t52 26.5h135q32 0 58 -18t36 -49l213 -639l215 639q10 31 36 49t58 18h136q35 0 52.5 -26.5t6.5 -57.5l-332 -895q-11 -28 -36 -45.5t-56 -17.5zM252 1024h-135q-26 0 -38.5 -18.5t-4.5 -40.5l332 -893
q9 -25 29.5 -39.5t45.5 -14.5h158q25 0 46 14.5t30 39.5l332 893q6 22 -6.5 40.5t-36.5 18.5h-136q-27 0 -47.5 -14.5t-27.5 -40.5l-234 -690l-231 690q-7 26 -28 40.5t-48 14.5z" />
    <glyph glyph-name="w" unicode="w" horiz-adv-x="1636" 
d="M1188 0h-98q-32 0 -58.5 18.5t-36.5 49.5l-176 518l-176 -518q-11 -31 -36.5 -49.5t-57.5 -18.5h-98q-32 0 -58.5 18.5t-36.5 49.5l-299 893q-10 31 9 56t51 25h135q32 0 58.5 -19t35.5 -50l170 -561l193 575q9 25 30 40t47 15h66q26 0 47.5 -15t28.5 -40l194 -575
l170 561q9 31 35.5 50t58.5 19h136q34 0 52 -25t7 -56l-299 -893q-11 -31 -36.5 -49.5t-57.5 -18.5zM627 74l192 567l193 -567q9 -25 30.5 -40.5t47.5 -15.5h98q26 0 47.5 15.5t30.5 40.5l299 891q8 23 -5 41t-38 18h-136q-28 0 -49 -15.5t-28 -41.5l-187 -615l-211 629
q-13 43 -59 43h-66q-46 0 -59 -43l-211 -629l-186 615q-7 26 -28.5 41.5t-49.5 15.5h-135q-24 0 -37.5 -18.5t-5.5 -40.5l299 -891q9 -25 30.5 -40.5t47.5 -15.5h98q26 0 47.5 15.5t30.5 40.5z" />
    <glyph glyph-name="x" unicode="x" horiz-adv-x="1097" 
d="M975 0h-164q-56 0 -84 45l-180 279l-180 -279q-28 -45 -82 -45h-166q-32 0 -47 28t2 56l299 453l-281 421q-19 26 -3 55t48 29h164q57 0 84 -47l162 -262l164 262q27 47 84 47h163q33 0 48.5 -28t-2.5 -56l-283 -421l299 -453q19 -28 3 -57t-48 -27zM352 55l195 301
l196 -301q23 -37 68 -37h164q23 0 32.5 18.5t-1.5 37.5l-308 463l289 432q12 19 2.5 37t-31.5 18h-163q-44 0 -70 -37l-178 -289l-178 289q-23 37 -68 37h-164q-23 0 -32.5 -18t1.5 -37l289 -432l-305 -463q-12 -19 -2.5 -37.5t31.5 -18.5h166q44 0 67 37z" />
    <glyph glyph-name="y" unicode="y" horiz-adv-x="1134" 
d="M297 -391q-25 0 -66 6q-23 3 -38 20.5t-15 40.5v99q0 26 17 43.5t43 19.5q76 3 124 55t91 177q-11 24 -82.5 185.5t-169.5 382.5t-140 316q-12 30 6.5 59t51.5 29h133q31 0 56.5 -17t35.5 -46l231 -596l216 594q9 29 35 47t57 18h135q35 0 52 -27.5t5 -58.5
q-280 -720 -377 -950q-31 -75 -55 -125.5t-60.5 -106.5t-74.5 -89t-92.5 -54.5t-118.5 -21.5zM252 1024h-133q-25 0 -37.5 -20t-3.5 -43q79 -174 230 -516t163 -373q-44 -137 -96 -193t-137 -59q-18 -2 -29.5 -14.5t-11.5 -30.5v-99q0 -15 10.5 -28.5t25.5 -14.5
q37 -6 64 -6q70 0 125 23t100.5 74.5t81.5 118.5t78 169q99 244 377 951q9 23 -3.5 42t-37.5 19h-135q-27 0 -48 -14.5t-28 -38.5l-232 -639l-247 641q-9 23 -30 37t-46 14z" />
    <glyph glyph-name="z" unicode="z" horiz-adv-x="1007" 
d="M840 0h-668q-34 0 -58 24t-24 58v76q0 30 21 61l440 572h-363q-32 0 -55.5 23.5t-23.5 57.5v91q0 32 23.5 55.5t55.5 23.5h635q32 0 56 -23.5t24 -55.5v-78q0 -36 -20 -62l-443 -571h400q34 0 58 -24t24 -58v-88q0 -34 -24 -58t-58 -24zM823 1024h-635q-26 0 -43.5 -17.5
t-17.5 -43.5v-91q0 -26 17.5 -44.5t43.5 -18.5h400l-463 -602q-16 -19 -16 -49v-76q0 -26 18.5 -45t44.5 -19h668q26 0 44.5 19t18.5 45v88q0 26 -18.5 44.5t-44.5 18.5h-437l465 603q17 24 17 49v78q0 26 -18 43.5t-44 17.5z" />
    <glyph glyph-name="braceleft" unicode="{" horiz-adv-x="839" 
d="M670 -195h-52q-190 0 -280 87t-90 270v299q0 73 -16 105t-54 38q-22 5 -36.5 23t-14.5 41v98q0 23 14.5 40.5t36.5 22.5q39 8 54.5 39.5t15.5 104.5v299q0 183 90 269.5t280 86.5h52q26 0 43.5 -18.5t17.5 -44.5v-127q0 -23 -15.5 -39.5t-37.5 -16.5q-34 0 -58.5 -4.5
t-42 -11t-29 -22t-18 -29.5t-9.5 -41.5t-4 -50t-1 -62.5v-207q0 -190 -145 -237q145 -47 145 -238v-207q0 -40 1 -62.5t4 -50t9.5 -41.5t18 -29.5t29 -22t42 -11t58.5 -4.5q22 0 37.5 -16t15.5 -39v-127q0 -27 -17.5 -45.5t-43.5 -18.5zM670 1610h-52q-181 0 -267.5 -82.5
t-86.5 -255.5v-299q0 -77 -16.5 -114.5t-65.5 -47.5q-15 -3 -26 -15.5t-11 -29.5v-98q0 -17 11 -29.5t26 -15.5q49 -10 65.5 -47.5t16.5 -114.5v-299q0 -173 86.5 -255.5t267.5 -82.5h52q19 0 32 12.5t13 32.5v127q0 15 -11.5 26t-25.5 11q-29 0 -53 4t-41.5 9t-31 17
t-22 21.5t-14.5 29t-9.5 32t-5 38.5t-1.5 41v47v207q0 188 -152 226l-6 2v20l6 2q152 38 152 225v207v47t1.5 41t5 39t9.5 32.5t14.5 28.5t22 21.5t31 17.5t41.5 9t53 4q14 0 25.5 11t11.5 26v127q0 20 -13 32.5t-32 12.5z" />
    <glyph glyph-name="bar" unicode="|" horiz-adv-x="503" 
d="M295 -301h-90q-34 0 -57 24t-23 58v1687q0 34 23 57t57 23h90q34 0 58 -23t24 -57v-1687q0 -34 -24 -58t-58 -24zM295 1532h-90q-26 0 -44 -19t-18 -45v-1687q0 -26 18 -45t44 -19h90q26 0 44.5 19t18.5 45v1687q0 26 -18.5 45t-44.5 19z" />
    <glyph glyph-name="braceright" unicode="}" horiz-adv-x="839" 
d="M219 -195h-49q-26 0 -45 19t-19 45v127q0 23 16.5 39t39.5 16q46 0 76 9t47 22.5t25 44.5t10 60t2 85v207q0 191 147 238q-147 47 -147 237v207q0 56 -2 85t-10 60t-25 44.5t-47 22.5t-76 9q-23 0 -39.5 16.5t-16.5 39.5v127q0 26 19 44.5t45 18.5h49q191 0 282 -86.5
t91 -269.5v-299q0 -74 14.5 -105.5t52.5 -38.5q23 -5 38.5 -22.5t15.5 -40.5v-98q0 -23 -15.5 -41t-38.5 -23q-38 -6 -52.5 -37.5t-14.5 -105.5v-299q0 -183 -91 -270t-282 -87zM219 1610h-49q-19 0 -32 -12.5t-13 -32.5v-127q0 -15 11 -26t26 -11q29 0 53 -4t41.5 -9
t31 -17.5t22 -21.5t14.5 -28.5t9.5 -32.5t5 -39t1.5 -41v-47v-207q0 -187 152 -225l6 -2v-20l-6 -2q-152 -38 -152 -226v-207v-47t-1.5 -41t-5 -38.5t-9.5 -32t-14.5 -29t-22 -21.5t-31 -17t-41.5 -9t-53 -4q-15 0 -26 -11t-11 -26v-127q0 -20 13 -32.5t32 -12.5h49
q181 0 267.5 82.5t86.5 255.5v299q0 76 17 114t67 48q15 3 26 15.5t11 29.5v98q0 17 -11 29.5t-26 15.5q-50 10 -67 48t-17 114v299q0 173 -86.5 255.5t-267.5 82.5z" />
    <glyph glyph-name="asciitilde" unicode="~" horiz-adv-x="1191" 
d="M815 457q-94 0 -242 53q-111 39 -167 39q-61 0 -80 -45q-9 -22 -28.5 -33t-41.5 -6l-84 18q-27 3 -41.5 29t-5.5 51q68 205 270 205q13 0 26 -1t23.5 -2t25.5 -4t23 -4t24.5 -6t21.5 -6t23 -7t20.5 -7t22 -7.5t20.5 -6.5q111 -39 161 -39q61 0 78 45q9 20 28.5 30t39.5 5
l88 -17q27 -5 41.5 -27.5t7.5 -49.5q-29 -106 -91 -156.5t-163 -50.5zM406 567q53 0 174 -41q50 -17 76 -25.5t71.5 -17t87.5 -8.5q95 0 152.5 47t83.5 146q5 18 -4.5 34.5t-30.5 20.5l-86 18q-15 3 -29 -4t-20 -22q-24 -56 -95 -56q-47 0 -168 41q-5 2 -29.5 10t-32 10.5
t-29 8.5t-33.5 8.5t-30.5 6t-35 5t-33.5 1.5q-189 0 -252 -191q-6 -21 3.5 -38.5t29.5 -20.5l84 -17q15 -3 29 4.5t20 22.5q26 57 97 57z" />
    <glyph glyph-name="exclamdown" unicode="&#xa1;" horiz-adv-x="567" 
d="M285 752q-65 0 -111.5 46.5t-46.5 112.5q0 65 46.5 111.5t111.5 46.5q66 0 112.5 -46.5t46.5 -111.5q0 -66 -46.5 -112.5t-112.5 -46.5zM285 1051q-57 0 -98.5 -41.5t-41.5 -98.5q0 -58 41.5 -99.5t98.5 -41.5q59 0 100 41t41 100q0 57 -41.5 98.5t-99.5 41.5zM348 -391
h-125q-34 0 -57.5 24t-22.5 60l23 815q2 33 25.5 55.5t56.5 22.5h76q33 0 56.5 -22.5t25.5 -55.5l22 -815q0 -35 -23.5 -59.5t-56.5 -24.5zM184 508l-24 -815q-2 -27 17 -46.5t46 -19.5h125q25 0 43.5 20t18.5 46l-23 815q-2 25 -19.5 42t-43.5 17h-76q-26 0 -44 -17
t-20 -42z" />
    <glyph glyph-name="cent" unicode="&#xa2;" horiz-adv-x="1198" 
d="M651 0h-90q-19 0 -32 13t-13 32v137q-189 41 -308.5 190t-119.5 345t119.5 344.5t308.5 189.5v138q0 19 13 32t32 13h90q19 0 32 -13t13 -32v-129q233 -22 375 -199q17 -22 12 -51t-30 -41l-129 -76q-20 -11 -43.5 -7t-36.5 21q-76 92 -205 92q-117 0 -193.5 -79.5
t-76.5 -202.5t76.5 -203t193.5 -80q129 0 205 92q13 17 36.5 21.5t43.5 -6.5l129 -76q25 -14 29.5 -41.5t-11.5 -50.5q-142 -177 -375 -199v-129q0 -19 -13 -32t-32 -13zM651 1415h-90q-11 0 -18.5 -7.5t-7.5 -18.5v-154h-7q-186 -37 -304 -181.5t-118 -336.5t118 -336.5
t304 -181.5h7v-154q0 -11 8 -19t18 -8h90q12 0 20.5 8t8.5 19v145h8q111 9 206.5 59t162.5 134q12 15 7.5 37t-22.5 31l-129 73q-13 8 -30 5t-27 -15q-79 -98 -217 -98q-124 0 -205.5 85t-81.5 216t81.5 216t205.5 85q138 0 217 -98q11 -12 27 -15t30 4l129 74q18 9 22.5 31
t-7.5 37q-67 84 -162.5 133.5t-206.5 58.5h-8v146q0 11 -8.5 18.5t-20.5 7.5z" />
    <glyph glyph-name="sterling" unicode="&#xa3;" horiz-adv-x="1226" 
d="M1036 0h-866q-32 0 -56 24t-24 58v137q0 49 37 78q75 60 113.5 126.5t38.5 166.5q0 5 -1.5 14t-1.5 14h-141q-19 0 -32 13t-13 33v71q0 19 13 32t32 13h103q-5 15 -9 23q-17 45 -25.5 72t-17 74t-8.5 95q0 186 128 300t335 114q146 0 253.5 -63t156.5 -178q15 -32 -3 -67
t-53 -44l-129 -31q-23 -6 -42.5 3.5t-30.5 31.5q-14 34 -49.5 61t-96.5 27q-64 0 -111 -42t-47 -130q0 -79 37 -192q3 -12 17 -54h315q19 0 32 -13t13 -32v-71q0 -20 -13 -33t-32 -13h-293q-4 -199 -174 -346h645q34 0 58 -23.5t24 -55.5v-111q0 -34 -24 -58t-58 -24z
M264 762h-129q-10 0 -18 -8t-8 -19v-71q0 -12 7.5 -20.5t18.5 -8.5h158l2 -8v-37q0 -97 -36.5 -168t-119.5 -139q-30 -24 -30 -64v-137q0 -27 17.5 -45.5t43.5 -18.5h866q26 0 45 19t19 45v111q0 26 -18.5 43.5t-45.5 17.5h-676v16l5 4q20 16 40 35t47 53t47 71t34 88.5
t14 105.5v8h311q11 0 19 8.5t8 20.5v71q0 11 -8.5 19t-18.5 8h-330l-2 6q-3 10 -9 30.5t-9 30.5q-37 117 -37 197q0 96 52.5 143.5t123.5 47.5q68 0 106.5 -31t55.5 -70q17 -30 53 -24l129 32q27 6 41 33t2 51q-47 111 -150.5 172.5t-242.5 61.5q-202 0 -323 -109t-121 -289
q0 -107 51 -235q10 -30 12 -35z" />
    <glyph glyph-name="currency" unicode="&#xa4;" horiz-adv-x="1056" 
d="M813 305l-98 101q-82 -52 -185 -52q-101 0 -186 52l-98 -101q-12 -12 -32 -12t-32 12l-63 64q-13 13 -13 31t13 32l98 100q-51 85 -51 185q0 99 51 184l-98 100q-14 14 -14.5 31.5t14.5 32.5l63 63q12 12 32 12t32 -12l98 -98q88 51 186 51q100 0 185 -51l98 98
q33 26 66 0l63 -63q12 -13 12 -32.5t-12 -31.5l-100 -100q51 -80 51 -184q0 -105 -51 -185l100 -100q12 -12 12 -31.5t-12 -31.5l-63 -64q-16 -14 -34 -13.5t-32 13.5zM711 424l6 4l110 -111q7 -7 18 -7t19 7l64 64q8 7 8 19t-8 20l-109 108l4 7q51 80 51 182t-51 182l-4 6
l109 109q9 8 9 20t-9 19l-64 63q-8 8 -19 8t-18 -8l-110 -110l-6 4q-80 53 -181 53q-99 0 -182 -53l-6 -4l-109 110q-7 8 -19 8t-19 -8l-64 -63q-19 -19 0 -39l109 -109l-4 -6q-52 -87 -52 -182t52 -182l4 -7l-109 -108q-19 -20 0 -39l64 -64q7 -7 19 -7t19 7l109 111l6 -4
q83 -53 182 -53q101 0 181 53zM530 551q-69 0 -117 48.5t-48 117.5t48 117.5t117 48.5q68 0 116 -48.5t48 -117.5t-48 -117.5t-116 -48.5zM530 864q-62 0 -104.5 -43t-42.5 -104q0 -62 43 -105t104 -43q60 0 104 43.5t44 104.5t-44 104t-104 43z" />
    <glyph glyph-name="yen" unicode="&#xa5;" horiz-adv-x="1409" 
d="M772 0h-131q-34 0 -57 24t-23 58v182h-260q-20 0 -32.5 13t-12.5 32v72q0 19 12.5 32t32.5 13h260v98h-260q-20 0 -32.5 13t-12.5 32v72q0 19 12.5 32t32.5 13h170l-389 651q-19 32 -0.5 64.5t55.5 32.5h142q32 0 59.5 -16t42.5 -44l326 -571l325 571q15 28 43 44t60 16
h141q38 0 56 -32.5t-1 -64.5l-389 -651h170q20 0 32.5 -13t12.5 -32v-72q0 -19 -12.5 -32t-32.5 -13h-260v-98h260q20 0 32.5 -13t12.5 -32v-72q0 -19 -12.5 -32t-32.5 -13h-260v-182q0 -34 -23 -58t-57 -24zM578 408h-277q-12 0 -20.5 -8t-8.5 -19v-72q0 -11 8.5 -18.5
t20.5 -7.5h277v-201q0 -26 18.5 -45t44.5 -19h131q26 0 45 19t19 45v201h276q12 0 20.5 7.5t8.5 18.5v72q0 11 -8.5 19t-20.5 8h-276v135h276q12 0 20.5 7.5t8.5 18.5v72q0 11 -8.5 19t-20.5 8h-201l404 680q14 23 1.5 45t-40.5 22h-141q-58 0 -86 -49l-342 -600l-342 600
q-28 49 -86 49h-142q-28 0 -40.5 -22t1.5 -45l406 -680h-203q-12 0 -20.5 -8t-8.5 -19v-72q0 -11 8.5 -18.5t20.5 -7.5h277v-135z" />
    <glyph glyph-name="brokenbar" unicode="&#xa6;" horiz-adv-x="503" 
d="M295 -301h-90q-32 0 -56 24t-24 58v573q0 33 23.5 56.5t56.5 23.5h90q34 0 58 -23t24 -57v-573q0 -34 -24 -58t-58 -24zM295 418h-90q-26 0 -44 -19t-18 -45v-573q0 -26 18 -45t44 -19h90q26 0 44.5 19t18.5 45v573q0 26 -18.5 45t-44.5 19zM295 813h-90q-32 0 -56 24
t-24 58v573q0 33 23.5 56.5t56.5 23.5h90q34 0 58 -23t24 -57v-573q0 -34 -24 -58t-58 -24zM295 1532h-90q-26 0 -44 -19t-18 -45v-573q0 -26 18 -45t44 -19h90q26 0 44.5 19t18.5 45v573q0 26 -18.5 45t-44.5 19z" />
    <glyph glyph-name="section" unicode="&#xa7;" horiz-adv-x="1179" 
d="M559 -238q-139 0 -243 53.5t-148 147.5q-12 28 1.5 55t43.5 33l131 27q22 4 40.5 -5.5t29.5 -29.5q44 -74 139 -74q69 0 110.5 35.5t41.5 95.5q0 24 -8 44.5t-27 37t-35.5 28t-51 25t-55 20.5t-63.5 21q-40 13 -56.5 19t-54.5 20t-56 23.5t-49 27.5t-47 34t-37 40t-31 49
t-17.5 57.5t-7.5 69.5q0 87 43.5 166t105.5 125q-59 74 -59 180q0 92 36.5 164.5t97 116.5t134 67t151.5 23q139 0 243.5 -53.5t148.5 -147.5q12 -30 -0.5 -56t-44.5 -32l-131 -26q-21 -4 -40 5t-30 28q-11 26 -45.5 50.5t-93.5 24.5q-69 0 -110.5 -35.5t-41.5 -95.5
q0 -29 14 -53.5t32 -40.5t55 -33t63.5 -26t75.5 -25q38 -12 56.5 -18.5t54.5 -19.5t55.5 -23t49.5 -27.5t47 -34t37 -40t30.5 -49t18 -58.5t7.5 -70q0 -86 -43.5 -164.5t-105.5 -124.5q59 -73 59 -180q0 -92 -36.5 -164.5t-97.5 -116.5t-134.5 -67t-151.5 -23zM348 61
l-131 -28q-22 -3 -32 -22.5t-1 -39.5q41 -89 141 -139.5t234 -50.5q60 0 117 13t109 41.5t91 69t62 99.5t23 129q0 105 -62 176l-6 8l8 7q62 41 106 117.5t44 160.5q0 44 -11.5 82.5t-27.5 66t-46 52.5t-54.5 41t-66 33t-67.5 26t-71 23q-38 12 -55.5 18t-50 18t-48.5 21.5
t-38.5 24.5t-33 30.5t-18.5 36.5t-8 45q0 68 46.5 109t123.5 41q66 0 103.5 -28t51.5 -58q17 -31 49 -25l132 27q22 5 32 23t0 40q-41 89 -140.5 140t-234.5 51q-75 0 -144.5 -21.5t-128 -63.5t-93.5 -111.5t-35 -156.5q0 -102 62 -176l6 -8l-9 -6q-61 -44 -105 -120
t-44 -161q0 -44 11.5 -82t27.5 -65t46 -52t54.5 -40.5t66.5 -32.5t67.5 -26t70.5 -23q50 -16 77.5 -25.5t66 -28t58.5 -36.5t35 -45t15 -60q0 -67 -46.5 -108t-123.5 -41q-109 0 -156 84q-15 29 -49 26zM768 412l-4 -4l-4 4q-134 54 -168 61q-47 15 -72 24t-66 28t-62.5 37
t-38.5 46.5t-17 61.5q0 81 74 139l4 2l4 -2q112 -48 170 -64q46 -14 71 -23t65.5 -27t62 -36t38.5 -46.5t17 -61.5q0 -39 -19.5 -76t-54.5 -63zM416 791q-62 -49 -62 -121q0 -29 15.5 -54.5t35.5 -42t58 -33.5t63 -25.5t70 -22.5q77 -22 166 -62q61 48 61 121
q0 29 -15.5 54.5t-35.5 42t-57.5 33.5t-63 25.5t-69.5 22.5q-64 19 -166 62z" />
    <glyph glyph-name="dieresis" unicode="&#xa8;" horiz-adv-x="980" 
d="M276 1180q-62 0 -104.5 43t-42.5 104q0 62 43 105t104 43q62 0 105 -43.5t43 -104.5t-43 -104t-105 -43zM276 1456q-54 0 -91.5 -37.5t-37.5 -91.5t37.5 -91.5t91.5 -37.5t92 37.5t38 91.5t-38 91.5t-92 37.5zM705 1180q-62 0 -105 43t-43 104t43.5 104.5t104.5 43.5
t104 -43t43 -105q0 -61 -43 -104t-104 -43zM705 1456q-54 0 -92 -37.5t-38 -91.5t38 -91.5t92 -37.5t91.5 37.5t37.5 91.5t-37.5 91.5t-91.5 37.5z" />
    <glyph glyph-name="copyright" unicode="&#xa9;" horiz-adv-x="1677" 
d="M860 330q-163 0 -272 110.5t-109 276.5t109 276.5t272 110.5q158 0 266 -105q15 -13 14 -34.5t-20 -34.5l-57 -39q-12 -8 -28.5 -6t-26.5 12q-61 55 -148 55q-103 0 -162 -70t-59 -165t59 -164.5t162 -69.5q88 0 148 54q10 10 26.5 12t28.5 -6l57 -39q19 -11 20 -34
t-14 -36q-107 -104 -266 -104zM860 1085q-157 0 -259.5 -103.5t-102.5 -264.5q0 -160 102.5 -264.5t259.5 -104.5q151 0 254 98q9 9 8.5 22.5t-12.5 20.5l-57 37q-17 14 -33 -2q-65 -59 -160 -59q-111 0 -174 75.5t-63 176.5t63 176.5t174 75.5q94 0 160 -60q16 -16 33 -2
l57 37q11 8 12 21t-8 22q-103 98 -254 98zM838 -18q-150 0 -286 58t-234.5 156.5t-157 234.5t-58.5 286t58.5 286t157 234.5t234.5 156.5t286 58q200 0 369 -98.5t267.5 -267.5t98.5 -369t-98.5 -369t-267.5 -267.5t-369 -98.5zM838 1436q-116 0 -226 -36.5t-198.5 -103
t-155 -155t-103 -198.5t-36.5 -226t36.5 -226t103 -198.5t155 -155t198.5 -103t226 -36.5q145 0 278 57t229.5 153.5t153.5 230t57 278.5t-57 278.5t-153.5 230t-229.5 153.5t-278 57zM838 106q-124 0 -237 48.5t-195 130.5t-130.5 195t-48.5 237q0 165 82 305.5t223 222.5
t306 82t305.5 -82t222.5 -222.5t82 -305.5t-82 -306t-222.5 -223t-305.5 -82zM838 1309q-160 0 -296.5 -79.5t-216 -216t-79.5 -296.5t79.5 -296.5t216 -216t296.5 -79.5t296.5 79.5t216 216t79.5 296.5t-79.5 296.5t-216 216t-296.5 79.5z" />
    <glyph glyph-name="guillemotleft" unicode="&#xab;" horiz-adv-x="1202" 
d="M524 150h-137q-53 0 -82 43l-182 268q-37 56 0 112l182 267q27 43 82 43h137q32 0 47 -28t-2 -56l-192 -283l192 -280q17 -29 2 -57.5t-47 -28.5zM524 866h-137q-42 0 -68 -37l-180 -266q-32 -46 0 -92l180 -268q28 -35 68 -35h137q22 0 32 18.5t-1 38.5l-201 291
l201 293q12 19 1 38t-32 19zM1018 150h-137q-53 0 -82 43l-183 268q-37 56 0 112l183 267q27 43 82 43h137q32 0 47 -28t-2 -56l-193 -283l193 -280q17 -29 2 -57.5t-47 -28.5zM1018 866h-137q-42 0 -68 -37l-180 -266q-32 -46 0 -92l180 -268q28 -35 68 -35h137
q22 0 32 18.5t-1 38.5l-201 291l201 293q12 19 1 38t-32 19z" />
    <glyph glyph-name="registered" unicode="&#xae;" horiz-adv-x="1677" 
d="M1133 348h-82q-37 0 -54 31l-143 225h-127v-211q0 -19 -13 -32t-32 -13h-72q-19 0 -32 13t-13 32v666q0 19 13 32t32 13h256q126 0 205.5 -71t79.5 -183q0 -73 -36.5 -129.5t-102.5 -85.5l151 -232q12 -17 2.5 -36t-32.5 -19zM709 393v230h155l148 -236q13 -20 39 -20h82
q12 0 17 9.5t-1 18.5l-164 248l10 4q65 26 101.5 79.5t36.5 123.5q0 106 -73.5 170.5t-193.5 64.5h-256q-10 0 -18 -7.5t-8 -18.5v-666q0 -11 8 -18.5t18 -7.5h72q11 0 19 8t8 18zM866 727h-157v244h157q63 0 101.5 -33t38.5 -88q0 -57 -37.5 -90t-102.5 -33zM727 952v-207
h139q57 0 89 28t32 77q0 46 -33 74t-88 28h-139zM838 -18q-150 0 -286 58t-234.5 156.5t-157 234.5t-58.5 286t58.5 286t157 234.5t234.5 156.5t286 58q200 0 369 -98.5t267.5 -267.5t98.5 -369t-98.5 -369t-267.5 -267.5t-369 -98.5zM838 1436q-116 0 -226 -36.5
t-198.5 -103t-155 -155t-103 -198.5t-36.5 -226t36.5 -226t103 -198.5t155 -155t198.5 -103t226 -36.5q145 0 278 57t229.5 153.5t153.5 230t57 278.5t-57 278.5t-153.5 230t-229.5 153.5t-278 57zM838 106q-124 0 -237 48.5t-195 130.5t-130.5 195t-48.5 237
q0 165 82 305.5t223 222.5t306 82t305.5 -82t222.5 -222.5t82 -305.5t-82 -306t-222.5 -223t-305.5 -82zM838 1309q-160 0 -296.5 -79.5t-216 -216t-79.5 -296.5t79.5 -296.5t216 -216t296.5 -79.5t296.5 79.5t216 216t79.5 296.5t-79.5 296.5t-216 216t-296.5 79.5z" />
    <glyph glyph-name="macron" unicode="&#xaf;" horiz-adv-x="862" 
d="M670 1219h-480q-26 0 -44.5 18.5t-18.5 44.5v90q0 26 18.5 45t44.5 19h480q26 0 44.5 -19t18.5 -45v-90q0 -26 -18.5 -44.5t-44.5 -18.5zM670 1417h-480q-20 0 -32.5 -13t-12.5 -32v-90q0 -19 12.5 -32t32.5 -13h480q19 0 32 13t13 32v90q0 19 -13 32t-32 13z" />
    <glyph glyph-name="degree" unicode="&#xb0;" horiz-adv-x="833" 
d="M416 774q-136 0 -233 97t-97 233t97 233t233 97q135 0 232 -97t97 -233t-97 -233t-232 -97zM416 1415q-129 0 -220.5 -91t-91.5 -220t91.5 -220t220.5 -91t220 91t91 220t-91 220t-220 91zM416 954q-63 0 -106.5 44t-43.5 106t43.5 105.5t106.5 43.5q62 0 105.5 -43.5
t43.5 -105.5t-44 -106t-105 -44zM416 1235q-56 0 -93.5 -37.5t-37.5 -93.5q0 -54 38 -92.5t93 -38.5q54 0 92.5 38.5t38.5 92.5q0 55 -38.5 93t-92.5 38z" />
    <glyph glyph-name="plusminus" unicode="&#xb1;" horiz-adv-x="1069" 
d="M571 387h-71q-34 0 -58 24t-24 56v209h-207q-34 0 -57 23t-23 57v71q0 34 23 58t57 24h207v207q0 34 24 58t58 24h71q34 0 58 -24t24 -58v-207h207q34 0 57 -24t23 -58v-71q0 -34 -23 -57t-57 -23h-207v-209q0 -32 -24 -56t-58 -24zM436 891h-225q-26 0 -45 -19t-19 -45
v-71q0 -26 19 -45t45 -19h225v-225q0 -26 18.5 -43.5t45.5 -17.5h71q27 0 45.5 17.5t18.5 43.5v225h225q26 0 44 19t18 45v71q0 26 -18 45t-44 19h-225v225q0 26 -19 45t-45 19h-71q-26 0 -45 -19t-19 -45v-225zM860 0h-649q-34 0 -57 24t-23 58v72q0 34 23 58t57 24h649
q34 0 57 -24t23 -58v-72q0 -34 -23 -58t-57 -24zM860 217h-649q-26 0 -45 -18.5t-19 -44.5v-72q0 -26 19 -45t45 -19h649q26 0 44 19t18 45v72q0 26 -18 44.5t-44 18.5z" />
    <glyph glyph-name="acute" unicode="&#xb4;" horiz-adv-x="673" 
d="M303 1194h-113q-27 0 -39.5 20t-0.5 46l88 190q22 45 73 45h156q29 0 41 -23.5t-2 -46.5l-137 -196q-25 -35 -66 -35zM467 1479h-156q-41 0 -57 -37l-88 -191q-7 -17 0.5 -28t23.5 -11h113q31 0 51 27l135 197q9 12 2 27.5t-24 15.5z" />
    <glyph glyph-name="paragraph" unicode="&#xb6;" horiz-adv-x="1345" 
d="M1018 -178h-72q-34 0 -58 24t-24 56v1267h-182v-1267q0 -32 -24 -56t-58 -24h-72q-33 0 -56 23.5t-23 56.5v843q-73 3 -139.5 26t-121 64t-86.5 107t-32 148q0 86 35 153.5t93.5 108t128.5 61.5t146 21h680q34 0 58 -23t24 -57v-103q0 -34 -24 -58t-58 -24h-53v-1267
q0 -32 -24 -56t-58 -24zM664 -98v1286h219v-1286q0 -26 18.5 -44t44.5 -18h72q26 0 44.5 18t18.5 44v1286h72q26 0 45 18.5t19 44.5v103q0 26 -19 44.5t-45 18.5h-680q-72 0 -139 -20t-123 -58.5t-89.5 -103t-33.5 -145.5q0 -79 31.5 -142t84.5 -102t117.5 -60.5
t135.5 -23.5h8v-860q0 -26 18.5 -44t44.5 -18h72q26 0 45 18t19 44z" />
    <glyph glyph-name="cedilla" unicode="&#xb8;" horiz-adv-x="720" 
d="M342 -510q-85 0 -152 25q-26 9 -36 36.5t4 53.5l26 49q8 15 24.5 20t33.5 -2q30 -12 73 -12q45 0 72 20.5t27 55.5q0 69 -86 69q-20 0 -41 -6q-28 -9 -49 15l-15 20q-24 34 -6 68l41 82q15 34 55 34h39q27 0 38.5 -21t2.5 -44l-14 -29q104 -9 160.5 -63t56.5 -146
q0 -98 -72 -161.5t-182 -63.5zM201 -354l-29 -49q-9 -19 -2 -39t27 -27q59 -23 145 -23q103 0 170.5 58.5t67.5 148.5q0 45 -15 79.5t-37.5 54.5t-53.5 33t-57.5 18t-54.5 6l-12 2l27 53q6 14 -2 26.5t-23 12.5h-39q-29 0 -41 -25l-41 -81q-9 -25 7 -48l14 -20
q11 -13 31 -10q21 6 45 6q102 0 102 -86q0 -43 -31.5 -68.5t-83.5 -25.5q-47 0 -82 14q-11 4 -20 1t-12 -11z" />
    <glyph glyph-name="guillemotright" unicode="&#xbb;" horiz-adv-x="1204" 
d="M819 150h-137q-32 0 -47 28.5t2 57.5l192 280l-192 283q-17 28 -2 56t47 28h137q55 0 82 -43l182 -267q37 -56 0 -112l-182 -268q-29 -43 -82 -43zM819 866h-137q-21 0 -32 -19t1 -38l201 -293l-201 -291q-11 -20 -1 -38.5t32 -18.5h137q40 0 68 35l180 268q32 46 0 92
l-180 266q-26 37 -68 37zM326 150h-138q-32 0 -47 28.5t2 57.5l193 280l-193 283q-17 28 -2 56t47 28h138q55 0 82 -43l182 -267q37 -56 0 -112l-182 -268q-29 -43 -82 -43zM326 866h-138q-21 0 -31.5 -19t1.5 -38l200 -293l-200 -291q-11 -20 -1.5 -38.5t31.5 -18.5h138
q39 0 67 35l180 268q32 46 0 92l-180 266q-26 37 -67 37z" />
    <glyph glyph-name="questiondown" unicode="&#xbf;" horiz-adv-x="999" 
d="M500 752q-66 0 -113 46.5t-47 112.5q0 65 47 111.5t113 46.5q64 0 110.5 -46.5t46.5 -111.5q0 -66 -46 -112.5t-111 -46.5zM500 1051q-58 0 -100 -41.5t-42 -98.5q0 -58 41.5 -99.5t100.5 -41.5q57 0 98 41.5t41 99.5q0 57 -41 98.5t-98 41.5zM496 -416
q-178 0 -308.5 114t-130.5 269q0 60 13 110t41 92.5t50 68t62 65.5q40 42 60.5 65.5t44.5 65t32 84.5q6 29 28.5 48.5t51.5 19.5h101q40 0 63 -28t17 -66q-9 -44 -25.5 -83.5t-44 -77t-44.5 -58t-52 -58.5q-41 -43 -62.5 -68t-40 -64t-18.5 -79q0 -78 48.5 -123t131.5 -45
q110 0 160 98q12 26 38 37.5t54 5.5l94 -24q37 -7 52.5 -41t2.5 -68q-51 -124 -160.5 -192t-258.5 -68zM541 567h-101q-24 0 -41 -14t-20 -37q-8 -46 -34 -90.5t-45 -65.5t-64 -69q-32 -33 -47.5 -49.5t-41.5 -51.5t-38.5 -63t-22.5 -70.5t-10 -89.5q0 -148 125 -256
t295 -108q143 0 248.5 65t154.5 185q9 27 -3.5 52.5t-39.5 31.5l-94 22q-23 6 -43 -3.5t-29 -29.5q-55 -108 -176 -108q-91 0 -144 50t-53 136q0 42 20 85t40.5 68t62.5 70q44 47 68.5 76t53.5 82.5t40 108.5q6 29 -12 51t-49 22z" />
    <glyph glyph-name="Agrave" unicode="&#xc0;" horiz-adv-x="1433" 
d="M1319 0h-150q-32 0 -57.5 18.5t-36.5 49.5l-71 215h-570l-74 -215q-11 -31 -36.5 -49.5t-57.5 -18.5h-149q-35 0 -52 26.5t-8 57.5l463 1284q11 29 36 47.5t56 18.5h211q31 0 58 -18.5t37 -47.5l460 -1284q12 -28 -7.5 -56.5t-51.5 -27.5zM344 74l76 227h596l78 -227
q8 -25 28.5 -40.5t46.5 -15.5h150q23 0 37 19t6 41l-463 1284q-7 24 -28 38.5t-48 14.5h-211q-25 0 -45.5 -14.5t-29.5 -38.5l-461 -1284q-7 -24 5 -42t36 -18h149q26 0 47.5 15.5t30.5 40.5zM719 1176l221 -650h-442zM719 1120l-197 -575h391zM758 1604h-113q-41 0 -65 34
l-136 197q-17 23 -4.5 46.5t41.5 23.5h156q24 0 44.5 -12t29.5 -33l88 -191q12 -21 -2.5 -44t-38.5 -21zM637 1888h-156q-17 0 -24 -15.5t2 -27.5l135 -196q20 -27 51 -27h113q15 0 23 13t1 26l-88 190q-16 37 -57 37z" />
    <glyph glyph-name="Aacute" unicode="&#xc1;" horiz-adv-x="1433" 
d="M1319 0h-150q-32 0 -57.5 18.5t-36.5 49.5l-71 215h-570l-74 -215q-11 -31 -36.5 -49.5t-57.5 -18.5h-149q-35 0 -52 26.5t-8 57.5l463 1284q11 29 36 47.5t56 18.5h211q31 0 58 -18.5t37 -47.5l460 -1284q12 -28 -7.5 -56.5t-51.5 -27.5zM344 74l76 227h596l78 -227
q8 -25 28.5 -40.5t46.5 -15.5h150q23 0 37 19t6 41l-463 1284q-7 24 -28 38.5t-48 14.5h-211q-25 0 -45.5 -14.5t-29.5 -38.5l-461 -1284q-7 -24 5 -42t36 -18h149q26 0 47.5 15.5t30.5 40.5zM719 1176l221 -650h-442zM719 1120l-197 -575h391zM784 1604h-112
q-27 0 -40 19.5t-1 45.5l88 191q22 45 74 45h155q29 0 41 -23.5t-2 -46.5l-137 -197q-24 -34 -66 -34zM948 1888h-155q-42 0 -58 -37l-88 -190q-7 -17 1 -28t24 -11h112q32 0 52 27l135 196q9 12 1.5 27.5t-24.5 15.5z" />
    <glyph glyph-name="Acircumflex" unicode="&#xc2;" horiz-adv-x="1433" 
d="M1319 0h-150q-32 0 -57.5 18.5t-36.5 49.5l-71 215h-570l-74 -215q-11 -31 -36.5 -49.5t-57.5 -18.5h-149q-35 0 -52 26.5t-8 57.5l463 1284q11 29 36 47.5t56 18.5h211q31 0 58 -18.5t37 -47.5l460 -1284q12 -28 -7.5 -56.5t-51.5 -27.5zM344 74l76 227h596l78 -227
q8 -25 28.5 -40.5t46.5 -15.5h150q23 0 37 19t6 41l-463 1284q-7 24 -28 38.5t-48 14.5h-211q-25 0 -45.5 -14.5t-29.5 -38.5l-461 -1284q-7 -24 5 -42t36 -18h149q26 0 47.5 15.5t30.5 40.5zM719 1176l221 -650h-442zM719 1120l-197 -575h391zM641 1905h160q50 0 78 -39
l149 -191q15 -22 6 -47q-11 -24 -41 -24h-108q-53 0 -80 38l-84 117l-86 -117q-27 -38 -80 -38h-106q-28 0 -40.5 24.5t5.5 46.5l149 191q28 39 78 39zM578 1855l-152 -190q-10 -15 -2 -30t25 -15h106q45 0 66 35l100 135l98 -135q24 -35 66 -35h108q19 0 25 16q6 15 -4 29
l-150 190q-28 31 -63 31h-160q-39 0 -63 -31z" />
    <glyph glyph-name="Atilde" unicode="&#xc3;" horiz-adv-x="1433" 
d="M1319 0h-150q-32 0 -57.5 18.5t-36.5 49.5l-71 215h-570l-74 -215q-11 -31 -36.5 -49.5t-57.5 -18.5h-149q-35 0 -52 26.5t-8 57.5l463 1284q11 29 36 47.5t56 18.5h211q31 0 58 -18.5t37 -47.5l460 -1284q12 -28 -7.5 -56.5t-51.5 -27.5zM344 74l76 227h596l78 -227
q8 -25 28.5 -40.5t46.5 -15.5h150q23 0 37 19t6 41l-463 1284q-7 24 -28 38.5t-48 14.5h-211q-25 0 -45.5 -14.5t-29.5 -38.5l-461 -1284q-7 -24 5 -42t36 -18h149q26 0 47.5 15.5t30.5 40.5zM719 1176l221 -650h-442zM719 1120l-197 -575h391zM510 1571l-82 14
q-17 3 -27.5 16.5t-9.5 32.5q9 89 56 138t122 49q54 0 148 -35q7 -2 26.5 -9t28.5 -9.5t24 -5.5t27 -3q37 0 49 39q4 17 19.5 26.5t32.5 6.5l82 -14q17 -3 27.5 -17t8.5 -31q-9 -90 -55.5 -139t-122.5 -49q-51 0 -145 35q-84 26 -111 26q-36 0 -47 -38q-12 -39 -51 -33z
M569 1802q-68 0 -110 -44.5t-49 -125.5q-3 -24 22 -28l82 -17q22 -5 31 21q15 53 63 53q36 0 117 -29q89 -33 139 -33q69 0 110.5 45t49.5 125q3 23 -23 31l-81 15q-9 1 -18.5 -5.5t-12.5 -15.5q-12 -51 -66 -51q-40 0 -112 26q-89 33 -142 33z" />
    <glyph glyph-name="Adieresis" unicode="&#xc4;" horiz-adv-x="1433" 
d="M1319 0h-150q-32 0 -57.5 18.5t-36.5 49.5l-71 215h-570l-74 -215q-11 -31 -36.5 -49.5t-57.5 -18.5h-149q-35 0 -52 26.5t-8 57.5l463 1284q11 29 36 47.5t56 18.5h211q31 0 58 -18.5t37 -47.5l460 -1284q12 -28 -7.5 -56.5t-51.5 -27.5zM344 74l76 227h596l78 -227
q8 -25 28.5 -40.5t46.5 -15.5h150q23 0 37 19t6 41l-463 1284q-7 24 -28 38.5t-48 14.5h-211q-25 0 -45.5 -14.5t-29.5 -38.5l-461 -1284q-7 -24 5 -42t36 -18h149q26 0 47.5 15.5t30.5 40.5zM719 1176l221 -650h-442zM719 1120l-197 -575h391zM504 1589q-62 0 -105 43.5
t-43 104.5t43 104t105 43t104.5 -43t42.5 -104q0 -62 -43 -105t-104 -43zM504 1866q-54 0 -91.5 -37.5t-37.5 -91.5t37.5 -91.5t91.5 -37.5t91.5 37.5t37.5 91.5t-37.5 91.5t-91.5 37.5zM932 1589q-62 0 -105 43.5t-43 104.5t43 104t105 43t104.5 -43t42.5 -104
q0 -62 -43 -105t-104 -43zM932 1866q-54 0 -91.5 -37.5t-37.5 -91.5t37.5 -91.5t91.5 -37.5t91.5 37.5t37.5 91.5t-37.5 91.5t-91.5 37.5z" />
    <glyph glyph-name="Aring" unicode="&#xc5;" horiz-adv-x="1433" 
d="M1319 0h-150q-32 0 -57.5 18.5t-36.5 49.5l-71 215h-570l-74 -215q-11 -31 -36.5 -49.5t-57.5 -18.5h-149q-35 0 -52 26.5t-8 57.5l463 1284q11 29 36 47.5t56 18.5h211q31 0 58 -18.5t37 -47.5l460 -1284q12 -28 -7.5 -56.5t-51.5 -27.5zM344 74l76 227h596l78 -227
q8 -25 28.5 -40.5t46.5 -15.5h150q23 0 37 19t6 41l-463 1284q-7 24 -28 38.5t-48 14.5h-211q-25 0 -45.5 -14.5t-29.5 -38.5l-461 -1284q-7 -24 5 -42t36 -18h149q26 0 47.5 15.5t30.5 40.5zM719 1176l221 -650h-442zM719 1120l-197 -575h391zM717 1516q-98 0 -168 70.5
t-70 168.5t70 168t168 70q99 0 169 -69.5t70 -168.5t-70 -169t-169 -70zM717 1976q-91 0 -155 -65t-64 -156t64 -156t155 -65q92 0 156.5 65t64.5 156t-64.5 156t-156.5 65zM717 1642q-46 0 -79.5 33.5t-33.5 79.5t33.5 79.5t79.5 33.5q47 0 79.5 -33.5t32.5 -79.5
t-32.5 -79.5t-79.5 -33.5zM717 1849q-38 0 -66 -28t-28 -66q0 -39 27.5 -66.5t66.5 -27.5q40 0 67 27t27 67q0 39 -27.5 66.5t-66.5 27.5z" />
    <glyph glyph-name="AE" unicode="&#xc6;" horiz-adv-x="1931" 
d="M1757 0h-690q-34 0 -58 23t-24 57v201h-512l-106 -224q-10 -26 -35 -41.5t-53 -15.5h-148q-37 0 -54.5 29t-2.5 61l622 1276q13 30 42.5 49t62.5 19h938q34 0 58 -24t24 -58v-111q0 -34 -24 -57t-58 -23h-461v-301h416q34 0 57 -24t23 -58v-110q0 -34 -23 -57t-57 -23
h-416v-316h479q34 0 58 -24t24 -58v-110q0 -34 -24 -57t-58 -23zM350 63l111 236h543v-219q0 -26 18.5 -45t44.5 -19h690q26 0 45 19t19 45v110q0 26 -19 45t-45 19h-497v350h434q26 0 44.5 19t18.5 45v110q0 26 -18.5 45t-44.5 19h-434v336h479q26 0 44.5 18.5t18.5 44.5
v111q0 26 -18.5 44.5t-44.5 18.5h-938q-28 0 -52 -15t-36 -40l-623 -1278q-11 -24 2 -45t39 -21h148q23 0 42.5 12.5t28.5 34.5zM1004 1178v-654h-437l305 654h132zM883 1161l-289 -618h391v618h-102z" />
    <glyph glyph-name="Ccedilla" unicode="&#xc7;" horiz-adv-x="1421" 
d="M756 -512q-88 0 -152 27q-28 9 -38 36.5t5 53.5l27 47q7 15 23.5 20.5t31.5 -0.5q40 -14 74 -14q45 0 71.5 21t26.5 57q0 67 -84 67q-20 0 -41 -6q-29 -6 -49 17l-14 20q-26 30 -8 66l45 88q-263 46 -427.5 248.5t-164.5 480.5q0 157 56 295t152.5 236t231.5 155t289 57
q146 0 277 -51.5t231 -148.5q27 -24 24 -66q-3 -36 -36 -59l-107 -72q-23 -15 -50.5 -12.5t-49.5 22.5q-116 107 -289 107q-104 0 -188.5 -39.5t-137.5 -105.5t-81.5 -148t-28.5 -170q0 -87 28.5 -169t81.5 -148t137.5 -106t188.5 -40q172 0 289 108q21 20 49 22t51 -13
l107 -70q33 -23 36 -61q3 -39 -24 -66q-98 -95 -227.5 -146t-274.5 -53l-26 -53q106 -9 162.5 -63t56.5 -146q0 -97 -72 -161t-182 -64zM612 -356l-26 -50q-10 -19 -2.5 -38t26.5 -25q64 -25 146 -25q102 0 168.5 58.5t66.5 148.5q0 56 -21 95.5t-56.5 59t-68.5 28t-69 10.5
h-12l43 88h4q143 0 271 50t225 144q21 18 18 52q-3 29 -29 45l-106 71q-39 25 -78 -6q-121 -112 -301 -112q-108 0 -196.5 41t-144 109.5t-85 153t-29.5 175.5q0 73 18.5 142.5t56 130.5t90.5 107.5t128 73.5t162 27q179 0 301 -113q37 -32 78 -6l106 70q26 16 29 47
q4 32 -18 51q-97 94 -225.5 144.5t-270.5 50.5q-200 0 -363 -94.5t-255.5 -260.5t-92.5 -370q0 -274 164.5 -474t423.5 -241h12l-55 -111q-11 -27 6 -47l15 -20q14 -14 30 -8q21 6 45 6q49 0 76 -22.5t27 -63.5q0 -43 -31.5 -68.5t-85.5 -25.5q-45 0 -80 14q-22 10 -35 -12z
" />
    <glyph glyph-name="Egrave" unicode="&#xc8;" horiz-adv-x="1071" 
d="M901 0h-692q-34 0 -57 24t-23 58v1272q0 33 23.5 56.5t56.5 23.5h674q33 0 56.5 -23.5t23.5 -56.5v-111q0 -34 -23 -58t-57 -24h-461v-301h414q34 0 58 -23t24 -57v-110q0 -34 -24 -58t-58 -24h-414v-316h479q34 0 58 -23t24 -56v-111q0 -34 -24 -58t-58 -24zM883 1415
h-674q-26 0 -44 -17.5t-18 -43.5v-1272q0 -26 18 -45t44 -19h692q26 0 45 19t19 45v111q0 26 -19 44.5t-45 18.5h-498v350h433q26 0 44.5 19t18.5 45v110q0 26 -18.5 44t-44.5 18h-433v338h480q26 0 43.5 18.5t17.5 44.5v111q0 26 -17.5 43.5t-43.5 17.5zM616 1604h-112
q-42 0 -66 34l-135 197q-17 23 -4.5 46.5t41.5 23.5h156q54 0 73 -45l88 -191q12 -21 -2.5 -44t-38.5 -21zM496 1888h-156q-17 0 -24.5 -15.5t1.5 -27.5l136 -196q20 -27 51 -27h112q15 0 23.5 13t1.5 26l-88 190q-16 37 -57 37z" />
    <glyph glyph-name="Eacute" unicode="&#xc9;" horiz-adv-x="1071" 
d="M901 0h-692q-34 0 -57 24t-23 58v1272q0 33 23.5 56.5t56.5 23.5h674q33 0 56.5 -23.5t23.5 -56.5v-111q0 -34 -23 -58t-57 -24h-461v-301h414q34 0 58 -23t24 -57v-110q0 -34 -24 -58t-58 -24h-414v-316h479q34 0 58 -23t24 -56v-111q0 -34 -24 -58t-58 -24zM883 1415
h-674q-26 0 -44 -17.5t-18 -43.5v-1272q0 -26 18 -45t44 -19h692q26 0 45 19t19 45v111q0 26 -19 44.5t-45 18.5h-498v350h433q26 0 44.5 19t18.5 45v110q0 26 -18.5 44t-44.5 18h-433v338h480q26 0 43.5 18.5t17.5 44.5v111q0 26 -17.5 43.5t-43.5 17.5zM604 1604h-112
q-27 0 -40 19.5t-1 45.5l88 191q22 45 73 45h156q29 0 41 -23.5t-2 -46.5l-137 -197q-24 -34 -66 -34zM768 1888h-156q-41 0 -57 -37l-88 -190q-7 -17 1 -28t24 -11h112q31 0 51 27l136 196q9 12 1.5 27.5t-24.5 15.5z" />
    <glyph glyph-name="Ecircumflex" unicode="&#xca;" horiz-adv-x="1071" 
d="M901 0h-692q-34 0 -57 24t-23 58v1272q0 33 23.5 56.5t56.5 23.5h674q33 0 56.5 -23.5t23.5 -56.5v-111q0 -34 -23 -58t-57 -24h-461v-301h414q34 0 58 -23t24 -57v-110q0 -34 -24 -58t-58 -24h-414v-316h479q34 0 58 -23t24 -56v-111q0 -34 -24 -58t-58 -24zM883 1415
h-674q-26 0 -44 -17.5t-18 -43.5v-1272q0 -26 18 -45t44 -19h692q26 0 45 19t19 45v111q0 26 -19 44.5t-45 18.5h-498v350h433q26 0 44.5 19t18.5 45v110q0 26 -18.5 44t-44.5 18h-433v338h480q26 0 43.5 18.5t17.5 44.5v111q0 26 -17.5 43.5t-43.5 17.5zM479 1905h160
q50 0 78 -39l149 -191q15 -22 6 -47q-11 -24 -41 -24h-108q-53 0 -80 38l-84 117l-86 -117q-27 -38 -80 -38h-106q-28 0 -40.5 24.5t5.5 46.5l149 191q28 39 78 39zM416 1855l-152 -190q-10 -15 -2 -30t25 -15h106q45 0 66 35l100 135l98 -135q24 -35 66 -35h108q19 0 25 16
q6 15 -4 29l-150 190q-28 31 -63 31h-160q-39 0 -63 -31z" />
    <glyph glyph-name="Edieresis" unicode="&#xcb;" horiz-adv-x="1071" 
d="M901 0h-692q-34 0 -57 24t-23 58v1272q0 33 23.5 56.5t56.5 23.5h674q33 0 56.5 -23.5t23.5 -56.5v-111q0 -34 -23 -58t-57 -24h-461v-301h414q34 0 58 -23t24 -57v-110q0 -34 -24 -58t-58 -24h-414v-316h479q34 0 58 -23t24 -56v-111q0 -34 -24 -58t-58 -24zM883 1415
h-674q-26 0 -44 -17.5t-18 -43.5v-1272q0 -26 18 -45t44 -19h692q26 0 45 19t19 45v111q0 26 -19 44.5t-45 18.5h-498v350h433q26 0 44.5 19t18.5 45v110q0 26 -18.5 44t-44.5 18h-433v338h480q26 0 43.5 18.5t17.5 44.5v111q0 26 -17.5 43.5t-43.5 17.5zM342 1589
q-61 0 -104 43t-43 105q0 61 42.5 104t104.5 43t104.5 -43t42.5 -104q0 -62 -43 -105t-104 -43zM342 1866q-54 0 -91.5 -37.5t-37.5 -91.5t37.5 -91.5t91.5 -37.5t91.5 37.5t37.5 91.5t-37.5 91.5t-91.5 37.5zM770 1589q-61 0 -104 43t-43 105q0 61 42.5 104t104.5 43
t105 -43t43 -104t-43 -104.5t-105 -43.5zM770 1866q-54 0 -91.5 -37.5t-37.5 -91.5t37.5 -91.5t91.5 -37.5t91.5 37.5t37.5 91.5t-37.5 91.5t-91.5 37.5z" />
    <glyph glyph-name="Igrave" unicode="&#xcc;" horiz-adv-x="542" 
d="M336 0h-129q-34 0 -58 24t-24 58v1272q0 32 24 56t58 24h129q34 0 58 -24t24 -56v-1272q0 -34 -24 -58t-58 -24zM336 1415h-129q-27 0 -45.5 -17.5t-18.5 -43.5v-1272q0 -26 19 -45t45 -19h129q26 0 44.5 19t18.5 45v1272q0 26 -18.5 43.5t-44.5 17.5zM313 1604h-112
q-42 0 -66 34l-135 197q-17 23 -4.5 46.5t41.5 23.5h156q54 0 73 -45l88 -191q12 -21 -2.5 -44t-38.5 -21zM193 1888h-156q-17 0 -24.5 -15.5t1.5 -27.5l136 -196q20 -27 51 -27h112q15 0 23.5 13t1.5 26l-88 190q-16 37 -57 37z" />
    <glyph glyph-name="Iacute" unicode="&#xcd;" horiz-adv-x="542" 
d="M336 0h-129q-34 0 -58 24t-24 58v1272q0 32 24 56t58 24h129q34 0 58 -24t24 -56v-1272q0 -34 -24 -58t-58 -24zM336 1415h-129q-27 0 -45.5 -17.5t-18.5 -43.5v-1272q0 -26 19 -45t45 -19h129q26 0 44.5 19t18.5 45v1272q0 26 -18.5 43.5t-44.5 17.5zM336 1604h-113
q-27 0 -40 19.5t-1 45.5l88 191q22 45 74 45h156q29 0 41 -23.5t-2 -46.5l-138 -197q-24 -34 -65 -34zM500 1888h-156q-41 0 -57 -37l-88 -190q-7 -17 0.5 -28t23.5 -11h113q31 0 51 27l135 196q9 12 2 27.5t-24 15.5z" />
    <glyph glyph-name="Icircumflex" unicode="&#xce;" horiz-adv-x="542" 
d="M336 0h-129q-34 0 -58 24t-24 58v1272q0 32 24 56t58 24h129q34 0 58 -24t24 -56v-1272q0 -34 -24 -58t-58 -24zM336 1415h-129q-27 0 -45.5 -17.5t-18.5 -43.5v-1272q0 -26 19 -45t45 -19h129q26 0 44.5 19t18.5 45v1272q0 26 -18.5 43.5t-44.5 17.5zM195 1905h159
q50 0 78 -39l150 -191q15 -22 6 -47q-11 -24 -41 -24h-109q-53 0 -80 38l-84 117l-86 -117q-27 -38 -79 -38h-107q-28 0 -40.5 24.5t5.5 46.5l150 191q28 39 78 39zM131 1855l-151 -190q-10 -15 -2.5 -30t24.5 -15h107q44 0 65 35l100 135l99 -135q24 -35 65 -35h109
q18 0 24 16q6 15 -4 29l-149 190q-28 31 -64 31h-159q-40 0 -64 -31z" />
    <glyph glyph-name="Idieresis" unicode="&#xcf;" horiz-adv-x="542" 
d="M336 0h-129q-34 0 -58 24t-24 58v1272q0 32 24 56t58 24h129q34 0 58 -24t24 -56v-1272q0 -34 -24 -58t-58 -24zM336 1415h-129q-27 0 -45.5 -17.5t-18.5 -43.5v-1272q0 -26 19 -45t45 -19h129q26 0 44.5 19t18.5 45v1272q0 26 -18.5 43.5t-44.5 17.5zM57 1589
q-61 0 -104 43t-43 105q0 61 43 104t104 43q62 0 105 -43t43 -104t-43.5 -104.5t-104.5 -43.5zM57 1866q-54 0 -91.5 -37.5t-37.5 -91.5t37.5 -91.5t91.5 -37.5t91.5 37.5t37.5 91.5t-37.5 91.5t-91.5 37.5zM485 1589q-61 0 -104 43t-43 105q0 61 43 104t104 43
q62 0 105 -43t43 -104t-43.5 -104.5t-104.5 -43.5zM485 1866q-54 0 -91.5 -37.5t-37.5 -91.5t37.5 -91.5t91.5 -37.5t91.5 37.5t37.5 91.5t-37.5 91.5t-91.5 37.5z" />
    <glyph glyph-name="Eth" unicode="&#xd0;" horiz-adv-x="1501" 
d="M659 0h-368q-34 0 -57 23t-23 57v555h-135q-19 0 -32 13t-13 32v72q0 19 13 32t32 13h135v555q0 34 23 58t57 24h368q347 0 554.5 -195.5t207.5 -521.5q0 -327 -207.5 -522t-554.5 -195zM229 778h-153q-11 0 -19 -8t-8 -18v-72q0 -10 8.5 -18.5t18.5 -8.5h153v-573
q0 -26 18 -45t44 -19h368q340 0 542 190.5t202 510.5q0 318 -202 508t-542 190h-368q-26 0 -44 -18.5t-18 -44.5v-574zM659 254h-174v399h293q12 0 20.5 8t8.5 19v72q0 11 -8.5 18.5t-20.5 7.5h-293v400h174q74 0 142 -15t131.5 -50t110.5 -86.5t75.5 -131t28.5 -178.5
t-28.5 -179t-75.5 -132t-110.5 -87t-131.5 -50t-142 -15zM504 635v-363h155q220 0 344.5 118t124.5 327q0 207 -125 325.5t-344 118.5h-155v-364h274q20 0 32.5 -13t12.5 -32v-72q0 -19 -12.5 -32t-32.5 -13h-274z" />
    <glyph glyph-name="Ntilde" unicode="&#xd1;" horiz-adv-x="1431" 
d="M1219 0h-119q-62 0 -99 53l-577 862v-833q0 -34 -24 -58t-56 -24h-131q-34 0 -58 24t-24 58v1272q0 32 24 56t58 24h119q64 0 96 -52l580 -864v836q0 33 23 56.5t56 23.5h132q33 0 57 -24t24 -56v-1272q0 -34 -23.5 -58t-57.5 -24zM406 82v893l612 -914q29 -43 82 -43
h119q26 0 44.5 19t18.5 45v1272q0 26 -18.5 43.5t-44.5 17.5h-132q-26 0 -44.5 -17.5t-18.5 -43.5v-895l-610 913q-29 43 -82 43h-119q-26 0 -44.5 -17.5t-18.5 -43.5v-1272q0 -26 18.5 -45t44.5 -19h131q25 0 43.5 19t18.5 45zM508 1571l-82 14q-17 3 -27.5 16.5t-9.5 32.5
q9 89 56 138t122 49q54 0 148 -35q7 -2 26.5 -9t28.5 -9.5t24 -5.5t27 -3q37 0 49 39q4 17 19.5 26.5t32.5 6.5l82 -14q17 -3 27.5 -17t8.5 -31q-9 -90 -55.5 -139t-122.5 -49q-51 0 -145 35q-84 26 -111 26q-36 0 -47 -38q-12 -39 -51 -33zM567 1802q-68 0 -110 -44.5
t-49 -125.5q-3 -24 22 -28l82 -17q22 -5 31 21q15 53 63 53q36 0 117 -29q89 -33 139 -33q69 0 110.5 45t49.5 125q3 23 -23 31l-81 15q-9 1 -18.5 -5.5t-12.5 -15.5q-12 -51 -66 -51q-40 0 -112 26q-89 33 -142 33z" />
    <glyph glyph-name="Ograve" unicode="&#xd2;" horiz-adv-x="1622" 
d="M811 -25q-205 0 -372 97t-262 267t-95 378q0 157 56 295t152.5 236t231.5 155t289 57q204 0 370.5 -96.5t261.5 -267t95 -379.5q0 -208 -95 -378t-261.5 -267t-370.5 -97zM811 1442q-203 0 -365.5 -93t-254 -259t-91.5 -373t91.5 -372.5t254 -258t365.5 -92.5
q152 0 283.5 54.5t225 149.5t147 229.5t53.5 289.5t-53.5 290t-147 230.5t-225 150t-283.5 54.5zM811 236q-108 0 -196.5 41.5t-144 110t-85 153.5t-29.5 176q0 73 18.5 142.5t56 130.5t90.5 107.5t128 73.5t162 27q107 0 195 -41t143.5 -109.5t85 -153.5t29.5 -177
q0 -91 -29.5 -176t-85 -153.5t-143.5 -110t-195 -41.5zM811 1180q-104 0 -188.5 -39.5t-137.5 -105.5t-81.5 -148t-28.5 -170q0 -87 28.5 -169t81.5 -148t137.5 -106t188.5 -40q103 0 187.5 40t137 106t81 148t28.5 169q0 88 -28.5 170t-81 148t-137 105.5t-187.5 39.5z
M852 1604h-113q-41 0 -65 34l-135 197q-17 23 -5 46.5t41 23.5h156q24 0 44.5 -12t29.5 -33l88 -191q12 -21 -2.5 -44t-38.5 -21zM731 1888h-156q-17 0 -24 -15.5t2 -27.5l135 -196q20 -27 51 -27h113q15 0 23.5 13t1.5 26l-89 190q-16 37 -57 37z" />
    <glyph glyph-name="Oacute" unicode="&#xd3;" horiz-adv-x="1622" 
d="M811 -25q-205 0 -372 97t-262 267t-95 378q0 157 56 295t152.5 236t231.5 155t289 57q204 0 370.5 -96.5t261.5 -267t95 -379.5q0 -208 -95 -378t-261.5 -267t-370.5 -97zM811 1442q-203 0 -365.5 -93t-254 -259t-91.5 -373t91.5 -372.5t254 -258t365.5 -92.5
q152 0 283.5 54.5t225 149.5t147 229.5t53.5 289.5t-53.5 290t-147 230.5t-225 150t-283.5 54.5zM811 236q-108 0 -196.5 41.5t-144 110t-85 153.5t-29.5 176q0 73 18.5 142.5t56 130.5t90.5 107.5t128 73.5t162 27q107 0 195 -41t143.5 -109.5t85 -153.5t29.5 -177
q0 -91 -29.5 -176t-85 -153.5t-143.5 -110t-195 -41.5zM811 1180q-104 0 -188.5 -39.5t-137.5 -105.5t-81.5 -148t-28.5 -170q0 -87 28.5 -169t81.5 -148t137.5 -106t188.5 -40q103 0 187.5 40t137 106t81 148t28.5 169q0 88 -28.5 170t-81 148t-137 105.5t-187.5 39.5z
M879 1604h-113q-27 0 -40 19.5t-1 45.5l88 191q22 45 74 45h155q29 0 41 -23.5t-2 -46.5l-137 -197q-24 -34 -65 -34zM1042 1888h-155q-42 0 -58 -37l-88 -190q-7 -17 1 -28t24 -11h113q31 0 51 27l135 196q9 12 1.5 27.5t-24.5 15.5z" />
    <glyph glyph-name="Ocircumflex" unicode="&#xd4;" horiz-adv-x="1622" 
d="M811 -25q-205 0 -372 97t-262 267t-95 378q0 157 56 295t152.5 236t231.5 155t289 57q204 0 370.5 -96.5t261.5 -267t95 -379.5q0 -208 -95 -378t-261.5 -267t-370.5 -97zM811 1442q-203 0 -365.5 -93t-254 -259t-91.5 -373t91.5 -372.5t254 -258t365.5 -92.5
q152 0 283.5 54.5t225 149.5t147 229.5t53.5 289.5t-53.5 290t-147 230.5t-225 150t-283.5 54.5zM811 236q-108 0 -196.5 41.5t-144 110t-85 153.5t-29.5 176q0 73 18.5 142.5t56 130.5t90.5 107.5t128 73.5t162 27q107 0 195 -41t143.5 -109.5t85 -153.5t29.5 -177
q0 -91 -29.5 -176t-85 -153.5t-143.5 -110t-195 -41.5zM811 1180q-104 0 -188.5 -39.5t-137.5 -105.5t-81.5 -148t-28.5 -170q0 -87 28.5 -169t81.5 -148t137.5 -106t188.5 -40q103 0 187.5 40t137 106t81 148t28.5 169q0 88 -28.5 170t-81 148t-137 105.5t-187.5 39.5z
M735 1905h160q50 0 78 -39l149 -191q15 -22 6 -47q-11 -24 -41 -24h-108q-53 0 -80 38l-84 117l-86 -117q-27 -38 -80 -38h-106q-28 0 -40.5 24.5t5.5 46.5l149 191q28 39 78 39zM672 1855l-152 -190q-10 -15 -2 -30t25 -15h106q45 0 66 35l100 135l98 -135q24 -35 66 -35
h108q19 0 25 16q6 15 -4 29l-150 190q-28 31 -63 31h-160q-39 0 -63 -31z" />
    <glyph glyph-name="Otilde" unicode="&#xd5;" horiz-adv-x="1622" 
d="M811 -25q-205 0 -372 97t-262 267t-95 378q0 157 56 295t152.5 236t231.5 155t289 57q204 0 370.5 -96.5t261.5 -267t95 -379.5q0 -208 -95 -378t-261.5 -267t-370.5 -97zM811 1442q-203 0 -365.5 -93t-254 -259t-91.5 -373t91.5 -372.5t254 -258t365.5 -92.5
q152 0 283.5 54.5t225 149.5t147 229.5t53.5 289.5t-53.5 290t-147 230.5t-225 150t-283.5 54.5zM811 236q-108 0 -196.5 41.5t-144 110t-85 153.5t-29.5 176q0 73 18.5 142.5t56 130.5t90.5 107.5t128 73.5t162 27q107 0 195 -41t143.5 -109.5t85 -153.5t29.5 -177
q0 -91 -29.5 -176t-85 -153.5t-143.5 -110t-195 -41.5zM811 1180q-104 0 -188.5 -39.5t-137.5 -105.5t-81.5 -148t-28.5 -170q0 -87 28.5 -169t81.5 -148t137.5 -106t188.5 -40q103 0 187.5 40t137 106t81 148t28.5 169q0 88 -28.5 170t-81 148t-137 105.5t-187.5 39.5z
M604 1571l-82 14q-17 3 -27.5 16.5t-9.5 32.5q9 89 56.5 138t122.5 49q53 0 147 -35q6 -2 26.5 -9t29 -9.5t24 -5.5t27.5 -3q37 0 49 39q4 17 19 26.5t32 6.5l82 -14q17 -3 28 -17t9 -31q-9 -89 -56 -138.5t-123 -49.5q-51 0 -145 35q-84 26 -111 26q-36 0 -47 -38
q-12 -39 -51 -33zM664 1802q-68 0 -110.5 -44.5t-49.5 -125.5q-3 -24 22 -28l82 -17q22 -5 31 21q15 53 63 53q36 0 117 -29q89 -33 139 -33q69 0 110.5 45t49.5 125q3 24 -22 31l-82 15q-9 1 -18.5 -5.5t-12.5 -15.5q-12 -51 -65 -51q-41 0 -113 26q-89 33 -141 33z" />
    <glyph glyph-name="Odieresis" unicode="&#xd6;" horiz-adv-x="1622" 
d="M811 -25q-205 0 -372 97t-262 267t-95 378q0 157 56 295t152.5 236t231.5 155t289 57q204 0 370.5 -96.5t261.5 -267t95 -379.5q0 -208 -95 -378t-261.5 -267t-370.5 -97zM811 1442q-203 0 -365.5 -93t-254 -259t-91.5 -373t91.5 -372.5t254 -258t365.5 -92.5
q152 0 283.5 54.5t225 149.5t147 229.5t53.5 289.5t-53.5 290t-147 230.5t-225 150t-283.5 54.5zM811 236q-108 0 -196.5 41.5t-144 110t-85 153.5t-29.5 176q0 73 18.5 142.5t56 130.5t90.5 107.5t128 73.5t162 27q107 0 195 -41t143.5 -109.5t85 -153.5t29.5 -177
q0 -91 -29.5 -176t-85 -153.5t-143.5 -110t-195 -41.5zM811 1180q-104 0 -188.5 -39.5t-137.5 -105.5t-81.5 -148t-28.5 -170q0 -87 28.5 -169t81.5 -148t137.5 -106t188.5 -40q103 0 187.5 40t137 106t81 148t28.5 169q0 88 -28.5 170t-81 148t-137 105.5t-187.5 39.5z
M598 1589q-61 0 -104 43t-43 105q0 61 42.5 104t104.5 43t104.5 -43t42.5 -104q0 -62 -43 -105t-104 -43zM598 1866q-54 0 -91.5 -37.5t-37.5 -91.5t37.5 -91.5t91.5 -37.5t91.5 37.5t37.5 91.5t-37.5 91.5t-91.5 37.5zM1026 1589q-61 0 -104 43t-43 105q0 61 42.5 104
t104.5 43t105 -43t43 -104t-43 -104.5t-105 -43.5zM1026 1866q-54 0 -91.5 -37.5t-37.5 -91.5t37.5 -91.5t91.5 -37.5t91.5 37.5t37.5 91.5t-37.5 91.5t-91.5 37.5z" />
    <glyph glyph-name="multiply" unicode="&#xd7;" horiz-adv-x="948" 
d="M623 299l-148 147l-145 -147q-25 -23 -58.5 -23t-56.5 23l-51 51q-23 25 -23 58.5t23 56.5l147 147l-147 146q-24 24 -25 55.5t25 58.5l51 52q23 25 56.5 25t58.5 -25l145 -146l148 146q23 25 56 25t58 -25l51 -52q23 -23 23 -56t-23 -58l-147 -146l147 -147
q23 -23 23 -56.5t-23 -58.5l-51 -51q-28 -25 -58.5 -23.5t-55.5 23.5zM317 313l158 158l160 -158q19 -19 45 -19t45 19l49 52q19 19 19 44t-19 44l-158 159l158 160q19 19 19 44t-19 44l-49 51q-19 19 -45 19t-45 -19l-160 -159l-158 159q-19 19 -45 19t-45 -19l-51 -51
q-19 -19 -19.5 -44.5t19.5 -43.5l160 -160l-160 -159q-19 -19 -19 -44t19 -44l51 -52q19 -19 45 -19t45 19z" />
    <glyph glyph-name="Oslash" unicode="&#xd8;" horiz-adv-x="1622" 
d="M809 -27q-291 0 -492 183l-90 -82q-15 -13 -33 -12t-30 16l-49 53q-13 14 -12.5 33t14.5 31l94 86q-131 187 -131 436q0 208 95 378t262 266.5t372 96.5q292 0 491 -184l91 84q14 12 32.5 11t30.5 -15l49 -54q13 -16 13 -32t-15 -31l-94 -86q129 -187 129 -434
q0 -209 -94.5 -379.5t-261 -267.5t-371.5 -97zM215 88l102 92l7 -4q196 -184 485 -184q203 0 365.5 93t254 259t91.5 373q0 243 -131 430l-5 6l105 96q8 8 8 21q0 9 -6 18l-49 53q-17 20 -39 2l-103 -94l-6 6q-197 185 -485 185q-152 0 -284.5 -54.5t-226 -150t-147 -229.5
t-53.5 -289q0 -248 131 -432l4 -9l-104 -94q-8 -8 -8.5 -19.5t6.5 -19.5l49 -53q20 -20 39 -2zM809 236q-179 0 -299 108l-6 6l690 631l6 -10q62 -115 62 -254q0 -92 -29.5 -177t-85 -153.5t-143.5 -109.5t-195 -41zM1188 950l-658 -600q113 -96 279 -96q103 0 187.5 39.5
t138 105.5t82 148t28.5 170q0 125 -57 233zM1114 1081l-690 -630l-6 10q-64 119 -64 256q0 91 29.5 175.5t85 153t144 109.5t196.5 41q178 0 299 -109zM809 1180q-104 0 -188.5 -40t-137.5 -106t-81.5 -148t-28.5 -169q0 -125 55 -238l659 602q-116 99 -278 99z" />
    <glyph glyph-name="Ugrave" unicode="&#xd9;" horiz-adv-x="1427" 
d="M715 -27q-274 0 -429 148t-155 409v822q0 34 24 58t58 24h131q34 0 57 -24t23 -58v-785q0 -81 22.5 -141.5t54 -92t75 -51t75 -24t64.5 -4.5q32 0 63.5 4.5t74.5 24t74.5 51t54 92t22.5 141.5v785q0 34 23.5 58t57.5 24h132q32 0 55.5 -24t23.5 -58v-822
q0 -261 -154 -409t-427 -148zM344 1415h-131q-26 0 -44.5 -18.5t-18.5 -44.5v-822q0 -253 149.5 -395.5t415.5 -142.5q264 0 413.5 142.5t149.5 395.5v822q0 26 -17.5 44.5t-43.5 18.5h-132q-26 0 -44.5 -18.5t-18.5 -44.5v-785q0 -157 -81 -244t-226 -87t-226 87t-81 244
v785q0 26 -19 44.5t-45 18.5zM795 1604h-113q-42 0 -66 34l-135 197q-17 23 -4.5 46.5t41.5 23.5h156q24 0 44.5 -12t29.5 -33l88 -191q12 -21 -2.5 -44t-38.5 -21zM674 1888h-156q-17 0 -24 -15.5t2 -27.5l135 -196q20 -27 51 -27h113q15 0 23 13t1 26l-88 190
q-16 37 -57 37z" />
    <glyph glyph-name="Uacute" unicode="&#xda;" horiz-adv-x="1427" 
d="M715 -27q-274 0 -429 148t-155 409v822q0 34 24 58t58 24h131q34 0 57 -24t23 -58v-785q0 -81 22.5 -141.5t54 -92t75 -51t75 -24t64.5 -4.5q32 0 63.5 4.5t74.5 24t74.5 51t54 92t22.5 141.5v785q0 34 23.5 58t57.5 24h132q32 0 55.5 -24t23.5 -58v-822
q0 -261 -154 -409t-427 -148zM344 1415h-131q-26 0 -44.5 -18.5t-18.5 -44.5v-822q0 -253 149.5 -395.5t415.5 -142.5q264 0 413.5 142.5t149.5 395.5v822q0 26 -17.5 44.5t-43.5 18.5h-132q-26 0 -44.5 -18.5t-18.5 -44.5v-785q0 -157 -81 -244t-226 -87t-226 87t-81 244
v785q0 26 -19 44.5t-45 18.5zM782 1604h-112q-27 0 -40 19.5t-1 45.5l88 191q22 45 74 45h155q29 0 41 -23.5t-2 -46.5l-137 -197q-24 -34 -66 -34zM946 1888h-155q-42 0 -58 -37l-88 -190q-7 -17 1 -28t24 -11h112q32 0 52 27l135 196q9 12 1.5 27.5t-24.5 15.5z" />
    <glyph glyph-name="Ucircumflex" unicode="&#xdb;" horiz-adv-x="1427" 
d="M715 -27q-274 0 -429 148t-155 409v822q0 34 24 58t58 24h131q34 0 57 -24t23 -58v-785q0 -81 22.5 -141.5t54 -92t75 -51t75 -24t64.5 -4.5q32 0 63.5 4.5t74.5 24t74.5 51t54 92t22.5 141.5v785q0 34 23.5 58t57.5 24h132q32 0 55.5 -24t23.5 -58v-822
q0 -261 -154 -409t-427 -148zM344 1415h-131q-26 0 -44.5 -18.5t-18.5 -44.5v-822q0 -253 149.5 -395.5t415.5 -142.5q264 0 413.5 142.5t149.5 395.5v822q0 26 -17.5 44.5t-43.5 18.5h-132q-26 0 -44.5 -18.5t-18.5 -44.5v-785q0 -157 -81 -244t-226 -87t-226 87t-81 244
v785q0 26 -19 44.5t-45 18.5zM637 1905h160q49 0 77 -39l150 -191q15 -22 6 -47q-11 -24 -41 -24h-108q-53 0 -80 38l-84 117l-86 -117q-27 -38 -80 -38h-107q-28 0 -40 24.5t6 46.5l149 191q28 39 78 39zM573 1855l-151 -190q-10 -15 -2.5 -30t24.5 -15h107q44 0 65 35
l101 135l98 -135q24 -35 66 -35h108q19 0 25 16q6 15 -4 29l-150 190q-28 31 -63 31h-160q-40 0 -64 -31z" />
    <glyph glyph-name="Udieresis" unicode="&#xdc;" horiz-adv-x="1427" 
d="M715 -27q-274 0 -429 148t-155 409v822q0 34 24 58t58 24h131q34 0 57 -24t23 -58v-785q0 -81 22.5 -141.5t54 -92t75 -51t75 -24t64.5 -4.5q32 0 63.5 4.5t74.5 24t74.5 51t54 92t22.5 141.5v785q0 34 23.5 58t57.5 24h132q32 0 55.5 -24t23.5 -58v-822
q0 -261 -154 -409t-427 -148zM344 1415h-131q-26 0 -44.5 -18.5t-18.5 -44.5v-822q0 -253 149.5 -395.5t415.5 -142.5q264 0 413.5 142.5t149.5 395.5v822q0 26 -17.5 44.5t-43.5 18.5h-132q-26 0 -44.5 -18.5t-18.5 -44.5v-785q0 -157 -81 -244t-226 -87t-226 87t-81 244
v785q0 26 -19 44.5t-45 18.5zM500 1589q-62 0 -105 43.5t-43 104.5t43 104t105 43t104.5 -43t42.5 -104q0 -62 -43 -105t-104 -43zM500 1866q-54 0 -91.5 -37.5t-37.5 -91.5t37.5 -91.5t91.5 -37.5t91.5 37.5t37.5 91.5t-37.5 91.5t-91.5 37.5zM928 1589q-62 0 -105 43.5
t-43 104.5t43 104t105 43t104.5 -43t42.5 -104q0 -62 -43 -105t-104 -43zM928 1866q-54 0 -91.5 -37.5t-37.5 -91.5t37.5 -91.5t91.5 -37.5t91.5 37.5t37.5 91.5t-37.5 91.5t-91.5 37.5z" />
    <glyph glyph-name="Yacute" unicode="&#xdd;" horiz-adv-x="1409" 
d="M770 0h-129q-34 0 -58 23t-24 57v455l-477 802q-19 31 -1 64t54 33h141q32 0 60 -16.5t43 -43.5l326 -573l327 573q15 27 43 43.5t58 16.5h143q38 0 55 -33t-2 -64l-477 -802v-455q0 -34 -24 -57t-58 -23zM276 1415h-141q-26 0 -38.5 -23t-0.5 -46l482 -805v-461
q0 -26 18.5 -45t44.5 -19h129q26 0 45 19t19 45v461l481 805q12 23 -0.5 46t-38.5 23h-143q-56 0 -86 -51l-342 -598l-343 598q-12 23 -35 37t-51 14zM752 1604h-113q-27 0 -40 19.5t-1 45.5l88 191q22 45 74 45h155q29 0 41 -23.5t-2 -46.5l-137 -197q-24 -34 -65 -34z
M915 1888h-155q-42 0 -58 -37l-88 -190q-7 -17 1 -28t24 -11h113q31 0 51 27l135 196q9 12 1.5 27.5t-24.5 15.5z" />
    <glyph glyph-name="Thorn" unicode="&#xde;" horiz-adv-x="1234" 
d="M342 0h-131q-33 0 -56.5 23.5t-23.5 56.5v1272q0 34 24 58t56 24h131q34 0 58 -24t24 -58v-138h190q250 0 400.5 -135.5t150.5 -361.5q0 -227 -150 -362.5t-401 -135.5h-190v-139q0 -34 -24 -57t-58 -23zM342 1415h-131q-26 0 -43.5 -18.5t-17.5 -44.5v-1272
q0 -27 17.5 -45.5t43.5 -18.5h131q26 0 45 19t19 45v156h208q243 0 388 130.5t145 350.5q0 218 -145 348.5t-388 130.5h-208v156q0 26 -19 44.5t-45 18.5zM614 473h-208v485h208q129 0 201 -63t72 -178q0 -117 -72 -180.5t-201 -63.5zM424 940v-448h190q121 0 187.5 59
t66.5 166q0 106 -66.5 164.5t-187.5 58.5h-190z" />
    <glyph glyph-name="germandbls" unicode="&#xdf;" horiz-adv-x="1214" 
d="M711 -10q-24 0 -78 4q-25 3 -41.5 20.5t-16.5 42.5v97q0 26 19 44.5t47 18.5q132 0 190 55q54 54 54 142q0 174 -248 180q-25 0 -43.5 18.5t-18.5 44.5v117q0 23 16.5 41t39.5 21q75 10 115 57.5t40 124.5q0 79 -53 127.5t-139 48.5q-96 0 -147.5 -63t-51.5 -181v-868
q0 -34 -24 -58t-56 -24h-112q-34 0 -58 24t-24 58v897q0 209 133.5 345t339.5 136q107 0 196 -37.5t144.5 -99t86 -137t30.5 -154.5q0 -88 -40.5 -160.5t-115.5 -119.5q127 -46 194.5 -137t67.5 -216q0 -188 -125 -301q-117 -108 -321 -108zM594 154v-97q0 -19 11 -31.5
t30 -13.5q118 -13 217.5 13t167.5 88q119 104 119 286q0 75 -24 135t-65.5 100t-85 65t-94.5 42l-18 7l18 10q162 90 162 274q0 76 -29 148.5t-82.5 131t-138.5 94.5t-188 36q-198 0 -326.5 -131t-128.5 -332v-897q0 -26 19 -45t45 -19h112q26 0 44 19t18 45v868
q0 65 15.5 114.5t37.5 77t53.5 44t57 21.5t53.5 5q95 0 153 -53t58 -141q0 -83 -45 -136t-127 -65q-17 -1 -28 -13.5t-11 -29.5v-117q0 -19 13 -32t30 -13q134 -5 200 -53.5t66 -144.5q0 -98 -59 -154q-67 -64 -203 -61q-22 0 -34.5 -12.5t-12.5 -32.5z" />
    <glyph glyph-name="agrave" unicode="&#xe0;" horiz-adv-x="1282" 
d="M569 -27q-96 0 -179.5 31.5t-143 85t-102.5 124t-64 148.5t-21 158t21 158t64 148.5t102.5 124t143 85t179.5 31.5q203 0 320 -129v23q0 34 23 57.5t57 23.5h112q34 0 58 -23.5t24 -57.5v-881q0 -34 -24 -57t-58 -23h-112q-34 0 -57 23t-23 57v24q-116 -131 -320 -131z
M569 1049q-115 0 -210.5 -46.5t-155.5 -122.5t-92.5 -169t-32.5 -191q0 -78 20 -153.5t61.5 -143t98.5 -119t137.5 -82t173.5 -30.5q208 0 322 141l14 21v-74q0 -26 19 -45t45 -19h112q26 0 45 19t19 45v881q0 26 -19 44.5t-45 18.5h-112q-26 0 -45 -18.5t-19 -44.5v-74
l-14 20q-115 142 -322 142zM610 219q-127 0 -206.5 84t-79.5 217t79.5 217t206.5 84q126 0 205.5 -84.5t79.5 -216.5t-79.5 -216.5t-205.5 -84.5zM610 803q-120 0 -194 -79t-74 -204t74 -203.5t194 -78.5q118 0 192.5 78.5t74.5 203.5t-74.5 204t-192.5 79zM692 1194h-112
q-42 0 -66 35l-135 196q-17 23 -4.5 46.5t41.5 23.5h155q24 0 44.5 -12t29.5 -33l88 -190q12 -22 -2.5 -45t-38.5 -21zM571 1479h-155q-17 0 -24.5 -15.5t1.5 -27.5l135 -197q20 -27 52 -27h112q15 0 23.5 13t1.5 26l-88 191q-16 37 -58 37z" />
    <glyph glyph-name="aacute" unicode="&#xe1;" horiz-adv-x="1282" 
d="M569 -27q-96 0 -179.5 31.5t-143 85t-102.5 124t-64 148.5t-21 158t21 158t64 148.5t102.5 124t143 85t179.5 31.5q203 0 320 -129v23q0 34 23 57.5t57 23.5h112q34 0 58 -23.5t24 -57.5v-881q0 -34 -24 -57t-58 -23h-112q-34 0 -57 23t-23 57v24q-116 -131 -320 -131z
M569 1049q-115 0 -210.5 -46.5t-155.5 -122.5t-92.5 -169t-32.5 -191q0 -78 20 -153.5t61.5 -143t98.5 -119t137.5 -82t173.5 -30.5q208 0 322 141l14 21v-74q0 -26 19 -45t45 -19h112q26 0 45 19t19 45v881q0 26 -19 44.5t-45 18.5h-112q-26 0 -45 -18.5t-19 -44.5v-74
l-14 20q-115 142 -322 142zM610 219q-127 0 -206.5 84t-79.5 217t79.5 217t206.5 84q126 0 205.5 -84.5t79.5 -216.5t-79.5 -216.5t-205.5 -84.5zM610 803q-120 0 -194 -79t-74 -204t74 -203.5t194 -78.5q118 0 192.5 78.5t74.5 203.5t-74.5 204t-192.5 79zM659 1194h-112
q-27 0 -40 20t-1 46l88 190q22 45 74 45h155q29 0 41 -23.5t-2 -46.5l-137 -196q-25 -35 -66 -35zM823 1479h-155q-42 0 -58 -37l-88 -191q-7 -17 1 -28t24 -11h112q32 0 52 27l135 197q9 12 1.5 27.5t-24.5 15.5z" />
    <glyph glyph-name="acircumflex" unicode="&#xe2;" horiz-adv-x="1282" 
d="M569 -27q-96 0 -179.5 31.5t-143 85t-102.5 124t-64 148.5t-21 158t21 158t64 148.5t102.5 124t143 85t179.5 31.5q203 0 320 -129v23q0 34 23 57.5t57 23.5h112q34 0 58 -23.5t24 -57.5v-881q0 -34 -24 -57t-58 -23h-112q-34 0 -57 23t-23 57v24q-116 -131 -320 -131z
M569 1049q-115 0 -210.5 -46.5t-155.5 -122.5t-92.5 -169t-32.5 -191q0 -78 20 -153.5t61.5 -143t98.5 -119t137.5 -82t173.5 -30.5q208 0 322 141l14 21v-74q0 -26 19 -45t45 -19h112q26 0 45 19t19 45v881q0 26 -19 44.5t-45 18.5h-112q-26 0 -45 -18.5t-19 -44.5v-74
l-14 20q-115 142 -322 142zM610 219q-127 0 -206.5 84t-79.5 217t79.5 217t206.5 84q126 0 205.5 -84.5t79.5 -216.5t-79.5 -216.5t-205.5 -84.5zM610 803q-120 0 -194 -79t-74 -204t74 -203.5t194 -78.5q118 0 192.5 78.5t74.5 203.5t-74.5 204t-192.5 79zM575 1495h160
q50 0 78 -39l150 -190q15 -22 6 -47q-11 -25 -41 -25h-109q-52 0 -80 39l-84 117l-86 -117q-28 -39 -80 -39h-106q-28 0 -40.5 25t5.5 47l150 190q28 39 77 39zM512 1446l-152 -191q-10 -15 -2 -30t25 -15h106q45 0 66 35l100 135l99 -135q24 -35 65 -35h109q17 0 24 17
q6 15 -4 28l-149 191q-28 31 -64 31h-160q-39 0 -63 -31z" />
    <glyph glyph-name="atilde" unicode="&#xe3;" horiz-adv-x="1282" 
d="M569 -27q-96 0 -179.5 31.5t-143 85t-102.5 124t-64 148.5t-21 158t21 158t64 148.5t102.5 124t143 85t179.5 31.5q203 0 320 -129v23q0 34 23 57.5t57 23.5h112q34 0 58 -23.5t24 -57.5v-881q0 -34 -24 -57t-58 -23h-112q-34 0 -57 23t-23 57v24q-116 -131 -320 -131z
M569 1049q-115 0 -210.5 -46.5t-155.5 -122.5t-92.5 -169t-32.5 -191q0 -78 20 -153.5t61.5 -143t98.5 -119t137.5 -82t173.5 -30.5q208 0 322 141l14 21v-74q0 -26 19 -45t45 -19h112q26 0 45 19t19 45v881q0 26 -19 44.5t-45 18.5h-112q-26 0 -45 -18.5t-19 -44.5v-74
l-14 20q-115 142 -322 142zM610 219q-127 0 -206.5 84t-79.5 217t79.5 217t206.5 84q126 0 205.5 -84.5t79.5 -216.5t-79.5 -216.5t-205.5 -84.5zM610 803q-120 0 -194 -79t-74 -204t74 -203.5t194 -78.5q118 0 192.5 78.5t74.5 203.5t-74.5 204t-192.5 79zM424 1161l-82 15
q-17 3 -27.5 16.5t-9.5 32.5q9 89 56 137.5t122 48.5q54 0 148 -35q80 -26 106 -26q37 0 49 39q4 17 19 26t33 6l82 -14q17 -3 27.5 -16.5t8.5 -30.5q-9 -90 -55.5 -139.5t-122.5 -49.5q-51 0 -145 35q-8 2 -27.5 8.5t-29.5 9.5t-25.5 6t-28.5 3q-35 0 -47 -39t-51 -33z
M483 1393q-68 0 -110 -44.5t-49 -125.5q-1 -10 5 -18.5t17 -10.5l82 -16q23 -5 31 20q15 53 63 53q39 0 117 -28q89 -33 139 -33q69 0 110.5 45t49.5 125q3 23 -23 31l-81 14q-9 1 -18.5 -5.5t-12.5 -15.5q-12 -51 -66 -51q-37 0 -112 27q-89 33 -142 33z" />
    <glyph glyph-name="adieresis" unicode="&#xe4;" horiz-adv-x="1282" 
d="M569 -27q-96 0 -179.5 31.5t-143 85t-102.5 124t-64 148.5t-21 158t21 158t64 148.5t102.5 124t143 85t179.5 31.5q203 0 320 -129v23q0 34 23 57.5t57 23.5h112q34 0 58 -23.5t24 -57.5v-881q0 -34 -24 -57t-58 -23h-112q-34 0 -57 23t-23 57v24q-116 -131 -320 -131z
M569 1049q-115 0 -210.5 -46.5t-155.5 -122.5t-92.5 -169t-32.5 -191q0 -78 20 -153.5t61.5 -143t98.5 -119t137.5 -82t173.5 -30.5q208 0 322 141l14 21v-74q0 -26 19 -45t45 -19h112q26 0 45 19t19 45v881q0 26 -19 44.5t-45 18.5h-112q-26 0 -45 -18.5t-19 -44.5v-74
l-14 20q-115 142 -322 142zM610 219q-127 0 -206.5 84t-79.5 217t79.5 217t206.5 84q126 0 205.5 -84.5t79.5 -216.5t-79.5 -216.5t-205.5 -84.5zM610 803q-120 0 -194 -79t-74 -204t74 -203.5t194 -78.5q118 0 192.5 78.5t74.5 203.5t-74.5 204t-192.5 79zM438 1180
q-62 0 -104.5 43t-42.5 104q0 62 43 105t104 43q62 0 105 -43.5t43 -104.5t-43 -104t-105 -43zM438 1456q-54 0 -91.5 -37.5t-37.5 -91.5t37.5 -91.5t91.5 -37.5t91.5 37.5t37.5 91.5t-37.5 91.5t-91.5 37.5zM866 1180q-62 0 -104.5 43t-42.5 104q0 62 43 105t104 43
q62 0 105 -43.5t43 -104.5t-43 -104t-105 -43zM866 1456q-54 0 -91.5 -37.5t-37.5 -91.5t37.5 -91.5t91.5 -37.5t91.5 37.5t37.5 91.5t-37.5 91.5t-91.5 37.5z" />
    <glyph glyph-name="aring" unicode="&#xe5;" horiz-adv-x="1282" 
d="M569 -27q-96 0 -179.5 31.5t-143 85t-102.5 124t-64 148.5t-21 158t21 158t64 148.5t102.5 124t143 85t179.5 31.5q203 0 320 -129v23q0 34 23 57.5t57 23.5h112q34 0 58 -23.5t24 -57.5v-881q0 -34 -24 -57t-58 -23h-112q-34 0 -57 23t-23 57v24q-116 -131 -320 -131z
M569 1049q-115 0 -210.5 -46.5t-155.5 -122.5t-92.5 -169t-32.5 -191q0 -78 20 -153.5t61.5 -143t98.5 -119t137.5 -82t173.5 -30.5q208 0 322 141l14 21v-74q0 -26 19 -45t45 -19h112q26 0 45 19t19 45v881q0 26 -19 44.5t-45 18.5h-112q-26 0 -45 -18.5t-19 -44.5v-74
l-14 20q-115 142 -322 142zM610 219q-127 0 -206.5 84t-79.5 217t79.5 217t206.5 84q126 0 205.5 -84.5t79.5 -216.5t-79.5 -216.5t-205.5 -84.5zM610 803q-120 0 -194 -79t-74 -204t74 -203.5t194 -78.5q118 0 192.5 78.5t74.5 203.5t-74.5 204t-192.5 79zM633 1126
q-98 0 -168 71t-70 169t70 168t168 70q99 0 169 -70t70 -168q0 -99 -70 -169.5t-169 -70.5zM633 1587q-91 0 -155 -65t-64 -156t64 -156t155 -65q92 0 156.5 65t64.5 156t-64.5 156t-156.5 65zM633 1253q-46 0 -79.5 33.5t-33.5 79.5t33.5 79.5t79.5 33.5q47 0 79.5 -33.5
t32.5 -79.5t-32.5 -79.5t-79.5 -33.5zM633 1460q-38 0 -66 -28t-28 -66q0 -39 27.5 -66.5t66.5 -27.5q40 0 67 27t27 67q0 39 -27.5 66.5t-66.5 27.5z" />
    <glyph glyph-name="ae" unicode="&#xe6;" horiz-adv-x="2115" 
d="M1569 -27q-243 0 -400 142v-54q0 -26 -18.5 -43.5t-44.5 -17.5h-150q-26 0 -44.5 17.5t-18.5 43.5v43q-116 -131 -318 -131q-96 0 -179.5 31.5t-143 85t-102 124t-63.5 148.5t-21 158q0 101 34 198t96 175t161 126t218 48q204 0 318 -129v41q0 26 18.5 44.5t44.5 18.5
h150q26 0 44.5 -18.5t18.5 -44.5v-49q149 137 359 137q113 0 211 -39.5t168 -112.5q154 -160 145 -423q-2 -34 -25 -57t-57 -23h-680q28 -90 101.5 -140.5t177.5 -50.5q113 0 196 72q15 12 35.5 14t38.5 -8l115 -68q26 -15 29.5 -46t-17.5 -54q-74 -75 -178 -116.5
t-219 -41.5zM1151 61v95l14 -15q152 -149 404 -149q113 0 213 40t170 113q16 15 14 37.5t-22 32.5l-115 68q-27 17 -51 -4q-86 -76 -209 -76q-114 0 -193.5 57.5t-105.5 159.5l-4 10h704q26 0 45 18t19 44q9 256 -140 411q-143 146 -366 146q-103 0 -197 -38t-166 -108
l-14 -16v92q0 19 -13 32t-32 13h-150q-19 0 -32 -13t-13 -32v-92l-16 20q-112 142 -320 142q-115 0 -210.5 -46.5t-155.5 -122.5t-92.5 -169t-32.5 -191q0 -78 20 -153.5t61.5 -143t98.5 -119t137.5 -82t173.5 -30.5q209 0 320 141l16 21v-93q0 -19 13 -32t32 -13h150
q19 0 32 13t13 32zM614 221q-126 0 -205 83.5t-79 215.5q0 134 79 217.5t205 83.5q127 0 207 -83.5t80 -217.5q0 -132 -80 -215.5t-207 -83.5zM614 803q-118 0 -192 -79t-74 -204t74 -203.5t192 -78.5q119 0 194 79t75 203q0 125 -75.5 204t-193.5 79zM1796 621l2 -11h-532
l2 13q25 100 96.5 158.5t169.5 58.5q104 0 173 -57.5t89 -161.5zM1288 629h488q-20 92 -83.5 142t-158.5 50q-91 0 -155.5 -50.5t-90.5 -141.5z" />
    <glyph glyph-name="ccedilla" unicode="&#xe7;" horiz-adv-x="1107" 
d="M559 -512q-87 0 -151 27q-28 9 -38 38t5 52l26 47q7 15 24 20.5t34 -0.5q35 -14 73 -14q44 0 71.5 21.5t27.5 56.5q0 67 -86 67q-20 0 -41 -6q-29 -6 -49 17l-15 20q-11 14 -13 32.5t7 33.5l43 90q-186 43 -303 191t-117 341q0 151 73 277t199.5 198t278.5 72
q129 0 241.5 -53t190.5 -150q17 -23 12 -51t-30 -43l-129 -74q-20 -11 -43.5 -6.5t-36.5 21.5q-76 92 -205 92q-117 0 -193.5 -80t-76.5 -203t76.5 -202.5t193.5 -79.5q128 0 205 90q13 18 36.5 22.5t43.5 -6.5l129 -76q28 -18 31 -43q3 -30 -15 -51q-75 -93 -184 -145.5
t-233 -55.5l-25 -53q106 -9 161.5 -63t55.5 -146q0 -97 -72 -161t-182 -64zM436 -340q-10 0 -18 -16l-29 -50q-10 -17 -2 -37t27 -26q64 -25 145 -25q103 0 170.5 59t67.5 148q0 56 -21.5 95.5t-57.5 59t-68.5 28t-69.5 10.5h-13l43 88h6q122 2 229.5 52t180.5 142
q11 14 8 37q-4 22 -22 31l-129 74q-14 7 -30.5 4t-27.5 -15q-79 -98 -217 -98q-124 0 -205 85t-81 216t81 216t205 85q138 0 217 -98q11 -12 27.5 -15.5t30.5 5.5l129 73q18 9 22 31t-8 37q-75 93 -184.5 144t-233.5 51q-147 0 -269.5 -70t-192.5 -191.5t-70 -267.5
q0 -190 116.5 -334t301.5 -182l10 -4l-55 -111q-10 -24 6 -47l14 -20q14 -14 31 -8q21 6 45 6q102 0 102 -86q0 -43 -31.5 -68.5t-83.5 -25.5q-46 0 -81 14q-10 4 -15 4z" />
    <glyph glyph-name="egrave" unicode="&#xe8;" horiz-adv-x="1175" 
d="M633 -27q-254 0 -415 153t-161 394q0 153 69.5 278.5t192.5 197t273 71.5q231 0 377 -152q154 -157 145 -423q0 -33 -23.5 -56.5t-56.5 -23.5h-682q28 -91 102.5 -142t178.5 -51q109 0 194 74q15 12 35.5 14t38.5 -8l115 -68q26 -15 30 -45.5t-18 -54.5
q-73 -75 -177 -116.5t-218 -41.5zM592 1049q-221 0 -368.5 -151.5t-147.5 -377.5q0 -233 155.5 -380.5t401.5 -147.5q110 0 210.5 39.5t172.5 111.5q15 15 12.5 39t-22.5 33l-113 68q-28 17 -53 -4q-86 -76 -207 -76q-116 0 -195.5 57t-105.5 160l-4 10h706q25 0 43.5 18
t18.5 44q9 259 -140 411q-67 70 -161.5 108t-202.5 38zM858 621l2 -11h-532l2 11q25 101 96.5 160t169.5 59q105 0 173.5 -57t88.5 -162zM350 629h490q-22 92 -85.5 142t-158.5 50q-91 0 -155.5 -50.5t-90.5 -141.5zM670 1194h-113q-41 0 -65 35l-136 196q-17 23 -4.5 46.5
t41.5 23.5h156q24 0 44.5 -12t29.5 -33l88 -190q12 -22 -2.5 -45t-38.5 -21zM549 1479h-156q-17 0 -24 -15.5t2 -27.5l135 -197q20 -27 51 -27h113q15 0 23 13t1 26l-88 191q-16 37 -57 37z" />
    <glyph glyph-name="eacute" unicode="&#xe9;" horiz-adv-x="1175" 
d="M633 -27q-254 0 -415 153t-161 394q0 153 69.5 278.5t192.5 197t273 71.5q231 0 377 -152q154 -157 145 -423q0 -33 -23.5 -56.5t-56.5 -23.5h-682q28 -91 102.5 -142t178.5 -51q109 0 194 74q15 12 35.5 14t38.5 -8l115 -68q26 -15 30 -45.5t-18 -54.5
q-73 -75 -177 -116.5t-218 -41.5zM592 1049q-221 0 -368.5 -151.5t-147.5 -377.5q0 -233 155.5 -380.5t401.5 -147.5q110 0 210.5 39.5t172.5 111.5q15 15 12.5 39t-22.5 33l-113 68q-28 17 -53 -4q-86 -76 -207 -76q-116 0 -195.5 57t-105.5 160l-4 10h706q25 0 43.5 18
t18.5 44q9 259 -140 411q-67 70 -161.5 108t-202.5 38zM858 621l2 -11h-532l2 11q25 101 96.5 160t169.5 59q105 0 173.5 -57t88.5 -162zM350 629h490q-22 92 -85.5 142t-158.5 50q-91 0 -155.5 -50.5t-90.5 -141.5zM635 1194h-113q-27 0 -40 20t-1 46l88 190q22 45 74 45
h156q29 0 41 -23.5t-2 -46.5l-138 -196q-24 -35 -65 -35zM799 1479h-156q-41 0 -57 -37l-88 -191q-7 -17 0.5 -28t23.5 -11h113q31 0 51 27l135 197q9 12 2 27.5t-24 15.5z" />
    <glyph glyph-name="ecircumflex" unicode="&#xea;" horiz-adv-x="1175" 
d="M633 -27q-254 0 -415 153t-161 394q0 153 69.5 278.5t192.5 197t273 71.5q231 0 377 -152q154 -157 145 -423q0 -33 -23.5 -56.5t-56.5 -23.5h-682q28 -91 102.5 -142t178.5 -51q109 0 194 74q15 12 35.5 14t38.5 -8l115 -68q26 -15 30 -45.5t-18 -54.5
q-73 -75 -177 -116.5t-218 -41.5zM592 1049q-221 0 -368.5 -151.5t-147.5 -377.5q0 -233 155.5 -380.5t401.5 -147.5q110 0 210.5 39.5t172.5 111.5q15 15 12.5 39t-22.5 33l-113 68q-28 17 -53 -4q-86 -76 -207 -76q-116 0 -195.5 57t-105.5 160l-4 10h706q25 0 43.5 18
t18.5 44q9 259 -140 411q-67 70 -161.5 108t-202.5 38zM858 621l2 -11h-532l2 11q25 101 96.5 160t169.5 59q105 0 173.5 -57t88.5 -162zM350 629h490q-22 92 -85.5 142t-158.5 50q-91 0 -155.5 -50.5t-90.5 -141.5zM530 1495h160q50 0 78 -39l150 -190q15 -22 6 -47
q-11 -25 -41 -25h-109q-52 0 -80 39l-84 117l-86 -117q-28 -39 -80 -39h-106q-28 0 -40.5 25t5.5 47l150 190q28 39 77 39zM467 1446l-152 -191q-10 -15 -2 -30t25 -15h106q45 0 66 35l100 135l99 -135q24 -35 65 -35h109q17 0 24 17q6 15 -4 28l-149 191q-28 31 -64 31
h-160q-39 0 -63 -31z" />
    <glyph glyph-name="edieresis" unicode="&#xeb;" horiz-adv-x="1175" 
d="M633 -27q-254 0 -415 153t-161 394q0 153 69.5 278.5t192.5 197t273 71.5q231 0 377 -152q154 -157 145 -423q0 -33 -23.5 -56.5t-56.5 -23.5h-682q28 -91 102.5 -142t178.5 -51q109 0 194 74q15 12 35.5 14t38.5 -8l115 -68q26 -15 30 -45.5t-18 -54.5
q-73 -75 -177 -116.5t-218 -41.5zM592 1049q-221 0 -368.5 -151.5t-147.5 -377.5q0 -233 155.5 -380.5t401.5 -147.5q110 0 210.5 39.5t172.5 111.5q15 15 12.5 39t-22.5 33l-113 68q-28 17 -53 -4q-86 -76 -207 -76q-116 0 -195.5 57t-105.5 160l-4 10h706q25 0 43.5 18
t18.5 44q9 259 -140 411q-67 70 -161.5 108t-202.5 38zM858 621l2 -11h-532l2 11q25 101 96.5 160t169.5 59q105 0 173.5 -57t88.5 -162zM350 629h490q-22 92 -85.5 142t-158.5 50q-91 0 -155.5 -50.5t-90.5 -141.5zM393 1180q-61 0 -104 43t-43 104q0 62 43 105t104 43
t104.5 -43.5t43.5 -104.5t-43 -104t-105 -43zM393 1456q-54 0 -91.5 -37.5t-37.5 -91.5t37.5 -91.5t91.5 -37.5t91.5 37.5t37.5 91.5t-37.5 91.5t-91.5 37.5zM821 1180q-61 0 -104 43t-43 104q0 62 43 105t104 43t104.5 -43.5t43.5 -104.5t-43 -104t-105 -43zM821 1456
q-54 0 -91.5 -37.5t-37.5 -91.5t37.5 -91.5t91.5 -37.5t91.5 37.5t37.5 91.5t-37.5 91.5t-91.5 37.5z" />
    <glyph glyph-name="igrave" unicode="&#xec;" horiz-adv-x="505" 
d="M309 0h-112q-34 0 -58 23t-24 57v881q0 34 24 57.5t58 23.5h112q34 0 57 -23.5t23 -57.5v-881q0 -34 -23 -57t-57 -23zM309 1024h-112q-26 0 -45 -18.5t-19 -44.5v-881q0 -26 19 -45t45 -19h112q26 0 45 19t19 45v881q0 26 -19 44.5t-45 18.5zM295 1194h-113
q-40 0 -65 35l-135 196q-17 23 -5 46.5t41 23.5h156q24 0 44.5 -12t29.5 -33l88 -190q12 -22 -2.5 -45t-38.5 -21zM174 1479h-156q-17 0 -24 -15.5t2 -27.5l135 -197q20 -27 51 -27h113q15 0 23 13t1 26l-88 191q-16 37 -57 37z" />
    <glyph glyph-name="iacute" unicode="&#xed;" horiz-adv-x="505" 
d="M309 0h-112q-34 0 -58 23t-24 57v881q0 34 24 57.5t58 23.5h112q34 0 57 -23.5t23 -57.5v-881q0 -34 -23 -57t-57 -23zM309 1024h-112q-26 0 -45 -18.5t-19 -44.5v-881q0 -26 19 -45t45 -19h112q26 0 45 19t19 45v881q0 26 -19 44.5t-45 18.5zM322 1194h-113
q-27 0 -40 20t-1 46l88 190q22 45 74 45h155q29 0 41 -23.5t-2 -46.5l-137 -196q-25 -35 -65 -35zM485 1479h-155q-42 0 -58 -37l-88 -191q-7 -17 1 -28t24 -11h113q31 0 51 27l135 197q9 12 1.5 27.5t-24.5 15.5z" />
    <glyph glyph-name="icircumflex" unicode="&#xee;" horiz-adv-x="505" 
d="M309 0h-112q-34 0 -58 23t-24 57v881q0 34 24 57.5t58 23.5h112q34 0 57 -23.5t23 -57.5v-881q0 -34 -23 -57t-57 -23zM309 1024h-112q-26 0 -45 -18.5t-19 -44.5v-881q0 -26 19 -45t45 -19h112q26 0 45 19t19 45v881q0 26 -19 44.5t-45 18.5zM176 1495h160q50 0 78 -39
l149 -190q15 -22 6 -47q-11 -25 -41 -25h-108q-52 0 -80 39l-84 117l-86 -117q-28 -39 -80 -39h-106q-28 0 -40.5 25t5.5 47l149 190q28 39 78 39zM113 1446l-152 -191q-10 -15 -2 -30t25 -15h106q45 0 66 35l100 135l98 -135q24 -35 66 -35h108q18 0 25 17q6 15 -4 28
l-150 191q-28 31 -63 31h-160q-39 0 -63 -31z" />
    <glyph glyph-name="idieresis" unicode="&#xef;" horiz-adv-x="505" 
d="M309 0h-112q-34 0 -58 23t-24 57v881q0 34 24 57.5t58 23.5h112q34 0 57 -23.5t23 -57.5v-881q0 -34 -23 -57t-57 -23zM309 1024h-112q-26 0 -45 -18.5t-19 -44.5v-881q0 -26 19 -45t45 -19h112q26 0 45 19t19 45v881q0 26 -19 44.5t-45 18.5zM39 1180q-62 0 -105 43
t-43 104t43.5 104.5t104.5 43.5t104 -43t43 -105q0 -61 -43 -104t-104 -43zM39 1456q-54 0 -91.5 -37.5t-37.5 -91.5t37.5 -91.5t91.5 -37.5t91.5 37.5t37.5 91.5t-37.5 91.5t-91.5 37.5zM467 1180q-62 0 -105 43t-43 104t43.5 104.5t104.5 43.5t104 -43t43 -105
q0 -61 -43 -104t-104 -43zM467 1456q-54 0 -91.5 -37.5t-37.5 -91.5t37.5 -91.5t91.5 -37.5t91.5 37.5t37.5 91.5t-37.5 91.5t-91.5 37.5z" />
    <glyph glyph-name="eth" unicode="&#xf0;" horiz-adv-x="1196" 
d="M596 -25q-232 0 -383.5 143t-151.5 363q0 214 141 352t359 138q98 0 182 -37q-47 95 -172 205l-213 -103q-15 -8 -33.5 -2t-25.5 23l-16 33q-7 18 -2 34q8 19 22 25l158 78q-68 46 -154 94q-28 12 -29.5 43.5t23.5 48.5l98 68q41 27 86 4q86 -49 209 -144l207 101
q17 8 35 2t27 -23l14 -32q7 -19 0.5 -36.5t-21.5 -25.5l-159 -78q342 -333 342 -749q0 -243 -145.5 -384t-397.5 -141zM561 952q-211 0 -347 -132.5t-136 -338.5q0 -212 146.5 -349.5t371.5 -137.5q243 0 383.5 136t140.5 370q0 123 -30.5 238.5t-83.5 209t-108.5 164.5
t-121.5 133l-10 10l182 88q25 13 13 37l-15 33q-14 22 -37 12l-217 -106l-4 4q-106 85 -211 145q-34 18 -67 -2l-99 -67q-16 -10 -15.5 -31.5t19.5 -30.5q97 -53 168 -106l13 -8l-185 -90q-10 -3 -13 -15.5t1 -19.5l16 -33q4 -10 15.5 -13.5t21.5 1.5l221 108
q148 -126 197 -248l-12 -8q-78 47 -197 47zM596 209q-106 0 -189 75.5t-83 196.5q0 120 76.5 196.5t195.5 76.5q126 0 199 -82.5t73 -190.5q0 -51 -16.5 -98t-48.5 -86.5t-85.5 -63.5t-121.5 -24zM596 737q-110 0 -182 -73t-72 -183q0 -116 77 -185t177 -69
q123 0 188.5 76.5t65.5 177.5q0 65 -28 122t-87.5 95.5t-138.5 38.5z" />
    <glyph glyph-name="ntilde" unicode="&#xf1;" 
d="M987 0h-113q-34 0 -56.5 23t-22.5 57v498q0 42 -8.5 78.5t-28 70.5t-59 54t-95.5 20t-98 -20t-65.5 -53.5t-34.5 -71t-11 -78.5v-498q0 -34 -24 -57t-58 -23h-112q-34 0 -57 23t-23 57v881q0 34 23 57.5t57 23.5h112q34 0 58 -23.5t24 -57.5v-25q104 131 289 131
q96 0 171.5 -37t121 -100t69 -139t23.5 -160v-551q0 -34 -24 -57t-58 -23zM604 817q100 0 153.5 -61t53.5 -178v-498q0 -26 18.5 -45t44.5 -19h113q26 0 45 19t19 45v551q0 81 -22.5 154t-66 133t-115.5 95.5t-163 35.5q-191 0 -291 -146l-16 -24v82q0 26 -19 44.5t-45 18.5
h-112q-26 0 -45 -18.5t-19 -44.5v-881q0 -26 19 -45t45 -19h112q26 0 45 19t19 45v498q0 44 12.5 84.5t37.5 76t71 57t106 21.5zM385 1161l-82 15q-17 3 -27.5 16.5t-9.5 32.5q9 89 56 137.5t122 48.5q54 0 148 -35q80 -26 106 -26q38 0 50 39q4 17 19 26t32 6l82 -14
q17 -3 27.5 -16.5t9.5 -30.5q-9 -90 -56 -139.5t-123 -49.5q-51 0 -145 35q-8 2 -27.5 8.5t-29.5 9.5t-25.5 6t-28.5 3q-35 0 -47 -39t-51 -33zM444 1393q-68 0 -110 -44.5t-49 -125.5q-1 -10 5 -18.5t17 -10.5l82 -16q23 -5 31 20q15 53 63 53q39 0 117 -28q89 -33 139 -33
q69 0 110.5 45t49.5 125q3 24 -22 31l-82 14q-9 1 -18.5 -5.5t-12.5 -15.5q-12 -51 -66 -51q-37 0 -112 27q-89 33 -142 33z" />
    <glyph glyph-name="ograve" unicode="&#xf2;" horiz-adv-x="1218" 
d="M610 -27q-152 0 -278.5 72t-199.5 198t-73 277t73 277t199.5 198t278.5 72t278.5 -72t199.5 -198t73 -277t-73 -277t-199.5 -198t-278.5 -72zM610 1049q-147 0 -269.5 -70t-192.5 -191.5t-70 -267.5t70 -267.5t192.5 -191t269.5 -69.5t269.5 69.5t193 191t70.5 267.5
t-70.5 267.5t-193 191.5t-269.5 70zM610 219q-124 0 -205 85t-81 216t81 216t205 85q126 0 207.5 -85t81.5 -216t-81.5 -216t-207.5 -85zM610 803q-117 0 -192.5 -80t-75.5 -203t75.5 -202.5t192.5 -79.5t194 79.5t77 202.5t-77 203t-194 80zM649 1194h-112q-41 0 -66 35
l-135 196q-17 23 -4.5 46.5t41.5 23.5h155q24 0 44.5 -12t29.5 -33l88 -190q12 -22 -2.5 -45t-38.5 -21zM528 1479h-155q-17 0 -24.5 -15.5t1.5 -27.5l135 -197q20 -27 52 -27h112q15 0 23.5 13t1.5 26l-88 191q-16 37 -58 37z" />
    <glyph glyph-name="oacute" unicode="&#xf3;" horiz-adv-x="1218" 
d="M610 -27q-152 0 -278.5 72t-199.5 198t-73 277t73 277t199.5 198t278.5 72t278.5 -72t199.5 -198t73 -277t-73 -277t-199.5 -198t-278.5 -72zM610 1049q-147 0 -269.5 -70t-192.5 -191.5t-70 -267.5t70 -267.5t192.5 -191t269.5 -69.5t269.5 69.5t193 191t70.5 267.5
t-70.5 267.5t-193 191.5t-269.5 70zM610 219q-124 0 -205 85t-81 216t81 216t205 85q126 0 207.5 -85t81.5 -216t-81.5 -216t-207.5 -85zM610 803q-117 0 -192.5 -80t-75.5 -203t75.5 -202.5t192.5 -79.5t194 79.5t77 202.5t-77 203t-194 80zM657 1194h-112q-27 0 -40 20
t-1 46l88 190q22 45 74 45h155q29 0 41 -23.5t-2 -46.5l-137 -196q-25 -35 -66 -35zM821 1479h-155q-42 0 -58 -37l-88 -191q-7 -17 1 -28t24 -11h112q32 0 52 27l135 197q9 12 1.5 27.5t-24.5 15.5z" />
    <glyph glyph-name="ocircumflex" unicode="&#xf4;" horiz-adv-x="1218" 
d="M610 -27q-152 0 -278.5 72t-199.5 198t-73 277t73 277t199.5 198t278.5 72t278.5 -72t199.5 -198t73 -277t-73 -277t-199.5 -198t-278.5 -72zM610 1049q-147 0 -269.5 -70t-192.5 -191.5t-70 -267.5t70 -267.5t192.5 -191t269.5 -69.5t269.5 69.5t193 191t70.5 267.5
t-70.5 267.5t-193 191.5t-269.5 70zM610 219q-124 0 -205 85t-81 216t81 216t205 85q126 0 207.5 -85t81.5 -216t-81.5 -216t-207.5 -85zM610 803q-117 0 -192.5 -80t-75.5 -203t75.5 -202.5t192.5 -79.5t194 79.5t77 202.5t-77 203t-194 80zM532 1495h160q50 0 78 -39
l150 -190q15 -22 6 -47q-11 -25 -41 -25h-109q-52 0 -80 39l-84 117l-86 -117q-28 -39 -80 -39h-106q-28 0 -40.5 25t5.5 47l150 190q28 39 77 39zM469 1446l-152 -191q-10 -15 -2 -30t25 -15h106q45 0 66 35l100 135l99 -135q24 -35 65 -35h109q17 0 24 17q6 15 -4 28
l-149 191q-28 31 -64 31h-160q-39 0 -63 -31z" />
    <glyph glyph-name="otilde" unicode="&#xf5;" horiz-adv-x="1218" 
d="M610 -27q-152 0 -278.5 72t-199.5 198t-73 277t73 277t199.5 198t278.5 72t278.5 -72t199.5 -198t73 -277t-73 -277t-199.5 -198t-278.5 -72zM610 1049q-147 0 -269.5 -70t-192.5 -191.5t-70 -267.5t70 -267.5t192.5 -191t269.5 -69.5t269.5 69.5t193 191t70.5 267.5
t-70.5 267.5t-193 191.5t-269.5 70zM610 219q-124 0 -205 85t-81 216t81 216t205 85q126 0 207.5 -85t81.5 -216t-81.5 -216t-207.5 -85zM610 803q-117 0 -192.5 -80t-75.5 -203t75.5 -202.5t192.5 -79.5t194 79.5t77 202.5t-77 203t-194 80zM401 1161l-82 15
q-17 3 -27 16.5t-9 32.5q9 89 56 137.5t122 48.5q53 0 147 -35q80 -26 107 -26q37 0 49 39q4 17 19 26t32 6l82 -14q17 -3 27.5 -16.5t9.5 -30.5q-9 -90 -55.5 -139.5t-122.5 -49.5q-52 0 -146 35q-9 3 -28 9t-29 9t-25 6t-28 3q-35 0 -47 -39t-52 -33zM461 1393
q-68 0 -110.5 -44.5t-49.5 -125.5q-1 -10 5.5 -18.5t17.5 -10.5l82 -16q22 -5 30 20q15 53 64 53q38 0 116 -28q89 -33 140 -33q68 0 109.5 45t49.5 125q3 24 -22 31l-82 14q-9 1 -18.5 -5.5t-12.5 -15.5q-12 -51 -65 -51q-38 0 -113 27q-89 33 -141 33z" />
    <glyph glyph-name="odieresis" unicode="&#xf6;" horiz-adv-x="1218" 
d="M610 -27q-152 0 -278.5 72t-199.5 198t-73 277t73 277t199.5 198t278.5 72t278.5 -72t199.5 -198t73 -277t-73 -277t-199.5 -198t-278.5 -72zM610 1049q-147 0 -269.5 -70t-192.5 -191.5t-70 -267.5t70 -267.5t192.5 -191t269.5 -69.5t269.5 69.5t193 191t70.5 267.5
t-70.5 267.5t-193 191.5t-269.5 70zM610 219q-124 0 -205 85t-81 216t81 216t205 85q126 0 207.5 -85t81.5 -216t-81.5 -216t-207.5 -85zM610 803q-117 0 -192.5 -80t-75.5 -203t75.5 -202.5t192.5 -79.5t194 79.5t77 202.5t-77 203t-194 80zM395 1180q-61 0 -104 43
t-43 104q0 62 43 105t104 43t104.5 -43.5t43.5 -104.5t-43 -104t-105 -43zM395 1456q-54 0 -91.5 -37.5t-37.5 -91.5t37.5 -91.5t91.5 -37.5t91.5 37.5t37.5 91.5t-37.5 91.5t-91.5 37.5zM823 1180q-61 0 -104 43t-43 104q0 62 43 105t104 43t104.5 -43.5t43.5 -104.5
t-43 -104t-105 -43zM823 1456q-54 0 -91.5 -37.5t-37.5 -91.5t37.5 -91.5t91.5 -37.5t91.5 37.5t37.5 91.5t-37.5 91.5t-91.5 37.5z" />
    <glyph glyph-name="divide" unicode="&#xf7;" horiz-adv-x="1069" 
d="M860 496h-649q-34 0 -57 22.5t-23 56.5v72q0 34 23 58t57 24h649q34 0 57 -24t23 -58v-72q0 -34 -23 -56.5t-57 -22.5zM860 711h-649q-26 0 -45 -19t-19 -45v-72q0 -26 19 -44.5t45 -18.5h649q26 0 45 18.5t19 44.5v72q0 26 -19 45t-45 19zM535 885q-59 0 -101.5 42.5
t-42.5 102.5q0 58 42.5 101t101.5 43q60 0 102.5 -42.5t42.5 -101.5q0 -60 -42.5 -102.5t-102.5 -42.5zM535 1155q-51 0 -88 -36.5t-37 -88.5t37 -89.5t88 -37.5q53 0 90 37.5t37 89.5t-37 88.5t-90 36.5zM535 51q-59 0 -101.5 42t-42.5 102t42.5 101.5t101.5 41.5
q60 0 102.5 -41.5t42.5 -101.5t-42.5 -102t-102.5 -42zM535 322q-51 0 -88 -37.5t-37 -89.5t37 -88.5t88 -36.5q53 0 90 36.5t37 88.5q0 53 -37 90t-90 37z" />
    <glyph glyph-name="oslash" unicode="&#xf8;" horiz-adv-x="1220" 
d="M608 -25q-209 0 -362 131l-70 -63q-34 -27 -63 2l-25 27q-12 13 -11.5 32t13.5 31l70 64q-103 142 -103 323q0 151 73 277t199.5 198t278.5 72q210 0 363 -131l69 63q13 12 32.5 11.5t31.5 -13.5l24 -26q12 -15 11 -33.5t-13 -30.5l-69 -63q102 -145 102 -324
q0 -151 -73 -277t-199.5 -198t-278.5 -72zM164 55l82 76l6 -6q150 -131 356 -131q147 0 269.5 69.5t193 191t70.5 267.5q0 178 -105 320l-4 6l82 74q17 17 2 39l-24 26q-8 8 -19.5 8.5t-19.5 -6.5l-82 -76l-6 7q-150 131 -357 131q-147 0 -269.5 -70t-192.5 -191.5
t-70 -267.5q0 -182 104 -319l4 -6l-82 -74q-8 -8 -8.5 -19.5t6.5 -19.5l25 -27q17 -17 39 -2zM608 221q-102 0 -180 62l-8 6l434 397l4 -12q37 -67 37 -152q0 -131 -81.5 -216t-205.5 -85zM848 655l-399 -364q66 -51 159 -51q117 0 194 79.5t77 202.5q0 73 -31 133zM797 756
l-435 -398l-6 11q-37 76 -37 153q0 130 82 215.5t207 85.5q103 0 180 -61zM608 805q-117 0 -193.5 -80t-76.5 -203q0 -73 31 -133l399 365q-70 51 -160 51z" />
    <glyph glyph-name="ugrave" unicode="&#xf9;" 
d="M504 -25q-96 0 -171.5 37t-121 99.5t-69 138.5t-23.5 160v553q0 32 24 55.5t58 23.5h112q33 0 56.5 -23t23.5 -56v-500q0 -42 8.5 -77.5t28.5 -69.5t60 -54t96 -20q55 0 97 20t65 53t34 70t11 78v500q0 32 23.5 55.5t57.5 23.5h113q33 0 56.5 -23t23.5 -56v-881
q0 -34 -23 -58t-57 -24h-113q-34 0 -57.5 24t-23.5 58v24q-101 -131 -289 -131zM313 1024h-112q-27 0 -45.5 -17.5t-18.5 -43.5v-553q0 -80 22.5 -153t66 -133t115.5 -96t163 -36q192 0 291 147l16 25v-82q0 -26 18.5 -45t44.5 -19h113q26 0 45 19t19 45v881
q0 26 -18.5 43.5t-45.5 17.5h-113q-26 0 -44.5 -17.5t-18.5 -43.5v-500q0 -96 -55.5 -168t-169.5 -72q-101 0 -155 62t-54 178v500q0 26 -18.5 43.5t-45.5 17.5zM676 1194h-113q-41 0 -65 35l-136 196q-17 23 -4.5 46.5t41.5 23.5h156q24 0 44.5 -12t29.5 -33l88 -190
q12 -22 -2.5 -45t-38.5 -21zM555 1479h-156q-17 0 -24 -15.5t2 -27.5l135 -197q20 -27 51 -27h113q15 0 23 13t1 26l-88 191q-16 37 -57 37z" />
    <glyph glyph-name="uacute" unicode="&#xfa;" 
d="M504 -25q-96 0 -171.5 37t-121 99.5t-69 138.5t-23.5 160v553q0 32 24 55.5t58 23.5h112q33 0 56.5 -23t23.5 -56v-500q0 -42 8.5 -77.5t28.5 -69.5t60 -54t96 -20q55 0 97 20t65 53t34 70t11 78v500q0 32 23.5 55.5t57.5 23.5h113q33 0 56.5 -23t23.5 -56v-881
q0 -34 -23 -58t-57 -24h-113q-34 0 -57.5 24t-23.5 58v24q-101 -131 -289 -131zM313 1024h-112q-27 0 -45.5 -17.5t-18.5 -43.5v-553q0 -80 22.5 -153t66 -133t115.5 -96t163 -36q192 0 291 147l16 25v-82q0 -26 18.5 -45t44.5 -19h113q26 0 45 19t19 45v881
q0 26 -18.5 43.5t-45.5 17.5h-113q-26 0 -44.5 -17.5t-18.5 -43.5v-500q0 -96 -55.5 -168t-169.5 -72q-101 0 -155 62t-54 178v500q0 26 -18.5 43.5t-45.5 17.5zM641 1194h-113q-27 0 -40 20t-1 46l88 190q22 45 74 45h156q29 0 41 -23.5t-2 -46.5l-137 -196
q-25 -35 -66 -35zM805 1479h-156q-41 0 -57 -37l-88 -191q-7 -17 0.5 -28t23.5 -11h113q31 0 51 27l135 197q9 12 2 27.5t-24 15.5z" />
    <glyph glyph-name="ucircumflex" unicode="&#xfb;" 
d="M504 -25q-96 0 -171.5 37t-121 99.5t-69 138.5t-23.5 160v553q0 32 24 55.5t58 23.5h112q33 0 56.5 -23t23.5 -56v-500q0 -42 8.5 -77.5t28.5 -69.5t60 -54t96 -20q55 0 97 20t65 53t34 70t11 78v500q0 32 23.5 55.5t57.5 23.5h113q33 0 56.5 -23t23.5 -56v-881
q0 -34 -23 -58t-57 -24h-113q-34 0 -57.5 24t-23.5 58v24q-101 -131 -289 -131zM313 1024h-112q-27 0 -45.5 -17.5t-18.5 -43.5v-553q0 -80 22.5 -153t66 -133t115.5 -96t163 -36q192 0 291 147l16 25v-82q0 -26 18.5 -45t44.5 -19h113q26 0 45 19t19 45v881
q0 26 -18.5 43.5t-45.5 17.5h-113q-26 0 -44.5 -17.5t-18.5 -43.5v-500q0 -96 -55.5 -168t-169.5 -72q-101 0 -155 62t-54 178v500q0 26 -18.5 43.5t-45.5 17.5zM516 1495h160q50 0 78 -39l149 -190q15 -22 6 -47q-11 -25 -41 -25h-108q-52 0 -80 39l-84 117l-86 -117
q-28 -39 -80 -39h-106q-28 0 -40.5 25t5.5 47l149 190q28 39 78 39zM453 1446l-152 -191q-10 -15 -2 -30t25 -15h106q45 0 66 35l100 135l98 -135q24 -35 66 -35h108q18 0 25 17q6 15 -4 28l-150 191q-28 31 -63 31h-160q-39 0 -63 -31z" />
    <glyph glyph-name="udieresis" unicode="&#xfc;" 
d="M504 -25q-96 0 -171.5 37t-121 99.5t-69 138.5t-23.5 160v553q0 32 24 55.5t58 23.5h112q33 0 56.5 -23t23.5 -56v-500q0 -42 8.5 -77.5t28.5 -69.5t60 -54t96 -20q55 0 97 20t65 53t34 70t11 78v500q0 32 23.5 55.5t57.5 23.5h113q33 0 56.5 -23t23.5 -56v-881
q0 -34 -23 -58t-57 -24h-113q-34 0 -57.5 24t-23.5 58v24q-101 -131 -289 -131zM313 1024h-112q-27 0 -45.5 -17.5t-18.5 -43.5v-553q0 -80 22.5 -153t66 -133t115.5 -96t163 -36q192 0 291 147l16 25v-82q0 -26 18.5 -45t44.5 -19h113q26 0 45 19t19 45v881
q0 26 -18.5 43.5t-45.5 17.5h-113q-26 0 -44.5 -17.5t-18.5 -43.5v-500q0 -96 -55.5 -168t-169.5 -72q-101 0 -155 62t-54 178v500q0 26 -18.5 43.5t-45.5 17.5zM381 1180q-62 0 -105 43t-43 104t43.5 104.5t104.5 43.5t104 -43t43 -105q0 -61 -43 -104t-104 -43zM381 1456
q-54 0 -91.5 -37.5t-37.5 -91.5t37.5 -91.5t91.5 -37.5t91.5 37.5t37.5 91.5t-37.5 91.5t-91.5 37.5zM809 1180q-61 0 -104 43t-43 104q0 62 43 105t104 43t104 -43t43 -105q0 -61 -43 -104t-104 -43zM809 1456q-54 0 -91.5 -37.5t-37.5 -91.5t37.5 -91.5t91.5 -37.5
t91.5 37.5t37.5 91.5t-37.5 91.5t-91.5 37.5z" />
    <glyph glyph-name="yacute" unicode="&#xfd;" horiz-adv-x="1134" 
d="M297 -391q-25 0 -66 6q-23 3 -38 20.5t-15 40.5v99q0 26 17 43.5t43 19.5q76 3 124 55t91 177q-11 24 -82.5 185.5t-169.5 382.5t-140 316q-12 30 6.5 59t51.5 29h133q31 0 56.5 -17t35.5 -46l231 -596l216 594q9 29 35 47t57 18h135q35 0 52 -27.5t5 -58.5
q-280 -720 -377 -950q-31 -75 -55 -125.5t-60.5 -106.5t-74.5 -89t-92.5 -54.5t-118.5 -21.5zM252 1024h-133q-25 0 -37.5 -20t-3.5 -43q79 -174 230 -516t163 -373q-44 -137 -96 -193t-137 -59q-18 -2 -29.5 -14.5t-11.5 -30.5v-99q0 -15 10.5 -28.5t25.5 -14.5
q37 -6 64 -6q70 0 125 23t100.5 74.5t81.5 118.5t78 169q99 244 377 951q9 23 -3.5 42t-37.5 19h-135q-27 0 -48 -14.5t-28 -38.5l-232 -639l-247 641q-9 23 -30 37t-46 14zM635 1194h-113q-27 0 -40 20t-1 46l88 190q22 45 74 45h156q29 0 41 -23.5t-2 -46.5l-138 -196
q-24 -35 -65 -35zM799 1479h-156q-41 0 -57 -37l-88 -191q-7 -17 0.5 -28t23.5 -11h113q31 0 51 27l135 197q9 12 2 27.5t-24 15.5z" />
    <glyph glyph-name="thorn" unicode="&#xfe;" horiz-adv-x="1282" 
d="M313 -389h-112q-34 0 -57 23t-23 57v1663q0 34 23 57t57 23h112q34 0 58 -23t24 -57v-416q113 131 318 131q96 0 179.5 -31.5t143 -85t102.5 -124t64 -148.5t21 -158t-21 -158t-64 -148.5t-102.5 -124t-143 -85t-179.5 -31.5q-204 0 -318 129v-413q0 -34 -24 -57t-58 -23
zM313 1417h-112q-26 0 -45 -18.5t-19 -44.5v-1663q0 -26 19 -45t45 -19h112q26 0 45 19t19 45v465l16 -21q111 -141 320 -141q93 0 173.5 30.5t137.5 82t98.5 119t61.5 143t20 153.5q0 98 -32.5 191t-92.5 169t-155.5 122.5t-210.5 46.5q-208 0 -320 -142l-16 -20v465
q0 26 -19 44.5t-45 18.5zM674 221q-127 0 -207 84.5t-80 216.5t80 216.5t207 84.5q126 0 205 -84.5t79 -216.5t-79 -216.5t-205 -84.5zM674 805q-118 0 -193 -79t-75 -204t75 -203.5t193 -78.5t192 78.5t74 203.5t-74 204t-192 79z" />
    <glyph glyph-name="ydieresis" unicode="&#xff;" horiz-adv-x="1134" 
d="M297 -391q-25 0 -66 6q-23 3 -38 20.5t-15 40.5v99q0 26 17 43.5t43 19.5q76 3 124 55t91 177q-11 24 -82.5 185.5t-169.5 382.5t-140 316q-12 30 6.5 59t51.5 29h133q31 0 56.5 -17t35.5 -46l231 -596l216 594q9 29 35 47t57 18h135q35 0 52 -27.5t5 -58.5
q-280 -720 -377 -950q-31 -75 -55 -125.5t-60.5 -106.5t-74.5 -89t-92.5 -54.5t-118.5 -21.5zM252 1024h-133q-25 0 -37.5 -20t-3.5 -43q79 -174 230 -516t163 -373q-44 -137 -96 -193t-137 -59q-18 -2 -29.5 -14.5t-11.5 -30.5v-99q0 -15 10.5 -28.5t25.5 -14.5
q37 -6 64 -6q70 0 125 23t100.5 74.5t81.5 118.5t78 169q99 244 377 951q9 23 -3.5 42t-37.5 19h-135q-27 0 -48 -14.5t-28 -38.5l-232 -639l-247 641q-9 23 -30 37t-46 14zM354 1180q-62 0 -104.5 43t-42.5 104q0 62 43 105t104 43q62 0 105 -43.5t43 -104.5t-43 -104
t-105 -43zM354 1456q-54 0 -91.5 -37.5t-37.5 -91.5t37.5 -91.5t91.5 -37.5t91.5 37.5t37.5 91.5t-37.5 91.5t-91.5 37.5zM782 1180q-62 0 -104.5 43t-42.5 104q0 62 43 105t104 43q62 0 105 -43.5t43 -104.5t-43 -104t-105 -43zM782 1456q-54 0 -91.5 -37.5t-37.5 -91.5
t37.5 -91.5t91.5 -37.5t91.5 37.5t37.5 91.5t-37.5 91.5t-91.5 37.5z" />
    <glyph glyph-name="Amacron" unicode="&#x100;" horiz-adv-x="1433" 
d="M1319 0h-150q-32 0 -57.5 18.5t-36.5 49.5l-71 215h-570l-74 -215q-11 -31 -36.5 -49.5t-57.5 -18.5h-149q-35 0 -52 26.5t-8 57.5l463 1284q11 29 36 47.5t56 18.5h211q31 0 58 -18.5t37 -47.5l460 -1284q12 -28 -7.5 -56.5t-51.5 -27.5zM344 74l76 227h596l78 -227
q8 -25 28.5 -40.5t46.5 -15.5h150q23 0 37 19t6 41l-463 1284q-7 24 -28 38.5t-48 14.5h-211q-25 0 -45.5 -14.5t-29.5 -38.5l-461 -1284q-7 -24 5 -42t36 -18h149q26 0 47.5 15.5t30.5 40.5zM719 1176l221 -650h-442zM719 1120l-197 -575h391zM954 1628h-479
q-26 0 -44.5 19t-18.5 45v90q0 26 18.5 44.5t44.5 18.5h479q26 0 45 -18.5t19 -44.5v-90q0 -26 -19 -45t-45 -19zM954 1827h-479q-20 0 -32.5 -13t-12.5 -32v-90q0 -19 12.5 -32t32.5 -13h479q19 0 32 13t13 32v90q0 19 -13 32t-32 13z" />
    <glyph glyph-name="amacron" unicode="&#x101;" horiz-adv-x="1282" 
d="M569 -27q-96 0 -179.5 31.5t-143 85t-102.5 124t-64 148.5t-21 158t21 158t64 148.5t102.5 124t143 85t179.5 31.5q203 0 320 -129v23q0 34 23 57.5t57 23.5h112q34 0 58 -23.5t24 -57.5v-881q0 -34 -24 -57t-58 -23h-112q-34 0 -57 23t-23 57v24q-116 -131 -320 -131z
M569 1049q-115 0 -210.5 -46.5t-155.5 -122.5t-92.5 -169t-32.5 -191q0 -78 20 -153.5t61.5 -143t98.5 -119t137.5 -82t173.5 -30.5q208 0 322 141l14 21v-74q0 -26 19 -45t45 -19h112q26 0 45 19t19 45v881q0 26 -19 44.5t-45 18.5h-112q-26 0 -45 -18.5t-19 -44.5v-74
l-14 20q-115 142 -322 142zM610 219q-127 0 -206.5 84t-79.5 217t79.5 217t206.5 84q126 0 205.5 -84.5t79.5 -216.5t-79.5 -216.5t-205.5 -84.5zM610 803q-120 0 -194 -79t-74 -204t74 -203.5t194 -78.5q118 0 192.5 78.5t74.5 203.5t-74.5 204t-192.5 79zM891 1219h-479
q-26 0 -45 18.5t-19 44.5v90q0 26 19 45t45 19h479q26 0 44.5 -19t18.5 -45v-90q0 -26 -18.5 -44.5t-44.5 -18.5zM891 1417h-479q-20 0 -32.5 -13t-12.5 -32v-90q0 -19 12.5 -32t32.5 -13h479q19 0 32 13t13 32v90q0 19 -13 32t-32 13z" />
    <glyph glyph-name="Abreve" unicode="&#x102;" horiz-adv-x="1433" 
d="M1319 0h-150q-32 0 -57.5 18.5t-36.5 49.5l-71 215h-570l-74 -215q-11 -31 -36.5 -49.5t-57.5 -18.5h-149q-35 0 -52 26.5t-8 57.5l463 1284q11 29 36 47.5t56 18.5h211q31 0 58 -18.5t37 -47.5l460 -1284q12 -28 -7.5 -56.5t-51.5 -27.5zM344 74l76 227h596l78 -227
q8 -25 28.5 -40.5t46.5 -15.5h150q23 0 37 19t6 41l-463 1284q-7 24 -28 38.5t-48 14.5h-211q-25 0 -45.5 -14.5t-29.5 -38.5l-461 -1284q-7 -24 5 -42t36 -18h149q26 0 47.5 15.5t30.5 40.5zM719 1176l221 -650h-442zM719 1120l-197 -575h391zM717 1577q-133 0 -219 65.5
t-105 182.5q-6 27 14 50t48 23h73q22 0 40 -14t22 -35q26 -92 127 -92q60 0 89.5 28t37.5 64q6 22 22.5 35.5t38.5 13.5h76q28 0 46.5 -22t14.5 -51q-19 -117 -105 -182.5t-220 -65.5zM528 1880h-73q-21 0 -34.5 -16t-10.5 -37q19 -110 99.5 -171t207.5 -61
q129 0 208.5 60.5t98.5 171.5q3 20 -10 36.5t-33 16.5h-76q-15 0 -26.5 -10t-16.5 -25q-12 -51 -50 -78.5t-95 -27.5q-56 0 -94 27.5t-50 78.5q-5 15 -17.5 25t-27.5 10z" />
    <glyph glyph-name="abreve" unicode="&#x103;" horiz-adv-x="1282" 
d="M569 -27q-96 0 -179.5 31.5t-143 85t-102.5 124t-64 148.5t-21 158t21 158t64 148.5t102.5 124t143 85t179.5 31.5q203 0 320 -129v23q0 34 23 57.5t57 23.5h112q34 0 58 -23.5t24 -57.5v-881q0 -34 -24 -57t-58 -23h-112q-34 0 -57 23t-23 57v24q-116 -131 -320 -131z
M569 1049q-115 0 -210.5 -46.5t-155.5 -122.5t-92.5 -169t-32.5 -191q0 -78 20 -153.5t61.5 -143t98.5 -119t137.5 -82t173.5 -30.5q208 0 322 141l14 21v-74q0 -26 19 -45t45 -19h112q26 0 45 19t19 45v881q0 26 -19 44.5t-45 18.5h-112q-26 0 -45 -18.5t-19 -44.5v-74
l-14 20q-115 142 -322 142zM610 219q-127 0 -206.5 84t-79.5 217t79.5 217t206.5 84q126 0 205.5 -84.5t79.5 -216.5t-79.5 -216.5t-205.5 -84.5zM610 803q-120 0 -194 -79t-74 -204t74 -203.5t194 -78.5q118 0 192.5 78.5t74.5 203.5t-74.5 204t-192.5 79zM651 1167
q-132 0 -218 65.5t-105 182.5q-6 28 13.5 51t47.5 23h74q22 0 39.5 -13.5t21.5 -35.5q26 -92 127 -92q60 0 89.5 28t37.5 64q6 22 23 35.5t39 13.5h75q28 0 47 -22.5t15 -51.5q-19 -117 -105.5 -182.5t-220.5 -65.5zM463 1470h-74q-21 0 -34.5 -16t-10.5 -37
q19 -110 99 -170.5t208 -60.5q129 0 208.5 60t98.5 171q3 20 -10 36.5t-33 16.5h-75q-33 0 -43 -34q-12 -51 -50.5 -79t-95.5 -28q-56 0 -93.5 28t-49.5 79q-4 15 -17 24.5t-28 9.5z" />
    <glyph glyph-name="Aogonek" unicode="&#x104;" horiz-adv-x="1433" 
d="M1298 -479q-112 0 -179.5 57t-67.5 150q0 88 49 157t117 115h-50q-31 0 -57 19.5t-35 48.5l-74 215h-569l-74 -215q-9 -29 -35 -48.5t-57 -19.5h-151q-34 0 -52 27.5t-6 58.5l461 1282q11 29 36.5 47.5t57.5 18.5h209q32 0 57.5 -18.5t36.5 -47.5l474 -1315
q8 -20 1 -40.5t-26 -32.5q-125 -88 -125 -189q0 -38 25 -58t71 -20h21q20 0 33.5 -13t13.5 -32v-80q0 -25 -14 -41.5t-37 -21.5q-32 -4 -54 -4zM342 74l78 227h594l78 -227q8 -25 28.5 -40.5t46.5 -15.5h109l-27 -16q-30 -19 -57.5 -42.5t-57 -57.5t-47.5 -79.5t-18 -94.5
q0 -85 63 -137t166 -52q22 0 50 4q38 7 38 45v80q0 11 -9 19t-19 8h-23q-54 0 -84 25t-30 71q0 111 133 203q13 9 18 24t0 29l-475 1315q-7 25 -28.5 40t-47.5 15h-209q-26 0 -47 -15t-30 -40l-461 -1282q-8 -23 5 -42.5t36 -19.5h151q25 0 47 16t29 40zM717 1176l221 -650
h-442zM717 1120l-197 -575h391z" />
    <glyph glyph-name="aogonek" unicode="&#x105;" horiz-adv-x="1282" 
d="M1057 -479q-112 0 -180 57t-68 150q0 157 164 272h-4q-34 0 -58 24t-24 58v22q-117 -129 -318 -129q-120 0 -219 48t-161 127t-96 175t-34 197t34 197t96 175t161 127t219 48q202 0 318 -131v25q0 33 24 56t58 23h110q34 0 58 -23t24 -56v-914q0 -43 -35 -67
q-129 -86 -129 -191q0 -78 97 -78h20q19 0 33 -12.5t14 -32.5v-80q0 -24 -14.5 -41t-36.5 -22q-32 -4 -53 -4zM889 135l16 21v-74q0 -26 19 -45t45 -19h65l-26 -16q-183 -116 -183 -274q0 -85 64 -137t168 -52q21 0 49 4q17 3 27 15.5t10 29.5v80q0 12 -8.5 19.5t-20.5 7.5
h-20q-55 0 -85 25t-30 71q0 114 137 205q27 20 27 53v914q0 26 -19 44.5t-45 18.5h-110q-26 0 -45 -18.5t-19 -44.5v-74l-16 20q-112 142 -320 142q-115 0 -210.5 -46.5t-155.5 -122.5t-92.5 -169t-32.5 -191q0 -78 20 -153.5t61.5 -143t98.5 -119t137.5 -82t173.5 -30.5
q209 0 320 141zM608 221q-126 0 -206 84.5t-80 216.5t80 216.5t206 84.5t206.5 -84.5t80.5 -216.5t-80.5 -216.5t-206.5 -84.5zM608 805q-118 0 -193 -79t-75 -204t75 -203.5t193 -78.5q119 0 194 79t75 203q0 125 -75.5 204t-193.5 79z" />
    <glyph glyph-name="Cacute" unicode="&#x106;" horiz-adv-x="1421" 
d="M807 -25q-206 0 -372.5 97t-260.5 267t-94 378q0 209 95 379.5t261.5 267t370.5 96.5q148 0 279 -51.5t231 -148.5q27 -26 24.5 -64t-36.5 -61l-107 -72q-25 -15 -52.5 -13t-47.5 21q-115 109 -291 109q-103 0 -187.5 -39.5t-137 -105.5t-81 -148t-28.5 -170
q0 -87 28.5 -169t81 -148t137 -106t187.5 -40q177 0 291 108q20 19 47.5 21.5t52.5 -12.5l107 -70q33 -22 37 -60.5t-25 -66.5q-100 -97 -231 -148t-279 -51zM807 1442q-152 0 -284 -54.5t-225.5 -150t-146.5 -230.5t-53 -290q0 -207 91 -372.5t253 -258t365 -92.5
q145 0 273.5 49.5t224.5 142.5q21 21 18.5 51t-29.5 48l-106 71q-19 12 -41 10t-37 -16q-123 -114 -303 -114q-107 0 -195 41.5t-143.5 110t-85 153.5t-29.5 176q0 92 29.5 177t85 153.5t143.5 109.5t195 41q181 0 303 -113q15 -15 37 -16.5t41 10.5l106 70q26 17 29.5 46.5
t-18.5 51.5q-97 94 -225.5 144.5t-272.5 50.5zM819 1604h-112q-27 0 -40 19.5t-1 45.5l88 191q22 45 73 45h156q29 0 41 -23.5t-2 -46.5l-137 -197q-24 -34 -66 -34zM983 1888h-156q-41 0 -57 -37l-88 -190q-7 -17 1 -28t24 -11h112q31 0 51 27l136 196q9 12 1.5 27.5
t-24.5 15.5z" />
    <glyph glyph-name="cacute" unicode="&#x107;" horiz-adv-x="1107" 
d="M610 -27q-152 0 -278.5 72t-199.5 198t-73 277t73 277t199.5 198t278.5 72q128 0 241 -53t191 -150q16 -23 13 -49q-5 -27 -31 -43l-129 -76q-20 -11 -43.5 -6t-38.5 23q-74 90 -203 90q-117 0 -193.5 -80t-76.5 -203t76.5 -202.5t193.5 -79.5q130 0 203 92
q15 17 38.5 21t43.5 -7l129 -74q24 -15 29.5 -43t-11.5 -51q-78 -97 -191 -150t-241 -53zM610 1049q-147 0 -269.5 -70t-192.5 -191.5t-70 -267.5t70 -267.5t192.5 -191t269.5 -69.5q124 0 233.5 51t184.5 143q12 15 8 37t-22 31l-129 74q-14 9 -30.5 5t-27.5 -16
q-79 -98 -217 -98q-125 0 -206.5 85.5t-81.5 215.5t81.5 215.5t206.5 85.5q138 0 217 -98q10 -12 27.5 -15t30.5 5l129 73q19 13 22 31q3 23 -8 37q-75 93 -184.5 144t-233.5 51zM616 1194h-112q-27 0 -40 20t-1 46l88 190q22 45 74 45h155q29 0 41 -23.5t-2 -46.5
l-137 -196q-24 -35 -66 -35zM780 1479h-155q-42 0 -58 -37l-88 -191q-7 -17 1 -28t24 -11h112q32 0 52 27l135 197q9 12 1.5 27.5t-24.5 15.5z" />
    <glyph glyph-name="Ccircumflex" unicode="&#x108;" horiz-adv-x="1421" 
d="M807 -25q-206 0 -372.5 97t-260.5 267t-94 378q0 209 95 379.5t261.5 267t370.5 96.5q148 0 279 -51.5t231 -148.5q27 -26 24.5 -64t-36.5 -61l-107 -72q-25 -15 -52.5 -13t-47.5 21q-115 109 -291 109q-103 0 -187.5 -39.5t-137 -105.5t-81 -148t-28.5 -170
q0 -87 28.5 -169t81 -148t137 -106t187.5 -40q177 0 291 108q20 19 47.5 21.5t52.5 -12.5l107 -70q33 -22 37 -60.5t-25 -66.5q-100 -97 -231 -148t-279 -51zM807 1442q-152 0 -284 -54.5t-225.5 -150t-146.5 -230.5t-53 -290q0 -207 91 -372.5t253 -258t365 -92.5
q145 0 273.5 49.5t224.5 142.5q21 21 18.5 51t-29.5 48l-106 71q-19 12 -41 10t-37 -16q-123 -114 -303 -114q-107 0 -195 41.5t-143.5 110t-85 153.5t-29.5 176q0 92 29.5 177t85 153.5t143.5 109.5t195 41q181 0 303 -113q15 -15 37 -16.5t41 10.5l106 70q26 17 29.5 46.5
t-18.5 51.5q-97 94 -225.5 144.5t-272.5 50.5zM694 1905h160q50 0 78 -39l149 -191q15 -22 6 -47q-11 -24 -40 -24h-109q-53 0 -80 38l-84 117l-86 -117q-27 -38 -80 -38h-106q-28 0 -40.5 24.5t5.5 46.5l149 191q28 39 78 39zM631 1855l-152 -190q-10 -15 -2 -30t25 -15
h106q45 0 66 35l100 135l98 -135q24 -35 66 -35h109q18 0 24 16q6 15 -4 29l-149 190q-28 31 -64 31h-160q-39 0 -63 -31z" />
    <glyph glyph-name="ccircumflex" unicode="&#x109;" horiz-adv-x="1107" 
d="M610 -27q-152 0 -278.5 72t-199.5 198t-73 277t73 277t199.5 198t278.5 72q128 0 241 -53t191 -150q16 -23 13 -49q-5 -27 -31 -43l-129 -76q-20 -11 -43.5 -6t-38.5 23q-74 90 -203 90q-117 0 -193.5 -80t-76.5 -203t76.5 -202.5t193.5 -79.5q130 0 203 92
q15 17 38.5 21t43.5 -7l129 -74q24 -15 29.5 -43t-11.5 -51q-78 -97 -191 -150t-241 -53zM610 1049q-147 0 -269.5 -70t-192.5 -191.5t-70 -267.5t70 -267.5t192.5 -191t269.5 -69.5q124 0 233.5 51t184.5 143q12 15 8 37t-22 31l-129 74q-14 9 -30.5 5t-27.5 -16
q-79 -98 -217 -98q-125 0 -206.5 85.5t-81.5 215.5t81.5 215.5t206.5 85.5q138 0 217 -98q10 -12 27.5 -15t30.5 5l129 73q19 13 22 31q3 23 -8 37q-75 93 -184.5 144t-233.5 51zM532 1495h160q50 0 78 -39l150 -190q15 -22 6 -47q-11 -25 -41 -25h-109q-52 0 -80 39
l-84 117l-86 -117q-28 -39 -80 -39h-106q-28 0 -40.5 25t5.5 47l150 190q28 39 77 39zM469 1446l-152 -191q-10 -15 -2 -30t25 -15h106q45 0 66 35l100 135l99 -135q24 -35 65 -35h109q17 0 24 17q6 15 -4 28l-149 191q-28 31 -64 31h-160q-39 0 -63 -31z" />
    <glyph glyph-name="Cdotaccent" unicode="&#x10a;" horiz-adv-x="1421" 
d="M807 -25q-206 0 -372.5 97t-260.5 267t-94 378q0 209 95 379.5t261.5 267t370.5 96.5q148 0 279 -51.5t231 -148.5q27 -26 24.5 -64t-36.5 -61l-107 -72q-25 -15 -52.5 -13t-47.5 21q-115 109 -291 109q-103 0 -187.5 -39.5t-137 -105.5t-81 -148t-28.5 -170
q0 -87 28.5 -169t81 -148t137 -106t187.5 -40q177 0 291 108q20 19 47.5 21.5t52.5 -12.5l107 -70q33 -22 37 -60.5t-25 -66.5q-100 -97 -231 -148t-279 -51zM807 1442q-152 0 -284 -54.5t-225.5 -150t-146.5 -230.5t-53 -290q0 -207 91 -372.5t253 -258t365 -92.5
q145 0 273.5 49.5t224.5 142.5q21 21 18.5 51t-29.5 48l-106 71q-19 12 -41 10t-37 -16q-123 -114 -303 -114q-107 0 -195 41.5t-143.5 110t-85 153.5t-29.5 176q0 92 29.5 177t85 153.5t143.5 109.5t195 41q181 0 303 -113q15 -15 37 -16.5t41 10.5l106 70q26 17 29.5 46.5
t-18.5 51.5q-97 94 -225.5 144.5t-272.5 50.5zM770 1589q-61 0 -104 43t-43 105q0 61 42.5 104t104.5 43t105 -43t43 -104t-43 -104.5t-105 -43.5zM770 1866q-54 0 -91.5 -37.5t-37.5 -91.5t37.5 -91.5t91.5 -37.5t91.5 37.5t37.5 91.5t-37.5 91.5t-91.5 37.5z" />
    <glyph glyph-name="cdotaccent" unicode="&#x10b;" horiz-adv-x="1107" 
d="M610 -27q-152 0 -278.5 72t-199.5 198t-73 277t73 277t199.5 198t278.5 72q128 0 241 -53t191 -150q16 -23 13 -49q-5 -27 -31 -43l-129 -76q-20 -11 -43.5 -6t-38.5 23q-74 90 -203 90q-117 0 -193.5 -80t-76.5 -203t76.5 -202.5t193.5 -79.5q130 0 203 92
q15 17 38.5 21t43.5 -7l129 -74q24 -15 29.5 -43t-11.5 -51q-78 -97 -191 -150t-241 -53zM610 1049q-147 0 -269.5 -70t-192.5 -191.5t-70 -267.5t70 -267.5t192.5 -191t269.5 -69.5q124 0 233.5 51t184.5 143q12 15 8 37t-22 31l-129 74q-14 9 -30.5 5t-27.5 -16
q-79 -98 -217 -98q-125 0 -206.5 85.5t-81.5 215.5t81.5 215.5t206.5 85.5q138 0 217 -98q10 -12 27.5 -15t30.5 5l129 73q19 13 22 31q3 23 -8 37q-75 93 -184.5 144t-233.5 51zM608 1180q-62 0 -104.5 43t-42.5 104q0 62 43 105t104 43q62 0 105 -43.5t43 -104.5t-43 -104
t-105 -43zM608 1456q-54 0 -91.5 -37.5t-37.5 -91.5t37.5 -91.5t91.5 -37.5t91.5 37.5t37.5 91.5t-37.5 91.5t-91.5 37.5z" />
    <glyph glyph-name="Ccaron" unicode="&#x10c;" horiz-adv-x="1421" 
d="M807 -25q-206 0 -372.5 97t-260.5 267t-94 378q0 209 95 379.5t261.5 267t370.5 96.5q148 0 279 -51.5t231 -148.5q27 -26 24.5 -64t-36.5 -61l-107 -72q-25 -15 -52.5 -13t-47.5 21q-115 109 -291 109q-103 0 -187.5 -39.5t-137 -105.5t-81 -148t-28.5 -170
q0 -87 28.5 -169t81 -148t137 -106t187.5 -40q177 0 291 108q20 19 47.5 21.5t52.5 -12.5l107 -70q33 -22 37 -60.5t-25 -66.5q-100 -97 -231 -148t-279 -51zM807 1442q-152 0 -284 -54.5t-225.5 -150t-146.5 -230.5t-53 -290q0 -207 91 -372.5t253 -258t365 -92.5
q145 0 273.5 49.5t224.5 142.5q21 21 18.5 51t-29.5 48l-106 71q-19 12 -41 10t-37 -16q-123 -114 -303 -114q-107 0 -195 41.5t-143.5 110t-85 153.5t-29.5 176q0 92 29.5 177t85 153.5t143.5 109.5t195 41q181 0 303 -113q15 -15 37 -16.5t41 10.5l106 70q26 17 29.5 46.5
t-18.5 51.5q-97 94 -225.5 144.5t-272.5 50.5zM852 1604h-160q-51 0 -78 38l-149 191q-18 22 -5.5 47t40.5 25h106q52 0 80 -39l86 -117l84 117q28 39 80 39h108q30 0 41 -25q9 -25 -6 -47l-149 -191q-27 -38 -78 -38zM477 1843l152 -190q24 -31 63 -31h160q35 0 63 31
l150 190q10 14 4 29q-6 16 -25 16h-108q-42 0 -66 -35l-98 -135l-100 135q-21 35 -66 35h-106q-17 0 -25 -15t2 -30z" />
    <glyph glyph-name="ccaron" unicode="&#x10d;" horiz-adv-x="1107" 
d="M610 -27q-152 0 -278.5 72t-199.5 198t-73 277t73 277t199.5 198t278.5 72q128 0 241 -53t191 -150q16 -23 13 -49q-5 -27 -31 -43l-129 -76q-20 -11 -43.5 -6t-38.5 23q-74 90 -203 90q-117 0 -193.5 -80t-76.5 -203t76.5 -202.5t193.5 -79.5q130 0 203 92
q15 17 38.5 21t43.5 -7l129 -74q24 -15 29.5 -43t-11.5 -51q-78 -97 -191 -150t-241 -53zM610 1049q-147 0 -269.5 -70t-192.5 -191.5t-70 -267.5t70 -267.5t192.5 -191t269.5 -69.5q124 0 233.5 51t184.5 143q12 15 8 37t-22 31l-129 74q-14 9 -30.5 5t-27.5 -16
q-79 -98 -217 -98q-125 0 -206.5 85.5t-81.5 215.5t81.5 215.5t206.5 85.5q138 0 217 -98q10 -12 27.5 -15t30.5 5l129 73q19 13 22 31q3 23 -8 37q-75 93 -184.5 144t-233.5 51zM670 1194h-160q-50 0 -78 39l-149 190q-18 22 -6 47t40 25h107q52 0 80 -39l86 -117l84 117
q28 39 80 39h108q30 0 41 -25q9 -25 -6 -47l-149 -190q-28 -39 -78 -39zM295 1434l151 -191q24 -31 64 -31h160q35 0 63 31l150 191q10 13 4 28q-7 17 -25 17h-108q-42 0 -66 -35l-98 -135l-101 135q-21 35 -65 35h-107q-17 0 -24.5 -15t2.5 -30z" />
    <glyph glyph-name="Dcaron" unicode="&#x10e;" horiz-adv-x="1423" 
d="M580 0h-367q-34 0 -58 24t-24 58v1272q0 32 24 56t58 24h367q347 0 554 -195t207 -522q0 -326 -207 -521.5t-554 -195.5zM580 1415h-367q-26 0 -44.5 -17.5t-18.5 -43.5v-1272q0 -26 18.5 -45t44.5 -19h367q340 0 542.5 190.5t202.5 508.5q0 319 -202.5 508.5
t-542.5 189.5zM580 256h-174v924h174q74 0 141.5 -15t131.5 -50t111 -87t75 -132t28 -179t-28 -178.5t-75 -131t-111 -86.5t-131.5 -50t-141.5 -15zM424 1161v-889h156q221 0 346 118t125 327t-125 326.5t-346 117.5h-156zM776 1604h-160q-50 0 -77 38l-150 191
q-18 22 -5.5 47t40.5 25h106q52 0 80 -39l86 -117l84 117q28 39 80 39h109q30 0 41 -25q9 -25 -6 -47l-150 -191q-27 -38 -78 -38zM401 1843l152 -190q24 -31 63 -31h160q36 0 64 31l149 190q10 14 4 29q-6 16 -24 16h-109q-41 0 -65 -35l-99 -135l-100 135q-21 35 -66 35
h-106q-17 0 -25 -15t2 -30z" />
    <glyph glyph-name="dcaron" unicode="&#x10f;" horiz-adv-x="1427" 
d="M567 -27q-96 0 -179.5 31.5t-143 85t-102.5 124t-64 148.5t-21 158t21 158t64 148.5t102.5 124t143 85t179.5 31.5q204 0 318 -129v414q0 34 24 58t58 24h112q34 0 58 -24t24 -58v-1272q0 -34 -24 -57t-58 -23h-112q-34 0 -58 23t-24 57v24q-113 -131 -318 -131z
M567 1049q-115 0 -210.5 -46.5t-155.5 -122.5t-92.5 -169t-32.5 -191q0 -78 20 -153.5t61.5 -143t98.5 -119t137.5 -82t173.5 -30.5q209 0 320 141l16 21v-74q0 -26 19 -45t45 -19h112q26 0 45 19t19 45v1272q0 26 -19 44.5t-45 18.5h-112q-26 0 -45 -18.5t-19 -44.5v-465
l-16 20q-112 142 -320 142zM606 219q-126 0 -205 84.5t-79 216.5t79 216.5t205 84.5q127 0 207 -84.5t80 -216.5t-80 -216.5t-207 -84.5zM606 803q-118 0 -192 -79t-74 -204t74 -203.5t192 -78.5t193 78.5t75 203.5t-75 204t-193 79zM1427 1114h-104q-26 0 -38.5 19t-4.5 41
l78 206q7 25 28 39.5t48 14.5h141q27 0 39.5 -21.5t-0.5 -46.5l-115 -211q-23 -41 -72 -41zM1575 1415h-141q-21 0 -37.5 -11t-22.5 -30l-76 -207q-4 -13 3.5 -23.5t21.5 -10.5h104q39 0 58 32l112 211q7 14 0 26.5t-22 12.5z" />
    <glyph glyph-name="Dcroat" unicode="&#x110;" horiz-adv-x="1501" 
d="M659 0h-368q-34 0 -57 23t-23 57v555h-135q-19 0 -32 13t-13 32v72q0 19 13 32t32 13h135v555q0 34 23 58t57 24h368q347 0 554.5 -195.5t207.5 -521.5q0 -327 -207.5 -522t-554.5 -195zM229 778h-153q-11 0 -19 -8t-8 -18v-72q0 -10 8.5 -18.5t18.5 -8.5h153v-573
q0 -26 18 -45t44 -19h368q340 0 542 190.5t202 510.5q0 318 -202 508t-542 190h-368q-26 0 -44 -18.5t-18 -44.5v-574zM659 254h-174v399h293q12 0 20.5 8t8.5 19v72q0 11 -8.5 18.5t-20.5 7.5h-293v400h174q74 0 142 -15t131.5 -50t110.5 -86.5t75.5 -131t28.5 -178.5
t-28.5 -179t-75.5 -132t-110.5 -87t-131.5 -50t-142 -15zM504 635v-363h155q220 0 344.5 118t124.5 327q0 207 -125 325.5t-344 118.5h-155v-364h274q20 0 32.5 -13t12.5 -32v-72q0 -19 -12.5 -32t-32.5 -13h-274z" />
    <glyph glyph-name="dcroat" unicode="&#x111;" horiz-adv-x="1282" 
d="M567 -27q-224 0 -366 143t-142 369q0 80 21 158t63.5 148.5t102 124t142.5 85t179 31.5q201 0 320 -131v213h-225q-19 0 -32.5 13t-13.5 32v37q0 19 13.5 32t32.5 13h225v111q0 34 23 58t57 24h112q34 0 58 -24t24 -58v-111h78q19 0 32 -13t13 -32v-37q0 -19 -13 -32
t-32 -13h-78v-1034q0 -34 -24 -57t-58 -23h-112q-34 0 -57 23t-23 57v12q-119 -119 -320 -119zM567 1014q-115 0 -210.5 -46.5t-155.5 -122.5t-92.5 -169t-32.5 -191q0 -73 18 -142.5t57.5 -133.5t96 -112t139 -76.5t180.5 -28.5q211 0 322 129l14 18v-59q0 -26 19 -45
t45 -19h112q26 0 45 19t19 45v1053h96q11 0 19 8t8 18v37q0 10 -8 18.5t-19 8.5h-96v129q0 26 -19 44.5t-45 18.5h-112q-26 0 -45 -18.5t-19 -44.5v-129h-241q-10 0 -18.5 -8.5t-8.5 -18.5v-37q0 -10 8 -18t19 -8h241v-283l-14 20q-116 144 -322 144zM608 184
q-127 0 -206.5 83.5t-79.5 217.5q0 132 79.5 215.5t206.5 83.5q126 0 205.5 -83.5t79.5 -215.5q0 -133 -79.5 -217t-205.5 -84zM608 766q-119 0 -193.5 -78.5t-74.5 -202.5q0 -126 74.5 -204t193.5 -78t192.5 78t73.5 204q0 125 -74 203t-192 78z" />
    <glyph glyph-name="Emacron" unicode="&#x112;" horiz-adv-x="1071" 
d="M901 0h-692q-34 0 -57 24t-23 58v1272q0 33 23.5 56.5t56.5 23.5h674q33 0 56.5 -23.5t23.5 -56.5v-111q0 -34 -23 -58t-57 -24h-461v-301h414q34 0 58 -23t24 -57v-110q0 -34 -24 -58t-58 -24h-414v-316h479q34 0 58 -23t24 -56v-111q0 -34 -24 -58t-58 -24zM883 1415
h-674q-26 0 -44 -17.5t-18 -43.5v-1272q0 -26 18 -45t44 -19h692q26 0 45 19t19 45v111q0 26 -19 44.5t-45 18.5h-498v350h433q26 0 44.5 19t18.5 45v110q0 26 -18.5 44t-44.5 18h-433v338h480q26 0 43.5 18.5t17.5 44.5v111q0 26 -17.5 43.5t-43.5 17.5zM795 1628h-480
q-26 0 -44.5 19t-18.5 45v90q0 26 18.5 44.5t44.5 18.5h480q26 0 44.5 -18.5t18.5 -44.5v-90q0 -26 -18.5 -45t-44.5 -19zM795 1827h-480q-20 0 -32.5 -13t-12.5 -32v-90q0 -19 12.5 -32t32.5 -13h480q19 0 32 13t13 32v90q0 19 -13 32t-32 13z" />
    <glyph glyph-name="emacron" unicode="&#x113;" horiz-adv-x="1175" 
d="M633 -27q-254 0 -415 153t-161 394q0 153 69.5 278.5t192.5 197t273 71.5q231 0 377 -152q154 -157 145 -423q0 -33 -23.5 -56.5t-56.5 -23.5h-682q28 -91 102.5 -142t178.5 -51q109 0 194 74q15 12 35.5 14t38.5 -8l115 -68q26 -15 30 -45.5t-18 -54.5
q-73 -75 -177 -116.5t-218 -41.5zM592 1049q-221 0 -368.5 -151.5t-147.5 -377.5q0 -233 155.5 -380.5t401.5 -147.5q110 0 210.5 39.5t172.5 111.5q15 15 12.5 39t-22.5 33l-113 68q-28 17 -53 -4q-86 -76 -207 -76q-116 0 -195.5 57t-105.5 160l-4 10h706q25 0 43.5 18
t18.5 44q9 259 -140 411q-67 70 -161.5 108t-202.5 38zM858 621l2 -11h-532l2 11q25 101 96.5 160t169.5 59q105 0 173.5 -57t88.5 -162zM350 629h490q-22 92 -85.5 142t-158.5 50q-91 0 -155.5 -50.5t-90.5 -141.5zM846 1219h-479q-26 0 -45 18.5t-19 44.5v90q0 26 19 45
t45 19h479q26 0 44.5 -19t18.5 -45v-90q0 -26 -18.5 -44.5t-44.5 -18.5zM846 1417h-479q-20 0 -32.5 -13t-12.5 -32v-90q0 -19 12.5 -32t32.5 -13h479q19 0 32 13t13 32v90q0 19 -13 32t-32 13z" />
    <glyph glyph-name="Ebreve" unicode="&#x114;" horiz-adv-x="1071" 
d="M901 0h-692q-34 0 -57 24t-23 58v1272q0 33 23.5 56.5t56.5 23.5h674q33 0 56.5 -23.5t23.5 -56.5v-111q0 -34 -23 -58t-57 -24h-461v-301h414q34 0 58 -23t24 -57v-110q0 -34 -24 -58t-58 -24h-414v-316h479q34 0 58 -23t24 -56v-111q0 -34 -24 -58t-58 -24zM883 1415
h-674q-26 0 -44 -17.5t-18 -43.5v-1272q0 -26 18 -45t44 -19h692q26 0 45 19t19 45v111q0 26 -19 44.5t-45 18.5h-498v350h433q26 0 44.5 19t18.5 45v110q0 26 -18.5 44t-44.5 18h-433v338h480q26 0 43.5 18.5t17.5 44.5v111q0 26 -17.5 43.5t-43.5 17.5zM555 1577
q-133 0 -219 65.5t-105 182.5q-6 27 14 50t48 23h74q22 0 39.5 -13.5t21.5 -35.5q26 -92 127 -92q60 0 89.5 28t37.5 64q6 22 22.5 35.5t38.5 13.5h76q28 0 47 -22t15 -51q-19 -117 -105.5 -182.5t-220.5 -65.5zM367 1880h-74q-21 0 -34.5 -16t-10.5 -37q19 -110 99.5 -171
t207.5 -61q129 0 208.5 60.5t98.5 171.5q3 20 -10 36.5t-33 16.5h-76q-15 0 -26.5 -10t-16.5 -25q-12 -51 -50 -78.5t-95 -27.5q-56 0 -93.5 27.5t-49.5 78.5q-5 15 -17.5 25t-27.5 10z" />
    <glyph glyph-name="ebreve" unicode="&#x115;" horiz-adv-x="1175" 
d="M633 -27q-254 0 -415 153t-161 394q0 153 69.5 278.5t192.5 197t273 71.5q231 0 377 -152q154 -157 145 -423q0 -33 -23.5 -56.5t-56.5 -23.5h-682q28 -91 102.5 -142t178.5 -51q109 0 194 74q15 12 35.5 14t38.5 -8l115 -68q26 -15 30 -45.5t-18 -54.5
q-73 -75 -177 -116.5t-218 -41.5zM592 1049q-221 0 -368.5 -151.5t-147.5 -377.5q0 -233 155.5 -380.5t401.5 -147.5q110 0 210.5 39.5t172.5 111.5q15 15 12.5 39t-22.5 33l-113 68q-28 17 -53 -4q-86 -76 -207 -76q-116 0 -195.5 57t-105.5 160l-4 10h706q25 0 43.5 18
t18.5 44q9 259 -140 411q-67 70 -161.5 108t-202.5 38zM858 621l2 -11h-532l2 11q25 101 96.5 160t169.5 59q105 0 173.5 -57t88.5 -162zM350 629h490q-22 92 -85.5 142t-158.5 50q-91 0 -155.5 -50.5t-90.5 -141.5zM608 1167q-132 0 -218 65.5t-105 182.5q-6 28 13.5 51
t47.5 23h74q22 0 39.5 -13.5t21.5 -35.5q26 -92 127 -92q60 0 89.5 28t37.5 64q6 22 23 35.5t39 13.5h75q28 0 47 -22.5t15 -51.5q-19 -117 -105.5 -182.5t-220.5 -65.5zM420 1470h-74q-21 0 -34.5 -16t-10.5 -37q19 -110 99 -170.5t208 -60.5q129 0 208.5 60t98.5 171
q3 20 -10 36.5t-33 16.5h-75q-33 0 -43 -34q-12 -51 -50.5 -79t-95.5 -28q-56 0 -93.5 28t-49.5 79q-4 15 -17 24.5t-28 9.5z" />
    <glyph glyph-name="Edotaccent" unicode="&#x116;" horiz-adv-x="1071" 
d="M901 0h-692q-34 0 -57 24t-23 58v1272q0 33 23.5 56.5t56.5 23.5h674q33 0 56.5 -23.5t23.5 -56.5v-111q0 -34 -23 -58t-57 -24h-461v-301h414q34 0 58 -23t24 -57v-110q0 -34 -24 -58t-58 -24h-414v-316h479q34 0 58 -23t24 -56v-111q0 -34 -24 -58t-58 -24zM883 1415
h-674q-26 0 -44 -17.5t-18 -43.5v-1272q0 -26 18 -45t44 -19h692q26 0 45 19t19 45v111q0 26 -19 44.5t-45 18.5h-498v350h433q26 0 44.5 19t18.5 45v110q0 26 -18.5 44t-44.5 18h-433v338h480q26 0 43.5 18.5t17.5 44.5v111q0 26 -17.5 43.5t-43.5 17.5zM555 1589
q-61 0 -104 43t-43 105q0 61 43 104t104 43t104 -43t43 -104q0 -62 -43 -105t-104 -43zM555 1866q-54 0 -91.5 -37.5t-37.5 -91.5t37.5 -91.5t91.5 -37.5t91.5 37.5t37.5 91.5t-37.5 91.5t-91.5 37.5z" />
    <glyph glyph-name="edotaccent" unicode="&#x117;" horiz-adv-x="1175" 
d="M633 -27q-254 0 -415 153t-161 394q0 153 69.5 278.5t192.5 197t273 71.5q231 0 377 -152q154 -157 145 -423q0 -33 -23.5 -56.5t-56.5 -23.5h-682q28 -91 102.5 -142t178.5 -51q109 0 194 74q15 12 35.5 14t38.5 -8l115 -68q26 -15 30 -45.5t-18 -54.5
q-73 -75 -177 -116.5t-218 -41.5zM592 1049q-221 0 -368.5 -151.5t-147.5 -377.5q0 -233 155.5 -380.5t401.5 -147.5q110 0 210.5 39.5t172.5 111.5q15 15 12.5 39t-22.5 33l-113 68q-28 17 -53 -4q-86 -76 -207 -76q-116 0 -195.5 57t-105.5 160l-4 10h706q25 0 43.5 18
t18.5 44q9 259 -140 411q-67 70 -161.5 108t-202.5 38zM858 621l2 -11h-532l2 11q25 101 96.5 160t169.5 59q105 0 173.5 -57t88.5 -162zM350 629h490q-22 92 -85.5 142t-158.5 50q-91 0 -155.5 -50.5t-90.5 -141.5zM606 1180q-62 0 -104.5 43t-42.5 104q0 62 43 105t104 43
q62 0 105 -43.5t43 -104.5t-43 -104t-105 -43zM606 1456q-54 0 -91.5 -37.5t-37.5 -91.5t37.5 -91.5t91.5 -37.5t91.5 37.5t37.5 91.5t-37.5 91.5t-91.5 37.5z" />
    <glyph glyph-name="Eogonek" unicode="&#x118;" horiz-adv-x="1071" 
d="M877 -479q-110 0 -179 57.5t-69 149.5q0 88 49 157t117 115h-586q-34 0 -57 24t-23 58v1272q0 34 23 57t57 23h674q33 0 56.5 -23.5t23.5 -56.5v-111q0 -34 -24 -58t-56 -24h-463v-301h416q34 0 58 -23t24 -57v-110q0 -34 -24 -58t-58 -24h-416v-316h481q34 0 57 -22.5
t23 -56.5v-154q0 -34 -27 -51q-137 -94 -137 -197q0 -38 25 -58t71 -20h21q20 0 33.5 -12.5t13.5 -32.5v-80q0 -25 -14 -41.5t-37 -21.5q-32 -4 -53 -4zM883 1417h-674q-26 0 -45 -18.5t-19 -44.5v-1272q0 -26 19 -45t45 -19h647l-27 -16q-71 -44 -126.5 -113t-55.5 -161
q0 -85 63.5 -137t166.5 -52q19 0 51 4q15 3 26 15.5t11 29.5v80q0 11 -8.5 19t-20.5 8h-23q-54 0 -84 25t-30 71q0 113 145 211q21 14 21 37v154q0 26 -19 44.5t-45 18.5h-498v350h433q26 0 44.5 19t18.5 45v110q0 26 -18.5 45t-44.5 19h-433v336h480q26 0 43.5 18.5
t17.5 44.5v111q0 26 -17.5 44.5t-43.5 18.5z" />
    <glyph glyph-name="eogonek" unicode="&#x119;" horiz-adv-x="1175" 
d="M682 -479q-110 0 -179 57.5t-69 149.5q0 141 135 249q-229 20 -369.5 170t-140.5 375q0 233 153 390t380 157q113 0 211 -39t168 -112q154 -160 145 -424q-2 -34 -25 -57t-57 -23h-680q28 -91 101.5 -142t177.5 -51q117 0 196 74q15 12 36 13.5t38 -7.5l115 -70
q28 -18 30 -47.5t-18 -50.5q-107 -107 -266 -143q-141 -93 -141 -199q0 -38 25 -58t71 -20h20q20 0 33.5 -12.5t13.5 -32.5v-80q0 -25 -14 -41.5t-37 -21.5q-32 -4 -53 -4zM592 1051q-144 0 -262 -69t-185 -190.5t-67 -269.5q0 -224 142 -370t374 -158h24l-18 -17
q-147 -106 -147 -249q0 -85 63 -137t166 -52q21 0 49 4q17 3 28 15.5t11 29.5v80q0 10 -9 18.5t-20 8.5h-22q-54 0 -84.5 25t-30.5 71q0 114 152 215h2q158 36 258 139q17 17 14.5 38.5t-22.5 33.5l-115 68q-27 17 -51 -4q-89 -78 -209 -78q-114 0 -193.5 58t-105.5 159
l-4 12h704q26 0 45 18t19 44q9 253 -140 411q-143 146 -366 146zM860 623l2 -11h-532l2 11q25 101 96 159t170 58q105 0 173.5 -56.5t88.5 -160.5zM352 631h488q-20 91 -83.5 141.5t-158.5 50.5q-91 0 -155.5 -50.5t-90.5 -141.5z" />
    <glyph glyph-name="Ecaron" unicode="&#x11a;" horiz-adv-x="1071" 
d="M901 0h-692q-34 0 -57 24t-23 58v1272q0 33 23.5 56.5t56.5 23.5h674q33 0 56.5 -23.5t23.5 -56.5v-111q0 -34 -23 -58t-57 -24h-461v-301h414q34 0 58 -23t24 -57v-110q0 -34 -24 -58t-58 -24h-414v-316h479q34 0 58 -23t24 -56v-111q0 -34 -24 -58t-58 -24zM883 1415
h-674q-26 0 -44 -17.5t-18 -43.5v-1272q0 -26 18 -45t44 -19h692q26 0 45 19t19 45v111q0 26 -19 44.5t-45 18.5h-498v350h433q26 0 44.5 19t18.5 45v110q0 26 -18.5 44t-44.5 18h-433v338h480q26 0 43.5 18.5t17.5 44.5v111q0 26 -17.5 43.5t-43.5 17.5zM635 1604h-160
q-51 0 -78 38l-149 191q-18 22 -5.5 47t40.5 25h106q52 0 80 -39l86 -117l84 117q28 39 80 39h108q30 0 41 -25q9 -25 -6 -47l-149 -191q-27 -38 -78 -38zM260 1843l152 -190q24 -31 63 -31h160q35 0 63 31l150 190q10 14 4 29q-6 16 -25 16h-108q-42 0 -66 -35l-98 -135
l-100 135q-21 35 -66 35h-106q-17 0 -25 -15t2 -30z" />
    <glyph glyph-name="ecaron" unicode="&#x11b;" horiz-adv-x="1175" 
d="M633 -27q-254 0 -415 153t-161 394q0 153 69.5 278.5t192.5 197t273 71.5q231 0 377 -152q154 -157 145 -423q0 -33 -23.5 -56.5t-56.5 -23.5h-682q28 -91 102.5 -142t178.5 -51q109 0 194 74q15 12 35.5 14t38.5 -8l115 -68q26 -15 30 -45.5t-18 -54.5
q-73 -75 -177 -116.5t-218 -41.5zM592 1049q-221 0 -368.5 -151.5t-147.5 -377.5q0 -233 155.5 -380.5t401.5 -147.5q110 0 210.5 39.5t172.5 111.5q15 15 12.5 39t-22.5 33l-113 68q-28 17 -53 -4q-86 -76 -207 -76q-116 0 -195.5 57t-105.5 160l-4 10h706q25 0 43.5 18
t18.5 44q9 259 -140 411q-67 70 -161.5 108t-202.5 38zM858 621l2 -11h-532l2 11q25 101 96.5 160t169.5 59q105 0 173.5 -57t88.5 -162zM350 629h490q-22 92 -85.5 142t-158.5 50q-91 0 -155.5 -50.5t-90.5 -141.5zM688 1194h-160q-49 0 -77 39l-150 190q-18 22 -5.5 47
t40.5 25h106q52 0 80 -39l86 -117l84 117q28 39 80 39h109q30 0 41 -25q9 -24 -7 -47l-149 -190q-28 -39 -78 -39zM313 1434l152 -191q24 -31 63 -31h160q36 0 64 31l149 191q10 13 4 28q-7 17 -24 17h-109q-41 0 -65 -35l-99 -135l-100 135q-21 35 -66 35h-106
q-17 0 -25 -15t2 -30z" />
    <glyph glyph-name="Gcircumflex" unicode="&#x11c;" horiz-adv-x="1581" 
d="M809 -25q-204 0 -370.5 97t-261.5 267t-95 378q0 209 95 379.5t261.5 267t370.5 96.5q148 0 279 -51.5t231 -148.5q27 -24 24 -66q-3 -39 -36 -59l-107 -72q-23 -15 -50.5 -13t-49.5 21q-115 109 -291 109q-103 0 -187.5 -39.5t-137 -105.5t-81 -148t-28.5 -170
q0 -87 28.5 -169t81 -148t137 -106t187.5 -40q160 0 267.5 80.5t144.5 228.5h-322q-32 0 -56 24t-24 58v94q0 32 24 56t56 24h490q33 0 56 -23.5t23 -56.5v-676q0 -26 -17.5 -44.5t-43.5 -18.5h-49q-23 0 -41.5 15t-22.5 38l-22 135q-160 -213 -463 -213zM809 1442
q-152 0 -284 -54.5t-225.5 -150t-146.5 -230.5t-53 -290q0 -207 91 -372.5t253 -258t365 -92.5q309 0 461 223l12 19l31 -181q3 -15 15.5 -26t29.5 -11h49q19 0 32 13t13 32v676q0 26 -18.5 44t-44.5 18h-490q-26 0 -43.5 -18t-17.5 -44v-94q0 -26 17.5 -44.5t43.5 -18.5
h344l-2 -13q-35 -158 -148.5 -245.5t-283.5 -87.5q-107 0 -195 41.5t-143.5 110t-85 153.5t-29.5 176q0 92 29.5 177t85 153.5t143.5 109.5t195 41q181 0 303 -113q37 -32 78 -6l106 70q26 16 29 47q3 27 -18 51q-97 94 -225.5 144.5t-272.5 50.5zM711 1905h159q50 0 78 -39
l150 -191q15 -22 6 -47q-11 -24 -41 -24h-109q-53 0 -80 38l-83 117l-86 -117q-27 -38 -80 -38h-107q-28 0 -40.5 24.5t5.5 46.5l150 191q28 39 78 39zM647 1855l-151 -190q-10 -15 -2.5 -30t24.5 -15h107q44 0 65 35l101 135l98 -135q24 -35 65 -35h109q18 0 24 16
q6 15 -4 29l-149 190q-28 31 -64 31h-159q-40 0 -64 -31z" />
    <glyph glyph-name="gcircumflex" unicode="&#x11d;" horiz-adv-x="1275" 
d="M590 -410q-129 0 -249 42t-198 114q-22 22 -18 53.5t31 46.5l116 70q38 20 74 -8q85 -72 236 -72q145 0 222 77.5t77 223.5v49q-114 -141 -316 -141q-97 0 -180 29t-142 78.5t-101 115t-62.5 139t-20.5 150.5t20.5 150.5t62.5 138.5t101 114.5t142 78t180 28.5
q202 0 316 -141v35q0 34 23 57.5t57 23.5h112q34 0 58 -23.5t24 -57.5v-842q0 -241 -154 -385t-411 -144zM281 -100l-117 -70q-18 -9 -20.5 -33.5t12.5 -36.5q75 -70 191.5 -110.5t242.5 -40.5q249 0 398 139t149 371v842q0 26 -19 44.5t-45 18.5h-112q-26 0 -45 -18.5
t-19 -44.5v-91l-16 25q-109 154 -316 154q-115 0 -210 -42.5t-154 -112.5t-91 -157t-32 -180q0 -94 32 -181.5t91 -157.5t154 -112.5t210 -42.5q206 0 316 156l16 23v-105q0 -154 -81.5 -236.5t-233.5 -82.5q-157 0 -248 78q-24 18 -53 4zM604 274q-123 0 -202.5 80
t-79.5 203t79.5 203t202.5 80q124 0 203.5 -79t79.5 -204t-79.5 -204t-203.5 -79zM604 821q-117 0 -190.5 -73.5t-73.5 -190.5t73.5 -190.5t190.5 -73.5t190.5 73.5t73.5 190.5t-73.5 190.5t-190.5 73.5zM551 1495h160q49 0 77 -39l150 -190q15 -22 6 -47q-11 -25 -41 -25
h-108q-52 0 -80 39l-84 117l-86 -117q-28 -39 -80 -39h-107q-28 0 -40 25t6 47l149 190q28 39 78 39zM487 1446l-151 -191q-10 -15 -2.5 -30t24.5 -15h107q44 0 65 35l101 135l98 -135q24 -35 66 -35h108q18 0 25 17q6 15 -4 28l-150 191q-28 31 -63 31h-160q-40 0 -64 -31z
" />
    <glyph glyph-name="Gbreve" unicode="&#x11e;" horiz-adv-x="1581" 
d="M809 -25q-204 0 -370.5 97t-261.5 267t-95 378q0 209 95 379.5t261.5 267t370.5 96.5q148 0 279 -51.5t231 -148.5q27 -24 24 -66q-3 -39 -36 -59l-107 -72q-23 -15 -50.5 -13t-49.5 21q-115 109 -291 109q-103 0 -187.5 -39.5t-137 -105.5t-81 -148t-28.5 -170
q0 -87 28.5 -169t81 -148t137 -106t187.5 -40q160 0 267.5 80.5t144.5 228.5h-322q-32 0 -56 24t-24 58v94q0 32 24 56t56 24h490q33 0 56 -23.5t23 -56.5v-676q0 -26 -17.5 -44.5t-43.5 -18.5h-49q-23 0 -41.5 15t-22.5 38l-22 135q-160 -213 -463 -213zM809 1442
q-152 0 -284 -54.5t-225.5 -150t-146.5 -230.5t-53 -290q0 -207 91 -372.5t253 -258t365 -92.5q309 0 461 223l12 19l31 -181q3 -15 15.5 -26t29.5 -11h49q19 0 32 13t13 32v676q0 26 -18.5 44t-44.5 18h-490q-26 0 -43.5 -18t-17.5 -44v-94q0 -26 17.5 -44.5t43.5 -18.5
h344l-2 -13q-35 -158 -148.5 -245.5t-283.5 -87.5q-107 0 -195 41.5t-143.5 110t-85 153.5t-29.5 176q0 92 29.5 177t85 153.5t143.5 109.5t195 41q181 0 303 -113q37 -32 78 -6l106 70q26 16 29 47q3 27 -18 51q-97 94 -225.5 144.5t-272.5 50.5zM786 1577
q-132 0 -218 65.5t-105 182.5q-6 27 13.5 50t47.5 23h74q22 0 39.5 -13.5t21.5 -35.5q26 -92 127 -92q60 0 89.5 28t37.5 64q6 22 23 35.5t39 13.5h76q28 0 46.5 -22t14.5 -51q-19 -117 -105.5 -182.5t-220.5 -65.5zM598 1880h-74q-21 0 -34.5 -16t-10.5 -37
q19 -110 99.5 -171t207.5 -61q129 0 209 60.5t99 171.5q3 20 -10 36.5t-33 16.5h-76q-15 0 -26.5 -10t-16.5 -25q-12 -51 -50.5 -78.5t-95.5 -27.5q-56 0 -93.5 27.5t-49.5 78.5q-5 15 -17.5 25t-27.5 10z" />
    <glyph glyph-name="gbreve" unicode="&#x11f;" horiz-adv-x="1275" 
d="M590 -410q-129 0 -249 42t-198 114q-22 22 -18 53.5t31 46.5l116 70q38 20 74 -8q85 -72 236 -72q145 0 222 77.5t77 223.5v49q-114 -141 -316 -141q-97 0 -180 29t-142 78.5t-101 115t-62.5 139t-20.5 150.5t20.5 150.5t62.5 138.5t101 114.5t142 78t180 28.5
q202 0 316 -141v35q0 34 23 57.5t57 23.5h112q34 0 58 -23.5t24 -57.5v-842q0 -241 -154 -385t-411 -144zM281 -100l-117 -70q-18 -9 -20.5 -33.5t12.5 -36.5q75 -70 191.5 -110.5t242.5 -40.5q249 0 398 139t149 371v842q0 26 -19 44.5t-45 18.5h-112q-26 0 -45 -18.5
t-19 -44.5v-91l-16 25q-109 154 -316 154q-115 0 -210 -42.5t-154 -112.5t-91 -157t-32 -180q0 -94 32 -181.5t91 -157.5t154 -112.5t210 -42.5q206 0 316 156l16 23v-105q0 -154 -81.5 -236.5t-233.5 -82.5q-157 0 -248 78q-24 18 -53 4zM604 274q-123 0 -202.5 80
t-79.5 203t79.5 203t202.5 80q124 0 203.5 -79t79.5 -204t-79.5 -204t-203.5 -79zM604 821q-117 0 -190.5 -73.5t-73.5 -190.5t73.5 -190.5t190.5 -73.5t190.5 73.5t73.5 190.5t-73.5 190.5t-190.5 73.5zM627 1167q-133 0 -219 65.5t-105 182.5q-6 27 14 50.5t48 23.5h73
q22 0 40 -14t22 -35q26 -92 127 -92q60 0 89.5 28t37.5 64q6 22 22.5 35.5t38.5 13.5h76q28 0 46.5 -22.5t14.5 -51.5q-19 -117 -105 -182.5t-220 -65.5zM438 1470h-73q-21 0 -35 -16t-11 -37q19 -110 99.5 -170.5t208.5 -60.5q129 0 208.5 60t98.5 171q3 20 -10 36.5
t-33 16.5h-76q-33 0 -43 -34q-12 -51 -50 -79t-95 -28q-56 0 -94 28t-50 79q-4 15 -17 24.5t-28 9.5z" />
    <glyph glyph-name="Gdotaccent" unicode="&#x120;" horiz-adv-x="1581" 
d="M809 -25q-204 0 -370.5 97t-261.5 267t-95 378q0 209 95 379.5t261.5 267t370.5 96.5q148 0 279 -51.5t231 -148.5q27 -24 24 -66q-3 -39 -36 -59l-107 -72q-23 -15 -50.5 -13t-49.5 21q-115 109 -291 109q-103 0 -187.5 -39.5t-137 -105.5t-81 -148t-28.5 -170
q0 -87 28.5 -169t81 -148t137 -106t187.5 -40q160 0 267.5 80.5t144.5 228.5h-322q-32 0 -56 24t-24 58v94q0 32 24 56t56 24h490q33 0 56 -23.5t23 -56.5v-676q0 -26 -17.5 -44.5t-43.5 -18.5h-49q-23 0 -41.5 15t-22.5 38l-22 135q-160 -213 -463 -213zM809 1442
q-152 0 -284 -54.5t-225.5 -150t-146.5 -230.5t-53 -290q0 -207 91 -372.5t253 -258t365 -92.5q309 0 461 223l12 19l31 -181q3 -15 15.5 -26t29.5 -11h49q19 0 32 13t13 32v676q0 26 -18.5 44t-44.5 18h-490q-26 0 -43.5 -18t-17.5 -44v-94q0 -26 17.5 -44.5t43.5 -18.5
h344l-2 -13q-35 -158 -148.5 -245.5t-283.5 -87.5q-107 0 -195 41.5t-143.5 110t-85 153.5t-29.5 176q0 92 29.5 177t85 153.5t143.5 109.5t195 41q181 0 303 -113q37 -32 78 -6l106 70q26 16 29 47q3 27 -18 51q-97 94 -225.5 144.5t-272.5 50.5zM786 1589q-61 0 -104 43
t-43 105q0 61 42.5 104t104.5 43t105 -43t43 -104t-43 -104.5t-105 -43.5zM786 1866q-54 0 -91.5 -37.5t-37.5 -91.5t37.5 -91.5t91.5 -37.5t91.5 37.5t37.5 91.5t-37.5 91.5t-91.5 37.5z" />
    <glyph glyph-name="gdotaccent" unicode="&#x121;" horiz-adv-x="1275" 
d="M590 -410q-129 0 -249 42t-198 114q-22 22 -18 53.5t31 46.5l116 70q38 20 74 -8q85 -72 236 -72q145 0 222 77.5t77 223.5v49q-114 -141 -316 -141q-97 0 -180 29t-142 78.5t-101 115t-62.5 139t-20.5 150.5t20.5 150.5t62.5 138.5t101 114.5t142 78t180 28.5
q202 0 316 -141v35q0 34 23 57.5t57 23.5h112q34 0 58 -23.5t24 -57.5v-842q0 -241 -154 -385t-411 -144zM281 -100l-117 -70q-18 -9 -20.5 -33.5t12.5 -36.5q75 -70 191.5 -110.5t242.5 -40.5q249 0 398 139t149 371v842q0 26 -19 44.5t-45 18.5h-112q-26 0 -45 -18.5
t-19 -44.5v-91l-16 25q-109 154 -316 154q-115 0 -210 -42.5t-154 -112.5t-91 -157t-32 -180q0 -94 32 -181.5t91 -157.5t154 -112.5t210 -42.5q206 0 316 156l16 23v-105q0 -154 -81.5 -236.5t-233.5 -82.5q-157 0 -248 78q-24 18 -53 4zM604 274q-123 0 -202.5 80
t-79.5 203t79.5 203t202.5 80q124 0 203.5 -79t79.5 -204t-79.5 -204t-203.5 -79zM604 821q-117 0 -190.5 -73.5t-73.5 -190.5t73.5 -190.5t190.5 -73.5t190.5 73.5t73.5 190.5t-73.5 190.5t-190.5 73.5zM627 1180q-62 0 -105 43t-43 104t43.5 104.5t104.5 43.5t104 -43
t43 -105q0 -61 -43 -104t-104 -43zM627 1456q-54 0 -91.5 -37.5t-37.5 -91.5t37.5 -91.5t91.5 -37.5t91.5 37.5t37.5 91.5t-37.5 91.5t-91.5 37.5z" />
    <glyph glyph-name="Gcommaaccent" unicode="&#x122;" horiz-adv-x="1581" 
d="M809 -25q-204 0 -370.5 97t-261.5 267t-95 378q0 209 95 379.5t261.5 267t370.5 96.5q148 0 279 -51.5t231 -148.5q27 -24 24 -66q-3 -39 -36 -59l-107 -72q-23 -15 -50.5 -13t-49.5 21q-115 109 -291 109q-103 0 -187.5 -39.5t-137 -105.5t-81 -148t-28.5 -170
q0 -87 28.5 -169t81 -148t137 -106t187.5 -40q160 0 267.5 80.5t144.5 228.5h-322q-32 0 -56 24t-24 58v94q0 32 24 56t56 24h490q33 0 56 -23.5t23 -56.5v-676q0 -26 -17.5 -44.5t-43.5 -18.5h-49q-23 0 -41.5 15t-22.5 38l-22 135q-160 -213 -463 -213zM809 1442
q-152 0 -284 -54.5t-225.5 -150t-146.5 -230.5t-53 -290q0 -207 91 -372.5t253 -258t365 -92.5q309 0 461 223l12 19l31 -181q3 -15 15.5 -26t29.5 -11h49q19 0 32 13t13 32v676q0 26 -18.5 44t-44.5 18h-490q-26 0 -43.5 -18t-17.5 -44v-94q0 -26 17.5 -44.5t43.5 -18.5
h344l-2 -13q-35 -158 -148.5 -245.5t-283.5 -87.5q-107 0 -195 41.5t-143.5 110t-85 153.5t-29.5 176q0 92 29.5 177t85 153.5t143.5 109.5t195 41q181 0 303 -113q37 -32 78 -6l106 70q26 16 29 47q3 27 -18 51q-97 94 -225.5 144.5t-272.5 50.5zM725 -467h-104
q-26 0 -38.5 18.5t-4.5 40.5l77 207q7 25 28 39.5t48 14.5h141q27 0 39.5 -21.5t-0.5 -46.5l-114 -211q-23 -41 -72 -41zM872 -166h-141q-20 0 -36.5 -11t-22.5 -30l-76 -207q-4 -13 3.5 -24t21.5 -11h104q37 0 57 33l113 211q7 13 -0.5 26t-22.5 13z" />
    <glyph glyph-name="gcommaaccent" unicode="&#x123;" horiz-adv-x="1275" 
d="M590 -410q-129 0 -249 42t-198 114q-22 22 -18 53.5t31 46.5l116 70q38 20 74 -8q85 -72 236 -72q145 0 222 77.5t77 223.5v49q-114 -141 -316 -141q-97 0 -180 29t-142 78.5t-101 115t-62.5 139t-20.5 150.5t20.5 150.5t62.5 138.5t101 114.5t142 78t180 28.5
q202 0 316 -141v35q0 34 23 57.5t57 23.5h112q34 0 58 -23.5t24 -57.5v-842q0 -241 -154 -385t-411 -144zM281 -100l-117 -70q-18 -9 -20.5 -33.5t12.5 -36.5q75 -70 191.5 -110.5t242.5 -40.5q249 0 398 139t149 371v842q0 26 -19 44.5t-45 18.5h-112q-26 0 -45 -18.5
t-19 -44.5v-91l-16 25q-109 154 -316 154q-115 0 -210 -42.5t-154 -112.5t-91 -157t-32 -180q0 -94 32 -181.5t91 -157.5t154 -112.5t210 -42.5q206 0 316 156l16 23v-105q0 -154 -81.5 -236.5t-233.5 -82.5q-157 0 -248 78q-24 18 -53 4zM604 274q-123 0 -202.5 80
t-79.5 203t79.5 203t202.5 80q124 0 203.5 -79t79.5 -204t-79.5 -204t-203.5 -79zM604 821q-117 0 -190.5 -73.5t-73.5 -190.5t73.5 -190.5t190.5 -73.5t190.5 73.5t73.5 190.5t-73.5 190.5t-190.5 73.5zM725 1501h104q26 0 38.5 -18.5t4.5 -40.5l-77 -207q-7 -24 -28 -38.5
t-48 -14.5h-141q-27 0 -39.5 21t0.5 46l114 211q23 41 72 41zM578 1200h141q20 0 36.5 11t22.5 30l76 207q4 13 -3.5 24t-21.5 11h-104q-37 0 -57 -33l-113 -211q-7 -13 0.5 -26t22.5 -13z" />
    <glyph glyph-name="Hcircumflex" unicode="&#x124;" horiz-adv-x="1417" 
d="M1206 0h-131q-34 0 -58 24t-24 58v506h-567v-506q0 -34 -24 -58t-56 -24h-131q-34 0 -58 24t-24 58v1272q0 32 24 56t58 24h131q32 0 56 -24t24 -56v-494h567v494q0 32 24 56t58 24h131q32 0 56 -24t24 -56v-1272q0 -34 -24 -58t-56 -24zM408 82v524h604v-524
q0 -26 18.5 -45t44.5 -19h131q26 0 44 19t18 45v1272q0 26 -18 43.5t-44 17.5h-131q-26 0 -44.5 -17.5t-18.5 -43.5v-512h-604v512q0 26 -18 43.5t-44 17.5h-131q-26 0 -44.5 -17.5t-18.5 -43.5v-1272q0 -26 18.5 -45t44.5 -19h131q26 0 44 19t18 45zM631 1905h160
q49 0 77 -39l150 -191q15 -22 6 -47q-11 -24 -41 -24h-109q-52 0 -79 38l-84 117l-86 -117q-27 -38 -80 -38h-107q-28 0 -40.5 24.5t5.5 46.5l150 191q28 39 78 39zM567 1855l-151 -190q-10 -15 -2.5 -30t24.5 -15h107q44 0 65 35l101 135l98 -135q24 -35 65 -35h109
q19 0 25 16q6 15 -4 29l-150 190q-28 31 -63 31h-160q-40 0 -64 -31z" />
    <glyph glyph-name="hcircumflex" unicode="&#x125;" 
d="M987 0h-113q-34 0 -57.5 23t-23.5 57v498q0 43 -8 79t-27.5 70t-59.5 54t-96 20q-55 0 -97 -20t-65.5 -53.5t-35 -71t-11.5 -78.5v-498q0 -34 -23 -57t-57 -23h-112q-34 0 -58 23t-24 57v1272q0 34 24 58t58 24h112q34 0 57 -24t23 -58v-416q107 131 289 131
q96 0 171.5 -37t121 -100t69 -139t23.5 -160v-551q0 -34 -23 -57t-57 -23zM602 817q102 0 155.5 -61t53.5 -178v-498q0 -26 18.5 -45t44.5 -19h113q26 0 45 19t19 45v551q0 81 -22.5 154t-66 133t-116 95.5t-164.5 35.5q-193 0 -289 -146l-16 -24v473q0 26 -19 44.5
t-45 18.5h-112q-26 0 -45 -18.5t-19 -44.5v-1272q0 -26 19 -45t45 -19h112q26 0 45 19t19 45v498q0 96 55.5 167.5t169.5 71.5zM451 1905h159q50 0 78 -39l150 -191q15 -22 6 -47q-11 -24 -41 -24h-109q-53 0 -80 38l-84 117l-86 -117q-27 -38 -79 -38h-107
q-28 0 -40.5 24.5t5.5 46.5l150 191q28 39 78 39zM387 1855l-151 -190q-10 -15 -2.5 -30t24.5 -15h107q44 0 65 35l100 135l99 -135q24 -35 65 -35h109q18 0 24 16q6 15 -4 29l-149 190q-28 31 -64 31h-159q-40 0 -64 -31z" />
    <glyph glyph-name="Hbar" unicode="&#x126;" horiz-adv-x="1552" 
d="M1270 0h-131q-33 0 -56.5 23.5t-23.5 56.5v506h-567v-506q0 -34 -24 -57t-58 -23h-131q-33 0 -56.5 23.5t-23.5 56.5v981h-136q-19 0 -31 13t-12 32v72q0 19 12 32t31 13h136v129q0 34 24 58t56 24h131q34 0 58 -24t24 -58v-129h567v129q0 34 24 58t56 24h131
q34 0 58 -24t24 -58v-129h133q19 0 32 -13t13 -32v-72q0 -19 -13 -32t-32 -13h-133v-981q0 -34 -24 -57t-58 -23zM473 80v524h604v-524q0 -26 18.5 -45t43.5 -19h131q26 0 44.5 19t18.5 45v997h152q11 0 18.5 8.5t7.5 20.5v72q0 10 -7.5 18t-18.5 8h-152v148
q0 26 -18.5 44.5t-44.5 18.5h-131q-25 0 -43.5 -18.5t-18.5 -44.5v-148h-604v148q0 26 -18.5 44.5t-44.5 18.5h-131q-26 0 -44 -18.5t-18 -44.5v-148h-154q-11 0 -18.5 -8t-7.5 -18v-72q0 -12 7.5 -20.5t18.5 -8.5h154v-997q0 -26 18 -45t44 -19h131q26 0 44.5 19t18.5 45z
M1077 1077v-237h-604v237h604zM492 1061v-203h567v203h-567z" />
    <glyph glyph-name="hbar" unicode="&#x127;" 
d="M987 0h-113q-32 0 -55.5 24t-23.5 58v463q0 33 -4.5 62t-17.5 59t-33.5 51.5t-55 35t-80.5 13.5q-56 0 -98 -20t-65.5 -53.5t-34.5 -70.5t-11 -77v-463q0 -34 -24 -58t-58 -24h-112q-34 0 -57 24t-23 58v1034h-78q-20 0 -32.5 13t-12.5 32v35q0 20 12.5 32.5t32.5 12.5
h78v113q0 34 23 57t57 23h112q34 0 58 -23t24 -57v-113h223q19 0 32.5 -12.5t13.5 -32.5v-35q0 -19 -13.5 -32t-32.5 -13h-223v-215q101 131 289 131q77 0 141.5 -24.5t109 -66t75.5 -97.5t45 -118t14 -128v-516q0 -34 -24 -58t-58 -24zM604 784q100 0 154.5 -62t54.5 -177
v-463q0 -27 17.5 -45.5t43.5 -18.5h113q26 0 45 19t19 45v516q0 80 -22 152.5t-65.5 132.5t-115.5 95.5t-164 35.5q-191 0 -291 -146l-16 -24v291h241q12 0 19.5 7.5t7.5 18.5v35q0 12 -7.5 20.5t-19.5 8.5h-241v129q0 26 -19 44.5t-45 18.5h-112q-26 0 -44 -18.5t-18 -44.5
v-129h-96q-12 0 -20.5 -8.5t-8.5 -20.5v-35q0 -11 8.5 -18.5t20.5 -7.5h96v-1053q0 -26 18 -45t44 -19h112q26 0 45 19t19 45v463q0 44 12.5 84.5t37.5 76t71 57t106 21.5z" />
    <glyph glyph-name="Itilde" unicode="&#x128;" horiz-adv-x="542" 
d="M336 0h-129q-34 0 -58 24t-24 58v1272q0 32 24 56t58 24h129q34 0 58 -24t24 -56v-1272q0 -34 -24 -58t-58 -24zM336 1415h-129q-27 0 -45.5 -17.5t-18.5 -43.5v-1272q0 -26 19 -45t45 -19h129q26 0 44.5 19t18.5 45v1272q0 26 -18.5 43.5t-44.5 17.5zM63 1571l-81 14
q-17 3 -27.5 16.5t-9.5 32.5q9 89 56 138t122 49q53 0 147 -35q6 -2 26.5 -9t29 -9.5t24 -5.5t27.5 -3q37 0 49 39q4 17 19 26.5t32 6.5l82 -14q17 -3 28 -17t9 -31q-9 -90 -55.5 -139t-122.5 -49q-52 0 -146 35l-27 9t-30 9t-24.5 5t-28.5 3q-36 0 -47 -38q-12 -39 -52 -33
zM123 1802q-68 0 -110.5 -44.5t-49.5 -125.5q-1 -10 5.5 -18t17.5 -10l82 -17q21 -5 30 21q15 53 64 53q36 0 117 -29q89 -33 139 -33q69 0 110.5 45t49.5 125q3 23 -23 31l-82 15q-9 1 -18.5 -5.5t-12.5 -15.5q-12 -51 -65 -51q-41 0 -113 26q-89 33 -141 33z" />
    <glyph glyph-name="itilde" unicode="&#x129;" horiz-adv-x="505" 
d="M309 0h-112q-34 0 -58 23t-24 57v881q0 34 24 57.5t58 23.5h112q34 0 57 -23.5t23 -57.5v-881q0 -34 -23 -57t-57 -23zM309 1024h-112q-26 0 -45 -18.5t-19 -44.5v-881q0 -26 19 -45t45 -19h112q26 0 45 19t19 45v881q0 26 -19 44.5t-45 18.5zM45 1161l-82 15
q-17 3 -27.5 16.5t-9.5 32.5q9 89 56 137.5t122 48.5q54 0 148 -35q80 -26 106 -26q38 0 50 39q4 17 19 26t32 6l82 -14q17 -3 27.5 -16.5t9.5 -30.5q-9 -90 -56 -139.5t-123 -49.5q-51 0 -145 35q-8 2 -27.5 8.5t-29.5 9.5t-25.5 6t-28.5 3q-35 0 -47 -39t-51 -33z
M104 1393q-68 0 -110 -44.5t-49 -125.5q-1 -10 5 -18.5t17 -10.5l82 -16q23 -5 31 20q15 53 63 53q39 0 117 -28q89 -33 139 -33q69 0 110.5 45t49.5 125q3 24 -22 31l-82 14q-9 1 -18.5 -5.5t-12.5 -15.5q-12 -51 -66 -51q-37 0 -112 27q-89 33 -142 33z" />
    <glyph glyph-name="Imacron" unicode="&#x12a;" horiz-adv-x="542" 
d="M336 0h-129q-34 0 -58 24t-24 58v1272q0 32 24 56t58 24h129q34 0 58 -24t24 -56v-1272q0 -34 -24 -58t-58 -24zM336 1415h-129q-27 0 -45.5 -17.5t-18.5 -43.5v-1272q0 -26 19 -45t45 -19h129q26 0 44.5 19t18.5 45v1272q0 26 -18.5 43.5t-44.5 17.5zM510 1628h-479
q-26 0 -45 19t-19 45v90q0 26 19 44.5t45 18.5h479q26 0 44.5 -18.5t18.5 -44.5v-90q0 -26 -18.5 -45t-44.5 -19zM510 1827h-479q-20 0 -32.5 -13t-12.5 -32v-90q0 -19 12.5 -32t32.5 -13h479q19 0 32 13t13 32v90q0 19 -13 32t-32 13z" />
    <glyph glyph-name="imacron" unicode="&#x12b;" horiz-adv-x="505" 
d="M309 0h-112q-34 0 -58 23t-24 57v881q0 34 24 57.5t58 23.5h112q34 0 57 -23.5t23 -57.5v-881q0 -34 -23 -57t-57 -23zM309 1024h-112q-26 0 -45 -18.5t-19 -44.5v-881q0 -26 19 -45t45 -19h112q26 0 45 19t19 45v881q0 26 -19 44.5t-45 18.5zM492 1219h-480
q-26 0 -44.5 18.5t-18.5 44.5v90q0 26 18.5 45t44.5 19h480q26 0 44.5 -19t18.5 -45v-90q0 -26 -18.5 -44.5t-44.5 -18.5zM492 1417h-480q-20 0 -32.5 -13t-12.5 -32v-90q0 -19 12.5 -32t32.5 -13h480q19 0 32 13t13 32v90q0 19 -13 32t-32 13z" />
    <glyph glyph-name="Ibreve" unicode="&#x12c;" horiz-adv-x="542" 
d="M336 0h-129q-34 0 -58 24t-24 58v1272q0 32 24 56t58 24h129q34 0 58 -24t24 -56v-1272q0 -34 -24 -58t-58 -24zM336 1415h-129q-27 0 -45.5 -17.5t-18.5 -43.5v-1272q0 -26 19 -45t45 -19h129q26 0 44.5 19t18.5 45v1272q0 26 -18.5 43.5t-44.5 17.5zM274 1577
q-132 0 -218 65.5t-105 182.5q-6 27 13.5 50t47.5 23h74q22 0 39.5 -13.5t21.5 -35.5q26 -92 127 -92q60 0 89.5 28t37.5 64q6 22 23 35.5t39 13.5h76q28 0 46.5 -22t14.5 -51q-19 -117 -105.5 -182.5t-220.5 -65.5zM86 1880h-74q-21 0 -34.5 -16t-10.5 -37
q19 -110 99.5 -171t207.5 -61q129 0 209 60.5t99 171.5q3 20 -10 36.5t-33 16.5h-76q-15 0 -26.5 -10t-16.5 -25q-12 -51 -50.5 -78.5t-95.5 -27.5q-56 0 -93.5 27.5t-49.5 78.5q-5 15 -17.5 25t-27.5 10z" />
    <glyph glyph-name="ibreve" unicode="&#x12d;" horiz-adv-x="505" 
d="M309 0h-112q-34 0 -58 23t-24 57v881q0 34 24 57.5t58 23.5h112q34 0 57 -23.5t23 -57.5v-881q0 -34 -23 -57t-57 -23zM309 1024h-112q-26 0 -45 -18.5t-19 -44.5v-881q0 -26 19 -45t45 -19h112q26 0 45 19t19 45v881q0 26 -19 44.5t-45 18.5zM256 1167q-133 0 -219 65.5
t-105 182.5q-6 27 14 50.5t48 23.5h74q22 0 39.5 -13.5t21.5 -35.5q26 -92 127 -92q60 0 89.5 28t37.5 64q6 22 22.5 35.5t38.5 13.5h76q28 0 47 -22.5t15 -51.5q-19 -117 -105.5 -182.5t-220.5 -65.5zM68 1470h-74q-21 0 -34.5 -16t-10.5 -37q19 -110 99 -170.5t208 -60.5
q129 0 208.5 60t98.5 171q3 20 -10 36.5t-33 16.5h-76q-33 0 -43 -34q-12 -51 -50 -79t-95 -28q-56 0 -93.5 28t-49.5 79q-4 15 -17 24.5t-28 9.5z" />
    <glyph glyph-name="Iogonek" unicode="&#x12e;" horiz-adv-x="542" 
d="M311 -479q-110 0 -179 57.5t-69 149.5q0 88 49 157t117 115h-24q-34 0 -57 24t-23 58v1272q0 34 23 57t57 23h131q34 0 57 -23t23 -57v-1305q0 -43 -35 -67q-129 -88 -129 -191q0 -38 25 -58t71 -20h21q20 0 33.5 -12.5t13.5 -32.5v-80q0 -25 -14 -41.5t-37 -21.5
q-32 -4 -54 -4zM336 1417h-131q-26 0 -45 -18.5t-19 -44.5v-1272q0 -26 19 -45t45 -19h86l-27 -16q-71 -44 -126.5 -113t-55.5 -161q0 -85 63 -137t166 -52q19 0 51 4q15 3 26 15.5t11 29.5v80q0 11 -8 19t-20 8h-23q-54 0 -84.5 25t-30.5 71q0 111 138 205q28 19 28 53
v1305q0 26 -18.5 44.5t-44.5 18.5z" />
    <glyph glyph-name="iogonek" unicode="&#x12f;" horiz-adv-x="505" 
d="M285 -479q-112 0 -180 57t-68 150q0 157 164 272h-4q-34 0 -58 24t-24 58v881q0 33 24 56t58 23h112q33 0 56.5 -23t23.5 -56v-914q0 -43 -35 -67q-129 -86 -129 -191q0 -78 97 -78h20q21 0 33 -12q14 -11 14 -33v-80q0 -24 -14.5 -41t-36.5 -22q-32 -4 -53 -4zM309 1026
h-112q-26 0 -45 -18.5t-19 -44.5v-881q0 -26 19 -45t45 -19h65l-26 -16q-183 -116 -183 -274q0 -85 64.5 -137t167.5 -52q21 0 49 4q17 3 27 15.5t10 29.5v80q0 12 -9 21q-9 6 -20 6h-20q-55 0 -85 25t-30 71q0 114 137 205q27 20 27 53v914q0 26 -18 44.5t-44 18.5z
M252 1176q-60 0 -103 42.5t-43 102.5q0 61 43 104t103 43t102.5 -43t42.5 -104q0 -60 -42.5 -102.5t-102.5 -42.5zM252 1450q-53 0 -90 -37.5t-37 -91.5q0 -53 37.5 -90t89.5 -37q54 0 91.5 37t37.5 90q0 54 -37.5 91.5t-91.5 37.5z" />
    <glyph glyph-name="Idotaccent" unicode="&#x130;" horiz-adv-x="542" 
d="M336 0h-129q-34 0 -58 24t-24 58v1272q0 32 24 56t58 24h129q34 0 58 -24t24 -56v-1272q0 -34 -24 -58t-58 -24zM336 1415h-129q-27 0 -45.5 -17.5t-18.5 -43.5v-1272q0 -26 19 -45t45 -19h129q26 0 44.5 19t18.5 45v1272q0 26 -18.5 43.5t-44.5 17.5zM270 1589
q-61 0 -104 43t-43 105q0 61 42.5 104t104.5 43t105 -43t43 -104t-43 -104.5t-105 -43.5zM270 1866q-54 0 -91.5 -37.5t-37.5 -91.5t37.5 -91.5t91.5 -37.5t91.5 37.5t37.5 91.5t-37.5 91.5t-91.5 37.5z" />
    <glyph glyph-name="dotlessi" unicode="&#x131;" horiz-adv-x="505" 
d="M309 0h-112q-34 0 -58 23t-24 57v881q0 34 24 57.5t58 23.5h112q34 0 57 -23.5t23 -57.5v-881q0 -34 -23 -57t-57 -23zM309 1024h-112q-26 0 -45 -18.5t-19 -44.5v-881q0 -26 19 -45t45 -19h112q26 0 45 19t19 45v881q0 26 -19 44.5t-45 18.5z" />
    <glyph glyph-name="IJ" unicode="&#x132;" horiz-adv-x="1681" 
d="M336 0h-129q-34 0 -58 24t-24 58v1272q0 32 24 56t58 24h129q34 0 58 -24t24 -56v-1272q0 -34 -24 -58t-58 -24zM336 1415h-129q-27 0 -45.5 -17.5t-18.5 -43.5v-1272q0 -26 19 -45t45 -19h129q26 0 44.5 19t18.5 45v1272q0 26 -18.5 43.5t-44.5 17.5zM1042 -25
q-190 0 -324 91.5t-175 248.5q-9 35 10.5 65t54.5 36l154 28q24 4 44 -8.5t28 -36.5q6 -18 14 -35.5t25 -38t38.5 -36t55.5 -25.5t75 -10q110 0 162.5 61t52.5 187v852q0 32 24 56t58 24h131q32 0 56 -24t24 -56v-852q0 -258 -129.5 -392.5t-378.5 -134.5zM764 426l-154 -27
q-27 -6 -41 -29t-8 -51q38 -151 167 -238t314 -87q490 0 490 508v852q0 26 -18 43.5t-44 17.5h-131q-26 0 -44.5 -17.5t-18.5 -43.5v-852q0 -266 -234 -266q-57 0 -101 17t-68.5 44.5t-37 51t-18.5 46.5q-5 16 -19.5 25t-33.5 6z" />
    <glyph glyph-name="ij" unicode="&#x133;" horiz-adv-x="1015" 
d="M309 0h-112q-34 0 -58 23t-24 57v881q0 34 24 57.5t58 23.5h112q34 0 57 -23.5t23 -57.5v-881q0 -34 -23 -57t-57 -23zM309 1024h-112q-26 0 -45 -18.5t-19 -44.5v-881q0 -26 19 -45t45 -19h112q26 0 45 19t19 45v881q0 26 -19 44.5t-45 18.5zM252 1174q-60 0 -103 43
t-43 104q0 60 43 102.5t103 42.5q61 0 104 -42.5t43 -102.5q0 -61 -42.5 -104t-104.5 -43zM252 1448q-52 0 -89.5 -37t-37.5 -90q0 -54 37 -91.5t90 -37.5q54 0 91.5 37.5t37.5 91.5q0 53 -37.5 90t-91.5 37zM518 -375q-25 0 -39 2q-25 3 -42 21t-17 43v131q0 25 17 43.5
t42 19.5q75 5 110.5 47.5t35.5 128.5v900q0 34 24 57.5t58 23.5h112q34 0 57 -23.5t23 -57.5v-934q0 -191 -100 -296.5t-281 -105.5zM819 1024h-112q-26 0 -45 -18.5t-19 -44.5v-900q0 -94 -39.5 -142t-122.5 -52q-19 -2 -31 -14t-12 -31v-131q0 -18 11.5 -30.5t29.5 -14.5
q16 -2 39 -2q175 0 269 98.5t94 284.5v934q0 26 -18 44.5t-44 18.5zM762 1174q-60 0 -103 43t-43 104q0 60 43 102.5t103 42.5q61 0 103 -42.5t42 -102.5q0 -62 -42 -104.5t-103 -42.5zM762 1448q-52 0 -89.5 -37t-37.5 -90q0 -54 37 -91.5t90 -37.5q54 0 91.5 37.5
t37.5 91.5q0 53 -37.5 90t-91.5 37z" />
    <glyph glyph-name="Jcircumflex" unicode="&#x134;" horiz-adv-x="1189" 
d="M551 -25q-190 0 -324.5 91.5t-175.5 248.5q-9 35 11 65t55 36l153 28q24 4 44 -8.5t28 -36.5q7 -24 20 -46t36 -46t63 -38.5t90 -14.5q110 0 162.5 61t52.5 187v852q0 32 24 56t58 24h131q32 0 56 -24t24 -56v-852q0 -258 -129.5 -392.5t-378.5 -134.5zM272 426l-153 -27
q-27 -6 -41 -29t-8 -51q38 -151 167 -238t314 -87q489 0 489 508v852q0 26 -17.5 43.5t-43.5 17.5h-131q-27 0 -45.5 -17.5t-18.5 -43.5v-852q0 -266 -233 -266q-57 0 -101 17t-68.5 44.5t-37 51t-18.5 46.5q-5 16 -19.5 25t-34.5 6zM836 1905h159q50 0 78 -39l150 -191
q15 -22 6 -47q-11 -24 -41 -24h-109q-53 0 -80 38l-84 117l-86 -117q-27 -38 -79 -38h-107q-28 0 -40.5 24.5t5.5 46.5l150 191q28 39 78 39zM772 1855l-151 -190q-10 -15 -2.5 -30t24.5 -15h107q44 0 65 35l100 135l99 -135q24 -35 65 -35h109q18 0 24 16q6 15 -4 29
l-149 190q-28 31 -64 31h-159q-40 0 -64 -31z" />
    <glyph glyph-name="jcircumflex" unicode="&#x135;" horiz-adv-x="505" 
d="M8 -375q-6 0 -19.5 1t-19.5 1q-25 3 -42 21t-17 43v131q0 25 17 43.5t42 19.5q75 5 110.5 47.5t35.5 128.5v900q0 34 24 57.5t58 23.5h112q34 0 57 -23.5t23 -57.5v-934q0 -191 -100 -296.5t-281 -105.5zM309 1024h-112q-26 0 -45 -18.5t-19 -44.5v-900q0 -94 -39.5 -142
t-122.5 -52q-19 -2 -31 -14t-12 -31v-131q0 -18 11.5 -30.5t29.5 -14.5q7 0 20 -1t19 -1q175 0 269 98.5t94 284.5v934q0 26 -18 44.5t-44 18.5zM176 1495h160q50 0 78 -39l149 -190q15 -22 6 -47q-11 -25 -41 -25h-108q-52 0 -80 39l-84 117l-86 -117q-28 -39 -80 -39h-106
q-28 0 -40.5 25t5.5 47l149 190q28 39 78 39zM113 1446l-152 -191q-10 -15 -2 -30t25 -15h106q45 0 66 35l100 135l98 -135q24 -35 66 -35h108q18 0 25 17q6 15 -4 28l-150 191q-28 31 -63 31h-160q-39 0 -63 -31z" />
    <glyph glyph-name="Kcommaaccent" unicode="&#x136;" horiz-adv-x="1304" 
d="M1171 0h-194q-50 0 -78 39l-477 602v-559q0 -34 -24 -58t-58 -24h-131q-32 0 -56 24t-24 58v1272q0 32 24 56t56 24h131q34 0 58 -24t24 -56v-576l442 615q27 41 82 41h176q35 0 49 -29t-6 -57l-469 -621l516 -639q22 -25 6.5 -56.5t-47.5 -31.5zM403 82v612l510 -645
q22 -31 64 -31h194q22 0 31.5 21.5t-4.5 38.5l-524 649l477 631q13 20 4 38.5t-33 18.5h-176q-41 0 -67 -33l-476 -659v631q0 26 -18.5 43.5t-44.5 17.5h-131q-25 0 -43.5 -17.5t-18.5 -43.5v-1272q0 -26 18.5 -45t43.5 -19h131q26 0 44.5 19t18.5 45zM600 -467h-104
q-26 0 -38.5 18.5t-4.5 40.5l77 207q7 25 28 39.5t48 14.5h142q26 0 38.5 -21.5t-0.5 -46.5l-114 -211q-23 -41 -72 -41zM748 -166h-142q-20 0 -36.5 -11t-22.5 -30l-76 -207q-4 -13 3.5 -24t21.5 -11h104q37 0 57 33l113 211q7 13 0 26t-22 13z" />
    <glyph glyph-name="kcommaaccent" unicode="&#x137;" horiz-adv-x="1097" 
d="M969 0h-176q-52 0 -80 39l-320 428v-387q0 -34 -24 -57t-58 -23h-112q-33 0 -56.5 23.5t-23.5 56.5v1272q0 34 24 58t56 24h112q34 0 58 -24t24 -58v-725l275 374q30 41 80 41h157q34 0 48.5 -31t-5.5 -57l-305 -393l369 -475q20 -26 5.5 -56.5t-48.5 -29.5zM375 80v442
l352 -473q26 -33 66 -33h176q24 0 32.5 20.5t-4.5 39.5l-376 485l313 406q13 17 3 37t-32 20h-157q-40 0 -66 -33l-307 -420v781q0 26 -19 44.5t-45 18.5h-112q-26 0 -44 -18.5t-18 -44.5v-1272q0 -26 18 -45t44 -19h112q26 0 45 19t19 45zM492 -467h-105q-26 0 -38.5 18.5
t-4.5 40.5l78 207q7 25 28 39.5t48 14.5h141q27 0 39.5 -21.5t-0.5 -46.5l-115 -211q-23 -41 -71 -41zM639 -166h-141q-21 0 -37.5 -11t-22.5 -30l-76 -207q-4 -13 3.5 -24t21.5 -11h105q37 0 57 33l113 211q7 13 -0.5 26t-22.5 13z" />
    <glyph glyph-name="kgreenlandic" unicode="&#x138;" horiz-adv-x="1097" 
d="M969 0h-176q-52 0 -80 39l-320 428v-387q0 -34 -24 -57t-58 -23h-112q-33 0 -56.5 23.5t-23.5 56.5v881q0 33 23.5 57t56.5 24h112q34 0 58 -23.5t24 -57.5v-334l275 374q30 41 80 41h157q34 0 48.5 -31t-5.5 -57l-305 -393l369 -475q20 -26 5.5 -56.5t-48.5 -29.5z
M375 80v442l352 -473q26 -33 66 -33h176q24 0 32.5 20.5t-4.5 39.5l-376 485l313 406q13 17 3 37t-32 20h-157q-40 0 -66 -33l-307 -420v390q0 26 -19 44.5t-45 18.5h-112q-26 0 -44 -18.5t-18 -44.5v-881q0 -26 18 -45t44 -19h112q26 0 45 19t19 45z" />
    <glyph glyph-name="Lacute" unicode="&#x139;" horiz-adv-x="1034" 
d="M885 0h-676q-34 0 -57 24t-23 58v1272q0 33 23.5 56.5t56.5 23.5h131q34 0 58 -24t24 -56v-1082h463q34 0 58 -23t24 -56v-111q0 -34 -24 -58t-58 -24zM340 1415h-131q-27 0 -45.5 -17.5t-18.5 -43.5v-1272q0 -26 19 -45t45 -19h676q26 0 44.5 19t18.5 45v111
q0 26 -18.5 44.5t-44.5 18.5h-482v1098q0 26 -18.5 43.5t-44.5 17.5zM350 1604h-112q-27 0 -40 19.5t-1 45.5l88 191q22 45 73 45h156q29 0 41 -23.5t-2 -46.5l-137 -197q-24 -34 -66 -34zM514 1888h-156q-41 0 -57 -37l-88 -190q-7 -17 1 -28t24 -11h112q31 0 51 27
l136 196q9 12 1.5 27.5t-24.5 15.5z" />
    <glyph glyph-name="lacute" unicode="&#x13a;" horiz-adv-x="505" 
d="M309 0h-112q-33 0 -56.5 23.5t-23.5 56.5v1272q0 34 24 58t56 24h112q34 0 58 -24t24 -58v-1272q0 -34 -24 -57t-58 -23zM309 1415h-112q-26 0 -44 -18.5t-18 -44.5v-1272q0 -26 18 -45t44 -19h112q26 0 45 19t19 45v1272q0 26 -19 44.5t-45 18.5zM326 1604h-113
q-27 0 -40 19.5t-1 45.5l88 191q22 45 74 45h155q29 0 41 -23.5t-2 -46.5l-137 -197q-24 -34 -65 -34zM489 1888h-155q-42 0 -58 -37l-88 -190q-7 -17 1 -28t24 -11h113q31 0 51 27l135 196q9 12 1.5 27.5t-24.5 15.5z" />
    <glyph glyph-name="Lcommaaccent" unicode="&#x13b;" horiz-adv-x="1034" 
d="M885 0h-676q-34 0 -57 24t-23 58v1272q0 33 23.5 56.5t56.5 23.5h131q34 0 58 -24t24 -56v-1082h463q34 0 58 -23t24 -56v-111q0 -34 -24 -58t-58 -24zM340 1415h-131q-27 0 -45.5 -17.5t-18.5 -43.5v-1272q0 -26 19 -45t45 -19h676q26 0 44.5 19t18.5 45v111
q0 26 -18.5 44.5t-44.5 18.5h-482v1098q0 26 -18.5 43.5t-44.5 17.5zM485 -467h-104q-26 0 -38.5 18.5t-4.5 40.5l78 207q7 25 28 39.5t48 14.5h141q27 0 39.5 -21.5t-0.5 -46.5l-115 -211q-23 -41 -72 -41zM633 -166h-141q-21 0 -37.5 -11t-22.5 -30l-76 -207
q-4 -13 3.5 -24t21.5 -11h104q38 0 58 33l112 211q7 13 0 26t-22 13z" />
    <glyph glyph-name="lcommaaccent" unicode="&#x13c;" horiz-adv-x="505" 
d="M309 0h-112q-33 0 -56.5 23.5t-23.5 56.5v1272q0 34 24 58t56 24h112q34 0 58 -24t24 -58v-1272q0 -34 -24 -57t-58 -23zM309 1415h-112q-26 0 -44 -18.5t-18 -44.5v-1272q0 -26 18 -45t44 -19h112q26 0 45 19t19 45v1272q0 26 -19 44.5t-45 18.5zM168 -467h-105
q-26 0 -38.5 18.5t-4.5 40.5l78 207q7 25 28 39.5t48 14.5h141q27 0 39.5 -21.5t-0.5 -46.5l-114 -211q-23 -41 -72 -41zM315 -166h-141q-20 0 -36.5 -11t-22.5 -30l-76 -207q-4 -13 3 -24t21 -11h105q37 0 57 33l113 211q7 13 -0.5 26t-22.5 13z" />
    <glyph glyph-name="Lcaron" unicode="&#x13d;" horiz-adv-x="1034" 
d="M885 0h-676q-34 0 -57 24t-23 58v1272q0 33 23.5 56.5t56.5 23.5h131q34 0 58 -24t24 -56v-1082h463q34 0 58 -23t24 -56v-111q0 -34 -24 -58t-58 -24zM340 1415h-131q-27 0 -45.5 -17.5t-18.5 -43.5v-1272q0 -26 19 -45t45 -19h676q26 0 44.5 19t18.5 45v111
q0 26 -18.5 44.5t-44.5 18.5h-482v1098q0 26 -18.5 43.5t-44.5 17.5zM668 1114h-105q-26 0 -38.5 19t-4.5 41l78 206q7 25 28 39.5t48 14.5h141q27 0 39.5 -21.5t-0.5 -46.5l-115 -211q-23 -41 -71 -41zM815 1415h-141q-21 0 -37.5 -11t-22.5 -30l-75 -207q-4 -13 3 -23.5
t21 -10.5h105q38 0 57 32l113 211q7 13 -0.5 26t-22.5 13z" />
    <glyph glyph-name="lcaron" unicode="&#x13e;" horiz-adv-x="651" 
d="M309 0h-112q-33 0 -56.5 23.5t-23.5 56.5v1272q0 34 24 58t56 24h112q34 0 58 -24t24 -58v-1272q0 -34 -24 -57t-58 -23zM309 1415h-112q-26 0 -44 -18.5t-18 -44.5v-1272q0 -26 18 -45t44 -19h112q26 0 45 19t19 45v1272q0 26 -19 44.5t-45 18.5zM651 1114h-104
q-26 0 -38.5 19t-4.5 41l78 206q7 25 28 39.5t47 14.5h142q27 0 39.5 -21.5t-0.5 -46.5l-115 -211q-23 -41 -72 -41zM799 1415h-142q-20 0 -36.5 -11t-22.5 -30l-76 -207q-4 -13 3.5 -23.5t21.5 -10.5h104q39 0 58 32l112 211q7 14 0 26.5t-22 12.5z" />
    <glyph glyph-name="Ldot" unicode="&#x13f;" horiz-adv-x="1034" 
d="M737 563q-61 0 -105 44t-44 106q0 61 43.5 104t105.5 43t105 -43t43 -104q0 -62 -43.5 -106t-104.5 -44zM737 844q-54 0 -92.5 -38.5t-38.5 -92.5t38.5 -92.5t92.5 -38.5t92.5 38.5t38.5 92.5t-38.5 92.5t-92.5 38.5zM885 0h-676q-34 0 -57 24t-23 58v1272
q0 33 23.5 56.5t56.5 23.5h131q34 0 58 -24t24 -56v-1082h463q34 0 58 -23t24 -56v-111q0 -34 -24 -58t-58 -24zM340 1415h-131q-27 0 -45.5 -17.5t-18.5 -43.5v-1272q0 -26 19 -45t45 -19h676q26 0 44.5 19t18.5 45v111q0 26 -18.5 44.5t-44.5 18.5h-482v1098
q0 26 -18.5 43.5t-44.5 17.5z" />
    <glyph glyph-name="ldot" unicode="&#x140;" horiz-adv-x="858" 
d="M684 530q-61 0 -104 43t-43 105t43 105.5t104 43.5q62 0 106 -44t44 -105t-44 -104.5t-106 -43.5zM684 809q-54 0 -92.5 -38.5t-38.5 -92.5t38.5 -91.5t92.5 -37.5t92.5 37.5t38.5 91.5t-38.5 92.5t-92.5 38.5zM309 0h-112q-33 0 -56.5 23.5t-23.5 56.5v1272q0 34 24 58
t56 24h112q34 0 58 -24t24 -58v-1272q0 -34 -24 -57t-58 -23zM309 1415h-112q-26 0 -44 -18.5t-18 -44.5v-1272q0 -26 18 -45t44 -19h112q26 0 45 19t19 45v1272q0 26 -19 44.5t-45 18.5z" />
    <glyph glyph-name="Lslash" unicode="&#x141;" horiz-adv-x="1120" 
d="M973 0h-676q-34 0 -58 23t-24 57v399l-92 -51q-15 -10 -34 -5.5t-28 21.5l-32 60q-9 15 -4 33.5t20 27.5l170 94v693q0 34 24 58t58 24h129q34 0 58 -24t24 -58v-529l184 105q19 10 35.5 4.5t26.5 -21.5l32 -59q9 -17 4 -34.5t-20 -26.5l-262 -148v-371h465q34 0 57 -24
t23 -58v-110q0 -34 -23 -57t-57 -23zM115 442l118 68v-430q0 -26 19 -45t45 -19h676q26 0 44.5 19t18.5 45v110q0 26 -18.5 45t-44.5 19h-484v399l271 154q10 4 13.5 15.5t-1.5 21.5l-35 57q-13 23 -37 10l-211 -118v559q0 26 -18.5 44.5t-44.5 18.5h-129q-26 0 -45 -18.5
t-19 -44.5v-703l-178 -100q-23 -15 -10 -37l33 -59q16 -23 37 -11z" />
    <glyph glyph-name="lslash" unicode="&#x142;" horiz-adv-x="675" 
d="M393 0h-112q-34 0 -58 24t-24 58v479l-95 -57q-15 -9 -33.5 -5t-27.5 19l-20 31q-9 17 -4 34.5t20 26.5l160 99v645q0 34 24 57t58 23h112q34 0 57 -23t23 -57v-480l96 58q17 10 35 5.5t27 -19.5l18 -31q9 -15 5 -34t-19 -28l-162 -98v-645q0 -34 -23 -58t-57 -24z
M94 518l123 76v-512q0 -26 19 -45t45 -19h112q26 0 44 19t18 45v655l170 103q9 6 11.5 17t-3.5 20l-19 30q-5 9 -16 13t-20 -2l-123 -74v510q0 26 -18 44.5t-44 18.5h-112q-26 0 -45 -18.5t-19 -44.5v-656l-170 -102q-9 -6 -11.5 -17t3.5 -20l18 -31q14 -21 37 -10z" />
    <glyph glyph-name="Nacute" unicode="&#x143;" horiz-adv-x="1431" 
d="M1219 0h-119q-62 0 -99 53l-577 862v-833q0 -34 -24 -58t-56 -24h-131q-34 0 -58 24t-24 58v1272q0 32 24 56t58 24h119q64 0 96 -52l580 -864v836q0 33 23 56.5t56 23.5h132q33 0 57 -24t24 -56v-1272q0 -34 -23.5 -58t-57.5 -24zM406 82v893l612 -914q29 -43 82 -43
h119q26 0 44.5 19t18.5 45v1272q0 26 -18.5 43.5t-44.5 17.5h-132q-26 0 -44.5 -17.5t-18.5 -43.5v-895l-610 913q-29 43 -82 43h-119q-26 0 -44.5 -17.5t-18.5 -43.5v-1272q0 -26 18.5 -45t44.5 -19h131q25 0 43.5 19t18.5 45zM764 1604h-113q-27 0 -40 19.5t-1 45.5
l88 191q22 45 74 45h156q29 0 41 -23.5t-2 -46.5l-138 -197q-24 -34 -65 -34zM928 1888h-156q-41 0 -57 -37l-88 -190q-7 -17 0.5 -28t23.5 -11h113q31 0 51 27l135 196q9 12 2 27.5t-24 15.5z" />
    </font>
</defs>
</svg>
