<?xml version="1.0" standalone="no"?>
<!DOCTYPE svg PUBLIC "-//W3C//DTD SVG 1.1//EN" "http://www.w3.org/Graphics/SVG/1.1/DTD/svg11.dtd" >
<svg xmlns="http://www.w3.org/2000/svg" xmlns:xlink="http://www.w3.org/1999/xlink" version="1.1">
<metadata>
Created by FontForge 20170731 at Mon May 29 11:59:17 2023
 By Aleksey,,,
Copyright (c) 2020 by MadeType. All rights reserved.
</metadata>
<defs>
<font id="MADETommySoftOutline-Thin" horiz-adv-x="1292" >
  <font-face 
    font-family="MADE Tommy Soft Outline"
    font-weight="250"
    font-stretch="normal"
    units-per-em="2048"
    panose-1="2 0 5 3 0 0 0 2 0 4"
    ascent="1638"
    descent="-410"
    x-height="1042"
    cap-height="1434"
    bbox="-86 -506 2443 1974"
    underline-thickness="102"
    underline-position="-307"
    unicode-range="U+0020-F6C3"
  />
<missing-glyph horiz-adv-x="532" 
 />
    <glyph glyph-name=".notdef" horiz-adv-x="532" 
 />
    <glyph glyph-name=".null" horiz-adv-x="0" 
 />
    <glyph glyph-name="nonmarkingreturn" horiz-adv-x="682" 
 />
    <glyph glyph-name="space" unicode=" " horiz-adv-x="532" 
 />
    <glyph glyph-name="exclam" unicode="!" horiz-adv-x="501" 
d="M250 -25q-31 0 -53.5 21.5t-22.5 52.5t22.5 53.5t53.5 22.5t52.5 -22.5t21.5 -53.5t-21.5 -52.5t-52.5 -21.5zM250 106q-24 0 -40.5 -16.5t-16.5 -40.5t16.5 -40.5t40.5 -16.5q23 0 39 17t16 40t-16 40t-39 17zM258 367h-18q-14 0 -24.5 10.5t-10.5 25.5v994
q0 15 10.5 26t24.5 11h18q15 0 26 -11t11 -26v-994q0 -15 -11 -25.5t-26 -10.5zM258 1415h-18q-8 0 -13.5 -5.5t-5.5 -12.5v-994q0 -7 5.5 -12.5t13.5 -5.5h18q8 0 13 5.5t5 12.5v994q0 7 -5 12.5t-13 5.5z" />
    <glyph glyph-name="quotedbl" unicode="&#x22;" horiz-adv-x="702" 
d="M211 965h-18q-15 0 -26 10.5t-11 25.5v398q0 14 11 24.5t26 10.5h18q13 0 24 -11t11 -24v-398q0 -15 -10.5 -25.5t-24.5 -10.5zM211 1415h-18q-7 0 -13 -5t-6 -11v-398q0 -7 5.5 -12.5t13.5 -5.5h18q16 0 16 18v398q0 16 -16 16zM508 965h-19q-15 0 -24.5 10.5t-9.5 25.5
v398q0 14 9.5 24.5t24.5 10.5h19q15 0 26 -10.5t11 -24.5v-398q0 -15 -11 -25.5t-26 -10.5zM508 1415h-19q-7 0 -12.5 -5t-5.5 -11v-398q0 -7 5.5 -12.5t12.5 -5.5h19q8 0 13 5.5t5 12.5v398q0 6 -5.5 11t-12.5 5z" />
    <glyph glyph-name="numbersign" unicode="#" horiz-adv-x="1329" 
d="M795 90h-19q-13 0 -20.5 9.5t-5.5 21.5l57 360h-365l-59 -368q-2 -9 -9.5 -16t-17.5 -7h-20q-30 0 -27 31l60 360h-238q-32 0 -29 29l4 25q3 18 27 18h248l55 330h-243q-30 0 -27 32l2 17q1 10 9.5 17t17.5 7h251l62 363q2 11 9.5 17.5t17.5 6.5h18q13 0 20 -9t5 -23
l-58 -355h365l61 365q3 22 27 22h18q14 0 22 -8t5 -22l-60 -357h240q14 0 20.5 -9.5t4.5 -22.5l-2 -17q-2 -11 -9.5 -17.5t-17.5 -6.5h-246l-55 -330h242q29 0 26 -31l-2 -18q-3 -23 -26 -23h-252l-60 -368q-2 -9 -9.5 -16t-16.5 -7zM365 117l63 383h401l-63 -381
q0 -10 10 -10h17q8 0 10 8l63 383h267q8 0 10 8l2 16q0 11 -10 11h-263l60 366h262q10 0 10 8l2 19q0 10 -8 10h-260l61 377q2 10 -10 10h-14q-10 0 -12 -6l-62 -381h-401l61 373q2 14 -10 14h-14q-11 0 -13 -8l-61 -379h-268q-9 0 -9 -8l-2 -17q-2 -12 9 -12h264l-60 -366
h-264q-8 0 -10 -9l-2 -16q0 -10 10 -10h260l-63 -379q-3 -12 8 -12h18q9 0 11 8zM895 901l-59 -366h-402l60 366h401zM508 883l-53 -330h364l55 330h-366z" />
    <glyph glyph-name="dollar" unicode="$" horiz-adv-x="1116" 
d="M578 -223h-19q-14 0 -24.5 11t-10.5 26v163q-85 4 -157.5 30.5t-123 67.5t-84 88.5t-50.5 98.5q-12 39 22 49l16 4q36 9 46 -22q32 -93 126 -160t240 -67q160 0 258 85.5t98 225.5q0 36 -5 66.5t-18.5 54.5t-26 42.5t-38 35t-42 27t-52 23.5t-54.5 19t-61 19l-51 14
q-41 12 -65.5 19.5t-63.5 22t-63.5 26.5t-57.5 31t-53.5 38.5t-43 47t-35 57.5t-21 68.5t-8.5 82.5q0 154 106.5 265t261.5 122v164q0 14 11 24.5t24 10.5h19q15 0 25.5 -10.5t10.5 -24.5v-166q114 -14 197 -75t123 -162q7 -15 0.5 -30.5t-25.5 -19.5l-18 -4q-13 -3 -24.5 4
t-16.5 19q-35 88 -112.5 135t-184.5 47q-128 0 -217.5 -87.5t-89.5 -211.5q0 -33 6.5 -62t15.5 -51.5t27 -43t33 -35t43 -30t47 -24.5t54 -21.5t55.5 -19t60.5 -18.5q11 -4 18 -6t14.5 -4t14.5 -4q39 -12 60 -18.5t57.5 -20t58 -24.5t52 -29t48.5 -36.5t39 -44.5t32 -55
t18.5 -66.5t7.5 -80.5q0 -68 -24.5 -134t-71 -123t-124 -96t-174.5 -47v-163q0 -15 -10.5 -26t-25.5 -11zM154 299l-19 -6q-17 -6 -10 -25q36 -107 141 -187t266 -87h11v-180q0 -7 5 -13t11 -6h19q7 0 12.5 5.5t5.5 13.5v180l8 2q96 6 172 42t122 90t69.5 117.5t23.5 131.5
q0 41 -7 76.5t-17.5 63t-30 52.5t-37 42.5t-46.5 34.5t-50 27.5t-56.5 23t-56.5 19t-59 17.5l-47 15q-45 14 -63 20t-58 20t-57 22.5t-48 25.5t-45.5 31.5t-34.5 37t-28.5 46t-15.5 54.5t-7 66q0 132 95.5 225t230.5 93q114 0 195 -50.5t118 -144.5q6 -13 21 -10l18 4
q18 4 13 24q-38 98 -119.5 156.5t-194.5 69.5l-8 2v182q0 6 -5.5 11t-12.5 5h-19q-6 0 -11 -5t-5 -11v-180l-11 -2q-151 -6 -254.5 -113t-103.5 -256q0 -74 26 -132.5t58 -94t95.5 -67.5t103.5 -46t116 -37q37 -10 50 -14q47 -14 71 -21.5t63 -23t59.5 -29t47 -36.5
t39 -49.5t22 -63t9.5 -80.5q0 -148 -104 -239t-271 -91q-153 0 -251.5 71t-131.5 169q-5 15 -22 12z" />
    <glyph glyph-name="percent" unicode="%" horiz-adv-x="1773" 
d="M434 764q-129 0 -220 92t-91 221t91 220.5t220 91.5q130 0 222 -91.5t92 -220.5t-92 -221t-222 -92zM434 1372q-121 0 -207 -86.5t-86 -208.5t86 -208.5t207 -86.5q123 0 209 86.5t86 208.5t-86 208.5t-209 86.5zM434 836q-98 0 -168.5 70.5t-70.5 170.5q0 99 70.5 169.5
t168.5 70.5q100 0 171 -70t71 -170t-71 -170.5t-171 -70.5zM434 1298q-91 0 -156 -64.5t-65 -156.5t65 -157.5t156 -65.5q92 0 157.5 65.5t65.5 157.5t-65.5 156.5t-157.5 64.5zM1337 45q-129 0 -220 91.5t-91 221.5q0 129 91 220.5t220 91.5q130 0 222 -91.5t92 -220.5
q0 -130 -91.5 -221.5t-222.5 -91.5zM1337 651q-121 0 -207 -85.5t-86 -207.5q0 -123 85.5 -209t207.5 -86q123 0 209 86t86 209q0 122 -86 207.5t-209 85.5zM1337 117q-98 0 -168.5 70.5t-70.5 170.5q0 98 70.5 169t168.5 71q100 0 171 -71t71 -169q0 -100 -71 -170.5
t-171 -70.5zM1337 580q-92 0 -156.5 -65.5t-64.5 -156.5q0 -92 64.5 -157.5t156.5 -65.5t158 65.5t66 157.5q0 91 -66 156.5t-158 65.5zM442 0h-32q-19 0 -26.5 14t3.5 29l905 1370q14 21 37 21h35q18 0 25 -13t-3 -28l-905 -1373q-13 -20 -39 -20zM1364 1415h-35
q-13 0 -22 -12l-906 -1370q-3 -6 0 -10.5t9 -4.5h32q13 0 23 13l905 1372q6 12 -6 12z" />
    <glyph glyph-name="ampersand" unicode="&#x26;" horiz-adv-x="1431" 
d="M539 -25q-105 0 -193.5 35.5t-146 94t-89.5 131.5t-32 149q0 74 22.5 138t55.5 108t83 82.5t93 61t96 44.5q-109 163 -109 303q0 146 95 241t243 95q128 0 218 -86t90 -207q0 -48 -13.5 -90.5t-33 -74t-53.5 -62t-63.5 -50.5t-75.5 -42.5t-76.5 -35t-78.5 -30.5
q60 -72 170 -174q121 -115 260 -239q59 119 76 221q7 31 41 28l19 -2q18 -1 25.5 -14t4.5 -29q-26 -132 -96 -266q38 -34 297 -258q16 -11 10 -29t-28 -18h-29q-36 0 -64 25q-141 120 -235 202q-31 -44 -69.5 -82t-97.5 -79.5t-141 -66t-175 -24.5zM657 1442
q-139 0 -230 -91t-91 -229q0 -137 113 -301l6 -10l-11 -4q-52 -20 -94.5 -42t-92 -59.5t-83 -80t-56 -105.5t-22.5 -135q0 -73 31 -142.5t86.5 -125t140.5 -89.5t185 -34q92 0 173.5 25t139.5 67t95 79.5t67 80.5l6 8l6 -6q127 -111 244 -211q22 -19 51 -19h29q6 0 9 5.5
t-3 11.5q-197 167 -303 262l-4 4l2 6q72 135 98 268q4 20 -16 23l-17 2q-16 3 -20 -14q-21 -118 -82 -238l-6 -10l-9 8q-150 132 -270 246q-129 125 -180 186l-8 8l12 7q64 24 107.5 43t92.5 44.5t80.5 52.5t59 61.5t40.5 77t13 93.5q0 117 -83.5 197t-205.5 80zM539 47
q-91 0 -165.5 29t-121 77t-71.5 108t-25 124q0 132 78 222.5t249 156.5l6 2l5 -4q70 -88 198 -209q171 -159 281 -258l6 -4l-4 -8q-17 -26 -38 -52t-61 -61t-85 -60.5t-112 -44t-140 -18.5zM483 745q-163 -64 -236 -149.5t-73 -210.5q0 -128 97.5 -223.5t267.5 -95.5
q85 0 159 23.5t124.5 61.5t81 70t52.5 66q-124 109 -276 254q-133 123 -197 204zM514 834l-6 -3l-4 7q-52 74 -82.5 141t-30.5 143q0 117 74 190.5t192 73.5q104 0 168 -67t64 -154q0 -45 -14 -83t-41 -68t-59 -54.5t-76 -46.5t-84.5 -39t-89.5 -36q-7 -3 -11 -4zM657 1368
q-112 0 -179.5 -67.5t-67.5 -178.5q0 -123 104 -268q51 19 78.5 30.5t71.5 31.5t68.5 35.5t54.5 39.5t45.5 48.5t26.5 57t11 68.5q0 80 -59 141.5t-154 61.5z" />
    <glyph glyph-name="quotesingle" unicode="'" horiz-adv-x="399" 
d="M209 965h-16q-15 0 -26 10.5t-11 25.5v398q0 14 11 24.5t26 10.5h16q15 0 26 -10.5t11 -24.5v-398q0 -15 -11 -25.5t-26 -10.5zM209 1415h-16q-7 0 -13 -5t-6 -11v-398q0 -7 5.5 -12.5t13.5 -5.5h16q7 0 12.5 5.5t5.5 12.5v398q0 6 -5.5 11t-12.5 5z" />
    <glyph glyph-name="parenleft" unicode="(" horiz-adv-x="681" 
d="M444 -133q-58 93 -98 168t-83 182.5t-65 233.5t-22 266t22 265.5t65.5 234t82.5 183.5t98 169q6 13 23 16t29 -6l6 -4q12 -7 15 -22t-5 -27q-52 -85 -90.5 -161.5t-77 -178.5t-58.5 -220.5t-20 -248.5t20.5 -248.5t58.5 -220.5t76.5 -178t90.5 -160q8 -12 5 -26t-15 -23
l-6 -4q-12 -10 -28.5 -7t-23.5 17zM459 1559q-45 -72 -77 -129t-70 -142t-61.5 -166t-39.5 -187t-16 -218t16 -217.5t39.5 -186t61.5 -166t70 -142.5t77 -130q3 -7 11.5 -8.5t14.5 4.5l7 4q15 11 4 25q-53 86 -91 163t-76.5 179.5t-58.5 223t-20 251.5q0 132 20.5 252.5
t58.5 223.5t76.5 179.5t90.5 161.5q11 14 -4 25l-7 4q-6 5 -14.5 3.5t-11.5 -7.5z" />
    <glyph glyph-name="parenright" unicode=")" horiz-adv-x="681" 
d="M238 -133q-7 -14 -23.5 -17t-28.5 7l-6 4q-12 9 -15 23t5 26q52 84 90.5 160t76.5 178t58.5 220.5t20.5 248.5t-20 248.5t-58.5 220.5t-77 178.5t-90.5 161.5q-8 12 -5 27t15 22l6 4q12 9 29 6t23 -16q59 -94 98 -169t82.5 -183.5t65.5 -234t22 -265.5t-22 -266
t-65 -233.5t-83 -182.5t-98 -168zM223 1559q-3 6 -11.5 7.5t-14.5 -3.5l-7 -4q-15 -11 -4 -25q52 -85 90.5 -161.5t76.5 -179.5t58.5 -223.5t20.5 -252.5q0 -131 -20 -251.5t-58.5 -223t-76.5 -179.5t-91 -163q-11 -14 4 -25l7 -4q6 -6 14.5 -4.5t11.5 8.5q45 73 77 130
t70 142.5t61.5 166t39.5 186t16 217.5t-16 218t-39.5 187t-61.5 166t-70 142t-77 129z" />
    <glyph glyph-name="asterisk" unicode="*" horiz-adv-x="925" 
d="M629 760l-166 254l-166 -254q-16 -23 -39 -8l-27 18q-22 17 -6 41l191 238l-293 77q-13 3 -18.5 13.5t-2.5 21.5l13 33q4 11 14.5 15t20.5 1l284 -108l-16 303q0 12 8 20.5t20 8.5h33q13 0 20.5 -8t6.5 -21l-14 -303l282 108q28 7 37 -16l10 -33q3 -11 -2.5 -21.5
t-15.5 -13.5l-293 -77l190 -238q16 -24 -6 -39l-26 -20q-24 -14 -39 8zM283 770l180 277l180 -277q6 -6 12 -4l29 20q4 3 4 8t-2 7l-207 256l318 88q8 3 6 10l-10 33q-3 9 -11 6l-309 -119l16 332q0 8 -10 8h-33q-10 0 -10 -8l17 -332l-310 119q-8 2 -12 -6l-10 -31
q-3 -9 6 -12l319 -88l-206 -256q-9 -9 2 -15l26 -18q8 -5 15 2z" />
    <glyph glyph-name="plus" unicode="+" horiz-adv-x="1171" 
d="M592 207h-19q-13 0 -23.5 10.5t-10.5 24.5v325h-326q-13 0 -24 10.5t-11 24.5v19q0 15 10.5 25.5t24.5 10.5h326v324q0 15 10 26t24 11h19q15 0 26 -11t11 -26v-324h323q15 0 26 -10.5t11 -25.5v-19q0 -14 -11 -24.5t-26 -10.5h-323v-325q0 -14 -11 -24.5t-26 -10.5z
M555 639h-342q-6 0 -11 -5.5t-5 -12.5v-19q0 -16 16 -16h342v-344q0 -6 5.5 -11.5t12.5 -5.5h19q7 0 12.5 5.5t5.5 11.5v344h342q19 0 19 16v19q0 7 -5.5 12.5t-13.5 5.5h-342v342q0 7 -5 12.5t-13 5.5h-19q-7 0 -12.5 -5.5t-5.5 -12.5v-342z" />
    <glyph glyph-name="comma" unicode="," horiz-adv-x="385" 
d="M59 -215l-4 2q-20 10 -8 35l141 299q6 14 23 19.5t29 -3.5l24 -14q31 -19 12 -51l-180 -279q-14 -20 -37 -8zM205 115l-142 -301q-5 -10 0 -13l5 -2q7 -3 12 4l182 279q9 18 -6 24l-25 17q-18 7 -26 -8z" />
    <glyph glyph-name="hyphen" unicode="-" horiz-adv-x="1026" 
d="M811 567h-594q-15 0 -26 10.5t-11 24.5v19q0 15 11 25.5t26 10.5h594q15 0 25 -10.5t10 -25.5v-19q0 -14 -10 -24.5t-25 -10.5zM811 639h-594q-7 0 -12.5 -5.5t-5.5 -12.5v-19q0 -16 18 -16h594q18 0 18 16v19q0 7 -5.5 12.5t-12.5 5.5z" />
    <glyph glyph-name="period" unicode="." horiz-adv-x="337" 
d="M168 -25q-31 0 -53.5 21.5t-22.5 52.5t22.5 53.5t53.5 22.5t52.5 -22.5t21.5 -53.5t-21.5 -52.5t-52.5 -21.5zM168 106q-23 0 -40 -17t-17 -40t17 -40t40 -17t40 17t17 40t-17 40t-40 17z" />
    <glyph glyph-name="slash" unicode="/" horiz-adv-x="913" 
d="M176 -195h-24q-15 0 -24 9t-3 26l569 1757q10 31 43 31h25q15 0 23.5 -9t2.5 -26l-569 -1757q-10 -31 -43 -31zM762 1612h-25q-19 0 -26 -21l-568 -1755q-3 -12 9 -12h24q21 0 27 18l567 1757q3 13 -8 13z" />
    <glyph glyph-name="zero" unicode="0" horiz-adv-x="1226" 
d="M612 -25q-110 0 -198.5 44.5t-146.5 117.5t-97 171t-55.5 200t-16.5 209t16.5 208.5t55.5 199.5t97 171t146.5 117.5t198.5 44.5t198.5 -44.5t146.5 -117.5t97 -171t55.5 -199.5t16.5 -208.5t-16.5 -209t-55.5 -200t-97 -171t-146.5 -117.5t-198.5 -44.5zM612 1440
q-106 0 -192 -42t-141.5 -111.5t-92.5 -164t-53 -195.5t-16 -210q0 -90 11.5 -175.5t35 -168t63.5 -150.5t93 -120.5t128 -81.5t164 -29q106 0 192 42t141.5 112t93 165t53.5 196t16 210t-16 210t-53.5 195.5t-93 164t-141.5 111.5t-192 42zM612 47q-110 0 -197 57
t-139 153.5t-79 213.5t-27 246t27 246t79 213t139 153t197 57t197 -57t139.5 -153t79.5 -213t27 -246t-27 -246.5t-79.5 -213.5t-139.5 -153t-197 -57zM612 1368q-85 0 -156 -36.5t-120 -99t-83 -146.5t-49.5 -177t-15.5 -192q0 -100 15.5 -193t49.5 -177t83 -146t120 -98.5
t156 -36.5t156 36.5t120 98.5t83 146t49.5 177t15.5 193q0 99 -15.5 192t-49.5 177t-83 146.5t-120 99t-156 36.5z" />
    <glyph glyph-name="one" unicode="1" horiz-adv-x="952" 
d="M637 0h-19q-14 0 -25 11t-11 24v1274l-326 -219q-12 -9 -28 -6t-23 16l-10 16q-7 12 -4 25.5t14 21.5l387 260q18 11 35 11h10q15 0 26 -11t11 -26v-1362q0 -14 -11 -24.5t-26 -10.5zM246 1104l354 237v-1306q0 -6 5.5 -11.5t12.5 -5.5h19q7 0 12.5 5.5t5.5 11.5v1362
q0 7 -5.5 12.5t-12.5 5.5h-10q-17 0 -25 -8l-387 -258q-15 -11 -4 -25l8 -14q10 -16 27 -6z" />
    <glyph glyph-name="two" unicode="2" horiz-adv-x="1101" 
d="M928 0h-770q-14 0 -24.5 11t-10.5 24v24q0 24 16 43q62 68 245 278t198 230q132 158 187.5 253t55.5 198q0 127 -83.5 217t-202.5 90t-205 -67.5t-115 -182.5q-3 -13 -15 -20.5t-26 -5.5l-18 4q-37 8 -29 45q38 147 147.5 232t260.5 85q85 0 157.5 -34t119.5 -90.5
t73 -127t26 -145.5q0 -66 -16.5 -125.5t-56 -125t-79.5 -118t-112 -139.5q-3 -3 -81.5 -95t-174.5 -203t-145 -165h678q15 0 26 -11t11 -26v-18q0 -14 -11 -24.5t-26 -10.5zM539 1386q126 0 215.5 -95t89.5 -230q0 -107 -57 -205t-191 -258q-21 -26 -204.5 -237t-239.5 -271
q-11 -15 -11 -31v-24q0 -6 5.5 -11.5t11.5 -5.5h770q7 0 12.5 5.5t5.5 11.5v18q0 8 -5.5 13.5t-12.5 5.5h-719l14 14q44 49 143.5 163.5t183.5 212t87 101.5q58 69 91 111t70.5 97t56 97t31.5 92t13 101q0 95 -42 180.5t-126 142t-192 56.5q-145 0 -249.5 -81.5
t-139.5 -221.5q-5 -19 14 -23l16 -4q17 -3 21 12q32 123 122.5 193.5t215.5 70.5z" />
    <glyph glyph-name="three" unicode="3" horiz-adv-x="1142" 
d="M584 -25q-172 0 -306 82.5t-174 214.5q-8 37 29 45l19 5q30 5 41 -25q29 -93 133 -162t258 -69q94 0 175.5 37.5t136 116.5t54.5 186q0 59 -16.5 106.5t-42.5 78.5t-62 54.5t-70 35.5t-73 19t-64 9t-49 2h-88q-11 0 -18.5 8t-7.5 20v25q0 11 8 19t18 8h93q12 0 27.5 1
t47.5 7t60.5 16.5t61.5 31.5t56.5 50t39.5 74.5t16 101.5q0 126 -87 210.5t-216 84.5q-120 0 -206 -63.5t-118 -153.5q-5 -14 -16.5 -21t-24.5 -4l-18 4q-40 9 -27 48q43 128 154 204t256 76q167 0 280 -110.5t113 -274.5q0 -110 -59.5 -193.5t-165.5 -123.5
q52 -13 97.5 -36t91 -63t72.5 -104.5t27 -146.5q0 -102 -39 -186t-104 -136.5t-145.5 -80.5t-167.5 -28zM154 303l-17 -4q-19 -4 -14 -23q35 -125 164.5 -204.5t296.5 -79.5q83 0 160.5 27.5t140.5 78t101 130.5t38 178q0 69 -21.5 125t-53 91.5t-75 62t-80.5 39.5t-77 21
l-35 9l35 10q115 32 178 113.5t63 195.5q0 157 -107 262t-267 105q-138 0 -245.5 -73t-148.5 -196q-6 -18 15 -22l16 -4q17 -3 21 12q35 95 126 162t216 67q137 0 229 -90t92 -223q0 -68 -22.5 -122.5t-57.5 -87t-80 -54t-86 -29.5t-81 -8h-93q-10 0 -10 -8v-25
q0 -10 10 -10h88q25 0 51 -2t67 -9.5t77 -20.5t74 -37.5t65 -57.5t44.5 -83.5t17.5 -112.5q0 -113 -57.5 -196.5t-143.5 -123t-184 -39.5q-159 0 -268 73t-142 171q-5 15 -20 12z" />
    <glyph glyph-name="four" unicode="4" horiz-adv-x="1234" 
d="M879 0h-19q-14 0 -24.5 11t-10.5 24v317h-665q-15 0 -26 11t-11 26v23q0 28 14 45l635 940q23 37 68 37h39q15 0 25.5 -11t10.5 -26v-955h166q15 0 25 -10t10 -24v-19q0 -15 -10 -26t-25 -11h-166v-317q0 -14 -10.5 -24.5t-25.5 -10.5zM879 1415h-39q-34 0 -54 -26
l-634 -943q-11 -18 -11 -34v-23q0 -7 5.5 -12.5t13.5 -5.5h682v-336q0 -6 5.5 -11.5t12.5 -5.5h19q7 0 12.5 5.5t5.5 11.5v336h184q8 0 13.5 5.5t5.5 12.5v19q0 16 -19 16h-184v973q0 7 -5.5 12.5t-12.5 5.5zM842 1374v-950h-639zM825 1315l-589 -873h589v873z" />
    <glyph glyph-name="five" unicode="5" horiz-adv-x="1116" 
d="M553 -25q-159 0 -284 82.5t-163 214.5q-4 18 3.5 30t23.5 15l19 5q30 5 41 -25q29 -94 124.5 -162.5t235.5 -68.5q69 0 134.5 26t119 74t86.5 125t33 170q0 113 -52.5 198t-130 125.5t-165.5 40.5q-99 0 -183.5 -45t-134.5 -108q-24 -31 -63 -21l-15 4q-12 3 -19.5 14.5
t-6.5 24.5l82 707q1 13 11.5 23t22.5 10h633q15 0 26 -11t11 -26v-17q0 -15 -11 -26t-26 -11h-590l-65 -571q141 141 328 141q84 0 161.5 -29.5t139.5 -84.5t99.5 -143t37.5 -195q0 -114 -40.5 -208t-107 -153.5t-148 -92t-167.5 -32.5zM156 303l-19 -4q-19 -4 -14 -23
q35 -126 155.5 -205t274.5 -79q82 0 160.5 31.5t143 89t103.5 148.5t39 200q0 104 -36 188.5t-96 137.5t-134.5 81.5t-154.5 28.5q-62 0 -119.5 -17t-100 -45t-68.5 -50.5t-46 -45.5l-19 -22l74 645h606q8 0 13.5 5.5t5.5 12.5v17q0 7 -5.5 12.5t-13.5 5.5h-633
q-16 0 -16 -16l-82 -707q-3 -16 12 -20l15 -4q28 -7 45 16q54 65 141 111.5t191 46.5q68 0 132.5 -25t117 -71.5t84.5 -120.5t32 -164q0 -97 -34 -177t-90.5 -131t-125.5 -78.5t-141 -27.5q-145 0 -244.5 73t-132.5 171q-5 16 -20 12z" />
    <glyph glyph-name="six" unicode="6" horiz-adv-x="1161" 
d="M580 -25q-202 0 -342 139.5t-140 342.5q0 84 31 161t94 170l416 617q19 29 51 29h17q20 0 25.5 -14t-5.5 -29l-336 -494q93 41 189 41q202 0 341.5 -140t139.5 -341q0 -203 -139.5 -342.5t-341.5 -139.5zM707 1415h-17q-24 0 -37 -20l-413 -617q-62 -93 -92.5 -167
t-30.5 -154q0 -195 134 -330t329 -135t328.5 135t133.5 330q0 127 -61 233.5t-167 168t-234 61.5q-117 0 -211 -56l-35 -22l379 559q3 5 1.5 9.5t-7.5 4.5zM580 47q-172 0 -291 119t-119 291q0 168 120.5 287.5t289.5 119.5t289 -119t120 -288q0 -172 -118.5 -291
t-290.5 -119zM580 848q-162 0 -277 -115t-115 -276q0 -165 113.5 -278t278.5 -113t278 113t113 278q0 161 -115 276t-276 115z" />
    <glyph glyph-name="seven" unicode="7" horiz-adv-x="1046" 
d="M348 0h-33q-14 0 -22.5 10t-1.5 27l538 1306h-686q-15 0 -26 11t-11 26v17q0 15 11 26t26 11h758q15 0 26 -11t11 -26v-8q0 -15 -8 -39l-547 -1327q-10 -23 -35 -23zM901 1415h-758q-7 0 -12.5 -5.5t-5.5 -12.5v-17q0 -8 5.5 -13t12.5 -5h713l-549 -1331q-2 -5 1 -9t7 -4
h33q13 0 17 11l548 1329q7 18 7 31v8q0 7 -5.5 12.5t-13.5 5.5z" />
    <glyph glyph-name="eight" unicode="8" horiz-adv-x="1171" 
d="M584 -25q-214 0 -350 117t-136 303q0 132 80.5 232t220.5 143q-106 43 -167.5 127.5t-61.5 189.5q0 161 117 266t297 105q181 0 298 -105t117 -266q0 -105 -61.5 -189.5t-167.5 -127.5q140 -43 220.5 -143t80.5 -232q0 -186 -136 -303t-351 -117zM584 1440
q-172 0 -284 -99.5t-112 -253.5q0 -106 65 -189.5t177 -121.5l31 -8l-31 -8q-147 -37 -230 -134t-83 -231q0 -178 130.5 -290.5t336.5 -112.5q207 0 338 112.5t131 290.5q0 134 -83.5 231t-230.5 134l-30 8l30 8q111 38 176.5 122t65.5 189q0 154 -112 253.5t-285 99.5z
M584 47q-186 0 -300 95.5t-114 252.5q0 148 118.5 247t295.5 99q178 0 296.5 -99t118.5 -247q0 -157 -114.5 -252.5t-300.5 -95.5zM584 725q-168 0 -282 -95t-114 -235q0 -149 109 -239t287 -90q179 0 288 90t109 239q0 140 -113.5 235t-283.5 95zM584 788q-146 0 -244 85.5
t-98 213.5q0 132 95.5 215.5t246.5 83.5q152 0 247 -83.5t95 -215.5q0 -128 -97.5 -213.5t-244.5 -85.5zM584 1368q-143 0 -233.5 -78.5t-90.5 -202.5q0 -120 93 -200t231 -80q139 0 232 80t93 200q0 125 -90 203t-235 78z" />
    <glyph glyph-name="nine" unicode="9" horiz-adv-x="1161" 
d="M473 0h-16q-17 0 -24 13t3 28l336 496q-87 -41 -188 -41q-203 0 -342.5 139.5t-139.5 341.5t139.5 341.5t342.5 139.5q202 0 341.5 -139t139.5 -342q0 -84 -31.5 -161.5t-93.5 -170.5l-416 -618q-20 -27 -51 -27zM795 569l34 23l-378 -559q-4 -7 -1.5 -11t7.5 -4h16
q24 0 37 19l414 616q62 95 92.5 169.5t30.5 154.5q0 195 -134 329t-329 134t-329 -134t-134 -329t134 -329t329 -134q118 0 211 55zM584 567q-169 0 -289.5 120.5t-120.5 289.5q0 172 119 290.5t291 118.5t290.5 -118.5t118.5 -290.5q0 -169 -120 -289.5t-289 -120.5z
M584 1368q-164 0 -277.5 -113.5t-113.5 -277.5q0 -161 115 -276t276 -115t276 115t115 276q0 164 -113.5 277.5t-277.5 113.5z" />
    <glyph glyph-name="colon" unicode=":" horiz-adv-x="460" 
d="M229 -25q-31 0 -52 21.5t-21 52.5t21.5 53.5t51.5 22.5q32 0 54 -22.5t22 -53.5t-22 -52.5t-54 -21.5zM229 106q-23 0 -39 -17t-16 -40t16 -40t39 -17q25 0 41.5 17t16.5 40t-16.5 40t-41.5 17zM229 918q-31 0 -52 22t-21 53t21 52.5t52 21.5q32 0 54 -21.5t22 -52.5
t-22 -53t-54 -22zM229 1051q-23 0 -39 -17t-16 -41q0 -23 16 -40t39 -17q25 0 41.5 17t16.5 40q0 24 -17 41t-41 17z" />
    <glyph glyph-name="semicolon" unicode=";" horiz-adv-x="512" 
d="M281 918q-31 0 -52.5 22t-21.5 53t21.5 52.5t52.5 21.5t53 -21.5t22 -52.5t-22 -53t-53 -22zM281 1051q-23 0 -39.5 -17.5t-16.5 -40.5t16.5 -40t39.5 -17q24 0 40.5 16.5t16.5 40.5t-16.5 41t-40.5 17zM96 -215l-4 2q-20 10 -8 35l141 299q6 14 22.5 19.5t28.5 -3.5
l25 -14q31 -19 12 -51l-180 -279q-14 -20 -37 -8zM242 115l-142 -301q-5 -10 0 -13l4 -2q8 -4 13 4l182 279q9 18 -6 24l-25 17q-18 7 -26 -8z" />
    <glyph glyph-name="less" unicode="&#x3c;" horiz-adv-x="1097" 
d="M879 190l-674 318q-25 12 -25 41v33q0 32 25 41l674 319q17 8 28 1.5t11 -25.5v-29q0 -27 -25 -41l-600 -283l600 -282q25 -11 25 -41v-27q0 -15 -12 -23.5t-27 -1.5zM887 926l-674 -320q-16 -6 -16 -24v-33q0 -15 16 -25l674 -317q12 -5 12 8v27q0 17 -14 24l-635 299
l635 299q14 8 14 25v29q0 12 -12 8z" />
    <glyph glyph-name="equal" unicode="=" horiz-adv-x="1134" 
d="M920 729h-703q-15 0 -26 10.5t-11 24.5v18q0 15 11 26t26 11h703q15 0 24.5 -11t9.5 -26v-18q0 -14 -9.5 -24.5t-24.5 -10.5zM920 801h-703q-7 0 -12.5 -5.5t-5.5 -13.5v-18q0 -6 5.5 -11t12.5 -5h703q7 0 12.5 5t5.5 11v18q0 8 -5.5 13.5t-12.5 5.5zM920 406h-703
q-15 0 -26 10t-11 24v19q0 15 11 26t26 11h703q15 0 24.5 -11t9.5 -26v-19q0 -14 -9.5 -24t-24.5 -10zM920 477h-703q-7 0 -12.5 -5.5t-5.5 -12.5v-19q0 -8 5.5 -13t12.5 -5h703q8 0 13 5t5 13v19q0 7 -5 12.5t-13 5.5z" />
    <glyph glyph-name="greater" unicode="&#x3e;" horiz-adv-x="1097" 
d="M891 508l-674 -318q-15 -7 -27 1.5t-12 23.5v27q0 30 25 41l600 282l-600 283q-25 14 -25 41v29q0 19 11 25.5t28 -1.5l674 -319q24 -9 24 -41v-33q0 -29 -24 -41zM883 606l-674 320q-12 4 -12 -8v-29q0 -17 14 -25l635 -299l-635 -299q-14 -7 -14 -24v-27q0 -13 12 -8
l674 317q16 10 16 25v33q0 18 -16 24z" />
    <glyph glyph-name="question" unicode="?" horiz-adv-x="864" 
d="M438 -25q-31 0 -52 21.5t-21 52.5t21.5 53.5t51.5 22.5q31 0 53.5 -22.5t22.5 -53.5t-22.5 -52.5t-53.5 -21.5zM438 106q-23 0 -40 -17t-17 -40t17 -40t40 -17t40.5 17t17.5 40t-17.5 40t-40.5 17zM449 367h-19q-18 0 -27.5 11.5t-9.5 27.5q3 73 19.5 134t50 114.5
t55.5 81t66 77.5q67 74 99 134.5t32 144.5q0 115 -82 195.5t-199 80.5q-57 0 -105 -18.5t-77.5 -43.5t-52.5 -59t-33 -56.5t-16 -43.5q-5 -14 -18 -20.5t-26 -2.5l-16 4q-39 9 -27 46q18 54 48.5 102.5t75.5 90.5t109 66.5t138 24.5q154 0 262.5 -107t108.5 -259
q0 -105 -39.5 -180.5t-114.5 -157.5q-40 -45 -60 -70.5t-48.5 -71.5t-42.5 -97.5t-17 -113.5q0 -13 -10.5 -23.5t-23.5 -10.5zM434 1386q125 0 212 -85.5t87 -208.5q0 -88 -33.5 -151t-101.5 -140q-42 -46 -65 -75.5t-54.5 -80t-47.5 -110.5t-19 -132q0 -7 5 -12.5t13 -5.5
h19q14 0 18 16q2 64 16 118t43 101t50 74t61 72q74 81 112.5 153.5t38.5 172.5q0 145 -104 246.5t-250 101.5q-71 0 -132 -23.5t-103.5 -63.5t-71.5 -87t-45 -99q-3 -8 0 -14.5t12 -7.5l17 -4q17 -3 22 12q34 109 114 171t187 62z" />
    <glyph glyph-name="at" unicode="@" horiz-adv-x="1888" 
d="M928 -115q-153 0 -284.5 45t-225 122t-160.5 179t-99 217.5t-32 235.5q0 98 27 202.5t91 213t156 193t235 138.5t316 54q124 0 232.5 -25t189.5 -68t148 -102t111 -124.5t74.5 -137.5t44 -140.5t13.5 -133.5q0 -215 -87 -347.5t-228 -132.5q-89 0 -141 55t-64 160
q-50 -95 -140 -149.5t-200 -54.5q-161 0 -272 116t-111 285q0 164 118 281.5t284 117.5q103 0 186.5 -51t130.5 -143v147q0 15 11 26t26 11h8q15 0 26 -11t11 -26v-481q0 -46 4.5 -79.5t17.5 -65t39.5 -48t67.5 -16.5q106 0 174 113.5t68 292.5q0 83 -24.5 170t-81.5 176
t-139.5 157.5t-211.5 112t-285 43.5q-158 0 -288.5 -49t-214.5 -126t-142 -175.5t-83 -194t-25 -184.5q0 -109 29.5 -213.5t90 -198t145.5 -163.5t205 -111t259 -41q246 0 422 133q7 6 18 5.5t18 -9.5l13 -14q7 -9 6 -20t-10 -17q-194 -150 -467 -150zM952 1468
q-122 0 -230 -27.5t-188.5 -74.5t-147 -111t-111 -135t-75 -148t-44 -149t-13.5 -139q0 -118 31.5 -230.5t97 -212t157.5 -175t220.5 -119t278.5 -43.5q271 0 454 143q8 8 2 14l-12 13q-5 5 -12 2q-176 -137 -432 -137q-143 0 -266 42t-210.5 113.5t-149.5 167t-92 202.5
t-30 220q0 91 25.5 189t85 199t145.5 180t220 129.5t296 50.5q116 0 217 -23.5t177 -63.5t138 -94.5t103.5 -115.5t69.5 -128t40.5 -130t12.5 -123q0 -191 -70.5 -307.5t-187.5 -116.5q-37 0 -64.5 13t-43 33.5t-24.5 52t-12 61t-3 67.5v481q0 8 -5.5 13.5t-13.5 5.5h-8
q-7 0 -12.5 -5.5t-5.5 -13.5v-235l-17 43q-43 104 -127.5 162.5t-191.5 58.5q-158 0 -270.5 -112t-112.5 -269q0 -161 105 -272t259 -111q114 0 204.5 60.5t133.5 164.5l17 39l2 -41q9 -233 188 -233q133 0 215 127.5t82 333.5q0 91 -26 185t-86.5 190t-149.5 170.5
t-227 121.5t-306 47zM924 356q-78 0 -142.5 28.5t-104.5 75.5t-61.5 105t-21.5 121q0 135 97 231.5t233 96.5q132 0 229.5 -98t97.5 -230q0 -81 -40 -156t-116.5 -124.5t-170.5 -49.5zM924 995q-129 0 -220.5 -90.5t-91.5 -218.5q0 -60 20.5 -115t58.5 -99t98.5 -70.5
t134.5 -26.5q88 0 160.5 46.5t110.5 117t38 147.5q0 126 -91.5 217.5t-217.5 91.5z" />
    <glyph glyph-name="A" unicode="A" horiz-adv-x="1271" 
d="M1176 0h-27q-32 0 -43 29l-152 405h-639l-151 -405q-11 -29 -41 -29h-29q-15 0 -22.5 11.5t-1.5 25.5l508 1368q14 29 43 29h28q13 0 25.5 -8.5t17.5 -20.5l510 -1368q5 -14 -3 -25.5t-23 -11.5zM147 35l156 416h666l153 -416q7 -17 27 -17h27q13 0 10 13l-510 1368
q-6 16 -27 16h-28q-19 0 -25 -16l-510 -1368q-3 -13 8 -13h29q17 0 24 17zM635 1343l313 -837h-624zM635 1292l-287 -768h574z" />
    <glyph glyph-name="B" unicode="B" horiz-adv-x="1187" 
d="M696 0h-477q-15 0 -26 11t-11 26v1360q0 15 11 26t26 11h389q195 0 312.5 -100t117.5 -267q0 -107 -55.5 -190t-155.5 -127q135 -38 209 -129t74 -218q0 -163 -117 -280q-59 -59 -136.5 -91t-160.5 -32zM608 1415h-389q-7 0 -12.5 -5.5t-5.5 -12.5v-1360q0 -8 5.5 -13.5
t12.5 -5.5h477q79 0 153.5 30.5t131.5 86.5q111 114 111 268q0 125 -76.5 213t-218.5 123v19l6 2q103 40 160 120.5t57 186.5q0 158 -112.5 253t-299.5 95zM639 72h-383v649h383q58 0 112.5 -10t107.5 -34t92 -59.5t63 -91t24 -123.5q0 -156 -105.5 -243.5t-293.5 -87.5z
M272 705v-617h367q179 0 280 83.5t101 231.5q0 79 -33 139.5t-89 95t-121.5 51t-137.5 16.5h-367zM608 768h-352v592h352q161 0 260 -80.5t99 -212.5q0 -136 -98 -217.5t-261 -81.5zM272 1343v-557h336q155 0 247.5 76.5t92.5 204.5q0 123 -94 199.5t-246 76.5h-336z" />
    <glyph glyph-name="C" unicode="C" horiz-adv-x="1452" 
d="M807 -25q-146 0 -277 58t-225 156.5t-149.5 236.5t-55.5 291t55.5 290.5t149.5 236.5t225 156.5t277 57.5q157 0 298.5 -64.5t242.5 -181.5q11 -10 8.5 -28t-15.5 -25l-16 -10q-10 -8 -24 -6t-23 12q-89 101 -212.5 157t-258.5 56q-128 0 -242 -50.5t-196.5 -137
t-130.5 -207.5t-48 -256t48 -256t130.5 -207.5t196.5 -137t242 -50.5q135 0 258.5 56t212.5 157q9 10 23 12t24 -6l16 -11q13 -7 15.5 -25t-8.5 -28q-101 -117 -242.5 -181.5t-298.5 -64.5zM807 1442q-142 0 -269.5 -56.5t-219 -153t-145.5 -231t-54 -284.5t54 -284.5
t145.5 -231t219 -153t269.5 -56.5q153 0 290.5 63t237.5 178q6 6 4 15t-8 12l-14 10q-16 8 -25 -4q-92 -104 -219 -161.5t-266 -57.5q-175 0 -320.5 88.5t-229 242.5t-83.5 339t83.5 338.5t229 242t320.5 88.5q139 0 266 -57.5t219 -161.5q9 -12 25 -4l14 11q7 3 8 12.5
t-4 13.5q-100 116 -238 179t-290 63z" />
    <glyph glyph-name="D" unicode="D" horiz-adv-x="1404" 
d="M600 0h-379q-15 0 -26 11t-11 26v1360q0 15 11 26t26 11h379q202 0 364 -92t252.5 -256t90.5 -369t-90.5 -369t-252.5 -256t-364 -92zM600 1415h-379q-7 0 -12.5 -5.5t-5.5 -12.5v-1360q0 -8 5.5 -13.5t12.5 -5.5h379q197 0 354 89.5t245.5 249.5t88.5 360t-88.5 359.5
t-245.5 249t-354 89.5zM600 72h-342v1290h342q133 0 251 -49.5t202 -135t133 -205.5t49 -255t-49 -255t-133 -205.5t-202 -135t-251 -49.5zM274 1343v-1253h326q129 0 243.5 48.5t196.5 131.5t129.5 199.5t47.5 247.5t-47.5 247.5t-129.5 199.5t-196.5 131t-243.5 48h-326z
" />
    <glyph glyph-name="E" unicode="E" horiz-adv-x="1079" 
d="M926 0h-711q-15 0 -25 11t-10 26v1360q0 15 10 26t25 11h690q15 0 26 -11t11 -26v-17q0 -15 -11 -26t-26 -11h-637v-557h592q15 0 25 -10t10 -24v-19q0 -15 -10 -26t-25 -11h-592v-606h658q14 0 24.5 -11t10.5 -26v-16q0 -15 -10.5 -26t-24.5 -11zM905 1415h-690
q-7 0 -12.5 -5.5t-5.5 -12.5v-1360q0 -8 5.5 -13.5t12.5 -5.5h711q6 0 11 6t5 13v16q0 7 -5 13t-11 6h-674v643h608q8 0 13.5 5.5t5.5 12.5v19q0 16 -19 16h-608v594h653q8 0 13.5 5.5t5.5 12.5v17q0 7 -5.5 12.5t-13.5 5.5z" />
    <glyph glyph-name="F" unicode="F" horiz-adv-x="1091" 
d="M233 0h-18q-14 0 -24.5 11t-10.5 26v1360q0 15 10.5 26t24.5 11h721q15 0 26 -11t11 -26v-17q0 -15 -11 -26t-26 -11h-666v-575h607q15 0 25.5 -10t10.5 -25v-18q0 -15 -10.5 -25t-25.5 -10h-607v-643q0 -15 -11 -26t-26 -11zM936 1415h-721q-7 0 -12.5 -5.5t-5.5 -12.5
v-1360q0 -8 5.5 -13.5t12.5 -5.5h18q7 0 13 6t6 13v659h625q7 0 12.5 5.5t5.5 13.5v18q0 8 -5.5 13.5t-12.5 5.5h-625v610h684q8 0 13 5t5 13v17q0 7 -5 12.5t-13 5.5z" />
    <glyph glyph-name="G" unicode="G" horiz-adv-x="1572" 
d="M807 -25q-146 0 -276.5 58t-224.5 156.5t-149 236.5t-55 291t55 290.5t149 236.5t224.5 156.5t276.5 57.5q156 0 298 -64.5t245 -181.5q9 -12 6.5 -27.5t-15.5 -25.5l-14 -10q-27 -17 -47 6q-91 101 -214.5 157t-258.5 56q-170 0 -311.5 -85.5t-223.5 -235.5t-82 -330
t82 -330t223.5 -235.5t311.5 -85.5q250 0 402.5 161.5t160.5 431.5v17h-508q-14 0 -24.5 10t-10.5 25v18q0 15 10.5 26t24.5 11h561q15 0 25 -11t10 -26v-700q0 -12 -8 -20.5t-20 -8.5h-15q-12 0 -20.5 8t-8.5 19l-12 301q-75 -170 -221.5 -261.5t-345.5 -91.5zM807 1442
q-142 0 -269.5 -56.5t-219 -153t-145.5 -231t-54 -284.5t54 -284.5t145.5 -231t219 -153t269.5 -56.5q204 0 350 98.5t215 282.5l17 43l16 -387q0 -11 10 -11h15q12 0 12 11v700q0 7 -6 13t-13 6h-561q-16 0 -16 -19v-18q0 -19 16 -19h524v-33q-6 -280 -163.5 -446
t-415.5 -166q-174 0 -319.5 88.5t-229.5 242.5t-84 339t84 338.5t229.5 242t319.5 88.5q139 0 266 -57.5t219 -161.5q9 -12 25 -4l14 11q7 4 8 13t-4 13q-100 116 -238 179t-290 63z" />
    <glyph glyph-name="H" unicode="H" horiz-adv-x="1384" 
d="M1169 0h-18q-14 0 -24.5 11t-10.5 26v641h-842v-641q0 -15 -10.5 -26t-25.5 -11h-19q-14 0 -24.5 11t-10.5 26v1360q0 15 10.5 26t24.5 11h19q15 0 25.5 -11t10.5 -26v-629h842v629q0 15 10.5 26t24.5 11h18q15 0 26 -11t11 -26v-1360q0 -15 -11 -26t-26 -11zM256 37v659
h879v-659q0 -7 5 -13t11 -6h18q7 0 13 6t6 13v1360q0 7 -5.5 12.5t-13.5 5.5h-18q-6 0 -11 -5.5t-5 -12.5v-647h-879v647q0 7 -5 12.5t-13 5.5h-19q-7 0 -12.5 -5.5t-5.5 -12.5v-1360q0 -8 5.5 -13.5t12.5 -5.5h19q7 0 12.5 5.5t5.5 13.5z" />
    <glyph glyph-name="I" unicode="I" horiz-adv-x="440" 
d="M227 0h-16q-15 0 -26 11t-11 26v1360q0 15 11 26t26 11h16q15 0 26 -11t11 -26v-1360q0 -15 -11 -26t-26 -11zM227 1415h-16q-7 0 -12.5 -5.5t-5.5 -12.5v-1360q0 -8 5.5 -13.5t12.5 -5.5h16q7 0 13 6t6 13v1360q0 7 -5.5 12.5t-13.5 5.5z" />
    <glyph glyph-name="J" unicode="J" horiz-adv-x="1142" 
d="M530 -25q-172 0 -291 91.5t-157 252.5q-3 15 5.5 29t23.5 17l18 4q16 3 27 -5.5t14 -21.5q32 -132 126 -204t234 -72q165 0 252.5 103t87.5 298v930q0 15 10.5 26t24.5 11h19q15 0 26 -11t11 -26v-930q0 -231 -115 -361.5t-316 -130.5zM131 350l-18 -4q-18 -3 -13 -22
q35 -155 149.5 -243.5t280.5 -88.5q193 0 302.5 126t109.5 349v930q0 7 -5 12.5t-13 5.5h-19q-6 0 -11 -5.5t-5 -12.5v-930q0 -199 -94.5 -309.5t-264.5 -110.5q-148 0 -246 75.5t-132 213.5q-5 17 -21 14z" />
    <glyph glyph-name="K" unicode="K" horiz-adv-x="1146" 
d="M1034 0h-30q-28 0 -46 18l-688 680v-661q0 -15 -11 -26t-26 -11h-18q-14 0 -24.5 11t-10.5 26v1360q0 15 10.5 26t24.5 11h18q15 0 26 -11t11 -26v-649l637 665q15 21 45 21h27q18 0 24 -16.5t-6 -28.5l-632 -664l688 -678q13 -12 7 -29.5t-26 -17.5zM920 1401l-650 -678
l701 -692q13 -13 33 -13h30q6 0 7.5 6t-1.5 9l-700 692l645 676q4 5 2 9.5t-8 4.5h-27q-21 0 -32 -14zM233 1415h-18q-7 0 -12.5 -5.5t-5.5 -12.5v-1360q0 -8 5.5 -13.5t12.5 -5.5h18q7 0 13 6t6 13v1360q0 7 -5.5 12.5t-13.5 5.5z" />
    <glyph glyph-name="L" unicode="L" horiz-adv-x="1044" 
d="M907 0h-694q-14 0 -24.5 11t-10.5 26v1360q0 15 10.5 26t24.5 11h18q15 0 26 -11t11 -26v-1307h639q15 0 26 -11t11 -26v-16q0 -15 -11 -26t-26 -11zM231 1415h-18q-6 0 -11 -5.5t-5 -12.5v-1360q0 -7 5 -13t11 -6h694q7 0 13 6t6 13v16q0 7 -6 13t-13 6h-657v1325
q0 7 -5.5 12.5t-13.5 5.5z" />
    <glyph glyph-name="M" unicode="M" horiz-adv-x="1765" 
d="M1544 0h-16q-15 0 -26 11t-11 26v1223l-580 -852q-9 -13 -22 -13h-12q-14 0 -23 13l-580 852v-1223q0 -15 -10.5 -26t-25.5 -11h-17q-15 0 -26 11t-11 26v1360q0 15 11 26t26 11h25q23 0 37 -21l600 -883l600 883q14 21 37 21h24q15 0 26 -11t11 -26v-1360q0 -15 -11 -26
t-26 -11zM897 418l612 901v-1282q0 -7 5.5 -13t13.5 -6h16q8 0 13.5 6t5.5 13v1360q0 7 -5.5 12.5t-13.5 5.5h-24q-17 0 -23 -12l-614 -903l-615 903q-6 12 -22 12h-25q-7 0 -12.5 -5.5t-5.5 -12.5v-1360q0 -8 5.5 -13.5t12.5 -5.5h17q7 0 12.5 5.5t5.5 13.5v1282l612 -901
q4 -4 9 -4h12q4 0 8 4z" />
    <glyph glyph-name="N" unicode="N" horiz-adv-x="1423" 
d="M1206 0h-26q-23 0 -37 18l-871 1252v-1233q0 -15 -10 -26t-24 -11h-19q-15 0 -26 11t-11 26v1360q0 15 11 26t26 11h27q22 0 37 -19l868 -1251v1233q0 15 11 26t26 11h18q14 0 24.5 -11t10.5 -26v-1360q0 -15 -10.5 -26t-24.5 -11zM256 37v1290l901 -1298q7 -11 23 -11
h26q6 0 11.5 6t5.5 13v1360q0 7 -5.5 12.5t-11.5 5.5h-18q-8 0 -13.5 -5.5t-5.5 -12.5v-1291l-901 1299q-10 10 -22 10h-27q-7 0 -12.5 -5.5t-5.5 -12.5v-1360q0 -8 5.5 -13.5t12.5 -5.5h19q7 0 12.5 5.5t5.5 13.5z" />
    <glyph glyph-name="O" unicode="O" horiz-adv-x="1617" 
d="M809 -25q-146 0 -277 58t-225 156.5t-149.5 236.5t-55.5 291t55.5 290.5t149.5 236.5t225 156.5t277 57.5t277 -57.5t225 -156.5t149.5 -236.5t55.5 -290.5t-55.5 -291t-149.5 -236.5t-225 -156.5t-277 -58zM809 1442q-142 0 -269.5 -56.5t-219 -153t-145.5 -231
t-54 -284.5t54 -284.5t145.5 -231t219 -153t269.5 -56.5t269.5 56.5t219 153t145.5 231t54 284.5t-54 284.5t-145.5 231t-219 153t-269.5 56.5zM809 47q-175 0 -321 88.5t-230 242.5t-84 339t84 338.5t230 242t321 88.5t321 -88.5t230 -242t84 -338.5t-84 -339t-230 -242.5
t-321 -88.5zM809 1368q-170 0 -311.5 -85.5t-223 -235t-81.5 -330.5t81.5 -330.5t223 -235t311.5 -85.5t311.5 85.5t223 235t81.5 330.5t-81.5 330.5t-223 235t-311.5 85.5z" />
    <glyph glyph-name="P" unicode="P" horiz-adv-x="1150" 
d="M236 0h-19q-15 0 -25 11t-10 26v1360q0 15 10 26t25 11h361q225 0 359 -119.5t134 -319.5t-134 -319t-359 -119h-306v-520q0 -15 -10.5 -26t-25.5 -11zM578 1415h-361q-7 0 -12.5 -5.5t-5.5 -12.5v-1360q0 -8 5.5 -13.5t12.5 -5.5h19q7 0 12.5 5.5t5.5 13.5v538h324
q218 0 347.5 114t129.5 306t-129.5 306t-347.5 114zM578 629h-324v733h324q193 0 307 -99.5t114 -267.5q0 -167 -114 -266.5t-307 -99.5zM272 1343v-696h306q184 0 294.5 95t110.5 253t-110.5 253t-294.5 95h-306z" />
    <glyph glyph-name="Q" unicode="Q" horiz-adv-x="1617" 
d="M811 -29q-195 0 -357.5 98t-256 268.5t-93.5 375.5t93.5 375t256 268t357.5 98q146 0 276.5 -57.5t224.5 -156.5t149 -236.5t55 -290.5t-52.5 -289.5t-150.5 -239.5l125 -127q10 -10 10 -24t-10 -27l-15 -14q-11 -10 -26 -9t-25 11l-127 129q-187 -152 -434 -152z
M811 1436q-143 0 -270.5 -56.5t-219 -152.5t-145 -230t-53.5 -284q0 -200 90.5 -366.5t249 -262.5t348.5 -96q245 0 430 153l6 6l139 -141q4 -4 12 -4t13 4l12 12q7 7 7 15q0 5 -7 12l-137 139l6 6q100 101 153.5 236.5t53.5 286.5q0 150 -54 284t-145.5 230t-219 152.5
t-269.5 56.5zM811 43q-131 0 -249 52t-202.5 141t-134 213.5t-49.5 263.5q0 185 84 338.5t230 242t321 88.5q174 0 319.5 -88.5t229.5 -242t84 -338.5q0 -140 -50 -266t-145 -226l-258 260q-13 10 -26 0l-13 -12q-10 -13 0 -27l256 -256l-8 -8q-170 -135 -389 -135z
M811 1364q-128 0 -242 -51t-196 -137.5t-130 -207t-48 -255.5q0 -181 81.5 -331t223 -236.5t311.5 -86.5q207 0 371 127l-242 244q-10 10 -10 25t10 26l12 13q10 10 26 10t26 -10l243 -246q87 90 132.5 210t45.5 255t-48 255.5t-129.5 207t-195.5 137.5t-241 51z" />
    <glyph glyph-name="R" unicode="R" horiz-adv-x="1193" 
d="M1096 0h-35q-26 0 -39 20l-369 596q-47 -6 -94 -6h-287v-573q0 -15 -10 -26t-24 -11h-19q-15 0 -26 11t-11 26v1360q0 15 11 26t26 11h340q230 0 363 -110.5t133 -301.5q0 -146 -79 -246.5t-224 -140.5l366 -594q9 -17 1.5 -29t-23.5 -12zM657 635h5l374 -604
q10 -13 25 -13h35q16 0 8 15l-381 612l12 4q147 37 225 133t78 240q0 184 -127.5 288.5t-351.5 104.5h-340q-7 0 -12.5 -5.5t-5.5 -12.5v-1360q0 -8 5.5 -13.5t12.5 -5.5h19q6 0 11 6t5 13v592h305q49 0 98 6zM559 682h-305v680h305q199 0 311.5 -90t112.5 -250t-112.5 -250
t-311.5 -90zM272 1343v-643h287q194 0 300 84t106 238t-106 237.5t-300 83.5h-287z" />
    <glyph glyph-name="S" unicode="S" horiz-adv-x="1118" 
d="M563 -25q-92 0 -171 26t-133.5 69t-90.5 92t-55 102q-7 12 -1 25.5t23 19.5l17 6q14 5 27.5 -2t17.5 -20q33 -94 126.5 -160.5t239.5 -66.5q160 0 258.5 86t98.5 225q0 41 -8.5 75.5t-20.5 58.5t-36.5 45.5t-44 34.5t-57 28t-61 22t-69.5 21l-50 16q-41 12 -66 20t-64 22
t-64 26t-58 31t-53.5 38.5t-43 47t-35 57.5t-21 68.5t-8.5 82.5q0 161 116 274t281 113q139 0 237.5 -61t145.5 -178q5 -16 -2 -31t-25 -19l-18 -4q-12 -3 -24.5 3.5t-16.5 19.5q-35 88 -111.5 135t-185.5 47q-128 0 -217.5 -87.5t-89.5 -211.5q0 -30 4 -56t14.5 -48.5
t20.5 -40.5t29.5 -34.5t33.5 -28.5t41.5 -24.5t43.5 -20.5t50 -19t50.5 -16.5t54.5 -16.5q38 -12 47 -14q71 -21 108.5 -34.5t97 -44.5t90 -66.5t55 -95t24.5 -134.5t-28 -145.5t-81 -128.5t-142 -93t-200 -35zM158 299l-19 -6q-17 -7 -10 -23q18 -51 53 -98.5t87 -88.5
t128.5 -66t165.5 -25q107 0 192 33.5t136 89.5t77.5 123t26.5 139q0 88 -26.5 150t-90.5 102.5t-104.5 57t-133.5 44.5q-3 1 -5 2l-47 15q-41 12 -63 19t-58 20t-56 22.5t-48.5 25.5t-44.5 31.5t-34.5 37.5t-28 46t-16 55t-6.5 66q0 131 95.5 224.5t228.5 93.5
q115 0 195.5 -50.5t117.5 -144.5q7 -14 21 -10l18 4q9 1 12.5 8.5t0.5 13.5q-43 112 -137.5 172t-227.5 60q-157 0 -268 -108.5t-111 -262.5q0 -73 26 -132t58 -93.5t95.5 -67.5t102 -46t115.5 -37q2 -1 3 -1q32 -8 49 -14q34 -10 50 -15.5t46 -15.5t45.5 -17.5t40 -20
t37.5 -24t30.5 -28t26.5 -34.5t18.5 -40.5t13 -49.5t3.5 -58q0 -148 -104 -239t-271 -91q-153 0 -251.5 71t-131.5 169q-5 15 -22 12z" />
    <glyph glyph-name="T" unicode="T" horiz-adv-x="1103" 
d="M561 0h-18q-15 0 -26 11t-11 26v1306h-350q-15 0 -26 11t-11 26v17q0 15 11 26t26 11h792q14 0 24.5 -11t10.5 -26v-17q0 -15 -10.5 -26t-24.5 -11h-352v-1306q0 -15 -10.5 -26t-24.5 -11zM948 1415h-792q-8 0 -13.5 -5.5t-5.5 -12.5v-17q0 -7 5.5 -12.5t13.5 -5.5h368
v-1325q0 -7 6 -13t13 -6h18q6 0 11.5 6t5.5 13v1325h370q17 0 17 18v17q0 18 -17 18z" />
    <glyph glyph-name="U" unicode="U" horiz-adv-x="1384" 
d="M692 -27q-232 0 -371 148.5t-139 396.5v879q0 15 11 26t26 11h17q15 0 25.5 -11t10.5 -26v-879q0 -207 114 -331t306 -124t306 124t114 331v879q0 15 11 26t26 11h18q14 0 24.5 -11t10.5 -26v-879q0 -248 -138.5 -396.5t-371.5 -148.5zM236 1415h-17q-7 0 -12.5 -5.5
t-5.5 -12.5v-879q0 -239 133.5 -382.5t357.5 -143.5t359 143.5t135 382.5v879q0 7 -5.5 12.5t-13.5 5.5h-18q-8 0 -13.5 -5.5t-5.5 -12.5v-879q0 -215 -119.5 -344t-318.5 -129t-318.5 129t-119.5 344v879q0 7 -5 12.5t-13 5.5z" />
    <glyph glyph-name="V" unicode="V" horiz-adv-x="1271" 
d="M651 0h-28q-33 0 -43 29l-510 1368q-5 14 3 25.5t23 11.5h29q13 0 24.5 -8.5t16.5 -22.5l471 -1262l471 1262q5 14 16.5 22.5t24.5 8.5h29q16 0 24 -10t2 -27l-510 -1368q-10 -29 -43 -29zM125 1415h-29q-11 0 -8 -12l510 -1368q4 -19 25 -19h28q19 0 27 19l508 1368
q3 12 -8 12h-29q-18 0 -25 -18l-487 -1309l-487 1309q-7 18 -25 18z" />
    <glyph glyph-name="W" unicode="W" horiz-adv-x="1988" 
d="M1419 0h-26q-14 0 -26.5 9t-16.5 22l-355 1226l-354 -1226q-4 -13 -16.5 -22t-26.5 -9h-27q-13 0 -24.5 8.5t-16.5 22.5l-456 1366q-4 15 3.5 26t22.5 11h27q14 0 26.5 -9t16.5 -22l412 -1239l358 1237q5 14 16.5 23.5t26.5 9.5h25q15 0 26.5 -9.5t16.5 -23.5l358 -1237
l412 1239q4 13 16.5 22t26.5 9h26q16 0 24.5 -10t2.5 -27l-457 -1366q-5 -14 -16.5 -22.5t-24.5 -8.5zM623 37l372 1284l373 -1284q1 -9 9 -15t16 -6h26q17 0 25 19l457 1368q3 12 -11 12h-26q-18 0 -25 -18l-432 -1295l-375 1293q-3 20 -24 20h-25q-22 0 -25 -20
l-374 -1293l-432 1295q-7 18 -25 18h-27q-13 0 -10 -12l457 -1368q8 -19 24 -19h27q8 0 16 6t9 15z" />
    <glyph glyph-name="X" unicode="X" horiz-adv-x="1204" 
d="M1104 0h-39q-27 0 -39 18l-424 639l-422 -639q-12 -18 -39 -18h-39q-18 0 -25 13t3 28l467 702l-430 648q-10 17 -3 30t25 13h39q23 0 37 -21l387 -584l389 584q14 21 37 21h39q18 0 25.5 -14t-2.5 -29l-431 -648l467 -702q10 -15 2 -29t-24 -12zM164 29l438 661
l440 -661q9 -13 23 -13h39q5 0 8 4.5t0 10.5l-473 712l436 658q3 5 1 9.5t-9 4.5h-39q-13 0 -22 -12l-404 -606l-401 606q-9 12 -23 12h-39q-6 0 -8.5 -4.5t0.5 -9.5l436 -658l-473 -712q-3 -5 -0.5 -10t8.5 -5h39q14 0 23 13z" />
    <glyph glyph-name="Y" unicode="Y" horiz-adv-x="1325" 
d="M672 0h-19q-13 0 -24 11t-11 24v481l-540 877q-9 13 0 27t24 14h37q26 0 39 -23l486 -803l485 803q13 23 39 23h37q17 0 24 -13t-2 -28l-538 -877v-481q0 -14 -11 -24.5t-26 -10.5zM139 1415h-37q-6 0 -8.5 -4.5t0.5 -9.5l543 -881v-485q0 -19 16 -19h19q7 0 12.5 5.5
t5.5 13.5v485l541 881q7 14 -6 14h-37q-14 0 -25 -14l-499 -828l-502 828q-7 14 -23 14z" />
    <glyph glyph-name="Z" unicode="Z" horiz-adv-x="1183" 
d="M1026 0h-872q-15 0 -26 10.5t-11 24.5v24q0 26 14 43l803 1241h-746q-13 0 -23.5 10.5t-10.5 24.5v19q0 15 10 26t24 11h820q15 0 25.5 -11t10.5 -26v-25q0 -25 -12 -43l-805 -1239h799q15 0 26 -11t11 -26v-18q0 -14 -11 -24.5t-26 -10.5zM1008 1415h-820q-6 0 -11 -5.5
t-5 -12.5v-19q0 -7 5 -12.5t11 -5.5h779l-822 -1266q-10 -17 -10 -35v-24q0 -7 5.5 -13t13.5 -6h872q7 0 12.5 5.5t5.5 13.5v18q0 8 -5.5 13.5t-12.5 5.5h-831l821 1267q10 17 10 33v25q0 7 -5 12.5t-13 5.5z" />
    <glyph glyph-name="bracketleft" unicode="[" horiz-adv-x="649" 
d="M459 -195h-244q-15 0 -26 11t-11 26v1751q0 14 11 24.5t26 10.5h244q15 0 25 -10.5t10 -24.5v-18q0 -15 -10 -26t-25 -11h-191v-1642h191q15 0 25 -11t10 -26v-17q0 -15 -10 -26t-25 -11zM459 1612h-244q-7 0 -12.5 -5.5t-5.5 -13.5v-1751q0 -8 5.5 -13t12.5 -5h244
q7 0 12.5 5t5.5 13v17q0 7 -5.5 12.5t-12.5 5.5h-209v1679h209q7 0 12.5 5.5t5.5 13.5v18q0 8 -5.5 13.5t-12.5 5.5z" />
    <glyph glyph-name="backslash" unicode="\" horiz-adv-x="915" 
d="M762 -195h-25q-33 0 -43 31l-569 1757q-6 17 3 26t24 9h24q33 0 43 -31l569 -1757q6 -17 -2.5 -26t-23.5 -9zM176 1612h-24q-12 0 -9 -13l568 -1757q6 -18 26 -18h25q11 0 8 12l-567 1755q-7 21 -27 21z" />
    <glyph glyph-name="bracketright" unicode="]" horiz-adv-x="649" 
d="M436 -195h-243q-15 0 -25 11t-10 26v17q0 15 10 26t25 11h190v1642h-190q-15 0 -25 11t-10 26v18q0 14 10 24.5t25 10.5h243q15 0 26 -10.5t11 -24.5v-1751q0 -15 -11 -26t-26 -11zM436 1612h-243q-7 0 -13 -6t-6 -13v-18q0 -7 6 -13t13 -6h208v-1679h-208
q-8 0 -13.5 -5.5t-5.5 -12.5v-17q0 -7 5.5 -12.5t13.5 -5.5h243q8 0 13.5 5.5t5.5 12.5v1751q0 7 -5.5 13t-13.5 6z" />
    <glyph glyph-name="asciicircum" unicode="^" horiz-adv-x="1028" 
d="M870 813h-30q-26 0 -39 23l-287 499l-285 -499q-13 -23 -39 -23h-30q-18 0 -25.5 10.5t0.5 30.5l318 553q17 27 47 27h30q31 0 48 -27l315 -553q9 -15 2 -28t-25 -13zM213 844l301 526l301 -526q10 -13 25 -13h30q6 0 8.5 5t0.5 8l-318 555q-10 16 -31 16h-30
q-20 0 -33 -16l-315 -555q-3 -4 -1 -8.5t9 -4.5h30q16 0 23 13z" />
    <glyph glyph-name="underscore" unicode="_" horiz-adv-x="870" 
d="M776 -295h-684q-15 0 -26 11t-11 26v16q0 15 11 26t26 11h684q15 0 26 -11t11 -26v-16q0 -15 -11 -26t-26 -11zM776 -223h-684q-7 0 -12.5 -5.5t-5.5 -13.5v-16q0 -8 5 -13t13 -5h684q8 0 13.5 5.5t5.5 12.5v16q0 8 -5.5 13.5t-13.5 5.5z" />
    <glyph glyph-name="grave" unicode="`" horiz-adv-x="585" 
d="M381 1204h-14q-20 0 -31 17l-139 225q-9 12 -2 26.5t24 14.5h35q30 0 41 -25l104 -227q6 -13 -0.5 -22t-17.5 -9zM254 1468h-35q-12 0 -8 -12l139 -225q5 -8 17 -8h14q6 0 2 8l-104 223q-7 14 -25 14z" />
    <glyph glyph-name="a" unicode="a" 
d="M600 -27q-143 0 -262.5 72.5t-188.5 198.5t-69 276q0 230 151 388.5t369 158.5q138 0 251 -67t181 -189v195q0 15 10.5 25.5t24.5 10.5h18q15 0 26 -10.5t11 -25.5v-971q0 -14 -11 -24.5t-26 -10.5h-18q-13 0 -24 11t-11 24v196q-68 -122 -181 -190t-251 -68zM600 1049
q-138 0 -253.5 -70t-182 -191.5t-66.5 -267.5q0 -222 145.5 -375t356.5 -153q142 0 256 74t176 206l17 37v-274q0 -8 5.5 -13.5t12.5 -5.5h18q7 0 13 6t6 13v971q0 7 -5.5 12.5t-13.5 5.5h-18q-7 0 -12.5 -5t-5.5 -13v-275l-17 39q-62 131 -176 205t-256 74zM600 45
q-124 0 -227 63t-162 172t-59 240t59 240t162 172t227 63q189 0 319 -137.5t130 -337.5t-130 -337.5t-319 -137.5zM600 977q-181 0 -305.5 -132.5t-124.5 -324.5t124.5 -324.5t305.5 -132.5t306.5 132.5t125.5 324.5t-125.5 324.5t-306.5 132.5z" />
    <glyph glyph-name="b" unicode="b" 
d="M692 -27q-138 0 -252 68t-180 190v-196q0 -13 -11 -24t-24 -11h-18q-15 0 -26 10.5t-11 24.5v1362q0 15 11 26t26 11h18q14 0 24.5 -11t10.5 -26v-586q68 122 181 189t251 67q218 0 369 -158.5t151 -388.5q0 -150 -69 -276t-188.5 -198.5t-262.5 -72.5zM242 35v274
l18 -37q60 -132 174.5 -206t257.5 -74q211 0 356.5 153t145.5 375q0 146 -66.5 267.5t-182 191.5t-253.5 70q-142 0 -257 -74t-175 -205l-18 -39v666q0 18 -17 18h-18q-8 0 -13.5 -5.5t-5.5 -12.5v-1362q0 -7 6 -13t13 -6h18q7 0 12 5.5t5 13.5zM692 45q-189 0 -319.5 138
t-130.5 337t130.5 337t319.5 138q188 0 318.5 -138t130.5 -337t-130.5 -337t-318.5 -138zM692 977q-181 0 -306.5 -132.5t-125.5 -324.5t125.5 -324.5t306.5 -132.5t305.5 132.5t124.5 324.5t-124.5 324.5t-305.5 132.5z" />
    <glyph glyph-name="c" unicode="c" horiz-adv-x="1124" 
d="M614 -27q-146 0 -269.5 73.5t-195 199.5t-71.5 274t71.5 274t195 199.5t269.5 73.5q128 0 241 -58t189 -163q9 -12 6 -29.5t-18 -23.5l-16 -9q-10 -6 -24 -2.5t-21 13.5q-63 87 -156.5 134.5t-200.5 47.5q-184 0 -315 -134t-131 -323t131 -323t315 -134q106 0 200 48.5
t157 136.5q7 10 21 13t24 -3l16 -8q14 -7 17 -24.5t-5 -30.5q-77 -105 -190 -163.5t-240 -58.5zM614 1049q-106 0 -202 -42t-165 -112.5t-110 -168.5t-41 -206q0 -143 69 -264.5t188.5 -192.5t260.5 -71q125 0 234 56t182 159q8 17 -6 26l-16 9q-13 6 -23 -4
q-66 -92 -163 -142.5t-208 -50.5q-94 0 -180 37.5t-148 101.5t-99 151.5t-37 184.5t37 184.5t99 151.5t148 101.5t180 37.5q110 0 207.5 -49.5t163.5 -140.5q10 -14 23 -4l16 8q15 9 6 27q-74 101 -183 157t-233 56z" />
    <glyph glyph-name="d" unicode="d" 
d="M602 -27q-144 0 -264 72.5t-189 198.5t-69 276q0 151 69 277t189 198t264 72q137 0 250.5 -67.5t179.5 -188.5v586q0 15 10.5 26t24.5 11h18q15 0 26 -11t11 -26v-1362q0 -14 -11 -24.5t-26 -10.5h-18q-13 0 -24 11t-11 24v196q-66 -122 -180 -190t-250 -68zM602 1049
q-139 0 -255 -70t-182.5 -191.5t-66.5 -267.5t66.5 -267.5t182.5 -191t255 -69.5q141 0 255.5 74t174.5 206l19 37v-274q0 -7 5 -13t11 -6h18q7 0 13 6t6 13v1362q0 7 -5.5 12.5t-13.5 5.5h-18q-6 0 -11 -5.5t-5 -12.5v-666l-19 39q-60 130 -174.5 204.5t-255.5 74.5z
M602 45q-189 0 -319.5 138t-130.5 337t130.5 337t319.5 138q188 0 318.5 -138t130.5 -337t-130.5 -337t-318.5 -138zM602 977q-181 0 -306.5 -132.5t-125.5 -324.5t125.5 -324.5t306.5 -132.5t305.5 132.5t124.5 324.5t-124.5 324.5t-305.5 132.5z" />
    <glyph glyph-name="e" unicode="e" horiz-adv-x="1159" 
d="M608 -27q-148 0 -269.5 71.5t-191 197t-69.5 278.5q0 233 146 390t364 157q199 0 336 -137q155 -158 155 -410q0 -19 -13 -32t-32 -13h-864q17 -177 141.5 -294.5t296.5 -117.5q201 0 334 148q20 20 45 6l21 -12q14 -9 16 -26t-10 -29q-157 -177 -406 -177zM588 1049
q-138 0 -251 -69t-177 -190.5t-64 -269.5q0 -226 147 -377t365 -151q243 0 393 170q6 6 5 13.5t-9 12.5l-18 13q-15 8 -25 -2q-133 -154 -346 -154q-182 0 -312.5 125.5t-143.5 312.5v11h882q11 0 19 8t8 18q1 118 -37.5 221t-112.5 177q-134 131 -323 131zM1004 557v-10
h-852v10q12 187 137 312.5t299 125.5q170 0 288 -124t128 -314zM170 565h815q-12 180 -124 296t-273 116q-164 0 -283.5 -117.5t-134.5 -294.5z" />
    <glyph glyph-name="f" unicode="f" horiz-adv-x="669" 
d="M303 0h-18q-13 0 -24 11t-11 24v917h-148q-15 0 -25.5 10.5t-10.5 24.5v19q0 15 10.5 25.5t25.5 10.5h148v27q0 33 3 64t12 69t23.5 71t40 65.5t59 56t82.5 39t108 18.5q36 0 36 -35v-18q0 -14 -9.5 -24.5t-22.5 -10.5q-127 -6 -184.5 -76t-57.5 -219v-27h240
q14 0 24 -10.5t10 -25.5v-19q0 -14 -10.5 -24.5t-23.5 -10.5h-240v-917q0 -14 -11 -24.5t-26 -10.5zM266 1024h-164q-8 0 -13 -5t-5 -13v-19q0 -6 5.5 -11t12.5 -5h164v-936q0 -7 6 -13t13 -6h18q7 0 13 6t6 13v936h258q6 0 11 5t5 11v19q0 7 -5 12.5t-11 5.5h-258v45
q0 155 62 230t196 81q16 3 16 19v18q0 8 -5.5 13.5t-12.5 5.5q-74 -4 -130.5 -28.5t-90 -60t-55 -84.5t-29 -95.5t-7.5 -98.5v-45z" />
    <glyph glyph-name="g" unicode="g" 
d="M604 -410q-262 0 -428 166q-13 11 -12.5 28.5t18.5 27.5l17 10q10 8 23 6t22 -12q132 -135 360 -135q106 0 189.5 38t134 101.5t76.5 139t26 157.5v153q-66 -115 -178.5 -178t-251.5 -63q-223 0 -371.5 148.5t-148.5 369.5q0 146 67.5 265.5t187 187t265.5 67.5
q138 0 251 -64t179 -178v181q0 15 11 25.5t26 10.5h18q14 0 24.5 -10.5t10.5 -25.5v-889q0 -79 -20.5 -155t-63.5 -143.5t-103 -118.5t-145 -80.5t-184 -29.5zM209 -193l-16 -10q-21 -12 -5 -28q160 -160 416 -160q95 0 177.5 28.5t140.5 77.5t100 114t62 138.5t20 149.5
v889q0 7 -5.5 12.5t-13.5 5.5h-18q-7 0 -12.5 -5t-5.5 -13v-254l-17 34q-62 123 -176 193t-256 70q-215 0 -358.5 -143.5t-143.5 -358.5q0 -214 143.5 -358t358.5 -144q142 0 256 70t176 194l17 35v-227q0 -85 -27.5 -164t-80 -144.5t-140 -105t-197.5 -39.5
q-240 0 -373 139q-11 11 -22 4zM600 100q-192 0 -320 128t-128 319q0 192 128 320t320 128t320.5 -128t128.5 -320q0 -191 -128.5 -319t-320.5 -128zM600 977q-184 0 -307 -122.5t-123 -307.5q0 -183 123 -305.5t307 -122.5t307 122.5t123 305.5q0 185 -123 307.5
t-307 122.5z" />
    <glyph glyph-name="h" unicode="h" horiz-adv-x="1181" 
d="M975 0h-19q-15 0 -25.5 10.5t-10.5 24.5v598q0 55 -17.5 112t-53 110.5t-99 87.5t-144.5 34q-102 0 -183 -55t-122 -137t-41 -171v-579q0 -14 -11 -24.5t-26 -10.5h-18q-13 0 -24 11t-11 24v1362q0 15 10.5 26t24.5 11h18q15 0 26 -11t11 -26v-529q57 95 147 147t199 52
q95 0 173 -38t127.5 -100t76.5 -139t27 -157v-598q0 -13 -11 -24t-24 -11zM606 995q103 0 180.5 -54.5t114.5 -135.5t37 -172v-598q0 -8 5.5 -13.5t12.5 -5.5h19q6 0 11 6t5 13v598q0 77 -25.5 150t-72.5 133t-122 96.5t-165 36.5q-112 0 -203 -57.5t-145 -162.5l-16 -32
v600q0 7 -5.5 12.5t-13.5 5.5h-18q-17 0 -17 -18v-1362q0 -8 5 -13.5t12 -5.5h18q7 0 13 6t6 13v579q0 93 43 179t128 144t193 58z" />
    <glyph glyph-name="i" unicode="i" horiz-adv-x="421" 
d="M221 0h-18q-15 0 -26 10.5t-11 24.5v971q0 15 11 25.5t26 10.5h18q14 0 24.5 -10.5t10.5 -25.5v-971q0 -13 -11 -24t-24 -11zM221 1024h-18q-8 0 -13.5 -5.5t-5.5 -12.5v-971q0 -7 6 -13t13 -6h18q7 0 12 5.5t5 13.5v971q0 18 -17 18zM211 1253q-28 0 -48 20t-20 48
t20 48t48 20t48 -20t20 -48t-20 -48t-48 -20zM211 1370q-20 0 -34.5 -14.5t-14.5 -34.5q0 -21 14 -35t35 -14q22 0 35.5 13.5t13.5 35.5q0 21 -14 35t-35 14z" />
    <glyph glyph-name="j" unicode="j" horiz-adv-x="421" 
d="M-86 -338v19q0 15 10 24.5t25 11.5q129 6 174 66.5t45 187.5v1035q0 15 10.5 25.5t24.5 10.5h18q15 0 26 -10.5t11 -25.5v-1035q0 -172 -74 -255t-233 -89q-18 -1 -27.5 9.5t-9.5 25.5zM221 1024h-18q-6 0 -11.5 -5.5t-5.5 -12.5v-1035q0 -64 -9.5 -109t-34.5 -82.5
t-73 -57.5t-120 -23q-17 0 -17 -18v-19q0 -16 19 -16q152 6 220.5 82.5t68.5 242.5v1035q0 7 -5.5 12.5t-13.5 5.5zM213 1253q-28 0 -48 20t-20 48t20 48t48 20t48 -20t20 -48t-20 -48t-48 -20zM213 1370q-20 0 -34.5 -14.5t-14.5 -34.5q0 -21 14 -35t35 -14t35 14t14 35
q0 20 -14.5 34.5t-34.5 14.5z" />
    <glyph glyph-name="k" unicode="k" horiz-adv-x="983" 
d="M868 0h-37q-24 0 -43 16l-530 494v-475q0 -14 -11 -24.5t-26 -10.5h-18q-13 0 -24 11t-11 24v1362q0 15 10.5 26t24.5 11h18q15 0 26 -11t11 -26v-832l467 459q18 18 45 18h39q20 0 25.5 -17.5t-7.5 -29.5l-469 -458l529 -492q15 -13 7.5 -30t-26.5 -15zM737 1012
l-483 -475l547 -508q17 -13 30 -13h37q7 0 9 6t-3 11l-540 504l481 471q4 4 2 10t-8 6h-39q-18 0 -33 -12zM221 1415h-18q-17 0 -17 -18v-1362q0 -8 5 -13.5t12 -5.5h18q7 0 13 6t6 13v1362q0 7 -5.5 12.5t-13.5 5.5z" />
    <glyph glyph-name="l" unicode="l" horiz-adv-x="419" 
d="M219 0h-18q-13 0 -24 11t-11 24v1362q0 15 10.5 26t24.5 11h18q15 0 26 -11t11 -26v-1362q0 -14 -11 -24.5t-26 -10.5zM219 1415h-18q-6 0 -11.5 -5.5t-5.5 -12.5v-1362q0 -7 5.5 -13t11.5 -6h18q7 0 13 6t6 13v1362q0 7 -5.5 12.5t-13.5 5.5z" />
    <glyph glyph-name="m" unicode="m" horiz-adv-x="1734" 
d="M1526 0h-19q-13 0 -23.5 10.5t-10.5 24.5v633q0 58 -16.5 112t-48.5 98.5t-85 71.5t-119 27q-58 0 -107 -21t-82.5 -55t-57 -77.5t-34 -88t-10.5 -86.5v-614q0 -14 -10.5 -24.5t-25.5 -10.5h-19q-14 0 -24.5 11t-10.5 24v633q0 58 -16.5 112t-48 98.5t-84.5 71.5t-119 27
q-61 0 -111.5 -22t-83 -56.5t-55 -79t-32 -87.5t-9.5 -83v-614q0 -14 -11 -24.5t-26 -10.5h-18q-13 0 -24 11t-11 24v971q0 15 10.5 25.5t24.5 10.5h18q15 0 26 -10.5t11 -25.5v-113q47 83 123 128.5t168 45.5q112 0 196.5 -55.5t127.5 -157.5q47 101 132.5 157t192.5 56
q90 0 160.5 -34t112.5 -91.5t64 -127t22 -146.5v-633q0 -14 -11 -24.5t-26 -10.5zM1204 995q71 0 127.5 -28.5t90.5 -76t51.5 -104.5t17.5 -118v-633q0 -7 5 -13t11 -6h19q7 0 12.5 5.5t5.5 13.5v633q0 73 -20.5 140t-60.5 121.5t-107 87t-152 32.5q-107 0 -191 -58
t-128 -164l-8 -20l-9 20q-13 37 -33.5 71t-56 70.5t-93.5 58.5t-130 22q-95 0 -172 -51.5t-121 -145.5l-16 -37v191q0 7 -5.5 12.5t-13.5 5.5h-18q-6 0 -11 -5.5t-5 -12.5v-971q0 -7 5 -13t11 -6h18q7 0 13 6t6 13v614q0 56 19 114.5t55 111.5t97.5 86.5t137.5 33.5
q71 0 127.5 -28.5t90.5 -76t51.5 -104.5t17.5 -118v-633q0 -7 5 -13t11 -6h19q7 0 12.5 5.5t5.5 13.5v614q0 56 19 114.5t55 111.5t97.5 86.5t137.5 33.5z" />
    <glyph glyph-name="n" unicode="n" horiz-adv-x="1181" 
d="M975 0h-19q-15 0 -25.5 10.5t-10.5 24.5v598q0 55 -17.5 112t-52 110.5t-98 87.5t-144.5 34q-103 0 -184.5 -55t-122.5 -137t-41 -171v-579q0 -14 -11 -24.5t-26 -10.5h-18q-13 0 -24 11t-11 24v971q0 15 10.5 25.5t24.5 10.5h18q15 0 26 -10.5t11 -25.5v-138
q57 95 147.5 147t200.5 52q94 0 172 -38t127 -100t76 -139t27 -157v-598q0 -13 -11 -24t-24 -11zM608 995q102 0 179 -54.5t114 -135.5t37 -172v-598q0 -8 5.5 -13.5t12.5 -5.5h19q16 0 16 19v598q0 77 -25.5 150t-72 133t-121 96.5t-164.5 36.5q-113 0 -204.5 -57.5
t-145.5 -162.5l-16 -32v209q0 7 -5.5 12.5t-13.5 5.5h-18q-6 0 -11.5 -5.5t-5.5 -12.5v-971q0 -7 5.5 -13t11.5 -6h18q7 0 13 6t6 13v579q0 93 43 179t129 144t194 58z" />
    <glyph glyph-name="o" unicode="o" horiz-adv-x="1230" 
d="M614 -27q-145 0 -268 73.5t-194.5 199.5t-71.5 274t71.5 274t194.5 199.5t268 73.5t269 -73.5t196 -199.5t72 -274t-72 -274t-196 -199.5t-269 -73.5zM614 1049q-140 0 -259.5 -70.5t-189 -192.5t-69.5 -266q0 -143 69.5 -264.5t189 -192.5t259.5 -71q141 0 260.5 71
t189 192.5t69.5 264.5q0 144 -69.5 266t-189 192.5t-260.5 70.5zM614 45q-94 0 -180 37.5t-147.5 101.5t-98 151.5t-36.5 184.5t36.5 184.5t98 151.5t147.5 101.5t180 37.5q126 0 232.5 -63.5t168.5 -173t62 -238.5t-62 -238.5t-168.5 -173t-232.5 -63.5zM614 977
q-184 0 -314 -134t-130 -323t130 -323t314 -134q121 0 224 61t163 166.5t60 229.5t-60 229.5t-163 166.5t-224 61z" />
    <glyph glyph-name="p" unicode="p" 
d="M225 -391h-18q-13 0 -24 10.5t-11 24.5v1362q0 15 10.5 25.5t24.5 10.5h18q15 0 26 -10.5t11 -25.5v-195q66 121 179 188.5t251 67.5q144 0 263.5 -72t188 -198t68.5 -277q0 -150 -68.5 -276t-188 -198.5t-263.5 -72.5q-138 0 -251 68t-179 190v-587q0 -14 -11 -24.5
t-26 -10.5zM225 1024h-18q-6 0 -11.5 -5.5t-5.5 -12.5v-1362q0 -6 5.5 -11.5t11.5 -5.5h18q7 0 13 5.5t6 11.5v665l16 -37q61 -132 176 -206t256 -74q139 0 255 69.5t182.5 191t66.5 267.5t-66.5 267.5t-182.5 191.5t-255 70q-141 0 -255.5 -74t-176.5 -205l-16 -39v275
q0 7 -5.5 12.5t-13.5 5.5zM692 45q-124 0 -227 63t-162 172t-59 240t59 240t162 172t227 63q189 0 319 -137.5t130 -337.5t-130 -337.5t-319 -137.5zM692 977q-181 0 -305.5 -132.5t-124.5 -324.5t124.5 -324.5t305.5 -132.5t305.5 132.5t124.5 324.5t-124.5 324.5
t-305.5 132.5z" />
    <glyph glyph-name="q" unicode="q" horiz-adv-x="1294" 
d="M1087 -391h-18q-15 0 -26 10.5t-11 24.5v587q-66 -122 -179 -190t-251 -68q-144 0 -263.5 72.5t-188 198.5t-68.5 276q0 151 68.5 277t188 198t263.5 72q138 0 251 -67.5t179 -188.5v195q0 15 11 25.5t26 10.5h18q14 0 24.5 -10.5t10.5 -25.5v-1362q0 -14 -11 -24.5
t-24 -10.5zM1034 272l17 37v-665q0 -6 5.5 -11.5t12.5 -5.5h18q6 0 11.5 5.5t5.5 11.5v1362q0 7 -5.5 12.5t-11.5 5.5h-18q-7 0 -12.5 -5t-5.5 -13v-275l-17 39q-62 131 -176.5 205t-255.5 74q-139 0 -255 -70t-182.5 -191.5t-66.5 -267.5t66.5 -267.5t182.5 -191t255 -69.5
q141 0 256 74t176 206zM602 45q-124 0 -227 63t-162 172t-59 240t59 240t162 172t227 63q189 0 319 -137.5t130 -337.5t-130 -337.5t-319 -137.5zM602 977q-181 0 -305.5 -132.5t-124.5 -324.5t124.5 -324.5t305.5 -132.5t305.5 132.5t124.5 324.5t-124.5 324.5
t-305.5 132.5z" />
    <glyph glyph-name="r" unicode="r" horiz-adv-x="706" 
d="M221 0h-16q-15 0 -26 10.5t-11 24.5v971q0 15 11 25.5t26 10.5h16q15 0 26 -10.5t11 -25.5v-166q54 103 142 161.5t202 65.5q39 0 39 -37v-35q0 -14 -10 -25t-25 -12q-163 -8 -255.5 -121.5t-92.5 -306.5v-495q0 -14 -11 -24.5t-26 -10.5zM221 1024h-16q-8 0 -13.5 -5.5
t-5.5 -12.5v-971q0 -6 6 -11.5t13 -5.5h16q7 0 13 5.5t6 11.5v495q0 201 97.5 320.5t268.5 126.5q6 0 11.5 5.5t5.5 12.5v35q0 8 -5.5 13.5t-13.5 5.5q-118 -7 -207 -72.5t-139 -181.5l-18 -41v252q0 7 -5.5 12.5t-13.5 5.5z" />
    <glyph glyph-name="s" unicode="s" horiz-adv-x="890" 
d="M442 -25q-135 0 -223.5 65t-120.5 153q-5 16 2 29.5t25 17.5l18 4q12 3 24 -4t17 -19q24 -64 92.5 -109.5t165.5 -45.5q134 0 198.5 64t64.5 149q0 40 -11.5 69t-28.5 48t-53 35t-68 25t-91 23q-138 35 -196 66q-134 74 -134 231q0 123 90.5 207t222.5 84
q104 0 183 -51.5t114 -143.5q6 -14 -0.5 -29t-21.5 -18l-19 -6q-12 -3 -25.5 3.5t-17.5 19.5q-54 135 -213 135q-94 0 -158.5 -58t-64.5 -143q0 -40 13 -70t32.5 -50t57 -37t71.5 -27.5t92 -24.5q45 -11 65 -16.5t61 -19.5t61.5 -26.5t49.5 -35t43 -48t25 -62t11 -80.5
q0 -56 -21.5 -109t-63.5 -97t-111.5 -71t-156.5 -27zM147 227l-18 -4q-19 -3 -12 -24q29 -82 113 -144.5t212 -62.5q162 0 249 85.5t87 201.5q0 41 -10 75t-23.5 58t-40 45t-47.5 33t-58.5 24.5t-59.5 18.5t-64 16q-58 14 -94 24.5t-75.5 29t-61 40.5t-35.5 55.5t-14 77.5
q0 92 70 155.5t171 63.5q82 0 142 -38.5t88 -108.5q7 -14 22 -10l17 4q19 7 12 24q-34 88 -107.5 136.5t-173.5 48.5q-124 0 -209.5 -79.5t-85.5 -195.5q0 -42 11 -77.5t26.5 -60.5t43.5 -46.5t50.5 -34t61 -25.5t61 -19t62.5 -15q130 -32 175 -56q88 -56 91 -163
q0 -95 -72 -163.5t-209 -68.5q-103 0 -175.5 49.5t-98.5 118.5q-6 16 -21 12z" />
    <glyph glyph-name="t" unicode="t" horiz-adv-x="700" 
d="M520 -10q-129 0 -190 59q-78 75 -78 234v669h-178q-14 0 -24.5 11t-10.5 26v17q0 15 10.5 25.5t24.5 10.5h178v181q0 14 11 24t26 10h18q14 0 24.5 -10.5t10.5 -23.5v-181h223q14 0 24.5 -10.5t10.5 -25.5v-17q0 -15 -10.5 -26t-24.5 -11h-223v-669q0 -117 49 -166
q51 -46 174 -37q39 3 39 -35v-18q0 -14 -10 -24.5t-23 -10.5q-20 -2 -51 -2zM270 1024h-196q-6 0 -11.5 -5.5t-5.5 -12.5v-17q0 -7 5.5 -12.5t11.5 -5.5h196v-688q0 -154 72 -220q70 -66 227 -53q7 0 12 5.5t5 11.5v18q0 7 -5.5 12.5t-13.5 5.5q-130 -11 -188 41
q-53 50 -53 179v688h239q6 0 11.5 5.5t5.5 12.5v17q0 7 -5.5 12.5t-11.5 5.5h-239v199q0 6 -6 11t-13 5h-18q-7 0 -13 -5t-6 -11v-199z" />
    <glyph glyph-name="u" unicode="u" horiz-adv-x="1181" 
d="M573 -25q-95 0 -173 38t-127.5 100.5t-76 139t-26.5 157.5v596q0 15 11 25.5t26 10.5h18q14 0 24.5 -10.5t10.5 -25.5v-596q0 -44 10 -89.5t34.5 -91.5t59 -82t89 -58.5t120.5 -22.5q103 0 184.5 54.5t123 136.5t41.5 171v578q0 15 9.5 25.5t24.5 10.5h19q15 0 26 -10.5
t11 -25.5v-971q0 -14 -11 -24.5t-26 -10.5h-19q-15 0 -24.5 10.5t-9.5 24.5v139q-59 -95 -149.5 -147t-199.5 -52zM225 1024h-18q-8 0 -13.5 -5.5t-5.5 -12.5v-596q0 -77 25.5 -151t72.5 -134t122 -96.5t165 -36.5q113 0 204 57.5t145 163.5l16 33v-211q0 -6 5.5 -11.5
t12.5 -5.5h19q7 0 12.5 5.5t5.5 11.5v971q0 8 -5.5 13t-12.5 5h-19q-8 0 -13 -5t-5 -13v-578q0 -69 -26 -137t-71.5 -122.5t-116 -88t-151.5 -33.5q-78 0 -142 32t-104.5 84t-62.5 116t-22 131v596q0 7 -5.5 12.5t-11.5 5.5z" />
    <glyph glyph-name="v" unicode="v" horiz-adv-x="1028" 
d="M530 0h-32q-31 0 -41 27l-408 979q-6 13 2 24.5t23 11.5h28q31 0 41 -26l371 -889l369 889q13 26 43 26h28q14 0 22.5 -11.5t2.5 -24.5l-408 -979q-13 -27 -41 -27zM102 1024h-28q-12 0 -8 -12l407 -977q7 -17 25 -17h32q18 0 25 17l408 977q1 4 -1.5 8t-7.5 4h-28
q-19 0 -25 -16l-387 -926l-387 926q-6 16 -25 16z" />
    <glyph glyph-name="w" unicode="w" horiz-adv-x="1511" 
d="M1075 0h-26q-14 0 -26.5 9t-16.5 24l-250 835l-248 -835q-4 -15 -16.5 -24t-26.5 -9h-27q-14 0 -26.5 9t-16.5 22l-344 975q-6 14 2.5 25t22.5 11h26q33 0 43 -30l306 -862l256 860q10 32 43 32h12q16 0 28 -8.5t15 -23.5l258 -860l305 862q10 30 41 30h29q14 0 21 -9.5
t3 -26.5l-346 -975q-5 -14 -16.5 -22.5t-24.5 -8.5zM489 37l267 895l268 -895q4 -19 25 -19h26q18 0 25 17l346 977q5 12 -8 12h-29q-19 0 -25 -18l-323 -916l-273 916q-7 18 -26 18h-12q-8 0 -16 -5.5t-9 -12.5l-272 -916l-324 916q-6 18 -27 18h-26q-11 0 -8 -12l346 -977
q7 -17 24 -17h27q8 0 15.5 6t8.5 13z" />
    <glyph glyph-name="x" unicode="x" horiz-adv-x="952" 
d="M862 0h-43q-22 0 -37 18l-305 433l-307 -433q-12 -18 -37 -18h-41q-17 0 -24.5 14t2.5 29l348 492l-330 464q-10 12 -3.5 27.5t24.5 15.5h43q24 0 36 -18l289 -408l289 408q12 18 37 18h41q18 0 25.5 -15t-3.5 -28l-331 -464l350 -492q10 -12 2.5 -27.5t-25.5 -15.5z
M156 29l321 452l322 -452q7 -11 20 -11h43q6 0 7.5 5t-1.5 10l-354 502l338 475q3 4 0.5 9t-8.5 5h-41q-16 0 -23 -10l-303 -428l-303 428q-8 10 -22 10h-43q-6 0 -8 -5t1 -9l338 -475l-356 -502q-3 -5 -1 -10t9 -5h41q15 0 23 11z" />
    <glyph glyph-name="y" unicode="y" horiz-adv-x="1028" 
d="M201 -391q-56 0 -56 37v16q0 15 9 26t28 11q32 0 59.5 9t50 22.5t44.5 40.5t39 53t38 70t36.5 81t39.5 97l-436 932q-7 15 1 26.5t24 11.5h28q31 0 41 -26l390 -832l350 832q10 26 41 26h28q41 0 27 -36q-346 -822 -401 -957l-33 -79.5t-32 -72.5t-34.5 -70t-35 -60
t-39 -55t-42 -42t-49 -34t-54 -19t-62.5 -8zM164 -338v-16q0 -19 37 -19q39 0 74 12.5t62 30t55 53t46.5 64.5t43.5 82t40 88.5t41 99.5q365 869 402 955q3 6 -0.5 9t-8.5 3h-28q-19 0 -25 -16l-364 -869l-408 871q-7 14 -25 14h-28q-12 0 -8 -12l440 -940
q-35 -87 -57.5 -138t-53.5 -106t-60.5 -83t-68.5 -46t-86 -18q-20 0 -20 -19z" />
    <glyph glyph-name="z" unicode="z" horiz-adv-x="919" 
d="M784 0h-651q-13 0 -24 11t-11 24v28q0 19 11 37l581 852h-538q-15 0 -25 11t-10 26v17q0 15 10 25.5t25 10.5h616q14 0 24.5 -10.5t10.5 -25.5v-27q0 -20 -10 -37l-582 -852h573q15 0 26 -11t11 -26v-18q0 -14 -11 -24.5t-26 -10.5zM768 1024h-616q-8 0 -13.5 -5.5
t-5.5 -12.5v-17q0 -7 5.5 -12.5t13.5 -5.5h573l-602 -881q-6 -12 -6 -27v-28q0 -6 5 -11.5t11 -5.5h651q7 0 13 5.5t6 11.5v18q0 7 -5.5 13t-13.5 6h-608l602 880q6 12 6 27v27q0 7 -5 12.5t-11 5.5z" />
    <glyph glyph-name="braceleft" unicode="{" horiz-adv-x="849" 
d="M655 -195q-158 6 -233.5 82t-75.5 228v379q0 91 -31.5 133.5t-101.5 46.5q-14 2 -24.5 13t-10.5 24v14q0 13 10.5 23t24.5 12q71 6 102 48t31 134v379q0 152 75 226.5t234 80.5q39 0 39 -35v-18q0 -15 -10.5 -25t-24.5 -12q-122 -5 -172.5 -58t-50.5 -177v-361
q0 -174 -117 -225q117 -48 117 -223v-363q0 -124 50.5 -177t172.5 -58q14 0 24.5 -10t10.5 -25v-19q0 -19 -11.5 -28t-27.5 -9zM657 1610q-152 -4 -222 -74t-70 -215v-379q0 -100 -36 -147.5t-116 -53.5q-6 0 -11 -5t-5 -11v-14q0 -7 5 -13t11 -6q80 -6 116 -53t36 -145
v-379q0 -146 70 -215.5t222 -75.5q19 0 19 18v19q0 6 -6 11t-13 5q-129 6 -183 64t-54 190v363q0 173 -125 213l-6 2v16l6 2q125 43 125 215v361q0 132 54 190.5t183 62.5q7 0 13 6t6 13v18q0 17 -19 17z" />
    <glyph glyph-name="bar" unicode="|" horiz-adv-x="442" 
d="M231 -301h-18q-15 0 -26 11t-11 26v1786q0 14 11 24t26 10h18q14 0 24.5 -10.5t10.5 -23.5v-1786q0 -15 -10.5 -26t-24.5 -11zM231 1538h-18q-7 0 -12.5 -5t-5.5 -11v-1786q0 -8 5.5 -13.5t12.5 -5.5h18q7 0 13 5.5t6 13.5v1786q0 6 -6 11t-13 5z" />
    <glyph glyph-name="braceright" unicode="}" horiz-adv-x="851" 
d="M197 -195q-16 0 -27.5 9t-11.5 28v19q0 15 10.5 25t24.5 10q122 5 172.5 58t50.5 177v363q0 175 116 223q-116 51 -116 225v361q0 124 -50.5 177t-172.5 58q-14 2 -24.5 12t-10.5 25v18q0 35 39 35q159 -6 234 -80.5t75 -226.5v-379q0 -92 31 -134t102 -48
q14 -2 24.5 -12t10.5 -23v-14q0 -13 -10.5 -24t-24.5 -13q-70 -4 -101.5 -46.5t-31.5 -133.5v-379q0 -152 -75.5 -228t-233.5 -82zM195 1610q-19 0 -19 -17v-18q0 -7 6 -13t13 -6q129 -4 183 -62.5t54 -190.5v-361q0 -172 125 -215l6 -2v-16l-6 -2q-125 -40 -125 -213v-363
q0 -132 -54 -190t-183 -64q-7 0 -13 -5t-6 -11v-19q0 -18 19 -18q152 6 222 75.5t70 215.5v379q0 98 36 145t116 53q6 0 11 6t5 13v14q0 6 -5 11t-11 5q-80 6 -116 53.5t-36 147.5v379q0 145 -70 215t-222 74z" />
    <glyph glyph-name="asciitilde" unicode="~" horiz-adv-x="1173" 
d="M211 494l-18 6q-15 5 -22 17.5t-1 27.5q58 170 231 170q77 0 199 -60q120 -55 182 -55q102 0 138 107q10 29 43 22l18 -4q17 -3 24 -15.5t1 -29.5q-61 -168 -224 -168q-85 0 -219 61q-110 52 -160 52q-58 0 -93.5 -26t-55.5 -83q-3 -12 -16 -20t-27 -2zM401 696
q-160 0 -215 -157q-6 -15 13 -23l16 -6q17 -3 23 12q22 61 61 90t102 31q54 0 170 -53q107 -47 155 -56q29 -6 56 -6q150 0 207 156q5 19 -14 25l-17 4q-15 4 -22 -13q-39 -116 -154 -116q-68 0 -188 55q-125 57 -193 57z" />
    <glyph glyph-name="exclamdown" unicode="&#xa1;" horiz-adv-x="501" 
d="M252 918q-31 0 -52.5 22t-21.5 53t21.5 52.5t52.5 21.5t53.5 -21.5t22.5 -52.5t-22.5 -53t-53.5 -22zM252 1051q-23 0 -39 -17t-16 -41q0 -23 16 -40t39 -17q24 0 40.5 16.5t16.5 40.5t-16.5 41t-40.5 17zM262 -391h-18q-15 0 -26 11t-11 26v993q0 15 11 26t26 11h18
q14 0 24.5 -11t10.5 -26v-993q0 -15 -10.5 -26t-24.5 -11zM262 657h-18q-8 0 -13.5 -5.5t-5.5 -12.5v-993q0 -8 5.5 -13.5t13.5 -5.5h18q6 0 11.5 6t5.5 13v993q0 7 -5.5 12.5t-11.5 5.5z" />
    <glyph glyph-name="cent" unicode="&#xa2;" horiz-adv-x="1183" 
d="M629 0h-17q-15 0 -26 11t-11 26v137q-204 23 -340.5 178t-136.5 365q0 211 136.5 366t340.5 177v139q0 14 11 24.5t26 10.5h17q15 0 26 -10.5t11 -24.5v-135q120 -7 224 -65.5t175 -156.5q9 -12 5.5 -27t-17.5 -24l-15 -10q-27 -18 -47 10q-63 87 -156.5 135t-199.5 48
q-121 0 -224 -61t-163 -166.5t-60 -229.5t60 -229.5t163 -166.5t224 -61q106 0 199.5 48t156.5 136q19 26 47 9l15 -9q35 -17 10 -53q-69 -99 -172.5 -156t-224.5 -63v-135q0 -15 -11 -26t-26 -11zM629 1415h-17q-7 0 -12.5 -5t-5.5 -11v-156h-8q-200 -19 -334.5 -170
t-134.5 -356t134.5 -356t334.5 -171h8v-153q0 -8 5.5 -13.5t12.5 -5.5h17q7 0 12.5 5.5t5.5 13.5v151h8q119 6 223 62.5t173 152.5q12 17 -7 27l-14 8q-13 7 -24 -4q-66 -92 -163 -142t-208 -50q-126 0 -232.5 63.5t-168.5 173t-62 238.5t62 238.5t168.5 173t232.5 63.5
q110 0 207.5 -50t163.5 -141q10 -13 24 -6l14 11q18 11 7 26q-71 96 -174.5 152.5t-221.5 60.5h-8v154q0 6 -5.5 11t-12.5 5z" />
    <glyph glyph-name="sterling" unicode="&#xa3;" horiz-adv-x="1136" 
d="M1001 0h-866q-15 0 -26 11t-11 26v20q0 29 23 45q207 154 207 398q0 54 -21 137h-180q-12 0 -20.5 7.5t-8.5 19.5v16q0 12 8.5 20.5t20.5 8.5h160q-2 5 -5.5 14t-5.5 14q-21 70 -30 100.5t-20 90t-11 110.5q0 175 114.5 296.5t280.5 121.5q135 0 230 -71t127 -197
q8 -35 -27 -43l-18 -4q-35 -8 -43 24q-26 97 -95 149t-174 52q-71 0 -130.5 -29t-96.5 -76t-57.5 -105t-20.5 -118q0 -41 9 -88.5t17.5 -77.5t26.5 -86q21 -57 27 -77h446q11 0 19 -8.5t8 -20.5v-16q0 -12 -8 -19.5t-19 -7.5h-428q15 -73 15 -137q0 -75 -21 -145t-56 -123
t-61.5 -84.5t-54.5 -57.5h776q13 0 24 -11t11 -24v-18q0 -15 -10.5 -26t-24.5 -11zM311 690h-184q-10 0 -10 -10v-16q0 -11 10 -11h195l2 -6q22 -81 22 -147q0 -75 -19 -141.5t-52.5 -117t-68 -87t-75.5 -66.5q-14 -14 -14 -31v-20q0 -8 5.5 -13.5t12.5 -5.5h866q7 0 13 6
t6 13v18q0 6 -6 11.5t-13 5.5h-808v14l4 4q16 13 34.5 30.5t51 58t57 84t43 107.5t18.5 130t-18 143l-2 10h450q9 0 9 11v16q0 10 -9 10h-460l-2 6q-12 44 -27 84q-55 163 -55 258q0 64 21.5 125t61 110.5t102.5 80t138 30.5q111 0 184 -55.5t103 -159.5q5 -16 21 -12l18 4
q19 4 14 25q-31 120 -120.5 186t-219.5 66q-158 0 -267.5 -116.5t-109.5 -283.5q0 -107 62 -295q10 -35 12 -41z" />
    <glyph glyph-name="currency" unicode="&#xa4;" horiz-adv-x="999" 
d="M834 332l-132 131q-87 -72 -202 -72q-118 0 -205 72l-131 -131q-8 -9 -20 -9t-19 9l-12 12q-19 20 0 39l131 131q-72 91 -72 203q0 111 72 205l-131 131q-19 19 0 37l12 12q8 8 19.5 8.5t19.5 -6.5l131 -131q90 71 205 71q112 0 202 -71l132 131q19 19 38 0l13 -14
q7 -8 7 -19t-7 -18l-131 -131q71 -89 71 -205q0 -117 -71 -203l131 -131q19 -19 0 -39l-13 -12q-19 -19 -38 0zM698 481l7 6l141 -143q7 -7 14 0l12 12q6 6 0 13l-143 143l6 6q72 84 72 199q0 114 -72 198l-6 7l143 143q6 6 0 12l-12 13q-7 7 -14 0l-141 -142l-7 4
q-90 74 -198 74q-112 0 -199 -74l-8 -4l-141 142q-8 8 -15 0l-12 -13q-6 -6 0 -12l143 -143l-6 -7q-72 -88 -72 -198q0 -111 72 -199l6 -6l-143 -143q-7 -7 0 -13l12 -12q7 -8 15 0l141 143l8 -6q83 -71 199 -71q112 0 198 71zM500 463q-106 0 -181 75t-75 179q0 106 75 180
t181 74q105 0 179.5 -74.5t74.5 -179.5q0 -104 -75 -179t-179 -75zM500 954q-98 0 -168 -69.5t-70 -167.5t70 -167t168 -69q97 0 166 69t69 167t-69 167.5t-166 69.5z" />
    <glyph glyph-name="yen" unicode="&#xa5;" horiz-adv-x="1325" 
d="M672 0h-17q-15 0 -26 11t-11 26v227h-344q-10 0 -18 8t-8 19v18q0 11 8 19t18 8h344v170h-344q-10 0 -18 8t-8 18v19q0 11 8 19t18 8h308l-502 815q-9 19 -1 30t23 11h37q25 0 39 -21l486 -805l485 805q14 21 39 21h37q15 0 23 -12t-1 -29l-502 -815h308q10 0 18 -8
t8 -19v-19q0 -10 -7.5 -18t-18.5 -8h-344v-170h344q10 0 18 -8t8 -19v-18q0 -11 -8 -19t-18 -8h-344v-227q0 -15 -11 -26t-26 -11zM637 317h-363q-8 0 -8 -8v-18q0 -8 8 -8h363v-246q0 -8 5.5 -13.5t12.5 -5.5h17q7 0 12.5 5.5t5.5 13.5v246h363q8 0 8 8v18q0 8 -8 8h-363
v207h363q8 0 8 8v19q0 10 -8 10h-338l518 842q6 12 -8 12h-37q-16 0 -25 -12l-499 -830l-502 830q-6 12 -23 12h-37q-6 0 -8.5 -3.5t0.5 -8.5l518 -842h-338q-8 0 -8 -10v-19q0 -8 8 -8h363v-207z" />
    <glyph glyph-name="brokenbar" unicode="&#xa6;" horiz-adv-x="442" 
d="M229 -301h-18q-15 0 -25 11t-10 26v663q0 15 10 26t25 11h18q15 0 25 -11t10 -26v-663q0 -15 -10 -26t-25 -11zM229 418h-18q-7 0 -12.5 -5.5t-5.5 -13.5v-663q0 -8 5.5 -13.5t12.5 -5.5h18q7 0 13 5.5t6 13.5v663q0 7 -6 13t-13 6zM229 813h-18q-15 0 -25 11t-10 26v672
q0 14 10 24t25 10h18q15 0 25 -10t10 -24v-672q0 -15 -10 -26t-25 -11zM229 1538h-18q-7 0 -12.5 -5t-5.5 -11v-672q0 -8 5.5 -13.5t12.5 -5.5h18q7 0 13 5.5t6 13.5v672q0 6 -6 11t-13 5z" />
    <glyph glyph-name="section" unicode="&#xa7;" horiz-adv-x="1146" 
d="M532 -236q-71 0 -130 18t-95.5 43t-64.5 59.5t-40.5 59t-21.5 50.5q-12 35 21 45l22 6q17 4 28.5 -3.5t14.5 -21.5q7 -21 18 -41t32.5 -43.5t49 -40.5t71 -28.5t95.5 -11.5q105 0 183 62t78 171q0 49 -18 85.5t-58.5 64t-84 45.5t-114.5 41q-35 12 -46 16t-49 18.5
t-54.5 23t-50.5 27t-51 33.5t-41 38.5t-36 47t-21 54t-9 63.5q0 172 188 291q-86 80 -86 201q0 100 53.5 175t132 110.5t166.5 35.5q71 0 130 -17.5t95 -42t64 -58.5t40.5 -58.5t21.5 -50.5q6 -18 -2 -31t-23 -16l-18 -6q-32 -7 -43 26q-63 166 -265 166q-105 0 -183.5 -62
t-78.5 -171q0 -49 18 -85.5t58.5 -64t84 -45.5t114.5 -41q151 -51 220 -96q139 -90 140 -225q0 -171 -190 -293q86 -77 86 -199q0 -100 -53 -175.5t-131.5 -112t-166.5 -36.5zM227 29l-16 -4q-19 -3 -12 -25q9 -29 22.5 -54.5t40.5 -56.5t61.5 -53.5t88.5 -37.5t120 -15
q83 0 157 33.5t124.5 105t50.5 166.5q0 121 -98 201l12 8q191 118 191 283q0 48 -19.5 89.5t-50 71.5t-78 57.5t-93 46t-105.5 38.5q-42 14 -61 20.5t-56.5 22t-56 27t-44 31.5t-38 41t-22 50t-9.5 62q0 116 83 182.5t195 66.5q68 0 121.5 -17.5t85 -46.5t48.5 -56.5
t26 -57.5q5 -16 23 -12l18 6q18 5 12 23q-9 28 -22.5 53.5t-41 57t-62 53.5t-89 37.5t-119.5 15.5q-62 0 -120.5 -20t-106.5 -57.5t-77 -96.5t-29 -131q0 -122 88 -195l10 -8l-10 -6q-193 -116 -193 -283q0 -48 19.5 -89.5t50.5 -71.5t78.5 -57.5t93.5 -46t106 -38.5
q42 -14 61 -20.5t56.5 -22t56 -27t44 -31.5t38 -41t22 -50t9.5 -62q0 -116 -84 -183t-195 -67q-69 0 -122 17.5t-84.5 47t-48.5 56t-27 57.5q-2 6 -9 10t-14 3zM733 317l-4 -2l-4 2q-71 40 -184 76q-156 50 -233 107t-77 145q0 43 14 82.5t34 67t47.5 51.5t47 37t40.5 24
l4 2l4 -2q60 -36 182 -76q159 -52 235 -107.5t76 -143.5q0 -163 -182 -263zM418 889q-26 -14 -50.5 -32t-53.5 -48t-46.5 -72.5t-17.5 -91.5q0 -81 72.5 -133t224.5 -102q121 -40 182 -74q20 11 38.5 23t43.5 35t42.5 48.5t30.5 61.5t13 76q0 80 -72.5 132t-224.5 103
q-116 37 -182 74z" />
    <glyph glyph-name="dieresis" unicode="&#xa8;" horiz-adv-x="841" 
d="M258 1249q-32 0 -56 23t-24 55q0 33 23.5 56.5t56.5 23.5t56.5 -23.5t23.5 -56.5q0 -32 -24 -55t-56 -23zM258 1389q-25 0 -43 -18t-18 -44q0 -25 18 -42t43 -17t43 17t18 42q0 26 -18 44t-43 18zM588 1249q-34 0 -57 23t-23 55q0 34 23 57t57 23q32 0 55 -23t23 -57
q0 -32 -23 -55t-55 -23zM588 1389q-26 0 -44 -18t-18 -44q0 -25 18 -42t44 -17q25 0 43 17t18 42q0 26 -18 44t-43 18z" />
    <glyph glyph-name="copyright" unicode="&#xa9;" horiz-adv-x="1669" 
d="M836 6q-145 0 -277 56.5t-227.5 152t-152 227t-56.5 275.5q0 145 56.5 277t152 227.5t227.5 152t277 56.5q193 0 356.5 -95.5t258.5 -260t95 -357.5q0 -192 -95 -356t-258.5 -259.5t-356.5 -95.5zM836 1411q-141 0 -269.5 -55t-222 -148t-148.5 -221.5t-55 -269.5
t55 -269.5t148.5 -221t222 -147t269.5 -54.5q188 0 348 92.5t253 252t93 347.5t-93 348t-253 253t-348 93zM836 59q-178 0 -329.5 88.5t-240 240t-88.5 329.5t88.5 329.5t240 239.5t329.5 88q133 0 255 -52t210 -140t140 -210t52 -255q0 -178 -88 -329.5t-239.5 -240
t-329.5 -88.5zM836 1356q-130 0 -248 -50.5t-204 -136.5t-136.5 -204t-50.5 -248t50.5 -248t136.5 -204t204 -136.5t248 -50.5t248 50.5t204 136.5t136.5 204t50.5 248t-50.5 248t-136.5 204t-204 136.5t-248 50.5zM836 344q-149 0 -254 111q-103 112 -103 262
q0 155 104.5 265t252.5 110q78 0 148.5 -34t121.5 -97q7 -6 5.5 -17t-11.5 -18l-21 -17q-18 -15 -35 6q-81 97 -208 97q-118 0 -197.5 -84.5t-79.5 -210.5t79.5 -210.5t197.5 -84.5q128 0 208 96q6 9 16.5 11.5t18.5 -3.5l21 -14q11 -7 12 -19.5t-6 -19.5
q-49 -61 -120.5 -95t-149.5 -34zM836 1073q-140 0 -239 -104t-99 -252t99 -252.5t239 -104.5q74 0 141.5 32.5t114.5 92.5q3 3 2 7t-4 6l-19 12q-9 4 -12 -2q-85 -105 -223 -105q-126 0 -210.5 90t-84.5 224t84.5 223.5t210.5 89.5q139 0 223 -104q7 -7 12 -2l19 14
q8 6 2 12q-47 58 -114.5 90.5t-141.5 32.5z" />
    <glyph glyph-name="guillemotleft" unicode="&#xab;" horiz-adv-x="970" 
d="M807 150h-33q-24 0 -37 20l-213 311q-23 33 0 72l213 311q13 19 37 19h33q18 0 25 -12t-3 -29l-219 -326l219 -323q10 -13 3.5 -28t-25.5 -15zM752 854l-211 -311q-19 -25 0 -51l211 -312q8 -12 22 -12h33q7 0 9 5t-1 9l-227 334l227 336q3 4 0.5 9t-8.5 5h-33
q-14 0 -22 -12zM422 150h-33q-24 0 -37 20l-213 311q-23 33 0 72l213 311q13 19 37 19h33q18 0 25 -12t-3 -29l-219 -326l219 -323q10 -13 3.5 -28t-25.5 -15zM367 854l-211 -311q-19 -25 0 -51l211 -312q8 -12 22 -12h33q7 0 9 5t-1 9l-227 334l227 336q3 4 0.5 9t-8.5 5
h-33q-14 0 -22 -12z" />
    <glyph glyph-name="registered" unicode="&#xae;" horiz-adv-x="1669" 
d="M836 6q-145 0 -277 56.5t-227.5 152t-152 227t-56.5 275.5q0 145 56.5 277t152 227.5t227.5 152t277 56.5q144 0 275.5 -56.5t226.5 -152t151.5 -227.5t56.5 -277q0 -144 -56.5 -275.5t-151.5 -227t-226.5 -152t-275.5 -56.5zM836 1411q-141 0 -269.5 -55t-222 -148
t-148.5 -221.5t-55 -269.5t55 -269.5t148.5 -221t222 -147t269.5 -54.5q188 0 347.5 92.5t252 252t92.5 347.5t-92.5 348t-252 253t-347.5 93zM836 59q-178 0 -329.5 88.5t-240 240t-88.5 329.5t88.5 329.5t240 239.5t329.5 88q133 0 255 -52t210 -140t140 -210t52 -255
q0 -178 -88 -329.5t-239.5 -240t-329.5 -88.5zM836 1356q-130 0 -248 -50.5t-204 -136.5t-136.5 -204t-50.5 -248t50.5 -248t136.5 -204t204 -136.5t248 -50.5t248 50.5t204 136.5t136.5 204t50.5 248t-50.5 248t-136.5 204t-204 136.5t-248 50.5zM1118 362h-20
q-21 0 -35 17l-215 276h-8h-164v-266q0 -11 -8 -19t-19 -8h-22q-11 0 -19 8t-8 19v694q0 12 8 20.5t19 8.5h213q126 0 201 -62.5t75 -166.5q0 -83 -49 -140t-137 -77l207 -267q9 -13 1.5 -25t-20.5 -12zM846 674h10l221 -283q9 -12 21 -12h20q4 0 5.5 3.5t-1.5 6.5l-225 289
l14 2q88 17 137.5 71t49.5 132q0 98 -69 154.5t-189 56.5h-213q-11 0 -11 -11v-694q0 -10 11 -10h22q8 0 8 10v285h183h6zM840 715h-183v338h183q102 0 159.5 -45t57.5 -125q0 -78 -57.5 -123t-159.5 -45zM676 1034v-301h164q95 0 147.5 39t52.5 111t-52.5 111.5
t-147.5 39.5h-164z" />
    <glyph glyph-name="macron" unicode="&#xaf;" horiz-adv-x="817" 
d="M604 1274h-389q-15 0 -26 10.5t-11 24.5v18q0 15 11 26t26 11h389q15 0 26 -11t11 -26v-18q0 -14 -11 -24.5t-26 -10.5zM604 1346h-389q-7 0 -12.5 -5.5t-5.5 -13.5v-18q0 -6 5.5 -11.5t12.5 -5.5h389q7 0 13 5.5t6 11.5v18q0 7 -5.5 13t-13.5 6z" />
    <glyph glyph-name="degree" unicode="&#xb0;" horiz-adv-x="790" 
d="M395 836q-123 0 -211 87t-88 210q0 124 88 211.5t211 87.5t210 -87.5t87 -211.5q0 -123 -87 -210t-210 -87zM395 1413q-117 0 -198.5 -81.5t-81.5 -198.5q0 -116 81.5 -197.5t198.5 -81.5q115 0 197 82t82 197q0 117 -81.5 198.5t-197.5 81.5zM395 891q-101 0 -172 71
t-71 171q0 101 71 172t172 71q100 0 172 -71t72 -172q0 -100 -72 -171t-172 -71zM395 1360q-94 0 -159.5 -66.5t-65.5 -160.5q0 -93 66 -159.5t159 -66.5q92 0 159 67t67 159q0 93 -66.5 160t-159.5 67z" />
    <glyph glyph-name="plusminus" unicode="&#xb1;" horiz-adv-x="1171" 
d="M956 0h-737q-15 0 -26 11t-11 26v18q0 14 11 24.5t26 10.5h737q15 0 26 -10.5t11 -24.5v-18q0 -15 -11 -26t-26 -11zM956 72h-737q-7 0 -12.5 -5.5t-5.5 -11.5v-18q0 -8 5.5 -13.5t12.5 -5.5h737q8 0 13.5 6t5.5 13v18q0 6 -6 11.5t-13 5.5zM598 332h-18q-15 0 -26 11
t-11 26v323h-324q-15 0 -26 11t-11 26v19q0 14 11 24t26 10h324v326q0 14 11 24.5t26 10.5h18q14 0 24.5 -10.5t10.5 -24.5v-326h323q15 0 26 -10t11 -24v-19q0 -15 -11 -26t-26 -11h-323v-323q0 -15 -10.5 -26t-24.5 -11zM561 764h-342q-7 0 -12.5 -5t-5.5 -11v-19
q0 -7 5.5 -12.5t12.5 -5.5h342v-342q0 -7 5.5 -13t13.5 -6h18q6 0 11 6t5 13v342h342q8 0 13.5 5.5t5.5 12.5v19q0 6 -6 11t-13 5h-342v344q0 6 -5 11t-11 5h-18q-7 0 -13 -5t-6 -11v-344z" />
    <glyph glyph-name="acute" unicode="&#xb4;" horiz-adv-x="587" 
d="M219 1204h-14q-11 0 -18 9t-1 22l105 227q11 25 41 25h35q17 0 24 -14.5t-2 -26.5l-139 -225q-11 -17 -31 -17zM367 1468h-35q-18 0 -25 -14l-104 -223q-4 -8 2 -8h14q12 0 17 8l139 225q4 12 -8 12z" />
    <glyph glyph-name="paragraph" unicode="&#xb6;" horiz-adv-x="1144" 
d="M838 -178h-19q-15 0 -25 10.5t-10 24.5v1486h-272v-1486q0 -14 -11 -24.5t-26 -10.5h-18q-13 0 -24 11t-11 24v995q-83 2 -154.5 32.5t-120.5 97.5t-49 161q0 72 29 129.5t77.5 92t106 52t119.5 17.5h561q13 0 24 -11t11 -24v-19q0 -15 -10.5 -26t-24.5 -11h-117v-1486
q0 -14 -10.5 -24.5t-25.5 -10.5zM494 -143v1505h307v-1505q0 -17 18 -17h19q18 0 18 17v1505h135q6 0 11.5 5.5t5.5 12.5v19q0 6 -5.5 11t-11.5 5h-561q-58 0 -112.5 -16.5t-100 -48.5t-73 -85.5t-27.5 -121.5q0 -130 94.5 -201.5t218.5 -71.5h10v-1013q0 -7 5.5 -12
t11.5 -5h18q8 0 13.5 5t5.5 12z" />
    <glyph glyph-name="cedilla" unicode="&#xb8;" horiz-adv-x="751" 
d="M346 -481q-71 0 -133 26q-15 5 -20 18.5t2 30.5l8 19q14 29 47 14q49 -20 99.5 -18.5t84.5 24.5q47 30 47 93q0 60 -41 84q-53 38 -139 4q-24 -10 -41 10l-14 20q-14 17 -4 37l55 117q10 20 33 20h18q14 0 20.5 -10t0.5 -22l-43 -92q106 26 180 -29q67 -46 67 -144
q0 -104 -81 -161q-59 -41 -146 -41zM219 -395l-8 -19q-7 -16 8 -24q70 -28 141.5 -25t120.5 37q74 53 74 147q0 85 -59 129q-79 57 -185 21l-20 -8l61 131q2 6 -4 6h-18q-12 0 -17 -10l-55 -117q-5 -7 2 -18l14 -19q3 -6 10 -7.5t11 1.5q94 38 154 -4q49 -34 49 -100
q0 -70 -54 -109q-40 -26 -97 -26t-105 20q-17 7 -23 -6z" />
    <glyph glyph-name="guillemotright" unicode="&#xbb;" horiz-adv-x="970" 
d="M197 150h-33q-19 0 -26 15t3 28l219 323l-219 326q-10 17 -2.5 29t25.5 12h33q23 0 36 -19l213 -311q23 -39 0 -72l-213 -311q-13 -20 -36 -20zM430 543l-211 311q-8 12 -22 12h-33q-6 0 -8.5 -5t0.5 -9l227 -336l-227 -334q-3 -4 -1 -9t9 -5h33q14 0 22 12l211 312
q19 26 0 51zM582 150h-33q-19 0 -26 15t3 28l219 323l-219 326q-10 17 -2.5 29t25.5 12h33q23 0 36 -19l213 -311q23 -39 0 -72l-213 -311q-13 -20 -36 -20zM815 543l-211 311q-8 12 -22 12h-33q-6 0 -8.5 -5t0.5 -9l227 -336l-227 -334q-3 -4 -1 -9t9 -5h33q14 0 22 12
l211 312q19 26 0 51z" />
    <glyph glyph-name="questiondown" unicode="&#xbf;" horiz-adv-x="864" 
d="M424 918q-31 0 -52.5 22t-21.5 53t21.5 52.5t52.5 21.5q32 0 54 -21.5t22 -52.5t-22 -53t-54 -22zM424 1051q-23 0 -39 -17t-16 -41q0 -23 16 -40t39 -17q24 0 40.5 16.5t16.5 40.5t-16.5 41t-40.5 17zM428 -416q-154 0 -262.5 107.5t-108.5 259.5q0 104 39.5 179
t114.5 159q32 35 48.5 54.5t42.5 56.5t39.5 68t24.5 77t13 96q4 35 37 35h18q35 0 35 -37q-3 -73 -19.5 -135t-48 -114t-56.5 -84t-66 -77q-45 -52 -69 -84t-43.5 -84t-19.5 -110q0 -115 82.5 -196t198.5 -81q57 0 105.5 18.5t78 44t53 59t34 56.5t16.5 44q9 30 41 22l18 -4
q37 -8 25 -45q-18 -54 -48.5 -102.5t-75.5 -90.5t-109 -67t-138 -25zM434 657h-18q-19 0 -19 -16q-3 -64 -17.5 -118t-42.5 -100t-50.5 -75t-61.5 -72q-73 -80 -111 -152.5t-38 -172.5q0 -145 103 -246.5t249 -101.5q72 0 133.5 23.5t104.5 63t72 86.5t44 99q6 19 -12 23
l-18 4q-17 3 -21 -13q-35 -109 -115.5 -171t-187.5 -62q-123 0 -211 86t-88 209q0 88 34 151.5t103 139.5q42 47 64.5 75.5t54 80.5t47.5 112t19 131q0 16 -17 16z" />
    <glyph glyph-name="Agrave" unicode="&#xc0;" horiz-adv-x="1271" 
d="M1176 0h-27q-32 0 -43 29l-152 405h-639l-151 -405q-11 -29 -41 -29h-29q-15 0 -22.5 11.5t-1.5 25.5l508 1368q14 29 43 29h28q13 0 25.5 -8.5t17.5 -20.5l510 -1368q5 -14 -3 -25.5t-23 -11.5zM147 35l156 416h666l153 -416q7 -17 27 -17h27q13 0 10 13l-510 1368
q-6 16 -27 16h-28q-19 0 -25 -16l-510 -1368q-3 -13 8 -13h29q17 0 24 17zM635 1343l313 -837h-624zM635 1292l-287 -768h574zM625 1614h-15q-19 0 -30 16l-140 225q-9 12 -1.5 26.5t24.5 14.5h35q31 0 41 -24l104 -227q6 -13 -0.5 -22t-17.5 -9zM498 1878h-35q-12 0 -8 -12
l139 -226q5 -8 16 -8h15q6 0 2 8l-105 224q-7 14 -24 14z" />
    <glyph glyph-name="Aacute" unicode="&#xc1;" horiz-adv-x="1271" 
d="M1176 0h-27q-32 0 -43 29l-152 405h-639l-151 -405q-11 -29 -41 -29h-29q-15 0 -22.5 11.5t-1.5 25.5l508 1368q14 29 43 29h28q13 0 25.5 -8.5t17.5 -20.5l510 -1368q5 -14 -3 -25.5t-23 -11.5zM147 35l156 416h666l153 -416q7 -17 27 -17h27q13 0 10 13l-510 1368
q-6 16 -27 16h-28q-19 0 -25 -16l-510 -1368q-3 -13 8 -13h29q17 0 24 17zM635 1343l313 -837h-624zM635 1292l-287 -768h574zM664 1614h-15q-11 0 -17.5 9t-0.5 22l104 227q10 24 41 24h35q17 0 24.5 -14.5t-1.5 -26.5l-140 -225q-11 -16 -30 -16zM811 1878h-35
q-17 0 -24 -14l-105 -224q-4 -8 2 -8h15q11 0 16 8l139 226q4 12 -8 12z" />
    <glyph glyph-name="Acircumflex" unicode="&#xc2;" horiz-adv-x="1271" 
d="M1176 0h-27q-32 0 -43 29l-152 405h-639l-151 -405q-11 -29 -41 -29h-29q-15 0 -22.5 11.5t-1.5 25.5l508 1368q14 29 43 29h28q13 0 25.5 -8.5t17.5 -20.5l510 -1368q5 -14 -3 -25.5t-23 -11.5zM147 35l156 416h666l153 -416q7 -17 27 -17h27q13 0 10 13l-510 1368
q-6 16 -27 16h-28q-19 0 -25 -16l-510 -1368q-3 -13 8 -13h29q17 0 24 17zM635 1343l313 -837h-624zM635 1292l-287 -768h574zM864 1614h-24q-29 0 -43 20l-158 195l-160 -195q-14 -20 -41 -20h-26q-15 0 -21 11.5t4 23.5l187 229q15 18 41 18h30q28 0 43 -18l185 -229
q9 -12 3 -23.5t-20 -11.5zM465 1645l174 213l172 -213q13 -13 29 -13h24q7 0 4 6l-186 228q-9 12 -29 12h-30q-18 0 -27 -12l-186 -228q-6 -6 2 -6h26q17 0 27 13z" />
    <glyph glyph-name="Atilde" unicode="&#xc3;" horiz-adv-x="1271" 
d="M1176 0h-27q-32 0 -43 29l-152 405h-639l-151 -405q-11 -29 -41 -29h-29q-15 0 -22.5 11.5t-1.5 25.5l508 1368q14 29 43 29h28q13 0 25.5 -8.5t17.5 -20.5l510 -1368q5 -14 -3 -25.5t-23 -11.5zM147 35l156 416h666l153 -416q7 -17 27 -17h27q13 0 10 13l-510 1368
q-6 16 -27 16h-28q-19 0 -25 -16l-510 -1368q-3 -13 8 -13h29q17 0 24 17zM635 1343l313 -837h-624zM635 1292l-287 -768h574zM408 1606l-19 4q-37 5 -29 43q10 43 30 72.5t44 41.5t42 16.5t36 4.5q8 0 16 -1t14.5 -1.5t15 -3t13.5 -3.5t14.5 -5t12.5 -5t13.5 -6t12 -5.5
t13.5 -6.5l12 -6q72 -37 103 -37q49 0 65 61q3 14 14.5 23t24.5 6l18 -4q39 -7 31 -45q-21 -75 -64.5 -103t-88.5 -28q-62 0 -146 47q-68 33 -94 33q-47 0 -63 -64q-10 -33 -41 -28zM512 1769q-16 0 -31.5 -3.5t-37 -14.5t-39.5 -37t-27 -65q-4 -17 16 -21l17 -4
q17 -3 20 14q20 78 82 78q34 0 102 -35q76 -45 138 -45q100 0 135 119q5 16 -15 21l-18 4q-16 3 -20 -15q-18 -75 -82 -75q-39 0 -111 39q-82 40 -129 40z" />
    <glyph glyph-name="Adieresis" unicode="&#xc4;" horiz-adv-x="1271" 
d="M1176 0h-27q-32 0 -43 29l-152 405h-639l-151 -405q-11 -29 -41 -29h-29q-15 0 -22.5 11.5t-1.5 25.5l508 1368q14 29 43 29h28q13 0 25.5 -8.5t17.5 -20.5l510 -1368q5 -14 -3 -25.5t-23 -11.5zM147 35l156 416h666l153 -416q7 -17 27 -17h27q13 0 10 13l-510 1368
q-6 16 -27 16h-28q-19 0 -25 -16l-510 -1368q-3 -13 8 -13h29q17 0 24 17zM635 1343l313 -837h-624zM635 1292l-287 -768h574zM473 1659q-32 0 -56 23t-24 55q0 33 23.5 56.5t56.5 23.5t56.5 -23.5t23.5 -56.5q0 -32 -24 -55t-56 -23zM473 1798q-25 0 -43 -17.5t-18 -43.5
q0 -25 18 -42.5t43 -17.5t43.5 17.5t18.5 42.5q0 26 -18.5 43.5t-43.5 17.5zM803 1659q-34 0 -57 23t-23 55q0 34 23 57t57 23q32 0 55 -23t23 -57q0 -32 -23 -55t-55 -23zM803 1798q-26 0 -44 -17.5t-18 -43.5q0 -25 18 -42.5t44 -17.5q25 0 43 17.5t18 42.5q0 26 -18 43.5
t-43 17.5z" />
    <glyph glyph-name="Aring" unicode="&#xc5;" horiz-adv-x="1271" 
d="M1176 0h-27q-32 0 -43 29l-152 405h-639l-151 -405q-11 -29 -41 -29h-29q-15 0 -22.5 11.5t-1.5 25.5l508 1368q14 29 43 29h28q13 0 25.5 -8.5t17.5 -20.5l510 -1368q5 -14 -3 -25.5t-23 -11.5zM147 35l156 416h666l153 -416q7 -17 27 -17h27q13 0 10 13l-510 1368
q-6 16 -27 16h-28q-19 0 -25 -16l-510 -1368q-3 -13 8 -13h29q17 0 24 17zM635 1343l313 -837h-624zM635 1292l-287 -768h574zM637 1536q-91 0 -155 64t-64 155t64 155t155 64t156 -64t65 -155t-65 -155t-156 -64zM637 1958q-83 0 -142 -60t-59 -143t59 -142t142 -59
q85 0 144 59t59 142q0 84 -59.5 143.5t-143.5 59.5zM637 1608q-60 0 -104 43t-44 104t44 104.5t104 43.5q61 0 104 -43t43 -105q0 -61 -43 -104t-104 -43zM637 1884q-54 0 -91.5 -37.5t-37.5 -91.5t37.5 -91.5t91.5 -37.5t92.5 37.5t38.5 91.5t-38.5 91.5t-92.5 37.5z" />
    <glyph glyph-name="AE" unicode="&#xc6;" horiz-adv-x="1921" 
d="M1761 0h-708q-15 0 -26 11t-11 26v397h-639l-205 -409q-14 -25 -39 -25h-29q-18 0 -25 10t1 29l680 1360q15 35 55 35h928q15 0 26 -10.5t11 -24.5v-19q0 -15 -11 -26t-26 -11h-637v-557h592q14 0 24.5 -10.5t10.5 -23.5v-19q0 -15 -10.5 -26t-24.5 -11h-592v-606h655
q15 0 26 -11t11 -26v-16q0 -15 -11 -26t-26 -11zM156 33l209 418h669v-414q0 -7 6 -13t13 -6h708q7 0 13 6t6 13v16q0 7 -6 13t-13 6h-671v643h608q16 0 16 18v19q0 18 -16 18h-608v592h653q7 0 12.5 5t5.5 13v19q0 6 -5.5 11t-12.5 5h-928q-27 0 -39 -24l-680 -1360
q-3 -6 0 -9.5t8 -3.5h29q15 0 23 15zM1034 1362v-856h-641l428 856h213zM831 1343l-409 -819h594v819h-185z" />
    <glyph glyph-name="Ccedilla" unicode="&#xc7;" horiz-adv-x="1452" 
d="M764 -483q-63 0 -133 26q-15 6 -20.5 20t1.5 29l11 21q14 24 45 14q50 -20 101 -19t83 23q47 30 47 95q0 57 -41 84q-58 38 -137 2q-27 -10 -43 12l-14 18q-14 21 -5 39l50 101q-175 24 -314 126.5t-217 262t-78 346.5q0 154 55 292t149 236.5t224.5 156.5t276.5 58
q157 0 298.5 -64.5t244.5 -183.5q11 -12 8 -28t-17 -25l-14 -10q-25 -16 -47 6q-91 103 -214.5 159t-258.5 56q-169 0 -310.5 -86t-223 -236t-81.5 -331q0 -180 81.5 -329.5t223 -235.5t310.5 -86q135 0 258.5 56t214.5 159q22 22 47 6l14 -11q14 -9 17 -25t-8 -28
q-103 -119 -244.5 -183.5t-298.5 -64.5h-21l-41 -84q107 29 181 -26q67 -49 67 -146q0 -103 -80 -159q-61 -43 -147 -43zM637 -397l-8 -17q-8 -19 8 -26q71 -28 142 -24t122 38q74 52 74 145q0 85 -62 131q-35 26 -84 31t-100 -12l-20 -6l63 131h6h27q152 0 290 62.5
t238 176.5q14 14 -4 29l-14 10q-14 7 -25 -4q-92 -106 -218.5 -163.5t-266.5 -57.5q-174 0 -319.5 88.5t-229.5 242.5t-84 339q0 186 84 340.5t229.5 243t319.5 88.5q139 0 265.5 -58.5t219.5 -163.5q11 -11 25 -4l14 11q20 12 4 28q-100 114 -238 177t-290 63
q-142 0 -269.5 -56.5t-219.5 -152.5t-145.5 -231t-53.5 -285q0 -185 78 -342t216.5 -256.5t311.5 -120.5h12l-59 -125q-6 -10 2 -18l14 -21q7 -11 21 -6q89 39 155 -4q47 -30 47 -98q0 -74 -53 -109q-47 -27 -100 -27t-103 21q-14 6 -22 -8z" />
    <glyph glyph-name="Egrave" unicode="&#xc8;" horiz-adv-x="1079" 
d="M926 0h-711q-15 0 -25 11t-10 26v1360q0 15 10 26t25 11h690q15 0 26 -11t11 -26v-17q0 -15 -11 -26t-26 -11h-637v-557h592q15 0 25 -10t10 -24v-19q0 -15 -10 -26t-25 -11h-592v-606h658q14 0 24.5 -11t10.5 -26v-16q0 -15 -10.5 -26t-24.5 -11zM905 1415h-690
q-7 0 -12.5 -5.5t-5.5 -12.5v-1360q0 -8 5.5 -13.5t12.5 -5.5h711q6 0 11 6t5 13v16q0 7 -5 13t-11 6h-674v643h608q8 0 13.5 5.5t5.5 12.5v19q0 16 -19 16h-608v594h653q8 0 13.5 5.5t5.5 12.5v17q0 7 -5.5 12.5t-13.5 5.5zM596 1614h-14q-20 0 -31 16l-139 225
q-9 12 -2 26.5t24 14.5h35q31 0 41 -24l104 -227q6 -13 -0.5 -22t-17.5 -9zM469 1878h-35q-12 0 -8 -12l139 -226q5 -8 17 -8h14q6 0 2 8l-104 224q-7 14 -25 14z" />
    <glyph glyph-name="Eacute" unicode="&#xc9;" horiz-adv-x="1079" 
d="M926 0h-711q-15 0 -25 11t-10 26v1360q0 15 10 26t25 11h690q15 0 26 -11t11 -26v-17q0 -15 -11 -26t-26 -11h-637v-557h592q15 0 25 -10t10 -24v-19q0 -15 -10 -26t-25 -11h-592v-606h658q14 0 24.5 -11t10.5 -26v-16q0 -15 -10.5 -26t-24.5 -11zM905 1415h-690
q-7 0 -12.5 -5.5t-5.5 -12.5v-1360q0 -8 5.5 -13.5t12.5 -5.5h711q6 0 11 6t5 13v16q0 7 -5 13t-11 6h-674v643h608q8 0 13.5 5.5t5.5 12.5v19q0 16 -19 16h-608v594h653q8 0 13.5 5.5t5.5 12.5v17q0 7 -5.5 12.5t-13.5 5.5zM537 1614h-15q-11 0 -17.5 9t-0.5 22l104 227
q10 24 41 24h35q17 0 24.5 -14.5t-1.5 -26.5l-140 -225q-11 -16 -30 -16zM684 1878h-35q-17 0 -24 -14l-105 -224q-4 -8 2 -8h15q11 0 16 8l139 226q4 12 -8 12z" />
    <glyph glyph-name="Ecircumflex" unicode="&#xca;" horiz-adv-x="1079" 
d="M926 0h-711q-15 0 -25 11t-10 26v1360q0 15 10 26t25 11h690q15 0 26 -11t11 -26v-17q0 -15 -11 -26t-26 -11h-637v-557h592q15 0 25 -10t10 -24v-19q0 -15 -10 -26t-25 -11h-592v-606h658q14 0 24.5 -11t10.5 -26v-16q0 -15 -10.5 -26t-24.5 -11zM905 1415h-690
q-7 0 -12.5 -5.5t-5.5 -12.5v-1360q0 -8 5.5 -13.5t12.5 -5.5h711q6 0 11 6t5 13v16q0 7 -5 13t-11 6h-674v643h608q8 0 13.5 5.5t5.5 12.5v19q0 16 -19 16h-608v594h653q8 0 13.5 5.5t5.5 12.5v17q0 7 -5.5 12.5t-13.5 5.5zM799 1614h-25q-29 0 -43 20l-158 195l-159 -195
q-14 -20 -41 -20h-27q-15 0 -20.5 11.5t4.5 23.5l186 229q15 18 41 18h31q28 0 43 -18l184 -229q9 -12 3.5 -23.5t-19.5 -11.5zM399 1645l174 213l172 -213q13 -13 29 -13h25q7 0 4 6l-187 228q-9 12 -28 12h-31q-18 0 -27 -12l-186 -228q-6 -6 2 -6h27q16 0 26 13z" />
    <glyph glyph-name="Edieresis" unicode="&#xcb;" horiz-adv-x="1079" 
d="M926 0h-711q-15 0 -25 11t-10 26v1360q0 15 10 26t25 11h690q15 0 26 -11t11 -26v-17q0 -15 -11 -26t-26 -11h-637v-557h592q15 0 25 -10t10 -24v-19q0 -15 -10 -26t-25 -11h-592v-606h658q14 0 24.5 -11t10.5 -26v-16q0 -15 -10.5 -26t-24.5 -11zM905 1415h-690
q-7 0 -12.5 -5.5t-5.5 -12.5v-1360q0 -8 5.5 -13.5t12.5 -5.5h711q6 0 11 6t5 13v16q0 7 -5 13t-11 6h-674v643h608q8 0 13.5 5.5t5.5 12.5v19q0 16 -19 16h-608v594h653q8 0 13.5 5.5t5.5 12.5v17q0 7 -5.5 12.5t-13.5 5.5zM408 1659q-32 0 -56 23t-24 55q0 33 23.5 56.5
t56.5 23.5q32 0 55.5 -23.5t23.5 -56.5q0 -32 -23.5 -55t-55.5 -23zM408 1798q-25 0 -43.5 -17.5t-18.5 -43.5q0 -25 18.5 -42.5t43.5 -17.5t43 17.5t18 42.5q0 26 -18 43.5t-43 17.5zM737 1659q-34 0 -57 23t-23 55q0 34 23 57t57 23q32 0 55 -23t23 -57q0 -32 -23 -55
t-55 -23zM737 1798q-26 0 -43.5 -17.5t-17.5 -43.5q0 -25 17.5 -42.5t43.5 -17.5q25 0 43.5 17.5t18.5 42.5q0 26 -18.5 43.5t-43.5 17.5z" />
    <glyph glyph-name="Igrave" unicode="&#xcc;" horiz-adv-x="440" 
d="M227 0h-16q-15 0 -26 11t-11 26v1360q0 15 11 26t26 11h16q15 0 26 -11t11 -26v-1360q0 -15 -11 -26t-26 -11zM227 1415h-16q-7 0 -12.5 -5.5t-5.5 -12.5v-1360q0 -8 5.5 -13.5t12.5 -5.5h16q7 0 13 6t6 13v1360q0 7 -5.5 12.5t-13.5 5.5zM227 1614h-14q-20 0 -31 16
l-139 225q-9 12 -1.5 26.5t24.5 14.5h34q31 0 41 -24l105 -227q6 -13 -1 -22t-18 -9zM100 1878h-34q-13 0 -9 -12l140 -226q5 -8 16 -8h14q6 0 2 8l-104 224q-7 14 -25 14z" />
    <glyph glyph-name="Iacute" unicode="&#xcd;" horiz-adv-x="440" 
d="M227 0h-16q-15 0 -26 11t-11 26v1360q0 15 11 26t26 11h16q15 0 26 -11t11 -26v-1360q0 -15 -11 -26t-26 -11zM227 1415h-16q-7 0 -12.5 -5.5t-5.5 -12.5v-1360q0 -8 5.5 -13.5t12.5 -5.5h16q7 0 13 6t6 13v1360q0 7 -5.5 12.5t-13.5 5.5zM231 1614h-14q-11 0 -17.5 9
t-0.5 22l104 227q10 24 41 24h35q17 0 24 -14.5t-2 -26.5l-139 -225q-11 -16 -31 -16zM379 1878h-35q-18 0 -25 -14l-104 -224q-4 -8 2 -8h14q12 0 17 8l139 226q4 12 -8 12z" />
    <glyph glyph-name="Icircumflex" unicode="&#xce;" horiz-adv-x="440" 
d="M227 0h-16q-15 0 -26 11t-11 26v1360q0 15 11 26t26 11h16q15 0 26 -11t11 -26v-1360q0 -15 -11 -26t-26 -11zM227 1415h-16q-7 0 -12.5 -5.5t-5.5 -12.5v-1360q0 -8 5.5 -13.5t12.5 -5.5h16q7 0 13 6t6 13v1360q0 7 -5.5 12.5t-13.5 5.5zM449 1614h-25q-29 0 -43 20
l-158 195l-160 -195q-14 -20 -40 -20h-27q-15 0 -20.5 11.5t4.5 23.5l186 229q15 18 41 18h31q28 0 43 -18l184 -229q9 -12 3.5 -23.5t-19.5 -11.5zM49 1645l174 213l172 -213q13 -13 29 -13h25q7 0 4 6l-187 228q-9 12 -28 12h-31q-18 0 -27 -12l-186 -228q-6 -6 2 -6h27
q16 0 26 13z" />
    <glyph glyph-name="Idieresis" unicode="&#xcf;" horiz-adv-x="440" 
d="M227 0h-16q-15 0 -26 11t-11 26v1360q0 15 11 26t26 11h16q15 0 26 -11t11 -26v-1360q0 -15 -11 -26t-26 -11zM227 1415h-16q-7 0 -12.5 -5.5t-5.5 -12.5v-1360q0 -8 5.5 -13.5t12.5 -5.5h16q7 0 13 6t6 13v1360q0 7 -5.5 12.5t-13.5 5.5zM57 1659q-32 0 -56 23t-24 55
q0 33 23.5 56.5t56.5 23.5t56.5 -23.5t23.5 -56.5q0 -32 -24 -55t-56 -23zM57 1798q-25 0 -43 -17.5t-18 -43.5q0 -25 18 -42.5t43 -17.5t43.5 17.5t18.5 42.5q0 26 -18.5 43.5t-43.5 17.5zM387 1659q-34 0 -57 23t-23 55q0 34 23 57t57 23q32 0 55 -23t23 -57
q0 -32 -23 -55t-55 -23zM387 1798q-26 0 -43.5 -17.5t-17.5 -43.5q0 -25 17.5 -42.5t43.5 -17.5q25 0 43.5 17.5t18.5 42.5q0 26 -18.5 43.5t-43.5 17.5z" />
    <glyph glyph-name="Eth" unicode="&#xd0;" horiz-adv-x="1519" 
d="M713 0h-379q-14 0 -24.5 11t-10.5 26v635h-178q-15 0 -26 11t-11 26v18q0 14 11 24.5t26 10.5h178v637q0 13 10.5 24t24.5 11h379q202 0 363.5 -92t252 -256t90.5 -369t-90.5 -369t-252 -256t-363.5 -92zM317 743h-196q-7 0 -13 -5t-6 -11v-18q0 -7 6 -13t13 -6h196v-653
q0 -7 5.5 -13t11.5 -6h379q197 0 354 89.5t245.5 249.5t88.5 360t-88.5 359.5t-245.5 249t-354 89.5h-379q-6 0 -11.5 -5t-5.5 -11v-656zM713 72h-342v618h452q6 0 11.5 6t5.5 13v18q0 6 -5.5 11t-11.5 5h-452v619h342q134 0 251.5 -49t202 -134.5t133 -205.5t48.5 -256
t-48.5 -255.5t-132.5 -205t-202 -135t-252 -49.5zM389 672v-582h324q173 0 314.5 82t221.5 225.5t80 319.5t-80 319.5t-221 225t-315 81.5h-324v-581h434q13 0 24 -11t11 -24v-18q0 -15 -10.5 -26t-24.5 -11h-434z" />
    <glyph glyph-name="Ntilde" unicode="&#xd1;" horiz-adv-x="1423" 
d="M1206 0h-26q-23 0 -37 18l-871 1252v-1233q0 -15 -10 -26t-24 -11h-19q-15 0 -26 11t-11 26v1360q0 15 11 26t26 11h27q22 0 37 -19l868 -1251v1233q0 15 11 26t26 11h18q14 0 24.5 -11t10.5 -26v-1360q0 -15 -10.5 -26t-24.5 -11zM256 37v1290l901 -1298q7 -11 23 -11
h26q6 0 11.5 6t5.5 13v1360q0 7 -5.5 12.5t-11.5 5.5h-18q-8 0 -13.5 -5.5t-5.5 -12.5v-1291l-901 1299q-10 10 -22 10h-27q-7 0 -12.5 -5.5t-5.5 -12.5v-1360q0 -8 5.5 -13.5t12.5 -5.5h19q7 0 12.5 5.5t5.5 13.5zM483 1606l-18 4q-37 5 -29 43q10 43 30 72.5t44 41.5
t42 16.5t36 4.5q8 0 16 -1t14.5 -1.5t15 -3t13.5 -3.5t14.5 -5t12.5 -5t13.5 -6t12 -5.5t13.5 -6.5l12 -6q3 -2 14.5 -8t15.5 -7.5t13.5 -6.5t15 -6.5t13.5 -4t15.5 -3.5t14.5 -1q50 0 66 61q3 14 14.5 23t24.5 6l18 -4q39 -7 31 -45q-21 -75 -65 -103t-89 -28
q-61 0 -145 47q-68 33 -94 33q-48 0 -64 -64q-10 -33 -41 -28zM588 1769q-16 0 -31.5 -3.5t-37 -14.5t-39.5 -37t-27 -65q-4 -17 16 -21l16 -4q18 -3 21 14q20 78 82 78q34 0 102 -35q76 -45 137 -45q101 0 136 119q5 16 -15 21l-18 4q-17 3 -21 -15q-18 -75 -82 -75
q-38 0 -110 39q-82 40 -129 40z" />
    <glyph glyph-name="Ograve" unicode="&#xd2;" horiz-adv-x="1617" 
d="M809 -25q-146 0 -277 58t-225 156.5t-149.5 236.5t-55.5 291t55.5 290.5t149.5 236.5t225 156.5t277 57.5t277 -57.5t225 -156.5t149.5 -236.5t55.5 -290.5t-55.5 -291t-149.5 -236.5t-225 -156.5t-277 -58zM809 1442q-142 0 -269.5 -56.5t-219 -153t-145.5 -231
t-54 -284.5t54 -284.5t145.5 -231t219 -153t269.5 -56.5t269.5 56.5t219 153t145.5 231t54 284.5t-54 284.5t-145.5 231t-219 153t-269.5 56.5zM809 47q-175 0 -321 88.5t-230 242.5t-84 339t84 338.5t230 242t321 88.5t321 -88.5t230 -242t84 -338.5t-84 -339t-230 -242.5
t-321 -88.5zM809 1368q-170 0 -311.5 -85.5t-223 -235t-81.5 -330.5t81.5 -330.5t223 -235t311.5 -85.5t311.5 85.5t223 235t81.5 330.5t-81.5 330.5t-223 235t-311.5 85.5zM815 1614h-14q-20 0 -31 16l-139 225q-9 12 -2 26.5t24 14.5h35q31 0 41 -24l105 -227
q6 -13 -1 -22t-18 -9zM688 1878h-35q-12 0 -8 -12l139 -226q5 -8 17 -8h14q6 0 2 8l-104 224q-7 14 -25 14z" />
    <glyph glyph-name="Oacute" unicode="&#xd3;" horiz-adv-x="1617" 
d="M809 -25q-146 0 -277 58t-225 156.5t-149.5 236.5t-55.5 291t55.5 290.5t149.5 236.5t225 156.5t277 57.5t277 -57.5t225 -156.5t149.5 -236.5t55.5 -290.5t-55.5 -291t-149.5 -236.5t-225 -156.5t-277 -58zM809 1442q-142 0 -269.5 -56.5t-219 -153t-145.5 -231
t-54 -284.5t54 -284.5t145.5 -231t219 -153t269.5 -56.5t269.5 56.5t219 153t145.5 231t54 284.5t-54 284.5t-145.5 231t-219 153t-269.5 56.5zM809 47q-175 0 -321 88.5t-230 242.5t-84 339t84 338.5t230 242t321 88.5t321 -88.5t230 -242t84 -338.5t-84 -339t-230 -242.5
t-321 -88.5zM809 1368q-170 0 -311.5 -85.5t-223 -235t-81.5 -330.5t81.5 -330.5t223 -235t311.5 -85.5t311.5 85.5t223 235t81.5 330.5t-81.5 330.5t-223 235t-311.5 85.5zM815 1614h-14q-11 0 -18 9t-1 22l105 227q10 24 41 24h35q17 0 24 -14.5t-2 -26.5l-139 -225
q-11 -16 -31 -16zM963 1878h-35q-18 0 -25 -14l-104 -224q-4 -8 2 -8h14q11 0 16 8l140 226q4 12 -8 12z" />
    <glyph glyph-name="Ocircumflex" unicode="&#xd4;" horiz-adv-x="1617" 
d="M809 -25q-146 0 -277 58t-225 156.5t-149.5 236.5t-55.5 291t55.5 290.5t149.5 236.5t225 156.5t277 57.5t277 -57.5t225 -156.5t149.5 -236.5t55.5 -290.5t-55.5 -291t-149.5 -236.5t-225 -156.5t-277 -58zM809 1442q-142 0 -269.5 -56.5t-219 -153t-145.5 -231
t-54 -284.5t54 -284.5t145.5 -231t219 -153t269.5 -56.5t269.5 56.5t219 153t145.5 231t54 284.5t-54 284.5t-145.5 231t-219 153t-269.5 56.5zM809 47q-175 0 -321 88.5t-230 242.5t-84 339t84 338.5t230 242t321 88.5t321 -88.5t230 -242t84 -338.5t-84 -339t-230 -242.5
t-321 -88.5zM809 1368q-170 0 -311.5 -85.5t-223 -235t-81.5 -330.5t81.5 -330.5t223 -235t311.5 -85.5t311.5 85.5t223 235t81.5 330.5t-81.5 330.5t-223 235t-311.5 85.5zM1038 1614h-24q-29 0 -43 20l-158 195l-160 -195q-14 -20 -41 -20h-26q-15 0 -21 11.5t4 23.5
l187 229q15 18 41 18h30q28 0 43 -18l185 -229q9 -12 3 -23.5t-20 -11.5zM639 1645l174 213l172 -213q13 -13 29 -13h24q7 0 4 6l-186 228q-9 12 -29 12h-30q-18 0 -27 -12l-186 -228q-6 -6 2 -6h26q17 0 27 13z" />
    <glyph glyph-name="Otilde" unicode="&#xd5;" horiz-adv-x="1617" 
d="M809 -25q-146 0 -277 58t-225 156.5t-149.5 236.5t-55.5 291t55.5 290.5t149.5 236.5t225 156.5t277 57.5t277 -57.5t225 -156.5t149.5 -236.5t55.5 -290.5t-55.5 -291t-149.5 -236.5t-225 -156.5t-277 -58zM809 1442q-142 0 -269.5 -56.5t-219 -153t-145.5 -231
t-54 -284.5t54 -284.5t145.5 -231t219 -153t269.5 -56.5t269.5 56.5t219 153t145.5 231t54 284.5t-54 284.5t-145.5 231t-219 153t-269.5 56.5zM809 47q-175 0 -321 88.5t-230 242.5t-84 339t84 338.5t230 242t321 88.5t321 -88.5t230 -242t84 -338.5t-84 -339t-230 -242.5
t-321 -88.5zM809 1368q-170 0 -311.5 -85.5t-223 -235t-81.5 -330.5t81.5 -330.5t223 -235t311.5 -85.5t311.5 85.5t223 235t81.5 330.5t-81.5 330.5t-223 235t-311.5 85.5zM582 1606l-19 4q-36 5 -28 43q10 43 29.5 72.5t43.5 41.5t42 16.5t36 4.5q8 0 16 -1t14.5 -1.5
t15 -3t13.5 -3.5t14.5 -5t12.5 -5t13.5 -6t12 -5.5t13.5 -6.5l12 -6q72 -37 103 -37q49 0 65 61q3 14 14.5 23t24.5 6l19 -4q38 -7 30 -45q-21 -75 -64.5 -103t-88.5 -28q-62 0 -146 47q-68 33 -94 33q-47 0 -63 -64q-10 -33 -41 -28zM686 1769q-16 0 -31.5 -3.5t-37 -14.5
t-39.5 -37t-27 -65q-4 -17 16 -21l17 -4q17 -3 20 14q20 78 82 78q34 0 102 -35q76 -45 138 -45q100 0 135 119q5 16 -14 21l-19 4q-16 3 -20 -15q-18 -75 -82 -75q-39 0 -111 39q-82 40 -129 40z" />
    <glyph glyph-name="Odieresis" unicode="&#xd6;" horiz-adv-x="1617" 
d="M809 -25q-146 0 -277 58t-225 156.5t-149.5 236.5t-55.5 291t55.5 290.5t149.5 236.5t225 156.5t277 57.5t277 -57.5t225 -156.5t149.5 -236.5t55.5 -290.5t-55.5 -291t-149.5 -236.5t-225 -156.5t-277 -58zM809 1442q-142 0 -269.5 -56.5t-219 -153t-145.5 -231
t-54 -284.5t54 -284.5t145.5 -231t219 -153t269.5 -56.5t269.5 56.5t219 153t145.5 231t54 284.5t-54 284.5t-145.5 231t-219 153t-269.5 56.5zM809 47q-175 0 -321 88.5t-230 242.5t-84 339t84 338.5t230 242t321 88.5t321 -88.5t230 -242t84 -338.5t-84 -339t-230 -242.5
t-321 -88.5zM809 1368q-170 0 -311.5 -85.5t-223 -235t-81.5 -330.5t81.5 -330.5t223 -235t311.5 -85.5t311.5 85.5t223 235t81.5 330.5t-81.5 330.5t-223 235t-311.5 85.5zM647 1659q-32 0 -56 23t-24 55q0 33 23.5 56.5t56.5 23.5t56.5 -23.5t23.5 -56.5q0 -32 -24 -55
t-56 -23zM647 1798q-25 0 -43 -17.5t-18 -43.5q0 -25 18 -42.5t43 -17.5t43.5 17.5t18.5 42.5q0 26 -18.5 43.5t-43.5 17.5zM977 1659q-34 0 -57 23t-23 55q0 34 23 57t57 23q32 0 55 -23t23 -57q0 -32 -23 -55t-55 -23zM977 1798q-26 0 -44 -17.5t-18 -43.5q0 -25 18 -42.5
t44 -17.5q25 0 43 17.5t18 42.5q0 26 -18 43.5t-43 17.5z" />
    <glyph glyph-name="multiply" unicode="&#xd7;" horiz-adv-x="946" 
d="M195 319l-13 13q-12 12 -11.5 26t11.5 25l230 229l-230 230q-10 10 -10 25t10 26l13 12q10 9 25.5 9t25.5 -9l229 -229l230 229q11 9 26 9t25 -9l12 -12q10 -11 10 -26t-10 -25l-229 -230l229 -229q10 -11 10 -26t-10 -25l-12 -13q-10 -11 -25 -11t-26 11l-230 230
l-229 -230q-26 -25 -51 0zM207 893l-12 -14q-5 -5 -5 -13t5 -12l241 -242l-241 -241q-13 -13 0 -27l12 -12q13 -13 26 0l242 241l242 -241q13 -13 26 0l13 12q5 5 5.5 13t-5.5 14l-242 241l242 242q4 4 4 12t-4 13l-13 14q-13 10 -26 0l-242 -244l-242 244q-13 10 -26 0z
" />
    <glyph glyph-name="Oslash" unicode="&#xd8;" horiz-adv-x="1617" 
d="M811 -25q-147 0 -278 57t-230 163l-106 -99q-10 -9 -26 -8.5t-26 10.5l-12 15q-10 11 -9 26t11 25l111 100q-142 199 -142 453q0 205 93.5 375t256 268t357.5 98q147 0 277.5 -56t228.5 -161l106 96q11 10 26 9.5t26 -11.5l12 -14q22 -25 -2 -49l-111 -101
q142 -202 142 -454q0 -153 -55 -291t-149 -236.5t-224.5 -156.5t-276.5 -58zM184 111l121 108l6 -6q95 -106 224.5 -162.5t275.5 -56.5q142 0 269.5 56.5t219 152.5t145.5 230t54 284q0 249 -143 450l-6 7l123 110q13 12 0 25l-13 14q-10 13 -24 2l-121 -111l-4 7
q-97 107 -226 164t-274 57q-190 0 -348.5 -96t-249 -262.5t-90.5 -366.5q0 -256 143 -449l4 -6l-123 -112q-11 -11 0 -25l13 -14q5 -5 12 -5.5t12 5.5zM811 47q-134 0 -253 52.5t-208 150.5l-6 6l967 881l4 -9q129 -180 129 -411q0 -185 -84 -339t-229.5 -242.5
t-319.5 -88.5zM1307 1110l-936 -856q86 -91 199.5 -139.5t240.5 -48.5t241 51t195.5 137.5t129.5 207t48 255.5q0 222 -118 393zM1276 1178l-965 -881l-6 8q-129 183 -129 412q0 186 84 339.5t230 241.5t321 88q132 0 251 -51.5t208 -148.5zM811 1368q-170 0 -311.5 -85.5
t-223 -235t-81.5 -330.5q0 -223 118 -391l936 854q-84 92 -197.5 140t-240.5 48z" />
    <glyph glyph-name="Ugrave" unicode="&#xd9;" horiz-adv-x="1384" 
d="M692 -27q-232 0 -371 148.5t-139 396.5v879q0 15 11 26t26 11h17q15 0 25.5 -11t10.5 -26v-879q0 -207 114 -331t306 -124t306 124t114 331v879q0 15 11 26t26 11h18q14 0 24.5 -11t10.5 -26v-879q0 -248 -138.5 -396.5t-371.5 -148.5zM236 1415h-17q-7 0 -12.5 -5.5
t-5.5 -12.5v-879q0 -239 133.5 -382.5t357.5 -143.5t359 143.5t135 382.5v879q0 7 -5.5 12.5t-13.5 5.5h-18q-8 0 -13.5 -5.5t-5.5 -12.5v-879q0 -215 -119.5 -344t-318.5 -129t-318.5 129t-119.5 344v879q0 7 -5 12.5t-13 5.5zM719 1614h-14q-20 0 -31 16l-139 225
q-9 12 -2 26.5t24 14.5h35q31 0 41 -24l104 -227q6 -13 -0.5 -22t-17.5 -9zM592 1878h-35q-12 0 -8 -12l139 -226q5 -8 17 -8h14q6 0 2 8l-105 224q-7 14 -24 14z" />
    <glyph glyph-name="Uacute" unicode="&#xda;" horiz-adv-x="1384" 
d="M692 -27q-232 0 -371 148.5t-139 396.5v879q0 15 11 26t26 11h17q15 0 25.5 -11t10.5 -26v-879q0 -207 114 -331t306 -124t306 124t114 331v879q0 15 11 26t26 11h18q14 0 24.5 -11t10.5 -26v-879q0 -248 -138.5 -396.5t-371.5 -148.5zM236 1415h-17q-7 0 -12.5 -5.5
t-5.5 -12.5v-879q0 -239 133.5 -382.5t357.5 -143.5t359 143.5t135 382.5v879q0 7 -5.5 12.5t-13.5 5.5h-18q-8 0 -13.5 -5.5t-5.5 -12.5v-879q0 -215 -119.5 -344t-318.5 -129t-318.5 129t-119.5 344v879q0 7 -5 12.5t-13 5.5zM698 1614h-14q-11 0 -17.5 9t-0.5 22l104 227
q10 24 41 24h35q17 0 24 -14.5t-2 -26.5l-139 -225q-11 -16 -31 -16zM846 1878h-35q-18 0 -25 -14l-104 -224q-4 -8 2 -8h14q12 0 17 8l139 226q4 12 -8 12z" />
    <glyph glyph-name="Ucircumflex" unicode="&#xdb;" horiz-adv-x="1384" 
d="M692 -27q-232 0 -371 148.5t-139 396.5v879q0 15 11 26t26 11h17q15 0 25.5 -11t10.5 -26v-879q0 -207 114 -331t306 -124t306 124t114 331v879q0 15 11 26t26 11h18q14 0 24.5 -11t10.5 -26v-879q0 -248 -138.5 -396.5t-371.5 -148.5zM236 1415h-17q-7 0 -12.5 -5.5
t-5.5 -12.5v-879q0 -239 133.5 -382.5t357.5 -143.5t359 143.5t135 382.5v879q0 7 -5.5 12.5t-13.5 5.5h-18q-8 0 -13.5 -5.5t-5.5 -12.5v-879q0 -215 -119.5 -344t-318.5 -129t-318.5 129t-119.5 344v879q0 7 -5 12.5t-13 5.5zM922 1614h-25q-29 0 -43 20l-158 195
l-159 -195q-14 -20 -41 -20h-27q-15 0 -20.5 11.5t4.5 23.5l186 229q15 18 41 18h31q28 0 43 -18l184 -229q9 -12 3.5 -23.5t-19.5 -11.5zM522 1645l174 213l172 -213q13 -13 29 -13h25q7 0 4 6l-187 228q-9 12 -28 12h-31q-18 0 -27 -12l-186 -228q-6 -6 2 -6h27
q16 0 26 13z" />
    <glyph glyph-name="Udieresis" unicode="&#xdc;" horiz-adv-x="1384" 
d="M692 -27q-232 0 -371 148.5t-139 396.5v879q0 15 11 26t26 11h17q15 0 25.5 -11t10.5 -26v-879q0 -207 114 -331t306 -124t306 124t114 331v879q0 15 11 26t26 11h18q14 0 24.5 -11t10.5 -26v-879q0 -248 -138.5 -396.5t-371.5 -148.5zM236 1415h-17q-7 0 -12.5 -5.5
t-5.5 -12.5v-879q0 -239 133.5 -382.5t357.5 -143.5t359 143.5t135 382.5v879q0 7 -5.5 12.5t-13.5 5.5h-18q-8 0 -13.5 -5.5t-5.5 -12.5v-879q0 -215 -119.5 -344t-318.5 -129t-318.5 129t-119.5 344v879q0 7 -5 12.5t-13 5.5zM530 1659q-32 0 -55.5 23t-23.5 55
q0 33 23.5 56.5t55.5 23.5q33 0 56.5 -23.5t23.5 -56.5q0 -32 -24 -55t-56 -23zM530 1798q-25 0 -43 -17.5t-18 -43.5q0 -25 18 -42.5t43 -17.5t43.5 17.5t18.5 42.5q0 26 -18.5 43.5t-43.5 17.5zM860 1659q-34 0 -57 23t-23 55q0 34 23 57t57 23q32 0 55 -23t23 -57
q0 -32 -23 -55t-55 -23zM860 1798q-26 0 -43.5 -17.5t-17.5 -43.5q0 -25 17.5 -42.5t43.5 -17.5q25 0 43.5 17.5t18.5 42.5q0 26 -18.5 43.5t-43.5 17.5z" />
    <glyph glyph-name="Yacute" unicode="&#xdd;" horiz-adv-x="1325" 
d="M672 0h-19q-13 0 -24 11t-11 24v481l-540 877q-9 13 0 27t24 14h37q26 0 39 -23l486 -803l485 803q13 23 39 23h37q17 0 24 -13t-2 -28l-538 -877v-481q0 -14 -11 -24.5t-26 -10.5zM139 1415h-37q-6 0 -8.5 -4.5t0.5 -9.5l543 -881v-485q0 -19 16 -19h19q7 0 12.5 5.5
t5.5 13.5v485l541 881q7 14 -6 14h-37q-14 0 -25 -14l-499 -828l-502 828q-7 14 -23 14zM670 1614h-15q-11 0 -17.5 9t-0.5 22l104 227q10 24 41 24h35q17 0 24.5 -14.5t-1.5 -26.5l-140 -225q-11 -16 -30 -16zM817 1878h-35q-17 0 -24 -14l-105 -224q-4 -8 2 -8h15
q11 0 16 8l139 226q4 12 -8 12z" />
    <glyph glyph-name="Thorn" unicode="&#xde;" horiz-adv-x="1150" 
d="M236 0h-19q-15 0 -26 11t-11 26v1362q0 14 11 24.5t26 10.5h19q13 0 23.5 -10.5t10.5 -24.5v-244h308q225 0 359 -119t134 -319t-134 -319t-359 -119h-308v-242q0 -15 -10 -26t-24 -11zM236 1415h-19q-7 0 -12.5 -5t-5.5 -11v-1362q0 -8 5.5 -13.5t12.5 -5.5h19q6 0 11 6
t5 13v260h326q217 0 346 114t129 306t-129 306t-346 114h-326v262q0 6 -5 11t-11 5zM578 350h-326v733h326q192 0 306.5 -99.5t114.5 -266.5t-114.5 -267t-306.5 -100zM270 1065v-696h308q184 0 293.5 94.5t109.5 253.5t-109.5 253.5t-293.5 94.5h-308z" />
    <glyph glyph-name="germandbls" unicode="&#xdf;" horiz-adv-x="1144" 
d="M651 -8q-21 0 -67 4q-13 1 -22 12t-9 25v16q0 35 39 35q173 -24 285 74q98 86 98 239q0 59 -16.5 107t-41.5 79t-60.5 54.5t-69 36t-71 20t-62.5 9.5t-48 2h-26q-12 0 -19.5 7.5t-7.5 18.5v29q0 26 27 26h12q126 0 197 74.5t71 206.5q0 111 -77.5 197t-209.5 86
q-138 0 -224.5 -90.5t-86.5 -233.5v-989q0 -15 -11 -26t-26 -11h-18q-14 0 -24.5 11t-10.5 26v989q0 177 114.5 295.5t286.5 118.5q114 0 202.5 -56t132.5 -140t44 -177q0 -104 -51.5 -187t-140.5 -124q147 -34 227 -127.5t80 -231.5q0 -188 -127 -303q-117 -102 -289 -102z
M569 49v-16q0 -15 17 -19q101 -12 189 13t153 82q121 109 121 288q0 71 -22.5 129.5t-55.5 94t-79 62.5t-83.5 39.5t-79.5 20.5l-33 7l31 12q95 35 151 117t56 188q0 66 -25.5 129t-70.5 113t-114.5 81t-150.5 31q-164 0 -273.5 -113t-109.5 -282v-989q0 -7 5.5 -13t11.5 -6
h18q7 0 13 6t6 13v989q0 151 91.5 246.5t237.5 95.5q95 0 166.5 -45.5t105.5 -113t34 -142.5q0 -138 -77.5 -217.5t-209.5 -79.5h-12q-11 0 -11 -10v-29q0 -8 11 -8h26q24 0 50 -2t65.5 -10t75 -21.5t72.5 -38.5t63.5 -58t43.5 -83.5t17 -112.5q0 -165 -106 -254
q-109 -100 -297 -75q-9 0 -15 -5.5t-6 -13.5z" />
    <glyph glyph-name="agrave" unicode="&#xe0;" 
d="M600 -27q-143 0 -262.5 72.5t-188.5 198.5t-69 276q0 230 151 388.5t369 158.5q138 0 251 -67t181 -189v195q0 15 10.5 25.5t24.5 10.5h18q15 0 26 -10.5t11 -25.5v-971q0 -14 -11 -24.5t-26 -10.5h-18q-13 0 -24 11t-11 24v196q-68 -122 -181 -190t-251 -68zM600 1049
q-138 0 -253.5 -70t-182 -191.5t-66.5 -267.5q0 -222 145.5 -375t356.5 -153q142 0 256 74t176 206l17 37v-274q0 -8 5.5 -13.5t12.5 -5.5h18q7 0 13 6t6 13v971q0 7 -5.5 12.5t-13.5 5.5h-18q-7 0 -12.5 -5t-5.5 -13v-275l-17 39q-62 131 -176 205t-256 74zM600 45
q-124 0 -227 63t-162 172t-59 240t59 240t162 172t227 63q189 0 319 -137.5t130 -337.5t-130 -337.5t-319 -137.5zM600 977q-181 0 -305.5 -132.5t-124.5 -324.5t124.5 -324.5t305.5 -132.5t306.5 132.5t125.5 324.5t-125.5 324.5t-306.5 132.5zM655 1204h-14q-20 0 -31 17
l-139 225q-9 12 -1.5 26.5t24.5 14.5h34q30 0 41 -25l105 -227q6 -13 -1 -22t-18 -9zM528 1468h-34q-13 0 -9 -12l140 -225q5 -8 16 -8h14q6 0 2 8l-104 223q-7 14 -25 14z" />
    <glyph glyph-name="aacute" unicode="&#xe1;" 
d="M600 -27q-143 0 -262.5 72.5t-188.5 198.5t-69 276q0 230 151 388.5t369 158.5q138 0 251 -67t181 -189v195q0 15 10.5 25.5t24.5 10.5h18q15 0 26 -10.5t11 -25.5v-971q0 -14 -11 -24.5t-26 -10.5h-18q-13 0 -24 11t-11 24v196q-68 -122 -181 -190t-251 -68zM600 1049
q-138 0 -253.5 -70t-182 -191.5t-66.5 -267.5q0 -222 145.5 -375t356.5 -153q142 0 256 74t176 206l17 37v-274q0 -8 5.5 -13.5t12.5 -5.5h18q7 0 13 6t6 13v971q0 7 -5.5 12.5t-13.5 5.5h-18q-7 0 -12.5 -5t-5.5 -13v-275l-17 39q-62 131 -176 205t-256 74zM600 45
q-124 0 -227 63t-162 172t-59 240t59 240t162 172t227 63q189 0 319 -137.5t130 -337.5t-130 -337.5t-319 -137.5zM600 977q-181 0 -305.5 -132.5t-124.5 -324.5t124.5 -324.5t305.5 -132.5t306.5 132.5t125.5 324.5t-125.5 324.5t-306.5 132.5zM614 1204h-14q-11 0 -17.5 9
t-0.5 22l104 227q11 25 41 25h35q17 0 24 -14.5t-2 -26.5l-139 -225q-11 -17 -31 -17zM762 1468h-35q-18 0 -25 -14l-104 -223q-4 -8 2 -8h14q12 0 17 8l139 225q4 12 -8 12z" />
    <glyph glyph-name="acircumflex" unicode="&#xe2;" 
d="M600 -27q-143 0 -262.5 72.5t-188.5 198.5t-69 276q0 230 151 388.5t369 158.5q138 0 251 -67t181 -189v195q0 15 10.5 25.5t24.5 10.5h18q15 0 26 -10.5t11 -25.5v-971q0 -14 -11 -24.5t-26 -10.5h-18q-13 0 -24 11t-11 24v196q-68 -122 -181 -190t-251 -68zM600 1049
q-138 0 -253.5 -70t-182 -191.5t-66.5 -267.5q0 -222 145.5 -375t356.5 -153q142 0 256 74t176 206l17 37v-274q0 -8 5.5 -13.5t12.5 -5.5h18q7 0 13 6t6 13v971q0 7 -5.5 12.5t-13.5 5.5h-18q-7 0 -12.5 -5t-5.5 -13v-275l-17 39q-62 131 -176 205t-256 74zM600 45
q-124 0 -227 63t-162 172t-59 240t59 240t162 172t227 63q189 0 319 -137.5t130 -337.5t-130 -337.5t-319 -137.5zM600 977q-181 0 -305.5 -132.5t-124.5 -324.5t124.5 -324.5t305.5 -132.5t306.5 132.5t125.5 324.5t-125.5 324.5t-306.5 132.5zM858 1204h-24q-28 0 -43 21
l-158 194l-160 -194q-15 -21 -41 -21h-26q-15 0 -21 11.5t4 23.5l186 229q16 19 41 19h31q27 0 43 -19l184 -229q9 -12 3.5 -23.5t-19.5 -11.5zM459 1235l174 213l172 -213q12 -12 29 -12h24q7 0 4 6l-186 227q-9 12 -29 12h-31q-17 0 -26 -12l-187 -227q-6 -6 3 -6h26
q18 0 27 12z" />
    <glyph glyph-name="atilde" unicode="&#xe3;" 
d="M600 -27q-143 0 -262.5 72.5t-188.5 198.5t-69 276q0 230 151 388.5t369 158.5q138 0 251 -67t181 -189v195q0 15 10.5 25.5t24.5 10.5h18q15 0 26 -10.5t11 -25.5v-971q0 -14 -11 -24.5t-26 -10.5h-18q-13 0 -24 11t-11 24v196q-68 -122 -181 -190t-251 -68zM600 1049
q-138 0 -253.5 -70t-182 -191.5t-66.5 -267.5q0 -222 145.5 -375t356.5 -153q142 0 256 74t176 206l17 37v-274q0 -8 5.5 -13.5t12.5 -5.5h18q7 0 13 6t6 13v971q0 7 -5.5 12.5t-13.5 5.5h-18q-7 0 -12.5 -5t-5.5 -13v-275l-17 39q-62 131 -176 205t-256 74zM600 45
q-124 0 -227 63t-162 172t-59 240t59 240t162 172t227 63q189 0 319 -137.5t130 -337.5t-130 -337.5t-319 -137.5zM600 977q-181 0 -305.5 -132.5t-124.5 -324.5t124.5 -324.5t305.5 -132.5t306.5 132.5t125.5 324.5t-125.5 324.5t-306.5 132.5zM422 1196l-19 4
q-36 5 -28 43q10 43 29.5 72.5t43.5 41.5t42 16.5t36 4.5q50 0 138 -43q3 -2 14.5 -8t15.5 -7.5t13.5 -6.5t15 -6.5t13.5 -4t15.5 -3.5t14.5 -1q49 0 65 62q3 14 14.5 23t24.5 6l19 -5q39 -7 31 -45q-21 -75 -65 -103t-89 -28q-61 0 -145 47q-68 33 -95 33q-47 0 -63 -63
q-4 -13 -14.5 -22.5t-26.5 -6.5zM526 1360q-16 0 -31.5 -4t-37 -14.5t-39.5 -37t-27 -65.5q-4 -16 17 -20l16 -5q16 -3 20 15q20 78 82 78q35 0 103 -35q76 -45 137 -45q100 0 135 119q4 15 -14 20l-19 4q-16 3 -20 -14q-18 -76 -82 -76q-39 0 -111 39q-71 35 -106 39
q-11 2 -23 2z" />
    <glyph glyph-name="adieresis" unicode="&#xe4;" 
d="M600 -27q-143 0 -262.5 72.5t-188.5 198.5t-69 276q0 230 151 388.5t369 158.5q138 0 251 -67t181 -189v195q0 15 10.5 25.5t24.5 10.5h18q15 0 26 -10.5t11 -25.5v-971q0 -14 -11 -24.5t-26 -10.5h-18q-13 0 -24 11t-11 24v196q-68 -122 -181 -190t-251 -68zM600 1049
q-138 0 -253.5 -70t-182 -191.5t-66.5 -267.5q0 -222 145.5 -375t356.5 -153q142 0 256 74t176 206l17 37v-274q0 -8 5.5 -13.5t12.5 -5.5h18q7 0 13 6t6 13v971q0 7 -5.5 12.5t-13.5 5.5h-18q-7 0 -12.5 -5t-5.5 -13v-275l-17 39q-62 131 -176 205t-256 74zM600 45
q-124 0 -227 63t-162 172t-59 240t59 240t162 172t227 63q189 0 319 -137.5t130 -337.5t-130 -337.5t-319 -137.5zM600 977q-181 0 -305.5 -132.5t-124.5 -324.5t124.5 -324.5t305.5 -132.5t306.5 132.5t125.5 324.5t-125.5 324.5t-306.5 132.5zM465 1249q-32 0 -56 23
t-24 55q0 33 23.5 56.5t56.5 23.5t56.5 -23.5t23.5 -56.5q0 -32 -24 -55t-56 -23zM465 1389q-25 0 -43.5 -18t-18.5 -44q0 -24 18.5 -41.5t43.5 -17.5t43 17t18 42q0 26 -18 44t-43 18zM795 1249q-34 0 -57 23t-23 55q0 34 23 57t57 23q32 0 54.5 -23t22.5 -57
q0 -32 -22.5 -55t-54.5 -23zM795 1389q-26 0 -44 -18t-18 -44q0 -25 18 -42t44 -17q25 0 43 17t18 42q0 26 -18 44t-43 18z" />
    <glyph glyph-name="aring" unicode="&#xe5;" 
d="M600 -27q-143 0 -262.5 72.5t-188.5 198.5t-69 276q0 230 151 388.5t369 158.5q138 0 251 -67t181 -189v195q0 15 10.5 25.5t24.5 10.5h18q15 0 26 -10.5t11 -25.5v-971q0 -14 -11 -24.5t-26 -10.5h-18q-13 0 -24 11t-11 24v196q-68 -122 -181 -190t-251 -68zM600 1049
q-138 0 -253.5 -70t-182 -191.5t-66.5 -267.5q0 -222 145.5 -375t356.5 -153q142 0 256 74t176 206l17 37v-274q0 -8 5.5 -13.5t12.5 -5.5h18q7 0 13 6t6 13v971q0 7 -5.5 12.5t-13.5 5.5h-18q-7 0 -12.5 -5t-5.5 -13v-275l-17 39q-62 131 -176 205t-256 74zM600 45
q-124 0 -227 63t-162 172t-59 240t59 240t162 172t227 63q189 0 319 -137.5t130 -337.5t-130 -337.5t-319 -137.5zM600 977q-181 0 -305.5 -132.5t-124.5 -324.5t124.5 -324.5t305.5 -132.5t306.5 132.5t125.5 324.5t-125.5 324.5t-306.5 132.5zM649 1167q-91 0 -155 64
t-64 155t64 155.5t155 64.5t156 -64.5t65 -155.5t-65 -155t-156 -64zM649 1589q-83 0 -141.5 -59.5t-58.5 -143.5q0 -83 58.5 -141.5t141.5 -58.5q85 0 144 58.5t59 141.5q0 84 -59.5 143.5t-143.5 59.5zM649 1239q-60 0 -103.5 43t-43.5 104t43.5 104.5t103.5 43.5
q61 0 104.5 -43t43.5 -105q0 -61 -43 -104t-105 -43zM649 1516q-54 0 -91.5 -38t-37.5 -92t37.5 -91.5t91.5 -37.5t92.5 37.5t38.5 91.5t-38.5 92t-92.5 38z" />
    <glyph glyph-name="ae" unicode="&#xe6;" horiz-adv-x="2121" 
d="M1569 -25q-136 0 -252.5 62t-188.5 172v-172q0 -15 -10.5 -26t-25.5 -11h-19q-14 0 -24.5 11t-10.5 26v194q-66 -121 -180 -188.5t-252 -67.5q-218 0 -369 158.5t-151 388.5q0 150 69 276t188.5 198.5t262.5 72.5q138 0 252 -68t180 -190v197q0 13 10.5 23.5t24.5 10.5
h19q15 0 25.5 -10t10.5 -24v-170q69 110 178.5 170.5t239.5 60.5q202 0 338 -139q75 -75 115.5 -181t40.5 -227q0 -19 -13 -32t-32 -13h-865q17 -177 142 -294t297 -117q204 0 334 145q8 9 21 11t24 -5l18 -12q15 -9 17.5 -26t-9.5 -29q-158 -175 -405 -175zM1110 37v239
l16 -30q67 -118 185 -185t258 -67q242 0 391 168q13 13 -2 28l-21 13q-11 7 -22 -4q-137 -152 -346 -152q-182 0 -313 125.5t-144 312.5l-2 11h885q11 0 18.5 7t7.5 19q0 244 -149 396q-133 133 -326 133q-134 0 -244 -65t-176 -185l-16 -31v238q0 8 -5 13t-13 5h-19
q-6 0 -11 -5.5t-5 -12.5v-275l-19 37q-60 132 -174.5 206.5t-257.5 74.5q-138 0 -253.5 -70t-182 -192t-66.5 -267q0 -222 145.5 -375t356.5 -153q143 0 257.5 74t174.5 204l19 37v-272q0 -7 5 -13t11 -6h19q7 0 12.5 5.5t5.5 13.5zM606 47q-188 0 -318 138t-130 337
t130 336t318 137q189 0 320 -137t131 -336t-131 -337t-320 -138zM606 979q-180 0 -305 -132.5t-125 -324.5t125 -324t305 -132q182 0 307 132t125 324t-125.5 324.5t-306.5 132.5zM1964 559v-10h-854l2 10q12 187 136 311.5t298 124.5q172 0 289.5 -123.5t128.5 -312.5z
M1130 567h816q-14 179 -126.5 295.5t-273.5 116.5q-163 0 -282 -117.5t-134 -294.5z" />
    <glyph glyph-name="ccedilla" unicode="&#xe7;" horiz-adv-x="1124" 
d="M557 -483q-63 0 -133 26q-15 6 -20 20t2 29l10 19q6 12 19 16.5t26 -0.5q50 -20 101 -19t83 23q47 30 47 95q0 57 -41 84q-27 17 -63.5 18t-73.5 -16q-27 -10 -43 12l-14 18q-13 20 -4 39l51 107q-185 40 -304.5 190.5t-119.5 343.5q0 148 71.5 274t194.5 199.5t268 73.5
q129 0 242 -58t188 -163q10 -11 8 -27t-18 -24l-16 -11q-12 -7 -24.5 -3.5t-20.5 14.5q-65 87 -158.5 134.5t-200.5 47.5q-184 0 -314 -134t-130 -323t130 -322.5t314 -133.5q107 0 200.5 48t158.5 136q8 11 20.5 13t24.5 -5l16 -8q14 -7 17 -24t-7 -29
q-75 -105 -188.5 -163.5t-241.5 -58.5q-24 0 -36 2l-41 -86q106 29 180 -26q67 -49 67 -146q0 -104 -82 -159q-58 -43 -145 -43zM430 -397l-8 -17q-10 -19 8 -26q71 -28 141.5 -24t120.5 38q74 50 74 145q0 87 -59 131q-35 26 -84.5 31t-100.5 -12l-20 -6l63 133h6
q16 -2 43 -2q124 0 233 56t183 157q10 17 -4 29l-16 8q-16 8 -23 -6q-66 -91 -163.5 -141t-209.5 -50q-94 0 -180 37.5t-147.5 101.5t-98 151.5t-36.5 184.5t36.5 184.5t98 151.5t147.5 101.5t180 37.5q112 0 209.5 -49.5t163.5 -140.5q7 -14 23 -6l16 10q8 6 8.5 14.5
t-4.5 12.5q-74 101 -183 157t-233 56q-140 0 -259 -71t-188 -193t-69 -265q0 -191 118.5 -338t301.5 -182l12 -2l-61 -127q-6 -10 2 -18l14 -21q7 -11 21 -6q90 39 156 -4q47 -30 47 -98q0 -74 -54 -109q-47 -27 -100 -27t-102 21q-13 5 -23 -8z" />
    <glyph glyph-name="egrave" unicode="&#xe8;" horiz-adv-x="1159" 
d="M608 -27q-148 0 -269.5 71.5t-191 197t-69.5 278.5q0 233 146 390t364 157q199 0 336 -137q155 -158 155 -410q0 -19 -13 -32t-32 -13h-864q17 -177 141.5 -294.5t296.5 -117.5q201 0 334 148q20 20 45 6l21 -12q14 -9 16 -26t-10 -29q-157 -177 -406 -177zM588 1049
q-138 0 -251 -69t-177 -190.5t-64 -269.5q0 -226 147 -377t365 -151q243 0 393 170q6 6 5 13.5t-9 12.5l-18 13q-15 8 -25 -2q-133 -154 -346 -154q-182 0 -312.5 125.5t-143.5 312.5v11h882q11 0 19 8t8 18q1 118 -37.5 221t-112.5 177q-134 131 -323 131zM1004 557v-10
h-852v10q12 187 137 312.5t299 125.5q170 0 288 -124t128 -314zM170 565h815q-12 180 -124 296t-273 116q-164 0 -283.5 -117.5t-134.5 -294.5zM606 1204h-14q-20 0 -31 17l-139 225q-9 12 -2 26.5t24 14.5h35q30 0 41 -25l105 -227q6 -13 -1 -22t-18 -9zM479 1468h-35
q-12 0 -8 -12l139 -225q5 -8 17 -8h14q6 0 2 8l-104 223q-7 14 -25 14z" />
    <glyph glyph-name="eacute" unicode="&#xe9;" horiz-adv-x="1159" 
d="M608 -27q-148 0 -269.5 71.5t-191 197t-69.5 278.5q0 233 146 390t364 157q199 0 336 -137q155 -158 155 -410q0 -19 -13 -32t-32 -13h-864q17 -177 141.5 -294.5t296.5 -117.5q201 0 334 148q20 20 45 6l21 -12q14 -9 16 -26t-10 -29q-157 -177 -406 -177zM588 1049
q-138 0 -251 -69t-177 -190.5t-64 -269.5q0 -226 147 -377t365 -151q243 0 393 170q6 6 5 13.5t-9 12.5l-18 13q-15 8 -25 -2q-133 -154 -346 -154q-182 0 -312.5 125.5t-143.5 312.5v11h882q11 0 19 8t8 18q1 118 -37.5 221t-112.5 177q-134 131 -323 131zM1004 557v-10
h-852v10q12 187 137 312.5t299 125.5q170 0 288 -124t128 -314zM170 565h815q-12 180 -124 296t-273 116q-164 0 -283.5 -117.5t-134.5 -294.5zM565 1204h-14q-11 0 -18 9t-1 22l105 227q11 25 41 25h35q17 0 24 -14.5t-2 -26.5l-139 -225q-11 -17 -31 -17zM713 1468h-35
q-18 0 -25 -14l-104 -223q-4 -8 2 -8h14q12 0 17 8l139 225q4 12 -8 12z" />
    <glyph glyph-name="ecircumflex" unicode="&#xea;" horiz-adv-x="1159" 
d="M608 -27q-148 0 -269.5 71.5t-191 197t-69.5 278.5q0 233 146 390t364 157q199 0 336 -137q155 -158 155 -410q0 -19 -13 -32t-32 -13h-864q17 -177 141.5 -294.5t296.5 -117.5q201 0 334 148q20 20 45 6l21 -12q14 -9 16 -26t-10 -29q-157 -177 -406 -177zM588 1049
q-138 0 -251 -69t-177 -190.5t-64 -269.5q0 -226 147 -377t365 -151q243 0 393 170q6 6 5 13.5t-9 12.5l-18 13q-15 8 -25 -2q-133 -154 -346 -154q-182 0 -312.5 125.5t-143.5 312.5v11h882q11 0 19 8t8 18q1 118 -37.5 221t-112.5 177q-134 131 -323 131zM1004 557v-10
h-852v10q12 187 137 312.5t299 125.5q170 0 288 -124t128 -314zM170 565h815q-12 180 -124 296t-273 116q-164 0 -283.5 -117.5t-134.5 -294.5zM829 1204h-24q-28 0 -43 21l-158 194l-160 -194q-15 -21 -41 -21h-26q-15 0 -21 11.5t4 23.5l187 229q16 19 41 19h30
q28 0 44 -19l184 -229q9 -12 3 -23.5t-20 -11.5zM430 1235l174 213l172 -213q12 -12 29 -12h24q8 0 5 6l-187 227q-9 12 -29 12h-30q-18 0 -27 -12l-186 -227q-6 -6 2 -6h26q18 0 27 12z" />
    <glyph glyph-name="edieresis" unicode="&#xeb;" horiz-adv-x="1159" 
d="M608 -27q-148 0 -269.5 71.5t-191 197t-69.5 278.5q0 233 146 390t364 157q199 0 336 -137q155 -158 155 -410q0 -19 -13 -32t-32 -13h-864q17 -177 141.5 -294.5t296.5 -117.5q201 0 334 148q20 20 45 6l21 -12q14 -9 16 -26t-10 -29q-157 -177 -406 -177zM588 1049
q-138 0 -251 -69t-177 -190.5t-64 -269.5q0 -226 147 -377t365 -151q243 0 393 170q6 6 5 13.5t-9 12.5l-18 13q-15 8 -25 -2q-133 -154 -346 -154q-182 0 -312.5 125.5t-143.5 312.5v11h882q11 0 19 8t8 18q1 118 -37.5 221t-112.5 177q-134 131 -323 131zM1004 557v-10
h-852v10q12 187 137 312.5t299 125.5q170 0 288 -124t128 -314zM170 565h815q-12 180 -124 296t-273 116q-164 0 -283.5 -117.5t-134.5 -294.5zM436 1249q-32 0 -56 23t-24 55q0 33 23.5 56.5t56.5 23.5t56.5 -23.5t23.5 -56.5q0 -32 -24 -55t-56 -23zM436 1389
q-25 0 -43 -18t-18 -44q0 -25 18 -42t43 -17t43.5 17.5t18.5 41.5q0 26 -18.5 44t-43.5 18zM766 1249q-34 0 -57 23t-23 55q0 34 23 57t57 23q32 0 55 -23t23 -57q0 -32 -23 -55t-55 -23zM766 1389q-26 0 -43.5 -18t-17.5 -44q0 -25 17.5 -42t43.5 -17q25 0 43 17t18 42
q0 26 -18 44t-43 18z" />
    <glyph glyph-name="igrave" unicode="&#xec;" horiz-adv-x="421" 
d="M221 0h-18q-15 0 -26 10.5t-11 24.5v971q0 15 11 25.5t26 10.5h18q14 0 24.5 -10.5t10.5 -25.5v-971q0 -13 -11 -24t-24 -11zM221 1024h-18q-8 0 -13.5 -5.5t-5.5 -12.5v-971q0 -7 6 -13t13 -6h18q7 0 12 5.5t5 13.5v971q0 18 -17 18zM215 1204h-14q-20 0 -31 17
l-139 225q-9 12 -2 26.5t24 14.5h35q30 0 41 -25l104 -227q6 -13 -0.5 -22t-17.5 -9zM88 1468h-35q-12 0 -8 -12l139 -225q5 -8 17 -8h14q6 0 2 8l-104 223q-7 14 -25 14z" />
    <glyph glyph-name="iacute" unicode="&#xed;" horiz-adv-x="421" 
d="M221 0h-18q-15 0 -26 10.5t-11 24.5v971q0 15 11 25.5t26 10.5h18q14 0 24.5 -10.5t10.5 -25.5v-971q0 -13 -11 -24t-24 -11zM221 1024h-18q-8 0 -13.5 -5.5t-5.5 -12.5v-971q0 -7 6 -13t13 -6h18q7 0 12 5.5t5 13.5v971q0 18 -17 18zM229 1204h-14q-11 0 -17.5 9
t-0.5 22l104 227q11 25 41 25h35q17 0 24 -14.5t-2 -26.5l-139 -225q-11 -17 -31 -17zM377 1468h-35q-18 0 -25 -14l-104 -223q-4 -8 2 -8h14q12 0 17 8l139 225q4 12 -8 12z" />
    <glyph glyph-name="icircumflex" unicode="&#xee;" horiz-adv-x="421" 
d="M221 0h-18q-15 0 -26 10.5t-11 24.5v971q0 15 11 25.5t26 10.5h18q14 0 24.5 -10.5t10.5 -25.5v-971q0 -13 -11 -24t-24 -11zM221 1024h-18q-8 0 -13.5 -5.5t-5.5 -12.5v-971q0 -7 6 -13t13 -6h18q7 0 12 5.5t5 13.5v971q0 18 -17 18zM440 1204h-24q-28 0 -43 21
l-158 194l-160 -194q-15 -21 -41 -21h-26q-15 0 -21 11.5t4 23.5l187 229q16 19 41 19h30q27 0 43 -19l185 -229q9 -12 3 -23.5t-20 -11.5zM41 1235l174 213l172 -213q12 -12 29 -12h24q7 0 4 6l-186 227q-9 12 -29 12h-30q-18 0 -27 -12l-186 -227q-6 -6 2 -6h26
q18 0 27 12z" />
    <glyph glyph-name="idieresis" unicode="&#xef;" horiz-adv-x="421" 
d="M221 0h-18q-15 0 -26 10.5t-11 24.5v971q0 15 11 25.5t26 10.5h18q14 0 24.5 -10.5t10.5 -25.5v-971q0 -13 -11 -24t-24 -11zM221 1024h-18q-8 0 -13.5 -5.5t-5.5 -12.5v-971q0 -7 6 -13t13 -6h18q7 0 12 5.5t5 13.5v971q0 18 -17 18zM49 1249q-32 0 -56 23t-24 55
q0 33 23.5 56.5t56.5 23.5t56.5 -23.5t23.5 -56.5q0 -32 -24 -55t-56 -23zM49 1389q-25 0 -43 -18t-18 -44q0 -25 18 -42t43 -17t43.5 17.5t18.5 41.5q0 26 -18.5 44t-43.5 18zM379 1249q-34 0 -57 23t-23 55q0 34 23 57t57 23q32 0 55 -23t23 -57q0 -32 -23 -55t-55 -23z
M379 1389q-26 0 -44 -18t-18 -44q0 -25 18 -42t44 -17q25 0 43 17t18 42q0 26 -18 44t-43 18z" />
    <glyph glyph-name="eth" unicode="&#xf0;" horiz-adv-x="1167" 
d="M582 -25q-211 0 -356.5 144.5t-145.5 353.5q0 210 145.5 354t356.5 144q106 0 200.5 -42t161.5 -120q-88 220 -285 401l-258 -127q-13 -6 -28 -1t-21 18l-8 16q-6 14 -1 27.5t17 19.5l224 111q-107 81 -219 131q-17 7 -17 20q0 18 12 27l23 16q24 14 45 5
q131 -62 248 -154l182 88q13 8 27.5 3.5t21.5 -19.5l8 -17q6 -14 1 -27.5t-17 -19.5l-149 -74q165 -157 252.5 -353t87.5 -408q0 -221 -145.5 -369t-362.5 -148zM582 954q-203 0 -343.5 -139.5t-140.5 -341.5q0 -132 64 -242t175.5 -173.5t244.5 -63.5q209 0 349 142
t140 356q0 212 -88.5 407t-255.5 350l-10 8l174 86q6 3 8.5 10t-0.5 13l-8 16q-10 17 -25 9l-192 -95l-4 4q-116 93 -250 156q-13 7 -27 -4l-22 -16q-4 -2 -4 -9q0 -4 4 -6q123 -54 235 -143l12 -8l-249 -121q-16 -12 -9 -25l9 -16q9 -15 24 -8l271 131l4 -4
q219 -198 311 -463l-18 -8l-5 6q-64 92 -162 142t-212 50zM582 47q-102 0 -185.5 36.5t-135.5 97.5t-79.5 136t-27.5 156q0 107 50 203t150 159.5t228 63.5q98 0 181 -37t137 -97.5t84 -136.5t30 -155t-28.5 -154t-81.5 -136.5t-137 -98.5t-185 -37zM582 881
q-93 0 -172.5 -35.5t-131 -93.5t-80 -130.5t-28.5 -148.5q0 -77 27 -149t77 -130t130 -93t178 -35t178 35t130.5 92.5t77.5 130t27 149.5q0 76 -29 148.5t-80.5 130.5t-131 93.5t-172.5 35.5z" />
    <glyph glyph-name="ntilde" unicode="&#xf1;" horiz-adv-x="1181" 
d="M975 0h-19q-15 0 -25.5 10.5t-10.5 24.5v598q0 55 -17.5 112t-52 110.5t-98 87.5t-144.5 34q-103 0 -184.5 -55t-122.5 -137t-41 -171v-579q0 -14 -11 -24.5t-26 -10.5h-18q-13 0 -24 11t-11 24v971q0 15 10.5 25.5t24.5 10.5h18q15 0 26 -10.5t11 -25.5v-138
q57 95 147.5 147t200.5 52q94 0 172 -38t127 -100t76 -139t27 -157v-598q0 -13 -11 -24t-24 -11zM608 995q102 0 179 -54.5t114 -135.5t37 -172v-598q0 -8 5.5 -13.5t12.5 -5.5h19q16 0 16 19v598q0 77 -25.5 150t-72 133t-121 96.5t-164.5 36.5q-113 0 -204.5 -57.5
t-145.5 -162.5l-16 -32v209q0 7 -5.5 12.5t-13.5 5.5h-18q-6 0 -11.5 -5.5t-5.5 -12.5v-971q0 -7 5.5 -13t11.5 -6h18q7 0 13 6t6 13v579q0 93 43 179t129 144t194 58zM362 1196l-18 4q-37 5 -29 43q10 43 30 72.5t44 41.5t42 16.5t36 4.5q8 0 16 -1t14.5 -1.5t15 -3
t13.5 -3.5t14.5 -5t12.5 -5t13.5 -6t12 -5.5t13.5 -6.5l12 -6q72 -37 103 -37q49 0 65 62q3 14 14.5 23t24.5 6l18 -5q39 -7 31 -45q-21 -75 -64.5 -103t-88.5 -28q-62 0 -146 47q-68 33 -94 33q-48 0 -64 -63q-4 -13 -14.5 -22.5t-26.5 -6.5zM467 1360q-16 0 -31.5 -4
t-37 -14.5t-39.5 -37t-27 -65.5q-3 -11 1.5 -14.5t14.5 -5.5l17 -5q16 -3 20 15q20 78 82 78q34 0 102 -35q76 -45 138 -45q100 0 135 119q4 15 -15 20l-18 4q-17 3 -21 -14q-18 -76 -81 -76q-39 0 -111 39q-71 35 -106 39q-11 2 -23 2z" />
    <glyph glyph-name="ograve" unicode="&#xf2;" horiz-adv-x="1230" 
d="M614 -27q-145 0 -268 73.5t-194.5 199.5t-71.5 274t71.5 274t194.5 199.5t268 73.5t269 -73.5t196 -199.5t72 -274t-72 -274t-196 -199.5t-269 -73.5zM614 1049q-140 0 -259.5 -70.5t-189 -192.5t-69.5 -266q0 -143 69.5 -264.5t189 -192.5t259.5 -71q141 0 260.5 71
t189 192.5t69.5 264.5q0 144 -69.5 266t-189 192.5t-260.5 70.5zM614 45q-94 0 -180 37.5t-147.5 101.5t-98 151.5t-36.5 184.5t36.5 184.5t98 151.5t147.5 101.5t180 37.5q126 0 232.5 -63.5t168.5 -173t62 -238.5t-62 -238.5t-168.5 -173t-232.5 -63.5zM614 977
q-184 0 -314 -134t-130 -323t130 -323t314 -134q121 0 224 61t163 166.5t60 229.5t-60 229.5t-163 166.5t-224 61zM641 1204h-14q-20 0 -31 17l-139 225q-9 12 -2 26.5t24 14.5h35q30 0 41 -25l104 -227q6 -13 -0.5 -22t-17.5 -9zM514 1468h-35q-12 0 -8 -12l139 -225
q5 -8 17 -8h14q6 0 2 8l-104 223q-7 14 -25 14z" />
    <glyph glyph-name="oacute" unicode="&#xf3;" horiz-adv-x="1230" 
d="M614 -27q-145 0 -268 73.5t-194.5 199.5t-71.5 274t71.5 274t194.5 199.5t268 73.5t269 -73.5t196 -199.5t72 -274t-72 -274t-196 -199.5t-269 -73.5zM614 1049q-140 0 -259.5 -70.5t-189 -192.5t-69.5 -266q0 -143 69.5 -264.5t189 -192.5t259.5 -71q141 0 260.5 71
t189 192.5t69.5 264.5q0 144 -69.5 266t-189 192.5t-260.5 70.5zM614 45q-94 0 -180 37.5t-147.5 101.5t-98 151.5t-36.5 184.5t36.5 184.5t98 151.5t147.5 101.5t180 37.5q126 0 232.5 -63.5t168.5 -173t62 -238.5t-62 -238.5t-168.5 -173t-232.5 -63.5zM614 977
q-184 0 -314 -134t-130 -323t130 -323t314 -134q121 0 224 61t163 166.5t60 229.5t-60 229.5t-163 166.5t-224 61zM618 1204h-14q-11 0 -17.5 9t-0.5 22l104 227q11 25 41 25h35q17 0 24 -14.5t-2 -26.5l-139 -225q-11 -17 -31 -17zM766 1468h-35q-17 0 -24 -14l-105 -223
q-4 -8 2 -8h14q12 0 17 8l139 225q4 12 -8 12z" />
    <glyph glyph-name="ocircumflex" unicode="&#xf4;" horiz-adv-x="1230" 
d="M614 -27q-145 0 -268 73.5t-194.5 199.5t-71.5 274t71.5 274t194.5 199.5t268 73.5t269 -73.5t196 -199.5t72 -274t-72 -274t-196 -199.5t-269 -73.5zM614 1049q-140 0 -259.5 -70.5t-189 -192.5t-69.5 -266q0 -143 69.5 -264.5t189 -192.5t259.5 -71q141 0 260.5 71
t189 192.5t69.5 264.5q0 144 -69.5 266t-189 192.5t-260.5 70.5zM614 45q-94 0 -180 37.5t-147.5 101.5t-98 151.5t-36.5 184.5t36.5 184.5t98 151.5t147.5 101.5t180 37.5q126 0 232.5 -63.5t168.5 -173t62 -238.5t-62 -238.5t-168.5 -173t-232.5 -63.5zM614 977
q-184 0 -314 -134t-130 -323t130 -323t314 -134q121 0 224 61t163 166.5t60 229.5t-60 229.5t-163 166.5t-224 61zM844 1204h-25q-28 0 -43 21l-158 194l-159 -194q-15 -21 -41 -21h-27q-15 0 -20.5 11.5t4.5 23.5l186 229q16 19 41 19h31q27 0 43 -19l184 -229
q9 -12 3.5 -23.5t-19.5 -11.5zM444 1235l174 213l173 -213q12 -12 28 -12h25q7 0 4 6l-186 227q-9 12 -29 12h-31q-18 0 -27 -12l-186 -227q-6 -6 2 -6h27q17 0 26 12z" />
    <glyph glyph-name="otilde" unicode="&#xf5;" horiz-adv-x="1230" 
d="M614 -27q-145 0 -268 73.5t-194.5 199.5t-71.5 274t71.5 274t194.5 199.5t268 73.5t269 -73.5t196 -199.5t72 -274t-72 -274t-196 -199.5t-269 -73.5zM614 1049q-140 0 -259.5 -70.5t-189 -192.5t-69.5 -266q0 -143 69.5 -264.5t189 -192.5t259.5 -71q141 0 260.5 71
t189 192.5t69.5 264.5q0 144 -69.5 266t-189 192.5t-260.5 70.5zM614 45q-94 0 -180 37.5t-147.5 101.5t-98 151.5t-36.5 184.5t36.5 184.5t98 151.5t147.5 101.5t180 37.5q126 0 232.5 -63.5t168.5 -173t62 -238.5t-62 -238.5t-168.5 -173t-232.5 -63.5zM614 977
q-184 0 -314 -134t-130 -323t130 -323t314 -134q121 0 224 61t163 166.5t60 229.5t-60 229.5t-163 166.5t-224 61zM387 1196l-18 4q-37 5 -29 43q10 43 30 72.5t44 41.5t42 16.5t36 4.5q8 0 16 -1t14.5 -1.5t15 -3t13.5 -3.5t14.5 -5t12.5 -5t13.5 -6t12 -5.5t13.5 -6.5
l12 -6q3 -2 14.5 -8t15.5 -7.5t13.5 -6.5t15 -6.5t13.5 -4t15.5 -3.5t14.5 -1q50 0 66 62q3 14 14.5 23t24.5 6l18 -5q39 -7 31 -45q-21 -75 -65 -103t-89 -28q-61 0 -145 47q-68 33 -94 33q-48 0 -64 -63q-4 -13 -14.5 -22.5t-26.5 -6.5zM492 1360q-16 0 -31.5 -4
t-37 -14.5t-40 -37t-27.5 -65.5q-4 -16 17 -20l16 -5q17 -3 21 15q20 78 82 78q34 0 102 -35q76 -45 137 -45q100 0 135 119q4 15 -14 20l-18 4q-17 3 -21 -14q-18 -76 -82 -76q-38 0 -110 39q-71 35 -106 39q-11 2 -23 2z" />
    <glyph glyph-name="odieresis" unicode="&#xf6;" horiz-adv-x="1230" 
d="M614 -27q-145 0 -268 73.5t-194.5 199.5t-71.5 274t71.5 274t194.5 199.5t268 73.5t269 -73.5t196 -199.5t72 -274t-72 -274t-196 -199.5t-269 -73.5zM614 1049q-140 0 -259.5 -70.5t-189 -192.5t-69.5 -266q0 -143 69.5 -264.5t189 -192.5t259.5 -71q141 0 260.5 71
t189 192.5t69.5 264.5q0 144 -69.5 266t-189 192.5t-260.5 70.5zM614 45q-94 0 -180 37.5t-147.5 101.5t-98 151.5t-36.5 184.5t36.5 184.5t98 151.5t147.5 101.5t180 37.5q126 0 232.5 -63.5t168.5 -173t62 -238.5t-62 -238.5t-168.5 -173t-232.5 -63.5zM614 977
q-184 0 -314 -134t-130 -323t130 -323t314 -134q121 0 224 61t163 166.5t60 229.5t-60 229.5t-163 166.5t-224 61zM453 1249q-32 0 -56 23t-24 55q0 33 23.5 56.5t56.5 23.5t56 -23.5t23 -56.5q0 -32 -23.5 -55t-55.5 -23zM453 1389q-25 0 -43.5 -18t-18.5 -44
q0 -24 18.5 -41.5t43.5 -17.5t43 17t18 42q0 26 -18 44t-43 18zM782 1249q-34 0 -57 23t-23 55q0 34 23 57t57 23q32 0 55 -23t23 -57q0 -32 -23 -55t-55 -23zM782 1389q-26 0 -43.5 -18t-17.5 -44q0 -25 17.5 -42t43.5 -17q25 0 43.5 17.5t18.5 41.5q0 26 -18.5 44
t-43.5 18z" />
    <glyph glyph-name="divide" unicode="&#xf7;" horiz-adv-x="1171" 
d="M954 567h-739q-15 0 -26 10.5t-11 24.5v19q0 15 11 25.5t26 10.5h739q14 0 24.5 -10.5t10.5 -25.5v-19q0 -14 -10.5 -24.5t-24.5 -10.5zM954 639h-739q-7 0 -12.5 -5.5t-5.5 -12.5v-19q0 -16 18 -16h739q6 0 11.5 4.5t5.5 11.5v19q0 7 -5.5 12.5t-11.5 5.5zM584 918
q-31 0 -52.5 22t-21.5 53t21.5 53.5t52.5 22.5t53 -22.5t22 -53.5t-22 -53t-53 -22zM584 1051q-23 0 -40.5 -17.5t-17.5 -40.5t17.5 -40t40.5 -17q24 0 40.5 16.5t16.5 40.5t-16.5 41t-40.5 17zM584 156q-31 0 -52.5 21.5t-21.5 53.5q0 31 21.5 52.5t52.5 21.5t53 -21.5
t22 -52.5q0 -32 -22 -53.5t-53 -21.5zM584 287q-23 0 -40.5 -16.5t-17.5 -39.5q0 -24 17 -40.5t41 -16.5q25 0 41 16t16 41q0 23 -16.5 39.5t-40.5 16.5z" />
    <glyph glyph-name="oslash" unicode="&#xf8;" horiz-adv-x="1230" 
d="M614 -25q-103 0 -197.5 39t-168.5 111l-82 -74q-11 -10 -25 -9t-24 11l-13 15q-10 11 -9.5 25.5t11.5 25.5l82 74q-108 144 -108 329q0 148 71.5 274t194.5 199.5t268 73.5q104 0 200 -38.5t169 -110.5l82 71q11 10 26 9.5t23 -11.5l12 -12q10 -12 9.5 -27t-11.5 -24
l-82 -76q109 -142 109 -328q0 -111 -42.5 -212t-114.5 -174.5t-171.5 -117t-208.5 -43.5zM154 66l94 84l6 -7q72 -72 165.5 -110.5t194.5 -38.5q141 0 260.5 70.5t189 192t69.5 265.5q0 185 -109 324l-6 6l94 86q13 13 2 27l-12 12q-13 13 -27 2l-92 -86l-6 6
q-72 73 -166 112.5t-197 39.5q-140 0 -259 -71t-188 -193t-69 -265q0 -183 109 -325l6 -7l-94 -86q-6 -4 -6.5 -12t4.5 -12l12 -14q11 -11 25 0zM614 47q-186 0 -319 133l-8 6l692 631l6 -8q94 -129 94 -287q0 -196 -136.5 -335.5t-328.5 -139.5zM977 791l-664 -605
q126 -120 301 -120q121 0 224 61t163 166t60 229q0 147 -84 269zM944 858l-692 -631l-6 9q-94 126 -94 286q0 196 135.5 334.5t326.5 138.5t322 -131zM614 979q-183 0 -313.5 -134t-130.5 -323q0 -149 84 -268l664 604q-127 121 -304 121z" />
    <glyph glyph-name="ugrave" unicode="&#xf9;" horiz-adv-x="1181" 
d="M573 -25q-95 0 -173 38t-127.5 100.5t-76 139t-26.5 157.5v596q0 15 11 25.5t26 10.5h18q14 0 24.5 -10.5t10.5 -25.5v-596q0 -44 10 -89.5t34.5 -91.5t59 -82t89 -58.5t120.5 -22.5q103 0 184.5 54.5t123 136.5t41.5 171v578q0 15 9.5 25.5t24.5 10.5h19q15 0 26 -10.5
t11 -25.5v-971q0 -14 -11 -24.5t-26 -10.5h-19q-15 0 -24.5 10.5t-9.5 24.5v139q-59 -95 -149.5 -147t-199.5 -52zM225 1024h-18q-8 0 -13.5 -5.5t-5.5 -12.5v-596q0 -77 25.5 -151t72.5 -134t122 -96.5t165 -36.5q113 0 204 57.5t145 163.5l16 33v-211q0 -6 5.5 -11.5
t12.5 -5.5h19q7 0 12.5 5.5t5.5 11.5v971q0 8 -5.5 13t-12.5 5h-19q-8 0 -13 -5t-5 -13v-578q0 -69 -26 -137t-71.5 -122.5t-116 -88t-151.5 -33.5q-78 0 -142 32t-104.5 84t-62.5 116t-22 131v596q0 7 -5.5 12.5t-11.5 5.5zM637 1204h-14q-20 0 -31 17l-139 225
q-9 12 -2 26.5t24 14.5h35q30 0 41 -25l104 -227q6 -13 -0.5 -22t-17.5 -9zM510 1468h-35q-12 0 -8 -12l139 -225q5 -8 17 -8h14q6 0 2 8l-104 223q-7 14 -25 14z" />
    <glyph glyph-name="uacute" unicode="&#xfa;" horiz-adv-x="1181" 
d="M573 -25q-95 0 -173 38t-127.5 100.5t-76 139t-26.5 157.5v596q0 15 11 25.5t26 10.5h18q14 0 24.5 -10.5t10.5 -25.5v-596q0 -44 10 -89.5t34.5 -91.5t59 -82t89 -58.5t120.5 -22.5q103 0 184.5 54.5t123 136.5t41.5 171v578q0 15 9.5 25.5t24.5 10.5h19q15 0 26 -10.5
t11 -25.5v-971q0 -14 -11 -24.5t-26 -10.5h-19q-15 0 -24.5 10.5t-9.5 24.5v139q-59 -95 -149.5 -147t-199.5 -52zM225 1024h-18q-8 0 -13.5 -5.5t-5.5 -12.5v-596q0 -77 25.5 -151t72.5 -134t122 -96.5t165 -36.5q113 0 204 57.5t145 163.5l16 33v-211q0 -6 5.5 -11.5
t12.5 -5.5h19q7 0 12.5 5.5t5.5 11.5v971q0 8 -5.5 13t-12.5 5h-19q-8 0 -13 -5t-5 -13v-578q0 -69 -26 -137t-71.5 -122.5t-116 -88t-151.5 -33.5q-78 0 -142 32t-104.5 84t-62.5 116t-22 131v596q0 7 -5.5 12.5t-11.5 5.5zM598 1204h-14q-11 0 -18 9t-1 22l105 227
q11 25 41 25h34q17 0 24.5 -14.5t-1.5 -26.5l-139 -225q-11 -17 -31 -17zM745 1468h-34q-18 0 -25 -14l-104 -223q-4 -8 2 -8h14q11 0 16 8l140 225q4 12 -9 12z" />
    <glyph glyph-name="ucircumflex" unicode="&#xfb;" horiz-adv-x="1181" 
d="M573 -25q-95 0 -173 38t-127.5 100.5t-76 139t-26.5 157.5v596q0 15 11 25.5t26 10.5h18q14 0 24.5 -10.5t10.5 -25.5v-596q0 -44 10 -89.5t34.5 -91.5t59 -82t89 -58.5t120.5 -22.5q103 0 184.5 54.5t123 136.5t41.5 171v578q0 15 9.5 25.5t24.5 10.5h19q15 0 26 -10.5
t11 -25.5v-971q0 -14 -11 -24.5t-26 -10.5h-19q-15 0 -24.5 10.5t-9.5 24.5v139q-59 -95 -149.5 -147t-199.5 -52zM225 1024h-18q-8 0 -13.5 -5.5t-5.5 -12.5v-596q0 -77 25.5 -151t72.5 -134t122 -96.5t165 -36.5q113 0 204 57.5t145 163.5l16 33v-211q0 -6 5.5 -11.5
t12.5 -5.5h19q7 0 12.5 5.5t5.5 11.5v971q0 8 -5.5 13t-12.5 5h-19q-8 0 -13 -5t-5 -13v-578q0 -69 -26 -137t-71.5 -122.5t-116 -88t-151.5 -33.5q-78 0 -142 32t-104.5 84t-62.5 116t-22 131v596q0 7 -5.5 12.5t-11.5 5.5zM819 1204h-24q-28 0 -43 21l-158 194l-160 -194
q-15 -21 -41 -21h-26q-15 0 -21 11.5t4 23.5l187 229q16 19 41 19h30q27 0 43 -19l185 -229q9 -12 3 -23.5t-20 -11.5zM420 1235l174 213l172 -213q12 -12 29 -12h24q7 0 4 6l-186 227q-9 12 -29 12h-30q-18 0 -27 -12l-186 -227q-6 -6 2 -6h26q18 0 27 12z" />
    <glyph glyph-name="udieresis" unicode="&#xfc;" horiz-adv-x="1181" 
d="M573 -25q-95 0 -173 38t-127.5 100.5t-76 139t-26.5 157.5v596q0 15 11 25.5t26 10.5h18q14 0 24.5 -10.5t10.5 -25.5v-596q0 -44 10 -89.5t34.5 -91.5t59 -82t89 -58.5t120.5 -22.5q103 0 184.5 54.5t123 136.5t41.5 171v578q0 15 9.5 25.5t24.5 10.5h19q15 0 26 -10.5
t11 -25.5v-971q0 -14 -11 -24.5t-26 -10.5h-19q-15 0 -24.5 10.5t-9.5 24.5v139q-59 -95 -149.5 -147t-199.5 -52zM225 1024h-18q-8 0 -13.5 -5.5t-5.5 -12.5v-596q0 -77 25.5 -151t72.5 -134t122 -96.5t165 -36.5q113 0 204 57.5t145 163.5l16 33v-211q0 -6 5.5 -11.5
t12.5 -5.5h19q7 0 12.5 5.5t5.5 11.5v971q0 8 -5.5 13t-12.5 5h-19q-8 0 -13 -5t-5 -13v-578q0 -69 -26 -137t-71.5 -122.5t-116 -88t-151.5 -33.5q-78 0 -142 32t-104.5 84t-62.5 116t-22 131v596q0 7 -5.5 12.5t-11.5 5.5zM428 1249q-32 0 -56 23t-24 55q0 33 23.5 56.5
t56.5 23.5t56.5 -23.5t23.5 -56.5q0 -32 -24 -55t-56 -23zM428 1389q-25 0 -43 -18t-18 -44q0 -25 18 -42t43 -17t43 17t18 42q0 26 -18 44t-43 18zM758 1249q-34 0 -57 23t-23 55q0 34 23 57t57 23q32 0 55 -23t23 -57q0 -32 -23 -55t-55 -23zM758 1389q-26 0 -44 -18
t-18 -44q0 -25 18 -42t44 -17q25 0 43 17t18 42q0 26 -18 44t-43 18z" />
    <glyph glyph-name="yacute" unicode="&#xfd;" horiz-adv-x="1028" 
d="M201 -391q-56 0 -56 37v16q0 15 9 26t28 11q32 0 59.5 9t50 22.5t44.5 40.5t39 53t38 70t36.5 81t39.5 97l-436 932q-7 15 1 26.5t24 11.5h28q31 0 41 -26l390 -832l350 832q10 26 41 26h28q41 0 27 -36q-346 -822 -401 -957l-33 -79.5t-32 -72.5t-34.5 -70t-35 -60
t-39 -55t-42 -42t-49 -34t-54 -19t-62.5 -8zM164 -338v-16q0 -19 37 -19q39 0 74 12.5t62 30t55 53t46.5 64.5t43.5 82t40 88.5t41 99.5q365 869 402 955q3 6 -0.5 9t-8.5 3h-28q-19 0 -25 -16l-364 -869l-408 871q-7 14 -25 14h-28q-12 0 -8 -12l440 -940
q-35 -87 -57.5 -138t-53.5 -106t-60.5 -83t-68.5 -46t-86 -18q-20 0 -20 -19zM522 1204h-14q-11 0 -18 9t-1 22l105 227q11 25 41 25h35q17 0 24 -14.5t-2 -26.5l-139 -225q-11 -17 -31 -17zM670 1468h-35q-18 0 -25 -14l-104 -223q-4 -8 2 -8h14q12 0 17 8l139 225
q4 12 -8 12z" />
    <glyph glyph-name="thorn" unicode="&#xfe;" 
d="M225 -391h-18q-14 0 -24.5 11t-10.5 26v1753q0 13 11 24t24 11h18q15 0 26 -10.5t11 -24.5v-588q66 122 179 190t251 68q143 0 262.5 -72.5t188.5 -198.5t69 -276q0 -230 -151 -388.5t-369 -158.5q-138 0 -251 67.5t-179 188.5v-585q0 -15 -11 -26t-26 -11zM225 1415h-18
q-7 0 -13 -5t-6 -11v-1753q0 -8 6 -13.5t13 -5.5h18q7 0 13 5.5t6 13.5v663l16 -37q61 -130 176 -204t256 -74q139 0 254.5 69.5t181.5 191t66 267.5q0 145 -66 266.5t-181.5 192t-254.5 70.5q-141 0 -256 -74.5t-176 -206.5l-16 -37v666q0 6 -6 11t-13 5zM692 47
q-124 0 -227 63t-162 172t-59 240q0 200 129.5 336.5t318.5 136.5t319 -137t130 -336q0 -200 -130 -337.5t-319 -137.5zM692 979q-181 0 -305.5 -132.5t-124.5 -324.5t124.5 -324t305.5 -132t305.5 132t124.5 324t-124.5 324.5t-305.5 132.5z" />
    <glyph glyph-name="ydieresis" unicode="&#xff;" horiz-adv-x="1028" 
d="M201 -391q-56 0 -56 37v16q0 15 9 26t28 11q32 0 59.5 9t50 22.5t44.5 40.5t39 53t38 70t36.5 81t39.5 97l-436 932q-7 15 1 26.5t24 11.5h28q31 0 41 -26l390 -832l350 832q10 26 41 26h28q41 0 27 -36q-346 -822 -401 -957l-33 -79.5t-32 -72.5t-34.5 -70t-35 -60
t-39 -55t-42 -42t-49 -34t-54 -19t-62.5 -8zM164 -338v-16q0 -19 37 -19q39 0 74 12.5t62 30t55 53t46.5 64.5t43.5 82t40 88.5t41 99.5q365 869 402 955q3 6 -0.5 9t-8.5 3h-28q-19 0 -25 -16l-364 -869l-408 871q-7 14 -25 14h-28q-12 0 -8 -12l440 -940
q-35 -87 -57.5 -138t-53.5 -106t-60.5 -83t-68.5 -46t-86 -18q-20 0 -20 -19zM350 1249q-32 0 -56 23t-24 55q0 33 23.5 56.5t56.5 23.5t56.5 -23.5t23.5 -56.5q0 -32 -24 -55t-56 -23zM350 1389q-25 0 -43 -18t-18 -44q0 -25 18 -42t43 -17t43.5 17.5t18.5 41.5
q0 26 -18.5 44t-43.5 18zM680 1249q-34 0 -57 23t-23 55q0 34 23 57t57 23q32 0 55 -23t23 -57q0 -32 -23 -55t-55 -23zM680 1389q-26 0 -44 -18t-18 -44q0 -25 18 -42t44 -17q25 0 43 17t18 42q0 26 -18 44t-43 18z" />
    <glyph glyph-name="Amacron" unicode="&#x100;" horiz-adv-x="1271" 
d="M1176 0h-27q-32 0 -43 29l-152 405h-639l-151 -405q-11 -29 -41 -29h-29q-15 0 -22.5 11.5t-1.5 25.5l508 1368q14 29 43 29h28q13 0 25.5 -8.5t17.5 -20.5l510 -1368q5 -14 -3 -25.5t-23 -11.5zM147 35l156 416h666l153 -416q7 -17 27 -17h27q13 0 10 13l-510 1368
q-6 16 -27 16h-28q-19 0 -25 -16l-510 -1368q-3 -13 8 -13h29q17 0 24 17zM635 1343l313 -837h-624zM635 1292l-287 -768h574zM831 1683h-389q-15 0 -25.5 10.5t-10.5 24.5v19q0 15 10.5 26t25.5 11h389q15 0 26 -11t11 -26v-19q0 -14 -11 -24.5t-26 -10.5zM831 1755h-389
q-8 0 -13 -5.5t-5 -12.5v-19q0 -6 5.5 -11t12.5 -5h389q7 0 13 5t6 11v19q0 7 -5.5 12.5t-13.5 5.5z" />
    <glyph glyph-name="amacron" unicode="&#x101;" 
d="M600 -27q-143 0 -262.5 72.5t-188.5 198.5t-69 276q0 230 151 388.5t369 158.5q138 0 251 -67t181 -189v195q0 15 10.5 25.5t24.5 10.5h18q15 0 26 -10.5t11 -25.5v-971q0 -14 -11 -24.5t-26 -10.5h-18q-13 0 -24 11t-11 24v196q-68 -122 -181 -190t-251 -68zM600 1049
q-138 0 -253.5 -70t-182 -191.5t-66.5 -267.5q0 -222 145.5 -375t356.5 -153q142 0 256 74t176 206l17 37v-274q0 -8 5.5 -13.5t12.5 -5.5h18q7 0 13 6t6 13v971q0 7 -5.5 12.5t-13.5 5.5h-18q-7 0 -12.5 -5t-5.5 -13v-275l-17 39q-62 131 -176 205t-256 74zM600 45
q-124 0 -227 63t-162 172t-59 240t59 240t162 172t227 63q189 0 319 -137.5t130 -337.5t-130 -337.5t-319 -137.5zM600 977q-181 0 -305.5 -132.5t-124.5 -324.5t124.5 -324.5t305.5 -132.5t306.5 132.5t125.5 324.5t-125.5 324.5t-306.5 132.5zM844 1274h-389
q-15 0 -26 10.5t-11 24.5v18q0 15 11 26t26 11h389q15 0 26 -11t11 -26v-18q0 -14 -11 -24.5t-26 -10.5zM844 1346h-389q-7 0 -13 -6t-6 -13v-18q0 -6 6 -11.5t13 -5.5h389q7 0 12.5 5.5t5.5 11.5v18q0 8 -5.5 13.5t-12.5 5.5z" />
    <glyph glyph-name="Abreve" unicode="&#x102;" horiz-adv-x="1271" 
d="M1176 0h-27q-32 0 -43 29l-152 405h-639l-151 -405q-11 -29 -41 -29h-29q-15 0 -22.5 11.5t-1.5 25.5l508 1368q14 29 43 29h28q13 0 25.5 -8.5t17.5 -20.5l510 -1368q5 -14 -3 -25.5t-23 -11.5zM147 35l156 416h666l153 -416q7 -17 27 -17h27q13 0 10 13l-510 1368
q-6 16 -27 16h-28q-19 0 -25 -16l-510 -1368q-3 -13 8 -13h29q17 0 24 17zM635 1343l313 -837h-624zM635 1292l-287 -768h574zM635 1618q-95 0 -163 52t-85 140q-4 20 7 31.5t28 11.5h16q30 0 37 -28q9 -47 50 -82t110 -35q71 0 112 35t50 82q7 28 34 28h19q21 0 30.5 -12
t4.5 -31q-20 -88 -87 -140t-163 -52zM438 1835h-16q-22 0 -19 -20q13 -81 77.5 -131t154.5 -50q89 0 151.5 48t81.5 130q3 11 -3.5 17t-14.5 6h-19q-13 0 -16 -14q-12 -53 -57 -92t-123 -39q-77 0 -122.5 39t-55.5 92q-3 14 -19 14z" />
    <glyph glyph-name="abreve" unicode="&#x103;" 
d="M600 -27q-143 0 -262.5 72.5t-188.5 198.5t-69 276q0 230 151 388.5t369 158.5q138 0 251 -67t181 -189v195q0 15 10.5 25.5t24.5 10.5h18q15 0 26 -10.5t11 -25.5v-971q0 -14 -11 -24.5t-26 -10.5h-18q-13 0 -24 11t-11 24v196q-68 -122 -181 -190t-251 -68zM600 1049
q-138 0 -253.5 -70t-182 -191.5t-66.5 -267.5q0 -222 145.5 -375t356.5 -153q142 0 256 74t176 206l17 37v-274q0 -8 5.5 -13.5t12.5 -5.5h18q7 0 13 6t6 13v971q0 7 -5.5 12.5t-13.5 5.5h-18q-7 0 -12.5 -5t-5.5 -13v-275l-17 39q-62 131 -176 205t-256 74zM600 45
q-124 0 -227 63t-162 172t-59 240t59 240t162 172t227 63q189 0 319 -137.5t130 -337.5t-130 -337.5t-319 -137.5zM600 977q-181 0 -305.5 -132.5t-124.5 -324.5t124.5 -324.5t305.5 -132.5t306.5 132.5t125.5 324.5t-125.5 324.5t-306.5 132.5zM629 1208q-95 0 -163 52.5
t-85 140.5q-4 20 7 31.5t28 11.5h16q13 0 23.5 -8.5t13.5 -20.5q9 -47 50 -82t110 -35q71 0 112 35t50 82q3 12 12.5 20.5t21.5 8.5h19q21 0 30.5 -12t4.5 -31q-20 -89 -87 -141t-163 -52zM432 1425h-16q-22 0 -19 -20q13 -81 77.5 -130.5t154.5 -49.5q89 0 151.5 48
t81.5 130q3 11 -3.5 16.5t-14.5 5.5h-19q-13 0 -16 -14q-12 -53 -57 -92t-123 -39q-77 0 -122.5 39t-55.5 92q-3 14 -19 14z" />
    <glyph glyph-name="Aogonek" unicode="&#x104;" horiz-adv-x="1271" 
d="M1126 -440q-76 0 -127 48t-51 120q0 81 50 154.5t122 123.5q-7 4 -10 12l-156 416h-639l-151 -403q-12 -31 -41 -31h-29q-17 0 -24.5 11t-1.5 26l510 1368q10 29 43 29h28q33 0 43 -29l510 -1372q5 -10 1.5 -22.5t-13.5 -18.5q-65 -46 -106.5 -110.5t-41.5 -119.5
q0 -51 29 -77q30 -30 100 -27q17 1 28 -9.5t11 -25.5v-24q0 -12 -8 -22t-20 -13q-32 -4 -56 -4zM147 37l156 416h664l159 -428q4 -7 9 -7h39l-27 -16q-72 -44 -126 -118t-54 -156q0 -66 44.5 -108t114.5 -42q24 0 52 4q14 4 14 17v24q0 8 -5.5 13.5t-12.5 5.5
q-78 -6 -115 28q-35 35 -35 92q0 60 43.5 128.5t112.5 115.5q10 6 6 21l-512 1372q-4 18 -25 18h-28q-20 0 -27 -18l-508 -1368q-3 -6 0 -9.5t8 -3.5h29q18 0 24 19zM635 1346l313 -840h-626zM635 1294l-287 -770h574z" />
    <glyph glyph-name="aogonek" unicode="&#x105;" 
d="M1036 -440q-78 0 -129 48t-51 120q0 83 53 156.5t129 123.5q-8 8 -8 21v202q-68 -121 -181.5 -188.5t-250.5 -67.5q-218 0 -369 158.5t-151 388.5t151 388.5t369 158.5q138 0 251 -67t181 -189v195q0 15 10 25.5t25 10.5h18q15 0 26 -10.5t11 -25.5v-979q0 -24 -20 -37
q-65 -44 -107.5 -109.5t-42.5 -120.5q0 -51 29 -77q30 -30 102 -27q16 2 27.5 -8t11.5 -27v-24q0 -12 -9 -22t-21 -13q-28 -4 -54 -4zM1030 274l17 37v-282q0 -11 10 -11h30l-26 -16q-13 -8 -31.5 -21t-47.5 -40t-51.5 -57t-39.5 -72t-17 -84q0 -66 45 -108t117 -42
q25 0 49 4q17 3 17 17v24q0 19 -21 19q-77 -6 -114 28q-33 33 -33 92q0 60 43.5 128.5t112.5 115.5q12 9 12 23v979q0 7 -5.5 12.5t-13.5 5.5h-18q-7 0 -12.5 -5t-5.5 -13v-275l-17 37q-62 132 -176 206.5t-256 74.5q-138 0 -253.5 -70t-182 -191.5t-66.5 -267.5
q0 -222 145.5 -375t356.5 -153q142 0 256 74t176 206zM598 47q-124 0 -227 63t-162 172t-59 240t59 240t162 172t227 63q189 0 319 -137.5t130 -337.5t-130 -337.5t-319 -137.5zM598 979q-181 0 -305.5 -132.5t-124.5 -324.5t124.5 -324t305.5 -132q182 0 307 132t125 324
t-125.5 324.5t-306.5 132.5z" />
    <glyph glyph-name="Cacute" unicode="&#x106;" horiz-adv-x="1452" 
d="M807 -25q-146 0 -277 58t-225 156.5t-149.5 236.5t-55.5 291t55.5 290.5t149.5 236.5t225 156.5t277 57.5q157 0 298.5 -64.5t242.5 -181.5q11 -10 8.5 -28t-15.5 -25l-16 -10q-10 -8 -24 -6t-23 12q-89 101 -212.5 157t-258.5 56q-128 0 -242 -50.5t-196.5 -137
t-130.5 -207.5t-48 -256t48 -256t130.5 -207.5t196.5 -137t242 -50.5q135 0 258.5 56t212.5 157q9 10 23 12t24 -6l16 -11q13 -7 15.5 -25t-8.5 -28q-101 -117 -242.5 -181.5t-298.5 -64.5zM807 1442q-142 0 -269.5 -56.5t-219 -153t-145.5 -231t-54 -284.5t54 -284.5
t145.5 -231t219 -153t269.5 -56.5q153 0 290.5 63t237.5 178q6 6 4 15t-8 12l-14 10q-16 8 -25 -4q-92 -104 -219 -161.5t-266 -57.5q-175 0 -320.5 88.5t-229 242.5t-83.5 339t83.5 338.5t229 242t320.5 88.5q139 0 266 -57.5t219 -161.5q9 -12 25 -4l14 11q7 3 8 12.5
t-4 13.5q-100 116 -238 179t-290 63zM784 1614h-14q-11 0 -17.5 9t-0.5 22l104 227q10 24 41 24h35q17 0 24 -14.5t-2 -26.5l-139 -225q-11 -16 -31 -16zM932 1878h-35q-18 0 -25 -14l-104 -224q-4 -8 2 -8h14q12 0 17 8l139 226q4 12 -8 12z" />
    <glyph glyph-name="cacute" unicode="&#x107;" horiz-adv-x="1124" 
d="M614 -27q-146 0 -269.5 73.5t-195 199.5t-71.5 274t71.5 274t195 199.5t269.5 73.5q128 0 241 -58t189 -163q9 -12 6 -29.5t-18 -23.5l-16 -9q-10 -6 -24 -2.5t-21 13.5q-63 87 -156.5 134.5t-200.5 47.5q-184 0 -315 -134t-131 -323t131 -323t315 -134q106 0 200 48.5
t157 136.5q7 10 21 13t24 -3l16 -8q14 -7 17 -24.5t-5 -30.5q-77 -105 -190 -163.5t-240 -58.5zM614 1049q-106 0 -202 -42t-165 -112.5t-110 -168.5t-41 -206q0 -143 69 -264.5t188.5 -192.5t260.5 -71q125 0 234 56t182 159q8 17 -6 26l-16 9q-13 6 -23 -4
q-66 -92 -163 -142.5t-208 -50.5q-94 0 -180 37.5t-148 101.5t-99 151.5t-37 184.5t37 184.5t99 151.5t148 101.5t180 37.5q110 0 207.5 -49.5t163.5 -140.5q10 -14 23 -4l16 8q15 9 6 27q-74 101 -183 157t-233 56zM559 1204h-14q-11 0 -18 9t-1 22l105 227q11 25 41 25h35
q17 0 24 -14.5t-2 -26.5l-139 -225q-11 -17 -31 -17zM707 1468h-35q-18 0 -25 -14l-104 -223q-4 -8 2 -8h14q11 0 16 8l140 225q4 12 -8 12z" />
    <glyph glyph-name="Ccircumflex" unicode="&#x108;" horiz-adv-x="1452" 
d="M807 -25q-146 0 -277 58t-225 156.5t-149.5 236.5t-55.5 291t55.5 290.5t149.5 236.5t225 156.5t277 57.5q157 0 298.5 -64.5t242.5 -181.5q11 -10 8.5 -28t-15.5 -25l-16 -10q-10 -8 -24 -6t-23 12q-89 101 -212.5 157t-258.5 56q-128 0 -242 -50.5t-196.5 -137
t-130.5 -207.5t-48 -256t48 -256t130.5 -207.5t196.5 -137t242 -50.5q135 0 258.5 56t212.5 157q9 10 23 12t24 -6l16 -11q13 -7 15.5 -25t-8.5 -28q-101 -117 -242.5 -181.5t-298.5 -64.5zM807 1442q-142 0 -269.5 -56.5t-219 -153t-145.5 -231t-54 -284.5t54 -284.5
t145.5 -231t219 -153t269.5 -56.5q153 0 290.5 63t237.5 178q6 6 4 15t-8 12l-14 10q-16 8 -25 -4q-92 -104 -219 -161.5t-266 -57.5q-175 0 -320.5 88.5t-229 242.5t-83.5 339t83.5 338.5t229 242t320.5 88.5q139 0 266 -57.5t219 -161.5q9 -12 25 -4l14 11q7 3 8 12.5
t-4 13.5q-100 116 -238 179t-290 63zM1006 1614h-25q-29 0 -43 20l-158 195l-159 -195q-14 -20 -41 -20h-27q-15 0 -20.5 11.5t4.5 23.5l186 229q15 18 41 18h31q28 0 43 -18l184 -229q9 -12 3.5 -23.5t-19.5 -11.5zM606 1645l174 213l172 -213q13 -13 29 -13h25q7 0 4 6
l-187 228q-9 12 -28 12h-31q-18 0 -27 -12l-186 -228q-6 -6 2 -6h27q16 0 26 13z" />
    <glyph glyph-name="ccircumflex" unicode="&#x109;" horiz-adv-x="1124" 
d="M614 -27q-146 0 -269.5 73.5t-195 199.5t-71.5 274t71.5 274t195 199.5t269.5 73.5q128 0 241 -58t189 -163q9 -12 6 -29.5t-18 -23.5l-16 -9q-10 -6 -24 -2.5t-21 13.5q-63 87 -156.5 134.5t-200.5 47.5q-184 0 -315 -134t-131 -323t131 -323t315 -134q106 0 200 48.5
t157 136.5q7 10 21 13t24 -3l16 -8q14 -7 17 -24.5t-5 -30.5q-77 -105 -190 -163.5t-240 -58.5zM614 1049q-106 0 -202 -42t-165 -112.5t-110 -168.5t-41 -206q0 -143 69 -264.5t188.5 -192.5t260.5 -71q125 0 234 56t182 159q8 17 -6 26l-16 9q-13 6 -23 -4
q-66 -92 -163 -142.5t-208 -50.5q-94 0 -180 37.5t-148 101.5t-99 151.5t-37 184.5t37 184.5t99 151.5t148 101.5t180 37.5q110 0 207.5 -49.5t163.5 -140.5q10 -14 23 -4l16 8q15 9 6 27q-74 101 -183 157t-233 56zM821 1204h-24q-28 0 -43 21l-158 194l-160 -194
q-15 -21 -41 -21h-26q-15 0 -21 11.5t4 23.5l187 229q16 19 41 19h30q27 0 43 -19l185 -229q9 -12 3 -23.5t-20 -11.5zM422 1235l174 213l172 -213q12 -12 29 -12h24q7 0 4 6l-186 227q-9 12 -29 12h-30q-18 0 -27 -12l-186 -227q-6 -6 2 -6h26q18 0 27 12z" />
    <glyph glyph-name="Cdotaccent" unicode="&#x10a;" horiz-adv-x="1452" 
d="M807 -25q-146 0 -277 58t-225 156.5t-149.5 236.5t-55.5 291t55.5 290.5t149.5 236.5t225 156.5t277 57.5q157 0 298.5 -64.5t242.5 -181.5q11 -10 8.5 -28t-15.5 -25l-16 -10q-10 -8 -24 -6t-23 12q-89 101 -212.5 157t-258.5 56q-128 0 -242 -50.5t-196.5 -137
t-130.5 -207.5t-48 -256t48 -256t130.5 -207.5t196.5 -137t242 -50.5q135 0 258.5 56t212.5 157q9 10 23 12t24 -6l16 -11q13 -7 15.5 -25t-8.5 -28q-101 -117 -242.5 -181.5t-298.5 -64.5zM807 1442q-142 0 -269.5 -56.5t-219 -153t-145.5 -231t-54 -284.5t54 -284.5
t145.5 -231t219 -153t269.5 -56.5q153 0 290.5 63t237.5 178q6 6 4 15t-8 12l-14 10q-16 8 -25 -4q-92 -104 -219 -161.5t-266 -57.5q-175 0 -320.5 88.5t-229 242.5t-83.5 339t83.5 338.5t229 242t320.5 88.5q139 0 266 -57.5t219 -161.5q9 -12 25 -4l14 11q7 3 8 12.5
t-4 13.5q-100 116 -238 179t-290 63zM797 1659q-32 0 -55 23t-23 55q0 34 23 57t55 23q33 0 56.5 -23.5t23.5 -56.5q0 -32 -24 -55t-56 -23zM797 1798q-25 0 -43.5 -17.5t-18.5 -43.5q0 -25 18.5 -42.5t43.5 -17.5q26 0 43.5 17.5t17.5 42.5q0 26 -17.5 43.5t-43.5 17.5z
" />
    <glyph glyph-name="cdotaccent" unicode="&#x10b;" horiz-adv-x="1124" 
d="M614 -27q-146 0 -269.5 73.5t-195 199.5t-71.5 274t71.5 274t195 199.5t269.5 73.5q128 0 241 -58t189 -163q9 -12 6 -29.5t-18 -23.5l-16 -9q-10 -6 -24 -2.5t-21 13.5q-63 87 -156.5 134.5t-200.5 47.5q-184 0 -315 -134t-131 -323t131 -323t315 -134q106 0 200 48.5
t157 136.5q7 10 21 13t24 -3l16 -8q14 -7 17 -24.5t-5 -30.5q-77 -105 -190 -163.5t-240 -58.5zM614 1049q-106 0 -202 -42t-165 -112.5t-110 -168.5t-41 -206q0 -143 69 -264.5t188.5 -192.5t260.5 -71q125 0 234 56t182 159q8 17 -6 26l-16 9q-13 6 -23 -4
q-66 -92 -163 -142.5t-208 -50.5q-94 0 -180 37.5t-148 101.5t-99 151.5t-37 184.5t37 184.5t99 151.5t148 101.5t180 37.5q110 0 207.5 -49.5t163.5 -140.5q10 -14 23 -4l16 8q15 9 6 27q-74 101 -183 157t-233 56zM592 1249q-32 0 -55 23t-23 55q0 34 23 57t55 23
q33 0 56.5 -23.5t23.5 -56.5q0 -32 -24 -55t-56 -23zM592 1389q-25 0 -43.5 -18t-18.5 -44q0 -24 18.5 -41.5t43.5 -17.5q26 0 43.5 17t17.5 42q0 26 -17.5 44t-43.5 18z" />
    <glyph glyph-name="Ccaron" unicode="&#x10c;" horiz-adv-x="1452" 
d="M807 -25q-146 0 -277 58t-225 156.5t-149.5 236.5t-55.5 291t55.5 290.5t149.5 236.5t225 156.5t277 57.5q157 0 298.5 -64.5t242.5 -181.5q11 -10 8.5 -28t-15.5 -25l-16 -10q-10 -8 -24 -6t-23 12q-89 101 -212.5 157t-258.5 56q-128 0 -242 -50.5t-196.5 -137
t-130.5 -207.5t-48 -256t48 -256t130.5 -207.5t196.5 -137t242 -50.5q135 0 258.5 56t212.5 157q9 10 23 12t24 -6l16 -11q13 -7 15.5 -25t-8.5 -28q-101 -117 -242.5 -181.5t-298.5 -64.5zM807 1442q-142 0 -269.5 -56.5t-219 -153t-145.5 -231t-54 -284.5t54 -284.5
t145.5 -231t219 -153t269.5 -56.5q153 0 290.5 63t237.5 178q6 6 4 15t-8 12l-14 10q-16 8 -25 -4q-92 -104 -219 -161.5t-266 -57.5q-175 0 -320.5 88.5t-229 242.5t-83.5 339t83.5 338.5t229 242t320.5 88.5q139 0 266 -57.5t219 -161.5q9 -12 25 -4l14 11q7 3 8 12.5
t-4 13.5q-100 116 -238 179t-290 63zM977 1896h24q14 0 20 -11t-3 -23l-184 -230q-15 -18 -43 -18h-31q-26 0 -41 18l-187 230q-10 12 -4 23t21 11h26q27 0 41 -20l160 -195l158 195q14 20 43 20zM776 1653l-174 213q-9 12 -27 12h-26q-8 0 -2 -6l186 -227q10 -13 27 -13h31
q18 0 28 13l187 227q3 6 -5 6h-24q-17 0 -29 -12z" />
    <glyph glyph-name="ccaron" unicode="&#x10d;" horiz-adv-x="1124" 
d="M614 -27q-146 0 -269.5 73.5t-195 199.5t-71.5 274t71.5 274t195 199.5t269.5 73.5q128 0 241 -58t189 -163q9 -12 6 -29.5t-18 -23.5l-16 -9q-10 -6 -24 -2.5t-21 13.5q-63 87 -156.5 134.5t-200.5 47.5q-184 0 -315 -134t-131 -323t131 -323t315 -134q106 0 200 48.5
t157 136.5q7 10 21 13t24 -3l16 -8q14 -7 17 -24.5t-5 -30.5q-77 -105 -190 -163.5t-240 -58.5zM614 1049q-106 0 -202 -42t-165 -112.5t-110 -168.5t-41 -206q0 -143 69 -264.5t188.5 -192.5t260.5 -71q125 0 234 56t182 159q8 17 -6 26l-16 9q-13 6 -23 -4
q-66 -92 -163 -142.5t-208 -50.5q-94 0 -180 37.5t-148 101.5t-99 151.5t-37 184.5t37 184.5t99 151.5t148 101.5t180 37.5q110 0 207.5 -49.5t163.5 -140.5q10 -14 23 -4l16 8q15 9 6 27q-74 101 -183 157t-233 56zM793 1487h24q14 0 20 -11.5t-3 -23.5l-185 -229
q-16 -19 -43 -19h-31q-24 0 -40 19l-187 229q-10 12 -4 23.5t21 11.5h26q26 0 41 -21l160 -194l158 194q15 21 43 21zM592 1243l-174 213q-9 12 -27 12h-26q-9 0 -3 -6l187 -227q9 -12 26 -12h31q20 0 29 12l186 227q3 6 -4 6h-24q-17 0 -29 -12z" />
    <glyph glyph-name="Dcaron" unicode="&#x10e;" horiz-adv-x="1404" 
d="M600 0h-379q-15 0 -26 11t-11 26v1360q0 15 11 26t26 11h379q202 0 364 -92t252.5 -256t90.5 -369t-90.5 -369t-252.5 -256t-364 -92zM600 1415h-379q-7 0 -12.5 -5.5t-5.5 -12.5v-1360q0 -8 5.5 -13.5t12.5 -5.5h379q197 0 354 89.5t245.5 249.5t88.5 360t-88.5 359.5
t-245.5 249t-354 89.5zM600 72h-342v1290h342q133 0 251 -49.5t202 -135t133 -205.5t49 -255t-49 -255t-133 -205.5t-202 -135t-251 -49.5zM274 1343v-1253h326q129 0 243.5 48.5t196.5 131.5t129.5 199.5t47.5 247.5t-47.5 247.5t-129.5 199.5t-196.5 131t-243.5 48h-326z
M862 1896h25q14 0 19.5 -11t-3.5 -23l-184 -230q-15 -18 -43 -18h-31q-26 0 -41 18l-186 230q-10 12 -4.5 23t20.5 11h27q27 0 41 -20l160 -195l157 195q14 20 43 20zM662 1653l-175 213q-9 12 -26 12h-27q-8 0 -2 -6l186 -227q10 -13 27 -13h31q19 0 29 13l186 227
q3 6 -4 6h-25q-16 0 -28 -12z" />
    <glyph glyph-name="dcaron" unicode="&#x10f;" horiz-adv-x="1327" 
d="M602 -27q-144 0 -264 72.5t-189 198.5t-69 276q0 151 69 277t189 198t264 72q137 0 250.5 -67.5t179.5 -188.5v586q0 15 10.5 26t24.5 11h18q15 0 26 -11t11 -26v-1362q0 -14 -11 -24.5t-26 -10.5h-18q-13 0 -24 11t-11 24v196q-66 -122 -180 -190t-250 -68zM602 1049
q-139 0 -255 -70t-182.5 -191.5t-66.5 -267.5t66.5 -267.5t182.5 -191t255 -69.5q141 0 255.5 74t174.5 206l19 37v-274q0 -7 5 -13t11 -6h18q7 0 13 6t6 13v1362q0 7 -5.5 12.5t-13.5 5.5h-18q-6 0 -11 -5.5t-5 -12.5v-666l-19 39q-60 130 -174.5 204.5t-255.5 74.5z
M602 45q-189 0 -319.5 138t-130.5 337t130.5 337t319.5 138q188 0 318.5 -138t130.5 -337t-130.5 -337t-318.5 -138zM602 977q-181 0 -306.5 -132.5t-125.5 -324.5t125.5 -324.5t306.5 -132.5t305.5 132.5t124.5 324.5t-124.5 324.5t-305.5 132.5zM1341 1133h-14
q-10 0 -13.5 8t-0.5 16l90 248q10 29 41 29h33q16 0 22.5 -11t-0.5 -28l-133 -248q-8 -14 -25 -14zM1477 1417h-33q-18 0 -25 -18l-92 -248h14q10 0 13 6l131 246q3 6 0 10t-8 4z" />
    <glyph glyph-name="Dcroat" unicode="&#x110;" horiz-adv-x="1519" 
d="M713 0h-379q-14 0 -24.5 11t-10.5 26v635h-178q-15 0 -26 11t-11 26v18q0 14 11 24.5t26 10.5h178v637q0 13 10.5 24t24.5 11h379q202 0 363.5 -92t252 -256t90.5 -369t-90.5 -369t-252 -256t-363.5 -92zM317 743h-196q-7 0 -13 -5t-6 -11v-18q0 -7 6 -13t13 -6h196v-653
q0 -7 5.5 -13t11.5 -6h379q197 0 354 89.5t245.5 249.5t88.5 360t-88.5 359.5t-245.5 249t-354 89.5h-379q-6 0 -11.5 -5t-5.5 -11v-656zM713 72h-342v618h452q6 0 11.5 6t5.5 13v18q0 6 -5.5 11t-11.5 5h-452v619h342q134 0 251.5 -49t202 -134.5t133 -205.5t48.5 -256
t-48.5 -255.5t-132.5 -205t-202 -135t-252 -49.5zM389 672v-582h324q173 0 314.5 82t221.5 225.5t80 319.5t-80 319.5t-221 225t-315 81.5h-324v-581h434q13 0 24 -11t11 -24v-18q0 -15 -10.5 -26t-24.5 -11h-434z" />
    <glyph glyph-name="dcroat" unicode="&#x111;" 
d="M602 -25q-146 0 -266 69t-188 190.5t-68 269.5t68 269t188 190t266 69q138 0 251 -64t179 -180v373h-360q-15 0 -25 10.5t-10 24.5v18q0 15 10 26t25 11h360v148q0 13 11 24t24 11h18q15 0 26 -10.5t11 -24.5v-148h109q15 0 26 -11t11 -26v-18q0 -14 -11 -24.5t-26 -10.5
h-109v-1124q0 -15 -11 -26t-26 -11h-18q-14 0 -24.5 11t-10.5 26v182q-66 -116 -179 -180t-251 -64zM602 1014q-215 0 -359.5 -146t-144.5 -364t144.5 -364t359.5 -146q143 0 256.5 70t173.5 196l19 35v-258q0 -7 5 -13t11 -6h18q7 0 13 6t6 13v1141h127q7 0 12.5 5t5.5 13
v18q0 8 -5.5 13.5t-12.5 5.5h-127v166q0 6 -6 11t-13 5h-18q-6 0 -11 -5t-5 -11v-166h-379q-8 0 -13.5 -5.5t-5.5 -13.5v-18q0 -7 5.5 -12.5t13.5 -5.5h379v-465l-19 35q-60 126 -173.5 196t-256.5 70zM602 47q-192 0 -321 131t-129 326t129 326t321 131q191 0 320 -131
t129 -326t-129 -326t-320 -131zM602 942q-185 0 -308.5 -125.5t-123.5 -312.5t123.5 -312.5t308.5 -125.5q183 0 306.5 125.5t123.5 312.5t-123.5 312.5t-306.5 125.5z" />
    <glyph glyph-name="Emacron" unicode="&#x112;" horiz-adv-x="1079" 
d="M926 0h-711q-15 0 -25 11t-10 26v1360q0 15 10 26t25 11h690q15 0 26 -11t11 -26v-17q0 -15 -11 -26t-26 -11h-637v-557h592q15 0 25 -10t10 -24v-19q0 -15 -10 -26t-25 -11h-592v-606h658q14 0 24.5 -11t10.5 -26v-16q0 -15 -10.5 -26t-24.5 -11zM905 1415h-690
q-7 0 -12.5 -5.5t-5.5 -12.5v-1360q0 -8 5.5 -13.5t12.5 -5.5h711q6 0 11 6t5 13v16q0 7 -5 13t-11 6h-674v643h608q8 0 13.5 5.5t5.5 12.5v19q0 16 -19 16h-608v594h653q8 0 13.5 5.5t5.5 12.5v17q0 7 -5.5 12.5t-13.5 5.5zM766 1683h-389q-15 0 -26 10.5t-11 24.5v19
q0 15 11 26t26 11h389q15 0 26 -11t11 -26v-19q0 -14 -11 -24.5t-26 -10.5zM766 1755h-389q-8 0 -13.5 -5.5t-5.5 -12.5v-19q0 -6 6 -11t13 -5h389q7 0 12.5 5t5.5 11v19q0 7 -5 12.5t-13 5.5z" />
    <glyph glyph-name="emacron" unicode="&#x113;" horiz-adv-x="1159" 
d="M608 -27q-148 0 -269.5 71.5t-191 197t-69.5 278.5q0 233 146 390t364 157q199 0 336 -137q155 -158 155 -410q0 -19 -13 -32t-32 -13h-864q17 -177 141.5 -294.5t296.5 -117.5q201 0 334 148q20 20 45 6l21 -12q14 -9 16 -26t-10 -29q-157 -177 -406 -177zM588 1049
q-138 0 -251 -69t-177 -190.5t-64 -269.5q0 -226 147 -377t365 -151q243 0 393 170q6 6 5 13.5t-9 12.5l-18 13q-15 8 -25 -2q-133 -154 -346 -154q-182 0 -312.5 125.5t-143.5 312.5v11h882q11 0 19 8t8 18q1 118 -37.5 221t-112.5 177q-134 131 -323 131zM1004 557v-10
h-852v10q12 187 137 312.5t299 125.5q170 0 288 -124t128 -314zM170 565h815q-12 180 -124 296t-273 116q-164 0 -283.5 -117.5t-134.5 -294.5zM795 1274h-389q-15 0 -26 10.5t-11 24.5v18q0 15 11 26t26 11h389q15 0 25.5 -11t10.5 -26v-18q0 -14 -10.5 -24.5t-25.5 -10.5z
M795 1346h-389q-8 0 -13.5 -6t-5.5 -13v-18q0 -6 6 -11.5t13 -5.5h389q7 0 12.5 5.5t5.5 11.5v18q0 8 -5.5 13.5t-12.5 5.5z" />
    <glyph glyph-name="Ebreve" unicode="&#x114;" horiz-adv-x="1079" 
d="M926 0h-711q-15 0 -25 11t-10 26v1360q0 15 10 26t25 11h690q15 0 26 -11t11 -26v-17q0 -15 -11 -26t-26 -11h-637v-557h592q15 0 25 -10t10 -24v-19q0 -15 -10 -26t-25 -11h-592v-606h658q14 0 24.5 -11t10.5 -26v-16q0 -15 -10.5 -26t-24.5 -11zM905 1415h-690
q-7 0 -12.5 -5.5t-5.5 -12.5v-1360q0 -8 5.5 -13.5t12.5 -5.5h711q6 0 11 6t5 13v16q0 7 -5 13t-11 6h-674v643h608q8 0 13.5 5.5t5.5 12.5v19q0 16 -19 16h-608v594h653q8 0 13.5 5.5t5.5 12.5v17q0 7 -5.5 12.5t-13.5 5.5zM569 1618q-95 0 -162.5 52t-84.5 140
q-4 20 6.5 31.5t27.5 11.5h17q30 0 37 -28q9 -47 49.5 -82t109.5 -35q71 0 112 35t50 82q3 12 13 20t22 8h18q21 0 30.5 -12t4.5 -31q-20 -88 -87 -140t-163 -52zM373 1835h-17q-21 0 -18 -20q13 -81 77 -131t154 -50q89 0 152 48t82 130q3 11 -4 17t-15 6h-18
q-12 0 -16 -14q-12 -53 -57.5 -92t-123.5 -39q-77 0 -122.5 39t-55.5 92q-3 14 -18 14z" />
    <glyph glyph-name="ebreve" unicode="&#x115;" horiz-adv-x="1159" 
d="M608 -27q-148 0 -269.5 71.5t-191 197t-69.5 278.5q0 233 146 390t364 157q199 0 336 -137q155 -158 155 -410q0 -19 -13 -32t-32 -13h-864q17 -177 141.5 -294.5t296.5 -117.5q201 0 334 148q20 20 45 6l21 -12q14 -9 16 -26t-10 -29q-157 -177 -406 -177zM588 1049
q-138 0 -251 -69t-177 -190.5t-64 -269.5q0 -226 147 -377t365 -151q243 0 393 170q6 6 5 13.5t-9 12.5l-18 13q-15 8 -25 -2q-133 -154 -346 -154q-182 0 -312.5 125.5t-143.5 312.5v11h882q11 0 19 8t8 18q1 118 -37.5 221t-112.5 177q-134 131 -323 131zM1004 557v-10
h-852v10q12 187 137 312.5t299 125.5q170 0 288 -124t128 -314zM170 565h815q-12 180 -124 296t-273 116q-164 0 -283.5 -117.5t-134.5 -294.5zM600 1208q-95 0 -163 52.5t-85 140.5q-4 20 7 31.5t28 11.5h16q13 0 23.5 -8.5t13.5 -20.5q9 -47 50 -82t110 -35q71 0 112 35
t50 82q3 12 13 20.5t22 8.5h18q21 0 30.5 -12t4.5 -31q-20 -89 -87 -141t-163 -52zM403 1425h-16q-21 0 -18 -20q13 -81 77 -130.5t154 -49.5q89 0 152 48t82 130q3 11 -4 16.5t-15 5.5h-18q-13 0 -17 -14q-12 -53 -57 -92t-123 -39q-77 0 -122.5 39t-55.5 92q-4 14 -19 14z
" />
    <glyph glyph-name="Edotaccent" unicode="&#x116;" horiz-adv-x="1079" 
d="M926 0h-711q-15 0 -25 11t-10 26v1360q0 15 10 26t25 11h690q15 0 26 -11t11 -26v-17q0 -15 -11 -26t-26 -11h-637v-557h592q15 0 25 -10t10 -24v-19q0 -15 -10 -26t-25 -11h-592v-606h658q14 0 24.5 -11t10.5 -26v-16q0 -15 -10.5 -26t-24.5 -11zM905 1415h-690
q-7 0 -12.5 -5.5t-5.5 -12.5v-1360q0 -8 5.5 -13.5t12.5 -5.5h711q6 0 11 6t5 13v16q0 7 -5 13t-11 6h-674v643h608q8 0 13.5 5.5t5.5 12.5v19q0 16 -19 16h-608v594h653q8 0 13.5 5.5t5.5 12.5v17q0 7 -5.5 12.5t-13.5 5.5zM569 1659q-32 0 -54.5 23t-22.5 55q0 34 22.5 57
t54.5 23q33 0 56.5 -23.5t23.5 -56.5q0 -32 -24 -55t-56 -23zM569 1798q-25 0 -43 -17.5t-18 -43.5q0 -25 18 -42.5t43 -17.5q26 0 44 17.5t18 42.5q0 26 -18 43.5t-44 17.5z" />
    <glyph glyph-name="edotaccent" unicode="&#x117;" horiz-adv-x="1159" 
d="M608 -27q-148 0 -269.5 71.5t-191 197t-69.5 278.5q0 233 146 390t364 157q199 0 336 -137q155 -158 155 -410q0 -19 -13 -32t-32 -13h-864q17 -177 141.5 -294.5t296.5 -117.5q201 0 334 148q20 20 45 6l21 -12q14 -9 16 -26t-10 -29q-157 -177 -406 -177zM588 1049
q-138 0 -251 -69t-177 -190.5t-64 -269.5q0 -226 147 -377t365 -151q243 0 393 170q6 6 5 13.5t-9 12.5l-18 13q-15 8 -25 -2q-133 -154 -346 -154q-182 0 -312.5 125.5t-143.5 312.5v11h882q11 0 19 8t8 18q1 118 -37.5 221t-112.5 177q-134 131 -323 131zM1004 557v-10
h-852v10q12 187 137 312.5t299 125.5q170 0 288 -124t128 -314zM170 565h815q-12 180 -124 296t-273 116q-164 0 -283.5 -117.5t-134.5 -294.5zM598 1249q-32 0 -55 23t-23 55q0 34 23 57t55 23q33 0 56.5 -23.5t23.5 -56.5q0 -32 -24 -55t-56 -23zM598 1389q-25 0 -43 -18
t-18 -44q0 -25 18 -42t43 -17q26 0 43.5 17t17.5 42q0 26 -17.5 44t-43.5 18z" />
    <glyph glyph-name="Eogonek" unicode="&#x118;" horiz-adv-x="1079" 
d="M877 -440q-78 0 -129.5 48t-51.5 120q0 80 48.5 152t117.5 120h-647q-15 0 -26 11t-11 26v1362q0 15 11 25t26 10h690q15 0 25 -10t10 -25v-19q0 -15 -10 -24.5t-25 -9.5h-637v-558h590q15 0 26 -10.5t11 -25.5v-19q0 -14 -11 -24.5t-26 -10.5h-590v-608h656q15 0 26 -10
t11 -25v-26q0 -23 -21 -37q-65 -44 -107 -109.5t-42 -120.5q0 -52 28 -77q34 -30 103 -27q16 2 27.5 -8t11.5 -27v-24q0 -12 -9 -22t-22 -13q-28 -4 -53 -4zM905 1417h-690q-7 0 -12.5 -5.5t-5.5 -12.5v-1362q0 -8 5.5 -13.5t12.5 -5.5h709l-27 -16q-73 -44 -127.5 -118
t-54.5 -156q0 -66 45 -108t117 -42q23 0 51 4q14 4 14 17v24q0 8 -6.5 13.5t-13.5 5.5q-78 -6 -115 28q-33 33 -33 92q0 60 43.5 128.5t112.5 115.5q12 9 12 23v26q0 8 -5.5 13.5t-12.5 5.5h-674v643h608q7 0 13 5t6 11v19q0 7 -5.5 12.5t-13.5 5.5h-608v592h655
q8 0 13.5 5.5t5.5 12.5v19q0 7 -5.5 12.5t-13.5 5.5z" />
    <glyph glyph-name="eogonek" unicode="&#x119;" horiz-adv-x="1159" 
d="M657 -440q-78 0 -129 48t-51 120q0 138 146 247h-15q-149 0 -270.5 71.5t-190.5 197t-69 278.5t66.5 278.5t183 197t258.5 71.5q97 0 184.5 -35.5t153.5 -101.5q75 -76 115 -182t40 -228q0 -19 -13 -32t-32 -13h-864q17 -177 141.5 -294t296.5 -117q205 0 332 145
q9 10 23 12t24 -6l19 -12q16 -10 17 -26t-9 -27q-118 -130 -285 -164q-70 -46 -113 -108t-43 -118q0 -53 27 -77q34 -30 102 -27q19 1 29 -9.5t10 -25.5v-24q0 -28 -30 -35q-28 -4 -54 -4zM651 -4l33 2l-27 -18q-161 -117 -161 -252q0 -66 44.5 -108t116.5 -42q24 0 52 4
q14 4 14 17v24q0 19 -21 19q-77 -6 -114 28q-33 33 -33 92q0 60 46.5 126t123.5 116q162 34 274 158q5 5 5.5 13t-7.5 15l-20 13q-13 8 -23 -2q-136 -154 -346 -154q-182 0 -312.5 125.5t-143.5 312.5l-2 11h884q11 0 19 8t8 18q0 118 -39 221t-111 175q-133 133 -325 133
q-209 0 -350.5 -151.5t-141.5 -377.5q0 -148 67 -269t185 -190t262 -69q27 0 43 2zM1001 559l3 -10h-854l2 10q12 187 136.5 312.5t297.5 125.5q171 0 288.5 -124t126.5 -314zM170 567h813q-12 180 -124 296t-273 116q-164 0 -282.5 -117.5t-133.5 -294.5z" />
    <glyph glyph-name="Ecaron" unicode="&#x11a;" horiz-adv-x="1079" 
d="M926 0h-711q-15 0 -25 11t-10 26v1360q0 15 10 26t25 11h690q15 0 26 -11t11 -26v-17q0 -15 -11 -26t-26 -11h-637v-557h592q15 0 25 -10t10 -24v-19q0 -15 -10 -26t-25 -11h-592v-606h658q14 0 24.5 -11t10.5 -26v-16q0 -15 -10.5 -26t-24.5 -11zM905 1415h-690
q-7 0 -12.5 -5.5t-5.5 -12.5v-1360q0 -8 5.5 -13.5t12.5 -5.5h711q6 0 11 6t5 13v16q0 7 -5 13t-11 6h-674v643h608q8 0 13.5 5.5t5.5 12.5v19q0 16 -19 16h-608v594h653q8 0 13.5 5.5t5.5 12.5v17q0 7 -5.5 12.5t-13.5 5.5zM770 1896h25q14 0 19.5 -11t-3.5 -23l-184 -230
q-15 -18 -43 -18h-31q-26 0 -41 18l-186 230q-10 12 -4.5 23t20.5 11h27q27 0 41 -20l159 -195l158 195q14 20 43 20zM569 1653l-174 213q-9 12 -26 12h-27q-8 0 -2 -6l186 -227q10 -13 27 -13h31q18 0 28 13l187 227q3 6 -4 6h-25q-17 0 -29 -12z" />
    <glyph glyph-name="ecaron" unicode="&#x11b;" horiz-adv-x="1159" 
d="M608 -27q-148 0 -269.5 71.5t-191 197t-69.5 278.5q0 233 146 390t364 157q199 0 336 -137q155 -158 155 -410q0 -19 -13 -32t-32 -13h-864q17 -177 141.5 -294.5t296.5 -117.5q201 0 334 148q20 20 45 6l21 -12q14 -9 16 -26t-10 -29q-157 -177 -406 -177zM588 1049
q-138 0 -251 -69t-177 -190.5t-64 -269.5q0 -226 147 -377t365 -151q243 0 393 170q6 6 5 13.5t-9 12.5l-18 13q-15 8 -25 -2q-133 -154 -346 -154q-182 0 -312.5 125.5t-143.5 312.5v11h882q11 0 19 8t8 18q1 118 -37.5 221t-112.5 177q-134 131 -323 131zM1004 557v-10
h-852v10q12 187 137 312.5t299 125.5q170 0 288 -124t128 -314zM170 565h815q-12 180 -124 296t-273 116q-164 0 -283.5 -117.5t-134.5 -294.5zM801 1487h24q14 0 20 -11.5t-3 -23.5l-185 -229q-16 -19 -43 -19h-30q-25 0 -41 19l-187 229q-10 12 -4 23.5t21 11.5h26
q26 0 41 -21l160 -194l158 194q15 21 43 21zM600 1243l-174 213q-9 12 -27 12h-26q-8 0 -2 -6l186 -227q9 -12 27 -12h30q20 0 29 12l186 227q3 6 -4 6h-24q-17 0 -29 -12z" />
    <glyph glyph-name="Gcircumflex" unicode="&#x11c;" horiz-adv-x="1572" 
d="M807 -25q-146 0 -276.5 58t-224.5 156.5t-149 236.5t-55 291t55 290.5t149 236.5t224.5 156.5t276.5 57.5q156 0 298 -64.5t245 -181.5q9 -12 6.5 -27.5t-15.5 -25.5l-14 -10q-27 -17 -47 6q-91 101 -214.5 157t-258.5 56q-170 0 -311.5 -85.5t-223.5 -235.5t-82 -330
t82 -330t223.5 -235.5t311.5 -85.5q250 0 402.5 161.5t160.5 431.5v17h-508q-14 0 -24.5 10t-10.5 25v18q0 15 10.5 26t24.5 11h561q15 0 25 -11t10 -26v-700q0 -12 -8 -20.5t-20 -8.5h-15q-12 0 -20.5 8t-8.5 19l-12 301q-75 -170 -221.5 -261.5t-345.5 -91.5zM807 1442
q-142 0 -269.5 -56.5t-219 -153t-145.5 -231t-54 -284.5t54 -284.5t145.5 -231t219 -153t269.5 -56.5q204 0 350 98.5t215 282.5l17 43l16 -387q0 -11 10 -11h15q12 0 12 11v700q0 7 -6 13t-13 6h-561q-16 0 -16 -19v-18q0 -19 16 -19h524v-33q-6 -280 -163.5 -446
t-415.5 -166q-174 0 -319.5 88.5t-229.5 242.5t-84 339t84 338.5t229.5 242t319.5 88.5q139 0 266 -57.5t219 -161.5q9 -12 25 -4l14 11q7 4 8 13t-4 13q-100 116 -238 179t-290 63zM1042 1614h-24q-29 0 -43 20l-158 195l-160 -195q-14 -20 -41 -20h-26q-15 0 -21 11.5
t4 23.5l187 229q15 18 41 18h30q28 0 43 -18l185 -229q9 -12 3 -23.5t-20 -11.5zM643 1645l174 213l172 -213q13 -13 29 -13h24q8 0 5 6l-187 228q-9 12 -29 12h-30q-18 0 -27 -12l-186 -228q-6 -6 2 -6h26q17 0 27 13z" />
    <glyph glyph-name="gcircumflex" unicode="&#x11d;" 
d="M604 -410q-262 0 -428 166q-13 11 -12.5 28.5t18.5 27.5l17 10q10 8 23 6t22 -12q132 -135 360 -135q106 0 189.5 38t134 101.5t76.5 139t26 157.5v153q-66 -115 -178.5 -178t-251.5 -63q-223 0 -371.5 148.5t-148.5 369.5q0 146 67.5 265.5t187 187t265.5 67.5
q138 0 251 -64t179 -178v181q0 15 11 25.5t26 10.5h18q14 0 24.5 -10.5t10.5 -25.5v-889q0 -79 -20.5 -155t-63.5 -143.5t-103 -118.5t-145 -80.5t-184 -29.5zM209 -193l-16 -10q-21 -12 -5 -28q160 -160 416 -160q95 0 177.5 28.5t140.5 77.5t100 114t62 138.5t20 149.5
v889q0 7 -5.5 12.5t-13.5 5.5h-18q-7 0 -12.5 -5t-5.5 -13v-254l-17 34q-62 123 -176 193t-256 70q-215 0 -358.5 -143.5t-143.5 -358.5q0 -214 143.5 -358t358.5 -144q142 0 256 70t176 194l17 35v-227q0 -85 -27.5 -164t-80 -144.5t-140 -105t-197.5 -39.5
q-240 0 -373 139q-11 11 -22 4zM600 100q-192 0 -320 128t-128 319q0 192 128 320t320 128t320.5 -128t128.5 -320q0 -191 -128.5 -319t-320.5 -128zM600 977q-184 0 -307 -122.5t-123 -307.5q0 -183 123 -305.5t307 -122.5t307 122.5t123 305.5q0 185 -123 307.5
t-307 122.5zM850 1204h-25q-28 0 -43 21l-157 194l-160 -194q-15 -21 -41 -21h-27q-15 0 -20.5 11.5t4.5 23.5l186 229q16 19 41 19h31q27 0 43 -19l184 -229q9 -12 3.5 -23.5t-19.5 -11.5zM451 1235l174 213l172 -213q12 -12 28 -12h25q7 0 4 6l-186 227q-9 12 -29 12h-31
q-17 0 -26 -12l-187 -227q-6 -6 2 -6h27q18 0 27 12z" />
    <glyph glyph-name="Gbreve" unicode="&#x11e;" horiz-adv-x="1572" 
d="M807 -25q-146 0 -276.5 58t-224.5 156.5t-149 236.5t-55 291t55 290.5t149 236.5t224.5 156.5t276.5 57.5q156 0 298 -64.5t245 -181.5q9 -12 6.5 -27.5t-15.5 -25.5l-14 -10q-27 -17 -47 6q-91 101 -214.5 157t-258.5 56q-170 0 -311.5 -85.5t-223.5 -235.5t-82 -330
t82 -330t223.5 -235.5t311.5 -85.5q250 0 402.5 161.5t160.5 431.5v17h-508q-14 0 -24.5 10t-10.5 25v18q0 15 10.5 26t24.5 11h561q15 0 25 -11t10 -26v-700q0 -12 -8 -20.5t-20 -8.5h-15q-12 0 -20.5 8t-8.5 19l-12 301q-75 -170 -221.5 -261.5t-345.5 -91.5zM807 1442
q-142 0 -269.5 -56.5t-219 -153t-145.5 -231t-54 -284.5t54 -284.5t145.5 -231t219 -153t269.5 -56.5q204 0 350 98.5t215 282.5l17 43l16 -387q0 -11 10 -11h15q12 0 12 11v700q0 7 -6 13t-13 6h-561q-16 0 -16 -19v-18q0 -19 16 -19h524v-33q-6 -280 -163.5 -446
t-415.5 -166q-174 0 -319.5 88.5t-229.5 242.5t-84 339t84 338.5t229.5 242t319.5 88.5q139 0 266 -57.5t219 -161.5q9 -12 25 -4l14 11q7 4 8 13t-4 13q-100 116 -238 179t-290 63zM813 1618q-95 0 -163 52t-85 140q-4 20 7 31.5t28 11.5h16q30 0 37 -28q9 -47 50 -82
t110 -35q71 0 112 35t50 82q3 12 13 20t22 8h18q21 0 30.5 -12t4.5 -31q-20 -88 -87 -140t-163 -52zM616 1835h-16q-21 0 -18 -20q13 -81 77 -131t154 -50q89 0 152 48t82 130q3 11 -4 17t-15 6h-18q-14 0 -17 -14q-12 -53 -57 -92t-123 -39q-77 0 -122.5 39t-55.5 92
q-3 14 -19 14z" />
    <glyph glyph-name="gbreve" unicode="&#x11f;" 
d="M604 -410q-262 0 -428 166q-13 11 -12.5 28.5t18.5 27.5l17 10q10 8 23 6t22 -12q132 -135 360 -135q106 0 189.5 38t134 101.5t76.5 139t26 157.5v153q-66 -115 -178.5 -178t-251.5 -63q-223 0 -371.5 148.5t-148.5 369.5q0 146 67.5 265.5t187 187t265.5 67.5
q138 0 251 -64t179 -178v181q0 15 11 25.5t26 10.5h18q14 0 24.5 -10.5t10.5 -25.5v-889q0 -79 -20.5 -155t-63.5 -143.5t-103 -118.5t-145 -80.5t-184 -29.5zM209 -193l-16 -10q-21 -12 -5 -28q160 -160 416 -160q95 0 177.5 28.5t140.5 77.5t100 114t62 138.5t20 149.5
v889q0 7 -5.5 12.5t-13.5 5.5h-18q-7 0 -12.5 -5t-5.5 -13v-254l-17 34q-62 123 -176 193t-256 70q-215 0 -358.5 -143.5t-143.5 -358.5q0 -214 143.5 -358t358.5 -144q142 0 256 70t176 194l17 35v-227q0 -85 -27.5 -164t-80 -144.5t-140 -105t-197.5 -39.5
q-240 0 -373 139q-11 11 -22 4zM600 100q-192 0 -320 128t-128 319q0 192 128 320t320 128t320.5 -128t128.5 -320q0 -191 -128.5 -319t-320.5 -128zM600 977q-184 0 -307 -122.5t-123 -307.5q0 -183 123 -305.5t307 -122.5t307 122.5t123 305.5q0 185 -123 307.5
t-307 122.5zM621 1208q-95 0 -163 52.5t-85 140.5q-4 20 7 31.5t28 11.5h16q13 0 23.5 -8.5t13.5 -20.5q9 -47 50 -82t110 -35q71 0 111.5 35t49.5 82q3 12 13 20.5t22 8.5h19q21 0 30 -12t4 -31q-20 -89 -86.5 -141t-162.5 -52zM424 1425h-16q-22 0 -19 -20
q13 -81 77.5 -130.5t154.5 -49.5q89 0 151.5 48t81.5 130q3 11 -3.5 16.5t-14.5 5.5h-19q-13 0 -16 -14q-12 -53 -57 -92t-123 -39q-77 0 -123 39.5t-56 91.5q-4 14 -18 14z" />
    <glyph glyph-name="Gdotaccent" unicode="&#x120;" horiz-adv-x="1572" 
d="M807 -25q-146 0 -276.5 58t-224.5 156.5t-149 236.5t-55 291t55 290.5t149 236.5t224.5 156.5t276.5 57.5q156 0 298 -64.5t245 -181.5q9 -12 6.5 -27.5t-15.5 -25.5l-14 -10q-27 -17 -47 6q-91 101 -214.5 157t-258.5 56q-170 0 -311.5 -85.5t-223.5 -235.5t-82 -330
t82 -330t223.5 -235.5t311.5 -85.5q250 0 402.5 161.5t160.5 431.5v17h-508q-14 0 -24.5 10t-10.5 25v18q0 15 10.5 26t24.5 11h561q15 0 25 -11t10 -26v-700q0 -12 -8 -20.5t-20 -8.5h-15q-12 0 -20.5 8t-8.5 19l-12 301q-75 -170 -221.5 -261.5t-345.5 -91.5zM807 1442
q-142 0 -269.5 -56.5t-219 -153t-145.5 -231t-54 -284.5t54 -284.5t145.5 -231t219 -153t269.5 -56.5q204 0 350 98.5t215 282.5l17 43l16 -387q0 -11 10 -11h15q12 0 12 11v700q0 7 -6 13t-13 6h-561q-16 0 -16 -19v-18q0 -19 16 -19h524v-33q-6 -280 -163.5 -446
t-415.5 -166q-174 0 -319.5 88.5t-229.5 242.5t-84 339t84 338.5t229.5 242t319.5 88.5q139 0 266 -57.5t219 -161.5q9 -12 25 -4l14 11q7 4 8 13t-4 13q-100 116 -238 179t-290 63zM813 1659q-32 0 -55 23t-23 55q0 34 23 57t55 23q33 0 56.5 -23.5t23.5 -56.5
q0 -32 -24 -55t-56 -23zM813 1798q-25 0 -43 -17.5t-18 -43.5q0 -25 18 -42.5t43 -17.5q26 0 43.5 17.5t17.5 42.5q0 26 -17.5 43.5t-43.5 17.5z" />
    <glyph glyph-name="gdotaccent" unicode="&#x121;" 
d="M604 -410q-262 0 -428 166q-13 11 -12.5 28.5t18.5 27.5l17 10q10 8 23 6t22 -12q132 -135 360 -135q106 0 189.5 38t134 101.5t76.5 139t26 157.5v153q-66 -115 -178.5 -178t-251.5 -63q-223 0 -371.5 148.5t-148.5 369.5q0 146 67.5 265.5t187 187t265.5 67.5
q138 0 251 -64t179 -178v181q0 15 11 25.5t26 10.5h18q14 0 24.5 -10.5t10.5 -25.5v-889q0 -79 -20.5 -155t-63.5 -143.5t-103 -118.5t-145 -80.5t-184 -29.5zM209 -193l-16 -10q-21 -12 -5 -28q160 -160 416 -160q95 0 177.5 28.5t140.5 77.5t100 114t62 138.5t20 149.5
v889q0 7 -5.5 12.5t-13.5 5.5h-18q-7 0 -12.5 -5t-5.5 -13v-254l-17 34q-62 123 -176 193t-256 70q-215 0 -358.5 -143.5t-143.5 -358.5q0 -214 143.5 -358t358.5 -144q142 0 256 70t176 194l17 35v-227q0 -85 -27.5 -164t-80 -144.5t-140 -105t-197.5 -39.5
q-240 0 -373 139q-11 11 -22 4zM600 100q-192 0 -320 128t-128 319q0 192 128 320t320 128t320.5 -128t128.5 -320q0 -191 -128.5 -319t-320.5 -128zM600 977q-184 0 -307 -122.5t-123 -307.5q0 -183 123 -305.5t307 -122.5t307 122.5t123 305.5q0 185 -123 307.5
t-307 122.5zM618 1249q-32 0 -54.5 23t-22.5 55q0 34 22.5 57t54.5 23q33 0 56.5 -23.5t23.5 -56.5q0 -32 -24 -55t-56 -23zM618 1389q-25 0 -43 -18t-18 -44q0 -25 18 -42t43 -17q26 0 44 17t18 42q0 26 -18 44t-44 18z" />
    <glyph glyph-name="Gcommaaccent" unicode="&#x122;" horiz-adv-x="1572" 
d="M807 -25q-146 0 -276.5 58t-224.5 156.5t-149 236.5t-55 291t55 290.5t149 236.5t224.5 156.5t276.5 57.5q156 0 298 -64.5t245 -181.5q9 -12 6.5 -27.5t-15.5 -25.5l-14 -10q-27 -17 -47 6q-91 101 -214.5 157t-258.5 56q-170 0 -311.5 -85.5t-223.5 -235.5t-82 -330
t82 -330t223.5 -235.5t311.5 -85.5q250 0 402.5 161.5t160.5 431.5v17h-508q-14 0 -24.5 10t-10.5 25v18q0 15 10.5 26t24.5 11h561q15 0 25 -11t10 -26v-700q0 -12 -8 -20.5t-20 -8.5h-15q-12 0 -20.5 8t-8.5 19l-12 301q-75 -170 -221.5 -261.5t-345.5 -91.5zM807 1442
q-142 0 -269.5 -56.5t-219 -153t-145.5 -231t-54 -284.5t54 -284.5t145.5 -231t219 -153t269.5 -56.5q204 0 350 98.5t215 282.5l17 43l16 -387q0 -11 10 -11h15q12 0 12 11v700q0 7 -6 13t-13 6h-561q-16 0 -16 -19v-18q0 -19 16 -19h524v-33q-6 -280 -163.5 -446
t-415.5 -166q-174 0 -319.5 88.5t-229.5 242.5t-84 339t84 338.5t229.5 242t319.5 88.5q139 0 266 -57.5t219 -161.5q9 -12 25 -4l14 11q7 4 8 13t-4 13q-100 116 -238 179t-290 63zM690 -506h-14q-10 0 -13.5 8.5t-0.5 16.5l90 248q9 28 41 28h32q16 0 23 -11t0 -28
l-133 -248q-8 -14 -25 -14zM825 -221h-32q-17 0 -25 -19l-92 -247h14q9 0 12 6l132 245q3 6 -0.5 10.5t-8.5 4.5z" />
    <glyph glyph-name="gcommaaccent" unicode="&#x123;" 
d="M604 -410q-262 0 -428 166q-13 11 -12.5 28.5t18.5 27.5l17 10q10 8 23 6t22 -12q132 -135 360 -135q106 0 189.5 38t134 101.5t76.5 139t26 157.5v153q-66 -115 -178.5 -178t-251.5 -63q-223 0 -371.5 148.5t-148.5 369.5q0 146 67.5 265.5t187 187t265.5 67.5
q138 0 251 -64t179 -178v181q0 15 11 25.5t26 10.5h18q14 0 24.5 -10.5t10.5 -25.5v-889q0 -79 -20.5 -155t-63.5 -143.5t-103 -118.5t-145 -80.5t-184 -29.5zM209 -193l-16 -10q-21 -12 -5 -28q160 -160 416 -160q95 0 177.5 28.5t140.5 77.5t100 114t62 138.5t20 149.5
v889q0 7 -5.5 12.5t-13.5 5.5h-18q-7 0 -12.5 -5t-5.5 -13v-254l-17 34q-62 123 -176 193t-256 70q-215 0 -358.5 -143.5t-143.5 -358.5q0 -214 143.5 -358t358.5 -144q142 0 256 70t176 194l17 35v-227q0 -85 -27.5 -164t-80 -144.5t-140 -105t-197.5 -39.5
q-240 0 -373 139q-11 11 -22 4zM600 100q-192 0 -320 128t-128 319q0 192 128 320t320 128t320.5 -128t128.5 -320q0 -191 -128.5 -319t-320.5 -128zM600 977q-184 0 -307 -122.5t-123 -307.5q0 -183 123 -305.5t307 -122.5t307 122.5t123 305.5q0 185 -123 307.5
t-307 122.5zM733 1491h15q10 0 13.5 -8.5t0.5 -16.5l-90 -247q-10 -29 -41 -29h-33q-16 0 -23 11t0 28l134 248q8 14 24 14zM598 1206h33q16 0 24 19l93 248h-15q-9 0 -12 -7l-131 -245q-3 -6 0 -10.5t8 -4.5z" />
    <glyph glyph-name="Hcircumflex" unicode="&#x124;" horiz-adv-x="1384" 
d="M1169 0h-18q-14 0 -24.5 11t-10.5 26v641h-842v-641q0 -15 -10.5 -26t-25.5 -11h-19q-14 0 -24.5 11t-10.5 26v1360q0 15 10.5 26t24.5 11h19q15 0 25.5 -11t10.5 -26v-629h842v629q0 15 10.5 26t24.5 11h18q15 0 26 -11t11 -26v-1360q0 -15 -11 -26t-26 -11zM256 37v659
h879v-659q0 -7 5 -13t11 -6h18q7 0 13 6t6 13v1360q0 7 -5.5 12.5t-13.5 5.5h-18q-6 0 -11 -5.5t-5 -12.5v-647h-879v647q0 7 -5 12.5t-13 5.5h-19q-7 0 -12.5 -5.5t-5.5 -12.5v-1360q0 -8 5.5 -13.5t12.5 -5.5h19q7 0 12.5 5.5t5.5 13.5zM922 1614h-25q-29 0 -43 20
l-158 195l-159 -195q-14 -20 -41 -20h-27q-15 0 -20.5 11.5t4.5 23.5l186 229q15 18 41 18h31q28 0 43 -18l184 -229q9 -12 3.5 -23.5t-19.5 -11.5zM522 1645l174 213l172 -213q13 -13 29 -13h25q7 0 4 6l-187 228q-9 12 -28 12h-31q-18 0 -27 -12l-186 -228q-6 -6 2 -6h27
q16 0 26 13z" />
    <glyph glyph-name="hcircumflex" unicode="&#x125;" horiz-adv-x="1181" 
d="M975 0h-19q-15 0 -25.5 10.5t-10.5 24.5v598q0 55 -17.5 112t-53 110.5t-99 87.5t-144.5 34q-102 0 -183 -55t-122 -137t-41 -171v-579q0 -14 -11 -24.5t-26 -10.5h-18q-13 0 -24 11t-11 24v1362q0 15 10.5 26t24.5 11h18q15 0 26 -11t11 -26v-529q57 95 147 147t199 52
q95 0 173 -38t127.5 -100t76.5 -139t27 -157v-598q0 -13 -11 -24t-24 -11zM606 995q103 0 180.5 -54.5t114.5 -135.5t37 -172v-598q0 -8 5.5 -13.5t12.5 -5.5h19q6 0 11 6t5 13v598q0 77 -25.5 150t-72.5 133t-122 96.5t-165 36.5q-112 0 -203 -57.5t-145 -162.5l-16 -32
v600q0 7 -5.5 12.5t-13.5 5.5h-18q-17 0 -17 -18v-1362q0 -8 5 -13.5t12 -5.5h18q7 0 13 6t6 13v579q0 93 43 179t128 144t193 58zM705 1614h-25q-29 0 -43 20l-158 195l-160 -195q-14 -20 -40 -20h-27q-15 0 -20.5 11.5t4.5 23.5l186 229q15 18 41 18h31q28 0 43 -18
l184 -229q9 -12 3.5 -23.5t-19.5 -11.5zM305 1645l174 213l172 -213q13 -13 29 -13h25q7 0 4 6l-187 228q-9 12 -28 12h-31q-18 0 -27 -12l-186 -228q-6 -6 2 -6h27q16 0 26 13z" />
    <glyph glyph-name="Hbar" unicode="&#x126;" horiz-adv-x="1443" 
d="M1198 0h-18q-14 0 -24.5 11t-10.5 26v641h-844v-641q0 -15 -10 -26t-25 -11h-18q-15 0 -26 11t-11 26v1042h-154q-14 0 -24 11t-10 26v17q0 15 10 25.5t24 10.5h154v230q0 14 11 24.5t26 10.5h18q15 0 25 -10.5t10 -24.5v-230h844v230q0 13 10.5 24t24.5 11h18
q15 0 26 -10.5t11 -24.5v-230h154q15 0 24.5 -10.5t9.5 -25.5v-17q0 -15 -9.5 -26t-24.5 -11h-154v-1042q0 -15 -11 -26t-26 -11zM285 37v659h876v-659q0 -7 5.5 -13t13.5 -6h18q8 0 13.5 6t5.5 13v1061h172q7 0 12.5 5t5.5 13v17q0 7 -5.5 12.5t-12.5 5.5h-172v248
q0 6 -6 11t-13 5h-18q-7 0 -13 -5t-6 -11v-248h-876v248q0 6 -6 11t-13 5h-18q-7 0 -13 -5t-6 -11v-248h-172q-7 0 -12.5 -5.5t-5.5 -12.5v-17q0 -8 5.5 -13t12.5 -5h172v-1061q0 -7 5.5 -13t13.5 -6h18q8 0 13.5 6t5.5 13zM1161 1098v-348h-876v348h876zM301 1079v-311h844
v311h-844z" />
    <glyph glyph-name="hbar" unicode="&#x127;" horiz-adv-x="1181" 
d="M975 0h-17q-15 0 -25.5 11t-10.5 26v559q0 56 -17.5 113.5t-53 111t-99 87.5t-144.5 34q-103 0 -184 -55t-121.5 -136.5t-40.5 -170.5v-543q0 -15 -11 -26t-26 -11h-18q-14 0 -24.5 11t-10.5 26v1124h-125q-13 0 -24 10.5t-11 24.5v18q0 15 10.5 26t24.5 11h125v148
q0 13 11 24t24 11h18q15 0 26 -10.5t11 -24.5v-148h344q15 0 26 -11t11 -26v-18q0 -14 -11 -24.5t-26 -10.5h-344v-327q57 95 147 146.5t199 51.5q95 0 173 -38t127.5 -100.5t76.5 -139.5t27 -158v-559q0 -15 -11 -26t-26 -11zM608 961q103 0 180.5 -55.5t114.5 -137
t37 -172.5v-559q0 -8 5.5 -13.5t12.5 -5.5h17q7 0 12.5 5.5t5.5 13.5v559q0 77 -25.5 151t-72.5 134t-122 96.5t-165 36.5q-112 0 -203 -57.5t-145 -161.5l-16 -33v416h362q8 0 13.5 5.5t5.5 12.5v18q0 8 -5.5 13.5t-13.5 5.5h-362v166q0 6 -6 11t-13 5h-18q-7 0 -13 -5
t-6 -11v-166h-141q-6 0 -11 -6t-5 -13v-18q0 -7 5 -12.5t11 -5.5h141v-1141q0 -7 6 -13t13 -6h18q7 0 13 6t6 13v543q0 93 43 179t128 144t193 58z" />
    <glyph glyph-name="Itilde" unicode="&#x128;" horiz-adv-x="440" 
d="M227 0h-16q-15 0 -26 11t-11 26v1360q0 15 11 26t26 11h16q15 0 26 -11t11 -26v-1360q0 -15 -11 -26t-26 -11zM227 1415h-16q-7 0 -12.5 -5.5t-5.5 -12.5v-1360q0 -8 5.5 -13.5t12.5 -5.5h16q7 0 13 6t6 13v1360q0 7 -5.5 12.5t-13.5 5.5zM-8 1606l-19 4q-36 5 -28 43
q10 43 29.5 72.5t43.5 41.5t42 16.5t36 4.5q8 0 16 -1t14.5 -1.5t15 -3t13.5 -3.5t14.5 -5t12.5 -5t13.5 -6t12 -5.5t13.5 -6.5l12 -6q72 -37 103 -37q49 0 65 61q3 14 14.5 23t24.5 6l19 -4q38 -7 30 -45q-21 -75 -64.5 -103t-88.5 -28q-62 0 -146 47q-68 33 -94 33
q-47 0 -63 -64q-10 -33 -41 -28zM96 1769q-16 0 -31.5 -3.5t-37 -14.5t-39.5 -37t-27 -65q-4 -17 16 -21l17 -4q17 -3 20 14q20 78 82 78q35 0 103 -35q76 -45 137 -45q100 0 135 119q5 16 -14 21l-19 4q-16 3 -20 -15q-18 -75 -82 -75q-39 0 -111 39q-82 40 -129 40z" />
    <glyph glyph-name="itilde" unicode="&#x129;" horiz-adv-x="421" 
d="M221 0h-18q-15 0 -26 10.5t-11 24.5v971q0 15 11 25.5t26 10.5h18q14 0 24.5 -10.5t10.5 -25.5v-971q0 -13 -11 -24t-24 -11zM221 1024h-18q-8 0 -13.5 -5.5t-5.5 -12.5v-971q0 -7 6 -13t13 -6h18q7 0 12 5.5t5 13.5v971q0 18 -17 18zM-16 1196l-19 4q-36 5 -28 43
q10 43 29.5 72.5t43.5 41.5t42 16.5t36 4.5q8 0 16 -1t14.5 -1.5t15 -3t13.5 -3.5t14.5 -5t12.5 -5t13.5 -6t12 -5.5t13.5 -6.5l12 -6q72 -37 103 -37q49 0 65 62q3 14 14.5 23t24.5 6l19 -5q38 -7 30 -45q-21 -75 -64.5 -103t-88.5 -28q-62 0 -146 47q-68 33 -94 33
q-47 0 -63 -63q-4 -13 -14.5 -22.5t-26.5 -6.5zM88 1360q-16 0 -31.5 -4t-37 -14.5t-39.5 -37t-27 -65.5q-3 -11 1.5 -14.5t14.5 -5.5l17 -5q16 -3 20 15q20 78 82 78q34 0 102 -35q76 -45 138 -45q100 0 135 119q4 15 -14 20l-19 4q-16 3 -20 -14q-18 -76 -82 -76
q-39 0 -111 39q-71 35 -106 39q-11 2 -23 2z" />
    <glyph glyph-name="Imacron" unicode="&#x12a;" horiz-adv-x="440" 
d="M227 0h-16q-15 0 -26 11t-11 26v1360q0 15 11 26t26 11h16q15 0 26 -11t11 -26v-1360q0 -15 -11 -26t-26 -11zM227 1415h-16q-7 0 -12.5 -5.5t-5.5 -12.5v-1360q0 -8 5.5 -13.5t12.5 -5.5h16q7 0 13 6t6 13v1360q0 7 -5.5 12.5t-13.5 5.5zM416 1683h-389q-15 0 -26 10.5
t-11 24.5v19q0 15 11 26t26 11h389q15 0 26 -11t11 -26v-19q0 -14 -11 -24.5t-26 -10.5zM416 1755h-389q-8 0 -13.5 -5.5t-5.5 -12.5v-19q0 -6 6 -11t13 -5h389q7 0 12.5 5t5.5 11v19q0 7 -5 12.5t-13 5.5z" />
    <glyph glyph-name="imacron" unicode="&#x12b;" horiz-adv-x="421" 
d="M221 0h-18q-15 0 -26 10.5t-11 24.5v971q0 15 11 25.5t26 10.5h18q14 0 24.5 -10.5t10.5 -25.5v-971q0 -13 -11 -24t-24 -11zM221 1024h-18q-8 0 -13.5 -5.5t-5.5 -12.5v-971q0 -7 6 -13t13 -6h18q7 0 12 5.5t5 13.5v971q0 18 -17 18zM408 1274h-390q-15 0 -25.5 10.5
t-10.5 24.5v18q0 15 10.5 26t25.5 11h390q15 0 25.5 -11t10.5 -26v-18q0 -14 -10.5 -24.5t-25.5 -10.5zM408 1346h-390q-7 0 -12.5 -5.5t-5.5 -13.5v-18q0 -6 5.5 -11.5t12.5 -5.5h390q7 0 12.5 5.5t5.5 11.5v18q0 8 -5.5 13.5t-12.5 5.5z" />
    <glyph glyph-name="Ibreve" unicode="&#x12c;" horiz-adv-x="440" 
d="M227 0h-16q-15 0 -26 11t-11 26v1360q0 15 11 26t26 11h16q15 0 26 -11t11 -26v-1360q0 -15 -11 -26t-26 -11zM227 1415h-16q-7 0 -12.5 -5.5t-5.5 -12.5v-1360q0 -8 5.5 -13.5t12.5 -5.5h16q7 0 13 6t6 13v1360q0 7 -5.5 12.5t-13.5 5.5zM219 1618q-95 0 -163 52
t-85 140q-4 20 7 31.5t28 11.5h17q29 0 36 -28q9 -47 50 -82t110 -35q71 0 112 35t50 82q3 12 13 20t22 8h18q21 0 30.5 -12t4.5 -31q-20 -88 -87 -140t-163 -52zM23 1835h-17q-21 0 -18 -20q13 -81 77 -131t154 -50q89 0 152 48t82 130q3 11 -4 17t-15 6h-18q-14 0 -17 -14
q-12 -53 -57 -92t-123 -39q-77 0 -122.5 39t-55.5 92q-3 14 -18 14z" />
    <glyph glyph-name="ibreve" unicode="&#x12d;" horiz-adv-x="421" 
d="M221 0h-18q-15 0 -26 10.5t-11 24.5v971q0 15 11 25.5t26 10.5h18q14 0 24.5 -10.5t10.5 -25.5v-971q0 -13 -11 -24t-24 -11zM221 1024h-18q-8 0 -13.5 -5.5t-5.5 -12.5v-971q0 -7 6 -13t13 -6h18q7 0 12 5.5t5 13.5v971q0 18 -17 18zM211 1208q-95 0 -163 52.5
t-85 140.5q-4 20 7 31.5t28 11.5h16q13 0 23.5 -8.5t13.5 -20.5q9 -47 50 -82t110 -35q71 0 112 35t50 82q3 12 13 20.5t22 8.5h18q21 0 30.5 -12t4.5 -31q-20 -89 -87 -141t-163 -52zM14 1425h-16q-21 0 -18 -20q13 -81 77 -130.5t154 -49.5q89 0 151.5 48t81.5 130
q3 11 -3.5 16.5t-14.5 5.5h-18q-14 0 -17 -14q-12 -53 -57 -92t-123 -39q-77 0 -122.5 39t-55.5 92q-3 14 -19 14z" />
    <glyph glyph-name="Iogonek" unicode="&#x12e;" horiz-adv-x="440" 
d="M180 -440q-78 0 -129 48t-51 120q0 82 53 156t129 124q-8 12 -8 21v1370q0 15 11 25t26 10h16q15 0 26 -10t11 -25v-1370q0 -23 -18 -37q-66 -44 -108 -109t-42 -121q0 -53 27 -77q35 -30 102 -27q39 3 39 -35v-24q0 -12 -9 -22t-22 -13q-28 -4 -53 -4zM227 1417h-16
q-7 0 -12.5 -5.5t-5.5 -12.5v-1370q0 -11 8 -11h32l-26 -16q-18 -10 -44.5 -30.5t-61.5 -55.5t-59 -85.5t-24 -102.5q0 -66 45.5 -108t116.5 -42q23 0 51 4q15 4 15 17v24q0 8 -6 13.5t-13 5.5q-76 -6 -116 28q-33 38 -33 92q0 60 44 128.5t114 115.5q10 10 10 23v1370
q0 7 -5.5 12.5t-13.5 5.5z" />
    <glyph glyph-name="iogonek" unicode="&#x12f;" horiz-adv-x="421" 
d="M174 -440q-78 0 -128 48t-50 120q0 83 52 156.5t128 123.5q-8 12 -8 21v979q0 15 11 25.5t26 10.5h18q14 0 24.5 -10.5t10.5 -25.5v-979q0 -25 -18 -37q-66 -44 -108 -109t-42 -121q0 -54 29 -77q30 -30 100 -27q39 3 39 -35v-24q0 -12 -8.5 -22t-20.5 -13q-32 -4 -55 -4
zM223 1026h-18q-8 0 -13.5 -5.5t-5.5 -12.5v-979q0 -11 9 -11h32l-26 -16q-18 -10 -44.5 -30.5t-61.5 -55.5t-59 -85.5t-24 -102.5q0 -66 45.5 -108t116.5 -42q23 0 51 4q15 4 15 17v24q0 19 -19 19q-78 -6 -115 28q-34 34 -34 92q0 60 44 128.5t113 115.5q11 11 11 23v979
q0 7 -5.5 12.5t-11.5 5.5zM213 1255q-28 0 -48 19.5t-20 48.5q0 28 20 47t48 19t48 -19t20 -47q0 -29 -20 -48.5t-48 -19.5zM213 1372q-20 0 -34.5 -14.5t-14.5 -34.5q0 -22 14.5 -36.5t34.5 -14.5t34.5 14.5t14.5 36.5q0 20 -14.5 34.5t-34.5 14.5z" />
    <glyph glyph-name="Idotaccent" unicode="&#x130;" horiz-adv-x="440" 
d="M227 0h-16q-15 0 -26 11t-11 26v1360q0 15 11 26t26 11h16q15 0 26 -11t11 -26v-1360q0 -15 -11 -26t-26 -11zM227 1415h-16q-7 0 -12.5 -5.5t-5.5 -12.5v-1360q0 -8 5.5 -13.5t12.5 -5.5h16q7 0 13 6t6 13v1360q0 7 -5.5 12.5t-13.5 5.5zM219 1659q-32 0 -55 23t-23 55
q0 34 23 57t55 23q33 0 56.5 -23.5t23.5 -56.5q0 -32 -24 -55t-56 -23zM219 1798q-25 0 -43 -17.5t-18 -43.5q0 -25 18 -42.5t43 -17.5q26 0 44 17.5t18 42.5q0 26 -18 43.5t-44 17.5z" />
    <glyph glyph-name="dotlessi" unicode="&#x131;" horiz-adv-x="421" 
d="M221 0h-18q-15 0 -26 10.5t-11 24.5v971q0 15 11 25.5t26 10.5h18q14 0 24.5 -10.5t10.5 -25.5v-971q0 -13 -11 -24t-24 -11zM221 1024h-18q-8 0 -13.5 -5.5t-5.5 -12.5v-971q0 -7 6 -13t13 -6h18q7 0 12 5.5t5 13.5v971q0 18 -17 18z" />
    <glyph glyph-name="IJ" unicode="&#x132;" horiz-adv-x="1501" 
d="M227 0h-16q-15 0 -26 11t-11 26v1360q0 15 11 26t26 11h16q15 0 26 -11t11 -26v-1360q0 -15 -11 -26t-26 -11zM227 1415h-16q-7 0 -12.5 -5.5t-5.5 -12.5v-1360q0 -8 5.5 -13.5t12.5 -5.5h16q7 0 13 6t6 13v1360q0 7 -5.5 12.5t-13.5 5.5zM889 -25q-172 0 -291.5 91.5
t-157.5 252.5q-3 15 5.5 29t23.5 17l18 4q16 3 27 -5.5t14 -21.5q32 -132 126.5 -204t234.5 -72q165 0 252.5 103t87.5 298v930q0 15 10.5 26t24.5 11h18q15 0 26 -11t11 -26v-930q0 -231 -114.5 -361.5t-315.5 -130.5zM489 350l-18 -4q-17 -3 -12 -22q35 -155 149.5 -243.5
t280.5 -88.5q193 0 302 126t109 349v930q0 7 -5 12.5t-13 5.5h-18q-6 0 -11.5 -5.5t-5.5 -12.5v-930q0 -200 -94 -310t-264 -110q-148 0 -246.5 75.5t-132.5 213.5q-5 17 -21 14z" />
    <glyph glyph-name="ij" unicode="&#x133;" horiz-adv-x="813" 
d="M221 0h-18q-15 0 -26 10.5t-11 24.5v971q0 15 11 25.5t26 10.5h18q14 0 24.5 -10.5t10.5 -25.5v-971q0 -13 -11 -24t-24 -11zM221 1024h-18q-8 0 -13.5 -5.5t-5.5 -12.5v-971q0 -7 6 -13t13 -6h18q7 0 12 5.5t5 13.5v971q0 18 -17 18zM211 1253q-28 0 -48 20t-20 48
t20 48t48 20t48 -20t20 -48t-20 -48t-48 -20zM211 1370q-20 0 -34.5 -14.5t-14.5 -34.5q0 -21 14 -35t35 -14q22 0 35.5 13.5t13.5 35.5q0 21 -14 35t-35 14zM305 -338v19q0 15 10 24.5t25 11.5q129 6 174 66.5t45 187.5v1035q0 15 10.5 25.5t24.5 10.5h18q15 0 26 -10.5
t11 -25.5v-1035q0 -172 -74 -255t-233 -89q-18 -1 -27.5 9.5t-9.5 25.5zM612 1024h-18q-6 0 -11 -5.5t-5 -12.5v-1035q0 -64 -10 -109t-35 -82.5t-73 -57.5t-120 -23q-16 0 -16 -18v-19q0 -16 18 -16q152 6 220.5 82.5t68.5 242.5v1035q0 7 -5.5 12.5t-13.5 5.5zM604 1253
q-28 0 -47.5 20t-19.5 48t19.5 48t47.5 20t48 -20t20 -48t-20 -48t-48 -20zM604 1370q-20 0 -34.5 -14.5t-14.5 -34.5q0 -21 14 -35t35 -14t35 14t14 35q0 20 -14.5 34.5t-34.5 14.5z" />
    <glyph glyph-name="Jcircumflex" unicode="&#x134;" horiz-adv-x="1142" 
d="M530 -25q-172 0 -291 91.5t-157 252.5q-3 15 5.5 29t23.5 17l18 4q16 3 27 -5.5t14 -21.5q32 -132 126 -204t234 -72q165 0 252.5 103t87.5 298v930q0 15 10.5 26t24.5 11h19q15 0 26 -11t11 -26v-930q0 -231 -115 -361.5t-316 -130.5zM131 350l-18 -4q-18 -3 -13 -22
q35 -155 149.5 -243.5t280.5 -88.5q193 0 302.5 126t109.5 349v930q0 7 -5 12.5t-13 5.5h-19q-6 0 -11 -5.5t-5 -12.5v-930q0 -199 -94.5 -309.5t-264.5 -110.5q-148 0 -246 75.5t-132 213.5q-5 17 -21 14zM1151 1614h-25q-29 0 -43 20l-157 195l-160 -195q-14 -20 -41 -20
h-27q-15 0 -20.5 11.5t4.5 23.5l186 229q15 18 41 18h31q28 0 43 -18l184 -229q9 -12 3.5 -23.5t-19.5 -11.5zM752 1645l174 213l172 -213q13 -13 28 -13h25q7 0 4 6l-186 228q-9 12 -29 12h-31q-17 0 -26 -12l-187 -228q-6 -6 2 -6h27q17 0 27 13z" />
    <glyph glyph-name="jcircumflex" unicode="&#x135;" horiz-adv-x="421" 
d="M-86 -338v19q0 15 10 24.5t25 11.5q129 6 174 66.5t45 187.5v1035q0 15 10.5 25.5t24.5 10.5h18q15 0 26 -10.5t11 -25.5v-1035q0 -172 -74 -255t-233 -89q-18 -1 -27.5 9.5t-9.5 25.5zM221 1024h-18q-6 0 -11.5 -5.5t-5.5 -12.5v-1035q0 -64 -9.5 -109t-34.5 -82.5
t-73 -57.5t-120 -23q-17 0 -17 -18v-19q0 -16 19 -16q152 6 220.5 82.5t68.5 242.5v1035q0 7 -5.5 12.5t-13.5 5.5zM442 1204h-24q-28 0 -43 21l-158 194l-160 -194q-15 -21 -41 -21h-26q-15 0 -21 11.5t4 23.5l187 229q16 19 41 19h30q27 0 43 -19l185 -229q9 -12 3 -23.5
t-20 -11.5zM43 1235l174 213l172 -213q12 -12 29 -12h24q7 0 4 6l-186 227q-9 12 -29 12h-30q-18 0 -27 -12l-186 -227q-6 -6 2 -6h26q18 0 27 12z" />
    <glyph glyph-name="Kcommaaccent" unicode="&#x136;" horiz-adv-x="1146" 
d="M1034 0h-30q-28 0 -46 18l-688 680v-661q0 -15 -11 -26t-26 -11h-18q-14 0 -24.5 11t-10.5 26v1360q0 15 10.5 26t24.5 11h18q15 0 26 -11t11 -26v-649l637 665q15 21 45 21h27q18 0 24 -16.5t-6 -28.5l-632 -664l688 -678q13 -12 7 -29.5t-26 -17.5zM920 1401l-650 -678
l701 -692q13 -13 33 -13h30q6 0 7.5 6t-1.5 9l-700 692l645 676q4 5 2 9.5t-8 4.5h-27q-21 0 -32 -14zM233 1415h-18q-7 0 -12.5 -5.5t-5.5 -12.5v-1360q0 -8 5.5 -13.5t12.5 -5.5h18q7 0 13 6t6 13v1360q0 7 -5.5 12.5t-13.5 5.5zM498 -506h-15q-10 0 -13.5 8.5t-0.5 16.5
l90 248q9 28 41 28h33q16 0 22.5 -11t-0.5 -28l-133 -248q-8 -14 -24 -14zM633 -221h-33q-17 0 -25 -19l-92 -247h15q9 0 12 6l131 245q3 6 0 10.5t-8 4.5z" />
    <glyph glyph-name="kcommaaccent" unicode="&#x137;" horiz-adv-x="983" 
d="M868 0h-37q-24 0 -43 16l-530 494v-475q0 -14 -11 -24.5t-26 -10.5h-18q-13 0 -24 11t-11 24v1362q0 15 10.5 26t24.5 11h18q15 0 26 -11t11 -26v-832l467 459q18 18 45 18h39q20 0 25.5 -17.5t-7.5 -29.5l-469 -458l529 -492q15 -13 7.5 -30t-26.5 -15zM737 1012
l-483 -475l547 -508q17 -13 30 -13h37q7 0 9 6t-3 11l-540 504l481 471q4 4 2 10t-8 6h-39q-18 0 -33 -12zM221 1415h-18q-17 0 -17 -18v-1362q0 -8 5 -13.5t12 -5.5h18q7 0 13 6t6 13v1362q0 7 -5.5 12.5t-13.5 5.5zM424 -506h-14q-10 0 -14 8.5t-1 16.5l90 248q9 28 41 28
h33q16 0 23 -11t0 -28l-133 -248q-8 -14 -25 -14zM559 -221h-33q-16 0 -24 -19l-92 -247h14q9 0 12 6l131 245q3 6 0 10.5t-8 4.5z" />
    <glyph glyph-name="kgreenlandic" unicode="&#x138;" horiz-adv-x="983" 
d="M868 0h-37q-24 0 -43 16l-530 494v-475q0 -14 -11 -24.5t-26 -10.5h-18q-13 0 -24 11t-11 24v971q0 15 10.5 25.5t24.5 10.5h18q15 0 26 -10.5t11 -25.5v-441l467 459q18 18 45 18h39q20 0 25.5 -17.5t-7.5 -29.5l-469 -458l529 -492q15 -13 7.5 -30t-26.5 -15zM737 1012
l-483 -475l547 -508q17 -13 30 -13h37q7 0 9 6t-3 11l-540 504l481 471q4 4 2 10t-8 6h-39q-18 0 -33 -12zM221 1024h-18q-17 0 -17 -18v-971q0 -8 5 -13.5t12 -5.5h18q7 0 13 6t6 13v971q0 7 -5.5 12.5t-13.5 5.5z" />
    <glyph glyph-name="Lacute" unicode="&#x139;" horiz-adv-x="1044" 
d="M907 0h-694q-14 0 -24.5 11t-10.5 26v1360q0 15 10.5 26t24.5 11h18q15 0 26 -11t11 -26v-1307h639q15 0 26 -11t11 -26v-16q0 -15 -11 -26t-26 -11zM231 1415h-18q-6 0 -11 -5.5t-5 -12.5v-1360q0 -7 5 -13t11 -6h694q7 0 13 6t6 13v16q0 7 -6 13t-13 6h-657v1325
q0 7 -5.5 12.5t-13.5 5.5zM242 1614h-15q-11 0 -17.5 9t-0.5 22l104 227q10 24 41 24h35q17 0 24.5 -14.5t-1.5 -26.5l-140 -225q-11 -16 -30 -16zM389 1878h-35q-17 0 -24 -14l-105 -224q-4 -8 2 -8h15q11 0 16 8l139 226q4 12 -8 12z" />
    <glyph glyph-name="lacute" unicode="&#x13a;" horiz-adv-x="419" 
d="M219 0h-18q-13 0 -24 11t-11 24v1362q0 15 10.5 26t24.5 11h18q15 0 26 -11t11 -26v-1362q0 -14 -11 -24.5t-26 -10.5zM219 1415h-18q-6 0 -11.5 -5.5t-5.5 -12.5v-1362q0 -7 5.5 -13t11.5 -6h18q7 0 13 6t6 13v1362q0 7 -5.5 12.5t-13.5 5.5zM221 1614h-14q-11 0 -18 9
t-1 22l105 227q10 24 41 24h35q17 0 24 -14.5t-2 -26.5l-139 -225q-11 -16 -31 -16zM369 1878h-35q-18 0 -25 -14l-104 -224q-4 -8 2 -8h14q12 0 17 8l139 226q4 12 -8 12z" />
    <glyph glyph-name="Lcommaaccent" unicode="&#x13b;" horiz-adv-x="1044" 
d="M907 0h-694q-14 0 -24.5 11t-10.5 26v1360q0 15 10.5 26t24.5 11h18q15 0 26 -11t11 -26v-1307h639q15 0 26 -11t11 -26v-16q0 -15 -11 -26t-26 -11zM231 1415h-18q-6 0 -11 -5.5t-5 -12.5v-1360q0 -7 5 -13t11 -6h694q7 0 13 6t6 13v16q0 7 -6 13t-13 6h-657v1325
q0 7 -5.5 12.5t-13.5 5.5zM459 -506h-15q-10 0 -13.5 8.5t-0.5 16.5l90 248q9 28 41 28h33q16 0 22.5 -11t-0.5 -28l-133 -248q-8 -14 -24 -14zM594 -221h-33q-16 0 -24 -19l-93 -247h15q9 0 12 6l131 245q3 6 0 10.5t-8 4.5z" />
    <glyph glyph-name="lcommaaccent" unicode="&#x13c;" horiz-adv-x="419" 
d="M219 0h-18q-13 0 -24 11t-11 24v1362q0 15 10.5 26t24.5 11h18q15 0 26 -11t11 -26v-1362q0 -14 -11 -24.5t-26 -10.5zM219 1415h-18q-6 0 -11.5 -5.5t-5.5 -12.5v-1362q0 -7 5.5 -13t11.5 -6h18q7 0 13 6t6 13v1362q0 7 -5.5 12.5t-13.5 5.5zM86 -506h-14q-10 0 -14 8.5
t-1 16.5l90 248q9 28 41 28h33q16 0 23 -11t0 -28l-133 -248q-8 -14 -25 -14zM221 -221h-33q-16 0 -24 -19l-92 -247h14q9 0 12 6l131 245q3 6 0 10.5t-8 4.5z" />
    <glyph glyph-name="Lcaron" unicode="&#x13d;" horiz-adv-x="1044" 
d="M907 0h-694q-14 0 -24.5 11t-10.5 26v1360q0 15 10.5 26t24.5 11h18q15 0 26 -11t11 -26v-1307h639q15 0 26 -11t11 -26v-16q0 -15 -11 -26t-26 -11zM231 1415h-18q-6 0 -11 -5.5t-5 -12.5v-1360q0 -7 5 -13t11 -6h694q7 0 13 6t6 13v16q0 7 -6 13t-13 6h-657v1325
q0 7 -5.5 12.5t-13.5 5.5zM481 1133h-14q-10 0 -13.5 8t-0.5 16l90 248q10 29 41 29h32q16 0 23 -11t0 -28l-133 -248q-8 -14 -25 -14zM616 1417h-32q-18 0 -25 -18l-92 -248h14q10 0 13 6l131 246q3 6 -0.5 10t-8.5 4z" />
    <glyph glyph-name="lcaron" unicode="&#x13e;" horiz-adv-x="454" 
d="M219 0h-18q-13 0 -24 11t-11 24v1362q0 15 10.5 26t24.5 11h18q15 0 26 -11t11 -26v-1362q0 -14 -11 -24.5t-26 -10.5zM219 1415h-18q-6 0 -11.5 -5.5t-5.5 -12.5v-1362q0 -7 5.5 -13t11.5 -6h18q7 0 13 6t6 13v1362q0 7 -5.5 12.5t-13.5 5.5zM469 1133h-14q-10 0 -14 8
t-1 16l90 248q10 29 41 29h33q16 0 23 -11t0 -28l-133 -248q-8 -14 -25 -14zM604 1417h-33q-17 0 -24 -18l-92 -248h14q9 0 12 6l131 246q3 6 0 10t-8 4z" />
    <glyph glyph-name="Ldot" unicode="&#x13f;" horiz-adv-x="1044" 
d="M643 567q-31 0 -53.5 22t-22.5 54q0 31 22.5 53.5t53.5 22.5q32 0 55 -22.5t23 -53.5q0 -32 -23 -54t-55 -22zM643 700q-24 0 -40.5 -16.5t-16.5 -40.5q0 -25 17 -42t40 -17q25 0 42 17t17 42t-17 41t-42 16zM907 0h-694q-14 0 -24.5 11t-10.5 26v1360q0 15 10.5 26
t24.5 11h18q15 0 26 -11t11 -26v-1307h639q15 0 26 -11t11 -26v-16q0 -15 -11 -26t-26 -11zM231 1415h-18q-6 0 -11 -5.5t-5 -12.5v-1360q0 -7 5 -13t11 -6h694q7 0 13 6t6 13v16q0 7 -6 13t-13 6h-657v1325q0 7 -5.5 12.5t-13.5 5.5z" />
    <glyph glyph-name="ldot" unicode="&#x140;" horiz-adv-x="698" 
d="M549 602q-32 0 -55 22.5t-23 53.5q0 32 23 55t55 23q31 0 53.5 -23t22.5 -55q0 -31 -22.5 -53.5t-53.5 -22.5zM549 737q-25 0 -42.5 -17t-17.5 -42q0 -23 17.5 -40t42.5 -17q23 0 40 17t17 40q0 25 -17 42t-40 17zM219 0h-18q-13 0 -24 11t-11 24v1362q0 15 10.5 26
t24.5 11h18q15 0 26 -11t11 -26v-1362q0 -14 -11 -24.5t-26 -10.5zM219 1415h-18q-6 0 -11.5 -5.5t-5.5 -12.5v-1362q0 -7 5.5 -13t11.5 -6h18q7 0 13 6t6 13v1362q0 7 -5.5 12.5t-13.5 5.5z" />
    <glyph glyph-name="Lslash" unicode="&#x141;" horiz-adv-x="1126" 
d="M991 0h-694q-15 0 -26 11t-11 26v477l-129 -74q-16 -8 -29 -2.5t-20 17.5l-8 14q-7 14 -3.5 28.5t15.5 20.5l174 98v783q0 14 11 24.5t26 10.5h18q13 0 24 -11t11 -24v-731l309 172q29 16 48 -13l10 -16q7 -12 3.5 -26.5t-15.5 -22.5l-355 -199v-473h641q14 0 24.5 -11
t10.5 -26v-16q0 -15 -10.5 -26t-24.5 -11zM123 457l156 88v-508q0 -8 5.5 -13.5t12.5 -5.5h694q7 0 13 6t6 13v16q0 7 -6 13t-13 6h-659v501l362 205q6 3 8.5 11t-0.5 14l-10 14q-9 15 -24 8l-336 -188v762q0 6 -5.5 11t-11.5 5h-18q-7 0 -12.5 -5t-5.5 -11v-793l-183 -102
q-15 -11 -8 -25l10 -16q9 -14 25 -6z" />
    <glyph glyph-name="lslash" unicode="&#x142;" horiz-adv-x="565" 
d="M291 0h-19q-14 0 -24 11t-10 26v600l-140 -84q-13 -6 -28 -3t-21 15l-10 17q-7 12 -3.5 26.5t15.5 22.5l187 112v656q0 14 10.5 24.5t23.5 10.5h19q15 0 26 -10.5t11 -24.5v-602l137 84q14 7 28.5 4t22.5 -15l8 -16q7 -12 3.5 -26.5t-15.5 -22.5l-184 -113v-655
q0 -15 -11 -26t-26 -11zM90 569l166 101v-633q0 -7 5 -13t11 -6h19q7 0 12.5 5.5t5.5 13.5v665l195 117q13 10 6 25l-10 16q-3 6 -11 7.5t-14 -1.5l-166 -100v633q0 6 -5.5 11t-12.5 5h-19q-6 0 -11 -5t-5 -11v-666l-195 -119q-16 -8 -6 -24l11 -15q8 -14 24 -6z" />
    <glyph glyph-name="Nacute" unicode="&#x143;" horiz-adv-x="1423" 
d="M1206 0h-26q-23 0 -37 18l-871 1252v-1233q0 -15 -10 -26t-24 -11h-19q-15 0 -26 11t-11 26v1360q0 15 11 26t26 11h27q22 0 37 -19l868 -1251v1233q0 15 11 26t26 11h18q14 0 24.5 -11t10.5 -26v-1360q0 -15 -10.5 -26t-24.5 -11zM256 37v1290l901 -1298q7 -11 23 -11
h26q6 0 11.5 6t5.5 13v1360q0 7 -5.5 12.5t-11.5 5.5h-18q-8 0 -13.5 -5.5t-5.5 -12.5v-1291l-901 1299q-10 10 -22 10h-27q-7 0 -12.5 -5.5t-5.5 -12.5v-1360q0 -8 5.5 -13.5t12.5 -5.5h19q7 0 12.5 5.5t5.5 13.5zM739 1614h-14q-11 0 -17.5 9t-0.5 22l104 227q10 24 41 24
h35q17 0 24 -14.5t-2 -26.5l-139 -225q-11 -16 -31 -16zM887 1878h-35q-18 0 -25 -14l-104 -224q-4 -8 2 -8h14q12 0 17 8l139 226q4 12 -8 12z" />
    <glyph glyph-name="nacute" unicode="&#x144;" horiz-adv-x="1181" 
d="M975 0h-19q-15 0 -25.5 10.5t-10.5 24.5v598q0 55 -17.5 112t-52 110.5t-98 87.5t-144.5 34q-103 0 -184.5 -55t-122.5 -137t-41 -171v-579q0 -14 -11 -24.5t-26 -10.5h-18q-13 0 -24 11t-11 24v971q0 15 10.5 25.5t24.5 10.5h18q15 0 26 -10.5t11 -25.5v-138
q57 95 147.5 147t200.5 52q94 0 172 -38t127 -100t76 -139t27 -157v-598q0 -13 -11 -24t-24 -11zM608 995q102 0 179 -54.5t114 -135.5t37 -172v-598q0 -8 5.5 -13.5t12.5 -5.5h19q16 0 16 19v598q0 77 -25.5 150t-72 133t-121 96.5t-164.5 36.5q-113 0 -204.5 -57.5
t-145.5 -162.5l-16 -32v209q0 7 -5.5 12.5t-13.5 5.5h-18q-6 0 -11.5 -5.5t-5.5 -12.5v-971q0 -7 5.5 -13t11.5 -6h18q7 0 13 6t6 13v579q0 93 43 179t129 144t194 58zM578 1204h-15q-11 0 -17.5 9t-0.5 22l104 227q11 25 41 25h35q17 0 24.5 -14.5t-1.5 -26.5l-140 -225
q-11 -17 -30 -17zM725 1468h-35q-17 0 -24 -14l-105 -223q-4 -8 2 -8h15q11 0 16 8l139 225q4 12 -8 12z" />
    <glyph glyph-name="Ncommaaccent" unicode="&#x145;" horiz-adv-x="1423" 
d="M1206 0h-26q-23 0 -37 18l-871 1252v-1233q0 -15 -10 -26t-24 -11h-19q-15 0 -26 11t-11 26v1360q0 15 11 26t26 11h27q22 0 37 -19l868 -1251v1233q0 15 11 26t26 11h18q14 0 24.5 -11t10.5 -26v-1360q0 -15 -10.5 -26t-24.5 -11zM256 37v1290l901 -1298q7 -11 23 -11
h26q6 0 11.5 6t5.5 13v1360q0 7 -5.5 12.5t-11.5 5.5h-18q-8 0 -13.5 -5.5t-5.5 -12.5v-1291l-901 1299q-10 10 -22 10h-27q-7 0 -12.5 -5.5t-5.5 -12.5v-1360q0 -8 5.5 -13.5t12.5 -5.5h19q7 0 12.5 5.5t5.5 13.5zM608 -506h-14q-10 0 -13.5 8.5t-0.5 16.5l90 248
q9 28 41 28h32q16 0 23 -11t0 -28l-133 -248q-8 -14 -25 -14zM743 -221h-32q-17 0 -25 -19l-92 -247h14q10 0 13 6l131 245q3 6 -0.5 10.5t-8.5 4.5z" />
    <glyph glyph-name="ncommaaccent" unicode="&#x146;" horiz-adv-x="1181" 
d="M975 0h-19q-15 0 -25.5 10.5t-10.5 24.5v598q0 55 -17.5 112t-52 110.5t-98 87.5t-144.5 34q-103 0 -184.5 -55t-122.5 -137t-41 -171v-579q0 -14 -11 -24.5t-26 -10.5h-18q-13 0 -24 11t-11 24v971q0 15 10.5 25.5t24.5 10.5h18q15 0 26 -10.5t11 -25.5v-138
q57 95 147.5 147t200.5 52q94 0 172 -38t127 -100t76 -139t27 -157v-598q0 -13 -11 -24t-24 -11zM608 995q102 0 179 -54.5t114 -135.5t37 -172v-598q0 -8 5.5 -13.5t12.5 -5.5h19q16 0 16 19v598q0 77 -25.5 150t-72 133t-121 96.5t-164.5 36.5q-113 0 -204.5 -57.5
t-145.5 -162.5l-16 -32v209q0 7 -5.5 12.5t-13.5 5.5h-18q-6 0 -11.5 -5.5t-5.5 -12.5v-971q0 -7 5.5 -13t11.5 -6h18q7 0 13 6t6 13v579q0 93 43 179t129 144t194 58zM487 -506h-14q-10 0 -13.5 8.5t-0.5 16.5l90 248q9 28 41 28h33q16 0 22.5 -11t-0.5 -28l-133 -248
q-8 -14 -25 -14zM623 -221h-33q-17 0 -25 -19l-92 -247h14q10 0 13 6l131 245q3 6 0 10.5t-8 4.5z" />
    <glyph glyph-name="Ncaron" unicode="&#x147;" horiz-adv-x="1423" 
d="M1206 0h-26q-23 0 -37 18l-871 1252v-1233q0 -15 -10 -26t-24 -11h-19q-15 0 -26 11t-11 26v1360q0 15 11 26t26 11h27q22 0 37 -19l868 -1251v1233q0 15 11 26t26 11h18q14 0 24.5 -11t10.5 -26v-1360q0 -15 -10.5 -26t-24.5 -11zM256 37v1290l901 -1298q7 -11 23 -11
h26q6 0 11.5 6t5.5 13v1360q0 7 -5.5 12.5t-11.5 5.5h-18q-8 0 -13.5 -5.5t-5.5 -12.5v-1291l-901 1299q-10 10 -22 10h-27q-7 0 -12.5 -5.5t-5.5 -12.5v-1360q0 -8 5.5 -13.5t12.5 -5.5h19q7 0 12.5 5.5t5.5 13.5zM911 1896h25q14 0 19.5 -11t-3.5 -23l-184 -230
q-15 -18 -43 -18h-31q-26 0 -41 18l-186 230q-10 12 -4.5 23t20.5 11h27q27 0 41 -20l160 -195l157 195q14 20 43 20zM711 1653l-174 213q-9 12 -27 12h-27q-8 0 -2 -6l187 -227q10 -13 26 -13h31q19 0 29 13l186 227q3 6 -4 6h-25q-16 0 -28 -12z" />
    <glyph glyph-name="ncaron" unicode="&#x148;" horiz-adv-x="1181" 
d="M975 0h-19q-15 0 -25.5 10.5t-10.5 24.5v598q0 55 -17.5 112t-52 110.5t-98 87.5t-144.5 34q-103 0 -184.5 -55t-122.5 -137t-41 -171v-579q0 -14 -11 -24.5t-26 -10.5h-18q-13 0 -24 11t-11 24v971q0 15 10.5 25.5t24.5 10.5h18q15 0 26 -10.5t11 -25.5v-138
q57 95 147.5 147t200.5 52q94 0 172 -38t127 -100t76 -139t27 -157v-598q0 -13 -11 -24t-24 -11zM608 995q102 0 179 -54.5t114 -135.5t37 -172v-598q0 -8 5.5 -13.5t12.5 -5.5h19q16 0 16 19v598q0 77 -25.5 150t-72 133t-121 96.5t-164.5 36.5q-113 0 -204.5 -57.5
t-145.5 -162.5l-16 -32v209q0 7 -5.5 12.5t-13.5 5.5h-18q-6 0 -11.5 -5.5t-5.5 -12.5v-971q0 -7 5.5 -13t11.5 -6h18q7 0 13 6t6 13v579q0 93 43 179t129 144t194 58zM791 1487h24q14 0 19.5 -11.5t-3.5 -23.5l-184 -229q-16 -19 -43 -19h-31q-25 0 -41 19l-186 229
q-10 12 -4.5 23.5t20.5 11.5h27q26 0 41 -21l160 -194l158 194q15 21 43 21zM590 1243l-174 213q-9 12 -27 12h-27q-8 0 -2 -6l187 -227q9 -12 26 -12h31q20 0 29 12l186 227q3 6 -4 6h-24q-17 0 -29 -12z" />
    <glyph glyph-name="napostrophe" unicode="&#x149;" horiz-adv-x="1202" 
d="M993 0h-18q-15 0 -25 11t-10 26v596q0 56 -17.5 113.5t-52.5 111t-98.5 87.5t-144.5 34q-103 0 -184.5 -55t-122.5 -137.5t-41 -172.5v-577q0 -15 -11 -26t-26 -11h-17q-15 0 -26 11t-11 26v971q0 14 11 24t26 10h17q15 0 26 -10t11 -24v-140q59 96 149.5 148.5
t198.5 52.5q76 0 142 -25t112.5 -67.5t80.5 -98.5t50 -118.5t16 -126.5v-596q0 -15 -10 -26t-25 -11zM627 995q63 0 117 -20.5t92 -56t65.5 -82t41 -98.5t13.5 -105v-596q0 -7 6 -13t13 -6h18q7 0 13 6t6 13v596q0 77 -25.5 151t-72.5 134t-122 96.5t-165 36.5
q-112 0 -203 -57.5t-145 -162.5l-19 -34v211q0 8 -5 13t-13 5h-17q-7 0 -12.5 -5t-5.5 -13v-971q0 -8 5.5 -13.5t12.5 -5.5h17q7 0 12.5 5.5t5.5 13.5v577q0 69 26 137t72.5 122.5t117 88t151.5 33.5zM74 1133h-15q-10 0 -15.5 8t-2.5 16l92 248q15 29 43 29h31
q19 0 25 -13.5t-1 -25.5l-135 -248q-8 -14 -22 -14zM207 1415h-31q-18 0 -24 -16l-93 -248h15q6 0 10 8l131 244q6 12 -8 12z" />
    <glyph glyph-name="Eng" unicode="&#x14a;" horiz-adv-x="1423" 
d="M922 -383h-8.5h-10t-9.5 0.5t-10.5 1t-9.5 2t-9 3.5l-7.5 5t-6.5 6.5t-3.5 9t-1.5 11.5v18q0 16 10.5 26t28.5 9q125 -9 188 45q78 69 78 244v8l-877 1264v-1233q0 -15 -10.5 -26t-25.5 -11h-19q-14 0 -24.5 11t-10.5 26v1362q0 13 11 24t24 11h27q24 0 37 -19l868 -1251
v1235q0 14 11 24.5t26 10.5h18q14 0 24.5 -11t10.5 -24v-1401q0 -218 -111 -313q-77 -68 -208 -68zM864 -326v-18q0 -5 2.5 -9t7 -6t9 -3.5t11 -2t10.5 -0.5h10.5h7.5q122 0 198 64q105 91 105 299v1401q0 6 -6 11t-13 5h-18q-7 0 -13 -5t-6 -11v-1293l-901 1299
q-10 10 -22 10h-27q-7 0 -12.5 -5t-5.5 -11v-1362q0 -8 5.5 -13.5t12.5 -5.5h19q7 0 12.5 5.5t5.5 13.5v1290l913 -1315v-14q0 -184 -86 -258q-67 -58 -200 -49q-19 0 -19 -17z" />
    </font>
</defs>
</svg>
