<?xml version="1.0" standalone="no"?>
<!DOCTYPE svg PUBLIC "-//W3C//DTD SVG 1.1//EN" "http://www.w3.org/Graphics/SVG/1.1/DTD/svg11.dtd" >
<svg xmlns="http://www.w3.org/2000/svg" xmlns:xlink="http://www.w3.org/1999/xlink" version="1.1">
<metadata>
Created by FontForge 20170731 at Mon May 29 11:59:17 2023
 By Aleksey,,,
Copyright (c) 2020 by MadeType. All rights reserved.
</metadata>
<defs>
<font id="MADETommySoft" horiz-adv-x="1171" >
  <font-face 
    font-family="MADE Tommy Soft"
    font-weight="400"
    font-stretch="normal"
    units-per-em="2048"
    panose-1="2 0 5 3 0 0 0 2 0 4"
    ascent="1638"
    descent="-410"
    x-height="1038"
    cap-height="1434"
    bbox="-109 -514 2527 1978"
    underline-thickness="102"
    underline-position="-307"
    unicode-range="U+0020-F6C3"
  />
<missing-glyph horiz-adv-x="552" 
 />
    <glyph glyph-name=".notdef" horiz-adv-x="552" 
 />
    <glyph glyph-name=".null" horiz-adv-x="0" 
 />
    <glyph glyph-name="nonmarkingreturn" horiz-adv-x="682" 
 />
    <glyph glyph-name="space" unicode=" " horiz-adv-x="552" 
 />
    <glyph glyph-name="exclam" unicode="!" horiz-adv-x="542" 
d="M270 229q54 0 91.5 -36.5t37.5 -90.5q0 -53 -37.5 -90t-91.5 -37q-52 0 -89.5 37.5t-37.5 89.5q0 54 37 90.5t90 36.5zM346 479q-2 -22 -17.5 -37.5t-37.5 -15.5h-39q-23 0 -39 15.5t-16 37.5l-27 899q0 23 16 39.5t39 16.5h90q23 0 39.5 -16.5t16.5 -39.5z" />
    <glyph glyph-name="quotedbl" unicode="&#x22;" horiz-adv-x="825" 
d="M199 958q-23 0 -39.5 16.5t-16.5 39.5v364q0 23 16.5 39.5t39.5 16.5h71q23 0 39.5 -16.5t16.5 -39.5v-364q0 -23 -16.5 -39.5t-39.5 -16.5h-71zM500 1378q0 23 16 39.5t39 16.5h72q23 0 39 -16.5t16 -39.5v-364q0 -23 -16 -39.5t-39 -16.5h-72q-23 0 -39 16.5t-16 39.5
v364z" />
    <glyph glyph-name="numbersign" unicode="#" horiz-adv-x="1341" 
d="M1223 881q-7 -31 -37 -31h-197l-43 -262h189q17 0 27 -13t7 -30l-10 -72q-7 -31 -37 -31h-198l-52 -305q-3 -20 -18 -32.5t-35 -12.5h-61q-17 0 -27.5 12t-7.5 29l49 309h-293l-51 -305q-3 -20 -18 -32.5t-35 -12.5h-62q-17 0 -27 12t-7 29l49 309h-185q-16 0 -26.5 12
t-7.5 29l10 74q3 13 13.5 22t23.5 9h196l43 262h-188q-17 0 -27.5 12t-7.5 29l10 74q3 12 13.5 21t23.5 9h201l49 301q3 20 18 33.5t35 13.5h62q17 0 28 -13t9 -30l-52 -305h295l49 301q3 20 18.5 33.5t35.5 13.5h61q17 0 27.5 -13t7.5 -30l-49 -305h182q17 0 28.5 -13
t8.5 -30zM797 588l43 262h-295l-43 -262h295z" />
    <glyph glyph-name="dollar" unicode="$" horiz-adv-x="1142" 
d="M1083 399q0 -72 -23 -138.5t-69.5 -126t-128.5 -100.5t-190 -54v-160q0 -19 -13.5 -32t-33.5 -13h-72q-20 0 -33.5 13t-13.5 32v157q-139 14 -252.5 81t-169.5 184q-11 22 -0.5 44t35.5 29l96 31q19 6 38 -1.5t28 -25.5q32 -65 109.5 -108t191.5 -43q125 0 208.5 55
t83.5 160q0 36 -9 65t-21 49.5t-38 38.5t-46.5 28.5t-60.5 22.5t-66.5 18t-78 17.5t-81.5 18.5q-105 25 -176.5 66t-109.5 95.5t-53 113t-15 133.5q0 159 108.5 269.5t278.5 135.5v160q0 20 13.5 32.5t33.5 12.5h72q20 0 33.5 -12.5t13.5 -32.5v-160q113 -18 200 -80.5
t132 -163.5q10 -23 -1 -46t-36 -29l-97 -23q-19 -4 -35.5 4t-25.5 25q-76 145 -281 127q-85 -9 -144 -71t-60 -148q0 -50 19 -88.5t46 -61.5t75 -42.5t87 -29.5t101 -24q7 -1 10 -2t8.5 -2t9.5 -2q215 -51 309 -140t94 -258z" />
    <glyph glyph-name="percent" unicode="%" horiz-adv-x="1789" 
d="M1264 1401q23 33 61 33h74q17 0 24 -15t-2 -28l-897 -1358q-20 -33 -59 -33h-74q-17 0 -24 15t2 28zM774 1081q0 -138 -99 -237t-237 -99q-139 0 -237.5 99t-98.5 237t98.5 237t237.5 99q138 0 237 -99t99 -237zM248 1081q0 -78 56 -134t134 -56t133.5 56t55.5 134
t-55.5 134.5t-133.5 56.5t-134 -56.5t-56 -134.5zM1352 688q140 0 238 -98t98 -238q0 -138 -98.5 -237t-237.5 -99q-138 0 -237 99t-99 237q0 139 99 237.5t237 98.5zM1352 162q78 0 134 56t56 134t-56 134.5t-134 56.5t-134.5 -56.5t-56.5 -134.5t56.5 -134t134.5 -56z" />
    <glyph glyph-name="ampersand" unicode="&#x26;" horiz-adv-x="1509" 
d="M1145 317q147 -132 270 -237q23 -20 12 -50t-43 -30h-114q-38 0 -72 27q-141 124 -164 145q-85 -96 -195.5 -146.5t-269.5 -50.5q-138 0 -251.5 51.5t-180.5 147t-67 215.5q0 66 21.5 126t54 103t77.5 80.5t84.5 60.5t81.5 42q-106 166 -106 307q0 102 53 184t138 125
t183 43q163 0 264 -97t101 -233q0 -62 -22 -114.5t-52.5 -87.5t-84 -68.5t-94 -52.5t-105.5 -45q15 -14 53 -51.5t53 -51.5l27 -26q178 -164 207 -191q38 75 55 158q4 22 21.5 34t39.5 9l72 -10q25 -3 38.5 -22t8.5 -42q-28 -138 -94 -252zM657 1294q-49 0 -90.5 -17
t-71.5 -60.5t-30 -108.5q0 -113 96 -240q142 53 210.5 114.5t68.5 147.5q0 65 -49.5 114.5t-133.5 49.5zM565 139q222 0 332 154q-75 67 -225 209l-27 24q-61 59 -158 160q-235 -81 -235 -297q0 -109 90.5 -179.5t222.5 -70.5z" />
    <glyph glyph-name="quotesingle" unicode="'" horiz-adv-x="468" 
d="M143 1378q0 23 16.5 39.5t39.5 16.5h73q22 0 38 -16.5t16 -39.5v-364q0 -23 -16 -39.5t-38 -16.5h-73q-23 0 -39.5 16.5t-16.5 39.5v364z" />
    <glyph glyph-name="parenleft" unicode="(" horiz-adv-x="673" 
d="M510 1530q17 -12 21 -33t-5 -39q-200 -339 -200 -741q0 -403 200 -742q9 -17 5 -37.5t-21 -33.5l-39 -29q-20 -14 -43.5 -10t-36.5 24q-50 79 -88.5 155.5t-77.5 181t-60.5 230t-21.5 261.5t21.5 261.5t60.5 229.5t77.5 180.5t88.5 155.5q14 21 37 25.5t43 -10.5z" />
    <glyph glyph-name="parenright" unicode=")" horiz-adv-x="673" 
d="M164 1530l41 29q19 15 42.5 10t35.5 -25q50 -79 88.5 -155.5t77 -180.5t60 -229.5t21.5 -261.5t-21.5 -261.5t-60 -230t-77 -181t-88.5 -155.5q-12 -20 -35.5 -24t-42.5 10l-41 29q-17 13 -21 33.5t7 37.5q198 343 198 742q0 398 -198 741q-11 19 -7 39.5t21 32.5z" />
    <glyph glyph-name="asterisk" unicode="*" horiz-adv-x="931" 
d="M827 1143q5 -15 -3 -29.5t-23 -17.5l-250 -56l170 -192q10 -12 8 -28t-14 -25l-66 -47q-14 -10 -29.5 -7t-23.5 17l-129 219l-131 -219q-8 -14 -23.5 -17t-29.5 7l-66 47q-12 9 -13.5 25t7.5 28l170 192l-250 56q-15 3 -23.5 17.5t-3.5 29.5l25 76q6 15 20.5 21.5
t28.5 0.5l236 -102l-25 256q-2 15 9 27t28 12h80q17 0 28 -12t9 -27l-25 -256l236 102q14 6 29.5 -0.5t19.5 -21.5z" />
    <glyph glyph-name="plus" unicode="+" horiz-adv-x="1089" 
d="M891 700q23 0 39 -15t16 -38v-74q0 -23 -16 -39t-39 -16h-256v-254q0 -23 -15.5 -39t-37.5 -16h-74q-23 0 -39 16t-16 39v254h-254q-23 0 -39.5 16t-16.5 39v74q0 23 16 38t40 15h254v256q0 23 16 39.5t39 16.5h74q22 0 37.5 -16.5t15.5 -39.5v-256h256z" />
    <glyph glyph-name="comma" unicode="," horiz-adv-x="499" 
d="M201 178q11 22 33 29.5t42 -4.5l72 -41q20 -12 25.5 -35t-6.5 -43l-174 -268q-12 -18 -33.5 -23t-40.5 6l-33 19q-20 10 -26 30.5t3 40.5z" />
    <glyph glyph-name="hyphen" unicode="-" horiz-adv-x="944" 
d="M143 647q0 23 16 38t38 15h548q22 0 38 -15t16 -38v-74q0 -23 -16 -39t-38 -16h-548q-22 0 -38 16t-16 39v74z" />
    <glyph glyph-name="period" unicode="." horiz-adv-x="460" 
d="M229 229q54 0 91.5 -37t37.5 -90q0 -54 -37.5 -91.5t-91.5 -37.5q-53 0 -90 37.5t-37 91.5q0 52 37 89.5t90 37.5z" />
    <glyph glyph-name="slash" unicode="/" horiz-adv-x="978" 
d="M678 1581q16 49 70 49h79q19 0 29.5 -14t5.5 -33l-561 -1730q-8 -22 -27 -36t-43 -14h-79q-19 0 -29.5 14t-5.5 33z" />
    <glyph glyph-name="zero" unicode="0" horiz-adv-x="1302" 
d="M651 1458q119 0 215.5 -43t159.5 -114t105.5 -168t60.5 -200.5t18 -215.5t-18 -216t-60.5 -201.5t-105.5 -169t-159.5 -114.5t-215.5 -43t-215.5 43t-159.5 114.5t-105.5 169t-60.5 201.5t-18 216t18 215.5t60.5 200.5t105.5 168t159.5 114t215.5 43zM651 166
q66 0 121 23.5t93 65t66 94.5t44 116t23.5 125t7.5 127t-7.5 127t-23.5 125t-44 116t-66 94.5t-93 65t-121 23.5q-79 0 -141.5 -34t-101.5 -88.5t-65 -128.5t-36 -148t-10 -152t10 -152t36 -148t65 -128.5t101.5 -88.5t141.5 -34z" />
    <glyph glyph-name="one" unicode="1" horiz-adv-x="897" 
d="M475 1419q30 15 51 15h49q23 0 39.5 -16.5t16.5 -39.5v-1323q0 -23 -16.5 -39t-39.5 -16h-94q-23 0 -39 16t-16 39v1116l-225 -151q-19 -12 -41.5 -7t-34.5 25l-37 58q-11 18 -6.5 39.5t22.5 33.5z" />
    <glyph glyph-name="two" unicode="2" horiz-adv-x="1110" 
d="M397 184h537q22 0 37.5 -15.5t15.5 -37.5v-76q0 -23 -15.5 -39t-37.5 -16h-774q-23 0 -39.5 16t-16.5 39v51q0 33 25 62q150 166 291 332q15 18 52.5 61.5t55.5 65t51.5 62t50.5 64.5t43 59.5t39.5 61.5t27.5 56t20 56t6 50q0 108 -59 175t-166 67q-92 0 -149.5 -49.5
t-84.5 -122.5q-6 -20 -24 -30t-37 -5l-86 21q-23 4 -35 26t-4 45q52 143 169 220t273 77q174 0 290 -122.5t116 -301.5q0 -48 -11.5 -95t-40.5 -100t-59.5 -99t-87 -115.5t-103 -124.5t-128 -149.5t-142.5 -168.5z" />
    <glyph glyph-name="three" unicode="3" horiz-adv-x="1163" 
d="M813 758q125 -41 191.5 -127t66.5 -207q0 -199 -134 -324t-364 -125q-158 0 -285.5 69.5t-176.5 184.5q-11 23 0 45.5t36 28.5l89 21q43 7 59 -29q30 -58 99.5 -97.5t178.5 -39.5q136 0 215.5 68t79.5 198q0 54 -20.5 95.5t-51.5 65.5t-74 39t-81.5 20t-79.5 5h-76
q-19 0 -32 13t-13 32v82q0 19 13 32t32 13h76q48 0 90.5 11.5t80 36.5t59.5 71.5t22 108.5q0 97 -61 163t-179 66q-166 0 -233 -131q-7 -17 -24.5 -25.5t-36.5 -3.5l-82 19q-25 6 -36 29t-1 48q55 113 167.5 179.5t245.5 66.5q197 0 315 -111.5t118 -281.5
q0 -103 -50.5 -183t-142.5 -126z" />
    <glyph glyph-name="four" unicode="4" horiz-adv-x="1284" 
d="M1126 504q23 0 39.5 -16t16.5 -39v-72q0 -23 -16.5 -39t-39.5 -16h-131v-267q0 -23 -16 -39t-39 -16h-96q-23 0 -39.5 16t-16.5 39v267h-632q-23 0 -39.5 16t-16.5 39v72q0 32 21 67l549 866q28 52 92 52h178q23 0 39 -16.5t16 -39.5v-874h131zM328 504h460v729z" />
    <glyph glyph-name="five" unicode="5" horiz-adv-x="1165" 
d="M602 926q208 0 338.5 -132t130.5 -333q0 -98 -35 -186t-98 -154.5t-159 -106t-210 -39.5q-156 0 -282.5 69t-175.5 183q-11 25 0 48.5t36 27.5l89 21q19 4 35 -4t24 -25q31 -58 99 -97.5t175 -39.5q132 0 217.5 85t85.5 218q0 135 -80 209.5t-210 74.5q-139 0 -246 -90
q-35 -27 -80 -18l-68 16q-20 6 -32 23t-9 37l78 671q1 21 17 35.5t37 14.5h653q23 0 39 -16.5t16 -39.5v-75q0 -22 -16 -38t-39 -16h-543l-47 -409q119 86 260 86z" />
    <glyph glyph-name="six" unicode="6" horiz-adv-x="1191" 
d="M596 946q213 0 358.5 -135.5t145.5 -349.5q0 -98 -35.5 -186t-99.5 -154.5t-159.5 -106t-209.5 -39.5t-209.5 39.5t-159.5 106t-99.5 154.5t-35.5 186q0 66 14.5 129t42 118.5t46.5 87.5t48 74q6 9 9 13l348 503q33 48 90 48h103q22 0 31.5 -19.5t-3.5 -38.5l-313 -440
q45 10 88 10zM596 158q129 0 216 85.5t87 217.5q0 135 -89 219t-214 84q-130 0 -216.5 -84.5t-86.5 -218.5q0 -132 87 -217.5t216 -85.5z" />
    <glyph glyph-name="seven" unicode="7" horiz-adv-x="1081" 
d="M102 1378q0 23 16 39.5t38 16.5h768q23 0 39 -16.5t16 -39.5v-75q0 -25 -10 -48l-484 -1220q-14 -35 -51 -35h-115q-20 0 -31 16t-3 33l477 1200h-606q-22 0 -38 16t-16 38v75z" />
    <glyph glyph-name="eight" unicode="8" horiz-adv-x="1220" 
d="M889 774q112 -55 175.5 -150t63.5 -216q0 -193 -143.5 -314t-374.5 -121t-374.5 121t-143.5 314q0 120 64.5 215.5t175.5 150.5q-83 51 -124.5 129t-41.5 170q0 167 117.5 276t326.5 109q210 0 328.5 -109.5t118.5 -275.5q0 -92 -41.5 -170t-126.5 -129zM610 1276
q-114 0 -181 -58t-67 -155q0 -98 71.5 -156.5t176.5 -58.5t177.5 58.5t72.5 156.5q0 97 -67.5 155t-182.5 58zM610 156q133 0 218 69.5t85 188.5q0 126 -86 191t-217 65q-130 0 -216.5 -65.5t-86.5 -190.5q0 -119 85.5 -188.5t217.5 -69.5z" />
    <glyph glyph-name="nine" unicode="9" horiz-adv-x="1193" 
d="M596 487q-213 0 -358.5 136t-145.5 350q0 131 60 241t176.5 178t267.5 68t267.5 -68t176.5 -178t60 -241q0 -53 -11.5 -107.5t-24 -91t-39 -84.5t-37.5 -65t-38 -57q-7 -10 -10 -15l-348 -506q-32 -47 -90 -47h-103q-23 0 -32.5 19t2.5 38l315 441q-50 -11 -88 -11z
M596 1278q-129 0 -216 -86.5t-87 -218.5q0 -135 89 -219t214 -84q130 0 216.5 84.5t86.5 218.5q0 132 -87 218.5t-216 86.5z" />
    <glyph glyph-name="colon" unicode=":" horiz-adv-x="501" 
d="M250 229q54 0 91.5 -37t37.5 -90q0 -54 -37.5 -91.5t-91.5 -37.5q-53 0 -90 37.5t-37 91.5q0 52 37.5 89.5t89.5 37.5zM250 807q-53 0 -90 37.5t-37 91.5q0 52 37.5 89.5t89.5 37.5q54 0 91.5 -37t37.5 -90q0 -54 -37.5 -91.5t-91.5 -37.5z" />
    <glyph glyph-name="semicolon" unicode=";" horiz-adv-x="569" 
d="M319 807q-54 0 -91.5 37.5t-37.5 91.5q0 53 37.5 90t91.5 37q53 0 90 -37.5t37 -89.5q0 -54 -37 -91.5t-90 -37.5zM104 -182q-19 10 -25 30.5t3 40.5l139 289q9 22 31.5 29.5t44.5 -4.5l72 -41q20 -12 25 -35t-7 -43l-176 -268q-10 -18 -31.5 -23t-40.5 6z" />
    <glyph glyph-name="less" unicode="&#x3c;" horiz-adv-x="1052" 
d="M858 977q19 7 35 -3.5t16 -29.5v-80q0 -47 -45 -67l-561 -234l561 -233q20 -8 32.5 -26.5t12.5 -41.5v-78q0 -20 -16 -30t-35 -2l-672 290q-43 19 -43 68v108q0 22 11.5 40.5t31.5 25.5z" />
    <glyph glyph-name="equal" unicode="=" horiz-adv-x="1052" 
d="M143 829q0 23 16.5 38.5t39.5 15.5h657q22 0 37.5 -15.5t15.5 -38.5v-73q0 -23 -15.5 -39.5t-37.5 -16.5h-657q-23 0 -39.5 16.5t-16.5 39.5v73zM199 336q-23 0 -39.5 16t-16.5 39v74q0 22 16.5 37.5t39.5 15.5h657q22 0 37.5 -15.5t15.5 -37.5v-74q0 -23 -15.5 -39
t-37.5 -16h-657z" />
    <glyph glyph-name="greater" unicode="&#x3e;" horiz-adv-x="1052" 
d="M195 152q-19 -8 -35.5 2t-16.5 30v78q0 23 12.5 41.5t32.5 26.5l562 233l-562 234q-45 20 -45 67v80q0 19 16.5 29.5t35.5 3.5l671 -293q20 -7 31.5 -25.5t11.5 -40.5v-108q0 -49 -43 -68z" />
    <glyph glyph-name="question" unicode="?" horiz-adv-x="946" 
d="M479 229q53 0 90 -36.5t37 -90.5q0 -52 -37 -89.5t-90 -37.5q-54 0 -91.5 37t-37.5 90q0 54 37.5 90.5t91.5 36.5zM688 1061q0 88 -58.5 152.5t-158.5 64.5q-76 0 -129 -37.5t-80 -95.5q-9 -21 -29.5 -31.5t-44.5 -5.5l-67 18q-24 6 -35 28t-2 46q53 127 163 193.5
t242 66.5q164 0 281 -112.5t117 -268.5q0 -71 -20.5 -132t-52 -102.5t-69.5 -86t-71.5 -82t-60 -90.5t-33.5 -111q-3 -21 -19 -35t-37 -14h-84q-25 0 -41 18t-14 43q8 69 34 130.5t59.5 102.5t70.5 84t68 78t51 81.5t20 97.5z" />
    <glyph glyph-name="at" unicode="@" horiz-adv-x="1916" 
d="M971 1493q153 0 286.5 -40t231 -109.5t167.5 -162.5t105 -200.5t35 -220.5q0 -219 -104.5 -351.5t-245.5 -132.5q-164 0 -219 170q-49 -74 -129 -116.5t-185 -42.5q-169 0 -275 117.5t-106 283.5q0 163 111.5 282.5t278.5 119.5q183 0 290 -148v82q0 20 12.5 33.5
t32.5 13.5h43q19 0 32.5 -13.5t13.5 -33.5v-397q0 -52 3 -86t13.5 -69.5t34.5 -53t61 -17.5q93 0 151 102t58 257q0 129 -50 243t-139.5 198t-220.5 133t-284 50q-195 1 -360.5 -91.5t-263 -254.5t-97.5 -356q1 -155 58 -286t152 -218.5t219.5 -136.5t260.5 -49
q215 0 373 108q13 11 31 9t30 -15l21 -24q12 -15 9 -35.5t-20 -32.5q-177 -119 -444 -119q-177 0 -329.5 61.5t-259 168t-167.5 254.5t-61 317q0 170 61 319t170 257t268 170.5t347 62.5zM952 436q117 0 184.5 78t67.5 174q0 105 -73.5 177.5t-178.5 72.5
q-103 0 -177.5 -70.5t-74.5 -179.5q0 -111 72 -181.5t180 -70.5z" />
    <glyph glyph-name="A" unicode="A" horiz-adv-x="1380" 
d="M1169 0q-24 0 -42.5 13.5t-26.5 35.5l-105 297h-614l-105 -297q-8 -22 -26 -35.5t-41 -13.5h-119q-19 0 -29.5 15.5t-3.5 33.5l498 1337q7 22 26 35t42 13h131q50 0 67 -48l500 -1337q6 -19 -5 -34t-30 -15h-117zM449 532h481l-242 682z" />
    <glyph glyph-name="B" unicode="B" horiz-adv-x="1236" 
d="M924 748q231 -86 231 -332q0 -188 -125.5 -302t-365.5 -114h-465q-23 0 -39.5 16t-16.5 39v1323q0 23 16.5 39.5t39.5 16.5h411q234 0 360 -102.5t126 -278.5q0 -203 -172 -301v-4zM610 1247h-262v-432h244q299 0 299 221q0 211 -281 211zM664 186q131 0 205.5 59
t74.5 171q0 63 -24.5 109.5t-68 71.5t-94.5 36.5t-112 11.5h-297v-459h316z" />
    <glyph glyph-name="C" unicode="C" horiz-adv-x="1441" 
d="M821 166q225 0 369 151q14 15 33.5 18t36.5 -9l77 -52q22 -14 25.5 -39.5t-14.5 -44.5q-99 -102 -234.5 -158.5t-292.5 -56.5q-208 0 -375.5 97.5t-260.5 267t-93 377.5q0 156 54.5 293t150.5 236t232 156.5t292 57.5q157 0 293 -57t234 -160q18 -19 14.5 -44.5
t-25.5 -39.5l-77 -51q-17 -10 -36.5 -8t-33.5 16q-145 152 -369 152q-121 0 -221.5 -46.5t-164.5 -124.5t-99 -176t-35 -204t35 -204t99 -176t164.5 -124.5t221.5 -46.5z" />
    <glyph glyph-name="D" unicode="D" horiz-adv-x="1388" 
d="M549 1434q178 0 321 -55t235.5 -151.5t141.5 -227t49 -283.5t-49 -283.5t-141.5 -227t-235.5 -151.5t-321 -55h-350q-23 0 -39.5 16t-16.5 39v1323q0 23 16.5 39.5t39.5 16.5h350zM549 186q253 0 397 143.5t144 387.5t-144 387t-397 143h-201v-1061h201z" />
    <glyph glyph-name="E" unicode="E" horiz-adv-x="1056" 
d="M348 186h549q23 0 39 -15.5t16 -37.5v-78q0 -23 -16 -39t-39 -16h-700q-22 0 -38 16t-16 39v1323q0 23 16 39.5t38 16.5h682q23 0 39 -16.5t16 -39.5v-75q0 -23 -16 -39.5t-39 -16.5h-531v-411h483q23 0 39.5 -16.5t16.5 -39.5v-75q0 -23 -16.5 -39.5t-39.5 -16.5h-483
v-463z" />
    <glyph glyph-name="F" unicode="F" horiz-adv-x="1067" 
d="M965 1303q0 -23 -16.5 -39.5t-39.5 -16.5h-561v-426h483q23 0 39.5 -15.5t16.5 -37.5v-78q0 -23 -16.5 -39t-39.5 -16h-483v-580q0 -23 -15.5 -39t-37.5 -16h-96q-23 0 -39.5 16t-16.5 39v1323q0 23 16.5 39.5t39.5 16.5h710q23 0 39.5 -16.5t16.5 -39.5v-75z" />
    <glyph glyph-name="G" unicode="G" horiz-adv-x="1601" 
d="M840 721q0 22 16 37.5t39 15.5h530q23 0 39.5 -15.5t16.5 -37.5v-676q0 -19 -13.5 -32t-33.5 -13h-43q-19 0 -31 12t-14 31l-15 193q-158 -261 -510 -261q-208 0 -375.5 97.5t-260.5 267t-93 377.5q0 156 54.5 293t150.5 236t232 156.5t292 57.5q157 0 293 -57t234 -160
q18 -19 14.5 -44.5t-25.5 -39.5l-77 -51q-17 -10 -36.5 -8t-33.5 16q-145 152 -369 152q-121 0 -221.5 -46.5t-164.5 -124.5t-99 -176t-35 -204t35 -204t99 -176t164.5 -124.5t221.5 -46.5q215 0 342.5 118t153.5 304h-422q-23 0 -39 16t-16 39v78z" />
    <glyph glyph-name="H" unicode="H" horiz-adv-x="1376" 
d="M1028 1378q0 23 16 39.5t39 16.5h95q23 0 39 -16.5t16 -39.5v-1323q0 -23 -16 -39t-39 -16h-95q-23 0 -39 16t-16 39v576h-680v-576q0 -23 -16 -39t-39 -16h-94q-23 0 -39.5 16t-16.5 39v1323q0 23 16.5 39.5t39.5 16.5h94q23 0 39 -16.5t16 -39.5v-561h680v561z" />
    <glyph glyph-name="I" unicode="I" horiz-adv-x="491" 
d="M143 1378q0 23 16.5 39.5t39.5 16.5h96q23 0 39 -16.5t16 -39.5v-1323q0 -23 -16 -39t-39 -16h-96q-23 0 -39.5 16t-16.5 39v1323z" />
    <glyph glyph-name="J" unicode="J" horiz-adv-x="1163" 
d="M870 1434h95q23 0 39 -16.5t16 -39.5v-915q0 -109 -26 -195.5t-80 -153.5t-146.5 -103t-218.5 -36q-195 0 -319.5 91.5t-157.5 244.5q-6 27 9 49.5t42 26.5l90 16q21 4 39 -6.5t24 -31.5q22 -84 88.5 -141.5t184.5 -57.5q78 0 133 26t82.5 71.5t39 93.5t11.5 106v915
q0 23 16 39.5t39 16.5z" />
    <glyph glyph-name="K" unicode="K" horiz-adv-x="1234" 
d="M1128 76q20 -23 8 -49.5t-42 -26.5h-121q-39 0 -70 31l-555 639v-615q0 -23 -15.5 -39t-37.5 -16h-96q-23 0 -39.5 16t-16.5 39v1323q0 23 16.5 39.5t39.5 16.5h96q22 0 37.5 -16.5t15.5 -39.5v-628l520 649q27 35 72 35h107q28 0 40.5 -26t-6.5 -48l-516 -635z" />
    <glyph glyph-name="L" unicode="L" horiz-adv-x="1019" 
d="M348 186h535q23 0 39 -15.5t16 -37.5v-78q0 -23 -16 -39t-39 -16h-684q-23 0 -39.5 16t-16.5 39v1323q0 23 16.5 39.5t39.5 16.5h94q23 0 39 -16.5t16 -39.5v-1192z" />
    <glyph glyph-name="M" unicode="M" horiz-adv-x="1757" 
d="M1380 1393q27 41 76 41h103q23 0 39 -16.5t16 -39.5v-1323q0 -23 -16 -39t-39 -16h-97q-22 0 -37.5 16t-15.5 39v1000l-479 -707q-13 -20 -39 -20h-25q-22 0 -39 20l-479 707v-1000q0 -23 -15.5 -39t-37.5 -16h-96q-23 0 -39.5 16t-16.5 39v1323q0 23 16.5 39.5
t39.5 16.5h102q49 0 76 -41l502 -748z" />
    <glyph glyph-name="N" unicode="N" horiz-adv-x="1413" 
d="M1065 1378q0 23 16 39.5t39 16.5h97q22 0 37.5 -16.5t15.5 -39.5v-1323q0 -23 -15.5 -39t-37.5 -16h-78q-49 0 -74 39l-717 1018v-1002q0 -23 -15.5 -39t-37.5 -16h-96q-23 0 -39.5 16t-16.5 39v1323q0 23 16.5 39.5t39.5 16.5h75q48 0 76 -39l715 -1016v999z" />
    <glyph glyph-name="O" unicode="O" horiz-adv-x="1640" 
d="M821 1458q208 0 375 -97.5t259.5 -266.5t92.5 -377t-92.5 -378t-259.5 -268t-375 -98q-209 0 -376.5 98t-260 268t-92.5 378t92.5 377t260 266.5t376.5 97.5zM821 166q121 0 221.5 46.5t164.5 124.5t99 176t35 204t-35 204t-99 176t-164.5 124.5t-221.5 46.5
t-221.5 -46.5t-164.5 -124.5t-99 -176t-35 -204t35 -204t99 -176t164.5 -124.5t221.5 -46.5z" />
    <glyph glyph-name="P" unicode="P" horiz-adv-x="1200" 
d="M602 1434q237 0 376.5 -132.5t139.5 -334.5t-139.5 -335.5t-376.5 -133.5h-254v-443q0 -23 -15 -39t-38 -16h-96q-23 0 -39.5 16t-16.5 39v1323q0 23 16.5 39.5t39.5 16.5h403zM602 686q143 0 225 76.5t82 204.5q0 127 -82 203.5t-225 76.5h-254v-561h254z" />
    <glyph glyph-name="Q" unicode="Q" horiz-adv-x="1640" 
d="M1548 717q0 -146 -47.5 -275.5t-134.5 -228.5l107 -107q17 -17 17 -39.5t-17 -37.5l-54 -54q-15 -15 -38 -15t-38 17l-114 115q-182 -117 -408 -117q-209 0 -376.5 97.5t-260 267t-92.5 377.5t92.5 377.5t260 267.5t376.5 98q208 0 375 -98t259.5 -267.5t92.5 -377.5z
M821 166q144 0 264 70l-178 180q-17 17 -17 40t17 38l51 51q17 17 40 17t38 -17l187 -187q116 149 116 359q0 106 -34.5 204t-98.5 176t-164 124.5t-221 46.5q-98 0 -182.5 -30.5t-146 -83t-105 -123t-65 -150.5t-21.5 -164t21.5 -164t65 -150.5t105 -123t146 -83
t182.5 -30.5z" />
    <glyph glyph-name="R" unicode="R" horiz-adv-x="1224" 
d="M1145 68q12 -23 -0.5 -45.5t-38.5 -22.5h-113q-58 0 -80 49l-272 506q-18 -2 -55 -2h-238v-498q0 -23 -15.5 -39t-37.5 -16h-96q-23 0 -39.5 16t-16.5 39v1323q0 23 16.5 39.5t39.5 16.5h387q239 0 376.5 -124.5t137.5 -316.5q0 -131 -67 -234.5t-191 -156.5zM348 739
h238q146 0 225.5 68.5t79.5 185.5t-79.5 185.5t-225.5 68.5h-238v-508z" />
    <glyph glyph-name="S" unicode="S" horiz-adv-x="1144" 
d="M680 797q215 -51 309 -140t94 -258q0 -79 -28 -151.5t-85 -135t-158.5 -100t-233.5 -37.5q-160 0 -295.5 67.5t-198.5 199.5q-11 22 -0.5 44t35.5 29l96 31q19 6 38 -1.5t28 -25.5q32 -65 109.5 -108t191.5 -43q125 0 208.5 55t83.5 160q0 36 -9 65t-21 49.5t-38 38.5
t-46.5 28.5t-60.5 22.5t-66.5 18t-78 17.5t-81.5 18.5q-105 25 -176.5 66t-109.5 95.5t-53 113t-15 133.5q0 119 62.5 213.5t170.5 146t240 51.5q139 0 249 -65.5t163 -184.5q10 -23 -1 -46t-36 -29l-97 -23q-19 -4 -35.5 4t-25.5 25q-76 145 -281 127q-85 -9 -144 -71
t-60 -148q0 -50 19 -88.5t46 -61.5t75 -42.5t87 -29.5t101 -24q7 -1 10 -2t8.5 -2t9.5 -2z" />
    <glyph glyph-name="T" unicode="T" horiz-adv-x="1093" 
d="M956 1434q23 0 39.5 -16.5t16.5 -39.5v-75q0 -23 -16.5 -39.5t-39.5 -16.5h-307v-1192q0 -23 -16 -39t-39 -16h-94q-23 0 -39.5 16t-16.5 39v1192h-307q-23 0 -39 16.5t-16 39.5v75q0 23 16 39.5t39 16.5h819z" />
    <glyph glyph-name="U" unicode="U" horiz-adv-x="1376" 
d="M1083 1434h95q23 0 39 -16.5t16 -39.5v-833q0 -278 -140.5 -424t-404.5 -146q-263 0 -404 146t-141 424v833q0 23 16.5 39.5t39.5 16.5h96q23 0 39 -16.5t16 -39.5v-796q0 -219 88 -316.5t250 -97.5q164 0 252 97.5t88 316.5v796q0 23 16 39.5t39 16.5z" />
    <glyph glyph-name="V" unicode="V" horiz-adv-x="1382" 
d="M1104 1384q7 23 25.5 36.5t41.5 13.5h119q19 0 29.5 -15.5t3.5 -34.5l-498 -1337q-7 -22 -25.5 -34.5t-41.5 -12.5h-131q-23 0 -42 12.5t-26 34.5l-500 1337q-6 19 5 34.5t30 15.5h117q25 0 44 -13.5t26 -36.5l411 -1165z" />
    <glyph glyph-name="W" unicode="W" horiz-adv-x="2023" 
d="M1745 1382q8 23 26.5 37.5t43.5 14.5h118q19 0 29 -15.5t4 -32.5l-428 -1335q-7 -23 -26.5 -37t-43.5 -14h-88q-25 0 -44 14t-25 37l-299 965l-299 -965q-6 -23 -25.5 -37t-44.5 -14h-88q-24 0 -43.5 14t-26.5 37l-428 1335q-6 17 4 32.5t29 15.5h119q25 0 43.5 -14.5
t26.5 -37.5l321 -1060l326 1060q8 24 26.5 38t42.5 14h33q25 0 43.5 -14.5t26.5 -37.5l325 -1060z" />
    <glyph glyph-name="X" unicode="X" horiz-adv-x="1282" 
d="M1206 55q12 -17 2 -36t-32 -19h-134q-50 0 -75 43l-324 510l-326 -510q-25 -43 -75 -43h-133q-22 0 -32.5 19t1.5 36l430 674l-395 649q-12 19 -2 37.5t32 18.5h131q55 0 80 -45l289 -492l289 492q25 45 78 45h131q22 0 33 -18.5t0 -37.5l-398 -649z" />
    <glyph glyph-name="Y" unicode="Y" horiz-adv-x="1355" 
d="M1251 1434q22 0 32 -18.5t-1 -37.5l-502 -841v-482q0 -23 -16 -39t-39 -16h-94q-23 0 -39.5 16t-16.5 39v482l-501 841q-11 19 -1 37.5t31 18.5h115q56 0 78 -45l381 -668l381 668q25 45 78 45h114z" />
    <glyph glyph-name="Z" unicode="Z" horiz-adv-x="1175" 
d="M348 186h690q23 0 39.5 -15.5t16.5 -37.5v-78q0 -23 -16.5 -39t-39.5 -16h-901q-23 0 -39 16t-16 39v56q0 40 22 71l723 1065h-653q-23 0 -39 16.5t-16 39.5v75q0 23 16 39.5t39 16.5h846q23 0 39 -16.5t16 -39.5v-57q0 -41 -20 -70z" />
    <glyph glyph-name="bracketleft" unicode="[" horiz-adv-x="677" 
d="M555 1509q0 -23 -16 -38t-39 -15h-174v-1476h174q23 0 39 -16.5t16 -39.5v-67q0 -22 -16 -38t-39 -16h-301q-23 0 -39.5 16t-16.5 38v1720q0 23 16 38t40 15h301q23 0 39 -15t16 -38v-68z" />
    <glyph glyph-name="backslash" unicode="\" horiz-adv-x="978" 
d="M301 1581l559 -1731q6 -19 -4 -33t-29 -14h-79q-24 0 -43 14t-27 36l-561 1730q-5 19 5.5 33t29.5 14h79q54 0 70 -49z" />
    <glyph glyph-name="bracketright" unicode="]" horiz-adv-x="675" 
d="M121 1509v68q0 23 16 38t39 15h301q23 0 39 -15t16 -38v-1720q0 -22 -16 -38t-39 -16h-301q-23 0 -39 16t-16 38v67q0 23 16 39.5t39 16.5h174v1476h-174q-23 0 -39 15t-16 38z" />
    <glyph glyph-name="asciicircum" unicode="^" horiz-adv-x="1081" 
d="M948 877q10 -19 -0.5 -36.5t-32.5 -17.5h-90q-42 0 -65 37l-219 406l-219 -406q-23 -37 -66 -37h-92q-20 0 -30.5 17.5t-0.5 36.5l289 512q27 45 80 45h78q52 0 79 -45z" />
    <glyph glyph-name="underscore" unicode="_" horiz-adv-x="872" 
d="M61 -225q0 19 13 32t32 13h658q19 0 32 -13t13 -32v-74q0 -19 -13 -32t-32 -13h-658q-19 0 -32 13t-13 32v74z" />
    <glyph glyph-name="grave" unicode="`" horiz-adv-x="622" 
d="M299 1489q46 0 66 -41l96 -207q6 -14 -2 -26.5t-23 -12.5h-65q-29 0 -45 25l-144 205q-12 19 -2 38t33 19h86z" />
    <glyph glyph-name="a" unicode="a" horiz-adv-x="1286" 
d="M965 983q0 23 16 39t39 16h78q23 0 39 -16t16 -39v-928q0 -23 -16 -39t-39 -16h-78q-23 0 -39 16t-16 39v90q-135 -170 -377 -170q-94 0 -177.5 30.5t-144.5 83t-105.5 121.5t-66.5 148t-22 160q0 103 35.5 200t100 174t164 124t216.5 47q242 0 377 -170v90zM606 152
q167 0 263 103.5t96 262.5q0 160 -96 264.5t-263 104.5q-158 0 -251 -103.5t-93 -265.5q0 -160 93 -263t251 -103z" />
    <glyph glyph-name="b" unicode="b" horiz-adv-x="1286" 
d="M696 1063q117 0 216.5 -47t164.5 -124t101 -174t36 -200q0 -102 -36 -199t-101 -174t-164.5 -123.5t-216.5 -46.5q-239 0 -377 170v-90q0 -23 -16 -39t-39 -16h-76q-23 0 -39 16t-16 39v1323q0 23 16 39.5t39 16.5h76q23 0 39 -16.5t16 -39.5v-485q138 170 377 170z
M678 152q158 0 251 103t93 263q0 162 -93 265.5t-251 103.5q-166 0 -262.5 -104.5t-96.5 -264.5q0 -159 96.5 -262.5t262.5 -103.5z" />
    <glyph glyph-name="c" unicode="c" horiz-adv-x="1118" 
d="M616 152q85 0 157 34t118 95q12 15 32.5 19t37.5 -5l63 -35q22 -12 26.5 -37t-10.5 -45q-74 -95 -184 -149t-240 -54q-153 0 -278.5 73t-195.5 197.5t-70 272.5q0 149 70 274t195.5 198t278.5 73q130 0 240 -54t184 -149q15 -20 10.5 -45t-26.5 -37l-63 -35
q-17 -9 -37.5 -4.5t-32.5 19.5q-46 61 -118 95t-157 34q-153 0 -252.5 -104.5t-99.5 -264.5q0 -159 99.5 -262.5t252.5 -103.5z" />
    <glyph glyph-name="d" unicode="d" horiz-adv-x="1286" 
d="M967 1378q0 23 15.5 39.5t37.5 16.5h78q23 0 39 -16.5t16 -39.5v-1323q0 -23 -16 -39t-39 -16h-78q-22 0 -37.5 16t-15.5 39v90q-138 -170 -379 -170q-94 0 -177.5 30.5t-144.5 83t-105.5 121.5t-66.5 148t-22 160q0 103 35.5 200t100 174t164 124t216.5 47
q241 0 379 -170v485zM606 152q167 0 264 103.5t97 262.5q0 160 -97 264.5t-264 104.5q-157 0 -250.5 -104t-93.5 -265q0 -160 93.5 -263t250.5 -103z" />
    <glyph glyph-name="e" unicode="e" horiz-adv-x="1173" 
d="M596 1063q79 0 154.5 -24t140 -72t112.5 -113.5t74 -154.5t23 -189q0 -29 -21.5 -50.5t-50.5 -21.5h-760q24 -131 117.5 -208.5t243.5 -77.5q145 0 243 88q14 12 32.5 13t33.5 -9l61 -39q23 -13 26.5 -39t-13.5 -45q-146 -146 -383 -146q-167 0 -295.5 73.5t-195 196.5
t-66.5 273q0 149 66.5 273.5t187.5 198t270 73.5zM268 600h637q-19 133 -99 210t-210 77q-132 0 -219 -78t-109 -209z" />
    <glyph glyph-name="f" unicode="f" horiz-adv-x="724" 
d="M612 1303q-49 0 -83.5 -13t-54.5 -34t-32 -57t-15.5 -72t-4.5 -89h186q23 0 39.5 -16t16.5 -39v-68q0 -23 -16.5 -39t-39.5 -16h-186v-805q0 -23 -15.5 -39t-37.5 -16h-78q-23 0 -39 16t-16 39v805h-111q-22 0 -37.5 16t-15.5 39v68q0 23 15.5 39t37.5 16h111
q0 422 356 422q5 0 13.5 -1t12.5 -1q19 0 32.5 -13t13.5 -32v-63q0 -20 -14 -33.5t-34 -13.5h-4z" />
    <glyph glyph-name="g" unicode="g" horiz-adv-x="1263" 
d="M944 983q0 23 16 39t39 16h76q23 0 39 -16t16 -39v-874q0 -113 -31 -206.5t-93.5 -165t-166 -111.5t-239.5 -40q-130 0 -243.5 41.5t-186.5 114.5q-19 19 -15 45.5t27 40.5l66 39q15 9 34 7.5t31 -13.5q41 -43 114 -71t173 -28q177 0 260.5 99.5t83.5 265.5v80
q-128 -178 -354 -178q-110 0 -208 44.5t-164.5 117.5t-105 166.5t-38.5 189.5t38.5 189t105 165.5t164.5 117t208 44.5q225 0 354 -176v96zM608 207q148 0 242 95.5t94 244.5q0 144 -89.5 240t-233.5 100q-94 3 -176 -41.5t-131.5 -124.5t-49.5 -174q0 -146 98.5 -243
t245.5 -97z" />
    <glyph glyph-name="h" unicode="h" horiz-adv-x="1173" 
d="M639 1063q171 0 285 -122.5t114 -291.5v-594q0 -23 -16 -39t-39 -16h-78q-22 0 -37.5 16t-15.5 39v541q0 58 -13.5 107.5t-42 92t-80.5 67t-122 24.5t-125.5 -28t-86.5 -72.5t-47 -93.5t-16 -97v-541q0 -23 -16 -39t-39 -16h-78q-22 0 -37.5 16t-15.5 39v1323
q0 23 15.5 39.5t37.5 16.5h78q23 0 39 -16.5t16 -39.5v-485q113 170 320 170z" />
    <glyph glyph-name="i" unicode="i" horiz-adv-x="454" 
d="M190 0q-23 0 -39 16t-16 39v928q0 23 16 39t39 16h76q23 0 39.5 -16t16.5 -39v-928q0 -23 -16.5 -39t-39.5 -16h-76zM227 1223q-43 0 -74.5 31t-31.5 75t31.5 75.5t74.5 31.5q44 0 75.5 -31.5t31.5 -75.5t-31.5 -75t-75.5 -31z" />
    <glyph glyph-name="j" unicode="j" horiz-adv-x="454" 
d="M135 18v965q0 23 16 39t39 16h78q22 0 38 -16t16 -39v-1001q0 -157 -90 -258t-269 -101h-26q-19 0 -32.5 13t-13.5 32v78q0 19 12 32t31 13q114 7 157.5 64t43.5 163zM229 1223q-44 0 -75 31t-31 75t31 75.5t75 31.5t75.5 -31.5t31.5 -75.5t-31.5 -75t-75.5 -31z" />
    <glyph glyph-name="k" unicode="k" horiz-adv-x="1028" 
d="M520 553l416 -494q15 -17 5.5 -38t-32.5 -21h-123q-43 0 -69 33l-395 467v-445q0 -23 -16.5 -39t-39.5 -16h-78q-23 0 -39 16t-16 39v1323q0 23 16 39.5t39 16.5h78q23 0 39.5 -16.5t16.5 -39.5v-800l348 426q27 34 71 34h105q23 0 32.5 -21t-4.5 -38z" />
    <glyph glyph-name="l" unicode="l" horiz-adv-x="452" 
d="M133 1378q0 23 16 39.5t39 16.5h78q23 0 38 -16t15 -40v-1323q0 -23 -15 -39t-38 -16h-78q-23 0 -39 16t-16 39v1323z" />
    <glyph glyph-name="m" unicode="m" horiz-adv-x="1726" 
d="M1229 1063q151 0 257.5 -107.5t106.5 -269.5v-631q0 -23 -15.5 -39t-37.5 -16h-78q-23 0 -39 16t-16 39v578q0 114 -56.5 184t-164.5 70q-105 0 -167.5 -75t-62.5 -179v-578q0 -23 -15.5 -39t-37.5 -16h-78q-23 0 -39 16t-16 39v578q0 114 -56.5 184t-164.5 70
q-105 0 -167.5 -75t-62.5 -179v-578q0 -23 -15.5 -39t-37.5 -16h-78q-23 0 -39 16t-16 39v928q0 23 16 39t39 16h78q22 0 37.5 -16t15.5 -39v-68q103 148 281 148q92 0 170.5 -45t126.5 -121q54 75 138 120.5t194 45.5z" />
    <glyph glyph-name="n" unicode="n" 
d="M639 1063q171 0 285 -122.5t114 -291.5v-594q0 -23 -16 -39t-39 -16h-78q-22 0 -37.5 16t-15.5 39v541q0 58 -13.5 107.5t-42 92t-80.5 67t-122 24.5t-125.5 -28t-86.5 -72.5t-47 -93.5t-16 -97v-541q0 -23 -16 -39t-39 -16h-78q-23 0 -38 16t-15 39v928q0 23 15 39
t38 16h78q23 0 39 -16t16 -39v-90q113 170 320 170z" />
    <glyph glyph-name="o" unicode="o" horiz-adv-x="1232" 
d="M616 1063q115 0 217 -43.5t173.5 -117t113 -173.5t41.5 -211t-41.5 -211t-113 -173.5t-173.5 -117t-217 -43.5q-153 0 -278.5 73.5t-195.5 198.5t-70 273t70 273t195.5 198.5t278.5 73.5zM616 152q154 0 254.5 104t100.5 262q0 160 -100.5 264.5t-254.5 104.5
q-153 0 -252.5 -104.5t-99.5 -264.5q0 -159 99.5 -262.5t252.5 -103.5z" />
    <glyph glyph-name="p" unicode="p" horiz-adv-x="1286" 
d="M696 1063q117 0 216.5 -47t164.5 -124t101 -174t36 -200q0 -102 -36 -199t-101 -174t-164.5 -123.5t-216.5 -46.5q-239 0 -377 170v-485q0 -23 -16 -39t-39 -16h-78q-22 0 -37.5 16t-15.5 39v1323q0 23 15.5 39t37.5 16h78q23 0 39 -16t16 -39v-90q138 170 377 170z
M678 152q158 0 251 103t93 263q0 162 -93 265.5t-251 103.5q-166 0 -262.5 -104.5t-96.5 -264.5q0 -159 96.5 -262.5t262.5 -103.5z" />
    <glyph glyph-name="q" unicode="q" horiz-adv-x="1286" 
d="M967 983q0 23 15.5 39t37.5 16h78q23 0 39 -16t16 -39v-1323q0 -23 -16 -39t-39 -16h-78q-22 0 -37.5 16t-15.5 39v485q-138 -170 -379 -170q-94 0 -177.5 30.5t-144.5 83t-105.5 121.5t-66.5 148t-22 160q0 103 35.5 200t100 174t164 124t216.5 47q241 0 379 -170v90z
M606 152q167 0 264 103.5t97 262.5q0 160 -97 264.5t-264 104.5q-157 0 -250.5 -104t-93.5 -265q0 -160 93.5 -263t250.5 -103z" />
    <glyph glyph-name="r" unicode="r" horiz-adv-x="737" 
d="M319 858q45 91 128.5 143t179.5 60q17 1 29 -9.5t12 -25.5v-133q0 -15 -12 -26t-27 -11q-78 4 -136 -18.5t-90.5 -59.5t-52 -93t-25.5 -106.5t-6 -113.5v-410q0 -23 -15.5 -39t-37.5 -16h-78q-23 0 -39 16t-16 39v928q0 23 16 39t39 16h78q22 0 37.5 -16t15.5 -39v-125z
" />
    <glyph glyph-name="s" unicode="s" horiz-adv-x="927" 
d="M528 602q189 -39 264.5 -105t75.5 -186q0 -145 -105.5 -240.5t-301.5 -95.5q-136 0 -241 46t-154 131q-12 23 -2.5 46t32.5 31l82 29q40 13 64 -22q59 -91 223 -91q101 0 156 39.5t55 108.5q0 30 -14.5 52t-35.5 35t-56.5 23.5t-65.5 15.5t-75 13t-73 14
q-144 33 -211 104.5t-67 186.5q0 143 107.5 234.5t277.5 91.5q109 0 198.5 -46.5t131.5 -129.5q12 -23 2 -47.5t-35 -30.5l-74 -21q-39 -10 -59 23q-24 37 -70.5 61.5t-112.5 24.5q-77 0 -126.5 -40.5t-49.5 -104.5q0 -24 7.5 -43.5t24 -33.5t32.5 -23.5t44.5 -17t47 -12
t53.5 -11t51 -9.5z" />
    <glyph glyph-name="t" unicode="t" horiz-adv-x="751" 
d="M649 915q0 -23 -16 -39t-39 -16h-186v-454q0 -39 0.5 -60.5t3.5 -52t9.5 -47t18 -35.5t29 -28.5t43 -16t59.5 -6.5h29q20 2 34.5 -11.5t14.5 -33.5v-76q0 -18 -11.5 -30.5t-29.5 -14.5q-36 -4 -59 -4q-168 0 -248 88t-80 262v520h-123q-23 0 -39 16t-16 39v68q0 23 16 39
t39 16h123v164q0 22 16 37.5t39 15.5h76q23 0 39.5 -15.5t16.5 -37.5v-164h186q23 0 39 -16t16 -39v-68z" />
    <glyph glyph-name="u" unicode="u" 
d="M907 1038h78q22 0 37.5 -16t15.5 -39v-928q0 -23 -15.5 -39t-37.5 -16h-78q-23 0 -39 16t-16 39v90q-110 -170 -320 -170q-171 0 -285 122.5t-114 291.5v594q0 23 16 39t39 16h78q22 0 37.5 -16t15.5 -39v-541q0 -57 13.5 -107t42.5 -92t81 -66.5t122 -24.5t125 27.5
t86.5 72t47 93t15.5 97.5v541q0 23 16 39t39 16z" />
    <glyph glyph-name="v" unicode="v" horiz-adv-x="1101" 
d="M836 991q19 47 69 47h90q24 0 37.5 -19.5t5.5 -41.5l-362 -930q-7 -22 -26 -34.5t-42 -12.5h-112q-23 0 -42 12.5t-26 34.5l-360 930q-9 22 4.5 41.5t36.5 19.5h92q22 0 41 -13t26 -34l285 -766z" />
    <glyph glyph-name="w" unicode="w" horiz-adv-x="1585" 
d="M1321 987q6 23 25.5 37t44.5 14h90q23 0 36.5 -19t6.5 -42l-312 -928q-8 -22 -26.5 -35.5t-42.5 -13.5h-70q-25 0 -43 14t-26 37l-211 656l-209 -656q-7 -23 -26.5 -37t-43.5 -14h-72q-23 0 -42 13.5t-25 35.5l-314 928q-7 23 6.5 42t36.5 19h93q23 0 42.5 -14t26.5 -37
l215 -715l232 727q14 39 53 39h55q17 0 32 -11t19 -28l232 -727z" />
    <glyph glyph-name="x" unicode="x" horiz-adv-x="1044" 
d="M967 57q12 -19 2 -38t-33 -19h-119q-38 0 -61 33l-232 342l-231 -342q-23 -33 -62 -33h-120q-22 0 -31.5 19t2.5 38l324 478l-308 446q-12 19 -1.5 38t32.5 19h119q43 0 61 -34l213 -332l217 334q19 32 62 32h119q22 0 32 -19t-2 -38l-309 -446z" />
    <glyph glyph-name="y" unicode="y" horiz-adv-x="1099" 
d="M834 991q7 21 26 34t41 13h92q23 0 36.5 -20t4.5 -43q-328 -833 -387 -975q-81 -201 -167.5 -298t-221.5 -97q-35 0 -51 2q-17 0 -29 13t-12 32v78q0 19 12 32t31 13q89 3 148.5 62t117.5 216q-10 27 -171 392t-236 530q-9 22 4.5 42.5t38.5 20.5h90q22 0 40 -12.5
t25 -32.5l301 -704z" />
    <glyph glyph-name="z" unicode="z" horiz-adv-x="970" 
d="M328 176h495q23 0 39.5 -15.5t16.5 -37.5v-68q0 -23 -16.5 -39t-39.5 -16h-678q-23 0 -39 16t-16 39v66q0 25 19 55l514 684h-459q-23 0 -39 16t-16 39v68q0 23 16 39t39 16h641q23 0 39 -16t16 -39v-65q0 -32 -18 -56z" />
    <glyph glyph-name="braceleft" unicode="{" horiz-adv-x="804" 
d="M465 958q0 -200 -160 -237v-8q160 -37 160 -236v-229q0 -35 0.5 -56t2.5 -50.5t7 -46.5t13 -38t21 -33t30.5 -23.5t42 -16t55.5 -4.5q20 0 33.5 -14t13.5 -34v-84q0 -19 -13.5 -32t-33.5 -13h-23q-175 0 -253 83t-78 270v319q0 79 -24 114.5t-77 43.5q-17 1 -28 14
t-11 31v78q0 17 11 30.5t28 16.5q53 6 77 41t24 114v322q0 186 78 268t253 82h23q20 0 33.5 -13t13.5 -32v-84q0 -20 -13.5 -32.5t-33.5 -12.5q-35 0 -62 -7.5t-45.5 -18.5t-31 -32.5t-19 -40t-10 -51t-4 -56t-0.5 -64.5v-228z" />
    <glyph glyph-name="bar" unicode="|" horiz-adv-x="468" 
d="M143 1495q0 23 16.5 39t39.5 16h71q23 0 39.5 -16t16.5 -39v-1745q0 -23 -16.5 -39t-39.5 -16h-71q-23 0 -39.5 16t-16.5 39v1745z" />
    <glyph glyph-name="braceright" unicode="}" horiz-adv-x="804" 
d="M340 958v228q0 41 -0.5 64.5t-4 56t-10 51t-19 40t-30.5 32.5t-44.5 18.5t-61.5 7.5h-2q-19 0 -32 12.5t-13 32.5v84q0 19 13 32t32 13h22q175 0 253.5 -82t78.5 -268v-322q0 -79 24 -114t77 -41q17 -3 28 -16.5t11 -30.5v-78q0 -18 -11 -31t-28 -14q-53 -8 -77 -43.5
t-24 -114.5v-319q0 -187 -78.5 -270t-253.5 -83h-22q-19 0 -32 13t-13 32v84q0 20 13 34t32 14h2q35 0 61.5 7.5t44.5 18t30.5 32t19 40t10 51t4 55.5t0.5 64v229q0 199 160 236v8q-160 37 -160 237z" />
    <glyph glyph-name="asciitilde" unicode="~" horiz-adv-x="1210" 
d="M958 748l82 -17q20 -5 30.5 -22t4.5 -37q-58 -191 -256 -191q-69 0 -144 23t-142.5 46t-118.5 23q-83 0 -109 -71q-6 -15 -21 -23.5t-32 -5.5l-82 16q-20 4 -29.5 22t-3.5 38q31 96 95 143t171 47q67 0 142 -23.5t141 -47t113 -23.5q81 0 108 72q4 17 18.5 25.5t32.5 5.5
z" />
    <glyph glyph-name="exclamdown" unicode="&#xa1;" horiz-adv-x="540" 
d="M270 807q-54 0 -91.5 37.5t-37.5 91.5q0 53 37.5 90t91.5 37q52 0 89.5 -37.5t37.5 -89.5q0 -54 -37 -91.5t-90 -37.5zM195 559q2 22 17.5 37.5t37.5 15.5h39q23 0 39 -15.5t16 -37.5l25 -899q1 -23 -15 -39t-39 -16h-90q-25 0 -41 16t-14 39z" />
    <glyph glyph-name="cent" unicode="&#xa2;" horiz-adv-x="1208" 
d="M647 348q174 0 275 131q12 15 31 19.5t38 -4.5l62 -35q23 -12 28 -37t-10 -45q-67 -87 -164 -140t-213 -63v-129q0 -19 -13 -32t-32 -13h-71q-20 0 -34 13t-14 32v139q-189 38 -308.5 188t-119.5 345q0 197 119.5 345.5t308.5 186.5v140q0 19 14 32t34 13h71q19 0 32 -13
t13 -32v-129q116 -10 213 -63t164 -140q15 -20 10 -45t-28 -37l-62 -33q-19 -10 -38 -6.5t-31 18.5q-101 131 -275 131q-154 0 -254 -104t-100 -264t100 -264.5t254 -104.5z" />
    <glyph glyph-name="sterling" unicode="&#xa3;" horiz-adv-x="1189" 
d="M317 184h715q23 0 39 -15.5t16 -37.5v-76q0 -23 -16 -39t-39 -16h-876q-23 0 -39.5 16t-16.5 39v82q0 45 37 74q172 132 172 342q0 37 -6 72h-166q-15 0 -26 11t-11 26v55q0 15 11 26t26 11h135q-2 7 -14 43.5t-15.5 48t-12.5 43.5t-12 52t-6 49.5t-3 58.5
q0 179 115.5 295t310.5 116q145 0 244.5 -64t140.5 -188q8 -22 -4 -42.5t-35 -26.5l-90 -23q-22 -4 -40 5t-26 28q-49 129 -184 129q-105 0 -157 -64t-52 -165q0 -55 11 -101.5t32.5 -104t30.5 -89.5h362q15 0 26 -11t11 -26v-55q0 -15 -11 -26t-26 -11h-342v-37
q0 -124 -60.5 -227t-148.5 -173v-4z" />
    <glyph glyph-name="currency" unicode="&#xa4;" horiz-adv-x="1050" 
d="M815 518l109 -108q10 -10 10 -26t-10 -26l-39 -39q-11 -11 -26.5 -11t-24.5 11l-111 109q-86 -61 -197 -61q-112 0 -198 61l-111 -109q-9 -11 -25 -11t-26 11l-39 39q-11 10 -11 26t11 26l111 108q-64 89 -64 199q0 109 64 198l-111 109q-11 10 -11 25t11 26l39 39
q10 10 26 10t25 -10l111 -108q86 61 198 61q111 0 197 -61l111 108q9 10 24.5 10t26.5 -10l39 -39q10 -11 10 -26t-10 -25l-109 -109q62 -91 62 -198q0 -108 -62 -199zM526 530q76 0 131.5 55t55.5 132q0 76 -55 131t-132 55q-78 0 -133 -54.5t-55 -131.5t55 -132t133 -55z
" />
    <glyph glyph-name="yen" unicode="&#xa5;" horiz-adv-x="1355" 
d="M1251 1434q22 0 33 -18.5t0 -37.5l-430 -721h236q15 0 25.5 -10t10.5 -24v-56q0 -15 -10.5 -26t-25.5 -11h-310v-135h310q15 0 25.5 -11t10.5 -26v-55q0 -14 -10.5 -24.5t-25.5 -10.5h-310v-213q0 -23 -15.5 -39t-37.5 -16h-96q-23 0 -39.5 16t-16.5 39v213h-309
q-14 0 -24.5 11t-10.5 24v55q0 15 10.5 26t24.5 11h309v135h-309q-14 0 -24.5 11t-10.5 26v56q0 13 10.5 23.5t24.5 10.5h238l-430 721q-10 19 0 37.5t30 18.5h115q55 0 80 -45l379 -668l381 668q25 45 80 45h112z" />
    <glyph glyph-name="brokenbar" unicode="&#xa6;" horiz-adv-x="468" 
d="M197 -305q-22 0 -38 16t-16 39v619q0 22 16 37.5t38 15.5h73q23 0 39.5 -15.5t16.5 -37.5v-619q0 -23 -16.5 -39t-39.5 -16h-73zM143 1495q0 23 16 39t38 16h73q23 0 39.5 -16t16.5 -39v-616q0 -23 -16.5 -39.5t-39.5 -16.5h-73q-22 0 -38 16.5t-16 39.5v616z" />
    <glyph glyph-name="section" unicode="&#xa7;" horiz-adv-x="1163" 
d="M870 313q78 -78 78 -186q0 -168 -116 -267.5t-283 -99.5q-136 0 -232.5 53t-138.5 148q-9 24 2 47t35 29l82 22q18 5 35 -2t26 -24q22 -41 69 -70t116 -29q98 0 149 47t51 113q0 52 -34.5 90t-89 62t-121 46t-133 49t-121 62t-89 94t-34.5 138q0 163 168 270
q-78 78 -78 189q0 168 116 267t283 99q138 0 234.5 -54t136.5 -149q10 -23 0 -45t-35 -30l-82 -21q-19 -4 -36 3t-25 22q-24 41 -71 70.5t-116 29.5q-96 0 -147 -47.5t-51 -112.5q0 -46 26.5 -81.5t70 -57.5t99.5 -44t114 -39.5t114 -46t99.5 -62t70 -88t26.5 -123.5
q0 -164 -168 -271zM623 444q70 -23 139 -55q41 26 70.5 69.5t29.5 92.5q0 34 -16.5 62.5t-45.5 50t-67 39.5t-82.5 33.5t-90.5 30.5q-5 1 -8 2t-7 2.5t-8 2.5q-105 39 -138 57q-42 -26 -72 -69t-30 -92q0 -34 19.5 -64t42.5 -49.5t73 -42t80 -33t93 -31.5z" />
    <glyph glyph-name="dieresis" unicode="&#xa8;" horiz-adv-x="927" 
d="M260 1444q50 0 84.5 -34t34.5 -83t-34.5 -84t-84.5 -35q-49 0 -83 34.5t-34 84.5q0 49 33.5 83t83.5 34zM666 1444q50 0 84 -34t34 -83q0 -50 -34.5 -84.5t-83.5 -34.5q-48 0 -82.5 35t-34.5 84t34.5 83t82.5 34z" />
    <glyph glyph-name="copyright" unicode="&#xa9;" horiz-adv-x="1675" 
d="M852 1001q-124 0 -196 -84.5t-72 -199.5t72 -200t196 -85q113 0 190 80q12 15 35 4l41 -29q10 -6 12 -19t-6 -22q-109 -112 -272 -112t-270 109.5t-107 273.5t107 273.5t270 109.5q162 0 272 -113q8 -9 6 -22t-12 -19l-41 -28q-21 -10 -35 4q-73 79 -190 79zM838 1442
q196 0 363 -97.5t264.5 -264.5t97.5 -363t-97.5 -363t-264.5 -264.5t-363 -97.5t-363 97.5t-264.5 264.5t-97.5 363t97.5 363t264.5 264.5t363 97.5zM838 100q125 0 239 49t196.5 131.5t131.5 197t49 239.5q0 167 -82.5 309t-224.5 224.5t-309 82.5q-125 0 -239.5 -49
t-197 -131.5t-131.5 -196.5t-49 -239t49 -239.5t131.5 -197t197 -131.5t239.5 -49z" />
    <glyph glyph-name="guillemotleft" unicode="&#xab;" horiz-adv-x="1114" 
d="M328 844q20 33 59 33h92q23 0 33 -19.5t-2 -38.5l-207 -305l207 -305q12 -19 2 -38t-33 -19h-92q-40 0 -59 32l-191 279q-15 23 -15 51t15 51zM944 877q22 0 31.5 -19.5t-2.5 -38.5l-207 -305l207 -305q12 -19 2.5 -38t-31.5 -19h-94q-37 0 -59 32l-191 279
q-15 23 -15 51t15 51l191 279q23 33 59 33h94z" />
    <glyph glyph-name="registered" unicode="&#xae;" horiz-adv-x="1675" 
d="M838 1442q196 0 363 -97.5t264.5 -264.5t97.5 -363t-97.5 -363t-264.5 -264.5t-363 -97.5q-197 0 -364 97.5t-264 264.5t-97 363t97 363t264 264.5t364 97.5zM838 100q124 0 238 49t196 131.5t131 197t49 239.5q0 167 -82.5 309t-224 224.5t-307.5 82.5
q-125 0 -239.5 -49t-197 -131.5t-131.5 -196.5t-49 -239t49 -239.5t131.5 -197t197 -131.5t239.5 -49zM1130 872q0 -75 -42.5 -133t-118.5 -84l176 -266q9 -13 1.5 -28t-24.5 -15h-49q-29 0 -45 25l-176 268h-160v-256q0 -15 -10.5 -26t-24.5 -11h-36q-15 0 -26 11t-11 26
v688q0 14 11 24.5t26 10.5h235q127 0 200.5 -66.5t73.5 -167.5zM692 739h164q77 0 119.5 35.5t42.5 97.5t-42.5 99t-119.5 37h-164v-269z" />
    <glyph glyph-name="macron" unicode="&#xaf;" horiz-adv-x="845" 
d="M143 1354q0 15 11 26t26 11h486q15 0 25.5 -11t10.5 -26v-72q0 -15 -10.5 -26t-25.5 -11h-486q-15 0 -26 11t-11 26v72z" />
    <glyph glyph-name="degree" unicode="&#xb0;" horiz-adv-x="833" 
d="M416 1434q130 0 222.5 -92.5t92.5 -221.5q0 -130 -92.5 -222.5t-222.5 -92.5q-129 0 -221.5 92.5t-92.5 222.5q0 129 92.5 221.5t221.5 92.5zM416 950q70 0 119 49.5t49 120.5q0 69 -49 118.5t-119 49.5q-69 0 -118.5 -49.5t-49.5 -118.5q0 -70 49.5 -120t118.5 -50z" />
    <glyph glyph-name="plusminus" unicode="&#xb1;" horiz-adv-x="1089" 
d="M635 866h256q23 0 39 -16t16 -39v-74q0 -22 -16 -37.5t-39 -15.5h-256v-256q0 -23 -16 -39t-39 -16h-72q-23 0 -39 16t-16 39v256h-256q-22 0 -38 15.5t-16 37.5v74q0 23 16 39t38 16h256v254q0 23 16 39.5t39 16.5h72q23 0 39 -16.5t16 -39.5v-254zM197 0q-22 0 -38 16
t-16 39v72q0 23 16 39t38 16h694q23 0 39 -16t16 -39v-72q0 -23 -16 -39t-39 -16h-694z" />
    <glyph glyph-name="acute" unicode="&#xb4;" horiz-adv-x="622" 
d="M324 1489h86q23 0 32.5 -19t-2.5 -38l-143 -205q-16 -25 -45 -25h-66q-14 0 -22 13t-2 26l96 207q20 41 66 41z" />
    <glyph glyph-name="paragraph" unicode="&#xb6;" horiz-adv-x="1310" 
d="M1190 1378v-84q0 -23 -16 -39t-39 -16h-101v-1366q0 -23 -16 -38t-39 -15h-72q-23 0 -39 15t-16 38v1366h-223v-1366q0 -23 -16 -38t-38 -15h-73q-24 0 -40 15t-16 38v881q-158 5 -261 94t-103 246q0 161 108.5 250.5t272.5 89.5h672q23 0 39 -16.5t16 -39.5z" />
    <glyph glyph-name="cedilla" unicode="&#xb8;" horiz-adv-x="714" 
d="M336 -100q101 10 169 -39t68 -154q0 -96 -69 -158.5t-182 -62.5q-76 0 -142 27q-15 6 -20.5 22t2.5 29l28 51q6 12 18.5 16.5t24.5 -0.5q40 -12 76 -12q62 0 96.5 28.5t34.5 76.5q0 43 -26.5 67.5t-75.5 24.5q-27 0 -66 -13q-22 -10 -41 13l-16 22q-13 17 -4 39l47 92
q14 31 49 31h49q10 0 16 -9t1 -18z" />
    <glyph glyph-name="guillemotright" unicode="&#xbb;" horiz-adv-x="1116" 
d="M788 844l191 -279q15 -23 15 -51t-15 -51l-191 -279q-19 -32 -59 -32h-92q-23 0 -33 19t2 38l207 305l-207 305q-12 19 -2 38.5t33 19.5h92q39 0 59 -33zM172 877h94q37 0 60 -33l190 -279q15 -23 15 -51t-15 -51l-190 -279q-22 -32 -60 -32h-94q-22 0 -31.5 19t2.5 38
l207 305l-207 305q-12 19 -2.5 38.5t31.5 19.5z" />
    <glyph glyph-name="questiondown" unicode="&#xbf;" horiz-adv-x="946" 
d="M471 807q-54 0 -91.5 37.5t-37.5 91.5q0 53 37.5 90t91.5 37q53 0 90 -37.5t37 -89.5q0 -54 -37 -91.5t-90 -37.5zM260 -23q0 -88 58.5 -152.5t158.5 -64.5q77 0 130 38t79 96q9 21 30 31t44 5l67 -18q25 -6 36.5 -28.5t2.5 -45.5q-55 -127 -164.5 -193.5t-242.5 -66.5
q-162 0 -280 112.5t-118 266.5q0 71 20.5 132.5t52 103t70 86.5t72.5 82.5t60.5 90.5t34.5 111q3 21 18 35t35 14h86q24 0 40 -18.5t13 -42.5q-8 -69 -34 -130.5t-59.5 -102.5t-70.5 -84t-68 -78t-51 -81.5t-20 -97.5z" />
    <glyph glyph-name="Agrave" unicode="&#xc0;" horiz-adv-x="1380" 
d="M1169 0q-24 0 -42.5 13.5t-26.5 35.5l-105 297h-614l-105 -297q-8 -22 -26 -35.5t-41 -13.5h-119q-19 0 -29.5 15.5t-3.5 33.5l498 1337q7 22 26 35t42 13h131q50 0 67 -48l500 -1337q6 -19 -5 -34t-30 -15h-117zM449 532h481l-242 682zM575 1898q47 0 66 -40l96 -207
q6 -14 -1.5 -26.5t-22.5 -12.5h-66q-30 0 -45 24l-143 205q-12 19 -2.5 38t32.5 19h86z" />
    <glyph glyph-name="Aacute" unicode="&#xc1;" horiz-adv-x="1380" 
d="M1169 0q-24 0 -42.5 13.5t-26.5 35.5l-105 297h-614l-105 -297q-8 -22 -26 -35.5t-41 -13.5h-119q-19 0 -29.5 15.5t-3.5 33.5l498 1337q7 22 26 35t42 13h131q50 0 67 -48l500 -1337q6 -19 -5 -34t-30 -15h-117zM449 532h481l-242 682zM825 1898h86q23 0 33 -19t-2 -38
l-143 -205q-15 -24 -45 -24h-66q-14 0 -22 13t-2 26l96 207q19 40 65 40z" />
    <glyph glyph-name="Acircumflex" unicode="&#xc2;" horiz-adv-x="1380" 
d="M1169 0q-24 0 -42.5 13.5t-26.5 35.5l-105 297h-614l-105 -297q-8 -22 -26 -35.5t-41 -13.5h-119q-19 0 -29.5 15.5t-3.5 33.5l498 1337q7 22 26 35t42 13h131q50 0 67 -48l500 -1337q6 -19 -5 -34t-30 -15h-117zM449 532h481l-242 682zM971 1657q11 -13 3.5 -29
t-24.5 -16h-84q-39 0 -57 30l-117 160l-117 -160q-21 -30 -59 -30h-82q-17 0 -25 16t3 29l170 213q19 28 57 28h106q36 0 58 -28z" />
    <glyph glyph-name="Atilde" unicode="&#xc3;" horiz-adv-x="1380" 
d="M1169 0q-24 0 -42.5 13.5t-26.5 35.5l-105 297h-614l-105 -297q-8 -22 -26 -35.5t-41 -13.5h-119q-19 0 -29.5 15.5t-3.5 33.5l498 1337q7 22 26 35t42 13h131q50 0 67 -48l500 -1337q6 -19 -5 -34t-30 -15h-117zM449 532h481l-242 682zM913 1806l52 -8q15 -3 23 -16.5
t5 -28.5q-35 -149 -168 -149q-53 0 -133.5 33.5t-116.5 33.5q-49 0 -65 -53q-4 -12 -16.5 -19.5t-24.5 -5.5l-51 11q-17 3 -25.5 16t-5.5 27q39 149 168 149q47 0 128 -33.5t120 -33.5q53 0 69 53q3 12 15.5 19.5t25.5 4.5z" />
    <glyph glyph-name="Adieresis" unicode="&#xc4;" horiz-adv-x="1380" 
d="M1169 0q-24 0 -42.5 13.5t-26.5 35.5l-105 297h-614l-105 -297q-8 -22 -26 -35.5t-41 -13.5h-119q-19 0 -29.5 15.5t-3.5 33.5l498 1337q7 22 26 35t42 13h131q50 0 67 -48l500 -1337q6 -19 -5 -34t-30 -15h-117zM449 532h481l-242 682zM487 1853q50 0 84.5 -33.5
t34.5 -82.5t-35 -84t-84 -35t-82.5 34.5t-33.5 84.5q0 49 33.5 82.5t82.5 33.5zM893 1853q50 0 84.5 -33.5t34.5 -82.5t-35 -84t-84 -35q-48 0 -82.5 35t-34.5 84t34.5 82.5t82.5 33.5z" />
    <glyph glyph-name="Aring" unicode="&#xc5;" horiz-adv-x="1380" 
d="M1169 0q-24 0 -42.5 13.5t-26.5 35.5l-105 297h-614l-105 -297q-8 -22 -26 -35.5t-41 -13.5h-119q-19 0 -29.5 15.5t-3.5 33.5l498 1337q7 22 26 35t42 13h131q50 0 67 -48l500 -1337q6 -19 -5 -34t-30 -15h-117zM449 532h481l-242 682zM690 1978q93 0 158 -65t65 -158
t-65 -158t-158 -65q-92 0 -157.5 65.5t-65.5 157.5t65.5 157.5t157.5 65.5zM690 1640q47 0 81 34t34 81q0 46 -34 79.5t-81 33.5q-46 0 -79 -33.5t-33 -79.5q0 -47 33 -81t79 -34z" />
    <glyph glyph-name="AE" unicode="&#xc6;" horiz-adv-x="1914" 
d="M1210 186h549q23 0 39.5 -15.5t16.5 -37.5v-78q0 -23 -16.5 -39t-39.5 -16h-700q-23 0 -39 16t-16 39v291h-580l-141 -303q-19 -43 -66 -43h-117q-20 0 -30.5 17t-1.5 36l647 1329q27 52 82 52h944q23 0 38 -16t15 -40v-75q0 -24 -15 -40t-38 -16h-531v-411h484
q23 0 39 -16.5t16 -39.5v-75q0 -23 -16 -39.5t-39 -16.5h-484v-463zM512 532h492v715h-158z" />
    <glyph glyph-name="Ccedilla" unicode="&#xc7;" horiz-adv-x="1441" 
d="M821 166q225 0 369 151q14 15 33.5 18t36.5 -9l77 -52q22 -13 25 -39t-14 -45q-99 -102 -233.5 -158.5t-291.5 -56.5l-39 -77q101 10 169.5 -38.5t68.5 -152.5q0 -96 -69 -158.5t-183 -62.5q-75 0 -141 27q-15 4 -21 20t2 31l29 51q6 11 18.5 15.5t24.5 0.5
q35 -14 76 -14q62 0 97.5 29.5t35.5 77.5q0 43 -27.5 66.5t-77.5 23.5q-36 0 -65 -13q-24 -7 -41 13l-16 22q-14 21 -5 39l54 107q-275 37 -448 242t-173 493q0 156 54.5 293t150.5 236t232 156.5t292 57.5q157 0 293 -57t234 -160q17 -19 14 -45t-25 -39l-77 -51
q-17 -10 -36.5 -8t-33.5 16q-145 152 -369 152q-121 0 -221.5 -46.5t-164.5 -124.5t-99 -176t-35 -204t35 -204t99 -176t164.5 -124.5t221.5 -46.5z" />
    <glyph glyph-name="Egrave" unicode="&#xc8;" horiz-adv-x="1056" 
d="M348 186h549q23 0 39 -15.5t16 -37.5v-78q0 -23 -16 -39t-39 -16h-700q-22 0 -38 16t-16 39v1323q0 23 16 39.5t38 16.5h682q23 0 39 -16.5t16 -39.5v-75q0 -23 -16 -39.5t-39 -16.5h-531v-411h483q23 0 39.5 -16.5t16.5 -39.5v-75q0 -23 -16.5 -39.5t-39.5 -16.5h-483
v-463zM455 1898q46 0 65 -40l96 -207q6 -14 -1.5 -26.5t-22.5 -12.5h-66q-30 0 -45 24l-143 205q-12 19 -2 38t33 19h86z" />
    <glyph glyph-name="Eacute" unicode="&#xc9;" horiz-adv-x="1056" 
d="M348 186h549q23 0 39 -15.5t16 -37.5v-78q0 -23 -16 -39t-39 -16h-700q-22 0 -38 16t-16 39v1323q0 23 16 39.5t38 16.5h682q23 0 39 -16.5t16 -39.5v-75q0 -23 -16 -39.5t-39 -16.5h-531v-411h483q23 0 39.5 -16.5t16.5 -39.5v-75q0 -23 -16.5 -39.5t-39.5 -16.5h-483
v-463zM643 1898h86q23 0 33 -19t-2 -38l-144 -205q-15 -24 -45 -24h-65q-14 0 -22.5 13t-2.5 26l97 207q19 40 65 40z" />
    <glyph glyph-name="Ecircumflex" unicode="&#xca;" horiz-adv-x="1056" 
d="M348 186h549q23 0 39 -15.5t16 -37.5v-78q0 -23 -16 -39t-39 -16h-700q-22 0 -38 16t-16 39v1323q0 23 16 39.5t38 16.5h682q23 0 39 -16.5t16 -39.5v-75q0 -23 -16 -39.5t-39 -16.5h-531v-411h483q23 0 39.5 -16.5t16.5 -39.5v-75q0 -23 -16.5 -39.5t-39.5 -16.5h-483
v-463zM829 1657q11 -13 4 -29t-24 -16h-84q-39 0 -57 30l-117 160l-117 -160q-21 -30 -59 -30h-82q-17 0 -25 16t2 29l170 213q19 28 58 28h106q36 0 58 -28z" />
    <glyph glyph-name="Edieresis" unicode="&#xcb;" horiz-adv-x="1056" 
d="M348 186h549q23 0 39 -15.5t16 -37.5v-78q0 -23 -16 -39t-39 -16h-700q-22 0 -38 16t-16 39v1323q0 23 16 39.5t38 16.5h682q23 0 39 -16.5t16 -39.5v-75q0 -23 -16 -39.5t-39 -16.5h-531v-411h483q23 0 39.5 -16.5t16.5 -39.5v-75q0 -23 -16.5 -39.5t-39.5 -16.5h-483
v-463zM346 1853q50 0 84.5 -33.5t34.5 -82.5t-34.5 -84t-84.5 -35q-49 0 -83 34.5t-34 84.5q0 49 33.5 82.5t83.5 33.5zM752 1853q50 0 84 -33.5t34 -82.5q0 -50 -34.5 -84.5t-83.5 -34.5q-48 0 -82.5 35t-34.5 84t34.5 82.5t82.5 33.5z" />
    <glyph glyph-name="Igrave" unicode="&#xcc;" horiz-adv-x="491" 
d="M143 1378q0 23 16.5 39.5t39.5 16.5h96q23 0 39 -16.5t16 -39.5v-1323q0 -23 -16 -39t-39 -16h-96q-23 0 -39.5 16t-16.5 39v1323zM131 1898q47 0 66 -40l96 -207q6 -14 -2 -26.5t-23 -12.5h-65q-30 0 -45 24l-144 205q-12 19 -2 38t33 19h86z" />
    <glyph glyph-name="Iacute" unicode="&#xcd;" horiz-adv-x="491" 
d="M143 1378q0 23 16.5 39.5t39.5 16.5h96q23 0 39 -16.5t16 -39.5v-1323q0 -23 -16 -39t-39 -16h-96q-23 0 -39.5 16t-16.5 39v1323zM360 1898h86q23 0 33 -19t-2 -38l-143 -205q-15 -24 -45 -24h-66q-14 0 -22 13t-2 26l96 207q19 40 65 40z" />
    <glyph glyph-name="Icircumflex" unicode="&#xce;" horiz-adv-x="491" 
d="M143 1378q0 23 16.5 39.5t39.5 16.5h96q23 0 39 -16.5t16 -39.5v-1323q0 -23 -16 -39t-39 -16h-96q-23 0 -39.5 16t-16.5 39v1323zM526 1657q11 -13 4 -29t-24 -16h-84q-39 0 -57 30l-117 160l-117 -160q-21 -30 -59 -30h-82q-17 0 -25 16t2 29l170 213q19 28 58 28h106
q35 0 57 -28z" />
    <glyph glyph-name="Idieresis" unicode="&#xcf;" horiz-adv-x="491" 
d="M143 1378q0 23 16.5 39.5t39.5 16.5h96q23 0 39 -16.5t16 -39.5v-1323q0 -23 -16 -39t-39 -16h-96q-23 0 -39.5 16t-16.5 39v1323zM43 1853q50 0 84.5 -33.5t34.5 -82.5t-35 -84t-84 -35t-83 34.5t-34 84.5q0 49 33.5 82.5t83.5 33.5zM449 1853q50 0 84 -33.5t34 -82.5
q0 -50 -34.5 -84.5t-83.5 -34.5q-48 0 -82.5 35t-34.5 84t34.5 82.5t82.5 33.5z" />
    <glyph glyph-name="Eth" unicode="&#xd0;" horiz-adv-x="1466" 
d="M625 1434q178 0 321.5 -55t236.5 -151.5t142 -227t49 -283.5t-49 -283.5t-142 -227t-236.5 -151.5t-321.5 -55h-351q-22 0 -37.5 16t-15.5 39v588h-153q-20 0 -34 13.5t-14 33.5v53q0 20 14 34t34 14h153v587q0 23 15.5 39.5t37.5 16.5h351zM625 186q253 0 397.5 143.5
t144.5 387.5q0 243 -144.5 386.5t-397.5 143.5h-199v-456h315q19 0 32 -14t13 -34v-53q0 -20 -13 -33.5t-32 -13.5h-315v-457h199z" />
    <glyph glyph-name="Ntilde" unicode="&#xd1;" horiz-adv-x="1413" 
d="M1065 1378q0 23 16 39.5t39 16.5h97q22 0 37.5 -16.5t15.5 -39.5v-1323q0 -23 -15.5 -39t-37.5 -16h-78q-49 0 -74 39l-717 1018v-1002q0 -23 -15.5 -39t-37.5 -16h-96q-23 0 -39.5 16t-16.5 39v1323q0 23 16.5 39.5t39.5 16.5h75q48 0 76 -39l715 -1016v999zM930 1806
l51 -8q15 -3 23.5 -16.5t5.5 -28.5q-35 -149 -168 -149q-53 0 -133.5 33.5t-116.5 33.5q-50 0 -66 -53q-4 -12 -16.5 -19.5t-24.5 -5.5l-51 11q-17 3 -25.5 16t-5.5 27q39 149 168 149q47 0 128 -33.5t120 -33.5q54 0 70 53q3 12 15.5 19.5t25.5 4.5z" />
    <glyph glyph-name="Ograve" unicode="&#xd2;" horiz-adv-x="1640" 
d="M821 1458q208 0 375 -97.5t259.5 -266.5t92.5 -377t-92.5 -378t-259.5 -268t-375 -98q-209 0 -376.5 98t-260 268t-92.5 378t92.5 377t260 266.5t376.5 97.5zM821 166q121 0 221.5 46.5t164.5 124.5t99 176t35 204t-35 204t-99 176t-164.5 124.5t-221.5 46.5
t-221.5 -46.5t-164.5 -124.5t-99 -176t-35 -204t35 -204t99 -176t164.5 -124.5t221.5 -46.5zM725 1898q47 0 66 -40l96 -207q6 -14 -2 -26.5t-23 -12.5h-65q-30 0 -45 24l-144 205q-12 19 -2 38t33 19h86z" />
    <glyph glyph-name="Oacute" unicode="&#xd3;" horiz-adv-x="1640" 
d="M821 1458q208 0 375 -97.5t259.5 -266.5t92.5 -377t-92.5 -378t-259.5 -268t-375 -98q-209 0 -376.5 98t-260 268t-92.5 378t92.5 377t260 266.5t376.5 97.5zM821 166q121 0 221.5 46.5t164.5 124.5t99 176t35 204t-35 204t-99 176t-164.5 124.5t-221.5 46.5
t-221.5 -46.5t-164.5 -124.5t-99 -176t-35 -204t35 -204t99 -176t164.5 -124.5t221.5 -46.5zM913 1898h86q23 0 33 -19t-2 -38l-143 -205q-15 -24 -45 -24h-66q-14 0 -22 13t-2 26l96 207q19 40 65 40z" />
    <glyph glyph-name="Ocircumflex" unicode="&#xd4;" horiz-adv-x="1640" 
d="M821 1458q208 0 375 -97.5t259.5 -266.5t92.5 -377t-92.5 -378t-259.5 -268t-375 -98q-209 0 -376.5 98t-260 268t-92.5 378t92.5 377t260 266.5t376.5 97.5zM821 166q121 0 221.5 46.5t164.5 124.5t99 176t35 204t-35 204t-99 176t-164.5 124.5t-221.5 46.5
t-221.5 -46.5t-164.5 -124.5t-99 -176t-35 -204t35 -204t99 -176t164.5 -124.5t221.5 -46.5zM1100 1657q11 -13 3.5 -29t-24.5 -16h-84q-39 0 -57 30l-117 160l-116 -160q-21 -30 -60 -30h-82q-17 0 -25 16t3 29l170 213q19 28 57 28h106q36 0 58 -28z" />
    <glyph glyph-name="Otilde" unicode="&#xd5;" horiz-adv-x="1640" 
d="M821 1458q208 0 375 -97.5t259.5 -266.5t92.5 -377t-92.5 -378t-259.5 -268t-375 -98q-209 0 -376.5 98t-260 268t-92.5 378t92.5 377t260 266.5t376.5 97.5zM821 166q121 0 221.5 46.5t164.5 124.5t99 176t35 204t-35 204t-99 176t-164.5 124.5t-221.5 46.5
t-221.5 -46.5t-164.5 -124.5t-99 -176t-35 -204t35 -204t99 -176t164.5 -124.5t221.5 -46.5zM1042 1806l52 -8q15 -3 23 -16.5t5 -28.5q-35 -149 -168 -149q-53 0 -133 33.5t-116 33.5q-50 0 -66 -53q-4 -12 -16.5 -19.5t-24.5 -5.5l-51 11q-17 3 -25.5 16t-5.5 27
q39 149 168 149q48 0 129 -33.5t119 -33.5q53 0 69 53q3 12 15.5 19.5t25.5 4.5z" />
    <glyph glyph-name="Odieresis" unicode="&#xd6;" horiz-adv-x="1640" 
d="M821 1458q208 0 375 -97.5t259.5 -266.5t92.5 -377t-92.5 -378t-259.5 -268t-375 -98q-209 0 -376.5 98t-260 268t-92.5 378t92.5 377t260 266.5t376.5 97.5zM821 166q121 0 221.5 46.5t164.5 124.5t99 176t35 204t-35 204t-99 176t-164.5 124.5t-221.5 46.5
t-221.5 -46.5t-164.5 -124.5t-99 -176t-35 -204t35 -204t99 -176t164.5 -124.5t221.5 -46.5zM616 1853q50 0 84.5 -33.5t34.5 -82.5t-34.5 -84t-84.5 -35q-49 0 -82.5 34.5t-33.5 84.5q0 49 33 82.5t83 33.5zM1022 1853q50 0 84.5 -33.5t34.5 -82.5t-34.5 -84t-84.5 -35
q-48 0 -82.5 35t-34.5 84t34.5 82.5t82.5 33.5z" />
    <glyph glyph-name="multiply" unicode="&#xd7;" horiz-adv-x="942" 
d="M653 920q15 17 38 17t38 -17l53 -52q15 -17 15 -38.5t-15 -38.5l-182 -181l182 -180q15 -17 15 -40t-15 -38l-53 -51q-15 -17 -38 -17t-38 17l-182 180l-180 -180q-15 -17 -38 -17t-40 17l-51 51q-15 15 -15 38t15 40l180 180l-180 181q-15 17 -15 38.5t15 38.5l51 52
q17 17 40 17t38 -17l180 -181z" />
    <glyph glyph-name="Oslash" unicode="&#xd8;" horiz-adv-x="1640" 
d="M1415 1159q135 -193 135 -442q0 -208 -93 -377.5t-260.5 -267t-375.5 -97.5q-294 0 -497 187l-91 -82q-13 -12 -32.5 -11.5t-32.5 13.5l-37 43q-13 14 -12.5 32.5t14.5 30.5l94 86q-135 193 -135 443q0 156 54.5 293t150.5 236t232 156.5t292 57.5q295 0 498 -190l92 84
q14 12 33 11t31 -15l38 -41q12 -14 11 -33t-15 -31zM301 717q0 -163 80 -301l790 719q-143 133 -350 133q-121 0 -221.5 -46.5t-164.5 -124.5t-99 -176t-35 -204zM821 166q121 0 221.5 46.5t164.5 124.5t99 176t35 204q0 162 -79 301l-789 -719q139 -133 348 -133z" />
    <glyph glyph-name="Ugrave" unicode="&#xd9;" horiz-adv-x="1376" 
d="M1083 1434h95q23 0 39 -16.5t16 -39.5v-833q0 -278 -140.5 -424t-404.5 -146q-263 0 -404 146t-141 424v833q0 23 16.5 39.5t39.5 16.5h96q23 0 39 -16.5t16 -39.5v-796q0 -219 88 -316.5t250 -97.5q164 0 252 97.5t88 316.5v796q0 23 16 39.5t39 16.5zM614 1898
q47 0 66 -40l96 -207q6 -14 -1.5 -26.5t-22.5 -12.5h-66q-30 0 -45 24l-143 205q-12 19 -2.5 38t32.5 19h86z" />
    <glyph glyph-name="Uacute" unicode="&#xda;" horiz-adv-x="1376" 
d="M1083 1434h95q23 0 39 -16.5t16 -39.5v-833q0 -278 -140.5 -424t-404.5 -146q-263 0 -404 146t-141 424v833q0 23 16.5 39.5t39.5 16.5h96q23 0 39 -16.5t16 -39.5v-796q0 -219 88 -316.5t250 -97.5q164 0 252 97.5t88 316.5v796q0 23 16 39.5t39 16.5zM782 1898h86
q23 0 33 -19t-2 -38l-143 -205q-15 -24 -45 -24h-66q-14 0 -22 13t-2 26l96 207q19 40 65 40z" />
    <glyph glyph-name="Ucircumflex" unicode="&#xdb;" horiz-adv-x="1376" 
d="M1083 1434h95q23 0 39 -16.5t16 -39.5v-833q0 -278 -140.5 -424t-404.5 -146q-263 0 -404 146t-141 424v833q0 23 16.5 39.5t39.5 16.5h96q23 0 39 -16.5t16 -39.5v-796q0 -219 88 -316.5t250 -97.5q164 0 252 97.5t88 316.5v796q0 23 16 39.5t39 16.5zM967 1657
q11 -13 3.5 -29t-24.5 -16h-84q-39 0 -57 30l-117 160l-117 -160q-21 -30 -59 -30h-82q-17 0 -25 16t3 29l170 213q19 28 57 28h106q36 0 58 -28z" />
    <glyph glyph-name="Udieresis" unicode="&#xdc;" horiz-adv-x="1376" 
d="M1083 1434h95q23 0 39 -16.5t16 -39.5v-833q0 -278 -140.5 -424t-404.5 -146q-263 0 -404 146t-141 424v833q0 23 16.5 39.5t39.5 16.5h96q23 0 39 -16.5t16 -39.5v-796q0 -219 88 -316.5t250 -97.5q164 0 252 97.5t88 316.5v796q0 23 16 39.5t39 16.5zM485 1853
q50 0 84.5 -33.5t34.5 -82.5t-35 -84t-84 -35t-82.5 34.5t-33.5 84.5q0 49 33.5 82.5t82.5 33.5zM891 1853q50 0 84.5 -33.5t34.5 -82.5t-35 -84t-84 -35q-48 0 -82.5 35t-34.5 84t34.5 82.5t82.5 33.5z" />
    <glyph glyph-name="Yacute" unicode="&#xdd;" horiz-adv-x="1355" 
d="M1251 1434q22 0 32 -18.5t-1 -37.5l-502 -841v-482q0 -23 -16 -39t-39 -16h-94q-23 0 -39.5 16t-16.5 39v482l-501 841q-11 19 -1 37.5t31 18.5h115q56 0 78 -45l381 -668l381 668q25 45 78 45h114zM793 1898h86q23 0 32.5 -19t-2.5 -38l-143 -205q-15 -24 -45 -24h-66
q-14 0 -22 13t-2 26l96 207q19 40 66 40z" />
    <glyph glyph-name="Thorn" unicode="&#xde;" horiz-adv-x="1200" 
d="M602 1184q236 0 376 -132.5t140 -334.5t-140 -334.5t-376 -132.5h-254v-195q0 -23 -16 -39t-39 -16h-94q-23 0 -39.5 16t-16.5 39v1323q0 23 16.5 39.5t39.5 16.5h94q23 0 39 -16.5t16 -39.5v-194h254zM602 436q143 0 225 76.5t82 204.5q0 127 -82 203.5t-225 76.5h-254
v-561h254z" />
    <glyph glyph-name="germandbls" unicode="&#xdf;" horiz-adv-x="1185" 
d="M834 774q133 -40 206.5 -132t73.5 -226q0 -94 -35 -176.5t-99.5 -142t-163.5 -88t-218 -15.5q-17 3 -28 15.5t-11 29.5v80q0 20 13.5 33.5t33.5 13.5q150 -7 233 62.5t83 189.5q0 64 -24.5 111t-67.5 74t-95.5 39.5t-116.5 12.5h-24q-14 0 -24.5 11t-10.5 26v99
q0 14 10 24t23 10q108 9 161.5 72t53.5 164q0 95 -60 158t-176 63q-115 0 -182 -79t-67 -216v-932q0 -23 -16.5 -39t-39.5 -16h-78q-23 0 -39 16t-16 39v965q0 191 128 315.5t310 124.5q197 0 315 -110t118 -275q0 -98 -44.5 -175.5t-125.5 -125.5z" />
    <glyph glyph-name="agrave" unicode="&#xe0;" horiz-adv-x="1286" 
d="M965 983q0 23 16 39t39 16h78q23 0 39 -16t16 -39v-928q0 -23 -16 -39t-39 -16h-78q-23 0 -39 16t-16 39v90q-135 -170 -377 -170q-94 0 -177.5 30.5t-144.5 83t-105.5 121.5t-66.5 148t-22 160q0 103 35.5 200t100 174t164 124t216.5 47q242 0 377 -170v90zM606 152
q167 0 263 103.5t96 262.5q0 160 -96 264.5t-263 104.5q-158 0 -251 -103.5t-93 -265.5q0 -160 93 -263t251 -103zM569 1489q46 0 66 -41l96 -207q6 -14 -1.5 -26.5t-22.5 -12.5h-66q-29 0 -45 25l-143 205q-12 19 -2.5 38t32.5 19h86z" />
    <glyph glyph-name="aacute" unicode="&#xe1;" horiz-adv-x="1286" 
d="M965 983q0 23 16 39t39 16h78q23 0 39 -16t16 -39v-928q0 -23 -16 -39t-39 -16h-78q-23 0 -39 16t-16 39v90q-135 -170 -377 -170q-94 0 -177.5 30.5t-144.5 83t-105.5 121.5t-66.5 148t-22 160q0 103 35.5 200t100 174t164 124t216.5 47q242 0 377 -170v90zM606 152
q167 0 263 103.5t96 262.5q0 160 -96 264.5t-263 104.5q-158 0 -251 -103.5t-93 -265.5q0 -160 93 -263t251 -103zM737 1489h86q23 0 33 -19t-2 -38l-143 -205q-16 -25 -45 -25h-66q-14 0 -22.5 13t-2.5 26l97 207q20 41 65 41z" />
    <glyph glyph-name="acircumflex" unicode="&#xe2;" horiz-adv-x="1286" 
d="M965 983q0 23 16 39t39 16h78q23 0 39 -16t16 -39v-928q0 -23 -16 -39t-39 -16h-78q-23 0 -39 16t-16 39v90q-135 -170 -377 -170q-94 0 -177.5 30.5t-144.5 83t-105.5 121.5t-66.5 148t-22 160q0 103 35.5 200t100 174t164 124t216.5 47q242 0 377 -170v90zM606 152
q167 0 263 103.5t96 262.5q0 160 -96 264.5t-263 104.5q-158 0 -251 -103.5t-93 -265.5q0 -160 93 -263t251 -103zM903 1247q11 -13 4 -29t-24 -16h-84q-39 0 -58 31l-116 160l-117 -160q-22 -31 -59 -31h-82q-17 0 -25 16t2 29l170 213q19 29 57 29h107q34 0 57 -29z" />
    <glyph glyph-name="atilde" unicode="&#xe3;" horiz-adv-x="1286" 
d="M965 983q0 23 16 39t39 16h78q23 0 39 -16t16 -39v-928q0 -23 -16 -39t-39 -16h-78q-23 0 -39 16t-16 39v90q-135 -170 -377 -170q-94 0 -177.5 30.5t-144.5 83t-105.5 121.5t-66.5 148t-22 160q0 103 35.5 200t100 174t164 124t216.5 47q242 0 377 -170v90zM606 152
q167 0 263 103.5t96 262.5q0 160 -96 264.5t-263 104.5q-158 0 -251 -103.5t-93 -265.5q0 -160 93 -263t251 -103zM846 1397l51 -8q15 -3 23.5 -17t5.5 -29q-35 -149 -168 -149q-53 0 -133.5 34t-116.5 34q-50 0 -66 -54q-4 -12 -16.5 -19t-24.5 -5l-51 10q-17 3 -25.5 16
t-5.5 27q39 149 168 149q47 0 128 -33.5t120 -33.5q54 0 70 53q3 12 15.5 20t25.5 5z" />
    <glyph glyph-name="adieresis" unicode="&#xe4;" horiz-adv-x="1286" 
d="M965 983q0 23 16 39t39 16h78q23 0 39 -16t16 -39v-928q0 -23 -16 -39t-39 -16h-78q-23 0 -39 16t-16 39v90q-135 -170 -377 -170q-94 0 -177.5 30.5t-144.5 83t-105.5 121.5t-66.5 148t-22 160q0 103 35.5 200t100 174t164 124t216.5 47q242 0 377 -170v90zM606 152
q167 0 263 103.5t96 262.5q0 160 -96 264.5t-263 104.5q-158 0 -251 -103.5t-93 -265.5q0 -160 93 -263t251 -103zM420 1444q50 0 84.5 -34t34.5 -83t-34.5 -84t-84.5 -35q-49 0 -83 34.5t-34 84.5q0 49 33.5 83t83.5 34zM825 1444q50 0 84.5 -34t34.5 -83t-35 -84t-84 -35
q-47 0 -81.5 35t-34.5 84t34 83t82 34z" />
    <glyph glyph-name="aring" unicode="&#xe5;" horiz-adv-x="1286" 
d="M965 983q0 23 16 39t39 16h78q23 0 39 -16t16 -39v-928q0 -23 -16 -39t-39 -16h-78q-23 0 -39 16t-16 39v90q-135 -170 -377 -170q-94 0 -177.5 30.5t-144.5 83t-105.5 121.5t-66.5 148t-22 160q0 103 35.5 200t100 174t164 124t216.5 47q242 0 377 -170v90zM606 152
q167 0 263 103.5t96 262.5q0 160 -96 264.5t-263 104.5q-158 0 -251 -103.5t-93 -265.5q0 -160 93 -263t251 -103zM643 1589q93 0 158 -65t65 -158t-65 -158t-158 -65q-92 0 -157.5 65.5t-65.5 157.5t65.5 157.5t157.5 65.5zM643 1251q47 0 81 34t34 81q0 46 -34 79.5
t-81 33.5q-46 0 -79.5 -33.5t-33.5 -79.5q0 -47 33.5 -81t79.5 -34z" />
    <glyph glyph-name="ae" unicode="&#xe6;" horiz-adv-x="2119" 
d="M1540 1063q100 0 192.5 -38.5t164 -108t112.5 -175.5t37 -231q-2 -29 -23.5 -50.5t-50.5 -21.5h-758q22 -131 115.5 -208.5t243.5 -77.5t244 88q14 12 32 13t33 -9l64 -39q22 -14 25.5 -39.5t-15.5 -44.5q-143 -146 -383 -146q-266 0 -420 175v-95q0 -23 -16 -39t-39 -16
h-78q-23 0 -39 16t-16 39v90q-135 -170 -377 -170q-94 0 -177.5 30.5t-144.5 83t-105.5 121.5t-66.5 148t-22 160q0 103 35.5 200t100 174t164 124t216.5 47q242 0 377 -170v90q0 23 16 39t39 16h78q23 0 39 -16t16 -39v-92q70 81 170.5 126.5t216.5 45.5zM606 152
q167 0 263 103.5t96 262.5q0 160 -96 264.5t-263 104.5q-158 0 -251 -103.5t-93 -265.5q0 -160 93 -263t251 -103zM1214 600h635q-19 133 -99 210t-210 77q-132 0 -218.5 -78t-107.5 -209z" />
    <glyph glyph-name="ccedilla" unicode="&#xe7;" horiz-adv-x="1118" 
d="M616 152q85 0 157 34t118 95q12 15 32.5 19t37.5 -5l63 -35q22 -12 26.5 -37t-10.5 -45q-74 -95 -184 -149t-240 -54h-8l-39 -77q101 10 169.5 -38.5t68.5 -152.5q0 -96 -69 -158.5t-183 -62.5q-75 0 -141 27q-15 4 -21 20t2 31l29 51q6 11 19 15.5t26 0.5q31 -14 74 -14
q62 0 97.5 29.5t35.5 77.5q0 43 -27.5 66.5t-77.5 23.5q-36 0 -65 -13q-24 -7 -41 13l-16 22q-14 21 -5 39l56 111q-189 40 -308.5 188.5t-119.5 343.5q0 149 70 274t195.5 198t278.5 73q130 0 240 -54t184 -149q15 -20 10.5 -45t-26.5 -37l-63 -35q-17 -9 -37.5 -4.5
t-32.5 19.5q-46 61 -118 95t-157 34q-153 0 -252.5 -104.5t-99.5 -264.5q0 -159 99.5 -262.5t252.5 -103.5z" />
    <glyph glyph-name="egrave" unicode="&#xe8;" horiz-adv-x="1173" 
d="M596 1063q79 0 154.5 -24t140 -72t112.5 -113.5t74 -154.5t23 -189q0 -29 -21.5 -50.5t-50.5 -21.5h-760q24 -131 117.5 -208.5t243.5 -77.5q145 0 243 88q14 12 32.5 13t33.5 -9l61 -39q23 -13 26.5 -39t-13.5 -45q-146 -146 -383 -146q-167 0 -295.5 73.5t-195 196.5
t-66.5 273q0 149 66.5 273.5t187.5 198t270 73.5zM268 600h637q-19 133 -99 210t-210 77q-132 0 -219 -78t-109 -209zM512 1489q46 0 66 -41l96 -207q6 -14 -2 -26.5t-23 -12.5h-65q-29 0 -45 25l-144 205q-12 19 -2 38t33 19h86z" />
    <glyph glyph-name="eacute" unicode="&#xe9;" horiz-adv-x="1173" 
d="M596 1063q79 0 154.5 -24t140 -72t112.5 -113.5t74 -154.5t23 -189q0 -29 -21.5 -50.5t-50.5 -21.5h-760q24 -131 117.5 -208.5t243.5 -77.5q145 0 243 88q14 12 32.5 13t33.5 -9l61 -39q23 -13 26.5 -39t-13.5 -45q-146 -146 -383 -146q-167 0 -295.5 73.5t-195 196.5
t-66.5 273q0 149 66.5 273.5t187.5 198t270 73.5zM268 600h637q-19 133 -99 210t-210 77q-132 0 -219 -78t-109 -209zM680 1489h86q23 0 33 -19t-2 -38l-144 -205q-16 -25 -45 -25h-65q-14 0 -22.5 13t-2.5 26l96 207q20 41 66 41z" />
    <glyph glyph-name="ecircumflex" unicode="&#xea;" horiz-adv-x="1173" 
d="M596 1063q79 0 154.5 -24t140 -72t112.5 -113.5t74 -154.5t23 -189q0 -29 -21.5 -50.5t-50.5 -21.5h-760q24 -131 117.5 -208.5t243.5 -77.5q145 0 243 88q14 12 32.5 13t33.5 -9l61 -39q23 -13 26.5 -39t-13.5 -45q-146 -146 -383 -146q-167 0 -295.5 73.5t-195 196.5
t-66.5 273q0 149 66.5 273.5t187.5 198t270 73.5zM268 600h637q-19 133 -99 210t-210 77q-132 0 -219 -78t-109 -209zM866 1247q11 -13 4 -29t-24 -16h-84q-38 0 -57 31l-117 160l-117 -160q-22 -31 -59 -31h-82q-17 0 -25 16t2 29l170 213q19 29 58 29h106q34 0 57 -29z
" />
    <glyph glyph-name="edieresis" unicode="&#xeb;" horiz-adv-x="1173" 
d="M596 1063q79 0 154.5 -24t140 -72t112.5 -113.5t74 -154.5t23 -189q0 -29 -21.5 -50.5t-50.5 -21.5h-760q24 -131 117.5 -208.5t243.5 -77.5q145 0 243 88q14 12 32.5 13t33.5 -9l61 -39q23 -13 26.5 -39t-13.5 -45q-146 -146 -383 -146q-167 0 -295.5 73.5t-195 196.5
t-66.5 273q0 149 66.5 273.5t187.5 198t270 73.5zM268 600h637q-19 133 -99 210t-210 77q-132 0 -219 -78t-109 -209zM383 1444q50 0 84.5 -34t34.5 -83t-35 -84t-84 -35t-83 34.5t-34 84.5q0 49 34 83t83 34zM788 1444q50 0 84.5 -34t34.5 -83t-34.5 -84t-84.5 -35
q-47 0 -81.5 35t-34.5 84t34 83t82 34z" />
    <glyph glyph-name="igrave" unicode="&#xec;" horiz-adv-x="454" 
d="M190 0q-23 0 -39 16t-16 39v928q0 23 16 39t39 16h76q23 0 39.5 -16t16.5 -39v-928q0 -23 -16.5 -39t-39.5 -16h-76zM113 1489q45 0 65 -41l96 -207q6 -14 -1.5 -26.5t-22.5 -12.5h-66q-29 0 -45 25l-143 205q-12 19 -2 38t33 19h86z" />
    <glyph glyph-name="iacute" unicode="&#xed;" horiz-adv-x="454" 
d="M190 0q-23 0 -39 16t-16 39v928q0 23 16 39t39 16h76q23 0 39.5 -16t16.5 -39v-928q0 -23 -16.5 -39t-39.5 -16h-76zM342 1489h86q23 0 33 -19t-2 -38l-144 -205q-16 -25 -45 -25h-65q-14 0 -22.5 13t-2.5 26l96 207q20 41 66 41z" />
    <glyph glyph-name="icircumflex" unicode="&#xee;" horiz-adv-x="454" 
d="M190 0q-23 0 -39 16t-16 39v928q0 23 16 39t39 16h76q23 0 39.5 -16t16.5 -39v-928q0 -23 -16.5 -39t-39.5 -16h-76zM508 1247q11 -13 3.5 -29t-24.5 -16h-84q-38 0 -57 31l-117 160l-116 -160q-22 -31 -60 -31h-82q-17 0 -25 16t3 29l170 213q19 29 57 29h107
q34 0 57 -29z" />
    <glyph glyph-name="idieresis" unicode="&#xef;" horiz-adv-x="454" 
d="M190 0q-23 0 -39 16t-16 39v928q0 23 16 39t39 16h76q23 0 39.5 -16t16.5 -39v-928q0 -23 -16.5 -39t-39.5 -16h-76zM25 1444q50 0 84 -34t34 -83q0 -50 -34.5 -84.5t-83.5 -34.5t-83 34.5t-34 84.5q0 49 34 83t83 34zM430 1444q50 0 84.5 -34t34.5 -83t-34.5 -84
t-84.5 -35q-48 0 -82.5 35t-34.5 84t34.5 83t82.5 34z" />
    <glyph glyph-name="eth" unicode="&#xf0;" horiz-adv-x="1210" 
d="M788 1257q351 -344 351 -759q0 -233 -145.5 -378t-387.5 -145q-235 0 -384.5 141t-149.5 363q0 108 42 200.5t112.5 154.5t164.5 96.5t197 34.5q83 0 157.5 -24.5t112.5 -55.5h2q-66 142 -231 293l-238 -115q-14 -7 -28.5 -2.5t-20.5 18.5l-16 33q-6 14 -1 27.5t17 21.5
l195 94q-79 63 -179 115q-19 9 -20 29.5t16 32.5l58 38q50 31 98 3q93 -56 190 -138l203 99q14 7 28.5 2t20.5 -19l17 -33q6 -14 0.5 -27.5t-17.5 -21.5zM606 152q161 0 250.5 96t89.5 231q0 145 -94.5 236.5t-245.5 91.5q-83 0 -149.5 -27.5t-108 -74t-63 -104.5
t-21.5 -122t21.5 -122t63 -104t108 -73.5t149.5 -27.5z" />
    <glyph glyph-name="ntilde" unicode="&#xf1;" 
d="M639 1063q171 0 285 -122.5t114 -291.5v-594q0 -23 -16 -39t-39 -16h-78q-22 0 -37.5 16t-15.5 39v541q0 58 -13.5 107.5t-42 92t-80.5 67t-122 24.5t-125.5 -28t-86.5 -72.5t-47 -93.5t-16 -97v-541q0 -23 -16 -39t-39 -16h-78q-23 0 -38 16t-15 39v928q0 23 15 39
t38 16h78q23 0 39 -16t16 -39v-90q113 170 320 170zM809 1397l51 -8q15 -3 23.5 -17t5.5 -29q-35 -149 -168 -149q-53 0 -133.5 34t-116.5 34q-49 0 -65 -54q-4 -12 -16.5 -19t-24.5 -5l-52 10q-17 3 -25 16t-5 27q39 149 168 149q47 0 128 -33.5t119 -33.5q54 0 70 53
q3 12 15.5 20t25.5 5z" />
    <glyph glyph-name="ograve" unicode="&#xf2;" horiz-adv-x="1232" 
d="M616 1063q115 0 217 -43.5t173.5 -117t113 -173.5t41.5 -211t-41.5 -211t-113 -173.5t-173.5 -117t-217 -43.5q-153 0 -278.5 73.5t-195.5 198.5t-70 273t70 273t195.5 198.5t278.5 73.5zM616 152q154 0 254.5 104t100.5 262q0 160 -100.5 264.5t-254.5 104.5
q-153 0 -252.5 -104.5t-99.5 -264.5q0 -159 99.5 -262.5t252.5 -103.5zM502 1489q45 0 65 -41l97 -207q6 -14 -2 -26.5t-23 -12.5h-66q-29 0 -45 25l-143 205q-12 19 -2 38t33 19h86z" />
    <glyph glyph-name="oacute" unicode="&#xf3;" horiz-adv-x="1232" 
d="M616 1063q115 0 217 -43.5t173.5 -117t113 -173.5t41.5 -211t-41.5 -211t-113 -173.5t-173.5 -117t-217 -43.5q-153 0 -278.5 73.5t-195.5 198.5t-70 273t70 273t195.5 198.5t278.5 73.5zM616 152q154 0 254.5 104t100.5 262q0 160 -100.5 264.5t-254.5 104.5
q-153 0 -252.5 -104.5t-99.5 -264.5q0 -159 99.5 -262.5t252.5 -103.5zM711 1489h86q23 0 32.5 -19t-2.5 -38l-143 -205q-16 -25 -45 -25h-66q-14 0 -22 13t-2 26l96 207q20 41 66 41z" />
    <glyph glyph-name="ocircumflex" unicode="&#xf4;" horiz-adv-x="1232" 
d="M616 1063q115 0 217 -43.5t173.5 -117t113 -173.5t41.5 -211t-41.5 -211t-113 -173.5t-173.5 -117t-217 -43.5q-153 0 -278.5 73.5t-195.5 198.5t-70 273t70 273t195.5 198.5t278.5 73.5zM616 152q154 0 254.5 104t100.5 262q0 160 -100.5 264.5t-254.5 104.5
q-153 0 -252.5 -104.5t-99.5 -264.5q0 -159 99.5 -262.5t252.5 -103.5zM895 1247q11 -13 3.5 -29t-24.5 -16h-83q-39 0 -58 31l-117 160l-116 -160q-22 -31 -60 -31h-82q-17 0 -25 16t3 29l170 213q19 29 57 29h107q34 0 57 -29z" />
    <glyph glyph-name="otilde" unicode="&#xf5;" horiz-adv-x="1232" 
d="M616 1063q115 0 217 -43.5t173.5 -117t113 -173.5t41.5 -211t-41.5 -211t-113 -173.5t-173.5 -117t-217 -43.5q-153 0 -278.5 73.5t-195.5 198.5t-70 273t70 273t195.5 198.5t278.5 73.5zM616 152q154 0 254.5 104t100.5 262q0 160 -100.5 264.5t-254.5 104.5
q-153 0 -252.5 -104.5t-99.5 -264.5q0 -159 99.5 -262.5t252.5 -103.5zM838 1397l51 -8q15 -3 23.5 -17t5.5 -29q-35 -149 -168 -149q-53 0 -133.5 34t-116.5 34q-50 0 -66 -54q-4 -12 -16.5 -19t-24.5 -5l-51 10q-17 3 -25.5 16t-5.5 27q39 149 168 149q47 0 128 -33.5
t120 -33.5q54 0 70 53q3 12 15.5 20t25.5 5z" />
    <glyph glyph-name="odieresis" unicode="&#xf6;" horiz-adv-x="1232" 
d="M616 1063q115 0 217 -43.5t173.5 -117t113 -173.5t41.5 -211t-41.5 -211t-113 -173.5t-173.5 -117t-217 -43.5q-153 0 -278.5 73.5t-195.5 198.5t-70 273t70 273t195.5 198.5t278.5 73.5zM616 152q154 0 254.5 104t100.5 262q0 160 -100.5 264.5t-254.5 104.5
q-153 0 -252.5 -104.5t-99.5 -264.5q0 -159 99.5 -262.5t252.5 -103.5zM412 1444q50 0 84 -34t34 -83q0 -50 -34.5 -84.5t-83.5 -34.5t-83 34.5t-34 84.5q0 49 33.5 83t83.5 34zM817 1444q50 0 84.5 -34t34.5 -83t-35 -84t-84 -35q-48 0 -82.5 35t-34.5 84t34.5 83t82.5 34z
" />
    <glyph glyph-name="divide" unicode="&#xf7;" horiz-adv-x="1089" 
d="M143 647q0 23 16 38t40 15h692q23 0 39 -15t16 -38v-74q0 -23 -16 -39t-39 -16h-692q-23 0 -39.5 16t-16.5 39v74zM545 913q-50 0 -85.5 35t-35.5 84q0 51 35.5 86t85.5 35t85.5 -35t35.5 -86q0 -49 -35.5 -84t-85.5 -35zM545 307q50 0 85.5 -35t35.5 -84
q0 -51 -35.5 -85.5t-85.5 -34.5t-85.5 34.5t-35.5 85.5q0 49 35.5 84t85.5 35z" />
    <glyph glyph-name="oslash" unicode="&#xf8;" horiz-adv-x="1232" 
d="M1057 846q104 -145 104 -328q0 -111 -41.5 -211t-113 -173t-173.5 -116t-217 -43q-212 0 -364 136l-76 -68q-12 -10 -27 -9.5t-26 11.5l-25 27q-9 10 -8.5 26t12.5 25l76 70q-106 143 -106 325q0 149 70 274t195.5 198t278.5 73q214 0 367 -137l76 69q11 10 25.5 9.5
t25.5 -11.5l25 -26q10 -11 9.5 -27t-11.5 -25zM264 518q0 -114 51 -199l533 484q-97 84 -232 84q-153 0 -252.5 -104.5t-99.5 -264.5zM616 152q154 0 254.5 104t100.5 262q0 113 -53 201l-533 -486q97 -81 231 -81z" />
    <glyph glyph-name="ugrave" unicode="&#xf9;" 
d="M907 1038h78q22 0 37.5 -16t15.5 -39v-928q0 -23 -15.5 -39t-37.5 -16h-78q-23 0 -39 16t-16 39v90q-110 -170 -320 -170q-171 0 -285 122.5t-114 291.5v594q0 23 16 39t39 16h78q22 0 37.5 -16t15.5 -39v-541q0 -57 13.5 -107t42.5 -92t81 -66.5t122 -24.5t125 27.5
t86.5 72t47 93t15.5 97.5v541q0 23 16 39t39 16zM512 1489q46 0 66 -41l96 -207q6 -14 -2 -26.5t-23 -12.5h-65q-29 0 -45 25l-144 205q-12 19 -2 38t33 19h86z" />
    <glyph glyph-name="uacute" unicode="&#xfa;" 
d="M907 1038h78q22 0 37.5 -16t15.5 -39v-928q0 -23 -15.5 -39t-37.5 -16h-78q-23 0 -39 16t-16 39v90q-110 -170 -320 -170q-171 0 -285 122.5t-114 291.5v594q0 23 16 39t39 16h78q22 0 37.5 -16t15.5 -39v-541q0 -57 13.5 -107t42.5 -92t81 -66.5t122 -24.5t125 27.5
t86.5 72t47 93t15.5 97.5v541q0 23 16 39t39 16zM680 1489h86q23 0 33 -19t-2 -38l-144 -205q-16 -25 -45 -25h-65q-14 0 -22.5 13t-2.5 26l96 207q20 41 66 41z" />
    <glyph glyph-name="ucircumflex" unicode="&#xfb;" 
d="M907 1038h78q22 0 37.5 -16t15.5 -39v-928q0 -23 -15.5 -39t-37.5 -16h-78q-23 0 -39 16t-16 39v90q-110 -170 -320 -170q-171 0 -285 122.5t-114 291.5v594q0 23 16 39t39 16h78q22 0 37.5 -16t15.5 -39v-541q0 -57 13.5 -107t42.5 -92t81 -66.5t122 -24.5t125 27.5
t86.5 72t47 93t15.5 97.5v541q0 23 16 39t39 16zM866 1247q11 -13 4 -29t-24 -16h-84q-38 0 -57 31l-117 160l-117 -160q-22 -31 -59 -31h-82q-17 0 -25 16t2 29l170 213q19 29 58 29h106q34 0 57 -29z" />
    <glyph glyph-name="udieresis" unicode="&#xfc;" 
d="M907 1038h78q22 0 37.5 -16t15.5 -39v-928q0 -23 -15.5 -39t-37.5 -16h-78q-23 0 -39 16t-16 39v90q-110 -170 -320 -170q-171 0 -285 122.5t-114 291.5v594q0 23 16 39t39 16h78q22 0 37.5 -16t15.5 -39v-541q0 -57 13.5 -107t42.5 -92t81 -66.5t122 -24.5t125 27.5
t86.5 72t47 93t15.5 97.5v541q0 23 16 39t39 16zM381 1444q50 0 84.5 -34t34.5 -83t-35 -84t-84 -35t-83 34.5t-34 84.5q0 49 34 83t83 34zM786 1444q50 0 84.5 -34t34.5 -83t-34.5 -84t-84.5 -35q-47 0 -81.5 35t-34.5 84t34 83t82 34z" />
    <glyph glyph-name="yacute" unicode="&#xfd;" horiz-adv-x="1099" 
d="M834 991q7 21 26 34t41 13h92q23 0 36.5 -20t4.5 -43q-328 -833 -387 -975q-81 -201 -167.5 -298t-221.5 -97q-35 0 -51 2q-17 0 -29 13t-12 32v78q0 19 12 32t31 13q89 3 148.5 62t117.5 216q-10 27 -171 392t-236 530q-9 22 4.5 42.5t38.5 20.5h90q22 0 40 -12.5
t25 -32.5l301 -704zM664 1489h86q23 0 32.5 -19t-2.5 -38l-143 -205q-16 -25 -45 -25h-66q-14 0 -22 13t-2 26l96 207q20 41 66 41z" />
    <glyph glyph-name="thorn" unicode="&#xfe;" horiz-adv-x="1286" 
d="M698 1063q117 0 217 -47t165 -124t101 -174t36 -200q0 -81 -22.5 -160t-67.5 -148t-106 -121.5t-145 -83t-178 -30.5q-238 0 -376 170v-485q0 -23 -16.5 -39t-39.5 -16h-78q-22 0 -37.5 16t-15.5 39v1718q0 23 15.5 39.5t37.5 16.5h78q23 0 39.5 -16.5t16.5 -39.5v-485
q138 170 376 170zM680 152q158 0 251 103t93 263q0 162 -93 265.5t-251 103.5q-166 0 -262 -104.5t-96 -264.5q0 -159 96 -262.5t262 -103.5z" />
    <glyph glyph-name="ydieresis" unicode="&#xff;" horiz-adv-x="1099" 
d="M834 991q7 21 26 34t41 13h92q23 0 36.5 -20t4.5 -43q-328 -833 -387 -975q-81 -201 -167.5 -298t-221.5 -97q-35 0 -51 2q-17 0 -29 13t-12 32v78q0 19 12 32t31 13q89 3 148.5 62t117.5 216q-10 27 -171 392t-236 530q-9 22 4.5 42.5t38.5 20.5h90q22 0 40 -12.5
t25 -32.5l301 -704zM346 1444q50 0 84.5 -34t34.5 -83t-34.5 -84t-84.5 -35q-49 0 -83 34.5t-34 84.5q0 49 33.5 83t83.5 34zM752 1444q50 0 84 -34t34 -83q0 -50 -34.5 -84.5t-83.5 -34.5q-48 0 -82.5 35t-34.5 84t34.5 83t82.5 34z" />
    <glyph glyph-name="Amacron" unicode="&#x100;" horiz-adv-x="1380" 
d="M1169 0q-24 0 -42.5 13.5t-26.5 35.5l-105 297h-614l-105 -297q-8 -22 -26 -35.5t-41 -13.5h-119q-19 0 -29.5 15.5t-3.5 33.5l498 1337q7 22 26 35t42 13h131q50 0 67 -48l500 -1337q6 -19 -5 -34t-30 -15h-117zM449 532h481l-242 682zM412 1763q0 15 11 26t26 11h485
q15 0 26 -11t11 -26v-71q0 -15 -11 -26t-26 -11h-485q-15 0 -26 11t-11 26v71z" />
    <glyph glyph-name="amacron" unicode="&#x101;" horiz-adv-x="1286" 
d="M965 983q0 23 16 39t39 16h78q23 0 39 -16t16 -39v-928q0 -23 -16 -39t-39 -16h-78q-23 0 -39 16t-16 39v90q-135 -170 -377 -170q-94 0 -177.5 30.5t-144.5 83t-105.5 121.5t-66.5 148t-22 160q0 103 35.5 200t100 174t164 124t216.5 47q242 0 377 -170v90zM606 152
q167 0 263 103.5t96 262.5q0 160 -96 264.5t-263 104.5q-158 0 -251 -103.5t-93 -265.5q0 -160 93 -263t251 -103zM344 1354q0 15 11 26t26 11h485q15 0 26 -11t11 -26v-72q0 -15 -11 -26t-26 -11h-485q-15 0 -26 11t-11 26v72z" />
    <glyph glyph-name="Abreve" unicode="&#x102;" horiz-adv-x="1380" 
d="M1169 0q-24 0 -42.5 13.5t-26.5 35.5l-105 297h-614l-105 -297q-8 -22 -26 -35.5t-41 -13.5h-119q-19 0 -29.5 15.5t-3.5 33.5l498 1337q7 22 26 35t42 13h131q50 0 67 -48l500 -1337q6 -19 -5 -34t-30 -15h-117zM449 532h481l-242 682zM879 1874h67q17 0 27.5 -14
t7.5 -31q-17 -102 -94.5 -163.5t-194.5 -61.5t-194.5 61.5t-94.5 163.5q-3 17 7.5 31t27.5 14h68q13 0 23.5 -9t13.5 -22q10 -46 47.5 -79t101.5 -33t102 33t48 79q3 13 13.5 22t23.5 9z" />
    <glyph glyph-name="abreve" unicode="&#x103;" horiz-adv-x="1286" 
d="M965 983q0 23 16 39t39 16h78q23 0 39 -16t16 -39v-928q0 -23 -16 -39t-39 -16h-78q-23 0 -39 16t-16 39v90q-135 -170 -377 -170q-94 0 -177.5 30.5t-144.5 83t-105.5 121.5t-66.5 148t-22 160q0 103 35.5 200t100 174t164 124t216.5 47q242 0 377 -170v90zM606 152
q167 0 263 103.5t96 262.5q0 160 -96 264.5t-263 104.5q-158 0 -251 -103.5t-93 -265.5q0 -160 93 -263t251 -103zM831 1464h68q17 0 27.5 -14t7.5 -31q-17 -102 -94.5 -163.5t-194.5 -61.5t-194.5 61.5t-94.5 163.5q-3 17 7.5 31t27.5 14h68q13 0 23.5 -9t13.5 -21
q10 -46 48 -79.5t101 -33.5q64 0 102 33.5t48 79.5q3 13 13 21.5t23 8.5z" />
    <glyph glyph-name="Aogonek" unicode="&#x104;" horiz-adv-x="1380" 
d="M1171 -240q0 -52 32 -80.5t97 -27.5q15 1 26 -9.5t11 -25.5v-63q0 -14 -8.5 -24t-21.5 -11q-28 -4 -47 -4q-103 0 -164.5 56t-61.5 144t58 163.5t131 121.5h-56q-23 0 -41 13.5t-26 35.5l-105 297h-614l-105 -297q-8 -22 -26 -35.5t-41 -13.5h-119q-19 0 -29.5 15.5
t-3.5 33.5l498 1337q7 22 26 35t42 13h131q50 0 67 -48l502 -1347q13 -38 -18 -62q-60 -45 -97 -104t-37 -113zM446 532h482l-240 682z" />
    <glyph glyph-name="aogonek" unicode="&#x105;" horiz-adv-x="1286" 
d="M1153 29q0 -27 -23 -43q-64 -47 -103.5 -108t-39.5 -118q0 -52 32 -80.5t97 -27.5q15 1 26 -9.5t11 -25.5v-63q0 -14 -9 -24t-22 -11q-28 -4 -47 -4q-103 0 -164 56t-61 144q0 89 58 164.5t132 120.5h-18q-23 0 -39 16t-16 39v90q-138 -170 -377 -170q-117 0 -216.5 46.5
t-164.5 123.5t-101 174t-36 199q0 103 36 200t101 174t164.5 124t216.5 47q239 0 377 -170v90q0 23 16 39t39 16h78q22 0 37.5 -16t15.5 -39v-954zM608 152q166 0 262.5 103.5t96.5 262.5q0 160 -96.5 264.5t-262.5 104.5q-158 0 -251 -103.5t-93 -265.5q0 -160 93 -263
t251 -103z" />
    <glyph glyph-name="Cacute" unicode="&#x106;" horiz-adv-x="1441" 
d="M821 166q225 0 369 151q14 15 33.5 18t36.5 -9l77 -52q22 -14 25.5 -39.5t-14.5 -44.5q-99 -102 -234.5 -158.5t-292.5 -56.5q-208 0 -375.5 97.5t-260.5 267t-93 377.5q0 156 54.5 293t150.5 236t232 156.5t292 57.5q157 0 293 -57t234 -160q18 -19 14.5 -44.5
t-25.5 -39.5l-77 -51q-17 -10 -36.5 -8t-33.5 16q-145 152 -369 152q-121 0 -221.5 -46.5t-164.5 -124.5t-99 -176t-35 -204t35 -204t99 -176t164.5 -124.5t221.5 -46.5zM877 1898h86q23 0 32.5 -19t-2.5 -38l-143 -205q-15 -24 -45 -24h-66q-14 0 -22 13t-2 26l96 207
q19 40 66 40z" />
    <glyph glyph-name="cacute" unicode="&#x107;" horiz-adv-x="1118" 
d="M616 152q85 0 157 34t118 95q12 15 32.5 19t37.5 -5l63 -35q22 -12 26.5 -37t-10.5 -45q-74 -95 -184 -149t-240 -54q-153 0 -278.5 73t-195.5 197.5t-70 272.5q0 149 70 274t195.5 198t278.5 73q130 0 240 -54t184 -149q15 -20 10.5 -45t-26.5 -37l-63 -35
q-17 -9 -37.5 -4.5t-32.5 19.5q-46 61 -118 95t-157 34q-153 0 -252.5 -104.5t-99.5 -264.5q0 -159 99.5 -262.5t252.5 -103.5zM668 1489h86q23 0 32.5 -19t-2.5 -38l-143 -205q-16 -25 -45 -25h-66q-14 0 -22 13t-2 26l96 207q20 41 66 41z" />
    <glyph glyph-name="Ccircumflex" unicode="&#x108;" horiz-adv-x="1441" 
d="M821 166q225 0 369 151q14 15 33.5 18t36.5 -9l77 -52q22 -14 25.5 -39.5t-14.5 -44.5q-99 -102 -234.5 -158.5t-292.5 -56.5q-208 0 -375.5 97.5t-260.5 267t-93 377.5q0 156 54.5 293t150.5 236t232 156.5t292 57.5q157 0 293 -57t234 -160q18 -19 14.5 -44.5
t-25.5 -39.5l-77 -51q-17 -10 -36.5 -8t-33.5 16q-145 152 -369 152q-121 0 -221.5 -46.5t-164.5 -124.5t-99 -176t-35 -204t35 -204t99 -176t164.5 -124.5t221.5 -46.5zM1061 1657q11 -13 3.5 -29t-24.5 -16h-84q-39 0 -57 30l-117 160l-116 -160q-21 -30 -60 -30h-82
q-17 0 -25 16t3 29l170 213q19 28 57 28h107q35 0 57 -28z" />
    <glyph glyph-name="ccircumflex" unicode="&#x109;" horiz-adv-x="1118" 
d="M616 152q85 0 157 34t118 95q12 15 32.5 19t37.5 -5l63 -35q22 -12 26.5 -37t-10.5 -45q-74 -95 -184 -149t-240 -54q-153 0 -278.5 73t-195.5 197.5t-70 272.5q0 149 70 274t195.5 198t278.5 73q130 0 240 -54t184 -149q15 -20 10.5 -45t-26.5 -37l-63 -35
q-17 -9 -37.5 -4.5t-32.5 19.5q-46 61 -118 95t-157 34q-153 0 -252.5 -104.5t-99.5 -264.5q0 -159 99.5 -262.5t252.5 -103.5zM874 1247q11 -13 4 -29t-24 -16h-84q-38 0 -57 31l-117 160l-117 -160q-22 -31 -59 -31h-82q-17 0 -25 16t2 29l170 213q19 29 58 29h106
q35 0 58 -29z" />
    <glyph glyph-name="Cdotaccent" unicode="&#x10a;" horiz-adv-x="1441" 
d="M821 166q225 0 369 151q14 15 33.5 18t36.5 -9l77 -52q22 -14 25.5 -39.5t-14.5 -44.5q-99 -102 -234.5 -158.5t-292.5 -56.5q-208 0 -375.5 97.5t-260.5 267t-93 377.5q0 156 54.5 293t150.5 236t232 156.5t292 57.5q157 0 293 -57t234 -160q18 -19 14.5 -44.5
t-25.5 -39.5l-77 -51q-17 -10 -36.5 -8t-33.5 16q-145 152 -369 152q-121 0 -221.5 -46.5t-164.5 -124.5t-99 -176t-35 -204t35 -204t99 -176t164.5 -124.5t221.5 -46.5zM780 1853q50 0 84.5 -33.5t34.5 -82.5t-34.5 -84t-84.5 -35q-49 0 -82.5 34.5t-33.5 84.5
q0 49 33 82.5t83 33.5z" />
    <glyph glyph-name="cdotaccent" unicode="&#x10b;" horiz-adv-x="1118" 
d="M616 152q85 0 157 34t118 95q12 15 32.5 19t37.5 -5l63 -35q22 -12 26.5 -37t-10.5 -45q-74 -95 -184 -149t-240 -54q-153 0 -278.5 73t-195.5 197.5t-70 272.5q0 149 70 274t195.5 198t278.5 73q130 0 240 -54t184 -149q15 -20 10.5 -45t-26.5 -37l-63 -35
q-17 -9 -37.5 -4.5t-32.5 19.5q-46 61 -118 95t-157 34q-153 0 -252.5 -104.5t-99.5 -264.5q0 -159 99.5 -262.5t252.5 -103.5zM594 1444q50 0 84.5 -34t34.5 -83t-34.5 -84t-84.5 -35q-49 0 -83 34.5t-34 84.5q0 49 33.5 83t83.5 34z" />
    <glyph glyph-name="Ccaron" unicode="&#x10c;" horiz-adv-x="1441" 
d="M821 166q225 0 369 151q14 15 33.5 18t36.5 -9l77 -52q22 -14 25.5 -39.5t-14.5 -44.5q-99 -102 -234.5 -158.5t-292.5 -56.5q-208 0 -375.5 97.5t-260.5 267t-93 377.5q0 156 54.5 293t150.5 236t232 156.5t292 57.5q157 0 293 -57t234 -160q18 -19 14.5 -44.5
t-25.5 -39.5l-77 -51q-17 -10 -36.5 -8t-33.5 16q-145 152 -369 152q-121 0 -221.5 -46.5t-164.5 -124.5t-99 -176t-35 -204t35 -204t99 -176t164.5 -124.5t221.5 -46.5zM502 1853q-11 13 -3 29t25 16h82q39 0 60 -30l116 -160l117 160q18 30 59 30h82q17 0 24.5 -16
t-3.5 -29l-168 -213q-22 -28 -57 -28h-107q-38 0 -57 28z" />
    <glyph glyph-name="ccaron" unicode="&#x10d;" horiz-adv-x="1118" 
d="M616 152q85 0 157 34t118 95q12 15 32.5 19t37.5 -5l63 -35q22 -12 26.5 -37t-10.5 -45q-74 -95 -184 -149t-240 -54q-153 0 -278.5 73t-195.5 197.5t-70 272.5q0 149 70 274t195.5 198t278.5 73q130 0 240 -54t184 -149q15 -20 10.5 -45t-26.5 -37l-63 -35
q-17 -9 -37.5 -4.5t-32.5 19.5q-46 61 -118 95t-157 34q-153 0 -252.5 -104.5t-99.5 -264.5q0 -159 99.5 -262.5t252.5 -103.5zM315 1444q-10 14 -2 29.5t25 15.5h82q37 0 59 -31l117 -160l117 160q19 31 59 31h82q17 0 24 -15.5t-4 -29.5l-167 -213q-23 -29 -58 -29h-106
q-39 0 -58 29z" />
    <glyph glyph-name="Dcaron" unicode="&#x10e;" horiz-adv-x="1388" 
d="M549 1434q178 0 321 -55t235.5 -151.5t141.5 -227t49 -283.5t-49 -283.5t-141.5 -227t-235.5 -151.5t-321 -55h-350q-23 0 -39.5 16t-16.5 39v1323q0 23 16.5 39.5t39.5 16.5h350zM549 186q253 0 397 143.5t144 387.5t-144 387t-397 143h-201v-1061h201zM379 1853
q-11 13 -3 29t25 16h82q39 0 60 -30l116 -160l117 160q18 30 60 30h82q17 0 24 -16t-4 -29l-168 -213q-22 -28 -57 -28h-107q-38 0 -57 28z" />
    <glyph glyph-name="dcaron" unicode="&#x10f;" horiz-adv-x="1411" 
d="M967 1378q0 23 15.5 39.5t37.5 16.5h78q23 0 39 -16.5t16 -39.5v-1323q0 -23 -16 -39t-39 -16h-78q-22 0 -37.5 16t-15.5 39v90q-138 -170 -379 -170q-94 0 -177.5 30.5t-144.5 83t-105.5 121.5t-66.5 148t-22 160q0 103 35.5 200t100 174t164 124t216.5 47
q241 0 379 -170v485zM606 152q167 0 264 103.5t97 262.5q0 160 -97 264.5t-264 104.5q-157 0 -250.5 -104t-93.5 -265q0 -160 93.5 -263t250.5 -103zM1395 1399q14 35 51 35h115q15 0 22.5 -13.5t1.5 -27.5l-119 -217q-16 -29 -49 -29h-76q-14 0 -22 12t-2 25z" />
    <glyph glyph-name="Dcroat" unicode="&#x110;" horiz-adv-x="1466" 
d="M625 1434q178 0 321.5 -55t236.5 -151.5t142 -227t49 -283.5t-49 -283.5t-142 -227t-236.5 -151.5t-321.5 -55h-351q-22 0 -37.5 16t-15.5 39v588h-153q-20 0 -34 13.5t-14 33.5v53q0 20 14 34t34 14h153v587q0 23 15.5 39.5t37.5 16.5h351zM625 186q253 0 397.5 143.5
t144.5 387.5q0 243 -144.5 386.5t-397.5 143.5h-199v-456h315q19 0 32 -14t13 -34v-53q0 -20 -13 -33.5t-32 -13.5h-315v-457h199z" />
    <glyph glyph-name="dcroat" unicode="&#x111;" horiz-adv-x="1286" 
d="M1260 1239q15 0 25.5 -11t10.5 -26v-37q0 -14 -10.5 -24.5t-25.5 -10.5h-107v-1075q0 -23 -16 -39t-39 -16h-76q-23 0 -39 16t-16 39v82q-137 -162 -377 -162q-118 0 -217 44t-164 117.5t-101 168t-36 197.5q0 102 36 196.5t101 168t164 117.5t217 44q238 0 377 -164v266
h-291q-15 0 -26 10.5t-11 24.5v37q0 15 11 26t26 11h291v139q0 23 16 39.5t39 16.5h76q23 0 39 -16.5t16 -39.5v-139h107zM608 133q166 0 262.5 104.5t96.5 264.5q0 159 -96.5 262.5t-262.5 103.5q-158 0 -251 -103t-93 -263q0 -162 93 -265.5t251 -103.5z" />
    <glyph glyph-name="Emacron" unicode="&#x112;" horiz-adv-x="1056" 
d="M348 186h549q23 0 39 -15.5t16 -37.5v-78q0 -23 -16 -39t-39 -16h-700q-22 0 -38 16t-16 39v1323q0 23 16 39.5t38 16.5h682q23 0 39 -16.5t16 -39.5v-75q0 -23 -16 -39.5t-39 -16.5h-531v-411h483q23 0 39.5 -16.5t16.5 -39.5v-75q0 -23 -16.5 -39.5t-39.5 -16.5h-483
v-463zM270 1763q0 15 11 26t26 11h486q15 0 25.5 -11t10.5 -26v-71q0 -15 -10.5 -26t-25.5 -11h-486q-15 0 -26 11t-11 26v71z" />
    <glyph glyph-name="emacron" unicode="&#x113;" horiz-adv-x="1173" 
d="M596 1063q79 0 154.5 -24t140 -72t112.5 -113.5t74 -154.5t23 -189q0 -29 -21.5 -50.5t-50.5 -21.5h-760q24 -131 117.5 -208.5t243.5 -77.5q145 0 243 88q14 12 32.5 13t33.5 -9l61 -39q23 -13 26.5 -39t-13.5 -45q-146 -146 -383 -146q-167 0 -295.5 73.5t-195 196.5
t-66.5 273q0 149 66.5 273.5t187.5 198t270 73.5zM268 600h637q-19 133 -99 210t-210 77q-132 0 -219 -78t-109 -209zM307 1354q0 15 11 26t26 11h485q15 0 26 -11t11 -26v-72q0 -15 -11 -26t-26 -11h-485q-15 0 -26 11t-11 26v72z" />
    <glyph glyph-name="Ebreve" unicode="&#x114;" horiz-adv-x="1056" 
d="M348 186h549q23 0 39 -15.5t16 -37.5v-78q0 -23 -16 -39t-39 -16h-700q-22 0 -38 16t-16 39v1323q0 23 16 39.5t38 16.5h682q23 0 39 -16.5t16 -39.5v-75q0 -23 -16 -39.5t-39 -16.5h-531v-411h483q23 0 39.5 -16.5t16.5 -39.5v-75q0 -23 -16.5 -39.5t-39.5 -16.5h-483
v-463zM737 1874h68q17 0 27.5 -14t7.5 -31q-17 -102 -94.5 -163.5t-194.5 -61.5t-194.5 61.5t-94.5 163.5q-3 17 7.5 31t27.5 14h68q13 0 23 -9t13 -22q10 -46 48 -79t102 -33t101.5 33t47.5 79q3 13 13.5 22t23.5 9z" />
    <glyph glyph-name="ebreve" unicode="&#x115;" horiz-adv-x="1173" 
d="M596 1063q79 0 154.5 -24t140 -72t112.5 -113.5t74 -154.5t23 -189q0 -29 -21.5 -50.5t-50.5 -21.5h-760q24 -131 117.5 -208.5t243.5 -77.5q145 0 243 88q14 12 32.5 13t33.5 -9l61 -39q23 -13 26.5 -39t-13.5 -45q-146 -146 -383 -146q-167 0 -295.5 73.5t-195 196.5
t-66.5 273q0 149 66.5 273.5t187.5 198t270 73.5zM268 600h637q-19 133 -99 210t-210 77q-132 0 -219 -78t-109 -209zM774 1464h68q17 0 27.5 -14t7.5 -31q-17 -102 -94.5 -163.5t-194.5 -61.5t-194.5 61.5t-94.5 163.5q-3 17 7.5 31t27.5 14h67q13 0 23.5 -9t13.5 -21
q10 -46 48 -79.5t102 -33.5q63 0 101 33.5t48 79.5q3 12 13.5 21t23.5 9z" />
    <glyph glyph-name="Edotaccent" unicode="&#x116;" horiz-adv-x="1056" 
d="M348 186h549q23 0 39 -15.5t16 -37.5v-78q0 -23 -16 -39t-39 -16h-700q-22 0 -38 16t-16 39v1323q0 23 16 39.5t38 16.5h682q23 0 39 -16.5t16 -39.5v-75q0 -23 -16 -39.5t-39 -16.5h-531v-411h483q23 0 39.5 -16.5t16.5 -39.5v-75q0 -23 -16.5 -39.5t-39.5 -16.5h-483
v-463zM549 1853q50 0 84.5 -33.5t34.5 -82.5t-35 -84t-84 -35t-83 34.5t-34 84.5q0 49 33.5 82.5t83.5 33.5z" />
    <glyph glyph-name="edotaccent" unicode="&#x117;" horiz-adv-x="1173" 
d="M596 1063q79 0 154.5 -24t140 -72t112.5 -113.5t74 -154.5t23 -189q0 -29 -21.5 -50.5t-50.5 -21.5h-760q24 -131 117.5 -208.5t243.5 -77.5q145 0 243 88q14 12 32.5 13t33.5 -9l61 -39q23 -13 26.5 -39t-13.5 -45q-146 -146 -383 -146q-167 0 -295.5 73.5t-195 196.5
t-66.5 273q0 149 66.5 273.5t187.5 198t270 73.5zM268 600h637q-19 133 -99 210t-210 77q-132 0 -219 -78t-109 -209zM586 1444q50 0 84.5 -34t34.5 -83t-34.5 -84t-84.5 -35q-49 0 -83 34.5t-34 84.5q0 49 33.5 83t83.5 34z" />
    <glyph glyph-name="Eogonek" unicode="&#x118;" horiz-adv-x="1056" 
d="M952 29q0 -27 -22 -43q-65 -47 -104.5 -108t-39.5 -118q0 -52 32 -80.5t97 -27.5q15 1 26 -9.5t11 -25.5v-63q0 -14 -8.5 -24t-21.5 -11q-28 -4 -50 -4q-101 0 -162 56t-61 144t58 163.5t131 121.5h-641q-22 0 -38 16t-16 39v1323q0 23 16 39.5t38 16.5h682
q23 0 39 -16.5t16 -39.5v-75q0 -23 -16 -39.5t-39 -16.5h-531v-411h483q23 0 39.5 -16.5t16.5 -39.5v-75q0 -23 -16.5 -39.5t-39.5 -16.5h-483v-463h549q23 0 39 -15.5t16 -37.5v-104z" />
    <glyph glyph-name="eogonek" unicode="&#x119;" horiz-adv-x="1173" 
d="M598 1063q79 0 154.5 -24t140 -72t112.5 -113.5t74 -154.5t23 -189q0 -29 -21.5 -50.5t-50.5 -21.5h-760q24 -131 117.5 -208.5t243.5 -77.5q70 0 134.5 23.5t108.5 64.5q14 12 32.5 13t33.5 -9l64 -39q22 -13 24.5 -39t-14.5 -45q-108 -108 -269 -135
q-67 -47 -108 -107.5t-41 -118.5q0 -52 32 -80.5t97 -27.5q15 1 26 -9.5t11 -25.5v-63q0 -14 -9 -24t-22 -11q-28 -4 -49 -4q-101 0 -162 56t-61 144q0 76 44.5 143.5t108.5 116.5q-244 6 -391 161.5t-147 381.5q0 149 66.5 273.5t187.5 198t270 73.5zM270 600h637
q-19 133 -99 210t-210 77q-132 0 -219 -78t-109 -209z" />
    <glyph glyph-name="Ecaron" unicode="&#x11a;" horiz-adv-x="1056" 
d="M348 186h549q23 0 39 -15.5t16 -37.5v-78q0 -23 -16 -39t-39 -16h-700q-22 0 -38 16t-16 39v1323q0 23 16 39.5t38 16.5h682q23 0 39 -16.5t16 -39.5v-75q0 -23 -16 -39.5t-39 -16.5h-531v-411h483q23 0 39.5 -16.5t16.5 -39.5v-75q0 -23 -16.5 -39.5t-39.5 -16.5h-483
v-463zM270 1853q-10 13 -2 29t25 16h82q38 0 59 -30l117 -160l117 160q18 30 59 30h82q17 0 24 -16t-4 -29l-167 -213q-22 -28 -58 -28h-106q-39 0 -58 28z" />
    <glyph glyph-name="ecaron" unicode="&#x11b;" horiz-adv-x="1173" 
d="M596 1063q79 0 154.5 -24t140 -72t112.5 -113.5t74 -154.5t23 -189q0 -29 -21.5 -50.5t-50.5 -21.5h-760q24 -131 117.5 -208.5t243.5 -77.5q145 0 243 88q14 12 32.5 13t33.5 -9l61 -39q23 -13 26.5 -39t-13.5 -45q-146 -146 -383 -146q-167 0 -295.5 73.5t-195 196.5
t-66.5 273q0 149 66.5 273.5t187.5 198t270 73.5zM268 600h637q-19 133 -99 210t-210 77q-132 0 -219 -78t-109 -209zM307 1444q-10 14 -2 29.5t25 15.5h82q37 0 59 -31l117 -160l117 160q19 31 59 31h82q17 0 24 -15.5t-4 -29.5l-168 -213q-23 -29 -57 -29h-106
q-39 0 -58 29z" />
    <glyph glyph-name="Gcircumflex" unicode="&#x11c;" horiz-adv-x="1601" 
d="M840 721q0 22 16 37.5t39 15.5h530q23 0 39.5 -15.5t16.5 -37.5v-676q0 -19 -13.5 -32t-33.5 -13h-43q-19 0 -31 12t-14 31l-15 193q-158 -261 -510 -261q-208 0 -375.5 97.5t-260.5 267t-93 377.5q0 156 54.5 293t150.5 236t232 156.5t292 57.5q157 0 293 -57t234 -160
q18 -19 14.5 -44.5t-25.5 -39.5l-77 -51q-17 -10 -36.5 -8t-33.5 16q-145 152 -369 152q-121 0 -221.5 -46.5t-164.5 -124.5t-99 -176t-35 -204t35 -204t99 -176t164.5 -124.5t221.5 -46.5q215 0 342.5 118t153.5 304h-422q-23 0 -39 16t-16 39v78zM1098 1657
q11 -13 3.5 -29t-24.5 -16h-84q-39 0 -57 30l-117 160l-117 -160q-21 -30 -59 -30h-82q-17 0 -25 16t3 29l170 213q19 28 57 28h106q36 0 58 -28z" />
    <glyph glyph-name="gcircumflex" unicode="&#x11d;" horiz-adv-x="1263" 
d="M944 983q0 23 16 39t39 16h76q23 0 39 -16t16 -39v-874q0 -113 -31 -206.5t-93.5 -165t-166 -111.5t-239.5 -40q-130 0 -243.5 41.5t-186.5 114.5q-19 19 -15 45.5t27 40.5l66 39q15 9 34 7.5t31 -13.5q41 -43 114 -71t173 -28q177 0 260.5 99.5t83.5 265.5v80
q-128 -178 -354 -178q-110 0 -208 44.5t-164.5 117.5t-105 166.5t-38.5 189.5t38.5 189t105 165.5t164.5 117t208 44.5q225 0 354 -176v96zM608 207q148 0 242 95.5t94 244.5q0 144 -89.5 240t-233.5 100q-94 3 -176 -41.5t-131.5 -124.5t-49.5 -174q0 -146 98.5 -243
t245.5 -97zM901 1247q11 -13 4 -29t-24 -16h-84q-39 0 -58 31l-116 160l-117 -160q-22 -31 -60 -31h-81q-17 0 -25 16t2 29l170 213q19 29 57 29h107q34 0 57 -29z" />
    <glyph glyph-name="Gbreve" unicode="&#x11e;" horiz-adv-x="1601" 
d="M840 721q0 22 16 37.5t39 15.5h530q23 0 39.5 -15.5t16.5 -37.5v-676q0 -19 -13.5 -32t-33.5 -13h-43q-19 0 -31 12t-14 31l-15 193q-158 -261 -510 -261q-208 0 -375.5 97.5t-260.5 267t-93 377.5q0 156 54.5 293t150.5 236t232 156.5t292 57.5q157 0 293 -57t234 -160
q18 -19 14.5 -44.5t-25.5 -39.5l-77 -51q-17 -10 -36.5 -8t-33.5 16q-145 152 -369 152q-121 0 -221.5 -46.5t-164.5 -124.5t-99 -176t-35 -204t35 -204t99 -176t164.5 -124.5t221.5 -46.5q215 0 342.5 118t153.5 304h-422q-23 0 -39 16t-16 39v78zM1006 1874h67
q17 0 27.5 -14t7.5 -31q-17 -102 -94.5 -163.5t-194.5 -61.5t-194.5 61.5t-94.5 163.5q-3 17 7.5 31t27.5 14h68q13 0 23.5 -9t13.5 -22q10 -46 47.5 -79t101.5 -33t102 33t48 79q3 13 13.5 22t23.5 9z" />
    <glyph glyph-name="gbreve" unicode="&#x11f;" horiz-adv-x="1263" 
d="M944 983q0 23 16 39t39 16h76q23 0 39 -16t16 -39v-874q0 -113 -31 -206.5t-93.5 -165t-166 -111.5t-239.5 -40q-130 0 -243.5 41.5t-186.5 114.5q-19 19 -15 45.5t27 40.5l66 39q15 9 34 7.5t31 -13.5q41 -43 114 -71t173 -28q177 0 260.5 99.5t83.5 265.5v80
q-128 -178 -354 -178q-110 0 -208 44.5t-164.5 117.5t-105 166.5t-38.5 189.5t38.5 189t105 165.5t164.5 117t208 44.5q225 0 354 -176v96zM608 207q148 0 242 95.5t94 244.5q0 144 -89.5 240t-233.5 100q-94 3 -176 -41.5t-131.5 -124.5t-49.5 -174q0 -146 98.5 -243
t245.5 -97zM809 1464h68q17 0 27 -13.5t7 -31.5q-17 -103 -94 -164t-194 -61t-194.5 61.5t-94.5 163.5q-3 17 7.5 31t27.5 14h67q13 0 23.5 -9t13.5 -21q10 -46 48 -79.5t102 -33.5q63 0 101 33.5t48 79.5q3 12 13.5 21t23.5 9z" />
    <glyph glyph-name="Gdotaccent" unicode="&#x120;" horiz-adv-x="1601" 
d="M840 721q0 22 16 37.5t39 15.5h530q23 0 39.5 -15.5t16.5 -37.5v-676q0 -19 -13.5 -32t-33.5 -13h-43q-19 0 -31 12t-14 31l-15 193q-158 -261 -510 -261q-208 0 -375.5 97.5t-260.5 267t-93 377.5q0 156 54.5 293t150.5 236t232 156.5t292 57.5q157 0 293 -57t234 -160
q18 -19 14.5 -44.5t-25.5 -39.5l-77 -51q-17 -10 -36.5 -8t-33.5 16q-145 152 -369 152q-121 0 -221.5 -46.5t-164.5 -124.5t-99 -176t-35 -204t35 -204t99 -176t164.5 -124.5t221.5 -46.5q215 0 342.5 118t153.5 304h-422q-23 0 -39 16t-16 39v78zM797 1853q50 0 84 -33.5
t34 -82.5q0 -50 -34.5 -84.5t-83.5 -34.5t-83 34.5t-34 84.5q0 49 33.5 82.5t83.5 33.5z" />
    <glyph glyph-name="gdotaccent" unicode="&#x121;" horiz-adv-x="1263" 
d="M944 983q0 23 16 39t39 16h76q23 0 39 -16t16 -39v-874q0 -113 -31 -206.5t-93.5 -165t-166 -111.5t-239.5 -40q-130 0 -243.5 41.5t-186.5 114.5q-19 19 -15 45.5t27 40.5l66 39q15 9 34 7.5t31 -13.5q41 -43 114 -71t173 -28q177 0 260.5 99.5t83.5 265.5v80
q-128 -178 -354 -178q-110 0 -208 44.5t-164.5 117.5t-105 166.5t-38.5 189.5t38.5 189t105 165.5t164.5 117t208 44.5q225 0 354 -176v96zM608 207q148 0 242 95.5t94 244.5q0 144 -89.5 240t-233.5 100q-94 3 -176 -41.5t-131.5 -124.5t-49.5 -174q0 -146 98.5 -243
t245.5 -97zM621 1444q50 0 84 -34t34 -83q0 -50 -34.5 -84.5t-83.5 -34.5t-83 34.5t-34 84.5q0 49 34 83t83 34z" />
    <glyph glyph-name="Gcommaaccent" unicode="&#x122;" horiz-adv-x="1601" 
d="M840 721q0 22 16 37.5t39 15.5h530q23 0 39.5 -15.5t16.5 -37.5v-676q0 -19 -13.5 -32t-33.5 -13h-43q-19 0 -31 12t-14 31l-15 193q-158 -261 -510 -261q-208 0 -375.5 97.5t-260.5 267t-93 377.5q0 156 54.5 293t150.5 236t232 156.5t292 57.5q157 0 293 -57t234 -160
q18 -19 14.5 -44.5t-25.5 -39.5l-77 -51q-17 -10 -36.5 -8t-33.5 16q-145 152 -369 152q-121 0 -221.5 -46.5t-164.5 -124.5t-99 -176t-35 -204t35 -204t99 -176t164.5 -124.5t221.5 -46.5q215 0 342.5 118t153.5 304h-422q-23 0 -39 16t-16 39v78zM698 -221q6 15 20.5 25
t31.5 10h114q15 0 23 -13.5t2 -27.5l-119 -217q-16 -29 -49 -29h-76q-14 0 -22 12t-2 25z" />
    <glyph glyph-name="gcommaaccent" unicode="&#x123;" horiz-adv-x="1263" 
d="M944 983q0 23 16 39t39 16h76q23 0 39 -16t16 -39v-874q0 -113 -31 -206.5t-93.5 -165t-166 -111.5t-239.5 -40q-130 0 -243.5 41.5t-186.5 114.5q-19 19 -15 45.5t27 40.5l66 39q15 9 34 7.5t31 -13.5q41 -43 114 -71t173 -28q177 0 260.5 99.5t83.5 265.5v80
q-128 -178 -354 -178q-110 0 -208 44.5t-164.5 117.5t-105 166.5t-38.5 189.5t38.5 189t105 165.5t164.5 117t208 44.5q225 0 354 -176v96zM608 207q148 0 242 95.5t94 244.5q0 144 -89.5 240t-233.5 100q-94 3 -176 -41.5t-131.5 -124.5t-49.5 -174q0 -146 98.5 -243
t245.5 -97zM735 1237q-14 -35 -51 -35h-115q-15 0 -22.5 13.5t-1.5 27.5l119 217q16 29 49 29h75q14 0 22.5 -12t2.5 -25z" />
    <glyph glyph-name="Hcircumflex" unicode="&#x124;" horiz-adv-x="1376" 
d="M1028 1378q0 23 16 39.5t39 16.5h95q23 0 39 -16.5t16 -39.5v-1323q0 -23 -16 -39t-39 -16h-95q-23 0 -39 16t-16 39v576h-680v-576q0 -23 -16 -39t-39 -16h-94q-23 0 -39.5 16t-16.5 39v1323q0 23 16.5 39.5t39.5 16.5h94q23 0 39 -16.5t16 -39.5v-561h680v561z
M967 1657q11 -13 3.5 -29t-24.5 -16h-84q-39 0 -57 30l-117 160l-117 -160q-21 -30 -59 -30h-82q-17 0 -25 16t3 29l170 213q19 28 57 28h106q36 0 58 -28z" />
    <glyph glyph-name="hcircumflex" unicode="&#x125;" horiz-adv-x="1173" 
d="M639 1063q171 0 285 -122.5t114 -291.5v-594q0 -23 -16 -39t-39 -16h-78q-22 0 -37.5 16t-15.5 39v541q0 58 -13.5 107.5t-42 92t-80.5 67t-122 24.5t-125.5 -28t-86.5 -72.5t-47 -93.5t-16 -97v-541q0 -23 -16 -39t-39 -16h-78q-22 0 -37.5 16t-15.5 39v1323
q0 23 15.5 39.5t37.5 16.5h78q23 0 39 -16.5t16 -39.5v-485q113 170 320 170zM782 1657q11 -13 4 -29t-24 -16h-84q-39 0 -57 30l-117 160l-117 -160q-21 -30 -59 -30h-82q-17 0 -25 16t2 29l170 213q19 28 58 28h106q35 0 57 -28z" />
    <glyph glyph-name="Hbar" unicode="&#x126;" horiz-adv-x="1517" 
d="M1452 1221q19 0 32 -13t13 -32v-56q0 -19 -13 -32t-32 -13h-147v-1020q0 -23 -16 -39t-38 -16h-96q-23 0 -39 16t-16 39v576h-680v-576q0 -23 -15.5 -39t-37.5 -16h-97q-23 0 -39 16t-16 39v1020h-147q-19 0 -32 13t-13 32v56q0 19 13 32t32 13h147v157q0 23 16 39.5
t39 16.5h97q22 0 37.5 -16.5t15.5 -39.5v-157h680v157q0 23 16 39.5t39 16.5h96q22 0 38 -16.5t16 -39.5v-157h147zM1100 817v258h-680v-258h680z" />
    <glyph glyph-name="hbar" unicode="&#x127;" horiz-adv-x="1173" 
d="M643 1026q171 0 285 -122t114 -290v-559q0 -23 -16 -39t-39 -16h-78q-23 0 -39 16t-16 39v504q0 58 -13 107.5t-41.5 92t-80 67t-121.5 24.5t-125 -27.5t-86.5 -72t-47 -93.5t-15.5 -98v-504q0 -23 -16.5 -39t-39.5 -16h-78q-23 0 -39 16t-16 39v1075h-106
q-15 0 -26 10.5t-11 24.5v37q0 15 11 26t26 11h106v139q0 23 16 39.5t39 16.5h78q23 0 39.5 -16.5t16.5 -39.5v-139h290q14 0 24.5 -11t10.5 -26v-37q0 -13 -10.5 -24t-24.5 -11h-290v-274q107 170 319 170z" />
    <glyph glyph-name="Itilde" unicode="&#x128;" horiz-adv-x="491" 
d="M143 1378q0 23 16.5 39.5t39.5 16.5h96q23 0 39 -16.5t16 -39.5v-1323q0 -23 -16 -39t-39 -16h-96q-23 0 -39.5 16t-16.5 39v1323zM469 1806l51 -8q15 -3 23.5 -16.5t5.5 -28.5q-35 -149 -168 -149q-53 0 -133.5 33.5t-116.5 33.5q-49 0 -65 -53q-4 -12 -16.5 -19.5
t-24.5 -5.5l-52 11q-17 3 -25 16t-5 27q39 149 168 149q47 0 127.5 -33.5t119.5 -33.5q54 0 70 53q3 12 15.5 19.5t25.5 4.5z" />
    <glyph glyph-name="itilde" unicode="&#x129;" horiz-adv-x="454" 
d="M190 0q-23 0 -39 16t-16 39v928q0 23 16 39t39 16h76q23 0 39.5 -16t16.5 -39v-928q0 -23 -16.5 -39t-39.5 -16h-76zM451 1397l51 -8q15 -3 23 -17t5 -29q-35 -149 -168 -149q-53 0 -133 34t-116 34q-50 0 -66 -54q-4 -12 -16.5 -19t-24.5 -5l-51 10q-17 3 -25.5 16
t-5.5 27q39 149 168 149q48 0 129 -33.5t119 -33.5q54 0 70 53q3 12 15.5 20t25.5 5z" />
    <glyph glyph-name="Imacron" unicode="&#x12a;" horiz-adv-x="491" 
d="M143 1378q0 23 16.5 39.5t39.5 16.5h96q23 0 39 -16.5t16 -39.5v-1323q0 -23 -16 -39t-39 -16h-96q-23 0 -39.5 16t-16.5 39v1323zM-33 1763q0 15 11 26t26 11h485q15 0 26 -11t11 -26v-71q0 -15 -11 -26t-26 -11h-485q-15 0 -26 11t-11 26v71z" />
    <glyph glyph-name="imacron" unicode="&#x12b;" horiz-adv-x="454" 
d="M190 0q-23 0 -39 16t-16 39v928q0 23 16 39t39 16h76q23 0 39.5 -16t16.5 -39v-928q0 -23 -16.5 -39t-39.5 -16h-76zM-51 1354q0 15 11 26t26 11h485q15 0 26 -11t11 -26v-72q0 -15 -11 -26t-26 -11h-485q-15 0 -26 11t-11 26v72z" />
    <glyph glyph-name="Ibreve" unicode="&#x12c;" horiz-adv-x="491" 
d="M143 1378q0 23 16.5 39.5t39.5 16.5h96q23 0 39 -16.5t16 -39.5v-1323q0 -23 -16 -39t-39 -16h-96q-23 0 -39.5 16t-16.5 39v1323zM434 1874h68q17 0 27.5 -14t7.5 -31q-17 -102 -94.5 -163.5t-194.5 -61.5t-194.5 61.5t-94.5 163.5q-3 17 7.5 31t27.5 14h67
q13 0 23.5 -9t13.5 -22q10 -46 48 -79t102 -33t101.5 33t47.5 79q3 13 13.5 22t23.5 9z" />
    <glyph glyph-name="ibreve" unicode="&#x12d;" horiz-adv-x="454" 
d="M190 0q-23 0 -39 16t-16 39v928q0 23 16 39t39 16h76q23 0 39.5 -16t16.5 -39v-928q0 -23 -16.5 -39t-39.5 -16h-76zM416 1464h67q17 0 27.5 -14t7.5 -31q-17 -102 -94.5 -163.5t-194.5 -61.5t-194 61t-94 164q-3 18 7 31.5t27 13.5h68q13 0 23.5 -9t13.5 -21
q10 -46 48 -79.5t101 -33.5q64 0 102 33.5t48 79.5q3 12 13.5 21t23.5 9z" />
    <glyph glyph-name="Iogonek" unicode="&#x12e;" horiz-adv-x="491" 
d="M346 29q0 -27 -22 -43q-65 -47 -105.5 -108t-40.5 -118q0 -51 32.5 -80t96.5 -28q15 2 27 -9t12 -26v-63q0 -13 -9.5 -23t-21.5 -12q-28 -4 -49 -4q-102 0 -162.5 56t-60.5 144q0 89 57.5 164t130.5 121h-36q-22 0 -38 16t-16 39v1323q0 23 16 39.5t38 16.5h96
q23 0 39 -16.5t16 -39.5v-1349z" />
    <glyph glyph-name="iogonek" unicode="&#x12f;" horiz-adv-x="454" 
d="M190 0q-23 0 -39 16t-16 39v928q0 23 16 39t39 16h78q22 0 38 -16t16 -39v-954q0 -27 -23 -43q-64 -47 -103.5 -108t-39.5 -118q0 -52 32 -80.5t97 -27.5q15 1 26 -9.5t11 -25.5v-63q0 -14 -9 -24t-22 -11q-28 -4 -47 -4q-103 0 -164.5 56t-61.5 144t58.5 163.5
t132.5 121.5h-19zM229 1223q-44 0 -75 31t-31 75t31 75.5t75 31.5t75.5 -31.5t31.5 -75.5t-31.5 -75t-75.5 -31z" />
    <glyph glyph-name="Idotaccent" unicode="&#x130;" horiz-adv-x="491" 
d="M143 1378q0 23 16.5 39.5t39.5 16.5h96q23 0 39 -16.5t16 -39.5v-1323q0 -23 -16 -39t-39 -16h-96q-23 0 -39.5 16t-16.5 39v1323zM246 1853q50 0 84.5 -33.5t34.5 -82.5t-34.5 -84t-84.5 -35q-49 0 -83 34.5t-34 84.5q0 49 33.5 82.5t83.5 33.5z" />
    <glyph glyph-name="dotlessi" unicode="&#x131;" horiz-adv-x="454" 
d="M190 0q-23 0 -39 16t-16 39v928q0 23 16 39t39 16h76q23 0 39.5 -16t16.5 -39v-928q0 -23 -16.5 -39t-39.5 -16h-76z" />
    <glyph glyph-name="IJ" unicode="&#x132;" horiz-adv-x="1593" 
d="M143 1378q0 23 16.5 39.5t39.5 16.5h96q23 0 39 -16.5t16 -39.5v-1323q0 -23 -16 -39t-39 -16h-96q-23 0 -39.5 16t-16.5 39v1323zM1300 1434h95q23 0 39 -16.5t16 -39.5v-915q0 -109 -26 -195.5t-80 -153.5t-146.5 -103t-218.5 -36q-195 0 -319.5 91.5t-157.5 244.5
q-6 27 9 49.5t42 26.5l90 16q22 4 40 -7t24 -31q22 -84 88 -141.5t184 -57.5q78 0 133 26t82.5 71.5t39 93.5t11.5 106v915q0 23 16 39.5t39 16.5z" />
    <glyph glyph-name="ij" unicode="&#x133;" horiz-adv-x="884" 
d="M190 0q-23 0 -39 16t-16 39v928q0 23 16 39t39 16h76q23 0 39.5 -16t16.5 -39v-928q0 -23 -16.5 -39t-39.5 -16h-76zM227 1223q-43 0 -74.5 31t-31.5 75t31.5 75.5t74.5 31.5q44 0 75.5 -31.5t31.5 -75.5t-31.5 -75t-75.5 -31zM565 18v965q0 23 16.5 39t39.5 16h77
q22 0 38 -16t16 -39v-1001q0 -157 -90 -258t-269 -101h-26q-19 0 -32 13t-13 32v78q0 19 12 32t31 13q114 7 157 64t43 163zM659 1223q-44 0 -75 31t-31 75t31 75.5t75 31.5t75.5 -31.5t31.5 -75.5t-31.5 -75t-75.5 -31z" />
    <glyph glyph-name="Jcircumflex" unicode="&#x134;" horiz-adv-x="1163" 
d="M870 1434h95q23 0 39 -16.5t16 -39.5v-915q0 -109 -26 -195.5t-80 -153.5t-146.5 -103t-218.5 -36q-195 0 -319.5 91.5t-157.5 244.5q-6 27 9 49.5t42 26.5l90 16q21 4 39 -6.5t24 -31.5q22 -84 88.5 -141.5t184.5 -57.5q78 0 133 26t82.5 71.5t39 93.5t11.5 106v915
q0 23 16 39.5t39 16.5zM1188 1657q11 -13 3.5 -29t-24.5 -16h-84q-39 0 -57 30l-117 160l-116 -160q-21 -30 -60 -30h-82q-17 0 -25 16t3 29l170 213q19 28 57 28h107q35 0 57 -28z" />
    <glyph glyph-name="jcircumflex" unicode="&#x135;" horiz-adv-x="454" 
d="M135 18v965q0 23 16 39t39 16h78q22 0 38 -16t16 -39v-1001q0 -157 -90 -258t-269 -101h-26q-19 0 -32.5 13t-13.5 32v78q0 19 12 32t31 13q114 7 157.5 64t43.5 163zM508 1247q11 -13 3.5 -29t-24.5 -16h-84q-38 0 -57 31l-117 160l-116 -160q-22 -31 -60 -31h-82
q-17 0 -25 16t3 29l170 213q19 29 57 29h107q34 0 57 -29z" />
    <glyph glyph-name="Kcommaaccent" unicode="&#x136;" horiz-adv-x="1234" 
d="M1128 76q20 -23 8 -49.5t-42 -26.5h-121q-39 0 -70 31l-555 639v-615q0 -23 -15.5 -39t-37.5 -16h-96q-23 0 -39.5 16t-16.5 39v1323q0 23 16.5 39.5t39.5 16.5h96q22 0 37.5 -16.5t15.5 -39.5v-628l520 649q27 35 72 35h107q28 0 40.5 -26t-6.5 -48l-516 -635zM526 -221
q6 15 20.5 25t31.5 10h114q15 0 23 -13.5t2 -27.5l-119 -217q-16 -29 -49 -29h-76q-14 0 -22 12t-2 25z" />
    <glyph glyph-name="kcommaaccent" unicode="&#x137;" horiz-adv-x="1028" 
d="M520 553l416 -494q15 -17 5.5 -38t-32.5 -21h-123q-43 0 -69 33l-395 467v-445q0 -23 -16.5 -39t-39.5 -16h-78q-23 0 -39 16t-16 39v1323q0 23 16 39.5t39 16.5h78q23 0 39.5 -16.5t16.5 -39.5v-800l348 426q27 34 71 34h105q23 0 32.5 -21t-4.5 -38zM438 -221
q14 35 51 35h115q15 0 23 -13.5t2 -27.5l-119 -217q-16 -29 -49 -29h-76q-14 0 -22.5 12t-2.5 25z" />
    <glyph glyph-name="kgreenlandic" unicode="&#x138;" horiz-adv-x="1028" 
d="M520 553l416 -494q15 -17 5.5 -38t-32.5 -21h-123q-43 0 -69 33l-395 467v-445q0 -23 -16.5 -39t-39.5 -16h-78q-23 0 -39 16t-16 39v928q0 23 16 39t39 16h78q23 0 39.5 -16t16.5 -39v-405l348 426q27 34 71 34h105q23 0 32.5 -21t-4.5 -38z" />
    <glyph glyph-name="Lacute" unicode="&#x139;" horiz-adv-x="1019" 
d="M348 186h535q23 0 39 -15.5t16 -37.5v-78q0 -23 -16 -39t-39 -16h-684q-23 0 -39.5 16t-16.5 39v1323q0 23 16.5 39.5t39.5 16.5h94q23 0 39 -16.5t16 -39.5v-1192zM369 1898h86q23 0 32.5 -19t-2.5 -38l-143 -205q-15 -24 -45 -24h-66q-14 0 -22 13t-2 26l96 207
q19 40 66 40z" />
    <glyph glyph-name="lacute" unicode="&#x13a;" horiz-adv-x="452" 
d="M133 1378q0 23 16 39.5t39 16.5h78q23 0 38 -16t15 -40v-1323q0 -23 -15 -39t-38 -16h-78q-23 0 -39 16t-16 39v1323zM350 1898h86q23 0 33 -19t-2 -38l-143 -205q-15 -24 -45 -24h-66q-14 0 -22.5 13t-2.5 26l97 207q19 40 65 40z" />
    <glyph glyph-name="Lcommaaccent" unicode="&#x13b;" horiz-adv-x="1019" 
d="M348 186h535q23 0 39 -15.5t16 -37.5v-78q0 -23 -16 -39t-39 -16h-684q-23 0 -39.5 16t-16.5 39v1323q0 23 16.5 39.5t39.5 16.5h94q23 0 39 -16.5t16 -39.5v-1192zM440 -221q6 15 20.5 25t31.5 10h114q15 0 23 -13.5t2 -27.5l-119 -217q-16 -29 -49 -29h-76
q-14 0 -22.5 12t-2.5 25z" />
    <glyph glyph-name="lcommaaccent" unicode="&#x13c;" horiz-adv-x="452" 
d="M133 1378q0 23 16 39.5t39 16.5h78q23 0 38 -16t15 -40v-1323q0 -23 -15 -39t-38 -16h-78q-23 0 -39 16t-16 39v1323zM106 -221q6 15 20.5 25t31.5 10h114q15 0 23 -13.5t2 -27.5l-119 -217q-16 -29 -49 -29h-76q-14 0 -22 12t-2 25z" />
    <glyph glyph-name="Lcaron" unicode="&#x13d;" horiz-adv-x="1019" 
d="M348 186h535q23 0 39 -15.5t16 -37.5v-78q0 -23 -16 -39t-39 -16h-684q-23 0 -39.5 16t-16.5 39v1323q0 23 16.5 39.5t39.5 16.5h94q23 0 39 -16.5t16 -39.5v-1192zM590 1399q14 35 51 35h115q15 0 22.5 -13.5t1.5 -27.5l-118 -217q-16 -29 -50 -29h-75q-14 0 -22.5 12
t-2.5 25z" />
    <glyph glyph-name="lcaron" unicode="&#x13e;" horiz-adv-x="577" 
d="M133 1378q0 23 16 39.5t39 16.5h78q23 0 38 -16t15 -40v-1323q0 -23 -15 -39t-38 -16h-78q-23 0 -39 16t-16 39v1323zM561 1399q14 35 51 35h115q15 0 23 -13.5t2 -27.5l-119 -217q-16 -29 -49 -29h-76q-14 0 -22.5 12t-2.5 25z" />
    <glyph glyph-name="Ldot" unicode="&#x13f;" horiz-adv-x="1019" 
d="M694 551q-52 0 -88.5 37t-36.5 90q0 51 36.5 88t88.5 37t88.5 -37t36.5 -88q0 -53 -36.5 -90t-88.5 -37zM348 186h535q23 0 39 -15.5t16 -37.5v-78q0 -23 -16 -39t-39 -16h-684q-23 0 -39.5 16t-16.5 39v1323q0 23 16.5 39.5t39.5 16.5h94q23 0 39 -16.5t16 -39.5v-1192z
" />
    <glyph glyph-name="ldot" unicode="&#x140;" horiz-adv-x="786" 
d="M621 803q52 0 88 -37t36 -88q0 -53 -36 -90t-88 -37t-88.5 37t-36.5 90q0 51 36.5 88t88.5 37zM133 1378q0 23 16 39.5t39 16.5h78q23 0 38 -16t15 -40v-1323q0 -23 -15 -39t-38 -16h-78q-23 0 -39 16t-16 39v1323z" />
    <glyph glyph-name="Lslash" unicode="&#x141;" horiz-adv-x="1107" 
d="M438 186h535q23 0 39 -15.5t16 -37.5v-78q0 -23 -16 -39t-39 -16h-684q-23 0 -39.5 16t-16.5 39v430l-102 -59q-17 -9 -34.5 -4t-26.5 22l-25 43q-9 17 -5 35t21 27l172 98v731q0 23 16.5 39.5t39.5 16.5h96q23 0 38 -16t15 -40v-616l236 131q15 9 33.5 4t27.5 -20
l25 -46q9 -15 3.5 -33.5t-22.5 -27.5l-303 -170v-414z" />
    <glyph glyph-name="lslash" unicode="&#x142;" horiz-adv-x="624" 
d="M596 868q7 -14 3.5 -28.5t-15.5 -22.5l-178 -106v-656q0 -23 -15.5 -39t-38.5 -16h-78q-23 0 -39 16t-16 39v543l-119 -74q-14 -7 -28.5 -3t-22.5 16l-18 30q-7 14 -3.5 28.5t15.5 22.5l176 107v653q0 23 16 39.5t39 16.5h78q23 0 38.5 -16.5t15.5 -39.5v-540l120 73
q12 7 27.5 3.5t24.5 -15.5z" />
    <glyph glyph-name="Nacute" unicode="&#x143;" horiz-adv-x="1413" 
d="M1065 1378q0 23 16 39.5t39 16.5h97q22 0 37.5 -16.5t15.5 -39.5v-1323q0 -23 -15.5 -39t-37.5 -16h-78q-49 0 -74 39l-717 1018v-1002q0 -23 -15.5 -39t-37.5 -16h-96q-23 0 -39.5 16t-16.5 39v1323q0 23 16.5 39.5t39.5 16.5h75q48 0 76 -39l715 -1016v999zM821 1898
h86q23 0 33 -19t-2 -38l-143 -205q-15 -24 -45 -24h-66q-14 0 -22.5 13t-2.5 26l97 207q19 40 65 40z" />
    <glyph glyph-name="nacute" unicode="&#x144;" 
d="M639 1063q171 0 285 -122.5t114 -291.5v-594q0 -23 -16 -39t-39 -16h-78q-22 0 -37.5 16t-15.5 39v541q0 58 -13.5 107.5t-42 92t-80.5 67t-122 24.5t-125.5 -28t-86.5 -72.5t-47 -93.5t-16 -97v-541q0 -23 -16 -39t-39 -16h-78q-23 0 -38 16t-15 39v928q0 23 15 39
t38 16h78q23 0 39 -16t16 -39v-90q113 170 320 170zM680 1489h86q23 0 33 -19t-2 -38l-144 -205q-16 -25 -45 -25h-65q-14 0 -22.5 13t-2.5 26l96 207q20 41 66 41z" />
    <glyph glyph-name="Ncommaaccent" unicode="&#x145;" horiz-adv-x="1413" 
d="M1065 1378q0 23 16 39.5t39 16.5h97q22 0 37.5 -16.5t15.5 -39.5v-1323q0 -23 -15.5 -39t-37.5 -16h-78q-49 0 -74 39l-717 1018v-1002q0 -23 -15.5 -39t-37.5 -16h-96q-23 0 -39.5 16t-16.5 39v1323q0 23 16.5 39.5t39.5 16.5h75q48 0 76 -39l715 -1016v999zM606 -221
q14 35 51 35h115q15 0 23 -13.5t2 -27.5l-119 -217q-16 -29 -49 -29h-76q-14 0 -22.5 12t-2.5 25z" />
    <glyph glyph-name="ncommaaccent" unicode="&#x146;" 
d="M639 1063q171 0 285 -122.5t114 -291.5v-594q0 -23 -16 -39t-39 -16h-78q-22 0 -37.5 16t-15.5 39v541q0 58 -13.5 107.5t-42 92t-80.5 67t-122 24.5t-125.5 -28t-86.5 -72.5t-47 -93.5t-16 -97v-541q0 -23 -16 -39t-39 -16h-78q-23 0 -38 16t-15 39v928q0 23 15 39
t38 16h78q23 0 39 -16t16 -39v-90q113 170 320 170zM506 -221q14 35 51 35h115q15 0 22.5 -13.5t1.5 -27.5l-118 -217q-16 -29 -50 -29h-75q-14 0 -22.5 12t-2.5 25z" />
    <glyph glyph-name="Ncaron" unicode="&#x147;" horiz-adv-x="1413" 
d="M1065 1378q0 23 16 39.5t39 16.5h97q22 0 37.5 -16.5t15.5 -39.5v-1323q0 -23 -15.5 -39t-37.5 -16h-78q-49 0 -74 39l-717 1018v-1002q0 -23 -15.5 -39t-37.5 -16h-96q-23 0 -39.5 16t-16.5 39v1323q0 23 16.5 39.5t39.5 16.5h75q48 0 76 -39l715 -1016v999zM428 1853
q-10 13 -2 29t25 16h81q39 0 60 -30l117 -160l116 160q18 30 60 30h82q17 0 24 -16t-4 -29l-168 -213q-22 -28 -57 -28h-107q-38 0 -57 28z" />
    <glyph glyph-name="ncaron" unicode="&#x148;" 
d="M639 1063q171 0 285 -122.5t114 -291.5v-594q0 -23 -16 -39t-39 -16h-78q-22 0 -37.5 16t-15.5 39v541q0 58 -13.5 107.5t-42 92t-80.5 67t-122 24.5t-125.5 -28t-86.5 -72.5t-47 -93.5t-16 -97v-541q0 -23 -16 -39t-39 -16h-78q-23 0 -38 16t-15 39v928q0 23 15 39
t38 16h78q23 0 39 -16t16 -39v-90q113 170 320 170zM305 1444q-10 14 -2 29.5t25 15.5h82q37 0 59 -31l117 -160l116 160q19 31 60 31h82q17 0 24 -15.5t-4 -29.5l-168 -213q-23 -29 -57 -29h-107q-38 0 -57 29z" />
    <glyph glyph-name="napostrophe" unicode="&#x149;" horiz-adv-x="1218" 
d="M688 1063q171 0 285 -122.5t114 -291.5v-594q0 -23 -16 -39t-39 -16h-78q-23 0 -39 16t-16 39v541q0 58 -13 107.5t-41.5 92t-80 67t-121.5 24.5t-125 -28t-86.5 -72.5t-47 -93.5t-15.5 -97v-541q0 -23 -16.5 -39t-39.5 -16h-77q-23 0 -39.5 16t-16.5 39v928
q0 23 16.5 39t39.5 16h77q23 0 39.5 -16t16.5 -39v-90q113 170 319 170zM84 1399q14 35 51 35h113q17 0 24.5 -14t-0.5 -27l-118 -217q-13 -29 -48 -29h-75q-15 0 -23.5 11.5t-3.5 25.5z" />
    <glyph glyph-name="Eng" unicode="&#x14a;" horiz-adv-x="1413" 
d="M1063 1378q0 23 16 39.5t39 16.5h96q23 0 39.5 -16.5t16.5 -39.5v-1351q0 -441 -350 -441q-27 0 -39 2q-22 1 -36 16.5t-14 37.5v94q0 19 13.5 32t32.5 13q58 0 95.5 15.5t57 50t26.5 78.5t7 114l-715 1018v-1002q0 -23 -16 -39t-39 -16h-96q-22 0 -38 16t-16 39v1323
q0 23 16 39.5t38 16.5h77q49 0 74 -39l715 -1016v999z" />
    <glyph glyph-name="eng" unicode="&#x14b;" 
d="M641 1063q171 0 285 -122.5t114 -291.5v-649q0 -157 -90.5 -257.5t-269.5 -100.5h-27q-19 0 -32 13t-13 32v77q0 19 12.5 32.5t30.5 13.5q115 7 159 64t44 163v559q0 58 -13.5 107.5t-42 92t-80.5 67t-122 24.5t-125 -28t-86.5 -72.5t-47 -93.5t-15.5 -97v-541
q0 -23 -16.5 -39t-39.5 -16h-78q-23 0 -39 16t-16 39v928q0 23 16 39t39 16h78q23 0 39.5 -16t16.5 -39v-90q113 170 319 170z" />
    <glyph glyph-name="Omacron" unicode="&#x14c;" horiz-adv-x="1640" 
d="M821 1458q208 0 375 -97.5t259.5 -266.5t92.5 -377t-92.5 -378t-259.5 -268t-375 -98q-209 0 -376.5 98t-260 268t-92.5 378t92.5 377t260 266.5t376.5 97.5zM821 166q121 0 221.5 46.5t164.5 124.5t99 176t35 204t-35 204t-99 176t-164.5 124.5t-221.5 46.5
t-221.5 -46.5t-164.5 -124.5t-99 -176t-35 -204t35 -204t99 -176t164.5 -124.5t221.5 -46.5zM541 1763q0 15 11 26t26 11h485q15 0 26 -11t11 -26v-71q0 -15 -11 -26t-26 -11h-485q-15 0 -26 11t-11 26v71z" />
    <glyph glyph-name="omacron" unicode="&#x14d;" horiz-adv-x="1232" 
d="M616 1063q115 0 217 -43.5t173.5 -117t113 -173.5t41.5 -211t-41.5 -211t-113 -173.5t-173.5 -117t-217 -43.5q-153 0 -278.5 73.5t-195.5 198.5t-70 273t70 273t195.5 198.5t278.5 73.5zM616 152q154 0 254.5 104t100.5 262q0 160 -100.5 264.5t-254.5 104.5
q-153 0 -252.5 -104.5t-99.5 -264.5q0 -159 99.5 -262.5t252.5 -103.5zM338 1354q0 15 11 26t26 11h485q15 0 26 -11t11 -26v-72q0 -15 -11 -26t-26 -11h-485q-15 0 -26 11t-11 26v72z" />
    <glyph glyph-name="Obreve" unicode="&#x14e;" horiz-adv-x="1640" 
d="M821 1458q208 0 375 -97.5t259.5 -266.5t92.5 -377t-92.5 -378t-259.5 -268t-375 -98q-209 0 -376.5 98t-260 268t-92.5 378t92.5 377t260 266.5t376.5 97.5zM821 166q121 0 221.5 46.5t164.5 124.5t99 176t35 204t-35 204t-99 176t-164.5 124.5t-221.5 46.5
t-221.5 -46.5t-164.5 -124.5t-99 -176t-35 -204t35 -204t99 -176t164.5 -124.5t221.5 -46.5zM1008 1874h67q17 0 27.5 -14t7.5 -31q-17 -102 -94.5 -163.5t-194.5 -61.5t-194.5 61.5t-94.5 163.5q-3 17 7.5 31t27.5 14h68q13 0 23.5 -9t13.5 -22q10 -46 47.5 -79t101.5 -33
t102 33t48 79q3 13 13.5 22t23.5 9z" />
    <glyph glyph-name="obreve" unicode="&#x14f;" horiz-adv-x="1232" 
d="M616 1063q115 0 217 -43.5t173.5 -117t113 -173.5t41.5 -211t-41.5 -211t-113 -173.5t-173.5 -117t-217 -43.5q-153 0 -278.5 73.5t-195.5 198.5t-70 273t70 273t195.5 198.5t278.5 73.5zM616 152q154 0 254.5 104t100.5 262q0 160 -100.5 264.5t-254.5 104.5
q-153 0 -252.5 -104.5t-99.5 -264.5q0 -159 99.5 -262.5t252.5 -103.5zM803 1464h67q17 0 27.5 -14t7.5 -31q-17 -102 -94.5 -163.5t-194.5 -61.5t-194 61t-94 164q-3 18 7 31.5t27 13.5h68q13 0 23.5 -9t13.5 -21q10 -46 48 -79.5t101 -33.5q64 0 102 33.5t48 79.5
q3 12 13.5 21t23.5 9z" />
    <glyph glyph-name="Ohungarumlaut" unicode="&#x150;" horiz-adv-x="1640" 
d="M821 1458q208 0 375 -97.5t259.5 -266.5t92.5 -377t-92.5 -378t-259.5 -268t-375 -98q-209 0 -376.5 98t-260 268t-92.5 378t92.5 377t260 266.5t376.5 97.5zM821 166q121 0 221.5 46.5t164.5 124.5t99 176t35 204t-35 204t-99 176t-164.5 124.5t-221.5 46.5
t-221.5 -46.5t-164.5 -124.5t-99 -176t-35 -204t35 -204t99 -176t164.5 -124.5t221.5 -46.5zM604 1612q-14 0 -22 13t-2 26l96 207q19 40 67 40h84q23 0 33 -19t-2 -38l-143 -205q-15 -24 -45 -24h-66zM1022 1858q19 40 65 40h87q22 0 32 -19t-2 -38l-143 -205
q-15 -24 -45 -24h-66q-15 0 -22.5 12.5t-1.5 26.5z" />
    <glyph glyph-name="ohungarumlaut" unicode="&#x151;" horiz-adv-x="1232" 
d="M616 1063q115 0 217 -43.5t173.5 -117t113 -173.5t41.5 -211t-41.5 -211t-113 -173.5t-173.5 -117t-217 -43.5q-153 0 -278.5 73.5t-195.5 198.5t-70 273t70 273t195.5 198.5t278.5 73.5zM616 152q154 0 254.5 104t100.5 262q0 160 -100.5 264.5t-254.5 104.5
q-153 0 -252.5 -104.5t-99.5 -264.5q0 -159 99.5 -262.5t252.5 -103.5zM399 1202q-14 0 -22 13t-2 26l96 207q20 41 68 41h84q23 0 32.5 -19t-2.5 -38l-143 -205q-16 -25 -45 -25h-66zM817 1448q20 41 66 41h86q22 0 32 -19t-2 -38l-143 -205q-16 -25 -45 -25h-66
q-15 0 -22.5 12.5t-1.5 26.5z" />
    <glyph glyph-name="OE" unicode="&#x152;" horiz-adv-x="1916" 
d="M1208 186h551q23 0 39.5 -15.5t16.5 -37.5v-78q0 -23 -16.5 -39t-39.5 -16h-901q-178 0 -323.5 55t-242 151.5t-148.5 227.5t-52 283t52 283t148.5 227.5t242 151.5t323.5 55h883q22 0 37.5 -16.5t15.5 -39.5v-75q0 -23 -15.5 -39.5t-37.5 -16.5h-533v-411h486
q23 0 39 -16.5t16 -39.5v-75q0 -23 -16 -39.5t-39 -16.5h-486v-463zM1004 186v1061h-146q-255 0 -407 -144t-152 -386t152 -386.5t407 -144.5h146z" />
    <glyph glyph-name="oe" unicode="&#x153;" horiz-adv-x="2037" 
d="M1475 1063q99 0 189.5 -38.5t158.5 -108t106.5 -175.5t34.5 -231q-2 -30 -23 -51t-51 -21h-739q21 -130 107.5 -208t232.5 -78q150 0 244 88q14 12 32 13t33 -9l64 -39q22 -14 25.5 -39.5t-15.5 -44.5q-143 -146 -383 -146q-152 0 -263 60.5t-175 167.5
q-71 -106 -184.5 -167t-252.5 -61q-153 0 -278.5 73t-195.5 197.5t-70 272.5q0 149 70 274t195.5 198t278.5 73q141 0 255.5 -62.5t183.5 -169.5q67 108 175 170t245 62zM616 152q154 0 254.5 104t100.5 262q0 160 -100.5 264.5t-254.5 104.5q-152 0 -252 -104.5
t-100 -264.5q0 -158 100 -262t252 -104zM1151 600h618q-18 135 -92 211t-202 76q-132 0 -217.5 -78t-106.5 -209z" />
    <glyph glyph-name="Racute" unicode="&#x154;" horiz-adv-x="1224" 
d="M1145 68q12 -23 -0.5 -45.5t-38.5 -22.5h-113q-58 0 -80 49l-272 506q-18 -2 -55 -2h-238v-498q0 -23 -15.5 -39t-37.5 -16h-96q-23 0 -39.5 16t-16.5 39v1323q0 23 16.5 39.5t39.5 16.5h387q239 0 376.5 -124.5t137.5 -316.5q0 -131 -67 -234.5t-191 -156.5zM348 739
h238q146 0 225.5 68.5t79.5 185.5t-79.5 185.5t-225.5 68.5h-238v-508zM676 1898h86q23 0 33 -19t-2 -38l-144 -205q-15 -24 -45 -24h-65q-14 0 -22.5 13t-2.5 26l96 207q19 40 66 40z" />
    <glyph glyph-name="racute" unicode="&#x155;" horiz-adv-x="737" 
d="M319 858q45 91 128.5 143t179.5 60q17 1 29 -9.5t12 -25.5v-133q0 -15 -12 -26t-27 -11q-78 4 -136 -18.5t-90.5 -59.5t-52 -93t-25.5 -106.5t-6 -113.5v-410q0 -23 -15.5 -39t-37.5 -16h-78q-23 0 -39 16t-16 39v928q0 23 16 39t39 16h78q22 0 37.5 -16t15.5 -39v-125z
M453 1489h86q23 0 32.5 -19t-2.5 -38l-143 -205q-16 -25 -45 -25h-66q-14 0 -22 13t-2 26l96 207q20 41 66 41z" />
    <glyph glyph-name="Rcommaaccent" unicode="&#x156;" horiz-adv-x="1224" 
d="M1145 68q12 -23 -0.5 -45.5t-38.5 -22.5h-113q-58 0 -80 49l-272 506q-18 -2 -55 -2h-238v-498q0 -23 -15.5 -39t-37.5 -16h-96q-23 0 -39.5 16t-16.5 39v1323q0 23 16.5 39.5t39.5 16.5h387q239 0 376.5 -124.5t137.5 -316.5q0 -131 -67 -234.5t-191 -156.5zM348 739
h238q146 0 225.5 68.5t79.5 185.5t-79.5 185.5t-225.5 68.5h-238v-508zM543 -221q14 35 51 35h115q15 0 22.5 -13.5t1.5 -27.5l-119 -217q-16 -29 -49 -29h-76q-14 0 -22 12t-2 25z" />
    <glyph glyph-name="rcommaaccent" unicode="&#x157;" horiz-adv-x="737" 
d="M319 858q45 91 128.5 143t179.5 60q17 1 29 -9.5t12 -25.5v-133q0 -15 -12 -26t-27 -11q-78 4 -136 -18.5t-90.5 -59.5t-52 -93t-25.5 -106.5t-6 -113.5v-410q0 -23 -15.5 -39t-37.5 -16h-78q-23 0 -39 16t-16 39v928q0 23 16 39t39 16h78q22 0 37.5 -16t15.5 -39v-125z
M106 -221q6 15 20.5 25t31.5 10h114q15 0 23 -13.5t2 -27.5l-119 -217q-16 -29 -49 -29h-76q-14 0 -22 12t-2 25z" />
    <glyph glyph-name="Rcaron" unicode="&#x158;" horiz-adv-x="1224" 
d="M1145 68q12 -23 -0.5 -45.5t-38.5 -22.5h-113q-58 0 -80 49l-272 506q-18 -2 -55 -2h-238v-498q0 -23 -15.5 -39t-37.5 -16h-96q-23 0 -39.5 16t-16.5 39v1323q0 23 16.5 39.5t39.5 16.5h387q239 0 376.5 -124.5t137.5 -316.5q0 -131 -67 -234.5t-191 -156.5zM348 739
h238q146 0 225.5 68.5t79.5 185.5t-79.5 185.5t-225.5 68.5h-238v-508zM322 1853q-11 13 -3 29t25 16h82q38 0 59 -30l117 -160l117 160q18 30 59 30h82q17 0 24.5 -16t-3.5 -29l-168 -213q-22 -28 -58 -28h-106q-38 0 -57 28z" />
    <glyph glyph-name="rcaron" unicode="&#x159;" horiz-adv-x="737" 
d="M319 858q45 91 128.5 143t179.5 60q17 1 29 -9.5t12 -25.5v-133q0 -15 -12 -26t-27 -11q-78 4 -136 -18.5t-90.5 -59.5t-52 -93t-25.5 -106.5t-6 -113.5v-410q0 -23 -15.5 -39t-37.5 -16h-78q-23 0 -39 16t-16 39v928q0 23 16 39t39 16h78q22 0 37.5 -16t15.5 -39v-125z
M90 1444q-10 14 -2 29.5t25 15.5h82q37 0 59 -31l117 -160l116 160q19 31 60 31h82q17 0 24 -15.5t-4 -29.5l-168 -213q-23 -29 -57 -29h-107q-38 0 -57 29z" />
    <glyph glyph-name="Sacute" unicode="&#x15a;" horiz-adv-x="1144" 
d="M680 797q215 -51 309 -140t94 -258q0 -79 -28 -151.5t-85 -135t-158.5 -100t-233.5 -37.5q-160 0 -295.5 67.5t-198.5 199.5q-11 22 -0.5 44t35.5 29l96 31q19 6 38 -1.5t28 -25.5q32 -65 109.5 -108t191.5 -43q125 0 208.5 55t83.5 160q0 36 -9 65t-21 49.5t-38 38.5
t-46.5 28.5t-60.5 22.5t-66.5 18t-78 17.5t-81.5 18.5q-105 25 -176.5 66t-109.5 95.5t-53 113t-15 133.5q0 119 62.5 213.5t170.5 146t240 51.5q139 0 249 -65.5t163 -184.5q10 -23 -1 -46t-36 -29l-97 -23q-19 -4 -35.5 4t-25.5 25q-76 145 -281 127q-85 -9 -144 -71
t-60 -148q0 -50 19 -88.5t46 -61.5t75 -42.5t87 -29.5t101 -24q7 -1 10 -2t8.5 -2t9.5 -2zM666 1898h86q23 0 32.5 -19t-2.5 -38l-143 -205q-15 -24 -45 -24h-66q-14 0 -22 13t-2 26l96 207q19 40 66 40z" />
    <glyph glyph-name="sacute" unicode="&#x15b;" horiz-adv-x="927" 
d="M528 602q189 -39 264.5 -105t75.5 -186q0 -145 -105.5 -240.5t-301.5 -95.5q-136 0 -241 46t-154 131q-12 23 -2.5 46t32.5 31l82 29q40 13 64 -22q59 -91 223 -91q101 0 156 39.5t55 108.5q0 30 -14.5 52t-35.5 35t-56.5 23.5t-65.5 15.5t-75 13t-73 14
q-144 33 -211 104.5t-67 186.5q0 143 107.5 234.5t277.5 91.5q109 0 198.5 -46.5t131.5 -129.5q12 -23 2 -47.5t-35 -30.5l-74 -21q-39 -10 -59 23q-24 37 -70.5 61.5t-112.5 24.5q-77 0 -126.5 -40.5t-49.5 -104.5q0 -24 7.5 -43.5t24 -33.5t32.5 -23.5t44.5 -17t47 -12
t53.5 -11t51 -9.5zM526 1489h86q23 0 33 -19t-2 -38l-143 -205q-16 -25 -45 -25h-66q-14 0 -22 13t-2 26l96 207q20 41 65 41z" />
    <glyph glyph-name="Scircumflex" unicode="&#x15c;" horiz-adv-x="1142" 
d="M680 797q215 -51 309 -140t94 -258q0 -79 -28 -151.5t-85 -135t-158.5 -100t-233.5 -37.5q-160 0 -295.5 67.5t-198.5 199.5q-11 22 -0.5 44t35.5 29l96 31q19 6 38 -1.5t28 -25.5q32 -65 109.5 -108t191.5 -43q125 0 208.5 55t83.5 160q0 36 -9 65t-21 49.5t-38 38.5
t-46.5 28.5t-60.5 22.5t-66.5 18t-78 17.5t-81.5 18.5q-105 25 -176.5 66t-109.5 95.5t-53 113t-15 133.5q0 119 62.5 213.5t170.5 146t240 51.5q139 0 249 -65.5t163 -184.5q10 -23 -1 -46t-36 -29l-97 -23q-19 -4 -35.5 4t-25.5 25q-76 145 -281 127q-85 -9 -144 -71
t-60 -148q0 -50 19 -88.5t46 -61.5t75 -42.5t87 -29.5t101 -24q7 -1 10 -2t8.5 -2t9.5 -2zM852 1657q11 -13 3.5 -29t-24.5 -16h-83q-40 0 -58 30l-117 160l-116 -160q-21 -30 -60 -30h-82q-17 0 -25 16t3 29l170 213q19 28 57 28h107q35 0 57 -28z" />
    <glyph glyph-name="scircumflex" unicode="&#x15d;" horiz-adv-x="927" 
d="M528 602q189 -39 264.5 -105t75.5 -186q0 -145 -105.5 -240.5t-301.5 -95.5q-136 0 -241 46t-154 131q-12 23 -2.5 46t32.5 31l82 29q40 13 64 -22q59 -91 223 -91q101 0 156 39.5t55 108.5q0 30 -14.5 52t-35.5 35t-56.5 23.5t-65.5 15.5t-75 13t-73 14
q-144 33 -211 104.5t-67 186.5q0 143 107.5 234.5t277.5 91.5q109 0 198.5 -46.5t131.5 -129.5q12 -23 2 -47.5t-35 -30.5l-74 -21q-39 -10 -59 23q-24 37 -70.5 61.5t-112.5 24.5q-77 0 -126.5 -40.5t-49.5 -104.5q0 -24 7.5 -43.5t24 -33.5t32.5 -23.5t44.5 -17t47 -12
t53.5 -11t51 -9.5zM733 1247q11 -13 4 -29t-24 -16h-84q-39 0 -58 31l-116 160l-117 -160q-22 -31 -59 -31h-82q-17 0 -25 16t2 29l170 213q19 29 57 29h107q34 0 57 -29z" />
    <glyph glyph-name="Scedilla" unicode="&#x15e;" horiz-adv-x="1142" 
d="M598 -25l-37 -77q100 10 168 -38.5t68 -152.5q0 -96 -69 -158.5t-183 -62.5q-73 0 -139 27q-15 5 -21.5 20.5t2.5 30.5l27 51q19 26 45 16q35 -14 73 -14q62 0 98 29.5t36 77.5q0 43 -27 66.5t-76 23.5q-35 0 -67 -13q-25 -7 -39 13l-19 22q-12 18 -2 39l51 105
q-134 18 -241.5 83.5t-161.5 178.5q-11 22 -0.5 44t35.5 29l96 31q19 6 38 -1.5t28 -25.5q32 -65 109.5 -108t191.5 -43q125 0 208.5 55t83.5 160q0 36 -9 65t-21 49.5t-38 38.5t-46.5 28.5t-60.5 22.5t-66.5 18t-78 17.5t-81.5 18.5q-105 25 -176.5 66t-109.5 95.5t-53 113
t-15 133.5q0 119 62.5 213.5t170.5 146t240 51.5q139 0 248 -65.5t164 -184.5q10 -23 -1 -46t-36 -29l-97 -23q-19 -4 -35.5 4t-25.5 25q-76 145 -281 127q-85 -9 -144 -71t-60 -148q0 -50 19 -88.5t46 -61.5t75 -42.5t87 -29.5t101 -24q7 -1 10 -2t8.5 -2t9.5 -2
q215 -51 309 -140t94 -258q0 -78 -27 -149.5t-82 -133.5t-152 -100t-224 -41z" />
    <glyph glyph-name="scedilla" unicode="&#x15f;" horiz-adv-x="927" 
d="M868 311q0 -90 -40.5 -163t-127.5 -120.5t-211 -52.5l-38 -77q101 10 169 -38.5t68 -152.5q0 -96 -69 -158.5t-183 -62.5q-75 0 -141 27q-15 4 -21 20t2 31l29 51q6 11 19 15.5t26 0.5q32 -14 74 -14q62 0 97.5 29.5t35.5 77.5q0 43 -27.5 66.5t-76.5 23.5q-37 0 -66 -13
q-24 -7 -41 13l-16 22q-13 20 -4 39l51 105q-108 12 -190 56.5t-121 115.5q-12 23 -3.5 46.5t33.5 30.5l82 29q17 6 35 -0.5t29 -21.5q59 -91 223 -91q101 0 156 39.5t55 108.5q0 30 -14.5 52t-36 35t-57 23.5t-65.5 15.5t-74.5 13t-72.5 14q-145 33 -211.5 104.5
t-66.5 186.5q0 143 107.5 234.5t277.5 91.5q109 0 198.5 -46.5t131.5 -129.5q12 -23 1.5 -47.5t-36.5 -30.5l-72 -21q-41 -10 -61 23q-22 37 -68.5 61.5t-112.5 24.5q-77 0 -127.5 -40.5t-50.5 -104.5q0 -24 7.5 -43.5t24.5 -33.5t33 -23.5t45 -17t47.5 -12t53.5 -11
t51 -9.5q189 -39 264.5 -105t75.5 -186z" />
    <glyph glyph-name="Scaron" unicode="&#x160;" horiz-adv-x="1144" 
d="M680 797q215 -51 309 -140t94 -258q0 -79 -28 -151.5t-85 -135t-158.5 -100t-233.5 -37.5q-160 0 -295.5 67.5t-198.5 199.5q-11 22 -0.5 44t35.5 29l96 31q19 6 38 -1.5t28 -25.5q32 -65 109.5 -108t191.5 -43q125 0 208.5 55t83.5 160q0 36 -9 65t-21 49.5t-38 38.5
t-46.5 28.5t-60.5 22.5t-66.5 18t-78 17.5t-81.5 18.5q-105 25 -176.5 66t-109.5 95.5t-53 113t-15 133.5q0 119 62.5 213.5t170.5 146t240 51.5q139 0 249 -65.5t163 -184.5q10 -23 -1 -46t-36 -29l-97 -23q-19 -4 -35.5 4t-25.5 25q-76 145 -281 127q-85 -9 -144 -71
t-60 -148q0 -50 19 -88.5t46 -61.5t75 -42.5t87 -29.5t101 -24q7 -1 10 -2t8.5 -2t9.5 -2zM293 1853q-11 13 -3 29t25 16h82q39 0 60 -30l116 -160l117 160q18 30 60 30h81q17 0 24.5 -16t-3.5 -29l-168 -213q-22 -28 -57 -28h-107q-38 0 -57 28z" />
    <glyph glyph-name="scaron" unicode="&#x161;" horiz-adv-x="927" 
d="M528 602q189 -39 264.5 -105t75.5 -186q0 -145 -105.5 -240.5t-301.5 -95.5q-136 0 -241 46t-154 131q-12 23 -2.5 46t32.5 31l82 29q40 13 64 -22q59 -91 223 -91q101 0 156 39.5t55 108.5q0 30 -14.5 52t-35.5 35t-56.5 23.5t-65.5 15.5t-75 13t-73 14
q-144 33 -211 104.5t-67 186.5q0 143 107.5 234.5t277.5 91.5q109 0 198.5 -46.5t131.5 -129.5q12 -23 2 -47.5t-35 -30.5l-74 -21q-39 -10 -59 23q-24 37 -70.5 61.5t-112.5 24.5q-77 0 -126.5 -40.5t-49.5 -104.5q0 -24 7.5 -43.5t24 -33.5t32.5 -23.5t44.5 -17t47 -12
t53.5 -11t51 -9.5zM174 1444q-10 14 -2 29.5t25 15.5h82q37 0 59 -31l117 -160l116 160q19 31 60 31h82q17 0 24 -15.5t-4 -29.5l-168 -213q-23 -29 -57 -29h-107q-38 0 -57 29z" />
    <glyph glyph-name="Tcommaaccent" unicode="&#x162;" horiz-adv-x="1093" 
d="M956 1434q23 0 39.5 -16.5t16.5 -39.5v-75q0 -23 -16.5 -39.5t-39.5 -16.5h-307v-1192q0 -23 -16 -39t-39 -16h-94q-23 0 -39.5 16t-16.5 39v1192h-307q-23 0 -39 16.5t-16 39.5v75q0 23 16 39.5t39 16.5h819zM426 -221q14 35 51 35h115q15 0 22.5 -13.5t1.5 -27.5
l-118 -217q-16 -29 -49 -29h-76q-14 0 -22.5 12t-2.5 25z" />
    <glyph glyph-name="tcommaaccent" unicode="&#x163;" horiz-adv-x="751" 
d="M649 915q0 -23 -16 -39t-39 -16h-186v-454q0 -39 0.5 -60.5t3.5 -52t9.5 -47t18 -35.5t29 -28.5t43 -16t59.5 -6.5h29q20 2 34.5 -11.5t14.5 -33.5v-76q0 -18 -11.5 -30.5t-29.5 -14.5q-36 -4 -59 -4q-168 0 -248 88t-80 262v520h-123q-23 0 -39 16t-16 39v68q0 23 16 39
t39 16h123v164q0 22 16 37.5t39 15.5h76q23 0 39.5 -15.5t16.5 -37.5v-164h186q23 0 39 -16t16 -39v-68zM295 -221q14 35 51 35h115q15 0 22.5 -13.5t1.5 -27.5l-118 -217q-16 -29 -50 -29h-75q-14 0 -22.5 12t-2.5 25z" />
    <glyph glyph-name="Tcaron" unicode="&#x164;" horiz-adv-x="1093" 
d="M956 1434q23 0 39.5 -16.5t16.5 -39.5v-75q0 -23 -16.5 -39.5t-39.5 -16.5h-307v-1192q0 -23 -16 -39t-39 -16h-94q-23 0 -39.5 16t-16.5 39v1192h-307q-23 0 -39 16.5t-16 39.5v75q0 23 16 39.5t39 16.5h819zM266 1853q-10 13 -2 29t25 16h82q38 0 59 -30l117 -160
l117 160q18 30 59 30h82q17 0 24 -16t-4 -29l-168 -213q-22 -28 -57 -28h-106q-39 0 -58 28z" />
    <glyph glyph-name="tcaron" unicode="&#x165;" horiz-adv-x="751" 
d="M649 915q0 -23 -16 -39t-39 -16h-186v-454q0 -39 0.5 -60.5t3.5 -52t9.5 -47t18 -35.5t29 -28.5t43 -16t59.5 -6.5h29q20 2 34.5 -11.5t14.5 -33.5v-76q0 -18 -11.5 -30.5t-29.5 -14.5q-36 -4 -59 -4q-168 0 -248 88t-80 262v520h-123q-23 0 -39 16t-16 39v68q0 23 16 39
t39 16h123v164q0 22 16 37.5t39 15.5h76q23 0 39.5 -15.5t16.5 -37.5v-164h186q23 0 39 -16t16 -39v-68zM729 1423q14 35 51 35h115q15 0 23 -13.5t2 -27.5l-119 -217q-16 -29 -49 -29h-76q-14 0 -22.5 12t-2.5 25z" />
    <glyph glyph-name="Tbar" unicode="&#x166;" horiz-adv-x="1093" 
d="M1012 1303q0 -23 -16.5 -39.5t-39.5 -16.5h-307v-385h219q19 0 32 -13t13 -32v-55q0 -19 -13 -32t-32 -13h-219v-662q0 -23 -16 -39t-39 -16h-94q-23 0 -39.5 16t-16.5 39v662h-219q-19 0 -32 13t-13 32v55q0 19 13 32t32 13h219v385h-307q-23 0 -39 16.5t-16 39.5v75
q0 23 16 39.5t39 16.5h819q23 0 39.5 -16.5t16.5 -39.5v-75z" />
    <glyph glyph-name="tbar" unicode="&#x167;" horiz-adv-x="751" 
d="M649 915q0 -23 -16 -39t-39 -16h-186v-168h204q15 0 26 -11t11 -26v-37q0 -15 -11 -25.5t-26 -10.5h-204v-176q0 -39 0.5 -60.5t3.5 -52t9.5 -47t18 -35.5t29 -28.5t43 -16t59.5 -6.5h29q20 2 34.5 -11.5t14.5 -33.5v-76q0 -18 -11.5 -30.5t-29.5 -14.5q-36 -4 -59 -4
q-168 0 -248 88t-80 262v242h-141q-15 0 -26 10.5t-11 25.5v37q0 15 11 26t26 11h141v168h-123q-23 0 -39 16t-16 39v68q0 23 16 39t39 16h123v164q0 22 16 37.5t39 15.5h78q22 0 38 -15.5t16 -37.5v-164h186q23 0 39 -16t16 -39v-68z" />
    <glyph glyph-name="Utilde" unicode="&#x168;" horiz-adv-x="1376" 
d="M1083 1434h95q23 0 39 -16.5t16 -39.5v-833q0 -278 -140.5 -424t-404.5 -146q-263 0 -404 146t-141 424v833q0 23 16.5 39.5t39.5 16.5h96q23 0 39 -16.5t16 -39.5v-796q0 -219 88 -316.5t250 -97.5q164 0 252 97.5t88 316.5v796q0 23 16 39.5t39 16.5zM911 1806l52 -8
q15 -3 23 -16.5t5 -28.5q-35 -149 -168 -149q-53 0 -133.5 33.5t-116.5 33.5q-49 0 -65 -53q-4 -12 -16.5 -19.5t-24.5 -5.5l-51 11q-17 3 -25.5 16t-5.5 27q39 149 168 149q48 0 128.5 -33.5t119.5 -33.5q53 0 69 53q3 12 15.5 19.5t25.5 4.5z" />
    <glyph glyph-name="utilde" unicode="&#x169;" 
d="M907 1038h78q22 0 37.5 -16t15.5 -39v-928q0 -23 -15.5 -39t-37.5 -16h-78q-23 0 -39 16t-16 39v90q-110 -170 -320 -170q-171 0 -285 122.5t-114 291.5v594q0 23 16 39t39 16h78q22 0 37.5 -16t15.5 -39v-541q0 -57 13.5 -107t42.5 -92t81 -66.5t122 -24.5t125 27.5
t86.5 72t47 93t15.5 97.5v541q0 23 16 39t39 16zM809 1397l51 -8q15 -3 23.5 -17t5.5 -29q-35 -149 -168 -149q-53 0 -133.5 34t-116.5 34q-49 0 -65 -54q-4 -12 -16.5 -19t-24.5 -5l-52 10q-17 3 -25 16t-5 27q39 149 168 149q47 0 128 -33.5t119 -33.5q54 0 70 53
q3 12 15.5 20t25.5 5z" />
    <glyph glyph-name="Umacron" unicode="&#x16a;" horiz-adv-x="1376" 
d="M1083 1434h95q23 0 39 -16.5t16 -39.5v-833q0 -278 -140.5 -424t-404.5 -146q-263 0 -404 146t-141 424v833q0 23 16.5 39.5t39.5 16.5h96q23 0 39 -16.5t16 -39.5v-796q0 -219 88 -316.5t250 -97.5q164 0 252 97.5t88 316.5v796q0 23 16 39.5t39 16.5zM410 1763
q0 15 10.5 26t25.5 11h486q15 0 26 -11t11 -26v-71q0 -15 -11 -26t-26 -11h-486q-15 0 -25.5 11t-10.5 26v71z" />
    <glyph glyph-name="umacron" unicode="&#x16b;" 
d="M907 1038h78q22 0 37.5 -16t15.5 -39v-928q0 -23 -15.5 -39t-37.5 -16h-78q-23 0 -39 16t-16 39v90q-110 -170 -320 -170q-171 0 -285 122.5t-114 291.5v594q0 23 16 39t39 16h78q22 0 37.5 -16t15.5 -39v-541q0 -57 13.5 -107t42.5 -92t81 -66.5t122 -24.5t125 27.5
t86.5 72t47 93t15.5 97.5v541q0 23 16 39t39 16zM307 1354q0 15 11 26t26 11h485q15 0 26 -11t11 -26v-72q0 -15 -11 -26t-26 -11h-485q-15 0 -26 11t-11 26v72z" />
    <glyph glyph-name="Ubreve" unicode="&#x16c;" horiz-adv-x="1376" 
d="M1083 1434h95q23 0 39 -16.5t16 -39.5v-833q0 -278 -140.5 -424t-404.5 -146q-263 0 -404 146t-141 424v833q0 23 16.5 39.5t39.5 16.5h96q23 0 39 -16.5t16 -39.5v-796q0 -219 88 -316.5t250 -97.5q164 0 252 97.5t88 316.5v796q0 23 16 39.5t39 16.5zM877 1874h67
q17 0 27.5 -14t7.5 -31q-17 -102 -94.5 -163.5t-194.5 -61.5t-194.5 61.5t-94.5 163.5q-3 17 7.5 31t27.5 14h68q13 0 23.5 -9t13.5 -22q10 -46 47.5 -79t101.5 -33t102 33t48 79q3 13 13.5 22t23.5 9z" />
    <glyph glyph-name="ubreve" unicode="&#x16d;" 
d="M907 1038h78q22 0 37.5 -16t15.5 -39v-928q0 -23 -15.5 -39t-37.5 -16h-78q-23 0 -39 16t-16 39v90q-110 -170 -320 -170q-171 0 -285 122.5t-114 291.5v594q0 23 16 39t39 16h78q22 0 37.5 -16t15.5 -39v-541q0 -57 13.5 -107t42.5 -92t81 -66.5t122 -24.5t125 27.5
t86.5 72t47 93t15.5 97.5v541q0 23 16 39t39 16zM772 1464h68q17 0 27 -13.5t7 -31.5q-17 -103 -94 -164t-194 -61t-194.5 61.5t-94.5 163.5q-3 17 7.5 31t27.5 14h67q13 0 23.5 -9t13.5 -21q10 -46 48 -79.5t102 -33.5q63 0 101 33.5t48 79.5q3 12 13.5 21t23.5 9z" />
    <glyph glyph-name="Uring" unicode="&#x16e;" horiz-adv-x="1376" 
d="M1083 1434h95q23 0 39 -16.5t16 -39.5v-833q0 -278 -140.5 -424t-404.5 -146q-263 0 -404 146t-141 424v833q0 23 16.5 39.5t39.5 16.5h96q23 0 39 -16.5t16 -39.5v-796q0 -219 88 -316.5t250 -97.5q164 0 252 97.5t88 316.5v796q0 23 16 39.5t39 16.5zM688 1978
q93 0 158 -65t65 -158t-65 -158t-158 -65q-92 0 -157.5 65.5t-65.5 157.5t65.5 157.5t157.5 65.5zM688 1640q47 0 81 34t34 81q0 46 -34 79.5t-81 33.5q-46 0 -79.5 -33.5t-33.5 -79.5q0 -47 33.5 -81t79.5 -34z" />
    <glyph glyph-name="uring" unicode="&#x16f;" 
d="M907 1038h78q22 0 37.5 -16t15.5 -39v-928q0 -23 -15.5 -39t-37.5 -16h-78q-23 0 -39 16t-16 39v90q-110 -170 -320 -170q-171 0 -285 122.5t-114 291.5v594q0 23 16 39t39 16h78q22 0 37.5 -16t15.5 -39v-541q0 -57 13.5 -107t42.5 -92t81 -66.5t122 -24.5t125 27.5
t86.5 72t47 93t15.5 97.5v541q0 23 16 39t39 16zM586 1589q93 0 158 -65t65 -158t-65 -158t-158 -65q-92 0 -158 65.5t-66 157.5t66 157.5t158 65.5zM586 1251q47 0 80.5 34t33.5 81q0 46 -33.5 79.5t-80.5 33.5q-46 0 -79.5 -33.5t-33.5 -79.5q0 -47 33.5 -81t79.5 -34z
" />
    <glyph glyph-name="Uhungarumlaut" unicode="&#x170;" horiz-adv-x="1376" 
d="M1083 1434h95q23 0 39 -16.5t16 -39.5v-833q0 -278 -140.5 -424t-404.5 -146q-263 0 -404 146t-141 424v833q0 23 16.5 39.5t39.5 16.5h96q23 0 39 -16.5t16 -39.5v-796q0 -219 88 -316.5t250 -97.5q164 0 252 97.5t88 316.5v796q0 23 16 39.5t39 16.5zM471 1612
q-14 0 -22.5 13t-2.5 26l97 207q19 40 67 40h84q23 0 33 -19t-2 -38l-143 -205q-15 -24 -45 -24h-66zM889 1858q19 40 65 40h86q22 0 32.5 -19t-1.5 -38l-143 -205q-15 -24 -45 -24h-66q-15 0 -22.5 12.5t-1.5 26.5z" />
    <glyph glyph-name="uhungarumlaut" unicode="&#x171;" 
d="M907 1038h78q22 0 37.5 -16t15.5 -39v-928q0 -23 -15.5 -39t-37.5 -16h-78q-23 0 -39 16t-16 39v90q-110 -170 -320 -170q-171 0 -285 122.5t-114 291.5v594q0 23 16 39t39 16h78q22 0 37.5 -16t15.5 -39v-541q0 -57 13.5 -107t42.5 -92t81 -66.5t122 -24.5t125 27.5
t86.5 72t47 93t15.5 97.5v541q0 23 16 39t39 16zM369 1202q-14 0 -22.5 13t-2.5 26l96 207q20 41 68 41h84q23 0 33 -19t-2 -38l-144 -205q-16 -25 -45 -25h-65zM786 1448q20 41 66 41h86q22 0 32.5 -19t-1.5 -38l-144 -205q-16 -25 -45 -25h-65q-15 0 -23 12.5t-2 26.5z
" />
    <glyph glyph-name="Uogonek" unicode="&#x172;" horiz-adv-x="1376" 
d="M1081 1434h95q23 0 39 -16.5t16 -39.5v-833q0 -208 -80 -343.5t-233 -191.5q-70 -44 -117 -115.5t-47 -134.5q0 -52 32 -80.5t97 -27.5q15 1 26 -9.5t11 -25.5v-63q0 -14 -9 -24t-22 -11q-28 -4 -49 -4q-101 0 -162.5 56t-61.5 144q0 79 46 147.5t112 117.5
q-34 -5 -88 -5q-262 0 -402.5 146t-140.5 424v833q0 23 16 39.5t38 16.5h96q23 0 39 -16.5t16 -39.5v-796q0 -219 88 -316.5t250 -97.5q164 0 252 97.5t88 316.5v796q0 23 16 39.5t39 16.5z" />
    <glyph glyph-name="uogonek" unicode="&#x173;" 
d="M1040 29q0 -27 -22 -43q-65 -47 -104.5 -108t-39.5 -118q0 -52 32.5 -80.5t97.5 -27.5q15 1 25.5 -9.5t10.5 -25.5v-63q0 -14 -8.5 -24t-21.5 -11q-28 -4 -47 -4q-103 0 -164.5 56t-61.5 144t58 163.5t131 121.5h-17q-23 0 -39 16t-16 39v90q-110 -170 -319 -170
q-171 0 -285.5 122.5t-114.5 291.5v594q0 23 16 39t39 16h76q23 0 39.5 -16t16.5 -39v-541q0 -58 13 -107t41.5 -91.5t80.5 -67t123 -24.5q70 0 125 27.5t86.5 72t47 93t15.5 97.5v541q0 23 16 39t39 16h76q23 0 39 -16t16 -39v-954z" />
    <glyph glyph-name="Wcircumflex" unicode="&#x174;" horiz-adv-x="2023" 
d="M1745 1382q8 23 26.5 37.5t43.5 14.5h118q19 0 29 -15.5t4 -32.5l-428 -1335q-7 -23 -26.5 -37t-43.5 -14h-88q-25 0 -44 14t-25 37l-299 965l-299 -965q-6 -23 -25.5 -37t-44.5 -14h-88q-24 0 -43.5 14t-26.5 37l-428 1335q-6 17 4 32.5t29 15.5h119q25 0 43.5 -14.5
t26.5 -37.5l321 -1060l326 1060q8 24 26.5 38t42.5 14h33q25 0 43.5 -14.5t26.5 -37.5l325 -1060zM1292 1657q11 -13 4 -29t-24 -16h-84q-40 0 -58 30l-116 160l-117 -160q-21 -30 -59 -30h-82q-17 0 -25 16t2 29l170 213q19 28 58 28h106q35 0 57 -28z" />
    <glyph glyph-name="wcircumflex" unicode="&#x175;" horiz-adv-x="1585" 
d="M1321 987q6 23 25.5 37t44.5 14h90q23 0 36.5 -19t6.5 -42l-312 -928q-8 -22 -26.5 -35.5t-42.5 -13.5h-70q-25 0 -43 14t-26 37l-211 656l-209 -656q-7 -23 -26.5 -37t-43.5 -14h-72q-23 0 -42 13.5t-25 35.5l-314 928q-7 23 6.5 42t36.5 19h93q23 0 42.5 -14t26.5 -37
l215 -715l232 727q14 39 53 39h55q17 0 32 -11t19 -28l232 -727zM1073 1247q11 -13 4 -29t-24 -16h-84q-39 0 -58 31l-116 160l-117 -160q-22 -31 -60 -31h-81q-17 0 -25 16t2 29l170 213q19 29 57 29h107q34 0 57 -29z" />
    <glyph glyph-name="Ycircumflex" unicode="&#x176;" horiz-adv-x="1355" 
d="M1251 1434q22 0 32 -18.5t-1 -37.5l-502 -841v-482q0 -23 -16 -39t-39 -16h-94q-23 0 -39.5 16t-16.5 39v482l-501 841q-11 19 -1 37.5t31 18.5h115q56 0 78 -45l381 -668l381 668q25 45 78 45h114zM958 1657q11 -13 4 -29t-24 -16h-84q-39 0 -57 30l-117 160l-117 -160
q-21 -30 -59 -30h-82q-17 0 -25 16t2 29l170 213q19 28 58 28h106q36 0 58 -28z" />
    <glyph glyph-name="ycircumflex" unicode="&#x177;" horiz-adv-x="1099" 
d="M834 991q7 21 26 34t41 13h92q23 0 36.5 -20t4.5 -43q-328 -833 -387 -975q-81 -201 -167.5 -298t-221.5 -97q-35 0 -51 2q-17 0 -29 13t-12 32v78q0 19 12 32t31 13q89 3 148.5 62t117.5 216q-10 27 -171 392t-236 530q-9 22 4.5 42.5t38.5 20.5h90q22 0 40 -12.5
t25 -32.5l301 -704zM829 1247q11 -13 4 -29t-24 -16h-84q-38 0 -57 31l-117 160l-117 -160q-22 -31 -59 -31h-82q-17 0 -25 16t2 29l170 213q19 29 58 29h106q35 0 58 -29z" />
    <glyph glyph-name="Ydieresis" unicode="&#x178;" horiz-adv-x="1355" 
d="M1251 1434q22 0 32 -18.5t-1 -37.5l-502 -841v-482q0 -23 -16 -39t-39 -16h-94q-23 0 -39.5 16t-16.5 39v482l-501 841q-11 19 -1 37.5t31 18.5h115q56 0 78 -45l381 -668l381 668q25 45 78 45h114zM475 1853q50 0 84.5 -33.5t34.5 -82.5t-35 -84t-84 -35t-83 34.5
t-34 84.5q0 49 33.5 82.5t83.5 33.5zM881 1853q50 0 84 -33.5t34 -82.5q0 -50 -34.5 -84.5t-83.5 -34.5q-48 0 -82.5 35t-34.5 84t34.5 82.5t82.5 33.5z" />
    <glyph glyph-name="Zacute" unicode="&#x179;" horiz-adv-x="1175" 
d="M348 186h690q23 0 39.5 -15.5t16.5 -37.5v-78q0 -23 -16.5 -39t-39.5 -16h-901q-23 0 -39 16t-16 39v56q0 40 22 71l723 1065h-653q-23 0 -39 16.5t-16 39.5v75q0 23 16 39.5t39 16.5h846q23 0 39 -16.5t16 -39.5v-57q0 -41 -20 -70zM662 1898h86q23 0 32.5 -19t-2.5 -38
l-143 -205q-15 -24 -45 -24h-66q-14 0 -22 13t-2 26l96 207q19 40 66 40z" />
    <glyph glyph-name="zacute" unicode="&#x17a;" horiz-adv-x="970" 
d="M328 176h495q23 0 39.5 -15.5t16.5 -37.5v-68q0 -23 -16.5 -39t-39.5 -16h-678q-23 0 -39 16t-16 39v66q0 25 19 55l514 684h-459q-23 0 -39 16t-16 39v68q0 23 16 39t39 16h641q23 0 39 -16t16 -39v-65q0 -32 -18 -56zM559 1489h86q23 0 33 -19t-2 -38l-144 -205
q-16 -25 -45 -25h-65q-14 0 -22.5 13t-2.5 26l97 207q20 41 65 41z" />
    <glyph glyph-name="Zdotaccent" unicode="&#x17b;" horiz-adv-x="1175" 
d="M348 186h690q23 0 39.5 -15.5t16.5 -37.5v-78q0 -23 -16.5 -39t-39.5 -16h-901q-23 0 -39 16t-16 39v56q0 40 22 71l723 1065h-653q-23 0 -39 16.5t-16 39.5v75q0 23 16 39.5t39 16.5h846q23 0 39 -16.5t16 -39.5v-57q0 -41 -20 -70zM588 1853q50 0 84.5 -33.5
t34.5 -82.5t-34.5 -84t-84.5 -35q-49 0 -83 34.5t-34 84.5q0 49 33.5 82.5t83.5 33.5z" />
    <glyph glyph-name="zdotaccent" unicode="&#x17c;" horiz-adv-x="970" 
d="M328 176h495q23 0 39.5 -15.5t16.5 -37.5v-68q0 -23 -16.5 -39t-39.5 -16h-678q-23 0 -39 16t-16 39v66q0 25 19 55l514 684h-459q-23 0 -39 16t-16 39v68q0 23 16 39t39 16h641q23 0 39 -16t16 -39v-65q0 -32 -18 -56zM485 1444q50 0 84.5 -34t34.5 -83t-35 -84t-84 -35
t-82.5 34.5t-33.5 84.5t33.5 83.5t82.5 33.5z" />
    <glyph glyph-name="Zcaron" unicode="&#x17d;" horiz-adv-x="1175" 
d="M348 186h690q23 0 39.5 -15.5t16.5 -37.5v-78q0 -23 -16.5 -39t-39.5 -16h-901q-23 0 -39 16t-16 39v56q0 40 22 71l723 1065h-653q-23 0 -39 16.5t-16 39.5v75q0 23 16 39.5t39 16.5h846q23 0 39 -16.5t16 -39.5v-57q0 -41 -20 -70zM309 1853q-10 13 -2 29t25 16h82
q38 0 59 -30l117 -160l117 160q18 30 59 30h82q17 0 24 -16t-4 -29l-168 -213q-22 -28 -57 -28h-106q-39 0 -58 28z" />
    <glyph glyph-name="zcaron" unicode="&#x17e;" horiz-adv-x="970" 
d="M328 176h495q23 0 39.5 -15.5t16.5 -37.5v-68q0 -23 -16.5 -39t-39.5 -16h-678q-23 0 -39 16t-16 39v66q0 25 19 55l514 684h-459q-23 0 -39 16t-16 39v68q0 23 16 39t39 16h641q23 0 39 -16t16 -39v-65q0 -32 -18 -56zM207 1444q-11 14 -3 29.5t25 15.5h82q38 0 60 -31
l116 -160l117 160q19 31 60 31h81q17 0 24.5 -15.5t-3.5 -29.5l-168 -213q-23 -29 -57 -29h-107q-38 0 -57 29z" />
    <glyph glyph-name="longs" unicode="&#x17f;" horiz-adv-x="724" 
d="M612 1303q-49 0 -83.5 -13t-54.5 -34t-32 -57t-15.5 -72t-4.5 -89v-983q0 -23 -15.5 -39t-37.5 -16h-78q-23 0 -39 16t-16 39v805h-111q-22 0 -37.5 16t-15.5 39v68q0 23 15.5 39t37.5 16h111q0 422 356 422q5 0 13.5 -1t12.5 -1q19 0 32.5 -13t13.5 -32v-63
q0 -20 -14 -33.5t-34 -13.5h-4z" />
    <glyph glyph-name="AEacute" unicode="&#x1fc;" horiz-adv-x="1914" 
d="M1210 186h549q23 0 39.5 -15.5t16.5 -37.5v-78q0 -23 -16.5 -39t-39.5 -16h-700q-23 0 -39 16t-16 39v291h-580l-141 -303q-19 -43 -66 -43h-117q-20 0 -30.5 17t-1.5 36l647 1329q27 52 82 52h944q23 0 38 -16t15 -40v-75q0 -24 -15 -40t-38 -16h-531v-411h484
q23 0 39 -16.5t16 -39.5v-75q0 -23 -16 -39.5t-39 -16.5h-484v-463zM512 532h492v715h-158zM1266 1898h86q23 0 32.5 -19t-2.5 -38l-143 -205q-15 -24 -45 -24h-66q-14 0 -22 13t-2 26l96 207q19 40 66 40z" />
    <glyph glyph-name="aeacute" unicode="&#x1fd;" horiz-adv-x="2119" 
d="M1540 1063q100 0 192.5 -38.5t164 -108t112.5 -175.5t37 -231q-2 -29 -23.5 -50.5t-50.5 -21.5h-758q22 -131 115.5 -208.5t243.5 -77.5t244 88q14 12 32 13t33 -9l64 -39q22 -14 25.5 -39.5t-15.5 -44.5q-143 -146 -383 -146q-266 0 -420 175v-95q0 -23 -16 -39t-39 -16
h-78q-23 0 -39 16t-16 39v90q-135 -170 -377 -170q-94 0 -177.5 30.5t-144.5 83t-105.5 121.5t-66.5 148t-22 160q0 103 35.5 200t100 174t164 124t216.5 47q242 0 377 -170v90q0 23 16 39t39 16h78q23 0 39 -16t16 -39v-92q70 81 170.5 126.5t216.5 45.5zM606 152
q167 0 263 103.5t96 262.5q0 160 -96 264.5t-263 104.5q-158 0 -251 -103.5t-93 -265.5q0 -160 93 -263t251 -103zM1214 600h635q-19 133 -99 210t-210 77q-132 0 -218.5 -78t-107.5 -209zM1178 1489h86q23 0 32.5 -19t-2.5 -38l-143 -205q-16 -25 -45 -25h-66q-14 0 -22 13
t-2 26l96 207q20 41 66 41z" />
    <glyph glyph-name="Oslashacute" unicode="&#x1fe;" horiz-adv-x="1640" 
d="M1415 1159q135 -193 135 -442q0 -208 -93 -377.5t-260.5 -267t-375.5 -97.5q-294 0 -497 187l-91 -82q-13 -12 -32.5 -11.5t-32.5 13.5l-37 43q-13 14 -12.5 32.5t14.5 30.5l94 86q-135 193 -135 443q0 156 54.5 293t150.5 236t232 156.5t292 57.5q295 0 498 -190l92 84
q14 12 33 11t31 -15l38 -41q12 -14 11 -33t-15 -31zM301 717q0 -163 80 -301l790 719q-143 133 -350 133q-121 0 -221.5 -46.5t-164.5 -124.5t-99 -176t-35 -204zM821 166q121 0 221.5 46.5t164.5 124.5t99 176t35 204q0 162 -79 301l-789 -719q139 -133 348 -133zM913 1898
h86q23 0 33 -19t-2 -38l-143 -205q-15 -24 -45 -24h-66q-14 0 -22 13t-2 26l96 207q19 40 65 40z" />
    <glyph glyph-name="oslashacute" unicode="&#x1ff;" horiz-adv-x="1232" 
d="M1057 846q104 -145 104 -328q0 -111 -41.5 -211t-113 -173t-173.5 -116t-217 -43q-212 0 -364 136l-76 -68q-12 -10 -27 -9.5t-26 11.5l-25 27q-9 10 -8.5 26t12.5 25l76 70q-106 143 -106 325q0 149 70 274t195.5 198t278.5 73q214 0 367 -137l76 69q11 10 25.5 9.5
t25.5 -11.5l25 -26q10 -11 9.5 -27t-11.5 -25zM264 518q0 -114 51 -199l533 484q-97 84 -232 84q-153 0 -252.5 -104.5t-99.5 -264.5zM616 152q154 0 254.5 104t100.5 262q0 113 -53 201l-533 -486q97 -81 231 -81zM711 1489h86q23 0 32.5 -19t-2.5 -38l-143 -205
q-16 -25 -45 -25h-66q-14 0 -22 13t-2 26l96 207q20 41 66 41z" />
    <glyph glyph-name="Scommaaccent" unicode="&#x218;" horiz-adv-x="1148" 
d="M680 797q215 -51 309 -140t94 -258q0 -79 -28 -151.5t-85 -135t-158.5 -100t-233.5 -37.5q-160 0 -295.5 67.5t-198.5 199.5q-11 22 -0.5 44t35.5 29l96 31q19 6 38 -1.5t28 -25.5q32 -65 109.5 -108t191.5 -43q125 0 208.5 55t83.5 160q0 36 -9 65t-21 49.5t-38 38.5
t-46.5 28.5t-60.5 22.5t-66.5 18t-78 17.5t-81.5 18.5q-105 25 -176.5 66t-109.5 95.5t-53 113t-15 133.5q0 119 62.5 213.5t170.5 146t240 51.5q139 0 249 -65.5t163 -184.5q10 -23 -1 -46t-36 -29l-97 -23q-19 -4 -35.5 4t-25.5 25q-76 145 -281 127q-85 -9 -144 -71
t-60 -148q0 -50 19 -88.5t46 -61.5t75 -42.5t87 -29.5t101 -24q7 -1 10 -2t8.5 -2t9.5 -2zM459 -221q14 35 51 35h115q15 0 22.5 -13.5t1.5 -27.5l-119 -217q-16 -29 -49 -29h-75q-14 0 -22.5 12t-2.5 25z" />
    <glyph glyph-name="scommaaccent" unicode="&#x219;" horiz-adv-x="927" 
d="M528 602q189 -39 264.5 -105t75.5 -186q0 -145 -105.5 -240.5t-301.5 -95.5q-136 0 -241 46t-154 131q-12 23 -2.5 46t32.5 31l82 29q40 13 64 -22q59 -91 223 -91q101 0 156 39.5t55 108.5q0 30 -14.5 52t-35.5 35t-56.5 23.5t-65.5 15.5t-75 13t-73 14
q-144 33 -211 104.5t-67 186.5q0 143 107.5 234.5t277.5 91.5q109 0 198.5 -46.5t131.5 -129.5q12 -23 2 -47.5t-35 -30.5l-74 -21q-39 -10 -59 23q-24 37 -70.5 61.5t-112.5 24.5q-77 0 -126.5 -40.5t-49.5 -104.5q0 -24 7.5 -43.5t24 -33.5t32.5 -23.5t44.5 -17t47 -12
t53.5 -11t51 -9.5zM332 -221q14 35 51 35h115q15 0 22.5 -13.5t1.5 -27.5l-119 -217q-16 -29 -49 -29h-75q-14 0 -22.5 12t-2.5 25z" />
    <glyph glyph-name="circumflex" unicode="&#x2c6;" horiz-adv-x="915" 
d="M737 1247q11 -13 4 -29t-24 -16h-84q-39 0 -58 31l-116 160l-117 -160q-22 -31 -59 -31h-82q-17 0 -25 16t2 29l170 213q19 29 58 29h106q34 0 57 -29z" />
    <glyph glyph-name="caron" unicode="&#x2c7;" horiz-adv-x="915" 
d="M178 1444q-10 14 -2 29.5t25 15.5h82q37 0 59 -31l117 -160l116 160q19 31 60 31h82q17 0 24 -15.5t-4 -29.5l-168 -213q-23 -29 -57 -29h-106q-39 0 -58 29z" />
    <glyph glyph-name="breve" unicode="&#x2d8;" horiz-adv-x="874" 
d="M625 1464h67q17 0 27.5 -14t7.5 -31q-17 -102 -94.5 -163.5t-194.5 -61.5t-194 61t-94 164q-3 18 7 31.5t27 13.5h68q13 0 23.5 -9t13.5 -21q10 -46 48 -79.5t101 -33.5q64 0 102 33.5t48 79.5q3 12 13.5 21t23.5 9z" />
    <glyph glyph-name="dotaccent" unicode="&#x2d9;" horiz-adv-x="522" 
d="M260 1444q50 0 84.5 -34t34.5 -83t-34.5 -84t-84.5 -35q-49 0 -83 34.5t-34 84.5q0 49 33.5 83t83.5 34z" />
    <glyph glyph-name="ring" unicode="&#x2da;" horiz-adv-x="733" 
d="M367 1569q93 0 158 -65t65 -158t-65 -158.5t-158 -65.5q-92 0 -158 66t-66 158t66 157.5t158 65.5zM367 1231q47 0 80.5 34t33.5 81q0 46 -33.5 79t-80.5 33q-46 0 -79.5 -33t-33.5 -79q0 -47 33.5 -81t79.5 -34z" />
    <glyph glyph-name="ogonek" unicode="&#x2db;" horiz-adv-x="589" 
d="M281 -240q0 -52 32 -80.5t97 -27.5q15 1 25.5 -9.5t10.5 -25.5v-63q0 -14 -8.5 -24t-21.5 -11q-28 -4 -47 -4q-103 0 -164.5 56t-61.5 144q0 80 49.5 151t116.5 118q22 16 51 16h31q12 0 16 -12t-6 -21q-55 -44 -87.5 -99t-32.5 -108z" />
    <glyph glyph-name="tilde" unicode="&#x2dc;" horiz-adv-x="907" 
d="M676 1397l51 -8q15 -3 23.5 -17t5.5 -29q-35 -149 -168 -149q-53 0 -133.5 34t-116.5 34q-50 0 -66 -54q-4 -12 -16.5 -19t-24.5 -5l-51 10q-17 3 -25 16t-5 27q39 149 167 149q47 0 128 -33.5t120 -33.5q54 0 70 53q3 12 15.5 20t25.5 5z" />
    <glyph glyph-name="hungarumlaut" unicode="&#x2dd;" horiz-adv-x="968" 
d="M186 1202q-14 0 -22 13t-2 26l96 207q20 41 68 41h84q23 0 32.5 -19t-2.5 -38l-143 -205q-16 -25 -45 -25h-66zM604 1448q20 41 66 41h86q22 0 32 -19t-2 -38l-143 -205q-16 -25 -45 -25h-66q-15 0 -22.5 12.5t-1.5 26.5z" />
    <glyph glyph-name="Wgrave" unicode="&#x1e80;" horiz-adv-x="2023" 
d="M1745 1382q8 23 26.5 37.5t43.5 14.5h118q19 0 29 -15.5t4 -32.5l-428 -1335q-7 -23 -26.5 -37t-43.5 -14h-88q-25 0 -44 14t-25 37l-299 965l-299 -965q-6 -23 -25.5 -37t-44.5 -14h-88q-24 0 -43.5 14t-26.5 37l-428 1335q-6 17 4 32.5t29 15.5h119q25 0 43.5 -14.5
t26.5 -37.5l321 -1060l326 1060q8 24 26.5 38t42.5 14h33q25 0 43.5 -14.5t26.5 -37.5l325 -1060zM897 1898q47 0 66 -40l96 -207q6 -14 -2 -26.5t-23 -12.5h-65q-30 0 -45 24l-144 205q-12 19 -2 38t33 19h86z" />
    <glyph glyph-name="wgrave" unicode="&#x1e81;" horiz-adv-x="1585" 
d="M1321 987q6 23 25.5 37t44.5 14h90q23 0 36.5 -19t6.5 -42l-312 -928q-8 -22 -26.5 -35.5t-42.5 -13.5h-70q-25 0 -43 14t-26 37l-211 656l-209 -656q-7 -23 -26.5 -37t-43.5 -14h-72q-23 0 -42 13.5t-25 35.5l-314 928q-7 23 6.5 42t36.5 19h93q23 0 42.5 -14t26.5 -37
l215 -715l232 727q14 39 53 39h55q17 0 32 -11t19 -28l232 -727zM678 1489q45 0 65 -41l97 -207q6 -14 -2 -26.5t-23 -12.5h-65q-29 0 -45 25l-144 205q-12 19 -2 38t33 19h86z" />
    <glyph glyph-name="Wacute" unicode="&#x1e82;" horiz-adv-x="2023" 
d="M1745 1382q8 23 26.5 37.5t43.5 14.5h118q19 0 29 -15.5t4 -32.5l-428 -1335q-7 -23 -26.5 -37t-43.5 -14h-88q-25 0 -44 14t-25 37l-299 965l-299 -965q-6 -23 -25.5 -37t-44.5 -14h-88q-24 0 -43.5 14t-26.5 37l-428 1335q-6 17 4 32.5t29 15.5h119q25 0 43.5 -14.5
t26.5 -37.5l321 -1060l326 1060q8 24 26.5 38t42.5 14h33q25 0 43.5 -14.5t26.5 -37.5l325 -1060zM1147 1898h86q23 0 33 -19t-2 -38l-144 -205q-15 -24 -45 -24h-65q-14 0 -22.5 13t-2.5 26l96 207q19 40 66 40z" />
    <glyph glyph-name="wacute" unicode="&#x1e83;" horiz-adv-x="1585" 
d="M1321 987q6 23 25.5 37t44.5 14h90q23 0 36.5 -19t6.5 -42l-312 -928q-8 -22 -26.5 -35.5t-42.5 -13.5h-70q-25 0 -43 14t-26 37l-211 656l-209 -656q-7 -23 -26.5 -37t-43.5 -14h-72q-23 0 -42 13.5t-25 35.5l-314 928q-7 23 6.5 42t36.5 19h93q23 0 42.5 -14t26.5 -37
l215 -715l232 727q14 39 53 39h55q17 0 32 -11t19 -28l232 -727zM907 1489h86q23 0 33 -19t-2 -38l-143 -205q-16 -25 -45 -25h-66q-14 0 -22.5 13t-2.5 26l97 207q20 41 65 41z" />
    <glyph glyph-name="Wdieresis" unicode="&#x1e84;" horiz-adv-x="2023" 
d="M1745 1382q8 23 26.5 37.5t43.5 14.5h118q19 0 29 -15.5t4 -32.5l-428 -1335q-7 -23 -26.5 -37t-43.5 -14h-88q-25 0 -44 14t-25 37l-299 965l-299 -965q-6 -23 -25.5 -37t-44.5 -14h-88q-24 0 -43.5 14t-26.5 37l-428 1335q-6 17 4 32.5t29 15.5h119q25 0 43.5 -14.5
t26.5 -37.5l321 -1060l326 1060q8 24 26.5 38t42.5 14h33q25 0 43.5 -14.5t26.5 -37.5l325 -1060zM809 1853q50 0 84.5 -33.5t34.5 -82.5t-35 -84t-84 -35t-83 34.5t-34 84.5q0 49 33.5 82.5t83.5 33.5zM1214 1853q50 0 84.5 -33.5t34.5 -82.5t-34.5 -84t-84.5 -35
q-47 0 -81.5 35t-34.5 84t34 82.5t82 33.5z" />
    <glyph glyph-name="wdieresis" unicode="&#x1e85;" horiz-adv-x="1585" 
d="M1321 987q6 23 25.5 37t44.5 14h90q23 0 36.5 -19t6.5 -42l-312 -928q-8 -22 -26.5 -35.5t-42.5 -13.5h-70q-25 0 -43 14t-26 37l-211 656l-209 -656q-7 -23 -26.5 -37t-43.5 -14h-72q-23 0 -42 13.5t-25 35.5l-314 928q-7 23 6.5 42t36.5 19h93q23 0 42.5 -14t26.5 -37
l215 -715l232 727q14 39 53 39h55q17 0 32 -11t19 -28l232 -727zM590 1444q50 0 84.5 -34t34.5 -83t-34.5 -84t-84.5 -35q-49 0 -83 34.5t-34 84.5q0 49 33.5 83t83.5 34zM995 1444q50 0 84.5 -34t34.5 -83t-35 -84t-84 -35q-47 0 -81.5 35t-34.5 84t34 83t82 34z" />
    <glyph glyph-name="Ygrave" unicode="&#x1ef2;" horiz-adv-x="1355" 
d="M1251 1434q22 0 32 -18.5t-1 -37.5l-502 -841v-482q0 -23 -16 -39t-39 -16h-94q-23 0 -39.5 16t-16.5 39v482l-501 841q-11 19 -1 37.5t31 18.5h115q56 0 78 -45l381 -668l381 668q25 45 78 45h114zM584 1898q46 0 65 -40l96 -207q6 -14 -1.5 -26.5t-22.5 -12.5h-66
q-30 0 -45 24l-143 205q-12 19 -2 38t33 19h86z" />
    <glyph glyph-name="ygrave" unicode="&#x1ef3;" horiz-adv-x="1099" 
d="M834 991q7 21 26 34t41 13h92q23 0 36.5 -20t4.5 -43q-328 -833 -387 -975q-81 -201 -167.5 -298t-221.5 -97q-35 0 -51 2q-17 0 -29 13t-12 32v78q0 19 12 32t31 13q89 3 148.5 62t117.5 216q-10 27 -171 392t-236 530q-9 22 4.5 42.5t38.5 20.5h90q22 0 40 -12.5
t25 -32.5l301 -704zM455 1489q45 0 65 -41l96 -207q6 -14 -1.5 -26.5t-22.5 -12.5h-66q-29 0 -45 25l-143 205q-12 19 -2 38t33 19h86z" />
    <glyph glyph-name="endash" unicode="&#x2013;" horiz-adv-x="1052" 
d="M143 647q0 23 16 38t40 15h657q23 0 38 -15t15 -38v-74q0 -23 -15 -39t-38 -16h-657q-23 0 -39.5 16t-16.5 39v74z" />
    <glyph glyph-name="emdash" unicode="&#x2014;" horiz-adv-x="1161" 
d="M143 647q0 23 16 38t38 15h766q23 0 39 -15t16 -38v-74q0 -23 -16 -39t-39 -16h-766q-22 0 -38 16t-16 39v74z" />
    <glyph glyph-name="quoteleft" unicode="&#x2018;" horiz-adv-x="555" 
d="M143 1012q-17 11 -21.5 29.5t5.5 35.5l205 326q9 17 26.5 21t34.5 -5l23 -12q15 -9 20 -25.5t-2 -33.5l-160 -353q-9 -19 -27.5 -24.5t-37.5 4.5z" />
    <glyph glyph-name="quoteright" unicode="&#x2019;" horiz-adv-x="552" 
d="M139 985q-15 7 -20.5 24.5t2.5 32.5l160 353q7 19 26.5 25t36.5 -5l68 -37q17 -10 21 -29t-7 -34l-203 -328q-9 -15 -27.5 -20t-33.5 4z" />
    <glyph glyph-name="quotesinglbase" unicode="&#x201a;" horiz-adv-x="491" 
d="M78 -197q-15 9 -21 26t0 34l162 352q7 19 27 25.5t37 -4.5l65 -39q17 -9 22 -28t-5 -36l-203 -328q-10 -15 -28.5 -19t-33.5 5z" />
    <glyph glyph-name="quotedblleft" unicode="&#x201c;" horiz-adv-x="946" 
d="M143 1012q-17 11 -21.5 29.5t5.5 35.5l205 326q9 17 26.5 21t34.5 -5l23 -12q15 -9 20 -25.5t-2 -33.5l-160 -353q-9 -19 -27.5 -24.5t-37.5 4.5zM723 1403q9 17 27.5 21.5t33.5 -5.5l23 -12q15 -9 20 -25.5t-2 -33.5l-159 -353q-7 -19 -27 -25t-37 5l-67 37
q-17 10 -21.5 29t6.5 36z" />
    <glyph glyph-name="quotedblright" unicode="&#x201d;" horiz-adv-x="946" 
d="M672 1395q9 19 27.5 24.5t37.5 -4.5l66 -37q17 -10 22 -29t-6 -34l-205 -328q-9 -15 -26.5 -20t-34.5 4l-23 14q-15 7 -20.5 24.5t2.5 32.5zM139 985q-15 7 -20.5 24.5t2.5 32.5l160 353q7 19 26.5 25t36.5 -5l68 -37q17 -10 21 -29t-7 -34l-203 -328q-9 -15 -27.5 -20
t-33.5 4z" />
    <glyph glyph-name="quotedblbase" unicode="&#x201e;" horiz-adv-x="884" 
d="M610 215q9 19 28 25t38 -4l65 -39q17 -9 21.5 -28t-4.5 -36l-205 -328q-9 -15 -26.5 -19t-34.5 5l-23 12q-15 9 -20 26t2 34zM78 -197q-15 9 -21 26t0 34l162 352q7 19 27 25.5t37 -4.5l65 -39q17 -9 22 -28t-5 -36l-203 -328q-10 -15 -28.5 -19t-33.5 5z" />
    <glyph glyph-name="dagger" unicode="&#x2020;" horiz-adv-x="1058" 
d="M862 1087q22 0 37.5 -16t15.5 -39v-71q0 -23 -15.5 -39.5t-37.5 -16.5h-239v-850q0 -23 -16 -39t-38 -16h-77q-23 0 -39.5 16t-16.5 39v850h-237q-23 0 -39.5 16.5t-16.5 39.5v71q0 23 16.5 39t39.5 16h237v291q0 23 16.5 39.5t39.5 16.5h77q22 0 38 -16.5t16 -39.5v-291
h239z" />
    <glyph glyph-name="daggerdbl" unicode="&#x2021;" horiz-adv-x="1060" 
d="M918 961q0 -23 -16.5 -39.5t-39.5 -16.5h-237v-377h237q23 0 39.5 -15.5t16.5 -37.5v-74q0 -23 -16.5 -39t-39.5 -16h-237v-291q0 -23 -16.5 -39t-39.5 -16h-77q-23 0 -38.5 16t-15.5 39v291h-239q-23 0 -39.5 16t-16.5 39v74q0 22 16.5 37.5t39.5 15.5h239v377h-239
q-23 0 -39.5 16.5t-16.5 39.5v71q0 23 16.5 39t39.5 16h239v291q0 23 15.5 39.5t38.5 16.5h77q23 0 39.5 -16.5t16.5 -39.5v-291h237q23 0 39.5 -16t16.5 -39v-71z" />
    <glyph glyph-name="bullet" unicode="&#x2022;" horiz-adv-x="649" 
d="M326 848q83 0 141.5 -59t58.5 -144q0 -83 -58.5 -142t-141.5 -59q-85 0 -144 59t-59 142q0 85 59 144t144 59z" />
    <glyph glyph-name="ellipsis" unicode="&#x2026;" horiz-adv-x="1382" 
d="M229 229q54 0 91.5 -37t37.5 -90q0 -54 -37.5 -91.5t-91.5 -37.5q-53 0 -90 37.5t-37 91.5q0 52 37 89.5t90 37.5zM690 229q54 0 91.5 -37t37.5 -90q0 -54 -37.5 -91.5t-91.5 -37.5q-53 0 -90 37.5t-37 91.5q0 52 37.5 89.5t89.5 37.5zM1151 229q54 0 91.5 -37t37.5 -90
q0 -54 -37.5 -91.5t-91.5 -37.5q-53 0 -90 37.5t-37 91.5q0 52 37 89.5t90 37.5z" />
    <glyph glyph-name="perthousand" unicode="&#x2030;" horiz-adv-x="2629" 
d="M1266 1401q20 33 61 33h74q15 0 23 -15t-1 -28l-897 -1358q-23 -33 -61 -33h-74q-17 0 -24 15t2 28zM774 1081q0 -138 -99 -237t-237 -99t-237 99t-99 237t99 237t237 99t237 -99t99 -237zM248 1081q0 -78 56 -134t134 -56t134.5 56t56.5 134t-56.5 134.5t-134.5 56.5
t-134 -56.5t-56 -134.5zM1354 688q138 0 236 -98.5t98 -237.5q0 -138 -98 -237t-236 -99q-139 0 -237.5 99t-98.5 237q0 140 98 238t238 98zM1354 162q78 0 133 56t55 134t-55 134.5t-133 56.5q-79 0 -135 -56.5t-56 -134.5t56 -134t135 -56zM2191 688q138 0 237 -98.5
t99 -237.5q0 -138 -99 -237t-237 -99q-139 0 -237.5 99t-98.5 237q0 140 98.5 238t237.5 98zM2191 162q78 0 133.5 56t55.5 134t-55.5 134.5t-133.5 56.5t-134 -56.5t-56 -134.5t56 -134t134 -56z" />
    <glyph glyph-name="guilsinglleft" unicode="&#x2039;" horiz-adv-x="651" 
d="M328 844q20 33 59 33h92q23 0 33 -19.5t-2 -38.5l-207 -305l207 -305q12 -19 2 -38t-33 -19h-92q-40 0 -59 32l-191 279q-15 23 -15 51t15 51z" />
    <glyph glyph-name="guilsinglright" unicode="&#x203a;" horiz-adv-x="651" 
d="M172 877h94q37 0 60 -33l190 -279q15 -23 15 -51t-15 -51l-190 -279q-22 -32 -60 -32h-94q-22 0 -31.5 19t2.5 38l207 305l-207 305q-12 19 -2.5 38.5t31.5 19.5z" />
    <glyph glyph-name="fraction" unicode="&#x2044;" horiz-adv-x="978" 
d="M678 1581q16 49 70 49h79q19 0 29.5 -14t5.5 -33l-561 -1730q-8 -22 -27 -36t-43 -14h-79q-19 0 -29.5 14t-5.5 33z" />
    <glyph glyph-name="Euro" unicode="&#x20ac;" horiz-adv-x="1562" 
d="M932 166q224 0 368 151q14 15 33.5 18t36.5 -9l80 -52q21 -14 23.5 -39.5t-15.5 -44.5q-99 -102 -233.5 -158.5t-292.5 -56.5q-264 0 -455 151t-250 396h-129q-15 0 -26 10.5t-11 24.5v55q0 15 11 26t26 11h109q-2 23 -2 68q0 44 2 67h-109q-15 0 -26 11t-11 26v56
q0 15 11 24.5t26 9.5h129q59 245 250.5 397t454.5 152q158 0 292.5 -57t233.5 -160q18 -19 15.5 -44.5t-23.5 -39.5l-80 -51q-17 -10 -36.5 -8t-33.5 16q-145 152 -368 152q-182 0 -309 -99.5t-179 -257.5h496q15 0 26 -9.5t11 -24.5v-56q0 -15 -11 -26t-26 -11h-524
q-4 -46 -4 -67q0 -22 4 -68h524q15 0 26 -11t11 -26v-55q0 -14 -11 -24.5t-26 -10.5h-496q52 -158 179 -257t309 -99z" />
    <glyph glyph-name="ruble" unicode="&#x20bd;" horiz-adv-x="1390" 
d="M793 498h-254v-154h405q15 0 26 -11t11 -26v-53q0 -15 -11 -26t-26 -11h-405v-162q0 -23 -16 -39t-38 -16h-96q-23 0 -39 16t-16 39v162h-195q-15 0 -26 11t-11 26v53q0 15 11 26t26 11h195v154h-176q-23 0 -39.5 16t-16.5 39v78q0 23 16.5 39t39.5 16h176v692
q0 23 16 39.5t39 16.5h404q236 0 376 -132.5t140 -334.5q0 -98 -36 -183.5t-101 -149t-163 -100t-216 -36.5zM539 1247v-561h254q143 0 225 76.5t82 204.5q0 127 -82 203.5t-225 76.5h-254z" />
    <glyph glyph-name="bitcoin" unicode="&#x20bf;" horiz-adv-x="1236" 
d="M1155 416q0 -144 -76.5 -247.5t-224.5 -143.5v-205q0 -19 -13 -32t-32 -13h-74q-19 0 -32 13t-13 32v180h-26h-121v-180q0 -19 -13 -32t-32 -13h-74q-19 0 -32 13t-13 32v180h-180q-23 0 -39.5 16t-16.5 39v1323q0 23 16.5 39.5t39.5 16.5h180v180q0 20 13 32.5t32 12.5
h74q19 0 32 -12.5t13 -32.5v-180h67q26 0 80 -4v184q0 20 13 32.5t32 12.5h74q19 0 32 -12.5t13 -32.5v-219q119 -42 181.5 -131t62.5 -211q0 -202 -174 -301v-4q231 -86 231 -332zM610 1247h-262v-432h244q299 0 299 221q0 211 -281 211zM664 186q132 0 207 59t75 171
q0 63 -25 109.5t-68.5 71.5t-95 36.5t-112.5 11.5h-297v-459h316z" />
    <glyph glyph-name="afii61352" unicode="&#x2116;" horiz-adv-x="2267" 
d="M1065 379v999q0 23 15.5 39.5t37.5 16.5h96q23 0 39.5 -16.5t16.5 -39.5v-1323q0 -23 -16.5 -39t-39.5 -16h-75q-48 0 -76 39l-715 1018v-1002q0 -23 -16 -39t-39 -16h-94q-23 0 -39.5 16t-16.5 39v1323q0 23 16.5 39.5t39.5 16.5h75q49 0 74 -39zM1837 772
q-134 0 -230 95.5t-96 230.5q0 133 96 229t230 96q135 0 230.5 -95.5t95.5 -229.5q0 -135 -95.5 -230.5t-230.5 -95.5zM1837 1260q-66 0 -114 -48t-48 -114q0 -67 48 -114.5t114 -47.5q67 0 114.5 47t47.5 115q0 66 -47.5 114t-114.5 48zM1581 428q-23 0 -39 16t-16 39v74
q0 22 16 37.5t39 15.5h514q23 0 39 -15.5t16 -37.5v-74q0 -23 -16 -39t-39 -16h-514z" />
    <glyph glyph-name="minus" unicode="&#x2212;" horiz-adv-x="944" 
d="M143 647q0 23 16 38t38 15h548q22 0 38 -15t16 -38v-74q0 -23 -16 -39t-38 -16h-548q-22 0 -38 16t-16 39v74z" />
    <glyph glyph-name="approxequal" unicode="&#x2248;" horiz-adv-x="1212" 
d="M416 768q-80 0 -111 -74q-14 -34 -51 -28l-82 16q-20 4 -30.5 22t-4.5 37q33 96 97 143.5t169 47.5q68 0 143 -23t141.5 -46t113.5 -23q80 0 106 69q6 17 21 25.5t33 5.5l81 -16q20 -4 30.5 -21.5t4.5 -36.5q-57 -192 -256 -192q-70 0 -145.5 23.5t-142.5 47t-117 23.5z
M801 453q80 0 106 71q6 15 21.5 24.5t32.5 6.5l81 -18q20 -3 30.5 -20.5t4.5 -37.5q-58 -192 -256 -192q-70 0 -145.5 23.5t-142.5 47t-117 23.5q-81 0 -111 -72q-14 -34 -51 -28l-82 16q-20 5 -30.5 22t-4.5 37q33 96 97 143.5t169 47.5q68 0 143 -23.5t141.5 -47
t113.5 -23.5z" />
    <glyph glyph-name="notequal" unicode="&#x2260;" horiz-adv-x="1052" 
d="M911 756q0 -23 -16 -39.5t-39 -16.5h-227l-78 -182h305q23 0 39 -15.5t16 -37.5v-74q0 -23 -16 -39t-39 -16h-385l-88 -205q-10 -20 -33 -20h-47q-19 0 -29.5 16t-3.5 33l76 176h-147q-23 0 -39.5 16t-16.5 39v74q0 22 16.5 37.5t39.5 15.5h227l78 182h-305
q-23 0 -39.5 16.5t-16.5 39.5v73q0 23 16.5 38.5t39.5 15.5h383l90 207q7 20 33 20h47q19 0 29 -16t3 -33l-75 -178h147q23 0 39 -15.5t16 -38.5v-73z" />
    <glyph glyph-name="lessequal" unicode="&#x2264;" horiz-adv-x="1052" 
d="M199 0q-23 0 -39.5 16t-16.5 39v72q0 23 16.5 39t39.5 16h657q22 0 37.5 -16t15.5 -39v-72q0 -23 -15.5 -39t-37.5 -16h-657zM860 1126q19 6 34 -4t15 -30v-78q0 -23 -12.5 -42t-34.5 -26l-516 -188l516 -191q22 -7 34.5 -25.5t12.5 -41.5v-78q0 -19 -15.5 -29.5
t-33.5 -3.5l-670 254q-22 7 -34.5 26t-12.5 42v92q0 50 47 69z" />
    <glyph glyph-name="greaterequal" unicode="&#x2265;" horiz-adv-x="1052" 
d="M854 0h-655q-23 0 -39.5 16t-16.5 39v72q0 23 16.5 39t39.5 16h655q23 0 39 -16t16 -39v-72q0 -23 -16 -39t-39 -16zM193 1126l669 -254q47 -19 47 -69v-92q0 -23 -12.5 -42t-34.5 -26l-669 -254q-19 -7 -34.5 3.5t-15.5 29.5v78q0 23 12.5 41.5t34.5 25.5l517 191
l-517 188q-22 7 -34.5 26t-12.5 42v78q0 20 15.5 30t34.5 4z" />
    <glyph glyph-name="commaaccent" unicode="&#xf6c3;" horiz-adv-x="589" 
d="M236 -221q14 35 51 35h114q15 0 23 -13.5t2 -27.5l-119 -217q-16 -29 -49 -29h-76q-14 0 -22 12t-2 25z" />
    </font>
</defs>
</svg>
