<?xml version="1.0" standalone="no"?>
<!DOCTYPE svg PUBLIC "-//W3C//DTD SVG 1.1//EN" "http://www.w3.org/Graphics/SVG/1.1/DTD/svg11.dtd" >
<svg xmlns="http://www.w3.org/2000/svg" xmlns:xlink="http://www.w3.org/1999/xlink" version="1.1">
<metadata>
Created by FontForge 20170731 at Mon May 29 11:59:12 2023
 By Aleksey,,,
Copyright (c) 2020 by MadeType. All rights reserved.
</metadata>
<defs>
<font id="MADETommySoft-Black" horiz-adv-x="1288" >
  <font-face 
    font-family="MADE Tommy Soft"
    font-weight="900"
    font-stretch="normal"
    units-per-em="2048"
    panose-1="2 0 5 3 0 0 0 2 0 4"
    ascent="1638"
    descent="-410"
    x-height="1038"
    cap-height="1434"
    bbox="-143 -539 2597 2015"
    underline-thickness="102"
    underline-position="-307"
    unicode-range="U+0020-F6C3"
  />
<missing-glyph horiz-adv-x="552" 
 />
    <glyph glyph-name=".notdef" horiz-adv-x="552" 
 />
    <glyph glyph-name=".null" horiz-adv-x="0" 
 />
    <glyph glyph-name="nonmarkingreturn" horiz-adv-x="682" 
 />
    <glyph glyph-name="space" unicode=" " horiz-adv-x="552" 
 />
    <glyph glyph-name="exclam" unicode="!" horiz-adv-x="645" 
d="M322 414q91 0 155 -64t64 -155t-64 -155.5t-155 -64.5t-155.5 64.5t-64.5 155.5t64.5 155t155.5 64zM498 588q-2 -29 -22.5 -49.5t-49.5 -20.5h-209q-29 0 -49.5 20.5t-22.5 49.5l-39 749q-1 40 26 68.5t65 28.5h249q38 0 65 -28.5t26 -68.5z" />
    <glyph glyph-name="quotedbl" unicode="&#x22;" horiz-adv-x="925" 
d="M102 1343q0 37 27.5 64t65.5 27h127q38 0 64 -27t26 -64v-348q0 -37 -26 -63.5t-64 -26.5h-127q-38 0 -65.5 26.5t-27.5 63.5v348zM514 1343q0 37 26.5 64t63.5 27h127q38 0 65 -27t27 -64v-348q0 -37 -27 -63.5t-65 -26.5h-127q-37 0 -63.5 26.5t-26.5 63.5v348z" />
    <glyph glyph-name="numbersign" unicode="#" horiz-adv-x="1357" 
d="M1260 838q-3 -26 -23.5 -44t-48.5 -18h-111l-18 -117h88q34 0 56 -25t18 -59l-25 -145q-3 -26 -23.5 -43.5t-48.5 -17.5h-114l-33 -201q-4 -33 -30 -54.5t-60 -21.5h-150q-34 0 -55.5 25t-17.5 59l32 193h-147l-35 -201q-4 -33 -30 -54.5t-60 -21.5h-150q-34 0 -55.5 25
t-15.5 59l30 193h-86q-34 0 -55.5 26t-15.5 58l22 145q4 28 24 44.5t48 16.5h113l18 117h-90q-34 0 -56 25.5t-16 58.5l23 146q4 28 23.5 44.5t47.5 16.5h115l33 199q6 34 31 55.5t59 21.5h152q33 0 54.5 -26t16.5 -60l-30 -190h147l33 199q4 33 30 55t60 22h149
q34 0 56.5 -26t17.5 -60l-33 -190h86q34 0 56 -25t18 -59zM743 659l21 117h-150l-18 -117h147z" />
    <glyph glyph-name="dollar" unicode="$" horiz-adv-x="1230" 
d="M1210 457q0 -90 -30.5 -170t-89 -145t-153 -108t-214.5 -54v-170q0 -14 -11 -24.5t-26 -10.5h-108q-15 0 -26 10.5t-11 24.5v170q-174 13 -308.5 87t-189.5 214q-12 31 1 59t44 39l250 76q23 7 45.5 -1t36.5 -28q25 -36 77 -58t113 -22t101.5 23.5t40.5 62.5
q0 15 -5 26.5t-17 21t-24 15.5t-35.5 12.5t-42 10.5t-52.5 11.5t-58 13.5q-60 15 -107.5 29.5t-96 35.5t-84.5 45.5t-68 58.5t-52.5 74t-32 92.5t-11.5 114.5q0 187 132.5 312t342.5 149v170q0 15 11 25t26 10h108q15 0 26 -10t11 -25v-170q143 -19 253.5 -94t158.5 -197
q12 -32 -3 -61t-47 -37l-249 -61q-50 -11 -74 26q-44 57 -131 57q-60 0 -92.5 -22.5t-32.5 -60.5q0 -16 9 -29.5t22 -21.5t36.5 -16.5t43 -13t52.5 -12.5t54 -14q270 -74 378.5 -168.5t108.5 -271.5z" />
    <glyph glyph-name="percent" unicode="%" horiz-adv-x="1794" 
d="M1239 1401q23 33 61 33h111q23 0 33 -19.5t-2 -38.5l-887 -1343q-23 -33 -61 -33h-111q-22 0 -32.5 19t1.5 38zM817 1081q0 -157 -110 -268t-267 -111t-268 111t-111 268t111 268t268 111t267 -111t110 -268zM336 1081q0 -43 30.5 -73.5t73.5 -30.5t74 30.5t31 73.5
t-31 74t-74 31t-73.5 -31t-30.5 -74zM1354 731q157 0 268 -111t111 -268t-111 -267t-268 -110q-156 0 -266.5 110.5t-110.5 266.5q0 157 111 268t266 111zM1354 248q44 0 74 30.5t30 73.5t-30 74t-74 31q-43 0 -74 -31t-31 -74t31 -73.5t74 -30.5z" />
    <glyph glyph-name="ampersand" unicode="&#x26;" horiz-adv-x="1589" 
d="M1530 94q28 -25 14 -59.5t-51 -34.5h-313q-48 0 -84 31l-49 43q-184 -99 -426 -99q-122 0 -225.5 26.5t-183 78t-124.5 135t-45 191.5q0 119 68.5 213.5t183.5 154.5q-107 160 -107 291q0 185 127 290t361 105q241 0 363 -105.5t122 -271.5q0 -125 -80.5 -220.5
t-224.5 -141.5q95 -81 170 -148q20 58 23 70q11 34 40.5 53t63.5 13l186 -33q38 -7 59 -39.5t15 -69.5q-29 -143 -106 -262q199 -188 223 -211zM676 1130q-42 0 -64 -22t-22 -61q0 -49 55 -117q50 10 82.5 46t32.5 79q0 35 -22 55t-62 20zM481 442q0 -68 50.5 -102.5
t125.5 -34.5q39 0 95 17q-138 107 -240 204q-31 -40 -31 -84z" />
    <glyph glyph-name="quotesingle" unicode="'" horiz-adv-x="514" 
d="M102 1343q0 37 26.5 64t64.5 27h126q38 0 65.5 -27t27.5 -64v-348q0 -37 -27.5 -63.5t-65.5 -26.5h-126q-38 0 -64.5 26.5t-26.5 63.5v348z" />
    <glyph glyph-name="parenleft" unicode="(" horiz-adv-x="837" 
d="M700 1546q22 -18 28 -44t-9 -50q-199 -341 -199 -735q0 -397 199 -733q15 -25 9 -52t-28 -45l-168 -125q-25 -19 -54 -14.5t-48 29.5q-55 74 -106 163t-104.5 210.5t-85.5 269.5t-32 297t32 297t85.5 269.5t104.5 210.5t106 163q19 25 48 29t54 -15z" />
    <glyph glyph-name="parenright" unicode=")" horiz-adv-x="837" 
d="M305 1671q25 19 54.5 15t48.5 -29q55 -73 106 -162.5t104 -211t85 -269.5t32 -297t-32 -297t-85 -269.5t-104 -211t-106 -162.5q-19 -25 -48.5 -29.5t-54.5 14.5l-168 125q-23 17 -28 44.5t10 52.5q82 138 139 324.5t57 408.5q0 400 -196 735q-15 23 -10 50t28 44z" />
    <glyph glyph-name="asterisk" unicode="*" horiz-adv-x="940" 
d="M860 1096q6 -23 -6 -44.5t-35 -27.5l-164 -35l111 -127q17 -19 14.5 -42.5t-22.5 -37.5l-123 -90q-20 -13 -44 -8t-36 25l-86 143l-84 -143q-12 -20 -36 -25t-44 8l-123 90q-20 13 -22.5 37t12.5 43l111 127l-162 35q-25 6 -37 27.5t-4 44.5l47 145q7 23 29.5 32.5
t44.5 0.5l153 -66l-16 166q-2 25 14 42.5t41 17.5h154q24 0 40 -18t13 -42l-14 -166l151 66q24 9 46 -0.5t28 -32.5z" />
    <glyph glyph-name="plus" unicode="+" horiz-adv-x="1079" 
d="M905 793q29 0 50.5 -21.5t21.5 -52.5v-217q0 -31 -21.5 -52.5t-50.5 -21.5h-182v-182q0 -31 -21.5 -52.5t-52.5 -21.5h-219q-29 0 -50.5 21.5t-21.5 52.5v182h-184q-29 0 -50.5 21.5t-21.5 52.5v217q0 31 21.5 52.5t50.5 21.5h184v182q0 31 21.5 52.5t50.5 21.5h219
q31 0 52.5 -21.5t21.5 -52.5v-182h182z" />
    <glyph glyph-name="comma" unicode="," horiz-adv-x="585" 
d="M178 262q17 37 55 49t72 -8l135 -78q35 -20 44 -58.5t-13 -70.5l-176 -274q-21 -30 -55.5 -38.5t-67.5 9.5l-98 55q-31 19 -41.5 53t4.5 66z" />
    <glyph glyph-name="hyphen" unicode="-" horiz-adv-x="935" 
d="M102 719q0 31 21.5 52.5t50.5 21.5h584q31 0 52 -21.5t21 -52.5v-217q0 -31 -21 -52.5t-52 -21.5h-584q-29 0 -50.5 21.5t-21.5 52.5v217z" />
    <glyph glyph-name="period" unicode="." horiz-adv-x="563" 
d="M281 414q92 0 156.5 -64t64.5 -155q0 -92 -64.5 -157t-156.5 -65q-91 0 -155.5 65t-64.5 157q0 91 64.5 155t155.5 64z" />
    <glyph glyph-name="slash" unicode="/" horiz-adv-x="1081" 
d="M631 1556q10 34 38.5 54t65.5 20h209q28 0 44.5 -21.5t8.5 -47.5l-544 -1682q-10 -34 -40 -55t-65 -21h-211q-28 0 -44 22t-7 50z" />
    <glyph glyph-name="zero" unicode="0" horiz-adv-x="1394" 
d="M698 1458q157 0 281.5 -59t203 -161.5t119.5 -235t41 -285.5t-41 -286t-119.5 -236t-203 -162.5t-281.5 -59.5q-126 0 -232 39t-182 107.5t-129 162.5t-78.5 204t-25.5 231t25.5 231t78.5 203t129 161.5t182 107t232 38.5zM698 403q100 0 152.5 88t52.5 226
q0 137 -52.5 225t-152.5 88t-152 -88t-52 -225q0 -138 52 -226t152 -88z" />
    <glyph glyph-name="one" unicode="1" horiz-adv-x="1028" 
d="M477 1415q29 19 62 19h243q38 0 65 -27t27 -64v-1251q0 -38 -27 -65t-65 -27h-278q-37 0 -63.5 27t-26.5 65v854l-146 -98q-25 -17 -55 -10.5t-47 32.5l-109 179q-15 26 -8.5 54.5t29.5 43.5z" />
    <glyph glyph-name="two" unicode="2" horiz-adv-x="1241" 
d="M782 422h287q37 0 63.5 -26.5t26.5 -63.5v-240q0 -38 -26.5 -65t-63.5 -27h-879q-37 0 -63.5 27t-26.5 65v139q0 43 33 76q205 205 361 371q13 14 36 38.5t34.5 36.5t30 32.5t28 31.5t22.5 27t19.5 26t13.5 22t9.5 21t2.5 17q0 44 -24.5 72t-73.5 28q-77 0 -98 -67
q-7 -20 -25.5 -30t-38.5 -5l-299 67q-31 6 -47 32.5t-8 57.5q52 173 202 274t347 101q129 0 231 -37.5t165.5 -102t96.5 -148t33 -179.5q0 -56 -15 -107.5t-38.5 -96.5t-75 -107.5t-101 -115t-139.5 -144.5z" />
    <glyph glyph-name="three" unicode="3" horiz-adv-x="1265" 
d="M977 743q237 -93 237 -337q0 -145 -74.5 -243t-201.5 -143t-301 -45q-208 0 -367.5 84.5t-216.5 235.5q-12 32 3.5 61t47.5 37l345 74q18 4 35 -4.5t26 -26.5q12 -28 40.5 -44.5t67.5 -16.5q52 0 78.5 27.5t26.5 74.5q0 39 -26.5 62.5t-78.5 23.5h-120q-22 0 -38 16
t-16 39v234q0 23 16 39t38 16h120q47 0 76 20t29 62q0 41 -29.5 64.5t-75.5 23.5q-64 0 -90 -53q-20 -38 -61 -31l-311 72q-32 8 -48 36.5t-4 59.5q52 140 190.5 219.5t342.5 79.5q254 0 397.5 -110t143.5 -303q0 -98 -52 -176t-149 -128z" />
    <glyph glyph-name="four" unicode="4" horiz-adv-x="1349" 
d="M1214 612q29 0 50.5 -21t21.5 -50v-256q0 -31 -21.5 -52.5t-50.5 -21.5h-77v-119q0 -38 -27.5 -65t-65.5 -27h-276q-38 0 -65 27t-27 65v119h-524q-37 0 -64 27t-27 65v215q0 38 21 76l473 786q33 54 94 54h395q38 0 65.5 -27t27.5 -64v-731h77zM473 612h203v338z" />
    <glyph glyph-name="five" unicode="5" horiz-adv-x="1269" 
d="M768 905q219 0 335 -119.5t116 -324.5q0 -223 -151 -354.5t-409 -131.5q-217 0 -374 84.5t-213 237.5q-11 31 5 60t48 36l340 74q20 4 37.5 -6.5t25.5 -30.5q25 -72 101 -72q102 0 102 134q0 59 -30.5 92.5t-92.5 33.5q-75 0 -133 -34q-36 -22 -76 -13l-219 45
q-28 6 -44 29t-13 51l76 658q3 34 29 57t61 23h710q37 0 64 -27t27 -64v-239q0 -38 -27 -65t-64 -27h-436l-18 -156q104 49 223 49z" />
    <glyph glyph-name="six" unicode="6" horiz-adv-x="1255" 
d="M745 1010q204 -36 332.5 -176t128.5 -336q0 -226 -165 -374.5t-412 -148.5q-162 0 -294.5 67t-208 187t-75.5 269q0 57 13 114.5t26.5 95.5t42.5 88.5t39.5 66t38.5 55.5l326 462q38 54 104 54h311q34 0 48.5 -30t-5.5 -58zM629 375q54 0 87.5 34.5t33.5 88.5
q0 53 -33.5 86.5t-87.5 33.5t-87.5 -33.5t-33.5 -86.5q0 -54 33.5 -88.5t87.5 -34.5z" />
    <glyph glyph-name="seven" unicode="7" horiz-adv-x="1146" 
d="M61 1343q0 37 27.5 64t65.5 27h839q38 0 64 -27t26 -64v-227q0 -32 -12 -59l-446 -1004q-10 -24 -32.5 -38.5t-49.5 -14.5h-320q-29 0 -45 25t-4 53l416 934h-436q-38 0 -65.5 27t-27.5 65v239z" />
    <glyph glyph-name="eight" unicode="8" horiz-adv-x="1292" 
d="M1024 780q217 -109 217 -338q0 -113 -45 -203t-125.5 -147.5t-188.5 -88t-237 -30.5q-128 0 -235.5 30.5t-188 88t-125.5 147.5t-45 203q0 228 215 338q-162 103 -162 285q0 186 143.5 289.5t397.5 103.5q255 0 398 -103.5t143 -289.5q0 -182 -162 -285zM645 1112
q-44 0 -73 -25t-29 -69q0 -42 29 -67t73 -25q45 0 74 25t29 67q0 44 -28.5 69t-74.5 25zM645 338q57 0 89 33.5t32 87.5q0 55 -32 89t-89 34q-56 0 -88.5 -34t-32.5 -89q0 -54 32.5 -87.5t88.5 -33.5z" />
    <glyph glyph-name="nine" unicode="9" horiz-adv-x="1255" 
d="M510 424q-203 36 -332 177t-129 337q0 111 44.5 208t121.5 166t184 108.5t228 39.5q162 0 294 -67t207.5 -187t75.5 -268q0 -57 -13 -115.5t-26.5 -96.5t-42.5 -88.5t-39.5 -66t-38.5 -55.5l-325 -461q-36 -55 -105 -55h-311q-33 0 -48 30t5 58zM627 1059
q-54 0 -87.5 -34t-33.5 -87q0 -54 33.5 -88.5t87.5 -34.5t87.5 34.5t33.5 88.5q0 53 -33.5 87t-87.5 34z" />
    <glyph glyph-name="colon" unicode=":" horiz-adv-x="604" 
d="M301 414q92 0 156.5 -64t64.5 -155q0 -92 -64.5 -157t-156.5 -65q-91 0 -155 65t-64 157q0 91 64 155t155 64zM301 623q-91 0 -155 64.5t-64 156.5q0 91 64 155t155 64q92 0 156.5 -64t64.5 -155q0 -92 -64.5 -156.5t-156.5 -64.5z" />
    <glyph glyph-name="semicolon" unicode=";" horiz-adv-x="653" 
d="M352 623q-91 0 -156 65t-65 156t65 155t156 64t155 -64t64 -155t-64 -156t-155 -65zM94 -152q-32 19 -43 53t4 66l142 295q17 37 55 49t72 -8l137 -78q34 -20 43.5 -58.5t-12.5 -70.5l-179 -274q-21 -30 -55 -38.5t-65 9.5z" />
    <glyph glyph-name="less" unicode="&#x3c;" horiz-adv-x="1042" 
d="M866 1057q26 11 51 -5.5t25 -45.5v-234q0 -23 -13.5 -43t-35.5 -27l-389 -139l389 -137q22 -7 35.5 -27t13.5 -43v-233q0 -29 -25 -45.5t-51 -5.5l-706 282q-26 9 -42 32.5t-16 51.5v252q0 28 16 50.5t42 33.5z" />
    <glyph glyph-name="equal" unicode="=" horiz-adv-x="1044" 
d="M102 920q0 31 21.5 52t52.5 21h692q31 0 52.5 -21t21.5 -52v-183q0 -29 -21.5 -50t-52.5 -21h-692q-31 0 -52.5 21t-21.5 50v183zM176 227q-31 0 -52.5 21.5t-21.5 52.5v182q0 29 21.5 50.5t52.5 21.5h692q31 0 52.5 -21.5t21.5 -50.5v-182q0 -31 -21.5 -52.5
t-52.5 -21.5h-692z" />
    <glyph glyph-name="greater" unicode="&#x3e;" horiz-adv-x="1044" 
d="M178 72q-28 -11 -52 5.5t-24 45.5v233q0 23 14 42.5t36 27.5l387 137l-387 139q-22 8 -36 27.5t-14 42.5v234q0 29 24 45.5t52 5.5l707 -283q26 -10 41.5 -33t15.5 -51v-252q0 -28 -15.5 -51.5t-41.5 -32.5z" />
    <glyph glyph-name="question" unicode="?" horiz-adv-x="1118" 
d="M569 414q91 0 155 -64t64 -155t-64 -155.5t-155 -64.5t-155 64.5t-64 155.5t64 155t155 64zM567 1460q257 0 382.5 -108.5t125.5 -294.5q0 -68 -25 -126.5t-63 -102t-78 -81.5t-75.5 -81.5t-49.5 -85.5q-9 -28 -33 -45t-53 -17h-229q-44 0 -72 36t-16 77q15 53 44.5 101
t61.5 80.5t61.5 60.5t48.5 54.5t19 49.5q0 36 -22.5 54t-58.5 18q-62 0 -89 -56q-7 -18 -24.5 -26.5t-36.5 -3.5l-272 67q-32 7 -47.5 35t-4.5 59q55 164 186.5 250t319.5 86z" />
    <glyph glyph-name="at" unicode="@" horiz-adv-x="1871" 
d="M1059 1016q0 23 16 39t39 16h154q31 0 52 -21.5t21 -52.5v-370q0 -95 70 -95q48 0 76.5 59.5t28.5 164.5q0 91 -34.5 175.5t-101 154t-178 111.5t-252.5 42q-285 0 -439.5 -145.5t-154.5 -405.5q0 -110 32 -202.5t86 -155.5t126 -107.5t150.5 -65t160.5 -20.5
q183 0 308 76q22 13 48.5 8.5t43.5 -24.5l71 -84q22 -25 17 -57.5t-33 -51.5q-191 -121 -455 -121q-239 0 -428.5 103.5t-295 287t-105.5 414.5q0 242 107 424.5t303.5 281.5t457.5 99q158 0 295 -41.5t235.5 -112.5t169.5 -165t105.5 -200.5t34.5 -217.5q0 -125 -35 -221.5
t-91.5 -150.5t-120 -81t-128.5 -27q-172 0 -260 119q-97 -108 -258 -108q-116 0 -205 55t-135.5 146t-46.5 200q0 78 21.5 149t63.5 128t110.5 91t154.5 34q121 0 199 -78v4zM928 565q56 0 90.5 34.5t34.5 88.5t-34.5 88.5t-90.5 34.5q-55 0 -89 -34.5t-34 -88.5t34 -88.5
t89 -34.5z" />
    <glyph glyph-name="A" unicode="A" horiz-adv-x="1519" 
d="M1094 0q-31 0 -55 18.5t-33 49.5l-43 153h-406l-43 -153q-7 -30 -32 -49t-56 -19h-324q-37 0 -59 30.5t-10 65.5l422 1264q12 33 40.5 53.5t63.5 20.5h402q35 0 64 -21t40 -53l422 -1264q12 -35 -9.5 -65.5t-58.5 -30.5h-325zM645 541h229l-114 415z" />
    <glyph glyph-name="B" unicode="B" horiz-adv-x="1355" 
d="M1081 752q234 -92 234 -326q0 -219 -148 -322.5t-448 -103.5h-526q-37 0 -64 27t-27 65v1251q0 37 27 64t64 27h471q302 0 449 -92.5t147 -292.5q0 -206 -179 -293v-4zM645 1104h-84v-219h84q150 0 150 108q0 111 -150 111zM700 348q148 0 148 113q0 110 -148 110h-139
v-223h139z" />
    <glyph glyph-name="C" unicode="C" horiz-adv-x="1425" 
d="M807 422q118 0 197 70q43 37 90 8l264 -174q28 -19 32.5 -52.5t-18.5 -58.5q-104 -114 -250 -177t-315 -63q-159 0 -299 57t-240.5 155.5t-158.5 236t-58 293.5q0 157 58 295t158.5 236t240.5 155t299 57q169 0 315 -63.5t250 -177.5q23 -25 18.5 -58.5t-32.5 -50.5
l-264 -176q-47 -29 -90 8q-79 70 -197 70q-129 0 -213 -83t-84 -212t84 -212t213 -83z" />
    <glyph glyph-name="D" unicode="D" horiz-adv-x="1509" 
d="M674 1434q357 0 569.5 -195t212.5 -522q0 -326 -212.5 -521.5t-569.5 -195.5h-481q-37 0 -64 27t-27 65v1251q0 37 27 64t64 27h481zM674 422q154 0 237.5 81t83.5 214t-83.5 214t-237.5 81h-111v-590h111z" />
    <glyph glyph-name="E" unicode="E" horiz-adv-x="1173" 
d="M563 385h459q38 0 65 -26.5t27 -63.5v-203q0 -38 -27 -65t-65 -27h-827q-38 0 -65.5 27t-27.5 65v1251q0 37 27.5 64t65.5 27h809q37 0 63.5 -27t26.5 -64v-204q0 -37 -26.5 -63.5t-63.5 -26.5h-441v-160h375q38 0 65 -26.5t27 -63.5v-150q0 -38 -27 -65t-65 -27h-375
v-172z" />
    <glyph glyph-name="F" unicode="F" horiz-adv-x="1165" 
d="M1106 1120q0 -37 -27 -63.5t-65 -26.5h-451v-199h391q38 0 65.5 -26.5t27.5 -63.5v-188q0 -38 -27.5 -65t-65.5 -27h-391v-369q0 -38 -27 -65t-65 -27h-278q-37 0 -64 27t-27 65v1251q0 37 27 64t64 27h821q38 0 65 -27t27 -64v-223z" />
    <glyph glyph-name="G" unicode="G" horiz-adv-x="1593" 
d="M770 739q0 37 26.5 63.5t63.5 26.5h559q38 0 65 -26.5t27 -63.5v-665q0 -31 -21 -52.5t-52 -21.5h-76q-25 0 -44.5 15t-25.5 40l-26 99q-171 -179 -459 -179q-159 0 -299 57t-240.5 155.5t-158.5 236t-58 293.5q0 157 58 295t158.5 236t240.5 155t299 57q170 0 316 -63.5
t249 -177.5q23 -25 18.5 -58.5t-32.5 -50.5l-264 -176q-47 -29 -88 8q-82 70 -199 70q-128 0 -212.5 -83.5t-84.5 -211.5q0 -136 84.5 -225t212.5 -89q191 0 260 132h-207q-37 0 -63.5 26t-26.5 64v114z" />
    <glyph glyph-name="H" unicode="H" horiz-adv-x="1536" 
d="M973 1343q0 37 27 64t65 27h278q37 0 64 -27t27 -64v-1251q0 -38 -27 -65t-64 -27h-278q-38 0 -65 27t-27 65v424h-410v-424q0 -38 -27 -65t-65 -27h-276q-38 0 -65.5 27t-27.5 65v1251q0 37 27.5 64t65.5 27h276q38 0 65 -27t27 -64v-411h410v411z" />
    <glyph glyph-name="I" unicode="I" horiz-adv-x="665" 
d="M102 1343q0 37 27.5 64t65.5 27h276q38 0 65 -27t27 -64v-1251q0 -38 -27 -65t-65 -27h-276q-38 0 -65.5 27t-27.5 65v1251z" />
    <glyph glyph-name="J" unicode="J" horiz-adv-x="1263" 
d="M791 1434h278q38 0 65 -27t27 -64v-765q0 -309 -144 -456t-429 -147q-231 0 -387 121t-187 310q-4 29 13.5 53t46.5 30l315 58q20 5 38 -6t24 -31q30 -88 122 -88q127 0 127 156v765q0 37 27 64t64 27z" />
    <glyph glyph-name="K" unicode="K" horiz-adv-x="1425" 
d="M1374 84q17 -28 1 -56t-48 -28h-366q-53 0 -80 45l-318 555v-508q0 -38 -27 -65t-65 -27h-276q-38 0 -65.5 27t-27.5 65v1251q0 37 27.5 64t65.5 27h276q38 0 65 -27t27 -64v-503l303 546q26 48 80 48h350q31 0 46.5 -28t-1.5 -54l-368 -619z" />
    <glyph glyph-name="L" unicode="L" horiz-adv-x="1138" 
d="M563 422h445q38 0 64 -26.5t26 -63.5v-240q0 -38 -26 -65t-64 -27h-813q-37 0 -64 27t-27 65v1251q0 37 27 64t64 27h278q38 0 64 -27t26 -64v-921z" />
    <glyph glyph-name="M" unicode="M" horiz-adv-x="1892" 
d="M1264 1378q13 26 38.5 41t55.5 15h342q38 0 64 -27t26 -64v-1251q0 -38 -26 -65t-64 -27h-279q-37 0 -63.5 27t-26.5 65v662l-299 -516q-19 -37 -63 -37h-45q-43 0 -62 37l-299 516v-662q0 -38 -27 -65t-65 -27h-276q-38 0 -65.5 27t-27.5 65v1251q0 37 27.5 64t65.5 27
h342q30 0 55.5 -15t38.5 -41l315 -555z" />
    <glyph glyph-name="N" unicode="N" horiz-adv-x="1531" 
d="M969 1343q0 37 26 64t64 27h278q38 0 65.5 -27t27.5 -64v-1251q0 -38 -27.5 -65t-65.5 -27h-264q-59 0 -92 51l-418 674v-633q0 -38 -27 -65t-65 -27h-278q-38 0 -64.5 27t-26.5 65v1251q0 37 26.5 64t64.5 27h264q60 0 92 -52l420 -673v634z" />
    <glyph glyph-name="O" unicode="O" horiz-adv-x="1613" 
d="M807 1458q159 0 299 -57t240.5 -155t158.5 -235.5t58 -293.5q0 -157 -58 -295t-158.5 -236.5t-240.5 -155.5t-299 -57t-299 57t-240.5 155.5t-158.5 236.5t-58 295q0 156 58 293.5t158.5 235.5t240.5 155t299 57zM807 422q128 0 211.5 82.5t83.5 212.5q0 129 -83.5 212
t-211.5 83t-211.5 -83t-83.5 -212q0 -130 83.5 -212.5t211.5 -82.5z" />
    <glyph glyph-name="P" unicode="P" horiz-adv-x="1355" 
d="M711 1434q293 0 448.5 -139.5t155.5 -391.5q0 -258 -161.5 -386t-442.5 -128h-148v-297q0 -38 -26.5 -65t-63.5 -27h-278q-38 0 -65.5 27t-27.5 65v1251q0 37 27.5 64t65.5 27h516zM711 774q68 0 103.5 35t35.5 94q0 58 -35.5 92.5t-103.5 34.5h-148v-256h148z" />
    <glyph glyph-name="Q" unicode="Q" horiz-adv-x="1613" 
d="M1563 717q0 -246 -140 -438l101 -101q15 -17 15 -39t-15 -39l-144 -141q-15 -15 -37.5 -15t-39.5 15l-111 113q-180 -97 -385 -97q-159 0 -299 57t-240.5 155.5t-158.5 236t-58 293.5q0 157 58 295t158.5 236t240.5 155t299 57t299 -57t240.5 -155t158.5 -236t58 -295z
M807 422q25 0 35 2l-76 76q-15 17 -15 39t15 39l143 141q15 15 38 15t40 -15l100 -103q15 47 15 101q0 129 -83.5 212t-211.5 83t-211.5 -83t-83.5 -212t83.5 -212t211.5 -83z" />
    <glyph glyph-name="R" unicode="R" horiz-adv-x="1415" 
d="M973 0q-26 0 -49 14t-33 37l-199 393h-129v-352q0 -38 -26.5 -65t-63.5 -27h-278q-38 0 -65.5 27t-27.5 65v1251q0 37 27.5 64t65.5 27h514q297 0 451.5 -132t154.5 -382q0 -262 -203 -385l258 -453q15 -28 -0.5 -55t-46.5 -27h-350zM563 1030v-219h146q141 0 141 109
q0 57 -34.5 83.5t-106.5 26.5h-146z" />
    <glyph glyph-name="S" unicode="S" horiz-adv-x="1232" 
d="M723 897q270 -74 378.5 -168.5t108.5 -271.5q0 -98 -36 -183.5t-105 -153t-181.5 -106.5t-254.5 -39q-96 0 -183.5 16.5t-168.5 51t-143 95.5t-95 143q-12 31 1 59t44 39l250 76q23 7 45.5 -1t36.5 -28q25 -36 77 -58t113 -22t101.5 23.5t40.5 62.5q0 15 -5 26.5t-17 21
t-24 15.5t-35.5 12.5t-42 10.5t-52.5 11.5t-58 13.5q-60 15 -107.5 29.5t-96 35.5t-84.5 45.5t-68 58.5t-52.5 74t-32 92.5t-11.5 114.5q0 138 74.5 245t202.5 164.5t286 57.5q174 0 311.5 -77t194.5 -220q12 -32 -3 -61t-47 -37l-249 -61q-50 -11 -74 26q-44 57 -131 57
q-60 0 -92.5 -22.5t-32.5 -60.5q0 -16 9 -29.5t22 -21.5t36.5 -16.5t43 -13t52.5 -12.5t54 -14z" />
    <glyph glyph-name="T" unicode="T" horiz-adv-x="1212" 
d="M1077 1434q37 0 63.5 -27t26.5 -64v-239q0 -38 -26.5 -65t-63.5 -27h-243v-920q0 -38 -27.5 -65t-65.5 -27h-278q-37 0 -63.5 27t-26.5 65v920h-244q-38 0 -65 27t-27 65v239q0 37 27 64t65 27h948z" />
    <glyph glyph-name="U" unicode="U" horiz-adv-x="1511" 
d="M1040 1434h279q38 0 65 -27t27 -64v-763q0 -157 -47 -274t-134.5 -189t-205.5 -107t-268 -35q-149 0 -267 35t-205.5 107t-134.5 189.5t-47 273.5v763q0 37 27.5 64t65.5 27h278q37 0 63.5 -27t26.5 -64v-714q0 -98 50.5 -152.5t142.5 -54.5q93 0 143.5 54t50.5 153v714
q0 37 26.5 64t63.5 27z" />
    <glyph glyph-name="V" unicode="V" horiz-adv-x="1517" 
d="M1006 1366q7 30 32 49t56 19h323q38 0 60 -31t10 -66l-422 -1261q-10 -34 -39.5 -55t-64.5 -21h-402q-35 0 -64.5 21t-39.5 55l-422 1261q-12 35 9.5 66t59.5 31h324q31 0 56 -19t32 -49l246 -889z" />
    <glyph glyph-name="W" unicode="W" horiz-adv-x="2082" 
d="M1571 1364q7 31 32 50.5t56 19.5h326q37 0 58.5 -30t10.5 -65l-373 -1261q-11 -34 -40 -56t-64 -22h-248q-37 0 -66 22.5t-38 59.5l-185 684l-182 -684q-10 -37 -39.5 -59.5t-66.5 -22.5h-246q-37 0 -66.5 22t-38.5 56l-374 1261q-11 35 10.5 65t58.5 30h326
q32 0 57 -19.5t31 -50.5l166 -692l186 694q7 30 32 49t56 19h183q31 0 56 -19t32 -49l186 -694z" />
    <glyph glyph-name="X" unicode="X" horiz-adv-x="1456" 
d="M1405 84q17 -28 1 -56t-48 -28h-344q-64 0 -96 53l-191 328l-192 -328q-13 -24 -39 -38.5t-56 -14.5h-344q-32 0 -48 28t1 56l395 649l-376 617q-17 28 -1 56t48 28h344q61 0 94 -54l174 -297l174 297q13 25 39 39.5t55 14.5h344q32 0 48 -28t-1 -56l-376 -615z" />
    <glyph glyph-name="Y" unicode="Y" horiz-adv-x="1492" 
d="M1399 1434q31 0 46.5 -27t0.5 -55l-469 -811v-449q0 -38 -27 -65t-65 -27h-277q-38 0 -65 27t-27 65v449l-469 811q-15 28 0 55t47 27h340q32 0 60 -17.5t41 -46.5l210 -455l213 455q13 29 41 46.5t60 17.5h340z" />
    <glyph glyph-name="Z" unicode="Z" horiz-adv-x="1275" 
d="M653 422h490q38 0 65 -26.5t27 -63.5v-240q0 -38 -27 -65t-65 -27h-1012q-37 0 -63.5 27t-26.5 65v211q0 45 29 82l516 627h-436q-37 0 -64 27t-27 65v239q0 37 27 64t64 27h958q37 0 63.5 -27t26.5 -64v-213q0 -41 -29 -81z" />
    <glyph glyph-name="bracketleft" unicode="[" horiz-adv-x="831" 
d="M750 1309q0 -29 -21.5 -50.5t-52.5 -21.5h-156v-1040h156q31 0 52.5 -20.5t21.5 -51.5v-250q0 -29 -21.5 -50.5t-52.5 -21.5h-502q-29 0 -50.5 21.5t-21.5 50.5v1684q0 30 21 50.5t51 20.5h502q31 0 52.5 -20.5t21.5 -50.5v-250z" />
    <glyph glyph-name="backslash" unicode="\" horiz-adv-x="1079" 
d="M451 1556l544 -1681q9 -28 -7 -50t-44 -22h-211q-35 0 -64.5 21t-39.5 55l-545 1682q-8 26 8.5 47.5t44.5 21.5h209q37 0 66 -20t39 -54z" />
    <glyph glyph-name="bracketright" unicode="]" horiz-adv-x="831" 
d="M82 1559q0 30 21 50.5t51 20.5h503q30 0 51 -20.5t21 -50.5v-1684q0 -29 -21.5 -50.5t-50.5 -21.5h-503q-29 0 -50.5 21.5t-21.5 50.5v250q0 30 21 51t51 21h155v1040h-155q-29 0 -50.5 21.5t-21.5 50.5v250z" />
    <glyph glyph-name="asciicircum" unicode="^" horiz-adv-x="1146" 
d="M1044 829q14 -28 -1 -53.5t-46 -25.5h-219q-27 0 -49.5 14.5t-32.5 38.5l-123 268l-120 -268q-26 -53 -84 -53h-217q-31 0 -47 25.5t-3 53.5l281 555q26 50 82 50h217q56 0 82 -50z" />
    <glyph glyph-name="underscore" unicode="_" horiz-adv-x="862" 
d="M20 -199q0 31 21.5 52.5t52.5 21.5h674q31 0 52.5 -21.5t21.5 -52.5v-182q0 -31 -21.5 -52.5t-52.5 -21.5h-674q-31 0 -52.5 21.5t-21.5 52.5v182z" />
    <glyph glyph-name="grave" unicode="`" horiz-adv-x="757" 
d="M446 1489q27 0 49.5 -14.5t32.5 -38.5l90 -193q12 -26 -4 -52t-45 -26h-196q-49 0 -74 39l-137 199q-20 28 -4.5 57t49.5 29h239z" />
    <glyph glyph-name="a" unicode="a" 
d="M791 983q0 23 16 39t39 16h276q31 0 52.5 -21t21.5 -52v-891q0 -31 -21.5 -52.5t-52.5 -21.5h-276q-23 0 -39 16t-16 39v25q-105 -105 -271 -105q-117 0 -210.5 46t-151 123.5t-87.5 173.5t-30 200q0 105 30 201t87.5 174t151 124t210.5 46q160 0 271 -100v20zM612 352
q76 0 122 46.5t46 119.5q0 74 -46 121t-122 47t-122 -47t-46 -121q0 -73 46 -119.5t122 -46.5z" />
    <glyph glyph-name="b" unicode="b" 
d="M768 1063q117 0 210.5 -46t151 -124t87.5 -174t30 -201q0 -104 -30 -200t-87.5 -173.5t-151 -123.5t-210.5 -46q-165 0 -270 105v-25q0 -23 -16.5 -39t-39.5 -16h-276q-31 0 -52.5 21.5t-21.5 52.5v1286q0 31 21.5 52.5t52.5 21.5h258q31 0 52.5 -21.5t21.5 -52.5v-397
q111 100 270 100zM676 352q76 0 122 46.5t46 119.5q0 74 -46 121t-122 47q-75 0 -121.5 -47t-46.5 -121q0 -72 47 -119t121 -47z" />
    <glyph glyph-name="c" unicode="c" horiz-adv-x="1103" 
d="M612 352q76 0 125 49q12 14 31.5 16.5t36.5 -7.5l250 -152q20 -12 24.5 -36.5t-10.5 -43.5q-78 -97 -197 -150t-260 -53q-161 0 -291 68t-205 192.5t-75 282.5q0 240 162.5 392.5t408.5 152.5q140 0 259 -53.5t198 -149.5q15 -19 10.5 -43.5t-24.5 -36.5l-250 -153
q-17 -9 -36.5 -6t-31.5 16q-49 49 -125 49q-75 0 -121.5 -47t-46.5 -121q0 -72 47 -119t121 -47z" />
    <glyph glyph-name="d" unicode="d" 
d="M788 1360q0 31 21.5 52.5t52.5 21.5h260q31 0 52.5 -21.5t21.5 -52.5v-1286q0 -31 -21.5 -52.5t-52.5 -21.5h-278q-23 0 -39.5 16t-16.5 39v25q-105 -105 -268 -105q-94 0 -174 30.5t-135.5 82.5t-95 121.5t-58 147.5t-18.5 161t18.5 161.5t58 148.5t95 122t135.5 82.5
t174 30.5q160 0 268 -100v397zM610 352q76 0 122 46.5t46 119.5q0 74 -46 121t-122 47q-74 0 -120 -47t-46 -121q0 -73 46 -119.5t120 -46.5z" />
    <glyph glyph-name="e" unicode="e" horiz-adv-x="1189" 
d="M592 1063q93 0 175.5 -22t153 -68t121.5 -112.5t79 -161t26 -207.5q-2 -31 -23 -52.5t-51 -21.5h-635q46 -139 207 -139q99 0 168 57q12 12 30.5 13.5t33.5 -7.5l176 -104q22 -14 26.5 -38.5t-12.5 -43.5q-71 -80 -180.5 -130.5t-241.5 -50.5q-138 0 -252 41.5t-191 114
t-119 172t-42 215.5q0 155 71.5 280t197.5 195t282 70zM436 618h332q-32 142 -166 142q-64 0 -106 -37.5t-60 -104.5z" />
    <glyph glyph-name="f" unicode="f" horiz-adv-x="839" 
d="M719 1151q-63 0 -93 -32t-30 -81h131q29 0 50.5 -21t21.5 -52v-201q0 -29 -21.5 -50.5t-50.5 -21.5h-131v-618q0 -31 -21.5 -52.5t-52.5 -21.5h-260q-31 0 -51.5 21.5t-20.5 52.5v618h-55q-31 0 -52.5 21.5t-21.5 50.5v201q0 31 21.5 52t52.5 21h55q0 46 4 87.5
t15.5 89.5t30.5 87.5t50.5 77.5t73.5 64t103 41.5t135 15.5q89 0 154 -14q19 -5 31 -19.5t12 -33.5v-230q0 -23 -17.5 -39t-40.5 -14h-22z" />
    <glyph glyph-name="g" unicode="g" 
d="M791 983q0 23 16 39t39 16h278q30 0 51 -21t21 -52v-891q0 -224 -161.5 -356t-436.5 -132q-150 0 -278 46.5t-201 127.5q-19 19 -15.5 44.5t25.5 39.5l203 121q28 19 59 -4q69 -55 184 -55q216 0 216 203v41q-103 -103 -269 -103q-148 0 -259 70.5t-166.5 184.5
t-55.5 253q0 105 30 195.5t87.5 161t151 111t212.5 40.5q170 0 269 -107v27zM612 389q76 0 122 46t46 120t-46 121t-122 47q-75 0 -121.5 -47t-46.5 -121t46.5 -120t121.5 -46z" />
    <glyph glyph-name="h" unicode="h" horiz-adv-x="1255" 
d="M782 1063q89 0 158.5 -29t110.5 -72.5t67 -101.5t35.5 -109t9.5 -102v-575q0 -31 -21 -52.5t-52 -21.5h-261q-29 0 -50 21.5t-21 52.5v448q0 65 -32 104.5t-97 39.5q-66 0 -98.5 -39.5t-32.5 -104.5v-448q0 -31 -21.5 -52.5t-50.5 -21.5h-260q-31 0 -52.5 21.5
t-21.5 52.5v1286q0 31 21.5 52.5t52.5 21.5h260q29 0 50.5 -21.5t21.5 -52.5v-428q104 131 284 131z" />
    <glyph glyph-name="i" unicode="i" horiz-adv-x="589" 
d="M166 0q-31 0 -52.5 21.5t-21.5 52.5v891q0 31 21.5 52t52.5 21h260q30 0 51 -21t21 -52v-891q0 -31 -21.5 -52.5t-50.5 -21.5h-260zM295 1118q-88 0 -149.5 61.5t-61.5 149.5t61.5 149.5t149.5 61.5t149.5 -61.5t61.5 -149.5t-61.5 -149.5t-149.5 -61.5z" />
    <glyph glyph-name="j" unicode="j" horiz-adv-x="589" 
d="M424 1038q31 0 52.5 -21t21.5 -52v-928q0 -84 -22 -156t-67.5 -131t-125 -93t-185.5 -34q-69 0 -116 8q-26 3 -44 23.5t-18 48.5v250q0 22 14.5 36.5t36.5 14.5q17 0 30 1.5t31.5 8.5t30.5 19t20.5 36.5t8.5 57.5v838q0 31 21 52t51 21h260zM295 1118q-88 0 -149.5 61.5
t-61.5 149.5t61.5 149.5t149.5 61.5t149.5 -61.5t61.5 -149.5t-61.5 -149.5t-149.5 -61.5z" />
    <glyph glyph-name="k" unicode="k" horiz-adv-x="1181" 
d="M1133 82q17 -26 1 -54t-47 -28h-313q-25 0 -47.5 13t-32.5 36l-196 373v-348q0 -31 -21.5 -52.5t-52.5 -21.5h-260q-29 0 -50.5 21.5t-21.5 52.5v1286q0 31 21.5 52.5t50.5 21.5h260q31 0 52.5 -21.5t21.5 -52.5v-703l186 334q26 47 80 47h293q32 0 48 -28t-1 -56
l-248 -401z" />
    <glyph glyph-name="l" unicode="l" horiz-adv-x="589" 
d="M92 1360q0 31 21.5 52.5t50.5 21.5h260q31 0 52.5 -21.5t21.5 -52.5v-1286q0 -31 -21.5 -52.5t-52.5 -21.5h-260q-29 0 -50.5 21.5t-21.5 52.5v1286z" />
    <glyph glyph-name="m" unicode="m" horiz-adv-x="1808" 
d="M1346 1063q89 0 157.5 -29t107.5 -72.5t64 -102t33 -108.5t8 -102v-575q0 -31 -21 -52.5t-50 -21.5h-261q-31 0 -52 21.5t-21 52.5v485q0 56 -30 81.5t-73 25.5q-42 0 -72 -25.5t-30 -81.5v-485q0 -31 -20.5 -52.5t-51.5 -21.5h-260q-31 0 -52.5 21.5t-21.5 52.5v485
q0 56 -29.5 81.5t-70.5 25.5q-43 0 -72.5 -25.5t-29.5 -81.5v-485q0 -31 -21.5 -52.5t-52.5 -21.5h-260q-29 0 -50.5 21.5t-21.5 52.5v891q0 31 21 52t51 21h278q23 0 39.5 -16t16.5 -39v-57q81 137 256 137q192 0 280 -131q117 131 312 131z" />
    <glyph glyph-name="n" unicode="n" horiz-adv-x="1255" 
d="M782 1063q89 0 158.5 -29t110.5 -72.5t67 -101.5t35.5 -109t9.5 -102v-575q0 -31 -21 -52.5t-52 -21.5h-261q-29 0 -50 21.5t-21 52.5v448q0 65 -32 104.5t-97 39.5q-66 0 -98.5 -39.5t-32.5 -104.5v-448q0 -31 -21.5 -52.5t-50.5 -21.5h-260q-31 0 -52.5 21.5
t-21.5 52.5v891q0 31 21.5 52t52.5 21h278q22 0 38 -16t16 -39v-51q104 131 284 131z" />
    <glyph glyph-name="o" unicode="o" horiz-adv-x="1226" 
d="M612 1063q247 0 410.5 -152.5t163.5 -392.5q0 -158 -75.5 -283t-206 -193.5t-292.5 -68.5q-245 0 -408 153t-163 392q0 240 162.5 392.5t408.5 152.5zM612 350q76 0 122 47t46 121t-46 121t-122 47q-74 0 -120 -47t-46 -121t46 -121t120 -47z" />
    <glyph glyph-name="p" unicode="p" horiz-adv-x="1290" 
d="M768 1063q94 0 174 -30.5t135.5 -82.5t95 -122t58 -148.5t18.5 -161.5t-18.5 -161t-58 -147.5t-95 -121.5t-135.5 -82.5t-174 -30.5q-157 0 -270 101v-400q0 -29 -21.5 -50t-50.5 -21h-260q-31 0 -52.5 21t-21.5 50v1289q0 31 21.5 52t52.5 21h278q22 0 38 -16t16 -39
v-27q107 107 270 107zM676 352q76 0 122 46.5t46 119.5q0 74 -46 121t-122 47q-74 0 -120 -47t-46 -121q0 -73 46 -119.5t120 -46.5z" />
    <glyph glyph-name="q" unicode="q" horiz-adv-x="1290" 
d="M793 983q0 23 15.5 39t37.5 16h278q31 0 52.5 -21t21.5 -52v-1289q0 -29 -21.5 -50t-52.5 -21h-260q-29 0 -50 21t-21 50v400q-113 -101 -271 -101q-94 0 -174 30.5t-135.5 82.5t-95 121.5t-58 147.5t-18.5 161t18.5 161.5t58 148.5t95 122t135.5 82.5t174 30.5
q164 0 271 -107v27zM614 352q74 0 120 46.5t46 119.5q0 74 -46 121t-120 47q-76 0 -122 -47t-46 -121q0 -73 46 -119.5t122 -46.5z" />
    <glyph glyph-name="r" unicode="r" horiz-adv-x="849" 
d="M498 877q43 70 107 117.5t136 62.5q27 5 47.5 -11t20.5 -42v-310q0 -24 -18.5 -40t-42.5 -13q-51 4 -91 -3t-66 -20t-44.5 -37t-27.5 -44.5t-14 -54t-6 -54.5t-1 -55v-299q0 -31 -21.5 -52.5t-50.5 -21.5h-260q-31 0 -52.5 21.5t-21.5 52.5v891q0 31 21.5 52t52.5 21h260
q30 0 51 -21t21 -52v-88z" />
    <glyph glyph-name="s" unicode="s" horiz-adv-x="1013" 
d="M573 655q105 -22 175.5 -46.5t126.5 -62t82 -91t26 -127.5q0 -174 -130.5 -263.5t-363.5 -89.5q-150 0 -275.5 43t-178.5 138q-12 22 -3 46t34 31l253 78q15 5 32 0.5t26 -16.5q34 -43 104 -43q45 0 71 16.5t26 44.5q0 15 -8.5 26t-30.5 19t-38.5 12t-55 11.5t-58.5 11.5
q-67 14 -115.5 29.5t-94.5 41t-74 59t-45 83t-17 113.5q0 111 65 190t171 116.5t241 37.5q126 0 237.5 -50t162.5 -145q13 -23 2 -47.5t-37 -32.5l-217 -51q-15 -5 -31 0t-25 17q-30 37 -88 37q-42 0 -67 -17t-25 -45q0 -30 27 -43t92 -26q16 -3 24 -5z" />
    <glyph glyph-name="t" unicode="t" horiz-adv-x="899" 
d="M817 764q0 -29 -21.5 -50.5t-52.5 -21.5h-131v-221q0 -51 30.5 -83t94.5 -32q15 0 23 2q23 1 40 -15.5t17 -39.5v-260q0 -18 -13 -33t-32 -20q-52 -10 -135 -10q-100 0 -177.5 28.5t-124 73t-76.5 106.5t-41 122t-11 126v256h-74q-29 0 -50.5 21.5t-21.5 50.5v201
q0 31 21.5 52t50.5 21h74v146q0 29 21.5 50t52.5 21h258q31 0 52 -21t21 -50v-146h131q31 0 52.5 -21t21.5 -52v-201z" />
    <glyph glyph-name="u" unicode="u" horiz-adv-x="1253" 
d="M829 1038h258q31 0 52.5 -21t21.5 -52v-891q0 -31 -21.5 -52.5t-52.5 -21.5h-276q-23 0 -39 16t-16 39v51q-104 -131 -283 -131q-90 0 -159.5 29t-110 72.5t-67 101.5t-35.5 109t-9 102v576q0 31 20.5 52t51.5 21h260q31 0 52.5 -21t21.5 -52v-449q0 -65 31.5 -104
t97.5 -39q65 0 97 39t32 104v449q0 31 21 52t52 21z" />
    <glyph glyph-name="v" unicode="v" horiz-adv-x="1200" 
d="M754 975q9 28 33 45.5t55 17.5h278q29 0 45 -23.5t6 -51.5l-350 -906q-10 -26 -34 -41.5t-52 -15.5h-270q-28 0 -51.5 15.5t-32.5 41.5l-352 906q-10 28 6 51.5t45 23.5h280q29 0 53 -17.5t33 -45.5l154 -483z" />
    <glyph glyph-name="w" unicode="w" horiz-adv-x="1685" 
d="M1239 971q9 30 33.5 48.5t56.5 18.5h279q29 0 45.5 -22.5t7.5 -48.5l-305 -906q-9 -28 -33 -44.5t-53 -16.5h-207q-30 0 -54.5 18.5t-31.5 47.5l-135 444l-133 -444q-9 -29 -33 -47.5t-55 -18.5h-207q-29 0 -53 16.5t-33 44.5l-303 906q-9 26 7 48.5t44 22.5h280
q31 0 56 -19t32 -48l111 -422l127 424q9 29 33 47t55 18h145q30 0 54.5 -18t31.5 -47l127 -424z" />
    <glyph glyph-name="x" unicode="x" horiz-adv-x="1181" 
d="M1130 84q17 -28 1 -56t-48 -28h-295q-53 0 -79 47l-117 209l-119 -209q-23 -47 -78 -47h-295q-32 0 -48 28t1 56l277 436l-262 434q-17 28 -1 56t48 28h295q25 0 47 -14t32 -37l103 -201l100 201q26 51 82 51h295q32 0 47 -28t0 -56l-262 -434z" />
    <glyph glyph-name="y" unicode="y" horiz-adv-x="1183" 
d="M735 977q11 28 34 44.5t52 16.5h283q29 0 45 -23.5t6 -51.5l-381 -963q-19 -46 -33.5 -78.5t-38 -77t-46.5 -75.5t-56 -64t-68.5 -53.5t-82.5 -33.5t-99 -13q-73 0 -135 16q-19 5 -31 19.5t-12 33.5l2 232q0 26 19.5 42t44.5 13q122 -19 159 102q-9 23 -79.5 197
t-160 395t-124.5 308q-10 28 6 51.5t45 23.5h278q30 0 54 -17t33 -46l139 -414z" />
    <glyph glyph-name="z" unicode="z" horiz-adv-x="1056" 
d="M590 365h332q30 0 51.5 -21.5t21.5 -50.5v-219q0 -31 -21 -52.5t-52 -21.5h-789q-29 0 -50.5 21.5t-21.5 52.5v164q0 35 25 63l360 373h-294q-29 0 -50.5 21t-21.5 50v220q0 31 21 52t51 21h751q31 0 52.5 -21t21.5 -52v-164q0 -34 -27 -64z" />
    <glyph glyph-name="braceleft" unicode="{" horiz-adv-x="905" 
d="M643 940q0 -183 -154 -219v-8q154 -36 154 -219v-172q0 -63 26.5 -94t90.5 -31h10q22 0 37.5 -15.5t15.5 -38.5v-268q0 -29 -21 -50.5t-50 -21.5h-125q-192 0 -298 87.5t-106 265.5v284q0 54 -18.5 81.5t-57.5 35.5q-20 5 -32.5 20t-12.5 35v211q0 19 12.5 34.5
t32.5 19.5q39 8 57.5 35t18.5 81v287q0 177 106 263.5t298 86.5h125q30 0 50.5 -20.5t20.5 -50.5v-269q0 -22 -15.5 -37.5t-37.5 -15.5h-10q-64 0 -90.5 -31t-26.5 -94v-172z" />
    <glyph glyph-name="bar" unicode="|" horiz-adv-x="606" 
d="M102 1477q0 31 21.5 52t52.5 21h254q31 0 52.5 -21t21.5 -52v-1708q0 -31 -21.5 -52.5t-52.5 -21.5h-254q-31 0 -52.5 21.5t-21.5 52.5v1708z" />
    <glyph glyph-name="braceright" unicode="}" horiz-adv-x="907" 
d="M264 940v172q0 63 -26.5 94t-90.5 31h-10q-22 0 -37.5 15.5t-15.5 37.5v269q0 31 20.5 51t51.5 20h123q193 0 299 -86.5t106 -263.5v-287q0 -54 18.5 -81t57.5 -35q20 -4 32.5 -19.5t12.5 -34.5v-211q0 -20 -12.5 -35t-32.5 -20q-39 -8 -57.5 -35.5t-18.5 -81.5v-284
q0 -178 -106 -265.5t-299 -87.5h-123q-30 0 -51 21t-21 51v268q0 23 15.5 38.5t37.5 15.5h10q64 0 90.5 31t26.5 94v172q0 183 152 219v8q-152 36 -152 219z" />
    <glyph glyph-name="asciitilde" unicode="~" horiz-adv-x="1206" 
d="M860 803l215 -43q22 -4 34 -22.5t9 -41.5q-22 -137 -85.5 -212.5t-186.5 -75.5q-69 0 -138.5 23.5t-127.5 47t-101 23.5q-47 0 -73 -56q-7 -17 -25 -25t-37 -3l-211 43q-23 4 -35.5 22.5t-7.5 40.5q11 57 32 105.5t55 91.5t87 67.5t119 24.5q64 0 130.5 -22t121.5 -44
t92 -22q55 0 74 45q8 19 24 28t35 5z" />
    <glyph glyph-name="exclamdown" unicode="&#xa1;" horiz-adv-x="645" 
d="M322 623q-91 0 -155.5 65t-64.5 156t64.5 155t155.5 64q92 0 156.5 -64t64.5 -155t-64.5 -156t-156.5 -65zM145 451q1 29 23 49t51 20h207q29 0 51 -20t23 -49l37 -750q3 -39 -24.5 -67.5t-66.5 -28.5h-247q-40 0 -67 28t-26 68z" />
    <glyph glyph-name="cent" unicode="&#xa2;" horiz-adv-x="1185" 
d="M635 549q77 0 123 49q13 15 32.5 18t36.5 -8l248 -151q22 -13 26 -38t-11 -44q-71 -87 -176 -139.5t-230 -61.5v-137q0 -15 -11 -26t-26 -11h-108q-15 0 -26 11t-11 26v149q-195 39 -318 183t-123 348q0 203 122.5 347t318.5 185v148q0 15 11 26t26 11h108q15 0 26 -11
t11 -26v-137q126 -9 230.5 -61t175.5 -140q15 -19 11 -44t-26 -38l-248 -152q-38 -23 -69 11q-46 49 -123 49q-76 0 -122 -47t-46 -121t46 -121t122 -47z" />
    <glyph glyph-name="sterling" unicode="&#xa3;" horiz-adv-x="1294" 
d="M489 422h631q38 0 65 -26.5t27 -63.5v-240q0 -38 -27 -65t-65 -27h-966q-38 0 -65.5 27t-27.5 65v279q0 45 41 75q87 56 93 162h-97q-15 0 -26 10.5t-11 24.5v92q0 15 11 26t26 11h76q-1 4 -6.5 22t-7.5 24t-7 23.5t-6.5 27t-5 26.5t-5 30.5t-2.5 31.5t-1 36
q0 100 32.5 184t96 147.5t165.5 99.5t232 36q407 0 508 -321q9 -29 -6.5 -55.5t-44.5 -34.5l-282 -70q-45 -10 -64 27q-19 43 -76 43q-38 0 -61 -25t-23 -68q0 -25 17.5 -86.5t21.5 -97.5h273q15 0 25.5 -11t10.5 -26v-92q0 -14 -10.5 -24.5t-25.5 -10.5h-291
q-40 -107 -142 -178v-8z" />
    <glyph glyph-name="currency" unicode="&#xa4;" horiz-adv-x="1026" 
d="M842 516l84 -84q15 -15 15 -38t-15 -38l-52 -53q-17 -15 -39.5 -15t-37.5 15l-82 84q-91 -57 -203 -57q-110 0 -201 57l-82 -84q-17 -15 -39.5 -15t-37.5 15l-52 53q-17 15 -17 38t17 38l82 84q-57 88 -57 201t57 201l-82 83q-17 15 -17 38t17 40l52 51q15 15 37.5 15
t39.5 -15l82 -83q91 57 201 57q112 0 203 -57l82 83q15 15 37.5 15t39.5 -15l52 -51q15 -17 15 -40t-15 -38l-84 -83q57 -88 57 -201t-57 -201zM512 604q47 0 81 33t34 80t-34 80.5t-81 33.5q-46 0 -79.5 -33.5t-33.5 -80.5t33.5 -80t79.5 -33z" />
    <glyph glyph-name="yen" unicode="&#xa5;" horiz-adv-x="1495" 
d="M1397 1434q32 0 48 -27t1 -55l-381 -658h129q15 0 26 -11t11 -26v-90q0 -15 -11 -26t-26 -11h-219v-90h219q15 0 26 -11t11 -26v-90q0 -15 -11 -26t-26 -11h-219v-184q0 -38 -26 -65t-64 -27h-279q-37 0 -63.5 27t-26.5 65v184h-219q-14 0 -24.5 11t-10.5 26v90
q0 15 10.5 26t24.5 11h219v90h-219q-14 0 -24.5 11t-10.5 26v90q0 15 10.5 26t24.5 11h129l-379 658q-17 28 -1 55t48 27h340q68 0 98 -64l213 -455l213 455q13 29 40.5 46.5t58.5 17.5h340z" />
    <glyph glyph-name="brokenbar" unicode="&#xa6;" horiz-adv-x="606" 
d="M176 -305q-31 0 -52.5 21.5t-21.5 52.5v581q0 29 21.5 50.5t52.5 21.5h256q29 0 50.5 -21.5t21.5 -50.5v-581q0 -31 -21.5 -52.5t-50.5 -21.5h-256zM176 821q-31 0 -52.5 21.5t-21.5 52.5v582q0 29 21.5 50t52.5 21h256q29 0 50.5 -21t21.5 -50v-582q0 -31 -21.5 -52.5
t-50.5 -21.5h-256z" />
    <glyph glyph-name="section" unicode="&#xa7;" horiz-adv-x="1228" 
d="M1147 602q0 -77 -37 -148.5t-104 -117.5q67 -87 67 -209q0 -173 -125.5 -270t-363.5 -97q-171 0 -287 57t-162 160q-14 32 1.5 64t49.5 39l234 51q19 5 36.5 -4t24.5 -27q22 -57 88 -57q80 0 80 68q0 29 -31.5 51.5t-81.5 39.5t-110 36.5t-120.5 49.5t-110.5 70
t-81.5 106.5t-31.5 151.5q0 78 36 149.5t105 119.5q-67 87 -67 209q0 172 125.5 269t363.5 97q169 0 286 -58t163 -161q13 -32 -2.5 -62t-49.5 -38l-233 -54q-19 -3 -36.5 5.5t-24.5 25.5q-26 58 -89 58q-79 0 -79 -68q0 -26 24.5 -46.5t64 -34.5t90.5 -32t104.5 -36.5
t104.5 -50t90.5 -70.5t64 -100t24.5 -136zM459 647q0 -20 13.5 -35.5t44.5 -30t58.5 -24t79 -26t82.5 -27.5q33 26 33 69q0 14 -7.5 26t-23 22.5t-33 19.5t-45.5 18.5t-51 17t-58 19t-60 19.5q-33 -23 -33 -68z" />
    <glyph glyph-name="dieresis" unicode="&#xa8;" horiz-adv-x="1081" 
d="M299 1524q82 0 139.5 -57.5t57.5 -139.5t-57.5 -139.5t-139.5 -57.5t-139.5 57.5t-57.5 139.5t57.5 139.5t139.5 57.5zM782 1524q82 0 139.5 -57.5t57.5 -139.5t-57.5 -139.5t-139.5 -57.5t-139 57.5t-57 139.5t57 139.5t139 57.5z" />
    <glyph glyph-name="copyright" unicode="&#xa9;" horiz-adv-x="1648" 
d="M842 872q-68 0 -112 -44t-44 -111t44 -111.5t112 -44.5q62 0 104 39q21 18 45 4l142 -94q13 -9 15 -26t-9 -29q-117 -127 -297 -127q-169 0 -285.5 112t-116.5 277t116.5 277t285.5 112q183 0 297 -127q11 -12 9 -29t-15 -26l-142 -95q-23 -13 -45 5q-41 38 -104 38z
M823 1460q202 0 373 -99.5t271 -270.5t100 -373q0 -151 -59 -288.5t-159 -237t-237.5 -158t-288.5 -58.5q-202 0 -372.5 99.5t-269.5 270t-99 372.5q0 151 58.5 288.5t157.5 237t236.5 158.5t288.5 59zM823 121q122 0 232.5 47t190.5 127t127.5 190t47.5 232t-47.5 232
t-127.5 190t-190.5 127t-232.5 47q-161 0 -298.5 -79.5t-217.5 -217t-80 -299.5t80 -299.5t217.5 -217t298.5 -79.5z" />
    <glyph glyph-name="guillemotleft" unicode="&#xab;" horiz-adv-x="1368" 
d="M629 913q34 0 49 -29t-4 -57l-213 -313l213 -313q19 -28 4 -57t-49 -29h-250q-48 0 -74 41l-209 307q-17 23 -17 51t17 51l209 307q26 41 74 41h250zM1202 913q32 0 48 -29t-3 -57l-213 -313l213 -313q19 -28 3 -57t-48 -29h-250q-45 0 -75 41l-209 307q-15 23 -15 51
t15 51l209 307q30 41 75 41h250z" />
    <glyph glyph-name="registered" unicode="&#xae;" horiz-adv-x="1648" 
d="M1153 838q0 -137 -106 -201l127 -225q10 -17 -0.5 -35.5t-30.5 -18.5h-154q-46 0 -65 39l-97 193h-67v-176q0 -23 -16 -39.5t-39 -16.5h-130q-23 0 -39 16.5t-16 39.5v637q0 23 16 39t39 16h261q155 0 236 -68.5t81 -199.5zM760 895v-115h76q73 0 73 58q0 31 -17 44
t-56 13h-76zM825 1460q151 0 288.5 -59t237 -158.5t158 -237t58.5 -288.5q0 -202 -99.5 -372.5t-270 -270t-372.5 -99.5q-151 0 -288.5 58.5t-237 158t-158.5 237t-59 288.5t59 288.5t158.5 237t237 158.5t288.5 59zM825 121q122 0 232 47t190 127t127 190t47 232t-47 232
t-127 190t-190 127t-232 47t-232.5 -47t-190.5 -127t-127.5 -190t-47.5 -232t47.5 -232t127.5 -190t190.5 -127t232.5 -47z" />
    <glyph glyph-name="macron" unicode="&#xaf;" horiz-adv-x="872" 
d="M102 1401q0 29 21.5 50.5t52.5 21.5h524q29 0 50.5 -21.5t21.5 -50.5v-146q0 -31 -21 -52t-51 -21h-524q-31 0 -52.5 21t-21.5 52v146z" />
    <glyph glyph-name="degree" unicode="&#xb0;" horiz-adv-x="802" 
d="M401 1434q141 0 240.5 -100.5t99.5 -241.5q0 -140 -99.5 -240t-240.5 -100t-240.5 100t-99.5 240q0 141 99.5 241.5t240.5 100.5zM401 989q43 0 74 30t31 73t-31 73.5t-74 30.5t-73.5 -30.5t-30.5 -73.5t30.5 -73t73.5 -30z" />
    <glyph glyph-name="plusminus" unicode="&#xb1;" horiz-adv-x="1081" 
d="M721 1030h184q29 0 50.5 -21.5t21.5 -52.5v-219q0 -29 -21.5 -50t-50.5 -21h-184v-148q0 -29 -21.5 -50.5t-50.5 -21.5h-219q-31 0 -52.5 21.5t-21.5 50.5v148h-182q-29 0 -50.5 21t-21.5 50v219q0 31 21.5 52.5t50.5 21.5h182v146q0 31 21.5 52t52.5 21h219
q29 0 50.5 -21.5t21.5 -51.5v-146zM174 0q-29 0 -50.5 21.5t-21.5 52.5v200q0 29 21.5 50.5t50.5 21.5h731q29 0 50.5 -21.5t21.5 -50.5v-200q0 -31 -21.5 -52.5t-50.5 -21.5h-731z" />
    <glyph glyph-name="acute" unicode="&#xb4;" horiz-adv-x="757" 
d="M229 1436q10 24 32.5 38.5t49.5 14.5h240q34 0 49 -29t-4 -57l-137 -199q-25 -39 -76 -39h-195q-31 0 -47 26t-2 52z" />
    <glyph glyph-name="paragraph" unicode="&#xb6;" horiz-adv-x="1421" 
d="M1339 1360v-248q0 -31 -21 -52.5t-50 -21.5h-19v-1147q0 -31 -21 -51t-52 -20h-183q-31 0 -52 20t-21 51v1147h-129v-1147q0 -30 -21.5 -50.5t-52.5 -20.5h-182q-31 0 -52.5 20.5t-21.5 50.5v754q-85 2 -159.5 28t-133 73.5t-93 122.5t-34.5 169q0 97 36 174t97 124.5
t138.5 72.5t164.5 25h791q29 0 50 -21.5t21 -52.5z" />
    <glyph glyph-name="cedilla" unicode="&#xb8;" horiz-adv-x="768" 
d="M422 -80q45 -2 86.5 -14.5t77.5 -37.5t58 -68t22 -99q0 -83 -43.5 -139t-106.5 -78.5t-139 -22.5q-123 0 -225 54q-21 10 -28.5 32.5t3.5 42.5l51 88q11 17 30.5 23.5t39.5 -0.5q32 -16 67 -16q62 0 62 47q0 22 -15 32.5t-36 10.5q-9 0 -29 -4q-23 -3 -37 14l-27 35
q-26 38 -8 76l37 73q17 31 49 31h90q20 0 31 -17t2 -36z" />
    <glyph glyph-name="guillemotright" unicode="&#xbb;" horiz-adv-x="1368" 
d="M737 913h250q46 0 76 -41l209 -307q15 -23 15 -51t-15 -51l-209 -307q-30 -41 -76 -41h-250q-32 0 -48 29t3 57l213 313l-213 313q-19 28 -3 57t48 29zM164 913h250q49 0 75 -41l209 -307q15 -23 15 -51t-15 -51l-209 -307q-26 -41 -75 -41h-250q-32 0 -48 29t3 57
l213 313l-213 313q-19 28 -3 57t48 29z" />
    <glyph glyph-name="questiondown" unicode="&#xbf;" horiz-adv-x="1118" 
d="M547 623q-91 0 -155 65t-64 156t64 155t155 64q92 0 156.5 -64t64.5 -155t-64.5 -156t-156.5 -65zM549 -422q-255 0 -381.5 109t-126.5 295q0 68 25 126.5t63.5 102t78 81.5t76 81.5t50.5 85.5q9 28 33 44.5t53 16.5h229q44 0 72 -35.5t16 -78.5q-18 -65 -59.5 -122.5
t-79 -90.5t-67 -68.5t-29.5 -63.5q0 -71 82 -71q61 0 86 55q7 19 25 27.5t38 3.5l273 -68q30 -7 45 -35t6 -59q-56 -164 -188 -250t-320 -86z" />
    <glyph glyph-name="Agrave" unicode="&#xc0;" horiz-adv-x="1519" 
d="M1094 0q-31 0 -55 18.5t-33 49.5l-43 153h-406l-43 -153q-7 -30 -32 -49t-56 -19h-324q-37 0 -59 30.5t-10 65.5l422 1264q12 33 40.5 53.5t63.5 20.5h402q35 0 64 -21t40 -53l422 -1264q12 -35 -9.5 -65.5t-58.5 -30.5h-325zM645 541h229l-114 415zM705 1898
q27 0 49 -14t32 -39l91 -192q12 -26 -4.5 -52t-45.5 -26h-196q-49 0 -74 39l-137 198q-20 28 -4.5 57t49.5 29h240z" />
    <glyph glyph-name="Aacute" unicode="&#xc1;" horiz-adv-x="1519" 
d="M1094 0q-31 0 -55 18.5t-33 49.5l-43 153h-406l-43 -153q-7 -30 -32 -49t-56 -19h-324q-37 0 -59 30.5t-10 65.5l422 1264q12 33 40.5 53.5t63.5 20.5h402q35 0 64 -21t40 -53l422 -1264q12 -35 -9.5 -65.5t-58.5 -30.5h-325zM645 541h229l-114 415zM713 1845
q10 24 32.5 38.5t49.5 14.5h239q34 0 49 -29t-4 -57l-137 -198q-25 -39 -76 -39h-194q-31 0 -47 26t-2 52z" />
    <glyph glyph-name="Acircumflex" unicode="&#xc2;" horiz-adv-x="1519" 
d="M1094 0q-31 0 -55 18.5t-33 49.5l-43 153h-406l-43 -153q-7 -30 -32 -49t-56 -19h-324q-37 0 -59 30.5t-10 65.5l422 1264q12 33 40.5 53.5t63.5 20.5h402q35 0 64 -21t40 -53l422 -1264q12 -35 -9.5 -65.5t-58.5 -30.5h-325zM645 541h229l-114 415zM1124 1663
q22 -26 6.5 -57t-49.5 -31h-182q-48 0 -74 37l-65 90l-66 -90q-26 -37 -73 -37h-183q-34 0 -49.5 31t6.5 57l158 201q24 34 72 34h270q48 0 72 -34z" />
    <glyph glyph-name="Atilde" unicode="&#xc3;" horiz-adv-x="1519" 
d="M1094 0q-31 0 -55 18.5t-33 49.5l-43 153h-406l-43 -153q-7 -30 -32 -49t-56 -19h-324q-37 0 -59 30.5t-10 65.5l422 1264q12 33 40.5 53.5t63.5 20.5h402q35 0 64 -21t40 -53l422 -1264q12 -35 -9.5 -65.5t-58.5 -30.5h-325zM645 541h229l-114 415zM926 1876l157 -27
q23 -4 35.5 -22.5t9.5 -40.5q-37 -234 -198 -234q-46 0 -93.5 16t-83.5 32t-55 16q-32 0 -47 -27q-17 -34 -57 -28l-158 28q-22 3 -34.5 22t-8.5 42q36 231 219 231q52 0 118 -30.5t93 -30.5q33 0 47 24q8 15 23.5 23.5t32.5 5.5z" />
    <glyph glyph-name="Adieresis" unicode="&#xc4;" horiz-adv-x="1519" 
d="M1094 0q-31 0 -55 18.5t-33 49.5l-43 153h-406l-43 -153q-7 -30 -32 -49t-56 -19h-324q-37 0 -59 30.5t-10 65.5l422 1264q12 33 40.5 53.5t63.5 20.5h402q35 0 64 -21t40 -53l422 -1264q12 -35 -9.5 -65.5t-58.5 -30.5h-325zM645 541h229l-114 415zM518 1933
q82 0 139.5 -57t57.5 -139t-57.5 -139.5t-139.5 -57.5t-139 57.5t-57 139.5t57 139t139 57zM1001 1933q82 0 139.5 -57t57.5 -139t-57.5 -139.5t-139.5 -57.5t-139 57.5t-57 139.5t57 139t139 57z" />
    <glyph glyph-name="Aring" unicode="&#xc5;" horiz-adv-x="1519" 
d="M1094 0q-31 0 -55 18.5t-33 49.5l-43 153h-406l-43 -153q-7 -30 -32 -49t-56 -19h-324q-37 0 -59 30.5t-10 65.5l422 1264q12 33 40.5 53.5t63.5 20.5h402q35 0 64 -21t40 -53l422 -1264q12 -35 -9.5 -65.5t-58.5 -30.5h-325zM645 541h229l-114 415zM760 2015
q107 0 183.5 -76.5t76.5 -183.5t-76.5 -184.5t-183.5 -77.5t-183.5 77.5t-76.5 184.5t76.5 183.5t183.5 76.5zM760 1675q32 0 55 24t23 56t-23 55t-55 23t-55 -23t-23 -55t23 -56t55 -24z" />
    <glyph glyph-name="AE" unicode="&#xc6;" horiz-adv-x="2033" 
d="M1421 385h459q38 0 65 -26.5t27 -63.5v-203q0 -38 -27 -65t-65 -27h-827q-38 0 -65 27t-27 65v129h-371l-72 -166q-11 -25 -33.5 -40t-50.5 -15h-319q-40 0 -62.5 34t-3.5 70l596 1256q15 34 46.5 54t68.5 20h1102q37 0 63.5 -27t26.5 -64v-204q0 -37 -26.5 -63.5
t-63.5 -26.5h-441v-160h375q38 0 65 -26.5t27 -63.5v-150q0 -38 -27 -65t-65 -27h-375v-172zM727 541h234v508h-17z" />
    <glyph glyph-name="Ccedilla" unicode="&#xc7;" horiz-adv-x="1425" 
d="M809 422q118 0 197 70q43 37 90 8l264 -174q28 -20 31.5 -53.5t-19.5 -59.5q-97 -105 -230 -167t-288 -71l-27 -55q45 -2 86.5 -14.5t77.5 -37.5t58 -68t22 -99q0 -83 -43.5 -139t-106.5 -78.5t-139 -22.5q-123 0 -225 54q-22 10 -28 32.5t6 42.5l49 88q11 17 30 23.5
t39 -0.5q32 -16 68 -16q61 0 61 47q0 22 -15 32.5t-36 10.5q-9 0 -29 -4q-22 -3 -36 14l-27 35q-26 38 -8 76l45 90q-273 43 -448 246t-175 485q0 157 58 295t158.5 236t240.5 155t299 57q169 0 315 -63.5t250 -177.5q23 -25 18.5 -58.5t-32.5 -50.5l-264 -176
q-47 -29 -90 8q-79 70 -197 70q-129 0 -213 -83t-84 -212t84 -212t213 -83z" />
    <glyph glyph-name="Egrave" unicode="&#xc8;" horiz-adv-x="1173" 
d="M563 385h459q38 0 65 -26.5t27 -63.5v-203q0 -38 -27 -65t-65 -27h-827q-38 0 -65.5 27t-27.5 65v1251q0 37 27.5 64t65.5 27h809q37 0 63.5 -27t26.5 -64v-204q0 -37 -26.5 -63.5t-63.5 -26.5h-441v-160h375q38 0 65 -26.5t27 -63.5v-150q0 -38 -27 -65t-65 -27h-375
v-172zM592 1898q27 0 49.5 -14.5t32.5 -38.5l90 -192q12 -26 -4 -52t-45 -26h-197q-49 0 -74 39l-137 198q-20 28 -4.5 57t49.5 29h240z" />
    <glyph glyph-name="Eacute" unicode="&#xc9;" horiz-adv-x="1173" 
d="M563 385h459q38 0 65 -26.5t27 -63.5v-203q0 -38 -27 -65t-65 -27h-827q-38 0 -65.5 27t-27.5 65v1251q0 37 27.5 64t65.5 27h809q37 0 63.5 -27t26.5 -64v-204q0 -37 -26.5 -63.5t-63.5 -26.5h-441v-160h375q38 0 65 -26.5t27 -63.5v-150q0 -38 -27 -65t-65 -27h-375
v-172zM539 1845q10 24 32.5 38.5t49.5 14.5h239q34 0 49 -29t-4 -57l-137 -198q-25 -39 -76 -39h-194q-31 0 -47 26t-2 52z" />
    <glyph glyph-name="Ecircumflex" unicode="&#xca;" horiz-adv-x="1173" 
d="M563 385h459q38 0 65 -26.5t27 -63.5v-203q0 -38 -27 -65t-65 -27h-827q-38 0 -65.5 27t-27.5 65v1251q0 37 27.5 64t65.5 27h809q37 0 63.5 -27t26.5 -64v-204q0 -37 -26.5 -63.5t-63.5 -26.5h-441v-160h375q38 0 65 -26.5t27 -63.5v-150q0 -38 -27 -65t-65 -27h-375
v-172zM971 1663q22 -26 6.5 -57t-49.5 -31h-183q-47 0 -73 37l-66 90l-65 -90q-26 -37 -74 -37h-182q-34 0 -49.5 31t6.5 57l157 201q24 34 72 34h270q48 0 72 -34z" />
    <glyph glyph-name="Edieresis" unicode="&#xcb;" horiz-adv-x="1173" 
d="M563 385h459q38 0 65 -26.5t27 -63.5v-203q0 -38 -27 -65t-65 -27h-827q-38 0 -65.5 27t-27.5 65v1251q0 37 27.5 64t65.5 27h809q37 0 63.5 -27t26.5 -64v-204q0 -37 -26.5 -63.5t-63.5 -26.5h-441v-160h375q38 0 65 -26.5t27 -63.5v-150q0 -38 -27 -65t-65 -27h-375
v-172zM365 1933q82 0 139 -57t57 -139t-57 -139.5t-139 -57.5t-139.5 57.5t-57.5 139.5t57.5 139t139.5 57zM848 1933q82 0 139 -57t57 -139t-57 -139.5t-139 -57.5t-139.5 57.5t-57.5 139.5t57.5 139t139.5 57z" />
    <glyph glyph-name="Igrave" unicode="&#xcc;" horiz-adv-x="665" 
d="M102 1343q0 37 27.5 64t65.5 27h276q38 0 65 -27t27 -64v-1251q0 -38 -27 -65t-65 -27h-276q-38 0 -65.5 27t-27.5 65v1251zM291 1898q27 0 49.5 -14.5t32.5 -38.5l90 -192q12 -26 -4 -52t-45 -26h-197q-49 0 -74 39l-137 198q-20 28 -4.5 57t49.5 29h240z" />
    <glyph glyph-name="Iacute" unicode="&#xcd;" horiz-adv-x="665" 
d="M102 1343q0 37 27.5 64t65.5 27h276q38 0 65 -27t27 -64v-1251q0 -38 -27 -65t-65 -27h-276q-38 0 -65.5 27t-27.5 65v1251zM289 1845q10 24 32.5 38.5t49.5 14.5h239q34 0 49 -29t-4 -57l-137 -198q-25 -39 -76 -39h-194q-31 0 -47 26t-2 52z" />
    <glyph glyph-name="Icircumflex" unicode="&#xce;" horiz-adv-x="665" 
d="M102 1343q0 37 27.5 64t65.5 27h276q38 0 65 -27t27 -64v-1251q0 -38 -27 -65t-65 -27h-276q-38 0 -65.5 27t-27.5 65v1251zM696 1663q22 -26 6.5 -57t-49.5 -31h-182q-48 0 -74 37l-65 90l-66 -90q-26 -37 -73 -37h-183q-34 0 -49.5 31t6.5 57l158 201q24 34 72 34h270
q48 0 72 -34z" />
    <glyph glyph-name="Idieresis" unicode="&#xcf;" horiz-adv-x="665" 
d="M102 1343q0 37 27.5 64t65.5 27h276q38 0 65 -27t27 -64v-1251q0 -38 -27 -65t-65 -27h-276q-38 0 -65.5 27t-27.5 65v1251zM90 1933q82 0 139.5 -57t57.5 -139t-57.5 -139.5t-139.5 -57.5t-139 57.5t-57 139.5t57 139t139 57zM573 1933q82 0 139.5 -57t57.5 -139
t-57.5 -139.5t-139.5 -57.5t-139 57.5t-57 139.5t57 139t139 57z" />
    <glyph glyph-name="Eth" unicode="&#xd0;" horiz-adv-x="1548" 
d="M715 1434q357 0 569.5 -195t212.5 -522q0 -326 -212.5 -521.5t-569.5 -195.5h-482q-37 0 -63.5 27t-26.5 65v570h-108q-15 0 -26 10.5t-11 25.5v37q0 15 11 26t26 11h108v571q0 37 26.5 64t63.5 27h482zM715 422q154 0 237.5 81t83.5 214t-83.5 214t-237.5 81h-111v-240
h197q15 0 26 -11t11 -26v-37q0 -15 -11 -25.5t-26 -10.5h-197v-240h111z" />
    <glyph glyph-name="Ntilde" unicode="&#xd1;" horiz-adv-x="1531" 
d="M969 1343q0 37 26 64t64 27h278q38 0 65.5 -27t27.5 -64v-1251q0 -38 -27.5 -65t-65.5 -27h-264q-59 0 -92 51l-418 674v-633q0 -38 -27 -65t-65 -27h-278q-38 0 -64.5 27t-26.5 65v1251q0 37 26.5 64t64.5 27h264q60 0 92 -52l420 -673v634zM932 1876l158 -27
q23 -4 35.5 -22.5t9.5 -40.5q-37 -234 -199 -234q-46 0 -93 16t-83 32t-55 16q-33 0 -48 -27q-17 -34 -57 -28l-158 28q-22 3 -34.5 22t-8.5 42q36 231 219 231q52 0 118 -30.5t93 -30.5q34 0 48 24q18 35 55 29z" />
    <glyph glyph-name="Ograve" unicode="&#xd2;" horiz-adv-x="1613" 
d="M807 1458q159 0 299 -57t240.5 -155t158.5 -235.5t58 -293.5q0 -157 -58 -295t-158.5 -236.5t-240.5 -155.5t-299 -57t-299 57t-240.5 155.5t-158.5 236.5t-58 295q0 156 58 293.5t158.5 235.5t240.5 155t299 57zM807 422q128 0 211.5 82.5t83.5 212.5q0 129 -83.5 212
t-211.5 83t-211.5 -83t-83.5 -212q0 -130 83.5 -212.5t211.5 -82.5zM772 1898q27 0 49.5 -14.5t32.5 -38.5l90 -192q12 -26 -4 -52t-45 -26h-197q-48 0 -73 39l-138 198q-20 28 -4.5 57t49.5 29h240z" />
    <glyph glyph-name="Oacute" unicode="&#xd3;" horiz-adv-x="1613" 
d="M807 1458q159 0 299 -57t240.5 -155t158.5 -235.5t58 -293.5q0 -157 -58 -295t-158.5 -236.5t-240.5 -155.5t-299 -57t-299 57t-240.5 155.5t-158.5 236.5t-58 295q0 156 58 293.5t158.5 235.5t240.5 155t299 57zM807 422q128 0 211.5 82.5t83.5 212.5q0 129 -83.5 212
t-211.5 83t-211.5 -83t-83.5 -212q0 -130 83.5 -212.5t211.5 -82.5zM760 1845q10 24 32.5 38.5t49.5 14.5h239q34 0 49 -29t-4 -57l-137 -198q-25 -39 -76 -39h-194q-31 0 -47 26t-2 52z" />
    <glyph glyph-name="Ocircumflex" unicode="&#xd4;" horiz-adv-x="1613" 
d="M807 1458q159 0 299 -57t240.5 -155t158.5 -235.5t58 -293.5q0 -157 -58 -295t-158.5 -236.5t-240.5 -155.5t-299 -57t-299 57t-240.5 155.5t-158.5 236.5t-58 295q0 156 58 293.5t158.5 235.5t240.5 155t299 57zM807 422q128 0 211.5 82.5t83.5 212.5q0 129 -83.5 212
t-211.5 83t-211.5 -83t-83.5 -212q0 -130 83.5 -212.5t211.5 -82.5zM1171 1663q22 -26 6.5 -57t-49.5 -31h-182q-48 0 -74 37l-65 90l-66 -90q-26 -37 -73 -37h-183q-34 0 -49.5 31t6.5 57l158 201q24 34 72 34h270q48 0 72 -34z" />
    <glyph glyph-name="Otilde" unicode="&#xd5;" horiz-adv-x="1613" 
d="M807 1458q159 0 299 -57t240.5 -155t158.5 -235.5t58 -293.5q0 -157 -58 -295t-158.5 -236.5t-240.5 -155.5t-299 -57t-299 57t-240.5 155.5t-158.5 236.5t-58 295q0 156 58 293.5t158.5 235.5t240.5 155t299 57zM807 422q128 0 211.5 82.5t83.5 212.5q0 129 -83.5 212
t-211.5 83t-211.5 -83t-83.5 -212q0 -130 83.5 -212.5t211.5 -82.5zM973 1876l157 -27q23 -4 36 -22.5t10 -40.5q-37 -234 -199 -234q-46 0 -93.5 16t-83.5 32t-55 16q-32 0 -47 -27q-17 -34 -57 -28l-158 28q-22 3 -34.5 22t-8.5 42q36 231 219 231q52 0 118 -30.5
t93 -30.5q34 0 48 24q18 35 55 29z" />
    <glyph glyph-name="Odieresis" unicode="&#xd6;" horiz-adv-x="1613" 
d="M807 1458q159 0 299 -57t240.5 -155t158.5 -235.5t58 -293.5q0 -157 -58 -295t-158.5 -236.5t-240.5 -155.5t-299 -57t-299 57t-240.5 155.5t-158.5 236.5t-58 295q0 156 58 293.5t158.5 235.5t240.5 155t299 57zM807 422q128 0 211.5 82.5t83.5 212.5q0 129 -83.5 212
t-211.5 83t-211.5 -83t-83.5 -212q0 -130 83.5 -212.5t211.5 -82.5zM565 1933q82 0 139.5 -57t57.5 -139t-57.5 -139.5t-139.5 -57.5t-139 57.5t-57 139.5t57 139t139 57zM1049 1933q82 0 139 -57t57 -139t-57 -139.5t-139 -57.5t-139.5 57.5t-57.5 139.5t57.5 139t139.5 57
z" />
    <glyph glyph-name="multiply" unicode="&#xd7;" horiz-adv-x="1040" 
d="M907 481q22 -22 22 -52t-22 -50l-153 -156q-22 -22 -52.5 -22t-52.5 22l-129 129l-129 -129q-22 -22 -51 -22t-51 22l-156 156q-22 20 -22 50t22 52l129 129l-129 129q-22 22 -22 51.5t22 51.5l156 155q22 22 51 22t51 -22l129 -129l129 129q22 22 52.5 22t52.5 -22
l153 -155q22 -22 22 -51.5t-22 -51.5l-129 -129z" />
    <glyph glyph-name="Oslash" unicode="&#xd8;" horiz-adv-x="1613" 
d="M1403 1186q160 -203 160 -469q0 -156 -58 -293.5t-158.5 -236t-240.5 -155.5t-299 -57q-306 0 -520 195l-97 -90q-12 -10 -27 -9.5t-24 11.5l-24 27q-11 12 -10.5 27t12.5 24l96 88q-162 202 -162 469q0 157 58 295t158.5 236t240.5 155t299 57q151 0 284.5 -51
t235.5 -143l98 88q11 10 26 9.5t26 -11.5l24 -27q9 -10 8.5 -26t-10.5 -25zM512 717q0 -90 41 -158l434 397q-78 56 -180 56q-128 0 -211.5 -83t-83.5 -212zM807 422q128 0 211.5 83t83.5 212q0 89 -41 157l-434 -395q75 -57 180 -57z" />
    <glyph glyph-name="Ugrave" unicode="&#xd9;" horiz-adv-x="1511" 
d="M1040 1434h279q38 0 65 -27t27 -64v-763q0 -157 -47 -274t-134.5 -189t-205.5 -107t-268 -35q-149 0 -267 35t-205.5 107t-134.5 189.5t-47 273.5v763q0 37 27.5 64t65.5 27h278q37 0 63.5 -27t26.5 -64v-714q0 -98 50.5 -152.5t142.5 -54.5q93 0 143.5 54t50.5 153v714
q0 37 26.5 64t63.5 27zM741 1898q27 0 49.5 -14.5t32.5 -38.5l90 -192q12 -26 -4 -52t-45 -26h-196q-49 0 -74 39l-137 198q-20 28 -4.5 57t49.5 29h239z" />
    <glyph glyph-name="Uacute" unicode="&#xda;" horiz-adv-x="1511" 
d="M1040 1434h279q38 0 65 -27t27 -64v-763q0 -157 -47 -274t-134.5 -189t-205.5 -107t-268 -35q-149 0 -267 35t-205.5 107t-134.5 189.5t-47 273.5v763q0 37 27.5 64t65.5 27h278q37 0 63.5 -27t26.5 -64v-714q0 -98 50.5 -152.5t142.5 -54.5q93 0 143.5 54t50.5 153v714
q0 37 26.5 64t63.5 27zM688 1845q10 24 32.5 38.5t49.5 14.5h240q34 0 49 -29t-4 -57l-137 -198q-25 -39 -76 -39h-195q-31 0 -47 26t-2 52z" />
    <glyph glyph-name="Ucircumflex" unicode="&#xdb;" horiz-adv-x="1511" 
d="M1040 1434h279q38 0 65 -27t27 -64v-763q0 -157 -47 -274t-134.5 -189t-205.5 -107t-268 -35q-149 0 -267 35t-205.5 107t-134.5 189.5t-47 273.5v763q0 37 27.5 64t65.5 27h278q37 0 63.5 -27t26.5 -64v-714q0 -98 50.5 -152.5t142.5 -54.5q93 0 143.5 54t50.5 153v714
q0 37 26.5 64t63.5 27zM1120 1663q22 -26 6.5 -57t-49.5 -31h-182q-48 0 -74 37l-65 90l-66 -90q-26 -37 -74 -37h-182q-34 0 -49.5 31t6.5 57l158 201q24 34 72 34h270q48 0 72 -34z" />
    <glyph glyph-name="Udieresis" unicode="&#xdc;" horiz-adv-x="1511" 
d="M1040 1434h279q38 0 65 -27t27 -64v-763q0 -157 -47 -274t-134.5 -189t-205.5 -107t-268 -35q-149 0 -267 35t-205.5 107t-134.5 189.5t-47 273.5v763q0 37 27.5 64t65.5 27h278q37 0 63.5 -27t26.5 -64v-714q0 -98 50.5 -152.5t142.5 -54.5q93 0 143.5 54t50.5 153v714
q0 37 26.5 64t63.5 27zM514 1933q82 0 139.5 -57t57.5 -139t-57.5 -139.5t-139.5 -57.5t-139.5 57.5t-57.5 139.5t57.5 139t139.5 57zM997 1933q82 0 139.5 -57t57.5 -139t-57.5 -139.5t-139.5 -57.5t-139 57.5t-57 139.5t57 139t139 57z" />
    <glyph glyph-name="Yacute" unicode="&#xdd;" horiz-adv-x="1492" 
d="M1399 1434q31 0 46.5 -27t0.5 -55l-469 -811v-449q0 -38 -27 -65t-65 -27h-277q-38 0 -65 27t-27 65v449l-469 811q-15 28 0 55t47 27h340q32 0 60 -17.5t41 -46.5l210 -455l213 455q13 29 41 46.5t60 17.5h340zM698 1845q10 24 32.5 38.5t49.5 14.5h240q34 0 49 -29
t-4 -57l-137 -198q-25 -39 -76 -39h-195q-31 0 -47 26t-2 52z" />
    <glyph glyph-name="Thorn" unicode="&#xde;" horiz-adv-x="1355" 
d="M709 1249q294 0 450 -140t156 -392t-156 -391.5t-450 -139.5h-146v-94q0 -38 -27 -65t-65 -27h-276q-38 0 -65.5 27t-27.5 65v1251q0 37 27.5 64t65.5 27h276q38 0 65 -27t27 -64v-94h146zM709 590q70 0 105.5 34t35.5 93t-35.5 93t-105.5 34h-146v-254h146z" />
    <glyph glyph-name="germandbls" unicode="&#xdf;" horiz-adv-x="1253" 
d="M965 727q119 -46 184 -132t65 -212q0 -194 -112.5 -301t-323.5 -107q-56 0 -127 11q-25 6 -41 25.5t-16 45.5v228q0 23 17 39t40 16q6 -2 21 -2q58 0 92.5 27.5t34.5 85.5q0 109 -152 112q-22 0 -37.5 16t-15.5 39v199q0 22 13.5 37t35.5 18q42 4 63 32t21 69
q0 50 -29.5 77t-76.5 27q-55 0 -87 -33t-32 -104v-866q0 -31 -21.5 -52.5t-50.5 -21.5h-264q-31 0 -52.5 21.5t-21.5 52.5v934q0 210 146 331t385 121q120 0 218.5 -38t159 -100.5t93 -138.5t32.5 -155q0 -204 -161 -301z" />
    <glyph glyph-name="agrave" unicode="&#xe0;" 
d="M791 983q0 23 16 39t39 16h276q31 0 52.5 -21t21.5 -52v-891q0 -31 -21.5 -52.5t-52.5 -21.5h-276q-23 0 -39 16t-16 39v25q-105 -105 -271 -105q-117 0 -210.5 46t-151 123.5t-87.5 173.5t-30 200q0 105 30 201t87.5 174t151 124t210.5 46q160 0 271 -100v20zM612 352
q76 0 122 46.5t46 119.5q0 74 -46 121t-122 47t-122 -47t-46 -121q0 -73 46 -119.5t122 -46.5zM625 1489q27 0 49.5 -14.5t32.5 -38.5l90 -193q12 -26 -4 -52t-45 -26h-197q-49 0 -74 39l-137 199q-20 28 -4.5 57t49.5 29h240z" />
    <glyph glyph-name="aacute" unicode="&#xe1;" 
d="M791 983q0 23 16 39t39 16h276q31 0 52.5 -21t21.5 -52v-891q0 -31 -21.5 -52.5t-52.5 -21.5h-276q-23 0 -39 16t-16 39v25q-105 -105 -271 -105q-117 0 -210.5 46t-151 123.5t-87.5 173.5t-30 200q0 105 30 201t87.5 174t151 124t210.5 46q160 0 271 -100v20zM612 352
q76 0 122 46.5t46 119.5q0 74 -46 121t-122 47t-122 -47t-46 -121q0 -73 46 -119.5t122 -46.5zM551 1436q10 24 32.5 38.5t49.5 14.5h239q34 0 49.5 -29t-3.5 -57l-138 -199q-25 -39 -75 -39h-195q-31 0 -47 26t-2 52z" />
    <glyph glyph-name="acircumflex" unicode="&#xe2;" 
d="M791 983q0 23 16 39t39 16h276q31 0 52.5 -21t21.5 -52v-891q0 -31 -21.5 -52.5t-52.5 -21.5h-276q-23 0 -39 16t-16 39v25q-105 -105 -271 -105q-117 0 -210.5 46t-151 123.5t-87.5 173.5t-30 200q0 105 30 201t87.5 174t151 124t210.5 46q160 0 271 -100v20zM612 352
q76 0 122 46.5t46 119.5q0 74 -46 121t-122 47t-122 -47t-46 -121q0 -73 46 -119.5t122 -46.5zM1004 1253q22 -26 6.5 -57t-49.5 -31h-183q-47 0 -73 37l-66 90l-66 -90q-26 -37 -73 -37h-183q-34 0 -49.5 31t6.5 57l158 201q24 35 72 35h270q48 0 72 -35z" />
    <glyph glyph-name="atilde" unicode="&#xe3;" 
d="M791 983q0 23 16 39t39 16h276q31 0 52.5 -21t21.5 -52v-891q0 -31 -21.5 -52.5t-52.5 -21.5h-276q-23 0 -39 16t-16 39v25q-105 -105 -271 -105q-117 0 -210.5 46t-151 123.5t-87.5 173.5t-30 200q0 105 30 201t87.5 174t151 124t210.5 46q160 0 271 -100v20zM612 352
q76 0 122 46.5t46 119.5q0 74 -46 121t-122 47t-122 -47t-46 -121q0 -73 46 -119.5t122 -46.5zM825 1466l158 -26q23 -4 35.5 -23t9.5 -41q-37 -233 -199 -233q-46 0 -93 15.5t-83 31.5t-55 16q-32 0 -47 -26q-18 -35 -57 -29l-158 29q-22 3 -34.5 21.5t-8.5 41.5
q36 232 219 232q52 0 118 -31t93 -31q33 0 47 25q8 15 23 23t32 5z" />
    <glyph glyph-name="adieresis" unicode="&#xe4;" 
d="M791 983q0 23 16 39t39 16h276q31 0 52.5 -21t21.5 -52v-891q0 -31 -21.5 -52.5t-52.5 -21.5h-276q-23 0 -39 16t-16 39v25q-105 -105 -271 -105q-117 0 -210.5 46t-151 123.5t-87.5 173.5t-30 200q0 105 30 201t87.5 174t151 124t210.5 46q160 0 271 -100v20zM612 352
q76 0 122 46.5t46 119.5q0 74 -46 121t-122 47t-122 -47t-46 -121q0 -73 46 -119.5t122 -46.5zM418 1524q82 0 139 -57.5t57 -139.5t-57 -139.5t-139 -57.5t-139.5 57.5t-57.5 139.5t57.5 139.5t139.5 57.5zM901 1524q82 0 139.5 -57.5t57.5 -139.5t-57.5 -139.5
t-139.5 -57.5t-139 57.5t-57 139.5t57 139.5t139 57.5z" />
    <glyph glyph-name="aring" unicode="&#xe5;" 
d="M791 983q0 23 16 39t39 16h276q31 0 52.5 -21t21.5 -52v-891q0 -31 -21.5 -52.5t-52.5 -21.5h-276q-23 0 -39 16t-16 39v25q-105 -105 -271 -105q-117 0 -210.5 46t-151 123.5t-87.5 173.5t-30 200q0 105 30 201t87.5 174t151 124t210.5 46q160 0 271 -100v20zM612 352
q76 0 122 46.5t46 119.5q0 74 -46 121t-122 47t-122 -47t-46 -121q0 -73 46 -119.5t122 -46.5zM659 1626q107 0 184 -76.5t77 -183.5t-77 -184.5t-184 -77.5t-183.5 77.5t-76.5 184.5t76.5 183.5t183.5 76.5zM659 1286q32 0 55 24t23 56t-23 55t-55 23t-54.5 -23t-22.5 -55
q0 -33 22.5 -56.5t54.5 -23.5z" />
    <glyph glyph-name="ae" unicode="&#xe6;" horiz-adv-x="2095" 
d="M1497 1063q117 0 217.5 -35.5t177.5 -104t120 -179.5t40 -252q0 -31 -21.5 -52.5t-52.5 -21.5h-632q43 -139 204 -139q103 0 168 57q13 12 31 13.5t33 -7.5l178 -104q22 -14 25.5 -38.5t-13.5 -43.5q-71 -81 -179.5 -131t-242.5 -50q-218 0 -352 115v-35q0 -23 -16 -39
t-39 -16h-297q-23 0 -38 16t-15 39v25q-110 -105 -271 -105q-94 0 -174 30.5t-135.5 82.5t-95 121.5t-58 147.5t-18.5 161t18.5 161.5t58 148.5t95 122t135.5 82.5t174 30.5q160 0 271 -100v20q0 23 15 39t38 16h297q23 0 39 -16t16 -39v-27q123 107 299 107zM612 352
q76 0 122 46.5t46 119.5q0 74 -46 121t-122 47q-74 0 -120 -47t-46 -121q0 -73 46 -119.5t120 -46.5zM1343 618h330q-32 142 -166 142q-64 0 -106.5 -38t-57.5 -104z" />
    <glyph glyph-name="ccedilla" unicode="&#xe7;" horiz-adv-x="1103" 
d="M614 352q77 0 123 49q14 14 33 16.5t37 -7.5l248 -152q21 -12 25 -37t-11 -45q-72 -89 -180.5 -141t-237.5 -60l-26 -55q45 -2 86 -14.5t77.5 -37.5t58 -68t21.5 -99q0 -83 -43.5 -139t-106 -78.5t-138.5 -22.5q-124 0 -226 54q-21 10 -28 32.5t4 42.5l51 88
q11 17 30.5 23.5t39.5 -0.5q32 -16 67 -16q62 0 62 47q0 22 -15.5 32.5t-36.5 10.5q-8 0 -28 -4q-23 -3 -37 14l-27 35q-26 38 -8 76l47 94q-194 40 -314 183t-120 345q0 159 75 284t205.5 193t292.5 68q140 0 259 -53.5t196 -149.5q15 -19 11 -43.5t-25 -36.5l-248 -153
q-17 -9 -37 -6t-33 16q-46 49 -123 49q-76 0 -122 -47t-46 -121q0 -73 46 -119.5t122 -46.5z" />
    <glyph glyph-name="egrave" unicode="&#xe8;" horiz-adv-x="1189" 
d="M592 1063q93 0 175.5 -22t153 -68t121.5 -112.5t79 -161t26 -207.5q-2 -31 -23 -52.5t-51 -21.5h-635q46 -139 207 -139q99 0 168 57q12 12 30.5 13.5t33.5 -7.5l176 -104q22 -14 26.5 -38.5t-12.5 -43.5q-71 -80 -180.5 -130.5t-241.5 -50.5q-138 0 -252 41.5t-191 114
t-119 172t-42 215.5q0 155 71.5 280t197.5 195t282 70zM436 618h332q-32 142 -166 142q-64 0 -106 -37.5t-60 -104.5zM559 1489q27 0 49.5 -14.5t32.5 -38.5l90 -193q12 -26 -4 -52t-45 -26h-197q-48 0 -73 39l-138 199q-20 28 -4.5 57t49.5 29h240z" />
    <glyph glyph-name="eacute" unicode="&#xe9;" horiz-adv-x="1189" 
d="M592 1063q93 0 175.5 -22t153 -68t121.5 -112.5t79 -161t26 -207.5q-2 -31 -23 -52.5t-51 -21.5h-635q46 -139 207 -139q99 0 168 57q12 12 30.5 13.5t33.5 -7.5l176 -104q22 -14 26.5 -38.5t-12.5 -43.5q-71 -80 -180.5 -130.5t-241.5 -50.5q-138 0 -252 41.5t-191 114
t-119 172t-42 215.5q0 155 71.5 280t197.5 195t282 70zM436 618h332q-32 142 -166 142q-64 0 -106 -37.5t-60 -104.5zM547 1436q10 24 32.5 38.5t49.5 14.5h239q34 0 49 -29t-4 -57l-137 -199q-25 -39 -76 -39h-194q-31 0 -47 26t-2 52z" />
    <glyph glyph-name="ecircumflex" unicode="&#xea;" horiz-adv-x="1189" 
d="M592 1063q93 0 175.5 -22t153 -68t121.5 -112.5t79 -161t26 -207.5q-2 -31 -23 -52.5t-51 -21.5h-635q46 -139 207 -139q99 0 168 57q12 12 30.5 13.5t33.5 -7.5l176 -104q22 -14 26.5 -38.5t-12.5 -43.5q-71 -80 -180.5 -130.5t-241.5 -50.5q-138 0 -252 41.5t-191 114
t-119 172t-42 215.5q0 155 71.5 280t197.5 195t282 70zM436 618h332q-32 142 -166 142q-64 0 -106 -37.5t-60 -104.5zM958 1253q22 -26 6.5 -57t-49.5 -31h-182q-48 0 -74 37l-65 90l-66 -90q-26 -37 -73 -37h-183q-34 0 -49.5 31t6.5 57l158 201q24 35 72 35h270
q48 0 72 -35z" />
    <glyph glyph-name="edieresis" unicode="&#xeb;" horiz-adv-x="1189" 
d="M592 1063q93 0 175.5 -22t153 -68t121.5 -112.5t79 -161t26 -207.5q-2 -31 -23 -52.5t-51 -21.5h-635q46 -139 207 -139q99 0 168 57q12 12 30.5 13.5t33.5 -7.5l176 -104q22 -14 26.5 -38.5t-12.5 -43.5q-71 -80 -180.5 -130.5t-241.5 -50.5q-138 0 -252 41.5t-191 114
t-119 172t-42 215.5q0 155 71.5 280t197.5 195t282 70zM436 618h332q-32 142 -166 142q-64 0 -106 -37.5t-60 -104.5zM352 1524q82 0 139.5 -57.5t57.5 -139.5t-57.5 -139.5t-139.5 -57.5t-139 57.5t-57 139.5t57 139.5t139 57.5zM836 1524q82 0 139 -57.5t57 -139.5
t-57 -139.5t-139 -57.5t-139.5 57.5t-57.5 139.5t57.5 139.5t139.5 57.5z" />
    <glyph glyph-name="igrave" unicode="&#xec;" horiz-adv-x="589" 
d="M166 0q-31 0 -52.5 21.5t-21.5 52.5v891q0 31 21.5 52t52.5 21h260q30 0 51 -21t21 -52v-891q0 -31 -21.5 -52.5t-50.5 -21.5h-260zM260 1489q27 0 49.5 -14.5t32.5 -38.5l90 -193q12 -26 -4 -52t-45 -26h-197q-48 0 -73 39l-138 199q-20 28 -4.5 57t49.5 29h240z" />
    <glyph glyph-name="iacute" unicode="&#xed;" horiz-adv-x="589" 
d="M166 0q-31 0 -52.5 21.5t-21.5 52.5v891q0 31 21.5 52t52.5 21h260q30 0 51 -21t21 -52v-891q0 -31 -21.5 -52.5t-50.5 -21.5h-260zM256 1436q10 24 32.5 38.5t49.5 14.5h240q34 0 49 -29t-4 -57l-138 -199q-25 -39 -75 -39h-195q-31 0 -47 26t-2 52z" />
    <glyph glyph-name="icircumflex" unicode="&#xee;" horiz-adv-x="589" 
d="M166 0q-31 0 -52.5 21.5t-21.5 52.5v891q0 31 21.5 52t52.5 21h260q30 0 51 -21t21 -52v-891q0 -31 -21.5 -52.5t-50.5 -21.5h-260zM659 1253q22 -26 6.5 -57t-49.5 -31h-182q-48 0 -74 37l-65 90l-66 -90q-26 -37 -73 -37h-183q-34 0 -49.5 31t6.5 57l158 201
q24 35 72 35h270q48 0 72 -35z" />
    <glyph glyph-name="idieresis" unicode="&#xef;" horiz-adv-x="589" 
d="M166 0q-31 0 -52.5 21.5t-21.5 52.5v891q0 31 21.5 52t52.5 21h260q30 0 51 -21t21 -52v-891q0 -31 -21.5 -52.5t-50.5 -21.5h-260zM53 1524q82 0 139.5 -57.5t57.5 -139.5t-57.5 -139.5t-139.5 -57.5t-139 57.5t-57 139.5t57 139.5t139 57.5zM537 1524q82 0 139 -57.5
t57 -139.5t-57 -139.5t-139 -57.5t-139.5 57.5t-57.5 139.5t57.5 139.5t139.5 57.5z" />
    <glyph glyph-name="eth" unicode="&#xf0;" horiz-adv-x="1222" 
d="M836 1280q71 -68 129.5 -144t109.5 -169.5t79 -205t28 -229.5q0 -135 -45.5 -242.5t-125 -175.5t-183.5 -103.5t-224 -35.5q-258 0 -410.5 146t-152.5 377q0 147 69 254t187 160t270 53q72 0 156 -29l4 2q-47 94 -176 203l-242 -119q-13 -6 -28 -0.5t-21 18.5l-16 33
q-6 12 -1.5 26.5t17.5 20.5l195 97q-60 45 -152 96q-28 15 -29 46t25 48l152 104q39 23 77 2q137 -84 220 -153l221 106q14 7 27.5 2.5t21.5 -18.5l14 -33q7 -14 2.5 -27.5t-18.5 -21.5zM604 340q73 0 115.5 45.5t42.5 112.5t-44.5 110t-109.5 45q-66 3 -114 -43t-48 -112
t44 -112t114 -46z" />
    <glyph glyph-name="ntilde" unicode="&#xf1;" horiz-adv-x="1255" 
d="M782 1063q89 0 158.5 -29t110.5 -72.5t67 -101.5t35.5 -109t9.5 -102v-575q0 -31 -21 -52.5t-52 -21.5h-261q-29 0 -50 21.5t-21 52.5v448q0 65 -32 104.5t-97 39.5q-66 0 -98.5 -39.5t-32.5 -104.5v-448q0 -31 -21.5 -52.5t-50.5 -21.5h-260q-31 0 -52.5 21.5
t-21.5 52.5v891q0 31 21.5 52t52.5 21h278q22 0 38 -16t16 -39v-51q104 131 284 131zM793 1466l157 -26q23 -4 35.5 -23t9.5 -41q-19 -118 -67.5 -175.5t-130.5 -57.5q-46 0 -93.5 15.5t-83.5 31.5t-55 16q-32 0 -47 -26q-18 -35 -57 -29l-158 29q-22 3 -34.5 21.5
t-8.5 41.5q36 232 219 232q52 0 118 -31t93 -31q33 0 47 25q8 15 23.5 23t32.5 5z" />
    <glyph glyph-name="ograve" unicode="&#xf2;" horiz-adv-x="1226" 
d="M612 1063q247 0 410.5 -152.5t163.5 -392.5q0 -158 -75.5 -283t-206 -193.5t-292.5 -68.5q-245 0 -408 153t-163 392q0 240 162.5 392.5t408.5 152.5zM612 350q76 0 122 47t46 121t-46 121t-122 47q-74 0 -120 -47t-46 -121t46 -121t120 -47zM578 1489q27 0 49 -14
t32 -39l91 -193q12 -26 -4.5 -52t-45.5 -26h-196q-49 0 -74 39l-137 199q-20 28 -4.5 57t49.5 29h240z" />
    <glyph glyph-name="oacute" unicode="&#xf3;" horiz-adv-x="1226" 
d="M612 1063q247 0 410.5 -152.5t163.5 -392.5q0 -158 -75.5 -283t-206 -193.5t-292.5 -68.5q-245 0 -408 153t-163 392q0 240 162.5 392.5t408.5 152.5zM612 350q76 0 122 47t46 121t-46 121t-122 47q-74 0 -120 -47t-46 -121t46 -121t120 -47zM565 1436q10 24 32.5 38.5
t49.5 14.5h240q34 0 49 -29t-4 -57l-137 -199q-25 -39 -76 -39h-195q-31 0 -47 26t-2 52z" />
    <glyph glyph-name="ocircumflex" unicode="&#xf4;" horiz-adv-x="1226" 
d="M612 1063q247 0 410.5 -152.5t163.5 -392.5q0 -158 -75.5 -283t-206 -193.5t-292.5 -68.5q-245 0 -408 153t-163 392q0 240 162.5 392.5t408.5 152.5zM612 350q76 0 122 47t46 121t-46 121t-122 47q-74 0 -120 -47t-46 -121t46 -121t120 -47zM977 1253q22 -26 6.5 -57
t-49.5 -31h-182q-48 0 -74 37l-66 90l-65 -90q-26 -37 -74 -37h-182q-34 0 -49.5 31t6.5 57l158 201q24 35 71 35h271q47 0 71 -35z" />
    <glyph glyph-name="otilde" unicode="&#xf5;" horiz-adv-x="1226" 
d="M612 1063q247 0 410.5 -152.5t163.5 -392.5q0 -158 -75.5 -283t-206 -193.5t-292.5 -68.5q-245 0 -408 153t-163 392q0 240 162.5 392.5t408.5 152.5zM612 350q76 0 122 47t46 121t-46 121t-122 47q-74 0 -120 -47t-46 -121t46 -121t120 -47zM778 1466l158 -26
q23 -4 35.5 -23t9.5 -41q-37 -233 -199 -233q-46 0 -93 15.5t-83 31.5t-55 16q-32 0 -47 -26q-18 -35 -58 -29l-157 29q-22 3 -34.5 21.5t-8.5 41.5q36 232 219 232q52 0 118 -31t93 -31q33 0 47 25q8 15 23 23t32 5z" />
    <glyph glyph-name="odieresis" unicode="&#xf6;" horiz-adv-x="1226" 
d="M612 1063q247 0 410.5 -152.5t163.5 -392.5q0 -158 -75.5 -283t-206 -193.5t-292.5 -68.5q-245 0 -408 153t-163 392q0 240 162.5 392.5t408.5 152.5zM612 350q76 0 122 47t46 121t-46 121t-122 47q-74 0 -120 -47t-46 -121t46 -121t120 -47zM371 1524q82 0 139 -57.5
t57 -139.5t-57 -139.5t-139 -57.5t-139.5 57.5t-57.5 139.5t57.5 139.5t139.5 57.5zM854 1524q82 0 139.5 -57.5t57.5 -139.5t-57.5 -139.5t-139.5 -57.5t-139.5 57.5t-57.5 139.5t57.5 139.5t139.5 57.5z" />
    <glyph glyph-name="divide" unicode="&#xf7;" horiz-adv-x="1079" 
d="M102 700q0 31 21.5 52.5t52.5 21.5h729q29 0 50.5 -21.5t21.5 -52.5v-182q0 -29 -21.5 -50.5t-50.5 -21.5h-729q-31 0 -52.5 21.5t-21.5 50.5v182zM541 848q-77 0 -132 54t-55 130t55 131.5t132 55.5q76 0 130 -55t54 -132q0 -76 -53.5 -130t-130.5 -54zM541 373
q76 0 130 -54t54 -131t-54 -131.5t-130 -54.5q-77 0 -132 55t-55 131t55 130.5t132 54.5z" />
    <glyph glyph-name="oslash" unicode="&#xf8;" horiz-adv-x="1226" 
d="M1069 860q117 -142 117 -342q0 -158 -75 -282.5t-205.5 -192.5t-291.5 -68q-222 0 -378 125l-84 -75q-11 -10 -26 -9.5t-26 11.5l-24 26q-10 11 -9.5 26.5t11.5 24.5l80 74q-117 142 -117 340q0 159 75 284t205.5 193t292.5 68q221 0 377 -125l86 78q10 9 25.5 8.5
t25.5 -10.5l25 -27q9 -12 8.5 -27.5t-10.5 -25.5zM446 518q0 -34 13 -67l237 217q-38 18 -82 18q-76 0 -122 -47t-46 -121zM614 352q74 0 120 46.5t46 119.5q0 40 -12 70l-238 -217q40 -19 84 -19z" />
    <glyph glyph-name="ugrave" unicode="&#xf9;" horiz-adv-x="1253" 
d="M829 1038h258q31 0 52.5 -21t21.5 -52v-891q0 -31 -21.5 -52.5t-52.5 -21.5h-276q-23 0 -39 16t-16 39v51q-104 -131 -283 -131q-90 0 -159.5 29t-110 72.5t-67 101.5t-35.5 109t-9 102v576q0 31 20.5 52t51.5 21h260q31 0 52.5 -21t21.5 -52v-449q0 -65 31.5 -104
t97.5 -39q65 0 97 39t32 104v449q0 31 21 52t52 21zM592 1489q27 0 49.5 -14.5t32.5 -38.5l90 -193q12 -26 -4 -52t-45 -26h-197q-49 0 -74 39l-137 199q-20 28 -4.5 57t49.5 29h240z" />
    <glyph glyph-name="uacute" unicode="&#xfa;" horiz-adv-x="1253" 
d="M829 1038h258q31 0 52.5 -21t21.5 -52v-891q0 -31 -21.5 -52.5t-52.5 -21.5h-276q-23 0 -39 16t-16 39v51q-104 -131 -283 -131q-90 0 -159.5 29t-110 72.5t-67 101.5t-35.5 109t-9 102v576q0 31 20.5 52t51.5 21h260q31 0 52.5 -21t21.5 -52v-449q0 -65 31.5 -104
t97.5 -39q65 0 97 39t32 104v449q0 31 21 52t52 21zM580 1436q10 24 32.5 38.5t49.5 14.5h239q34 0 49 -29t-4 -57l-137 -199q-25 -39 -76 -39h-194q-31 0 -47.5 26t-2.5 52z" />
    <glyph glyph-name="ucircumflex" unicode="&#xfb;" horiz-adv-x="1253" 
d="M829 1038h258q31 0 52.5 -21t21.5 -52v-891q0 -31 -21.5 -52.5t-52.5 -21.5h-276q-23 0 -39 16t-16 39v51q-104 -131 -283 -131q-90 0 -159.5 29t-110 72.5t-67 101.5t-35.5 109t-9 102v576q0 31 20.5 52t51.5 21h260q31 0 52.5 -21t21.5 -52v-449q0 -65 31.5 -104
t97.5 -39q65 0 97 39t32 104v449q0 31 21 52t52 21zM991 1253q22 -26 6.5 -57t-49.5 -31h-182q-48 0 -74 37l-65 90l-66 -90q-26 -37 -74 -37h-182q-34 0 -49.5 31t6.5 57l158 201q24 35 72 35h270q48 0 72 -35z" />
    <glyph glyph-name="udieresis" unicode="&#xfc;" horiz-adv-x="1253" 
d="M829 1038h258q31 0 52.5 -21t21.5 -52v-891q0 -31 -21.5 -52.5t-52.5 -21.5h-276q-23 0 -39 16t-16 39v51q-104 -131 -283 -131q-90 0 -159.5 29t-110 72.5t-67 101.5t-35.5 109t-9 102v576q0 31 20.5 52t51.5 21h260q31 0 52.5 -21t21.5 -52v-449q0 -65 31.5 -104
t97.5 -39q65 0 97 39t32 104v449q0 31 21 52t52 21zM385 1524q82 0 139.5 -57.5t57.5 -139.5t-57.5 -139.5t-139.5 -57.5t-139.5 57.5t-57.5 139.5t57.5 139.5t139.5 57.5zM868 1524q82 0 139.5 -57.5t57.5 -139.5t-57.5 -139.5t-139.5 -57.5t-139 57.5t-57 139.5t57 139.5
t139 57.5z" />
    <glyph glyph-name="yacute" unicode="&#xfd;" horiz-adv-x="1183" 
d="M735 977q11 28 34 44.5t52 16.5h283q29 0 45 -23.5t6 -51.5l-381 -963q-19 -46 -33.5 -78.5t-38 -77t-46.5 -75.5t-56 -64t-68.5 -53.5t-82.5 -33.5t-99 -13q-73 0 -135 16q-19 5 -31 19.5t-12 33.5l2 232q0 26 19.5 42t44.5 13q122 -19 159 102q-9 23 -79.5 197
t-160 395t-124.5 308q-10 28 6 51.5t45 23.5h278q30 0 54 -17t33 -46l139 -414zM545 1436q10 24 32.5 38.5t49.5 14.5h239q34 0 49 -29t-4 -57l-137 -199q-25 -39 -76 -39h-194q-31 0 -47 26t-2 52z" />
    <glyph glyph-name="thorn" unicode="&#xfe;" horiz-adv-x="1290" 
d="M768 1063q94 0 174 -30.5t135.5 -82.5t95 -122t58 -148.5t18.5 -161.5t-18.5 -161t-58 -147.5t-95 -121.5t-135.5 -82.5t-174 -30.5q-160 0 -270 105v-404q0 -29 -21.5 -50t-50.5 -21h-260q-31 0 -52.5 21t-21.5 50v1684q0 31 21.5 52.5t52.5 21.5h260q29 0 50.5 -21.5
t21.5 -52.5v-404q107 107 270 107zM676 352q76 0 122 46.5t46 119.5q0 74 -46 121t-122 47q-74 0 -120 -47t-46 -121q0 -73 46 -119.5t120 -46.5z" />
    <glyph glyph-name="ydieresis" unicode="&#xff;" horiz-adv-x="1183" 
d="M735 977q11 28 34 44.5t52 16.5h283q29 0 45 -23.5t6 -51.5l-381 -963q-19 -46 -33.5 -78.5t-38 -77t-46.5 -75.5t-56 -64t-68.5 -53.5t-82.5 -33.5t-99 -13q-73 0 -135 16q-19 5 -31 19.5t-12 33.5l2 232q0 26 19.5 42t44.5 13q122 -19 159 102q-9 23 -79.5 197
t-160 395t-124.5 308q-10 28 6 51.5t45 23.5h278q30 0 54 -17t33 -46l139 -414zM350 1524q82 0 139.5 -57.5t57.5 -139.5t-57.5 -139.5t-139.5 -57.5t-139 57.5t-57 139.5t57 139.5t139 57.5zM834 1524q82 0 139 -57.5t57 -139.5t-57 -139.5t-139 -57.5t-139.5 57.5
t-57.5 139.5t57.5 139.5t139.5 57.5z" />
    <glyph glyph-name="Amacron" unicode="&#x100;" horiz-adv-x="1519" 
d="M1094 0q-31 0 -55 18.5t-33 49.5l-43 153h-406l-43 -153q-7 -30 -32 -49t-56 -19h-324q-37 0 -59 30.5t-10 65.5l422 1264q12 33 40.5 53.5t63.5 20.5h402q35 0 64 -21t40 -53l422 -1264q12 -35 -9.5 -65.5t-58.5 -30.5h-325zM645 541h229l-114 415zM426 1810
q0 29 21.5 50.5t52.5 21.5h524q29 0 50.5 -21.5t21.5 -50.5v-145q0 -31 -21.5 -52.5t-50.5 -21.5h-524q-31 0 -52.5 21.5t-21.5 52.5v145z" />
    <glyph glyph-name="amacron" unicode="&#x101;" 
d="M791 983q0 23 16 39t39 16h276q31 0 52.5 -21t21.5 -52v-891q0 -31 -21.5 -52.5t-52.5 -21.5h-276q-23 0 -39 16t-16 39v25q-105 -105 -271 -105q-117 0 -210.5 46t-151 123.5t-87.5 173.5t-30 200q0 105 30 201t87.5 174t151 124t210.5 46q160 0 271 -100v20zM612 352
q76 0 122 46.5t46 119.5q0 74 -46 121t-122 47t-122 -47t-46 -121q0 -73 46 -119.5t122 -46.5zM305 1401q0 29 21.5 50.5t52.5 21.5h524q29 0 50.5 -21.5t21.5 -50.5v-146q0 -31 -21.5 -52t-50.5 -21h-524q-31 0 -52.5 21t-21.5 52v146z" />
    <glyph glyph-name="Abreve" unicode="&#x102;" horiz-adv-x="1519" 
d="M1094 0q-31 0 -55 18.5t-33 49.5l-43 153h-406l-43 -153q-7 -30 -32 -49t-56 -19h-324q-37 0 -59 30.5t-10 65.5l422 1264q12 33 40.5 53.5t63.5 20.5h402q35 0 64 -21t40 -53l422 -1264q12 -35 -9.5 -65.5t-58.5 -30.5h-325zM645 541h229l-114 415zM893 1890h147
q35 0 57 -26t15 -60q-27 -121 -123 -188.5t-229 -67.5q-132 0 -228.5 68t-123.5 188q-7 33 15 59.5t56 26.5h148q38 0 51 -37q21 -51 82 -51t82 51q13 37 51 37z" />
    <glyph glyph-name="abreve" unicode="&#x103;" 
d="M791 983q0 23 16 39t39 16h276q31 0 52.5 -21t21.5 -52v-891q0 -31 -21.5 -52.5t-52.5 -21.5h-276q-23 0 -39 16t-16 39v25q-105 -105 -271 -105q-117 0 -210.5 46t-151 123.5t-87.5 173.5t-30 200q0 105 30 201t87.5 174t151 124t210.5 46q160 0 271 -100v20zM612 352
q76 0 122 46.5t46 119.5q0 74 -46 121t-122 47t-122 -47t-46 -121q0 -73 46 -119.5t122 -46.5zM772 1481h148q35 0 56.5 -26t14.5 -60q-27 -121 -123 -188.5t-229 -67.5q-132 0 -228.5 68t-123.5 188q-7 33 15 59.5t56 26.5h148q38 0 51 -37q21 -51 82 -51t82 51
q13 37 51 37z" />
    <glyph glyph-name="Aogonek" unicode="&#x104;" horiz-adv-x="1517" 
d="M1352 -195q0 -42 26 -61.5t62 -19.5h18q25 2 42.5 -14.5t17.5 -41.5v-112q0 -18 -11 -32.5t-26 -19.5q-71 -22 -156 -22q-136 0 -207 54t-71 161q0 53 19 103.5t49.5 88.5t61 65t62.5 46h-147q-31 0 -56 19t-32 49l-43 153h-406l-43 -153q-7 -30 -32 -49t-56 -19h-324
q-38 0 -59.5 30.5t-9.5 65.5l422 1264q12 33 40.5 53.5t63.5 20.5h401q35 0 65 -21t40 -53l436 -1303q8 -25 -0.5 -48t-30.5 -36q-116 -77 -116 -168zM643 541h229l-114 415z" />
    <glyph glyph-name="aogonek" unicode="&#x105;" 
d="M1198 43q0 -42 -37 -61q-54 -34 -91.5 -80t-37.5 -97q0 -42 26 -61.5t62 -19.5h19q24 2 41.5 -15t17.5 -41v-112q0 -19 -11 -33t-28 -19q-68 -22 -153 -22q-136 0 -207.5 54.5t-71.5 160.5q0 53 19 103.5t49.5 88.5t61.5 65t63 46h-74q-22 0 -37.5 16t-15.5 39v25
q-110 -105 -271 -105q-94 0 -174 30.5t-135.5 82.5t-95 121.5t-58 147.5t-18.5 161t18.5 161.5t58 148.5t95 122t135.5 82.5t174 30.5q160 0 271 -100v20q0 23 15.5 39t37.5 16h278q31 0 52.5 -21t21.5 -52v-922zM614 352q74 0 120 46.5t46 119.5q0 74 -46 121t-120 47
q-76 0 -122 -47t-46 -121q0 -73 46 -119.5t122 -46.5z" />
    <glyph glyph-name="Cacute" unicode="&#x106;" horiz-adv-x="1425" 
d="M807 422q118 0 197 70q43 37 90 8l264 -174q28 -19 32.5 -52.5t-18.5 -58.5q-104 -114 -250 -177t-315 -63q-159 0 -299 57t-240.5 155.5t-158.5 236t-58 293.5q0 157 58 295t158.5 236t240.5 155t299 57q169 0 315 -63.5t250 -177.5q23 -25 18.5 -58.5t-32.5 -50.5
l-264 -176q-47 -29 -90 8q-79 70 -197 70q-129 0 -213 -83t-84 -212t84 -212t213 -83zM711 1845q10 24 32.5 38.5t49.5 14.5h239q34 0 49 -29t-4 -57l-137 -198q-25 -39 -76 -39h-194q-31 0 -47 26t-2 52z" />
    <glyph glyph-name="cacute" unicode="&#x107;" horiz-adv-x="1103" 
d="M612 352q76 0 125 49q12 14 31.5 16.5t36.5 -7.5l250 -152q20 -12 24.5 -36.5t-10.5 -43.5q-78 -97 -197 -150t-260 -53q-161 0 -291 68t-205 192.5t-75 282.5q0 240 162.5 392.5t408.5 152.5q140 0 259 -53.5t198 -149.5q15 -19 10.5 -43.5t-24.5 -36.5l-250 -153
q-17 -9 -36.5 -6t-31.5 16q-49 49 -125 49q-75 0 -121.5 -47t-46.5 -121q0 -72 47 -119t121 -47zM545 1436q10 24 32.5 38.5t49.5 14.5h239q34 0 49 -29t-4 -57l-137 -199q-25 -39 -76 -39h-194q-31 0 -47 26t-2 52z" />
    <glyph glyph-name="Ccircumflex" unicode="&#x108;" horiz-adv-x="1425" 
d="M807 422q118 0 197 70q43 37 90 8l264 -174q28 -19 32.5 -52.5t-18.5 -58.5q-104 -114 -250 -177t-315 -63q-159 0 -299 57t-240.5 155.5t-158.5 236t-58 293.5q0 157 58 295t158.5 236t240.5 155t299 57q169 0 315 -63.5t250 -177.5q23 -25 18.5 -58.5t-32.5 -50.5
l-264 -176q-47 -29 -90 8q-79 70 -197 70q-129 0 -213 -83t-84 -212t84 -212t213 -83zM1143 1663q22 -26 6.5 -57t-49.5 -31h-182q-48 0 -74 37l-66 90l-65 -90q-26 -37 -74 -37h-182q-34 0 -49.5 31t6.5 57l157 201q24 34 72 34h270q48 0 72 -34z" />
    <glyph glyph-name="ccircumflex" unicode="&#x109;" horiz-adv-x="1103" 
d="M612 352q76 0 125 49q12 14 31.5 16.5t36.5 -7.5l250 -152q20 -12 24.5 -36.5t-10.5 -43.5q-78 -97 -197 -150t-260 -53q-161 0 -291 68t-205 192.5t-75 282.5q0 240 162.5 392.5t408.5 152.5q140 0 259 -53.5t198 -149.5q15 -19 10.5 -43.5t-24.5 -36.5l-250 -153
q-17 -9 -36.5 -6t-31.5 16q-49 49 -125 49q-75 0 -121.5 -47t-46.5 -121q0 -72 47 -119t121 -47zM977 1253q22 -26 6.5 -57t-49.5 -31h-182q-48 0 -74 37l-66 90l-65 -90q-26 -37 -74 -37h-182q-34 0 -49.5 31t6.5 57l158 201q24 35 71 35h271q47 0 71 -35z" />
    <glyph glyph-name="Cdotaccent" unicode="&#x10a;" horiz-adv-x="1425" 
d="M807 422q118 0 197 70q43 37 90 8l264 -174q28 -19 32.5 -52.5t-18.5 -58.5q-104 -114 -250 -177t-315 -63q-159 0 -299 57t-240.5 155.5t-158.5 236t-58 293.5q0 157 58 295t158.5 236t240.5 155t299 57q169 0 315 -63.5t250 -177.5q23 -25 18.5 -58.5t-32.5 -50.5
l-264 -176q-47 -29 -90 8q-79 70 -197 70q-129 0 -213 -83t-84 -212t84 -212t213 -83zM778 1933q82 0 139.5 -57t57.5 -139t-57.5 -139.5t-139.5 -57.5t-139 57.5t-57 139.5t57 139t139 57z" />
    <glyph glyph-name="cdotaccent" unicode="&#x10b;" horiz-adv-x="1103" 
d="M612 352q76 0 125 49q12 14 31.5 16.5t36.5 -7.5l250 -152q20 -12 24.5 -36.5t-10.5 -43.5q-78 -97 -197 -150t-260 -53q-161 0 -291 68t-205 192.5t-75 282.5q0 240 162.5 392.5t408.5 152.5q140 0 259 -53.5t198 -149.5q15 -19 10.5 -43.5t-24.5 -36.5l-250 -153
q-17 -9 -36.5 -6t-31.5 16q-49 49 -125 49q-75 0 -121.5 -47t-46.5 -121q0 -72 47 -119t121 -47zM612 1524q82 0 139.5 -57.5t57.5 -139.5t-57.5 -139.5t-139.5 -57.5t-139 57.5t-57 139.5t57 139.5t139 57.5z" />
    <glyph glyph-name="Ccaron" unicode="&#x10c;" horiz-adv-x="1425" 
d="M807 422q118 0 197 70q43 37 90 8l264 -174q28 -19 32.5 -52.5t-18.5 -58.5q-104 -114 -250 -177t-315 -63q-159 0 -299 57t-240.5 155.5t-158.5 236t-58 293.5q0 157 58 295t158.5 236t240.5 155t299 57q169 0 315 -63.5t250 -177.5q23 -25 18.5 -58.5t-32.5 -50.5
l-264 -176q-47 -29 -90 8q-79 70 -197 70q-129 0 -213 -83t-84 -212t84 -212t213 -83zM844 1862q25 36 74 36h182q34 0 49.5 -31t-6.5 -57l-158 -200q-24 -35 -72 -35h-270q-48 0 -72 35l-157 200q-22 26 -6.5 57t49.5 31h182q49 0 74 -36l65 -90z" />
    <glyph glyph-name="ccaron" unicode="&#x10d;" horiz-adv-x="1103" 
d="M612 352q76 0 125 49q12 14 31.5 16.5t36.5 -7.5l250 -152q20 -12 24.5 -36.5t-10.5 -43.5q-78 -97 -197 -150t-260 -53q-161 0 -291 68t-205 192.5t-75 282.5q0 240 162.5 392.5t408.5 152.5q140 0 259 -53.5t198 -149.5q15 -19 10.5 -43.5t-24.5 -36.5l-250 -153
q-17 -9 -36.5 -6t-31.5 16q-49 49 -125 49q-75 0 -121.5 -47t-46.5 -121q0 -72 47 -119t121 -47zM678 1452q26 37 74 37h182q34 0 49.5 -31t-6.5 -57l-158 -201q-24 -35 -71 -35h-271q-47 0 -71 35l-158 201q-22 26 -6.5 57t49.5 31h182q48 0 74 -37l65 -90z" />
    <glyph glyph-name="Dcaron" unicode="&#x10e;" horiz-adv-x="1509" 
d="M674 1434q357 0 569.5 -195t212.5 -522q0 -326 -212.5 -521.5t-569.5 -195.5h-481q-37 0 -64 27t-27 65v1251q0 37 27 64t64 27h481zM674 422q154 0 237.5 81t83.5 214t-83.5 214t-237.5 81h-111v-590h111zM764 1862q25 36 74 36h182q34 0 49.5 -31t-6.5 -57l-158 -200
q-24 -35 -71 -35h-271q-47 0 -71 35l-158 200q-22 26 -6.5 57t49.5 31h182q49 0 74 -36l65 -90z" />
    <glyph glyph-name="dcaron" unicode="&#x10f;" horiz-adv-x="1488" 
d="M788 1360q0 31 21.5 52.5t52.5 21.5h260q31 0 52.5 -21.5t21.5 -52.5v-1286q0 -31 -21.5 -52.5t-52.5 -21.5h-278q-23 0 -39.5 16t-16.5 39v25q-105 -105 -268 -105q-94 0 -174 30.5t-135.5 82.5t-95 121.5t-58 147.5t-18.5 161t18.5 161.5t58 148.5t95 122t135.5 82.5
t174 30.5q160 0 268 -100v397zM610 352q76 0 122 46.5t46 119.5q0 74 -46 121t-122 47q-74 0 -120 -47t-46 -121q0 -73 46 -119.5t120 -46.5zM1360 1386q20 48 70 48h202q31 0 47 -27t2 -55l-112 -203q-19 -39 -64 -39h-168q-29 0 -45 23t-6 51z" />
    <glyph glyph-name="Dcroat" unicode="&#x110;" horiz-adv-x="1548" 
d="M715 1434q357 0 569.5 -195t212.5 -522q0 -326 -212.5 -521.5t-569.5 -195.5h-482q-37 0 -63.5 27t-26.5 65v570h-108q-15 0 -26 10.5t-11 25.5v37q0 15 11 26t26 11h108v571q0 37 26.5 64t63.5 27h482zM715 422q154 0 237.5 81t83.5 214t-83.5 214t-237.5 81h-111v-240
h197q15 0 26 -11t11 -26v-37q0 -15 -11 -25.5t-26 -10.5h-197v-240h111z" />
    <glyph glyph-name="dcroat" unicode="&#x111;" 
d="M1288 1239q14 0 24.5 -11t10.5 -26v-37q0 -13 -10.5 -24t-24.5 -11h-90v-1056q0 -31 -21.5 -52.5t-52.5 -21.5h-278q-22 0 -37.5 16t-15.5 39v15q-110 -95 -271 -95q-118 0 -211.5 40.5t-151.5 111t-88 161t-30 195.5q0 83 18.5 161.5t58 148.5t95 122t135.5 82.5
t174 30.5q157 0 271 -102v204h-195q-15 0 -26 10.5t-11 24.5v37q0 15 11 26t26 11h195v121q0 31 21 52.5t50 21.5h260q31 0 52.5 -21.5t21.5 -52.5v-121h90zM614 315q74 0 120 47t46 121t-45.5 120t-120.5 46q-76 0 -122 -46t-46 -120t46 -121t122 -47z" />
    <glyph glyph-name="Emacron" unicode="&#x112;" horiz-adv-x="1173" 
d="M563 385h459q38 0 65 -26.5t27 -63.5v-203q0 -38 -27 -65t-65 -27h-827q-38 0 -65.5 27t-27.5 65v1251q0 37 27.5 64t65.5 27h809q37 0 63.5 -27t26.5 -64v-204q0 -37 -26.5 -63.5t-63.5 -26.5h-441v-160h375q38 0 65 -26.5t27 -63.5v-150q0 -38 -27 -65t-65 -27h-375
v-172zM272 1810q0 29 21.5 50.5t52.5 21.5h524q29 0 50.5 -21.5t21.5 -50.5v-145q0 -31 -21.5 -52.5t-50.5 -21.5h-524q-31 0 -52.5 21.5t-21.5 52.5v145z" />
    <glyph glyph-name="emacron" unicode="&#x113;" horiz-adv-x="1189" 
d="M592 1063q93 0 175.5 -22t153 -68t121.5 -112.5t79 -161t26 -207.5q-2 -31 -23 -52.5t-51 -21.5h-635q46 -139 207 -139q99 0 168 57q12 12 30.5 13.5t33.5 -7.5l176 -104q22 -14 26.5 -38.5t-12.5 -43.5q-71 -80 -180.5 -130.5t-241.5 -50.5q-138 0 -252 41.5t-191 114
t-119 172t-42 215.5q0 155 71.5 280t197.5 195t282 70zM436 618h332q-32 142 -166 142q-64 0 -106 -37.5t-60 -104.5zM260 1401q0 29 21.5 50.5t52.5 21.5h524q29 0 50.5 -21.5t21.5 -50.5v-146q0 -31 -21 -52t-51 -21h-524q-31 0 -52.5 21t-21.5 52v146z" />
    <glyph glyph-name="Ebreve" unicode="&#x114;" horiz-adv-x="1173" 
d="M563 385h459q38 0 65 -26.5t27 -63.5v-203q0 -38 -27 -65t-65 -27h-827q-38 0 -65.5 27t-27.5 65v1251q0 37 27.5 64t65.5 27h809q37 0 63.5 -27t26.5 -64v-204q0 -37 -26.5 -63.5t-63.5 -26.5h-441v-160h375q38 0 65 -26.5t27 -63.5v-150q0 -38 -27 -65t-65 -27h-375
v-172zM739 1890h148q35 0 56.5 -26t14.5 -60q-27 -121 -123 -188.5t-229 -67.5q-132 0 -228.5 68t-123.5 188q-7 33 15.5 59.5t56.5 26.5h147q38 0 51 -37q21 -51 82 -51t82 51q13 37 51 37z" />
    <glyph glyph-name="ebreve" unicode="&#x115;" horiz-adv-x="1189" 
d="M592 1063q93 0 175.5 -22t153 -68t121.5 -112.5t79 -161t26 -207.5q-2 -31 -23 -52.5t-51 -21.5h-635q46 -139 207 -139q99 0 168 57q12 12 30.5 13.5t33.5 -7.5l176 -104q22 -14 26.5 -38.5t-12.5 -43.5q-71 -80 -180.5 -130.5t-241.5 -50.5q-138 0 -252 41.5t-191 114
t-119 172t-42 215.5q0 155 71.5 280t197.5 195t282 70zM436 618h332q-32 142 -166 142q-64 0 -106 -37.5t-60 -104.5zM727 1481h147q35 0 57 -26t15 -60q-27 -121 -123 -188.5t-229 -67.5q-132 0 -228.5 68t-123.5 188q-7 33 15 59.5t56 26.5h148q38 0 51 -37q21 -51 82 -51
t82 51q13 37 51 37z" />
    <glyph glyph-name="Edotaccent" unicode="&#x116;" horiz-adv-x="1173" 
d="M563 385h459q38 0 65 -26.5t27 -63.5v-203q0 -38 -27 -65t-65 -27h-827q-38 0 -65.5 27t-27.5 65v1251q0 37 27.5 64t65.5 27h809q37 0 63.5 -27t26.5 -64v-204q0 -37 -26.5 -63.5t-63.5 -26.5h-441v-160h375q38 0 65 -26.5t27 -63.5v-150q0 -38 -27 -65t-65 -27h-375
v-172zM606 1933q82 0 139.5 -57t57.5 -139t-57.5 -139.5t-139.5 -57.5t-139 57.5t-57 139.5t57 139t139 57z" />
    <glyph glyph-name="edotaccent" unicode="&#x117;" horiz-adv-x="1189" 
d="M592 1063q93 0 175.5 -22t153 -68t121.5 -112.5t79 -161t26 -207.5q-2 -31 -23 -52.5t-51 -21.5h-635q46 -139 207 -139q99 0 168 57q12 12 30.5 13.5t33.5 -7.5l176 -104q22 -14 26.5 -38.5t-12.5 -43.5q-71 -80 -180.5 -130.5t-241.5 -50.5q-138 0 -252 41.5t-191 114
t-119 172t-42 215.5q0 155 71.5 280t197.5 195t282 70zM436 618h332q-32 142 -166 142q-64 0 -106 -37.5t-60 -104.5zM594 1524q82 0 139.5 -57.5t57.5 -139.5t-57.5 -139.5t-139.5 -57.5t-139.5 57.5t-57.5 139.5t57.5 139.5t139.5 57.5z" />
    <glyph glyph-name="Eogonek" unicode="&#x118;" horiz-adv-x="1173" 
d="M1114 43q0 -40 -35 -61q-56 -33 -93.5 -79t-37.5 -98q0 -42 26 -61.5t62 -19.5h19q24 2 41.5 -15t17.5 -41v-112q0 -19 -11 -33t-28 -19q-68 -22 -153 -22q-136 0 -207.5 54.5t-71.5 160.5q0 53 19 103.5t49.5 88.5t61.5 65t63 46h-641q-38 0 -65.5 27t-27.5 65v1251
q0 37 27.5 64t65.5 27h809q38 0 64 -27t26 -64v-204q0 -37 -26 -63.5t-64 -26.5h-441v-160h375q38 0 65 -26.5t27 -63.5v-150q0 -38 -27 -65t-65 -27h-375v-172h459q38 0 65 -26.5t27 -63.5v-252z" />
    <glyph glyph-name="eogonek" unicode="&#x119;" horiz-adv-x="1189" 
d="M592 1063q116 0 216.5 -35.5t177 -104t119.5 -179.5t40 -252q0 -31 -21.5 -52.5t-50.5 -21.5h-635q43 -139 205 -139q103 0 168 57q13 12 32 13.5t34 -7.5l176 -104q22 -14 25.5 -38.5t-13.5 -43.5q-85 -101 -225 -150q-66 -27 -116 -83t-50 -118q0 -42 26 -61.5
t62 -19.5h18q25 2 42.5 -14.5t17.5 -41.5v-112q0 -42 -37 -52q-71 -22 -156 -22q-136 0 -207 54t-71 161q0 90 49 163t117 122q-228 30 -361 178t-133 358q0 236 156.5 390.5t394.5 154.5zM436 618h330q-28 142 -166 142q-126 0 -164 -142z" />
    <glyph glyph-name="Ecaron" unicode="&#x11a;" horiz-adv-x="1173" 
d="M563 385h459q38 0 65 -26.5t27 -63.5v-203q0 -38 -27 -65t-65 -27h-827q-38 0 -65.5 27t-27.5 65v1251q0 37 27.5 64t65.5 27h809q37 0 63.5 -27t26.5 -64v-204q0 -37 -26.5 -63.5t-63.5 -26.5h-441v-160h375q38 0 65 -26.5t27 -63.5v-150q0 -38 -27 -65t-65 -27h-375
v-172zM672 1862q25 36 73 36h183q34 0 49.5 -31t-6.5 -57l-158 -200q-24 -35 -72 -35h-270q-48 0 -72 35l-157 200q-22 26 -6.5 57t49.5 31h182q49 0 74 -36l65 -90z" />
    <glyph glyph-name="ecaron" unicode="&#x11b;" horiz-adv-x="1189" 
d="M592 1063q93 0 175.5 -22t153 -68t121.5 -112.5t79 -161t26 -207.5q-2 -31 -23 -52.5t-51 -21.5h-635q46 -139 207 -139q99 0 168 57q12 12 30.5 13.5t33.5 -7.5l176 -104q22 -14 26.5 -38.5t-12.5 -43.5q-71 -80 -180.5 -130.5t-241.5 -50.5q-138 0 -252 41.5t-191 114
t-119 172t-42 215.5q0 155 71.5 280t197.5 195t282 70zM436 618h332q-32 142 -166 142q-64 0 -106 -37.5t-60 -104.5zM659 1452q26 37 74 37h182q34 0 49.5 -31t-6.5 -57l-157 -201q-24 -35 -72 -35h-270q-48 0 -72 35l-158 201q-22 26 -6.5 57t49.5 31h183q47 0 73 -37
l66 -90z" />
    <glyph glyph-name="Gcircumflex" unicode="&#x11c;" horiz-adv-x="1593" 
d="M770 739q0 37 26.5 63.5t63.5 26.5h559q38 0 65 -26.5t27 -63.5v-665q0 -31 -21 -52.5t-52 -21.5h-76q-25 0 -44.5 15t-25.5 40l-26 99q-171 -179 -459 -179q-159 0 -299 57t-240.5 155.5t-158.5 236t-58 293.5q0 157 58 295t158.5 236t240.5 155t299 57q170 0 316 -63.5
t249 -177.5q23 -25 18.5 -58.5t-32.5 -50.5l-264 -176q-47 -29 -88 8q-82 70 -199 70q-128 0 -212.5 -83.5t-84.5 -211.5q0 -136 84.5 -225t212.5 -89q191 0 260 132h-207q-37 0 -63.5 26t-26.5 64v114zM1145 1663q22 -26 6.5 -57t-49.5 -31h-182q-48 0 -74 37l-66 90
l-65 -90q-26 -37 -74 -37h-182q-34 0 -49.5 31t6.5 57l157 201q24 34 72 34h270q48 0 72 -34z" />
    <glyph glyph-name="gcircumflex" unicode="&#x11d;" 
d="M791 983q0 23 16 39t39 16h278q30 0 51 -21t21 -52v-891q0 -224 -161.5 -356t-436.5 -132q-150 0 -278 46.5t-201 127.5q-19 19 -15.5 44.5t25.5 39.5l203 121q28 19 59 -4q69 -55 184 -55q216 0 216 203v41q-103 -103 -269 -103q-148 0 -259 70.5t-166.5 184.5
t-55.5 253q0 105 30 195.5t87.5 161t151 111t212.5 40.5q170 0 269 -107v27zM612 389q76 0 122 46t46 120t-46 121t-122 47q-75 0 -121.5 -47t-46.5 -121t46.5 -120t121.5 -46zM1004 1253q22 -26 6.5 -57t-49.5 -31h-183q-47 0 -73 37l-66 90l-66 -90q-26 -37 -73 -37h-183
q-34 0 -49.5 31t6.5 57l158 201q24 35 72 35h270q48 0 72 -35z" />
    <glyph glyph-name="Gbreve" unicode="&#x11e;" horiz-adv-x="1593" 
d="M770 739q0 37 26.5 63.5t63.5 26.5h559q38 0 65 -26.5t27 -63.5v-665q0 -31 -21 -52.5t-52 -21.5h-76q-25 0 -44.5 15t-25.5 40l-26 99q-171 -179 -459 -179q-159 0 -299 57t-240.5 155.5t-158.5 236t-58 293.5q0 157 58 295t158.5 236t240.5 155t299 57q170 0 316 -63.5
t249 -177.5q23 -25 18.5 -58.5t-32.5 -50.5l-264 -176q-47 -29 -88 8q-82 70 -199 70q-128 0 -212.5 -83.5t-84.5 -211.5q0 -136 84.5 -225t212.5 -89q191 0 260 132h-207q-37 0 -63.5 26t-26.5 64v114zM913 1890h148q35 0 57 -26t15 -60q-27 -121 -123.5 -188.5
t-229.5 -67.5q-132 0 -228.5 68t-123.5 188q-7 33 15.5 59.5t56.5 26.5h147q38 0 51 -37q21 -51 82 -51t82 51q13 37 51 37z" />
    <glyph glyph-name="gbreve" unicode="&#x11f;" 
d="M791 983q0 23 16 39t39 16h278q30 0 51 -21t21 -52v-891q0 -224 -161.5 -356t-436.5 -132q-150 0 -278 46.5t-201 127.5q-19 19 -15.5 44.5t25.5 39.5l203 121q28 19 59 -4q69 -55 184 -55q216 0 216 203v41q-103 -103 -269 -103q-148 0 -259 70.5t-166.5 184.5
t-55.5 253q0 105 30 195.5t87.5 161t151 111t212.5 40.5q170 0 269 -107v27zM612 389q76 0 122 46t46 120t-46 121t-122 47q-75 0 -121.5 -47t-46.5 -121t46.5 -120t121.5 -46zM772 1481h148q35 0 56.5 -26t14.5 -60q-27 -121 -123 -188.5t-229 -67.5q-132 0 -228.5 68
t-123.5 188q-7 33 15 59.5t56 26.5h148q38 0 51 -37q21 -51 82 -51t82 51q13 37 51 37z" />
    <glyph glyph-name="Gdotaccent" unicode="&#x120;" horiz-adv-x="1593" 
d="M770 739q0 37 26.5 63.5t63.5 26.5h559q38 0 65 -26.5t27 -63.5v-665q0 -31 -21 -52.5t-52 -21.5h-76q-25 0 -44.5 15t-25.5 40l-26 99q-171 -179 -459 -179q-159 0 -299 57t-240.5 155.5t-158.5 236t-58 293.5q0 157 58 295t158.5 236t240.5 155t299 57q170 0 316 -63.5
t249 -177.5q23 -25 18.5 -58.5t-32.5 -50.5l-264 -176q-47 -29 -88 8q-82 70 -199 70q-128 0 -212.5 -83.5t-84.5 -211.5q0 -136 84.5 -225t212.5 -89q191 0 260 132h-207q-37 0 -63.5 26t-26.5 64v114zM780 1933q82 0 139.5 -57t57.5 -139t-57.5 -139.5t-139.5 -57.5
t-139 57.5t-57 139.5t57 139t139 57z" />
    <glyph glyph-name="gdotaccent" unicode="&#x121;" 
d="M791 983q0 23 16 39t39 16h278q30 0 51 -21t21 -52v-891q0 -224 -161.5 -356t-436.5 -132q-150 0 -278 46.5t-201 127.5q-19 19 -15.5 44.5t25.5 39.5l203 121q28 19 59 -4q69 -55 184 -55q216 0 216 203v41q-103 -103 -269 -103q-148 0 -259 70.5t-166.5 184.5
t-55.5 253q0 105 30 195.5t87.5 161t151 111t212.5 40.5q170 0 269 -107v27zM612 389q76 0 122 46t46 120t-46 121t-122 47q-75 0 -121.5 -47t-46.5 -121t46.5 -120t121.5 -46zM639 1524q82 0 139.5 -57.5t57.5 -139.5t-57.5 -139.5t-139.5 -57.5t-139.5 57.5t-57.5 139.5
t57.5 139.5t139.5 57.5z" />
    <glyph glyph-name="Gcommaaccent" unicode="&#x122;" horiz-adv-x="1593" 
d="M770 739q0 37 26.5 63.5t63.5 26.5h559q38 0 65 -26.5t27 -63.5v-665q0 -31 -21 -52.5t-52 -21.5h-76q-25 0 -44.5 15t-25.5 40l-26 99q-171 -179 -459 -179q-159 0 -299 57t-240.5 155.5t-158.5 236t-58 293.5q0 157 58 295t158.5 236t240.5 155t299 57q170 0 316 -63.5
t249 -177.5q23 -25 18.5 -58.5t-32.5 -50.5l-264 -176q-47 -29 -88 8q-82 70 -199 70q-128 0 -212.5 -83.5t-84.5 -211.5q0 -136 84.5 -225t212.5 -89q191 0 260 132h-207q-37 0 -63.5 26t-26.5 64v114zM608 -195q20 48 70 48h203q31 0 47 -27t2 -55l-113 -203
q-19 -39 -63 -39h-168q-29 0 -45 23t-6 51z" />
    <glyph glyph-name="gcommaaccent" unicode="&#x123;" 
d="M791 983q0 23 16 39t39 16h278q30 0 51 -21t21 -52v-891q0 -224 -161.5 -356t-436.5 -132q-150 0 -278 46.5t-201 127.5q-19 19 -15.5 44.5t25.5 39.5l203 121q28 19 59 -4q69 -55 184 -55q216 0 216 203v41q-103 -103 -269 -103q-148 0 -259 70.5t-166.5 184.5
t-55.5 253q0 105 30 195.5t87.5 161t151 111t212.5 40.5q170 0 269 -107v27zM612 389q76 0 122 46t46 120t-46 121t-122 47q-75 0 -121.5 -47t-46.5 -121t46.5 -120t121.5 -46zM862 1212q-19 -47 -69 -47h-203q-31 0 -47 27t-2 55l112 203q19 39 64 39h168q29 0 45 -23
t6 -51z" />
    <glyph glyph-name="Hcircumflex" unicode="&#x124;" horiz-adv-x="1536" 
d="M973 1343q0 37 27 64t65 27h278q37 0 64 -27t27 -64v-1251q0 -38 -27 -65t-64 -27h-278q-38 0 -65 27t-27 65v424h-410v-424q0 -38 -27 -65t-65 -27h-276q-38 0 -65.5 27t-27.5 65v1251q0 37 27.5 64t65.5 27h276q38 0 65 -27t27 -64v-411h410v411zM1133 1663
q22 -26 6.5 -57t-49.5 -31h-183q-47 0 -73 37l-66 90l-66 -90q-26 -37 -73 -37h-183q-34 0 -49.5 31t6.5 57l158 201q24 34 72 34h270q48 0 72 -34z" />
    <glyph glyph-name="hcircumflex" unicode="&#x125;" horiz-adv-x="1255" 
d="M782 1063q89 0 158.5 -29t110.5 -72.5t67 -101.5t35.5 -109t9.5 -102v-575q0 -31 -21 -52.5t-52 -21.5h-261q-29 0 -50 21.5t-21 52.5v448q0 65 -32 104.5t-97 39.5q-66 0 -98.5 -39.5t-32.5 -104.5v-448q0 -31 -21.5 -52.5t-50.5 -21.5h-260q-31 0 -52.5 21.5
t-21.5 52.5v1286q0 31 21.5 52.5t52.5 21.5h260q29 0 50.5 -21.5t21.5 -52.5v-428q104 131 284 131zM932 1663q22 -26 6.5 -57t-49.5 -31h-182q-48 0 -74 37l-66 90l-65 -90q-26 -37 -74 -37h-182q-34 0 -49.5 31t6.5 57l157 201q24 34 72 34h270q48 0 72 -34z" />
    <glyph glyph-name="Hbar" unicode="&#x126;" horiz-adv-x="1619" 
d="M1585 1210q15 0 26 -10t11 -24v-37q0 -15 -11 -26t-26 -11h-108v-1010q0 -38 -27.5 -65t-65.5 -27h-276q-38 0 -65 27t-27 65v424h-410v-424q0 -38 -27 -65t-65 -27h-278q-37 0 -64 27t-27 65v1010h-108q-15 0 -26 11t-11 26v37q0 14 11 24t26 10h108v133q0 37 27 64
t64 27h278q38 0 65 -27t27 -64v-133h410v133q0 37 27 64t65 27h276q38 0 65.5 -27t27.5 -64v-133h108zM1016 932v170h-410v-170h410z" />
    <glyph glyph-name="hbar" unicode="&#x127;" horiz-adv-x="1255" 
d="M784 1026q89 0 158.5 -29t110.5 -72.5t67 -101t35.5 -108.5t9.5 -101v-540q0 -31 -21 -52.5t-52 -21.5h-261q-29 0 -50 21.5t-21 52.5v413q0 64 -32.5 103t-96.5 39q-66 0 -98.5 -39t-32.5 -103v-413q0 -31 -21.5 -52.5t-50.5 -21.5h-260q-31 0 -52.5 21.5t-21.5 52.5
v1056h-90q-14 0 -24.5 11t-10.5 24v37q0 15 10.5 26t24.5 11h90v121q0 31 21.5 52.5t52.5 21.5h260q29 0 50.5 -21.5t21.5 -52.5v-121h194q15 0 26 -11t11 -26v-37q0 -14 -11 -24.5t-26 -10.5h-194v-235q104 131 284 131z" />
    <glyph glyph-name="Itilde" unicode="&#x128;" horiz-adv-x="665" 
d="M102 1343q0 37 27.5 64t65.5 27h276q38 0 65 -27t27 -64v-1251q0 -38 -27 -65t-65 -27h-276q-38 0 -65.5 27t-27.5 65v1251zM498 1876l157 -27q23 -4 35.5 -22.5t9.5 -40.5q-37 -234 -198 -234q-46 0 -93.5 16t-83.5 32t-55 16q-32 0 -47 -27q-17 -34 -57 -28l-158 28
q-22 3 -34.5 22t-8.5 42q36 231 219 231q52 0 118 -30.5t93 -30.5q33 0 47 24q8 15 23.5 23.5t32.5 5.5z" />
    <glyph glyph-name="itilde" unicode="&#x129;" horiz-adv-x="589" 
d="M166 0q-31 0 -52.5 21.5t-21.5 52.5v891q0 31 21.5 52t52.5 21h260q30 0 51 -21t21 -52v-891q0 -31 -21.5 -52.5t-50.5 -21.5h-260zM461 1466l157 -26q23 -4 36 -23t10 -41q-37 -233 -199 -233q-46 0 -93.5 15.5t-83.5 31.5t-55 16q-32 0 -47 -26q-18 -35 -57 -29
l-158 29q-22 3 -34.5 21.5t-8.5 41.5q36 232 219 232q52 0 118 -31t93 -31q34 0 48 25q8 15 23 23t32 5z" />
    <glyph glyph-name="Imacron" unicode="&#x12a;" horiz-adv-x="665" 
d="M102 1343q0 37 27.5 64t65.5 27h276q38 0 65 -27t27 -64v-1251q0 -38 -27 -65t-65 -27h-276q-38 0 -65.5 27t-27.5 65v1251zM-2 1810q0 29 21.5 50.5t52.5 21.5h524q29 0 50.5 -21.5t21.5 -50.5v-145q0 -31 -21.5 -52.5t-50.5 -21.5h-524q-31 0 -52.5 21.5t-21.5 52.5
v145z" />
    <glyph glyph-name="imacron" unicode="&#x12b;" horiz-adv-x="589" 
d="M166 0q-31 0 -52.5 21.5t-21.5 52.5v891q0 31 21.5 52t52.5 21h260q30 0 51 -21t21 -52v-891q0 -31 -21.5 -52.5t-50.5 -21.5h-260zM-39 1401q0 29 21.5 50.5t52.5 21.5h524q29 0 50.5 -21.5t21.5 -50.5v-146q0 -31 -21.5 -52t-50.5 -21h-524q-31 0 -52.5 21t-21.5 52
v146z" />
    <glyph glyph-name="Ibreve" unicode="&#x12c;" horiz-adv-x="665" 
d="M102 1343q0 37 27.5 64t65.5 27h276q38 0 65 -27t27 -64v-1251q0 -38 -27 -65t-65 -27h-276q-38 0 -65.5 27t-27.5 65v1251zM465 1890h147q35 0 57 -26t15 -60q-27 -121 -123 -188.5t-229 -67.5q-132 0 -228.5 68t-123.5 188q-7 33 15 59.5t56 26.5h148q38 0 51 -37
q21 -51 82 -51t82 51q13 37 51 37z" />
    <glyph glyph-name="ibreve" unicode="&#x12d;" horiz-adv-x="589" 
d="M166 0q-31 0 -52.5 21.5t-21.5 52.5v891q0 31 21.5 52t52.5 21h260q30 0 51 -21t21 -52v-891q0 -31 -21.5 -52.5t-50.5 -21.5h-260zM428 1481h147q35 0 57 -26t15 -60q-27 -121 -123 -188.5t-229 -67.5q-132 0 -228.5 68t-123.5 188q-7 33 15 59.5t56 26.5h148
q38 0 51 -37q21 -51 82 -51t82 51q13 37 51 37z" />
    <glyph glyph-name="Iogonek" unicode="&#x12e;" horiz-adv-x="665" 
d="M563 43q0 -43 -35 -61q-54 -34 -91.5 -80t-37.5 -97q0 -42 25 -61.5t61 -19.5h19q25 1 42 -15t17 -41v-112q0 -42 -37 -52q-68 -22 -155 -22q-136 0 -207.5 54.5t-71.5 160.5q0 53 19 103.5t49.5 88.5t61.5 65t63 46h-90q-38 0 -65.5 27t-27.5 65v1251q0 37 27.5 64
t65.5 27h278q37 0 63.5 -27t26.5 -64v-1300z" />
    <glyph glyph-name="iogonek" unicode="&#x12f;" horiz-adv-x="589" 
d="M162 0q-31 0 -52.5 21.5t-21.5 52.5v891q0 31 21.5 52t52.5 21h258q31 0 52.5 -21t21.5 -52v-922q0 -43 -35 -61q-55 -34 -93 -80t-38 -97q0 -42 26 -61.5t62 -19.5h18q25 2 42.5 -14.5t17.5 -41.5v-112q0 -42 -37 -52q-71 -22 -156 -22q-136 0 -207 54t-71 161
q0 53 19 103.5t49.5 88.5t61 65t62.5 46h-53zM291 1118q-88 0 -149.5 61.5t-61.5 149.5t61.5 149.5t149.5 61.5t149.5 -61.5t61.5 -149.5t-61.5 -149.5t-149.5 -61.5z" />
    <glyph glyph-name="Idotaccent" unicode="&#x130;" horiz-adv-x="665" 
d="M102 1343q0 37 27.5 64t65.5 27h276q38 0 65 -27t27 -64v-1251q0 -38 -27 -65t-65 -27h-276q-38 0 -65.5 27t-27.5 65v1251zM332 1933q82 0 139 -57t57 -139t-57 -139.5t-139 -57.5t-139.5 57.5t-57.5 139.5t57.5 139t139.5 57z" />
    <glyph glyph-name="dotlessi" unicode="&#x131;" horiz-adv-x="589" 
d="M166 0q-31 0 -52.5 21.5t-21.5 52.5v891q0 31 21.5 52t52.5 21h260q30 0 51 -21t21 -52v-891q0 -31 -21.5 -52.5t-50.5 -21.5h-260z" />
    <glyph glyph-name="IJ" unicode="&#x132;" horiz-adv-x="1898" 
d="M102 1343q0 37 27.5 64t65.5 27h276q38 0 65 -27t27 -64v-1251q0 -38 -27 -65t-65 -27h-276q-38 0 -65.5 27t-27.5 65v1251zM1425 1434h279q38 0 65 -27t27 -64v-765q0 -309 -144 -456t-429 -147q-231 0 -387 121t-187 310q-4 29 13.5 53t46.5 30l315 58q20 4 37.5 -6.5
t23.5 -30.5q30 -88 123 -88q127 0 127 156v765q0 37 26.5 64t63.5 27z" />
    <glyph glyph-name="ij" unicode="&#x133;" horiz-adv-x="1208" 
d="M166 0q-31 0 -52.5 21.5t-21.5 52.5v891q0 31 21.5 52t52.5 21h260q30 0 51 -21t21 -52v-891q0 -31 -21.5 -52.5t-50.5 -21.5h-260zM295 1118q-88 0 -149.5 61.5t-61.5 149.5t61.5 149.5t149.5 61.5t149.5 -61.5t61.5 -149.5t-61.5 -149.5t-149.5 -61.5zM1042 1038
q31 0 52.5 -21t21.5 -52v-928q0 -84 -22 -156t-67 -131t-124.5 -93t-185.5 -34q-70 0 -117 8q-26 3 -43.5 23.5t-17.5 48.5v250q0 22 14.5 36.5t36.5 14.5q17 0 30 1.5t31.5 8.5t30.5 19t20.5 36.5t8.5 57.5v838q0 31 21 52t50 21h260zM913 1118q-88 0 -149.5 61.5
t-61.5 149.5t61.5 149.5t149.5 61.5t149.5 -61.5t61.5 -149.5t-61.5 -149.5t-149.5 -61.5z" />
    <glyph glyph-name="Jcircumflex" unicode="&#x134;" horiz-adv-x="1263" 
d="M791 1434h278q38 0 65 -27t27 -64v-765q0 -309 -144 -456t-429 -147q-231 0 -387 121t-187 310q-4 29 13.5 53t46.5 30l315 58q20 5 38 -6t24 -31q30 -88 122 -88q127 0 127 156v765q0 37 27 64t64 27zM1286 1663q22 -26 6.5 -57t-49.5 -31h-182q-48 0 -74 37l-65 90
l-66 -90q-26 -37 -74 -37h-182q-34 0 -49.5 31t6.5 57l158 201q24 34 71 34h271q47 0 71 -34z" />
    <glyph glyph-name="jcircumflex" unicode="&#x135;" horiz-adv-x="589" 
d="M424 1038q31 0 52.5 -21t21.5 -52v-928q0 -84 -22 -156t-67.5 -131t-125 -93t-185.5 -34q-69 0 -116 8q-26 3 -44 23.5t-18 48.5v250q0 22 14.5 36.5t36.5 14.5q17 0 30 1.5t31.5 8.5t30.5 19t20.5 36.5t8.5 57.5v838q0 31 21 52t51 21h260zM655 1253q22 -26 6.5 -57
t-49.5 -31h-182q-48 0 -74 37l-65 90l-66 -90q-26 -37 -73 -37h-183q-34 0 -49.5 31t6.5 57l158 201q24 35 72 35h270q48 0 72 -35z" />
    <glyph glyph-name="Kcommaaccent" unicode="&#x136;" horiz-adv-x="1425" 
d="M1374 84q17 -28 1 -56t-48 -28h-366q-53 0 -80 45l-318 555v-508q0 -38 -27 -65t-65 -27h-276q-38 0 -65.5 27t-27.5 65v1251q0 37 27.5 64t65.5 27h276q38 0 65 -27t27 -64v-503l303 546q26 48 80 48h350q31 0 46.5 -28t-1.5 -54l-368 -619zM549 -195q20 48 69 48h203
q31 0 47 -27t2 -55l-112 -203q-19 -39 -64 -39h-168q-29 0 -45 23t-6 51z" />
    <glyph glyph-name="kcommaaccent" unicode="&#x137;" horiz-adv-x="1181" 
d="M1133 82q17 -26 1 -54t-47 -28h-313q-25 0 -47.5 13t-32.5 36l-196 373v-348q0 -31 -21.5 -52.5t-52.5 -21.5h-260q-29 0 -50.5 21.5t-21.5 52.5v1286q0 31 21.5 52.5t50.5 21.5h260q31 0 52.5 -21.5t21.5 -52.5v-703l186 334q26 47 80 47h293q32 0 48 -28t-1 -56
l-248 -401zM442 -195q20 48 70 48h203q31 0 47 -27t2 -55l-113 -203q-19 -39 -63 -39h-168q-29 0 -45 23t-6 51z" />
    <glyph glyph-name="kgreenlandic" unicode="&#x138;" horiz-adv-x="1181" 
d="M1133 82q17 -26 1 -54t-47 -28h-313q-25 0 -47.5 13t-32.5 36l-196 373v-348q0 -31 -21.5 -52.5t-52.5 -21.5h-260q-29 0 -50.5 21.5t-21.5 52.5v891q0 31 21 52t51 21h260q31 0 52.5 -21t21.5 -52v-308l186 334q26 47 80 47h293q32 0 48 -28t-1 -56l-248 -401z" />
    <glyph glyph-name="Lacute" unicode="&#x139;" horiz-adv-x="1138" 
d="M563 422h445q38 0 64 -26.5t26 -63.5v-240q0 -38 -26 -65t-64 -27h-813q-37 0 -64 27t-27 65v1251q0 37 27 64t64 27h278q38 0 64 -27t26 -64v-921zM307 1845q10 24 32.5 38.5t49.5 14.5h240q34 0 49 -29t-4 -57l-137 -198q-25 -39 -76 -39h-195q-31 0 -47 26t-2 52z" />
    <glyph glyph-name="lacute" unicode="&#x13a;" horiz-adv-x="589" 
d="M92 1360q0 31 21.5 52.5t50.5 21.5h260q31 0 52.5 -21.5t21.5 -52.5v-1286q0 -31 -21.5 -52.5t-52.5 -21.5h-260q-29 0 -50.5 21.5t-21.5 52.5v1286zM279 1845q10 25 32 39t49 14h240q34 0 49 -29t-4 -57l-137 -198q-25 -39 -76 -39h-194q-31 0 -47.5 26t-2.5 52z" />
    <glyph glyph-name="Lcommaaccent" unicode="&#x13b;" horiz-adv-x="1138" 
d="M563 422h445q38 0 64 -26.5t26 -63.5v-240q0 -38 -26 -65t-64 -27h-813q-37 0 -64 27t-27 65v1251q0 37 27 64t64 27h278q38 0 64 -27t26 -64v-921zM426 -195q20 48 70 48h202q31 0 47.5 -27t2.5 -55l-113 -203q-19 -39 -64 -39h-168q-29 0 -45 23t-6 51z" />
    <glyph glyph-name="lcommaaccent" unicode="&#x13c;" horiz-adv-x="589" 
d="M92 1360q0 31 21.5 52.5t50.5 21.5h260q31 0 52.5 -21.5t21.5 -52.5v-1286q0 -31 -21.5 -52.5t-52.5 -21.5h-260q-29 0 -50.5 21.5t-21.5 52.5v1286zM96 -195q20 48 70 48h203q31 0 47 -27t2 -55l-113 -203q-19 -39 -63 -39h-168q-29 0 -45 23t-6 51z" />
    <glyph glyph-name="Lcaron" unicode="&#x13d;" horiz-adv-x="1138" 
d="M563 422h445q38 0 64 -26.5t26 -63.5v-240q0 -38 -26 -65t-64 -27h-813q-37 0 -64 27t-27 65v1251q0 37 27 64t64 27h278q38 0 64 -27t26 -64v-921zM729 1386q20 48 70 48h202q31 0 47.5 -27t2.5 -55l-113 -203q-19 -39 -64 -39h-167q-29 0 -45.5 23t-6.5 51z" />
    <glyph glyph-name="lcaron" unicode="&#x13e;" horiz-adv-x="790" 
d="M92 1360q0 31 21.5 52.5t50.5 21.5h260q31 0 52.5 -21.5t21.5 -52.5v-1286q0 -31 -21.5 -52.5t-52.5 -21.5h-260q-29 0 -50.5 21.5t-21.5 52.5v1286zM662 1386q20 48 69 48h203q31 0 47 -27t2 -55l-113 -203q-19 -39 -63 -39h-168q-29 0 -45 23t-6 51z" />
    <glyph glyph-name="Ldot" unicode="&#x13f;" horiz-adv-x="1138" 
d="M866 618q-83 0 -141.5 59t-58.5 142t58.5 142t141.5 59t142 -59t59 -142t-59 -142t-142 -59zM563 422h445q38 0 64 -26.5t26 -63.5v-240q0 -38 -26 -65t-64 -27h-813q-37 0 -64 27t-27 65v1251q0 37 27 64t64 27h278q38 0 64 -27t26 -64v-921z" />
    <glyph glyph-name="ldot" unicode="&#x140;" horiz-adv-x="1001" 
d="M801 928q83 0 141.5 -59t58.5 -142t-58.5 -142t-141.5 -59t-142 59t-59 142t59 142t142 59zM92 1360q0 31 21.5 52.5t50.5 21.5h260q31 0 52.5 -21.5t21.5 -52.5v-1286q0 -31 -21.5 -52.5t-52.5 -21.5h-260q-29 0 -50.5 21.5t-21.5 52.5v1286z" />
    <glyph glyph-name="Lslash" unicode="&#x141;" horiz-adv-x="1202" 
d="M625 422h444q37 0 63.5 -26.5t26.5 -63.5v-240q0 -38 -26.5 -65t-63.5 -27h-813q-38 0 -64 27t-26 65v443l-103 -58q-12 -8 -27 -3t-22 18l-18 30q-7 14 -2.5 28.5t16.5 20.5l156 88v684q0 37 26 64t64 27h279q37 0 63.5 -27t26.5 -64v-425l151 83q14 7 27.5 3.5
t21.5 -15.5l19 -33q8 -12 3 -27t-18 -22l-204 -114v-371z" />
    <glyph glyph-name="lslash" unicode="&#x142;" horiz-adv-x="743" 
d="M723 909q9 -12 5.5 -26.5t-17.5 -22.5l-138 -84v-702q0 -31 -21 -52.5t-52 -21.5h-258q-31 0 -52.5 21.5t-21.5 52.5v456l-82 -49q-12 -7 -26.5 -3t-22.5 16l-19 30q-9 14 -5 28.5t18 22.5l137 84v701q0 31 21.5 52.5t52.5 21.5h258q31 0 52 -21.5t21 -52.5v-455l82 49
q12 7 27 3.5t23 -15.5z" />
    <glyph glyph-name="Nacute" unicode="&#x143;" horiz-adv-x="1531" 
d="M969 1343q0 37 26 64t64 27h278q38 0 65.5 -27t27.5 -64v-1251q0 -38 -27.5 -65t-65.5 -27h-264q-59 0 -92 51l-418 674v-633q0 -38 -27 -65t-65 -27h-278q-38 0 -64.5 27t-26.5 65v1251q0 37 26.5 64t64.5 27h264q60 0 92 -52l420 -673v634zM698 1845q10 24 32.5 38.5
t49.5 14.5h240q34 0 49 -29t-4 -57l-137 -198q-25 -39 -76 -39h-195q-31 0 -47 26t-2 52z" />
    <glyph glyph-name="nacute" unicode="&#x144;" horiz-adv-x="1255" 
d="M782 1063q89 0 158.5 -29t110.5 -72.5t67 -101.5t35.5 -109t9.5 -102v-575q0 -31 -21 -52.5t-52 -21.5h-261q-29 0 -50 21.5t-21 52.5v448q0 65 -32 104.5t-97 39.5q-66 0 -98.5 -39.5t-32.5 -104.5v-448q0 -31 -21.5 -52.5t-50.5 -21.5h-260q-31 0 -52.5 21.5
t-21.5 52.5v891q0 31 21.5 52t52.5 21h278q22 0 38 -16t16 -39v-51q104 131 284 131zM498 1436q10 24 32.5 38.5t49.5 14.5h239q34 0 49 -29t-4 -57l-137 -199q-25 -39 -76 -39h-194q-31 0 -47 26t-2 52z" />
    <glyph glyph-name="Ncommaaccent" unicode="&#x145;" horiz-adv-x="1531" 
d="M969 1343q0 37 26 64t64 27h278q38 0 65.5 -27t27.5 -64v-1251q0 -38 -27.5 -65t-65.5 -27h-264q-59 0 -92 51l-418 674v-633q0 -38 -27 -65t-65 -27h-278q-38 0 -64.5 27t-26.5 65v1251q0 37 26.5 64t64.5 27h264q60 0 92 -52l420 -673v634zM612 -195q20 48 70 48h203
q31 0 47 -27t2 -55l-113 -203q-19 -39 -63 -39h-168q-29 0 -45 23t-6 51z" />
    <glyph glyph-name="ncommaaccent" unicode="&#x146;" horiz-adv-x="1255" 
d="M782 1063q89 0 158.5 -29t110.5 -72.5t67 -101.5t35.5 -109t9.5 -102v-575q0 -31 -21 -52.5t-52 -21.5h-261q-29 0 -50 21.5t-21 52.5v448q0 65 -32 104.5t-97 39.5q-66 0 -98.5 -39.5t-32.5 -104.5v-448q0 -31 -21.5 -52.5t-50.5 -21.5h-260q-31 0 -52.5 21.5
t-21.5 52.5v891q0 31 21.5 52t52.5 21h278q22 0 38 -16t16 -39v-51q104 131 284 131zM455 -195q20 48 69 48h203q31 0 47 -27t2 -55l-112 -203q-19 -39 -64 -39h-168q-29 0 -45 23t-6 51z" />
    <glyph glyph-name="Ncaron" unicode="&#x147;" horiz-adv-x="1531" 
d="M969 1343q0 37 26 64t64 27h278q38 0 65.5 -27t27.5 -64v-1251q0 -38 -27.5 -65t-65.5 -27h-264q-59 0 -92 51l-418 674v-633q0 -38 -27 -65t-65 -27h-278q-38 0 -64.5 27t-26.5 65v1251q0 37 26.5 64t64.5 27h264q60 0 92 -52l420 -673v634zM831 1862q25 36 74 36h182
q34 0 49.5 -31t-6.5 -57l-157 -200q-24 -35 -72 -35h-270q-48 0 -72 35l-158 200q-22 26 -6.5 57t49.5 31h183q48 0 73 -36l66 -90z" />
    <glyph glyph-name="ncaron" unicode="&#x148;" horiz-adv-x="1255" 
d="M782 1063q89 0 158.5 -29t110.5 -72.5t67 -101.5t35.5 -109t9.5 -102v-575q0 -31 -21 -52.5t-52 -21.5h-261q-29 0 -50 21.5t-21 52.5v448q0 65 -32 104.5t-97 39.5q-66 0 -98.5 -39.5t-32.5 -104.5v-448q0 -31 -21.5 -52.5t-50.5 -21.5h-260q-31 0 -52.5 21.5
t-21.5 52.5v891q0 31 21.5 52t52.5 21h278q22 0 38 -16t16 -39v-51q104 131 284 131zM651 1452q26 37 74 37h182q34 0 49.5 -31t-6.5 -57l-157 -201q-24 -35 -72 -35h-270q-48 0 -72 35l-158 201q-22 26 -6.5 57t49.5 31h182q48 0 74 -37l66 -90z" />
    <glyph glyph-name="napostrophe" unicode="&#x149;" horiz-adv-x="1316" 
d="M846 1063q89 0 158.5 -29t110.5 -72.5t67 -101.5t35.5 -109t9.5 -102v-575q0 -31 -21.5 -52.5t-52.5 -21.5h-260q-29 0 -50.5 21.5t-21.5 52.5v448q0 65 -32 104.5t-97 39.5q-66 0 -97.5 -39t-31.5 -105v-448q0 -31 -21.5 -52.5t-52.5 -21.5h-260q-31 0 -52 21.5
t-21 52.5v891q0 31 21 52t52 21h279q23 0 39 -16t16 -39v-51q101 131 283 131zM326 1434q31 0 46.5 -27t0.5 -53l-111 -205q-19 -39 -63 -39h-170q-28 0 -44.5 24t-7.5 50l76 202q7 22 26 35t42 13h205z" />
    <glyph glyph-name="Eng" unicode="&#x14a;" horiz-adv-x="1531" 
d="M1339 1434q37 0 64 -27.5t27 -65.5v-1359q0 -86 -12.5 -154.5t-43 -128.5t-79.5 -100t-125.5 -63t-176.5 -23q-47 0 -133 8q-28 5 -45.5 25t-17.5 48v248q0 22 14.5 37t36.5 15q23 0 39 3t37.5 14t33 38t11.5 69v48l-408 659v-633q0 -38 -26.5 -65t-63.5 -27h-276
q-38 0 -65.5 27t-27.5 65v1249q0 38 27.5 65.5t65.5 27.5h262q60 0 94 -52l418 -673v632q0 38 27 65.5t65 27.5h278z" />
    <glyph glyph-name="eng" unicode="&#x14b;" horiz-adv-x="1253" 
d="M780 1063q89 0 158.5 -29t110.5 -72.5t67 -101.5t35.5 -109t9.5 -102v-667q0 -84 -22 -156t-67 -131t-124 -93t-184 -34q-72 0 -119 8q-26 4 -43.5 25t-17.5 47v250q0 21 15 36t36 15q17 0 30 1.5t31.5 8.5t30.5 19.5t20.5 37t8.5 58.5v448q0 65 -32 104.5t-97 39.5
q-66 0 -97.5 -39t-31.5 -105v-448q0 -31 -21.5 -52.5t-52.5 -21.5h-260q-31 0 -51.5 21.5t-20.5 52.5v891q0 31 20.5 52t51.5 21h278q23 0 39.5 -16t16.5 -39v-51q101 131 282 131z" />
    <glyph glyph-name="Omacron" unicode="&#x14c;" horiz-adv-x="1613" 
d="M807 1458q159 0 299 -57t240.5 -155t158.5 -235.5t58 -293.5q0 -157 -58 -295t-158.5 -236.5t-240.5 -155.5t-299 -57t-299 57t-240.5 155.5t-158.5 236.5t-58 295q0 156 58 293.5t158.5 235.5t240.5 155t299 57zM807 422q128 0 211.5 82.5t83.5 212.5q0 129 -83.5 212
t-211.5 83t-211.5 -83t-83.5 -212q0 -130 83.5 -212.5t211.5 -82.5zM473 1810q0 29 21.5 50.5t52.5 21.5h524q29 0 50.5 -21.5t21.5 -50.5v-145q0 -31 -21.5 -52.5t-50.5 -21.5h-524q-31 0 -52.5 21.5t-21.5 52.5v145z" />
    <glyph glyph-name="omacron" unicode="&#x14d;" horiz-adv-x="1226" 
d="M612 1063q247 0 410.5 -152.5t163.5 -392.5q0 -158 -75.5 -283t-206 -193.5t-292.5 -68.5q-245 0 -408 153t-163 392q0 240 162.5 392.5t408.5 152.5zM612 350q76 0 122 47t46 121t-46 121t-122 47q-74 0 -120 -47t-46 -121t46 -121t120 -47zM279 1401q0 29 21.5 50.5
t51.5 21.5h525q29 0 50 -21.5t21 -50.5v-146q0 -31 -21 -52t-50 -21h-525q-31 0 -52 21t-21 52v146z" />
    <glyph glyph-name="Obreve" unicode="&#x14e;" horiz-adv-x="1613" 
d="M807 1458q159 0 299 -57t240.5 -155t158.5 -235.5t58 -293.5q0 -157 -58 -295t-158.5 -236.5t-240.5 -155.5t-299 -57t-299 57t-240.5 155.5t-158.5 236.5t-58 295q0 156 58 293.5t158.5 235.5t240.5 155t299 57zM807 422q128 0 211.5 82.5t83.5 212.5q0 129 -83.5 212
t-211.5 83t-211.5 -83t-83.5 -212q0 -130 83.5 -212.5t211.5 -82.5zM940 1890h147q35 0 57 -26t15 -60q-27 -121 -123 -188.5t-229 -67.5q-132 0 -228.5 68t-123.5 188q-7 33 15 59.5t56 26.5h148q38 0 51 -37q21 -51 82 -51t82 51q13 37 51 37z" />
    <glyph glyph-name="obreve" unicode="&#x14f;" horiz-adv-x="1226" 
d="M612 1063q247 0 410.5 -152.5t163.5 -392.5q0 -158 -75.5 -283t-206 -193.5t-292.5 -68.5q-245 0 -408 153t-163 392q0 240 162.5 392.5t408.5 152.5zM612 350q76 0 122 47t46 121t-46 121t-122 47q-74 0 -120 -47t-46 -121t46 -121t120 -47zM745 1481h148q35 0 57 -26
t15 -60q-27 -121 -123.5 -188.5t-229.5 -67.5q-132 0 -228.5 68t-123.5 188q-7 33 15.5 59.5t56.5 26.5h147q38 0 51 -37q21 -51 82 -51t82 51q13 37 51 37z" />
    <glyph glyph-name="Ohungarumlaut" unicode="&#x150;" horiz-adv-x="1613" 
d="M807 1458q159 0 299 -57t240.5 -155t158.5 -235.5t58 -293.5q0 -157 -58 -295t-158.5 -236.5t-240.5 -155.5t-299 -57t-299 57t-240.5 155.5t-158.5 236.5t-58 295q0 156 58 293.5t158.5 235.5t240.5 155t299 57zM807 422q128 0 211.5 82.5t83.5 212.5q0 129 -83.5 212
t-211.5 83t-211.5 -83t-83.5 -212q0 -130 83.5 -212.5t211.5 -82.5zM520 1845q10 25 33 39t51 14h240q32 0 48 -29t-3 -57l-137 -198q-28 -39 -76 -39h-197q-29 0 -45 26t-4 52zM993 1845q10 24 32.5 38.5t49.5 14.5h242q32 0 48 -29t-3 -57l-137 -198q-28 -39 -76 -39h-197
q-29 0 -45 26t-4 52z" />
    <glyph glyph-name="ohungarumlaut" unicode="&#x151;" horiz-adv-x="1226" 
d="M612 1063q247 0 410.5 -152.5t163.5 -392.5q0 -158 -75.5 -283t-206 -193.5t-292.5 -68.5q-245 0 -408 153t-163 392q0 240 162.5 392.5t408.5 152.5zM612 350q76 0 122 47t46 121t-46 121t-122 47q-74 0 -120 -47t-46 -121t46 -121t120 -47zM328 1436q10 25 33 39t51 14
h239q32 0 48 -29t-3 -57l-137 -199q-28 -39 -76 -39h-196q-29 0 -45 26t-4 52zM801 1436q10 24 32.5 38.5t49.5 14.5h241q32 0 48 -29t-3 -57l-137 -199q-28 -39 -76 -39h-196q-29 0 -45 26t-4 52z" />
    <glyph glyph-name="OE" unicode="&#x152;" horiz-adv-x="2015" 
d="M1403 385h459q38 0 65 -26.5t27 -63.5v-203q0 -38 -27 -65t-65 -27h-1031q-357 0 -569.5 195.5t-212.5 521.5q0 327 212.5 522t569.5 195h1012q37 0 63.5 -27t26.5 -64v-204q0 -37 -26.5 -63.5t-63.5 -26.5h-440v-160h375q38 0 65 -26.5t27 -63.5v-150q0 -38 -27 -65
t-65 -27h-375v-172zM831 422h111v590h-111q-154 0 -237.5 -81t-83.5 -214t83.5 -214t237.5 -81z" />
    <glyph glyph-name="oe" unicode="&#x153;" horiz-adv-x="2000" 
d="M1403 1063q93 0 175.5 -22t153 -68t121.5 -112.5t79 -161t26 -207.5q-2 -31 -23 -52.5t-51 -21.5h-635q46 -139 207 -139q99 0 168 57q12 12 30.5 13.5t33.5 -7.5l176 -104q22 -14 26.5 -38.5t-12.5 -43.5q-71 -80 -180.5 -130.5t-241.5 -50.5q-289 0 -446 170
q-137 -170 -396 -170q-162 0 -292.5 68t-205.5 192.5t-75 282.5q0 159 75 284t205.5 193t292.5 68q253 0 392 -168q149 168 397 168zM614 352q74 0 120 46.5t46 119.5q0 74 -46 121t-120 47q-76 0 -122 -47t-46 -121q0 -73 46 -119.5t122 -46.5zM1247 618h332
q-32 142 -168 142q-63 0 -104.5 -37.5t-59.5 -104.5z" />
    <glyph glyph-name="Racute" unicode="&#x154;" horiz-adv-x="1415" 
d="M973 0q-26 0 -49 14t-33 37l-199 393h-129v-352q0 -38 -26.5 -65t-63.5 -27h-278q-38 0 -65.5 27t-27.5 65v1251q0 37 27.5 64t65.5 27h514q297 0 451.5 -132t154.5 -382q0 -262 -203 -385l258 -453q15 -28 -0.5 -55t-46.5 -27h-350zM563 1030v-219h146q141 0 141 109
q0 57 -34.5 83.5t-106.5 26.5h-146zM608 1845q10 24 32.5 38.5t49.5 14.5h240q34 0 49 -29t-4 -57l-137 -198q-25 -39 -76 -39h-195q-31 0 -47 26t-2 52z" />
    <glyph glyph-name="racute" unicode="&#x155;" horiz-adv-x="849" 
d="M498 877q43 70 107 117.5t136 62.5q27 5 47.5 -11t20.5 -42v-310q0 -24 -18.5 -40t-42.5 -13q-51 4 -91 -3t-66 -20t-44.5 -37t-27.5 -44.5t-14 -54t-6 -54.5t-1 -55v-299q0 -31 -21.5 -52.5t-50.5 -21.5h-260q-31 0 -52.5 21.5t-21.5 52.5v891q0 31 21.5 52t52.5 21h260
q30 0 51 -21t21 -52v-88zM383 1436q10 24 32.5 38.5t49.5 14.5h240q34 0 49 -29t-4 -57l-138 -199q-25 -39 -75 -39h-195q-31 0 -47 26t-2 52z" />
    <glyph glyph-name="Rcommaaccent" unicode="&#x156;" horiz-adv-x="1415" 
d="M973 0q-26 0 -49 14t-33 37l-199 393h-129v-352q0 -38 -26.5 -65t-63.5 -27h-278q-38 0 -65.5 27t-27.5 65v1251q0 37 27.5 64t65.5 27h514q297 0 451.5 -132t154.5 -382q0 -262 -203 -385l258 -453q15 -28 -0.5 -55t-46.5 -27h-350zM563 1030v-219h146q141 0 141 109
q0 57 -34.5 83.5t-106.5 26.5h-146zM545 -195q20 48 69 48h203q31 0 47 -27t2 -55l-112 -203q-19 -39 -64 -39h-168q-29 0 -45 23t-6 51z" />
    <glyph glyph-name="rcommaaccent" unicode="&#x157;" horiz-adv-x="849" 
d="M498 877q43 70 107 117.5t136 62.5q27 5 47.5 -11t20.5 -42v-310q0 -24 -18.5 -40t-42.5 -13q-51 4 -91 -3t-66 -20t-44.5 -37t-27.5 -44.5t-14 -54t-6 -54.5t-1 -55v-299q0 -31 -21.5 -52.5t-50.5 -21.5h-260q-31 0 -52.5 21.5t-21.5 52.5v891q0 31 21.5 52t52.5 21h260
q30 0 51 -21t21 -52v-88zM92 -195q20 48 70 48h203q31 0 47 -27t2 -55l-113 -203q-19 -39 -63 -39h-168q-29 0 -45.5 23t-6.5 51z" />
    <glyph glyph-name="Rcaron" unicode="&#x158;" horiz-adv-x="1415" 
d="M973 0q-26 0 -49 14t-33 37l-199 393h-129v-352q0 -38 -26.5 -65t-63.5 -27h-278q-38 0 -65.5 27t-27.5 65v1251q0 37 27.5 64t65.5 27h514q297 0 451.5 -132t154.5 -382q0 -262 -203 -385l258 -453q15 -28 -0.5 -55t-46.5 -27h-350zM563 1030v-219h146q141 0 141 109
q0 57 -34.5 83.5t-106.5 26.5h-146zM782 1862q25 36 74 36h182q34 0 49.5 -31t-6.5 -57l-157 -200q-24 -35 -72 -35h-270q-48 0 -72 35l-158 200q-22 26 -6.5 57t49.5 31h183q48 0 73 -36l66 -90z" />
    <glyph glyph-name="rcaron" unicode="&#x159;" horiz-adv-x="849" 
d="M498 877q43 70 107 117.5t136 62.5q27 5 47.5 -11t20.5 -42v-310q0 -24 -18.5 -40t-42.5 -13q-51 4 -91 -3t-66 -20t-44.5 -37t-27.5 -44.5t-14 -54t-6 -54.5t-1 -55v-299q0 -31 -21.5 -52.5t-50.5 -21.5h-260q-31 0 -52.5 21.5t-21.5 52.5v891q0 31 21.5 52t52.5 21h260
q30 0 51 -21t21 -52v-88zM516 1452q26 37 74 37h182q34 0 49.5 -31t-6.5 -57l-158 -201q-24 -35 -71 -35h-271q-47 0 -71 35l-158 201q-22 26 -6.5 57t49.5 31h182q48 0 74 -37l66 -90z" />
    <glyph glyph-name="Sacute" unicode="&#x15a;" horiz-adv-x="1232" 
d="M723 897q270 -74 378.5 -168.5t108.5 -271.5q0 -98 -36 -183.5t-105 -153t-181.5 -106.5t-254.5 -39q-96 0 -183.5 16.5t-168.5 51t-143 95.5t-95 143q-12 31 1 59t44 39l250 76q23 7 45.5 -1t36.5 -28q25 -36 77 -58t113 -22t101.5 23.5t40.5 62.5q0 15 -5 26.5t-17 21
t-24 15.5t-35.5 12.5t-42 10.5t-52.5 11.5t-58 13.5q-60 15 -107.5 29.5t-96 35.5t-84.5 45.5t-68 58.5t-52.5 74t-32 92.5t-11.5 114.5q0 138 74.5 245t202.5 164.5t286 57.5q174 0 311.5 -77t194.5 -220q12 -32 -3 -61t-47 -37l-249 -61q-50 -11 -74 26q-44 57 -131 57
q-60 0 -92.5 -22.5t-32.5 -60.5q0 -16 9 -29.5t22 -21.5t36.5 -16.5t43 -13t52.5 -12.5t54 -14zM569 1845q10 24 32.5 38.5t49.5 14.5h240q34 0 49 -29t-4 -57l-137 -198q-25 -39 -76 -39h-195q-31 0 -47 26t-2 52z" />
    <glyph glyph-name="sacute" unicode="&#x15b;" horiz-adv-x="1013" 
d="M573 655q105 -22 175.5 -46.5t126.5 -62t82 -91t26 -127.5q0 -174 -130.5 -263.5t-363.5 -89.5q-150 0 -275.5 43t-178.5 138q-12 22 -3 46t34 31l253 78q15 5 32 0.5t26 -16.5q34 -43 104 -43q45 0 71 16.5t26 44.5q0 15 -8.5 26t-30.5 19t-38.5 12t-55 11.5t-58.5 11.5
q-67 14 -115.5 29.5t-94.5 41t-74 59t-45 83t-17 113.5q0 111 65 190t171 116.5t241 37.5q126 0 237.5 -50t162.5 -145q13 -23 2 -47.5t-37 -32.5l-217 -51q-15 -5 -31 0t-25 17q-30 37 -88 37q-42 0 -67 -17t-25 -45q0 -30 27 -43t92 -26q16 -3 24 -5zM434 1436
q10 24 32.5 38.5t49.5 14.5h240q34 0 49 -29t-4 -57l-137 -199q-25 -39 -76 -39h-195q-31 0 -47 26t-2 52z" />
    <glyph glyph-name="Scircumflex" unicode="&#x15c;" horiz-adv-x="1232" 
d="M723 897q270 -74 378.5 -168.5t108.5 -271.5q0 -98 -36 -183.5t-105 -153t-181.5 -106.5t-254.5 -39q-96 0 -183.5 16.5t-168.5 51t-143 95.5t-95 143q-12 31 1 59t44 39l250 76q23 7 45.5 -1t36.5 -28q25 -36 77 -58t113 -22t101.5 23.5t40.5 62.5q0 15 -5 26.5t-17 21
t-24 15.5t-35.5 12.5t-42 10.5t-52.5 11.5t-58 13.5q-60 15 -107.5 29.5t-96 35.5t-84.5 45.5t-68 58.5t-52.5 74t-32 92.5t-11.5 114.5q0 138 74.5 245t202.5 164.5t286 57.5q174 0 311.5 -77t194.5 -220q12 -32 -3 -61t-47 -37l-249 -61q-50 -11 -74 26q-44 57 -131 57
q-60 0 -92.5 -22.5t-32.5 -60.5q0 -16 9 -29.5t22 -21.5t36.5 -16.5t43 -13t52.5 -12.5t54 -14zM981 1663q22 -26 6.5 -57t-49.5 -31h-182q-48 0 -74 37l-66 90l-65 -90q-26 -37 -74 -37h-182q-34 0 -49.5 31t6.5 57l158 201q24 34 71 34h271q47 0 71 -34z" />
    <glyph glyph-name="scircumflex" unicode="&#x15d;" horiz-adv-x="1013" 
d="M573 655q105 -22 175.5 -46.5t126.5 -62t82 -91t26 -127.5q0 -174 -130.5 -263.5t-363.5 -89.5q-150 0 -275.5 43t-178.5 138q-12 22 -3 46t34 31l253 78q15 5 32 0.5t26 -16.5q34 -43 104 -43q45 0 71 16.5t26 44.5q0 15 -8.5 26t-30.5 19t-38.5 12t-55 11.5t-58.5 11.5
q-67 14 -115.5 29.5t-94.5 41t-74 59t-45 83t-17 113.5q0 111 65 190t171 116.5t241 37.5q126 0 237.5 -50t162.5 -145q13 -23 2 -47.5t-37 -32.5l-217 -51q-15 -5 -31 0t-25 17q-30 37 -88 37q-42 0 -67 -17t-25 -45q0 -30 27 -43t92 -26q16 -3 24 -5zM866 1253
q22 -26 6.5 -57t-49.5 -31h-182q-48 0 -74 37l-65 90l-66 -90q-26 -37 -74 -37h-182q-34 0 -49.5 31t6.5 57l158 201q24 35 72 35h270q48 0 72 -35z" />
    <glyph glyph-name="Scedilla" unicode="&#x15e;" horiz-adv-x="1232" 
d="M1212 457q0 -74 -20 -141.5t-62.5 -127t-103 -104.5t-145.5 -73t-187 -34l-28 -57q45 -2 86 -14.5t77.5 -37.5t58 -68t21.5 -99q0 -83 -43 -139t-105.5 -78.5t-139.5 -22.5q-120 0 -226 54q-20 11 -27 33t5 42l51 88q9 17 29 24t39 -1q32 -16 69 -16q60 0 60 47
q0 22 -14.5 32.5t-35.5 10.5q-8 0 -28 -4q-22 -3 -39 14l-27 35q-25 36 -6 76l41 86q-166 19 -290.5 92t-178.5 207q-12 30 2 58.5t45 39.5l248 76q23 7 45.5 -1t36.5 -28q27 -36 79 -58t113 -22t100.5 23.5t39.5 62.5q0 15 -5 26.5t-17 21t-24 15.5t-35.5 12.5t-41.5 10.5
t-51.5 11.5t-57.5 13.5q-86 21 -148.5 43t-123.5 58t-98.5 81.5t-60.5 113.5t-23 154q0 207 161.5 337t401.5 130q174 0 312.5 -77t195.5 -220q12 -32 -4 -61t-48 -37l-247 -61q-52 -11 -76 26q-44 57 -129 57q-61 0 -94 -22.5t-33 -60.5q0 -20 11 -34t35.5 -24.5t46 -16.5
t62.5 -16t64 -16q270 -74 378.5 -168.5t108.5 -271.5z" />
    <glyph glyph-name="scedilla" unicode="&#x15f;" horiz-adv-x="1013" 
d="M983 328q0 -156 -103 -243t-294 -105l-29 -60q45 -2 86.5 -14.5t78.5 -37.5t59 -68t22 -99q0 -83 -43.5 -139t-106.5 -78.5t-139 -22.5q-121 0 -227 54q-21 11 -28 33t5 42l51 88q9 17 29.5 24t40.5 -1q29 -16 68 -16q61 0 61 47q0 22 -15 32.5t-36 10.5q-9 0 -29 -4
q-22 -3 -39 14l-24 35q-28 36 -9 76l41 81q-126 12 -225 55t-143 124q-12 23 -2 46t35 31l251 78q37 10 60 -16q34 -43 104 -43q44 0 69.5 16.5t25.5 44.5q0 11 -4.5 20t-15 15.5t-22 11t-30.5 9t-34.5 7.5t-41 8t-43.5 9q-66 14 -114 29.5t-94 41t-74 59t-45 83t-17 113.5
q0 165 134 254.5t343 89.5q126 0 237.5 -50t162.5 -145q12 -23 0.5 -48t-37.5 -32l-215 -51q-34 -10 -58 17q-27 37 -88 37q-42 0 -67 -17t-25 -45q0 -8 2 -15t7 -12.5t9.5 -9.5t14.5 -8t16.5 -6.5t20.5 -6t21.5 -5.5t25 -5.5t26.5 -5.5q105 -22 175.5 -46.5t126.5 -62
t82 -91t26 -127.5z" />
    <glyph glyph-name="Scaron" unicode="&#x160;" horiz-adv-x="1232" 
d="M723 897q270 -74 378.5 -168.5t108.5 -271.5q0 -98 -36 -183.5t-105 -153t-181.5 -106.5t-254.5 -39q-96 0 -183.5 16.5t-168.5 51t-143 95.5t-95 143q-12 31 1 59t44 39l250 76q23 7 45.5 -1t36.5 -28q25 -36 77 -58t113 -22t101.5 23.5t40.5 62.5q0 15 -5 26.5t-17 21
t-24 15.5t-35.5 12.5t-42 10.5t-52.5 11.5t-58 13.5q-60 15 -107.5 29.5t-96 35.5t-84.5 45.5t-68 58.5t-52.5 74t-32 92.5t-11.5 114.5q0 138 74.5 245t202.5 164.5t286 57.5q174 0 311.5 -77t194.5 -220q12 -32 -3 -61t-47 -37l-249 -61q-50 -11 -74 26q-44 57 -131 57
q-60 0 -92.5 -22.5t-32.5 -60.5q0 -16 9 -29.5t22 -21.5t36.5 -16.5t43 -13t52.5 -12.5t54 -14zM682 1862q25 36 74 36h182q34 0 49.5 -31t-6.5 -57l-158 -200q-24 -35 -71 -35h-271q-47 0 -71 35l-158 200q-22 26 -6.5 57t49.5 31h182q49 0 74 -36l65 -90z" />
    <glyph glyph-name="scaron" unicode="&#x161;" horiz-adv-x="1013" 
d="M573 655q105 -22 175.5 -46.5t126.5 -62t82 -91t26 -127.5q0 -174 -130.5 -263.5t-363.5 -89.5q-150 0 -275.5 43t-178.5 138q-12 22 -3 46t34 31l253 78q15 5 32 0.5t26 -16.5q34 -43 104 -43q45 0 71 16.5t26 44.5q0 15 -8.5 26t-30.5 19t-38.5 12t-55 11.5t-58.5 11.5
q-67 14 -115.5 29.5t-94.5 41t-74 59t-45 83t-17 113.5q0 111 65 190t171 116.5t241 37.5q126 0 237.5 -50t162.5 -145q13 -23 2 -47.5t-37 -32.5l-217 -51q-15 -5 -31 0t-25 17q-30 37 -88 37q-42 0 -67 -17t-25 -45q0 -30 27 -43t92 -26q16 -3 24 -5zM567 1452
q26 37 74 37h182q34 0 49.5 -31t-6.5 -57l-157 -201q-24 -35 -72 -35h-270q-48 0 -72 35l-158 201q-22 26 -6.5 57t49.5 31h182q48 0 74 -37l66 -90z" />
    <glyph glyph-name="Tcommaaccent" unicode="&#x162;" horiz-adv-x="1212" 
d="M1077 1434q37 0 63.5 -27t26.5 -64v-239q0 -38 -26.5 -65t-63.5 -27h-243v-920q0 -38 -27.5 -65t-65.5 -27h-278q-37 0 -63.5 27t-26.5 65v920h-244q-38 0 -65 27t-27 65v239q0 37 27 64t65 27h948zM408 -195q20 48 69 48h203q31 0 47 -27t2 -55l-113 -203
q-19 -39 -63 -39h-168q-29 0 -45 23t-6 51z" />
    <glyph glyph-name="tcommaaccent" unicode="&#x163;" horiz-adv-x="899" 
d="M817 764q0 -29 -21.5 -50.5t-52.5 -21.5h-131v-221q0 -51 30.5 -83t94.5 -32q15 0 23 2q23 1 40 -15.5t17 -39.5v-260q0 -18 -13 -33t-32 -20q-52 -10 -135 -10q-100 0 -177.5 28.5t-124 73t-76.5 106.5t-41 122t-11 126v256h-74q-29 0 -50.5 21.5t-21.5 50.5v201
q0 31 21.5 52t50.5 21h74v146q0 29 21.5 50t52.5 21h258q31 0 52 -21t21 -50v-146h131q31 0 52.5 -21t21.5 -52v-201zM336 -195q20 48 70 48h202q31 0 47 -27t2 -55l-112 -203q-19 -39 -64 -39h-168q-29 0 -45 23t-6 51z" />
    <glyph glyph-name="Tcaron" unicode="&#x164;" horiz-adv-x="1212" 
d="M1077 1434q37 0 63.5 -27t26.5 -64v-239q0 -38 -26.5 -65t-63.5 -27h-243v-920q0 -38 -27.5 -65t-65.5 -27h-278q-37 0 -63.5 27t-26.5 65v920h-244q-38 0 -65 27t-27 65v239q0 37 27 64t65 27h948zM672 1862q25 36 73 36h183q34 0 49.5 -31t-6.5 -57l-158 -200
q-24 -35 -72 -35h-270q-48 0 -72 35l-157 200q-22 26 -6.5 57t49.5 31h182q49 0 74 -36l65 -90z" />
    <glyph glyph-name="tcaron" unicode="&#x165;" horiz-adv-x="899" 
d="M817 764q0 -29 -21.5 -50.5t-52.5 -21.5h-131v-221q0 -51 30.5 -83t94.5 -32q15 0 23 2q23 1 40 -15.5t17 -39.5v-260q0 -18 -13 -33t-32 -20q-52 -10 -135 -10q-100 0 -177.5 28.5t-124 73t-76.5 106.5t-41 122t-11 126v256h-74q-29 0 -50.5 21.5t-21.5 50.5v201
q0 31 21.5 52t50.5 21h74v146q0 29 21.5 50t52.5 21h258q31 0 52 -21t21 -50v-146h131q31 0 52.5 -21t21.5 -52v-201zM805 1411q19 47 69 47h203q31 0 47 -27t2 -55l-112 -202q-19 -39 -64 -39h-168q-29 0 -45 22.5t-6 50.5z" />
    <glyph glyph-name="Tbar" unicode="&#x166;" horiz-adv-x="1212" 
d="M373 754v258h-244q-38 0 -65 27t-27 65v239q0 37 27 64t65 27h948q37 0 63.5 -27t26.5 -64v-239q0 -38 -26.5 -65t-63.5 -27h-243v-258h172q15 0 25.5 -11t10.5 -26v-35q0 -15 -10.5 -26t-25.5 -11h-172v-553q0 -38 -27.5 -65t-65.5 -27h-278q-37 0 -63.5 27t-26.5 65
v553h-174q-14 0 -24.5 11t-10.5 26v35q0 15 10.5 26t24.5 11h174z" />
    <glyph glyph-name="tbar" unicode="&#x167;" horiz-adv-x="899" 
d="M817 764q0 -29 -21.5 -50.5t-52.5 -21.5h-131v-74h168q15 0 26 -10.5t11 -25.5v-37q0 -14 -11 -24.5t-26 -10.5h-168v-39q0 -51 30.5 -83t94.5 -32q15 0 23 2q23 1 40 -15.5t17 -39.5v-260q0 -18 -13 -33t-32 -20q-52 -10 -135 -10q-100 0 -177.5 28.5t-124 73
t-76.5 106.5t-41 122t-11 126v74h-111q-14 0 -24.5 11t-10.5 24v37q0 15 10.5 25.5t24.5 10.5h111v74h-74q-29 0 -50.5 21.5t-21.5 50.5v201q0 31 21.5 52t50.5 21h74v146q0 29 21.5 50t52.5 21h258q31 0 52 -21t21 -50v-146h131q31 0 52.5 -21t21.5 -52v-201z" />
    <glyph glyph-name="Utilde" unicode="&#x168;" horiz-adv-x="1511" 
d="M1040 1434h279q38 0 65 -27t27 -64v-763q0 -157 -47 -274t-134.5 -189t-205.5 -107t-268 -35q-149 0 -267 35t-205.5 107t-134.5 189.5t-47 273.5v763q0 37 27.5 64t65.5 27h278q37 0 63.5 -27t26.5 -64v-714q0 -98 50.5 -152.5t142.5 -54.5q93 0 143.5 54t50.5 153v714
q0 37 26.5 64t63.5 27zM922 1876l157 -27q23 -4 35.5 -22.5t9.5 -40.5q-37 -234 -198 -234q-46 0 -93.5 16t-83.5 32t-55 16q-32 0 -47 -27q-17 -34 -57 -28l-158 28q-22 3 -34.5 22t-8.5 42q36 231 219 231q52 0 118 -30.5t93 -30.5q33 0 47 24q8 15 23.5 23.5t32.5 5.5z
" />
    <glyph glyph-name="utilde" unicode="&#x169;" horiz-adv-x="1253" 
d="M829 1038h258q31 0 52.5 -21t21.5 -52v-891q0 -31 -21.5 -52.5t-52.5 -21.5h-276q-23 0 -39 16t-16 39v51q-104 -131 -283 -131q-90 0 -159.5 29t-110 72.5t-67 101.5t-35.5 109t-9 102v576q0 31 20.5 52t51.5 21h260q31 0 52.5 -21t21.5 -52v-449q0 -65 31.5 -104
t97.5 -39q65 0 97 39t32 104v449q0 31 21 52t52 21zM793 1466l157 -26q23 -4 35.5 -23t9.5 -41q-19 -118 -67.5 -175.5t-130.5 -57.5q-46 0 -93.5 15.5t-83.5 31.5t-55 16q-32 0 -47 -26q-18 -35 -57 -29l-158 29q-22 3 -34.5 21.5t-8.5 41.5q36 232 219 232q52 0 118 -31
t93 -31q33 0 47 25q8 15 23.5 23t32.5 5z" />
    <glyph glyph-name="Umacron" unicode="&#x16a;" horiz-adv-x="1511" 
d="M1040 1434h279q38 0 65 -27t27 -64v-763q0 -157 -47 -274t-134.5 -189t-205.5 -107t-268 -35q-149 0 -267 35t-205.5 107t-134.5 189.5t-47 273.5v763q0 37 27.5 64t65.5 27h278q37 0 63.5 -27t26.5 -64v-714q0 -98 50.5 -152.5t142.5 -54.5q93 0 143.5 54t50.5 153v714
q0 37 26.5 64t63.5 27zM422 1810q0 29 21.5 50.5t52.5 21.5h524q29 0 50.5 -21.5t21.5 -50.5v-145q0 -31 -21.5 -52.5t-50.5 -21.5h-524q-31 0 -52.5 21.5t-21.5 52.5v145z" />
    <glyph glyph-name="umacron" unicode="&#x16b;" horiz-adv-x="1253" 
d="M829 1038h258q31 0 52.5 -21t21.5 -52v-891q0 -31 -21.5 -52.5t-52.5 -21.5h-276q-23 0 -39 16t-16 39v51q-104 -131 -283 -131q-90 0 -159.5 29t-110 72.5t-67 101.5t-35.5 109t-9 102v576q0 31 20.5 52t51.5 21h260q31 0 52.5 -21t21.5 -52v-449q0 -65 31.5 -104
t97.5 -39q65 0 97 39t32 104v449q0 31 21 52t52 21zM293 1401q0 29 21.5 50.5t52.5 21.5h524q29 0 50.5 -21.5t21.5 -50.5v-146q0 -31 -21.5 -52t-50.5 -21h-524q-31 0 -52.5 21t-21.5 52v146z" />
    <glyph glyph-name="Ubreve" unicode="&#x16c;" horiz-adv-x="1511" 
d="M1040 1434h279q38 0 65 -27t27 -64v-763q0 -157 -47 -274t-134.5 -189t-205.5 -107t-268 -35q-149 0 -267 35t-205.5 107t-134.5 189.5t-47 273.5v763q0 37 27.5 64t65.5 27h278q37 0 63.5 -27t26.5 -64v-714q0 -98 50.5 -152.5t142.5 -54.5q93 0 143.5 54t50.5 153v714
q0 37 26.5 64t63.5 27zM889 1890h147q35 0 57 -26t15 -60q-27 -121 -123 -188.5t-229 -67.5q-132 0 -229 68t-124 188q-7 33 15.5 59.5t56.5 26.5h148q38 0 51 -37q21 -51 82 -51t82 51q13 37 51 37z" />
    <glyph glyph-name="ubreve" unicode="&#x16d;" horiz-adv-x="1253" 
d="M829 1038h258q31 0 52.5 -21t21.5 -52v-891q0 -31 -21.5 -52.5t-52.5 -21.5h-276q-23 0 -39 16t-16 39v51q-104 -131 -283 -131q-90 0 -159.5 29t-110 72.5t-67 101.5t-35.5 109t-9 102v576q0 31 20.5 52t51.5 21h260q31 0 52.5 -21t21.5 -52v-449q0 -65 31.5 -104
t97.5 -39q65 0 97 39t32 104v449q0 31 21 52t52 21zM760 1481h147q35 0 57 -26t15 -60q-27 -121 -123 -188.5t-229 -67.5q-132 0 -229 68t-124 188q-7 33 15.5 59.5t56.5 26.5h148q38 0 51 -37q21 -51 82 -51t82 51q13 37 51 37z" />
    <glyph glyph-name="Uring" unicode="&#x16e;" horiz-adv-x="1511" 
d="M1040 1434h279q38 0 65 -27t27 -64v-763q0 -157 -47 -274t-134.5 -189t-205.5 -107t-268 -35q-149 0 -267 35t-205.5 107t-134.5 189.5t-47 273.5v763q0 37 27.5 64t65.5 27h278q37 0 63.5 -27t26.5 -64v-714q0 -98 50.5 -152.5t142.5 -54.5q93 0 143.5 54t50.5 153v714
q0 37 26.5 64t63.5 27zM756 2015q107 0 183.5 -76.5t76.5 -183.5t-76.5 -184.5t-183.5 -77.5t-183.5 77.5t-76.5 184.5t76.5 183.5t183.5 76.5zM756 1675q32 0 55 24t23 56t-23 55t-55 23t-55 -23t-23 -55t23 -56t55 -24z" />
    <glyph glyph-name="uring" unicode="&#x16f;" horiz-adv-x="1253" 
d="M829 1038h258q31 0 52.5 -21t21.5 -52v-891q0 -31 -21.5 -52.5t-52.5 -21.5h-276q-23 0 -39 16t-16 39v51q-104 -131 -283 -131q-90 0 -159.5 29t-110 72.5t-67 101.5t-35.5 109t-9 102v576q0 31 20.5 52t51.5 21h260q31 0 52.5 -21t21.5 -52v-449q0 -65 31.5 -104
t97.5 -39q65 0 97 39t32 104v449q0 31 21 52t52 21zM627 1626q107 0 183.5 -76.5t76.5 -183.5t-76.5 -184.5t-183.5 -77.5t-183.5 77.5t-76.5 184.5t76.5 183.5t183.5 76.5zM627 1286q32 0 55 24t23 56t-23 55t-55 23t-55 -23t-23 -55t23 -56t55 -24z" />
    <glyph glyph-name="Uhungarumlaut" unicode="&#x170;" horiz-adv-x="1511" 
d="M1040 1434h279q38 0 65 -27t27 -64v-763q0 -157 -47 -274t-134.5 -189t-205.5 -107t-268 -35q-149 0 -267 35t-205.5 107t-134.5 189.5t-47 273.5v763q0 37 27.5 64t65.5 27h278q37 0 63.5 -27t26.5 -64v-714q0 -98 50.5 -152.5t142.5 -54.5q93 0 143.5 54t50.5 153v714
q0 37 26.5 64t63.5 27zM428 1845q10 25 33 39t51 14h240q32 0 48 -29t-3 -57l-138 -198q-28 -39 -75 -39h-197q-29 0 -45 26t-4 52zM901 1845q10 24 32.5 38.5t49.5 14.5h242q32 0 48 -29t-3 -57l-137 -198q-28 -39 -76 -39h-197q-29 0 -45 26t-4 52z" />
    <glyph glyph-name="uhungarumlaut" unicode="&#x171;" horiz-adv-x="1253" 
d="M829 1038h258q31 0 52.5 -21t21.5 -52v-891q0 -31 -21.5 -52.5t-52.5 -21.5h-276q-23 0 -39 16t-16 39v51q-104 -131 -283 -131q-90 0 -159.5 29t-110 72.5t-67 101.5t-35.5 109t-9 102v576q0 31 20.5 52t51.5 21h260q31 0 52.5 -21t21.5 -52v-449q0 -65 31.5 -104
t97.5 -39q65 0 97 39t32 104v449q0 31 21 52t52 21zM340 1436q10 25 33 39t51 14h240q32 0 48 -29t-3 -57l-138 -199q-28 -39 -75 -39h-197q-29 0 -45 26t-4 52zM813 1436q10 24 32.5 38.5t49.5 14.5h242q32 0 48 -29t-3 -57l-138 -199q-28 -39 -75 -39h-197q-29 0 -45 26
t-4 52z" />
    <glyph glyph-name="Uogonek" unicode="&#x172;" horiz-adv-x="1511" 
d="M1042 1434h277q38 0 65 -27t27 -64v-763q0 -221 -92 -360t-260 -200q-61 -26 -111.5 -89.5t-50.5 -125.5q0 -42 26 -61.5t62 -19.5h19q25 1 42 -15t17 -41v-112q0 -19 -11 -33t-28 -19q-68 -22 -154 -22q-136 0 -207 54t-71 161q0 87 45.5 157.5t110.5 120.5
q-147 1 -263.5 36.5t-202.5 108t-132 189t-46 271.5v763q0 37 26.5 64t64.5 27h278q37 0 63.5 -27t26.5 -64v-714q0 -99 51 -153t144 -54q92 0 142 54t50 153v714q0 37 27 64t65 27z" />
    <glyph glyph-name="uogonek" unicode="&#x173;" horiz-adv-x="1253" 
d="M1163 43q0 -42 -37 -61q-54 -34 -91.5 -80t-37.5 -97q0 -42 26 -61.5t62 -19.5h19q24 2 41.5 -15t17.5 -41v-112q0 -19 -11 -33t-28 -19q-68 -22 -153 -22q-136 0 -207.5 54.5t-71.5 160.5q0 53 19 103.5t49.5 88.5t61.5 65t63 46h-74q-22 0 -37.5 16t-15.5 39v51
q-104 -131 -285 -131q-89 0 -158.5 29t-110.5 72.5t-67 101.5t-35.5 109t-9.5 102v576q0 31 21.5 52t52.5 21h260q30 0 51 -21t21 -52v-449q0 -65 32 -104t97 -39q66 0 98.5 39t32.5 104v449q0 31 21 52t50 21h261q31 0 52 -21t21 -52v-922z" />
    <glyph glyph-name="Wcircumflex" unicode="&#x174;" horiz-adv-x="2082" 
d="M1571 1364q7 31 32 50.5t56 19.5h326q37 0 58.5 -30t10.5 -65l-373 -1261q-11 -34 -40 -56t-64 -22h-248q-37 0 -66 22.5t-38 59.5l-185 684l-182 -684q-10 -37 -39.5 -59.5t-66.5 -22.5h-246q-37 0 -66.5 22t-38.5 56l-374 1261q-11 35 10.5 65t58.5 30h326
q32 0 57 -19.5t31 -50.5l166 -692l186 694q7 30 32 49t56 19h183q31 0 56 -19t32 -49l186 -694zM1405 1663q22 -26 6.5 -57t-49.5 -31h-182q-48 0 -74 37l-66 90l-65 -90q-26 -37 -74 -37h-182q-34 0 -49.5 31t6.5 57l158 201q24 34 71 34h271q47 0 71 -34z" />
    <glyph glyph-name="wcircumflex" unicode="&#x175;" horiz-adv-x="1685" 
d="M1239 971q9 30 33.5 48.5t56.5 18.5h279q29 0 45.5 -22.5t7.5 -48.5l-305 -906q-9 -28 -33 -44.5t-53 -16.5h-207q-30 0 -54.5 18.5t-31.5 47.5l-135 444l-133 -444q-9 -29 -33 -47.5t-55 -18.5h-207q-29 0 -53 16.5t-33 44.5l-303 906q-9 26 7 48.5t44 22.5h280
q31 0 56 -19t32 -48l111 -422l127 424q9 29 33 47t55 18h145q30 0 54.5 -18t31.5 -47l127 -424zM1206 1253q22 -26 6.5 -57t-49.5 -31h-182q-48 0 -74 37l-65 90l-66 -90q-26 -37 -74 -37h-182q-34 0 -49.5 31t6.5 57l158 201q24 35 72 35h270q48 0 72 -35z" />
    <glyph glyph-name="Ycircumflex" unicode="&#x176;" horiz-adv-x="1492" 
d="M1399 1434q31 0 46.5 -27t0.5 -55l-469 -811v-449q0 -38 -27 -65t-65 -27h-277q-38 0 -65 27t-27 65v449l-469 811q-15 28 0 55t47 27h340q32 0 60 -17.5t41 -46.5l210 -455l213 455q13 29 41 46.5t60 17.5h340zM1110 1663q22 -26 6.5 -57t-49.5 -31h-182q-48 0 -74 37
l-66 90l-65 -90q-26 -37 -74 -37h-182q-34 0 -49.5 31t6.5 57l158 201q24 34 71 34h271q47 0 71 -34z" />
    <glyph glyph-name="ycircumflex" unicode="&#x177;" horiz-adv-x="1183" 
d="M735 977q11 28 34 44.5t52 16.5h283q29 0 45 -23.5t6 -51.5l-381 -963q-19 -46 -33.5 -78.5t-38 -77t-46.5 -75.5t-56 -64t-68.5 -53.5t-82.5 -33.5t-99 -13q-73 0 -135 16q-19 5 -31 19.5t-12 33.5l2 232q0 26 19.5 42t44.5 13q122 -19 159 102q-9 23 -79.5 197
t-160 395t-124.5 308q-10 28 6 51.5t45 23.5h278q30 0 54 -17t33 -46l139 -414zM956 1253q22 -26 6.5 -57t-49.5 -31h-182q-48 0 -74 37l-65 90l-66 -90q-26 -37 -73 -37h-183q-34 0 -49.5 31t6.5 57l158 201q24 35 72 35h270q48 0 72 -35z" />
    <glyph glyph-name="Ydieresis" unicode="&#x178;" horiz-adv-x="1492" 
d="M1399 1434q31 0 46.5 -27t0.5 -55l-469 -811v-449q0 -38 -27 -65t-65 -27h-277q-38 0 -65 27t-27 65v449l-469 811q-15 28 0 55t47 27h340q32 0 60 -17.5t41 -46.5l210 -455l213 455q13 29 41 46.5t60 17.5h340zM504 1933q82 0 139 -57t57 -139t-57 -139.5t-139 -57.5
t-139.5 57.5t-57.5 139.5t57.5 139t139.5 57zM987 1933q82 0 139.5 -57t57.5 -139t-57.5 -139.5t-139.5 -57.5t-139 57.5t-57 139.5t57 139t139 57z" />
    <glyph glyph-name="Zacute" unicode="&#x179;" horiz-adv-x="1275" 
d="M653 422h490q38 0 65 -26.5t27 -63.5v-240q0 -38 -27 -65t-65 -27h-1012q-37 0 -63.5 27t-26.5 65v211q0 45 29 82l516 627h-436q-37 0 -64 27t-27 65v239q0 37 27 64t64 27h958q37 0 63.5 -27t26.5 -64v-213q0 -41 -29 -81zM590 1845q10 24 32.5 38.5t49.5 14.5h239
q34 0 49 -29t-4 -57l-137 -198q-25 -39 -76 -39h-194q-31 0 -47 26t-2 52z" />
    <glyph glyph-name="zacute" unicode="&#x17a;" horiz-adv-x="1056" 
d="M590 365h332q30 0 51.5 -21.5t21.5 -50.5v-219q0 -31 -21 -52.5t-52 -21.5h-789q-29 0 -50.5 21.5t-21.5 52.5v164q0 35 25 63l360 373h-294q-29 0 -50.5 21t-21.5 50v220q0 31 21 52t51 21h751q31 0 52.5 -21t21.5 -52v-164q0 -34 -27 -64zM461 1436q10 24 32.5 38.5
t49.5 14.5h239q34 0 49 -29t-4 -57l-137 -199q-25 -39 -76 -39h-194q-31 0 -47 26t-2 52z" />
    <glyph glyph-name="Zdotaccent" unicode="&#x17b;" horiz-adv-x="1275" 
d="M653 422h490q38 0 65 -26.5t27 -63.5v-240q0 -38 -27 -65t-65 -27h-1012q-37 0 -63.5 27t-26.5 65v211q0 45 29 82l516 627h-436q-37 0 -64 27t-27 65v239q0 37 27 64t64 27h958q37 0 63.5 -27t26.5 -64v-213q0 -41 -29 -81zM637 1933q82 0 139.5 -57t57.5 -139
t-57.5 -139.5t-139.5 -57.5t-139.5 57.5t-57.5 139.5t57.5 139t139.5 57z" />
    <glyph glyph-name="zdotaccent" unicode="&#x17c;" horiz-adv-x="1056" 
d="M590 365h332q30 0 51.5 -21.5t21.5 -50.5v-219q0 -31 -21 -52.5t-52 -21.5h-789q-29 0 -50.5 21.5t-21.5 52.5v164q0 35 25 63l360 373h-294q-29 0 -50.5 21t-21.5 50v220q0 31 21 52t51 21h751q31 0 52.5 -21t21.5 -52v-164q0 -34 -27 -64zM528 1524q82 0 139.5 -57.5
t57.5 -139.5t-57.5 -139.5t-139.5 -57.5t-139 57.5t-57 139.5t57 139.5t139 57.5z" />
    <glyph glyph-name="Zcaron" unicode="&#x17d;" horiz-adv-x="1275" 
d="M653 422h490q38 0 65 -26.5t27 -63.5v-240q0 -38 -27 -65t-65 -27h-1012q-37 0 -63.5 27t-26.5 65v211q0 45 29 82l516 627h-436q-37 0 -64 27t-27 65v239q0 37 27 64t64 27h958q37 0 63.5 -27t26.5 -64v-213q0 -41 -29 -81zM702 1862q25 36 74 36h182q34 0 49.5 -31
t-6.5 -57l-157 -200q-24 -35 -72 -35h-270q-48 0 -72 35l-158 200q-22 26 -6.5 57t49.5 31h183q48 0 73 -36l66 -90z" />
    <glyph glyph-name="zcaron" unicode="&#x17e;" horiz-adv-x="1056" 
d="M590 365h332q30 0 51.5 -21.5t21.5 -50.5v-219q0 -31 -21 -52.5t-52 -21.5h-789q-29 0 -50.5 21.5t-21.5 52.5v164q0 35 25 63l360 373h-294q-29 0 -50.5 21t-21.5 50v220q0 31 21 52t51 21h751q31 0 52.5 -21t21.5 -52v-164q0 -34 -27 -64zM594 1452q26 37 74 37h182
q34 0 49.5 -31t-6.5 -57l-158 -201q-24 -35 -71 -35h-271q-47 0 -71 35l-158 201q-22 26 -6.5 57t49.5 31h182q48 0 74 -37l65 -90z" />
    <glyph glyph-name="longs" unicode="&#x17f;" horiz-adv-x="839" 
d="M719 1151q-63 0 -93 -32t-30 -81v-964q0 -31 -21.5 -52.5t-52.5 -21.5h-260q-31 0 -51.5 21.5t-20.5 52.5v618h-55q-31 0 -52.5 21.5t-21.5 50.5v201q0 31 21.5 52t52.5 21h55q0 46 4 87.5t15.5 89.5t30.5 87.5t50.5 77.5t73.5 64t103 41.5t135 15.5q89 0 154 -14
q19 -5 31 -19.5t12 -33.5v-230q0 -23 -17.5 -39t-40.5 -14h-22z" />
    <glyph glyph-name="AEacute" unicode="&#x1fc;" horiz-adv-x="2033" 
d="M1421 385h459q38 0 65 -26.5t27 -63.5v-203q0 -38 -27 -65t-65 -27h-827q-38 0 -65 27t-27 65v129h-371l-72 -166q-11 -25 -33.5 -40t-50.5 -15h-319q-40 0 -62.5 34t-3.5 70l596 1256q15 34 46.5 54t68.5 20h1102q37 0 63.5 -27t26.5 -64v-204q0 -37 -26.5 -63.5
t-63.5 -26.5h-441v-160h375q38 0 65 -26.5t27 -63.5v-150q0 -38 -27 -65t-65 -27h-375v-172zM727 541h234v508h-17zM1184 1845q10 24 32.5 38.5t49.5 14.5h239q34 0 49 -29t-4 -57l-137 -198q-25 -39 -76 -39h-194q-31 0 -47 26t-2 52z" />
    <glyph glyph-name="aeacute" unicode="&#x1fd;" horiz-adv-x="2095" 
d="M1497 1063q117 0 217.5 -35.5t177.5 -104t120 -179.5t40 -252q0 -31 -21.5 -52.5t-52.5 -21.5h-632q43 -139 204 -139q103 0 168 57q13 12 31 13.5t33 -7.5l178 -104q22 -14 25.5 -38.5t-13.5 -43.5q-71 -81 -179.5 -131t-242.5 -50q-218 0 -352 115v-35q0 -23 -16 -39
t-39 -16h-297q-23 0 -38 16t-15 39v25q-110 -105 -271 -105q-94 0 -174 30.5t-135.5 82.5t-95 121.5t-58 147.5t-18.5 161t18.5 161.5t58 148.5t95 122t135.5 82.5t174 30.5q160 0 271 -100v20q0 23 15 39t38 16h297q23 0 39 -16t16 -39v-27q123 107 299 107zM612 352
q76 0 122 46.5t46 119.5q0 74 -46 121t-122 47q-74 0 -120 -47t-46 -121q0 -73 46 -119.5t120 -46.5zM1343 618h330q-32 142 -166 142q-64 0 -106.5 -38t-57.5 -104zM952 1436q10 24 32.5 38.5t49.5 14.5h240q34 0 49 -29t-4 -57l-137 -199q-25 -39 -76 -39h-195
q-31 0 -47 26t-2 52z" />
    <glyph glyph-name="Oslashacute" unicode="&#x1fe;" horiz-adv-x="1613" 
d="M1403 1186q160 -203 160 -469q0 -156 -58 -293.5t-158.5 -236t-240.5 -155.5t-299 -57q-306 0 -520 195l-97 -90q-12 -10 -27 -9.5t-24 11.5l-24 27q-11 12 -10.5 27t12.5 24l96 88q-162 202 -162 469q0 157 58 295t158.5 236t240.5 155t299 57q151 0 284.5 -51
t235.5 -143l98 88q11 10 26 9.5t26 -11.5l24 -27q9 -10 8.5 -26t-10.5 -25zM512 717q0 -90 41 -158l434 397q-78 56 -180 56q-128 0 -211.5 -83t-83.5 -212zM807 422q128 0 211.5 83t83.5 212q0 89 -41 157l-434 -395q75 -57 180 -57zM760 1845q10 24 32.5 38.5t49.5 14.5
h239q34 0 49 -29t-4 -57l-137 -198q-25 -39 -76 -39h-194q-31 0 -47 26t-2 52z" />
    <glyph glyph-name="oslashacute" unicode="&#x1ff;" horiz-adv-x="1226" 
d="M1069 860q117 -142 117 -342q0 -158 -75 -282.5t-205.5 -192.5t-291.5 -68q-222 0 -378 125l-84 -75q-11 -10 -26 -9.5t-26 11.5l-24 26q-10 11 -9.5 26.5t11.5 24.5l80 74q-117 142 -117 340q0 159 75 284t205.5 193t292.5 68q221 0 377 -125l86 78q10 9 25.5 8.5
t25.5 -10.5l25 -27q9 -12 8.5 -27.5t-10.5 -25.5zM446 518q0 -34 13 -67l237 217q-38 18 -82 18q-76 0 -122 -47t-46 -121zM614 352q74 0 120 46.5t46 119.5q0 40 -12 70l-238 -217q40 -19 84 -19zM565 1436q10 24 32.5 38.5t49.5 14.5h240q34 0 49 -29t-4 -57l-137 -199
q-25 -39 -76 -39h-195q-31 0 -47 26t-2 52z" />
    <glyph glyph-name="Scommaaccent" unicode="&#x218;" horiz-adv-x="1232" 
d="M723 897q270 -74 378.5 -168.5t108.5 -271.5q0 -98 -36 -183.5t-105 -153t-181.5 -106.5t-254.5 -39q-96 0 -183.5 16.5t-168.5 51t-143 95.5t-95 143q-12 31 1 59t44 39l250 76q23 7 45.5 -1t36.5 -28q25 -36 77 -58t113 -22t101.5 23.5t40.5 62.5q0 15 -5 26.5t-17 21
t-24 15.5t-35.5 12.5t-42 10.5t-52.5 11.5t-58 13.5q-60 15 -107.5 29.5t-96 35.5t-84.5 45.5t-68 58.5t-52.5 74t-32 92.5t-11.5 114.5q0 138 74.5 245t202.5 164.5t286 57.5q174 0 311.5 -77t194.5 -220q12 -32 -3 -61t-47 -37l-249 -61q-50 -11 -74 26q-44 57 -131 57
q-60 0 -92.5 -22.5t-32.5 -60.5q0 -16 9 -29.5t22 -21.5t36.5 -16.5t43 -13t52.5 -12.5t54 -14zM434 -195q20 48 70 48h203q31 0 47 -27t2 -55l-113 -203q-19 -39 -63 -39h-168q-29 0 -45.5 23t-6.5 51z" />
    <glyph glyph-name="scommaaccent" unicode="&#x219;" horiz-adv-x="1013" 
d="M573 655q105 -22 175.5 -46.5t126.5 -62t82 -91t26 -127.5q0 -174 -130.5 -263.5t-363.5 -89.5q-150 0 -275.5 43t-178.5 138q-12 22 -3 46t34 31l253 78q15 5 32 0.5t26 -16.5q34 -43 104 -43q45 0 71 16.5t26 44.5q0 15 -8.5 26t-30.5 19t-38.5 12t-55 11.5t-58.5 11.5
q-67 14 -115.5 29.5t-94.5 41t-74 59t-45 83t-17 113.5q0 111 65 190t171 116.5t241 37.5q126 0 237.5 -50t162.5 -145q13 -23 2 -47.5t-37 -32.5l-217 -51q-15 -5 -31 0t-25 17q-30 37 -88 37q-42 0 -67 -17t-25 -45q0 -30 27 -43t92 -26q16 -3 24 -5zM328 -195
q20 48 69 48h203q31 0 47 -27t2 -55l-112 -203q-19 -39 -64 -39h-168q-29 0 -45 23t-6 51z" />
    <glyph glyph-name="circumflex" unicode="&#x2c6;" horiz-adv-x="1073" 
d="M901 1253q22 -26 6.5 -57t-49.5 -31h-182q-48 0 -74 37l-65 90l-66 -90q-26 -37 -74 -37h-182q-34 0 -49.5 31t6.5 57l158 201q24 35 71 35h271q47 0 71 -35z" />
    <glyph glyph-name="caron" unicode="&#x2c7;" horiz-adv-x="1073" 
d="M602 1452q26 37 74 37h182q34 0 49.5 -31t-6.5 -57l-158 -201q-24 -35 -71 -35h-271q-47 0 -71 35l-158 201q-22 26 -6.5 57t49.5 31h182q48 0 74 -37l66 -90z" />
    <glyph glyph-name="breve" unicode="&#x2d8;" horiz-adv-x="927" 
d="M596 1481h147q35 0 57 -26t15 -60q-27 -121 -123 -188.5t-229 -67.5q-132 0 -228.5 68t-123.5 188q-7 33 15 59.5t56 26.5h148q38 0 51 -37q21 -51 82 -51t82 51q13 37 51 37z" />
    <glyph glyph-name="dotaccent" unicode="&#x2d9;" horiz-adv-x="598" 
d="M299 1524q82 0 139.5 -57.5t57.5 -139.5t-57.5 -139.5t-139.5 -57.5t-139.5 57.5t-57.5 139.5t57.5 139.5t139.5 57.5z" />
    <glyph glyph-name="ring" unicode="&#x2da;" horiz-adv-x="724" 
d="M362 1606q107 0 184 -76.5t77 -183.5t-77 -185t-184 -78t-183.5 77.5t-76.5 185.5q0 107 76.5 183.5t183.5 76.5zM362 1266q32 0 55 24t23 56t-23 54.5t-55 22.5t-54.5 -22.5t-22.5 -54.5q0 -33 22.5 -56.5t54.5 -23.5z" />
    <glyph glyph-name="ogonek" unicode="&#x2db;" horiz-adv-x="675" 
d="M410 -195q0 -42 25 -61.5t61 -19.5h18q25 1 42 -15t17 -41v-112q0 -43 -36 -52q-71 -22 -156 -22q-136 0 -207.5 54.5t-71.5 160.5q0 92 50 166t118 121q21 16 52 16h133q25 0 33.5 -23t-11.5 -40q-67 -64 -67 -132z" />
    <glyph glyph-name="tilde" unicode="&#x2dc;" horiz-adv-x="956" 
d="M643 1466l158 -26q23 -4 35.5 -23t9.5 -41q-37 -233 -199 -233q-46 0 -93 15.5t-83 31.5t-55 16q-32 0 -47 -26q-18 -35 -58 -29l-157 29q-22 3 -34.5 21.5t-8.5 41.5q36 232 219 232q52 0 118 -31t93 -31q33 0 47 25q8 15 23 23t32 5z" />
    <glyph glyph-name="hungarumlaut" unicode="&#x2dd;" horiz-adv-x="1230" 
d="M227 1436q10 25 33 39t51 14h240q32 0 48 -29t-3 -57l-137 -199q-28 -39 -76 -39h-197q-29 0 -45 26t-4 52zM700 1436q10 24 32.5 38.5t49.5 14.5h242q32 0 48 -29t-3 -57l-137 -199q-28 -39 -76 -39h-197q-29 0 -45 26t-4 52z" />
    <glyph glyph-name="Wgrave" unicode="&#x1e80;" horiz-adv-x="2082" 
d="M1571 1364q7 31 32 50.5t56 19.5h326q37 0 58.5 -30t10.5 -65l-373 -1261q-11 -34 -40 -56t-64 -22h-248q-37 0 -66 22.5t-38 59.5l-185 684l-182 -684q-10 -37 -39.5 -59.5t-66.5 -22.5h-246q-37 0 -66.5 22t-38.5 56l-374 1261q-11 35 10.5 65t58.5 30h326
q32 0 57 -19.5t31 -50.5l166 -692l186 694q7 30 32 49t56 19h183q31 0 56 -19t32 -49l186 -694zM1006 1898q27 0 49 -14t32 -39l91 -192q12 -26 -4.5 -52t-45.5 -26h-196q-49 0 -74 39l-137 198q-20 28 -4.5 57t49.5 29h240z" />
    <glyph glyph-name="wgrave" unicode="&#x1e81;" horiz-adv-x="1685" 
d="M1239 971q9 30 33.5 48.5t56.5 18.5h279q29 0 45.5 -22.5t7.5 -48.5l-305 -906q-9 -28 -33 -44.5t-53 -16.5h-207q-30 0 -54.5 18.5t-31.5 47.5l-135 444l-133 -444q-9 -29 -33 -47.5t-55 -18.5h-207q-29 0 -53 16.5t-33 44.5l-303 906q-9 26 7 48.5t44 22.5h280
q31 0 56 -19t32 -48l111 -422l127 424q9 29 33 47t55 18h145q30 0 54.5 -18t31.5 -47l127 -424zM807 1489q27 0 49.5 -14.5t32.5 -38.5l90 -193q12 -26 -4 -52t-45 -26h-197q-49 0 -74 39l-137 199q-20 28 -4.5 57t49.5 29h240z" />
    <glyph glyph-name="Wacute" unicode="&#x1e82;" horiz-adv-x="2082" 
d="M1571 1364q7 31 32 50.5t56 19.5h326q37 0 58.5 -30t10.5 -65l-373 -1261q-11 -34 -40 -56t-64 -22h-248q-37 0 -66 22.5t-38 59.5l-185 684l-182 -684q-10 -37 -39.5 -59.5t-66.5 -22.5h-246q-37 0 -66.5 22t-38.5 56l-374 1261q-11 35 10.5 65t58.5 30h326
q32 0 57 -19.5t31 -50.5l166 -692l186 694q7 30 32 49t56 19h183q31 0 56 -19t32 -49l186 -694zM1010 1845q10 24 32.5 38.5t49.5 14.5h239q34 0 49 -29t-4 -57l-137 -198q-25 -39 -76 -39h-194q-31 0 -47 26t-2 52z" />
    <glyph glyph-name="wacute" unicode="&#x1e83;" horiz-adv-x="1685" 
d="M1239 971q9 30 33.5 48.5t56.5 18.5h279q29 0 45.5 -22.5t7.5 -48.5l-305 -906q-9 -28 -33 -44.5t-53 -16.5h-207q-30 0 -54.5 18.5t-31.5 47.5l-135 444l-133 -444q-9 -29 -33 -47.5t-55 -18.5h-207q-29 0 -53 16.5t-33 44.5l-303 906q-9 26 7 48.5t44 22.5h280
q31 0 56 -19t32 -48l111 -422l127 424q9 29 33 47t55 18h145q30 0 54.5 -18t31.5 -47l127 -424zM795 1436q10 24 32.5 38.5t49.5 14.5h239q34 0 49 -29t-4 -57l-137 -199q-25 -39 -76 -39h-194q-31 0 -47 26t-2 52z" />
    <glyph glyph-name="Wdieresis" unicode="&#x1e84;" horiz-adv-x="2082" 
d="M1571 1364q7 31 32 50.5t56 19.5h326q37 0 58.5 -30t10.5 -65l-373 -1261q-11 -34 -40 -56t-64 -22h-248q-37 0 -66 22.5t-38 59.5l-185 684l-182 -684q-10 -37 -39.5 -59.5t-66.5 -22.5h-246q-37 0 -66.5 22t-38.5 56l-374 1261q-11 35 10.5 65t58.5 30h326
q32 0 57 -19.5t31 -50.5l166 -692l186 694q7 30 32 49t56 19h183q31 0 56 -19t32 -49l186 -694zM799 1933q82 0 139 -57t57 -139t-57 -139.5t-139 -57.5t-139.5 57.5t-57.5 139.5t57.5 139t139.5 57zM1282 1933q82 0 139.5 -57t57.5 -139t-57.5 -139.5t-139.5 -57.5
t-139.5 57.5t-57.5 139.5t57.5 139t139.5 57z" />
    <glyph glyph-name="wdieresis" unicode="&#x1e85;" horiz-adv-x="1685" 
d="M1239 971q9 30 33.5 48.5t56.5 18.5h279q29 0 45.5 -22.5t7.5 -48.5l-305 -906q-9 -28 -33 -44.5t-53 -16.5h-207q-30 0 -54.5 18.5t-31.5 47.5l-135 444l-133 -444q-9 -29 -33 -47.5t-55 -18.5h-207q-29 0 -53 16.5t-33 44.5l-303 906q-9 26 7 48.5t44 22.5h280
q31 0 56 -19t32 -48l111 -422l127 424q9 29 33 47t55 18h145q30 0 54.5 -18t31.5 -47l127 -424zM600 1524q82 0 139.5 -57.5t57.5 -139.5t-57.5 -139.5t-139.5 -57.5t-139.5 57.5t-57.5 139.5t57.5 139.5t139.5 57.5zM1083 1524q82 0 139.5 -57.5t57.5 -139.5t-57.5 -139.5
t-139.5 -57.5t-139 57.5t-57 139.5t57 139.5t139 57.5z" />
    <glyph glyph-name="Ygrave" unicode="&#x1ef2;" horiz-adv-x="1492" 
d="M1399 1434q31 0 46.5 -27t0.5 -55l-469 -811v-449q0 -38 -27 -65t-65 -27h-277q-38 0 -65 27t-27 65v449l-469 811q-15 28 0 55t47 27h340q32 0 60 -17.5t41 -46.5l210 -455l213 455q13 29 41 46.5t60 17.5h340zM731 1898q27 0 49.5 -14.5t32.5 -38.5l90 -192
q12 -26 -4 -52t-45 -26h-197q-48 0 -73 39l-138 198q-20 28 -4 57t50 29h239z" />
    <glyph glyph-name="ygrave" unicode="&#x1ef3;" horiz-adv-x="1183" 
d="M735 977q11 28 34 44.5t52 16.5h283q29 0 45 -23.5t6 -51.5l-381 -963q-19 -46 -33.5 -78.5t-38 -77t-46.5 -75.5t-56 -64t-68.5 -53.5t-82.5 -33.5t-99 -13q-73 0 -135 16q-19 5 -31 19.5t-12 33.5l2 232q0 26 19.5 42t44.5 13q122 -19 159 102q-9 23 -79.5 197
t-160 395t-124.5 308q-10 28 6 51.5t45 23.5h278q30 0 54 -17t33 -46l139 -414zM557 1489q27 0 49.5 -14.5t32.5 -38.5l90 -193q12 -26 -4 -52t-45 -26h-197q-48 0 -73 39l-138 199q-20 28 -4.5 57t49.5 29h240z" />
    <glyph glyph-name="endash" unicode="&#x2013;" horiz-adv-x="1044" 
d="M102 719q0 31 21.5 52.5t52.5 21.5h692q31 0 52.5 -21.5t21.5 -52.5v-217q0 -31 -21.5 -52.5t-52.5 -21.5h-692q-31 0 -52.5 21.5t-21.5 52.5v217z" />
    <glyph glyph-name="emdash" unicode="&#x2014;" horiz-adv-x="1155" 
d="M102 719q0 31 20.5 52.5t51.5 21.5h803q31 0 52.5 -21.5t21.5 -52.5v-217q0 -31 -21.5 -52.5t-52.5 -21.5h-803q-31 0 -51.5 21.5t-20.5 52.5v217z" />
    <glyph glyph-name="quoteleft" unicode="&#x2018;" horiz-adv-x="620" 
d="M295 1368q20 31 55 40t66 -9l71 -41q31 -19 41.5 -53t-4.5 -66l-139 -295q-17 -37 -55.5 -49t-73.5 8l-109 64q-34 20 -43 58.5t13 70.5z" />
    <glyph glyph-name="quoteright" unicode="&#x2019;" horiz-adv-x="618" 
d="M238 1352q17 37 55 49t72 -8l108 -64q35 -20 44.5 -58.5t-11.5 -70.5l-178 -274q-21 -30 -55.5 -38.5t-67.5 9.5l-72 41q-31 19 -41.5 53t4.5 66z" />
    <glyph glyph-name="quotesinglbase" unicode="&#x201a;" horiz-adv-x="559" 
d="M178 248q17 35 55 47t72 -8l111 -62q34 -20 43 -58.5t-13 -70.5l-178 -274q-21 -30 -55.5 -38.5t-67.5 9.5l-71 41q-31 17 -41.5 52t4.5 67z" />
    <glyph glyph-name="quotedblleft" unicode="&#x201c;" horiz-adv-x="1122" 
d="M145 967q-34 20 -43 58.5t13 70.5l178 272q20 31 55 40t66 -9l71 -41q31 -19 41.5 -53t-4.5 -66l-139 -295q-17 -37 -55.5 -49t-73.5 8zM795 1368q20 31 54.5 40t65.5 -9l72 -41q31 -19 41.5 -53t-4.5 -66l-139 -295q-17 -37 -55.5 -49t-73.5 8l-109 64
q-34 20 -43.5 58.5t12.5 70.5z" />
    <glyph glyph-name="quotedblright" unicode="&#x201d;" horiz-adv-x="1120" 
d="M741 1352q17 37 55 49t72 -8l109 -64q35 -20 44.5 -58.5t-11.5 -70.5l-179 -274q-21 -30 -55 -38.5t-67 9.5l-72 41q-31 19 -41.5 53t4.5 66zM135 938q-31 19 -41.5 53t4.5 66l142 295q17 37 55 49t72 -8l110 -64q34 -20 43.5 -58.5t-12.5 -70.5l-178 -274
q-21 -30 -55.5 -38.5t-67.5 9.5z" />
    <glyph glyph-name="quotedblbase" unicode="&#x201e;" horiz-adv-x="1058" 
d="M678 248q17 35 55 47t72 -8l110 -62q34 -20 43.5 -58.5t-12.5 -70.5l-178 -274q-21 -30 -55.5 -38.5t-67.5 9.5l-72 41q-31 17 -41 52t5 67zM72 -166q-31 17 -41.5 52t4.5 67l141 295q17 35 55 47t72 -8l111 -62q34 -20 43 -58.5t-13 -70.5l-178 -274
q-21 -30 -55.5 -38.5t-67.5 9.5z" />
    <glyph glyph-name="dagger" unicode="&#x2020;" horiz-adv-x="1087" 
d="M913 1196q29 0 50.5 -21.5t21.5 -50.5v-219q0 -31 -21.5 -52.5t-50.5 -21.5h-165v-757q0 -31 -21.5 -52.5t-52.5 -21.5h-258q-31 0 -52.5 21.5t-21.5 52.5v757h-166q-29 0 -50.5 21.5t-21.5 52.5v219q0 29 21.5 50.5t50.5 21.5h166v164q0 31 21.5 52.5t52.5 21.5h258
q31 0 52.5 -21.5t21.5 -52.5v-164h165z" />
    <glyph glyph-name="daggerdbl" unicode="&#x2021;" horiz-adv-x="1087" 
d="M985 905q0 -31 -21.5 -52.5t-52.5 -21.5h-166v-229h166q31 0 52.5 -21.5t21.5 -52.5v-219q0 -29 -21.5 -50t-52.5 -21h-166v-164q0 -31 -21 -52.5t-50 -21.5h-260q-31 0 -52.5 21.5t-21.5 52.5v164h-164q-31 0 -52.5 21t-21.5 50v219q0 31 21.5 52.5t52.5 21.5h164v229
h-164q-31 0 -52.5 21.5t-21.5 52.5v219q0 29 21.5 50.5t52.5 21.5h164v164q0 31 21.5 52.5t52.5 21.5h260q29 0 50 -21.5t21 -52.5v-164h166q31 0 52.5 -21.5t21.5 -50.5v-219z" />
    <glyph glyph-name="bullet" unicode="&#x2022;" horiz-adv-x="802" 
d="M401 967q132 0 226 -94.5t94 -227.5q0 -132 -94 -225.5t-226 -93.5t-225.5 93.5t-93.5 225.5q0 133 93.5 227.5t225.5 94.5z" />
    <glyph glyph-name="ellipsis" unicode="&#x2026;" horiz-adv-x="1689" 
d="M281 414q92 0 156.5 -64t64.5 -155q0 -92 -64.5 -157t-156.5 -65q-91 0 -155.5 65t-64.5 157q0 91 64.5 155t155.5 64zM844 414q92 0 156.5 -64t64.5 -155q0 -92 -64.5 -157t-156.5 -65q-91 0 -155 65t-64 157q0 91 64 155t155 64zM1407 414q92 0 156.5 -64t64.5 -155
q0 -92 -64.5 -157t-156.5 -65q-91 0 -155 65t-64 157q0 91 64 155t155 64z" />
    <glyph glyph-name="perthousand" unicode="&#x2030;" horiz-adv-x="2658" 
d="M1239 1401q20 33 59 33h113q21 0 31.5 -19.5t-0.5 -38.5l-889 -1343q-20 -33 -59 -33h-113q-22 0 -32 19t1 38zM817 1081q0 -157 -111 -268t-268 -111t-267 111t-110 268t110 268t267 111t268 -111t111 -268zM334 1081q0 -43 30.5 -73.5t73.5 -30.5t74 30.5t31 73.5
t-31 74t-74 31t-73.5 -31t-30.5 -74zM1354 731q157 0 267 -111t110 -268t-110 -267t-267 -110t-268 110t-111 267t111 268t268 111zM1354 248q43 0 73.5 30.5t30.5 73.5t-30.5 74t-73.5 31t-74 -31t-31 -74t31 -73.5t74 -30.5zM2220 731q155 0 266 -111t111 -268
q0 -156 -110.5 -266.5t-266.5 -110.5q-157 0 -268 110t-111 267t111 268t268 111zM2220 248q43 0 73.5 30.5t30.5 73.5t-30.5 74t-73.5 31q-44 0 -74 -31t-30 -74t30 -73.5t74 -30.5z" />
    <glyph glyph-name="guilsinglleft" unicode="&#x2039;" horiz-adv-x="794" 
d="M629 913q34 0 49 -29t-4 -57l-213 -313l213 -313q19 -28 4 -57t-49 -29h-250q-48 0 -74 41l-209 307q-17 23 -17 51t17 51l209 307q26 41 74 41h250z" />
    <glyph glyph-name="guilsinglright" unicode="&#x203a;" horiz-adv-x="794" 
d="M164 913h250q45 0 75 -41l209 -307q15 -23 15 -51t-15 -51l-209 -307q-30 -41 -75 -41h-250q-32 0 -48 29t3 57l213 313l-213 313q-19 28 -3 57t48 29z" />
    <glyph glyph-name="fraction" unicode="&#x2044;" horiz-adv-x="1081" 
d="M631 1556q10 34 38.5 54t65.5 20h209q28 0 44.5 -21.5t8.5 -47.5l-544 -1682q-10 -34 -40 -55t-65 -21h-211q-28 0 -44 22t-7 50z" />
    <glyph glyph-name="Euro" unicode="&#x20ac;" horiz-adv-x="1556" 
d="M926 403q115 0 198 70q19 17 43.5 19.5t44.5 -11.5l254 -168q29 -19 33.5 -52.5t-20.5 -59.5q-103 -107 -245.5 -166.5t-307.5 -59.5q-263 0 -461.5 147.5t-265.5 385.5h-142q-15 0 -26 11t-11 26v90q0 15 11 26t26 11h115q-2 14 -2 45t2 45h-115q-15 0 -26 11t-11 26v90
q0 15 11 26t26 11h142q67 238 265.5 386t461.5 148q165 0 307.5 -59.5t245.5 -167.5q25 -25 20.5 -59.5t-33.5 -53.5l-254 -168q-20 -13 -44.5 -10.5t-43.5 19.5q-78 69 -198 69q-134 0 -221 -104h247q15 0 26 -11t11 -26v-90q0 -15 -11 -26t-26 -11h-317q-4 -28 -4 -45
q0 -7 1 -22.5t1 -22.5h319q15 0 26 -11t11 -26v-90q0 -15 -11 -26t-26 -11h-254q85 -105 228 -105z" />
    <glyph glyph-name="ruble" unicode="&#x20bd;" horiz-adv-x="1472" 
d="M827 389h-147v-74h313q15 0 26 -10.5t11 -25.5v-91q0 -15 -11 -25.5t-26 -10.5h-313v-60q0 -38 -26 -65t-64 -27h-279q-37 0 -63.5 27t-26.5 65v60h-123q-15 0 -26 10.5t-11 25.5v91q0 15 11 25.5t26 10.5h123v74h-67q-38 0 -65.5 26.5t-27.5 63.5v205q0 37 27.5 63.5
t65.5 26.5h67v569q0 37 26.5 64t63.5 27h516q293 0 450 -139.5t157 -391.5q0 -131 -44 -230t-125 -161t-191 -92.5t-247 -30.5zM680 1030v-256h147q68 0 104 35t36 94q0 58 -36 92.5t-104 34.5h-147z" />
    <glyph glyph-name="bitcoin" unicode="&#x20bf;" horiz-adv-x="1355" 
d="M1315 426q0 -172 -92 -273t-277 -135v-208q0 -14 -11 -24.5t-26 -10.5h-108q-15 0 -26 10.5t-11 24.5v190h-43h-113v-190q0 -14 -11 -24.5t-26 -10.5h-110q-13 0 -24 10.5t-11 24.5v190h-231q-38 0 -65.5 27t-27.5 65v1251q0 37 27.5 64t65.5 27h231v190q0 15 10.5 25
t24.5 10h110q15 0 26 -10t11 -25v-190h58q67 0 98 -2v192q0 15 11 25t26 10h108q15 0 26 -10t11 -25v-217q158 -36 236 -123.5t78 -234.5q0 -205 -177 -293v-4q232 -92 232 -326zM795 993q0 111 -148 111h-84v-219h84q148 0 148 108zM702 348q71 0 109.5 29t38.5 84
q0 110 -148 110h-139v-223h139z" />
    <glyph glyph-name="afii61352" unicode="&#x2116;" horiz-adv-x="2326" 
d="M1903 733q-150 0 -256.5 106.5t-106.5 256.5q0 151 106 256.5t257 105.5q150 0 256 -106t106 -256q0 -149 -106.5 -256t-255.5 -107zM1903 1186q-37 0 -64 -26.5t-27 -63.5q0 -36 27 -62t64 -26t62.5 25.5t25.5 62.5t-25.5 63.5t-62.5 26.5zM969 1343q0 37 26.5 64
t63.5 27h278q38 0 65.5 -27t27.5 -64v-1251q0 -38 -27.5 -65t-65.5 -27h-262q-61 0 -94 51l-418 674v-633q0 -38 -27 -65t-65 -27h-278q-37 0 -64 27t-27 65v1251q0 37 27 64t64 27h264q62 0 94 -52l418 -673v634zM1634 301q-29 0 -50 21.5t-21 52.5v200q0 29 21 50.5
t50 21.5h535q30 0 51 -21t21 -51v-200q0 -31 -20.5 -52.5t-51.5 -21.5h-535z" />
    <glyph glyph-name="minus" unicode="&#x2212;" horiz-adv-x="935" 
d="M102 719q0 31 21.5 52.5t50.5 21.5h584q31 0 52 -21.5t21 -52.5v-217q0 -31 -21 -52.5t-52 -21.5h-584q-29 0 -50.5 21.5t-21.5 52.5v217z" />
    <glyph glyph-name="approxequal" unicode="&#x2248;" horiz-adv-x="1206" 
d="M434 721q-73 0 -108 -45q-21 -32 -56 -23l-139 27q-23 4 -35.5 23t-7.5 42q11 56 31.5 104t54.5 91t87 67.5t120 24.5q64 0 130.5 -22t121.5 -44t92 -22q56 0 74 47q8 17 24 26.5t35 6.5l215 -45q21 -3 33.5 -21t9.5 -40q-22 -137 -85.5 -213t-186.5 -76q-69 0 -149.5 23
t-149.5 46t-111 23zM788 504q65 0 91 41q19 29 55 22l139 -28q22 -4 34 -22t9 -40q-22 -138 -85.5 -214.5t-186.5 -76.5q-69 0 -138.5 24t-127.5 47.5t-101 23.5q-45 0 -67 -43q-12 -22 -33.5 -32.5t-46.5 -6.5l-199 41q-23 4 -35.5 23t-7.5 42q11 56 31.5 104t54.5 91
t87 67.5t120 24.5q82 0 225 -44t182 -44z" />
    <glyph glyph-name="notequal" unicode="&#x2260;" horiz-adv-x="1044" 
d="M942 737q0 -29 -21.5 -50t-52.5 -21h-223l-47 -111h270q31 0 52.5 -21.5t21.5 -50.5v-182q0 -31 -21.5 -52.5t-52.5 -21.5h-411l-54 -121q-13 -32 -49 -32h-106q-20 0 -31 16t-4 35l45 102h-82q-31 0 -52.5 21.5t-21.5 52.5v182q0 29 21.5 50.5t52.5 21.5h223l47 111
h-270q-31 0 -52.5 21t-21.5 50v183q0 31 21.5 52t52.5 21h412l53 121q13 33 51 33h107q20 0 30 -16t2 -35l-45 -103h82q31 0 52.5 -21t21.5 -52v-183z" />
    <glyph glyph-name="lessequal" unicode="&#x2264;" horiz-adv-x="1044" 
d="M176 0q-31 0 -52.5 21.5t-21.5 52.5v200q0 29 21.5 50.5t52.5 21.5h692q31 0 52.5 -21.5t21.5 -50.5v-200q0 -31 -21.5 -52.5t-52.5 -21.5h-692zM868 1278q28 9 51 -7t23 -44v-197q0 -25 -15 -45.5t-38 -26.5l-410 -110l410 -111q23 -6 38 -25t15 -44v-197
q0 -29 -23 -44.5t-51 -6.5l-704 250q-28 11 -45 34t-17 52v184q0 29 17 53t45 33z" />
    <glyph glyph-name="greaterequal" unicode="&#x2265;" horiz-adv-x="1042" 
d="M866 0h-694q-29 0 -50.5 21.5t-21.5 52.5v200q0 29 21.5 50.5t50.5 21.5h694q31 0 52.5 -21.5t21.5 -50.5v-200q0 -31 -21.5 -52.5t-52.5 -21.5zM172 1278l707 -252q28 -9 44.5 -33t16.5 -53v-184q0 -29 -16.5 -52t-44.5 -34l-707 -250q-27 -9 -49.5 6.5t-22.5 44.5v197
q0 25 15.5 44t38.5 25l409 111l-409 110q-23 6 -38.5 26.5t-15.5 45.5v197q0 28 23 44t49 7z" />
    <glyph glyph-name="commaaccent" unicode="&#xf6c3;" horiz-adv-x="669" 
d="M203 -195q20 48 69 48h203q31 0 47 -27t2 -55l-112 -203q-19 -39 -64 -39h-168q-29 0 -45 23t-6 51z" />
    </font>
</defs>
</svg>
