<?xml version="1.0" standalone="no"?>
<!DOCTYPE svg PUBLIC "-//W3C//DTD SVG 1.1//EN" "http://www.w3.org/Graphics/SVG/1.1/DTD/svg11.dtd" >
<svg xmlns="http://www.w3.org/2000/svg" xmlns:xlink="http://www.w3.org/1999/xlink" version="1.1">
<metadata>
Created by FontForge 20170731 at Mon May 29 11:59:14 2023
 By Aleksey,,,
Copyright (c) 2020 by MadeType. All rights reserved.
</metadata>
<defs>
<font id="MADETommySoft-ExtraBold" horiz-adv-x="1265" >
  <font-face 
    font-family="MADE Tommy Soft"
    font-weight="800"
    font-stretch="normal"
    units-per-em="2048"
    panose-1="2 0 5 3 0 0 0 2 0 4"
    ascent="1638"
    descent="-410"
    x-height="1038"
    cap-height="1434"
    bbox="-133 -522 2578 2005"
    underline-thickness="102"
    underline-position="-307"
    unicode-range="U+0020-F6C3"
  />
<missing-glyph horiz-adv-x="573" 
 />
    <glyph glyph-name=".notdef" horiz-adv-x="573" 
 />
    <glyph glyph-name=".null" horiz-adv-x="0" 
 />
    <glyph glyph-name="nonmarkingreturn" horiz-adv-x="682" 
 />
    <glyph glyph-name="space" unicode=" " horiz-adv-x="573" 
 />
    <glyph glyph-name="exclam" unicode="!" horiz-adv-x="628" 
d="M313 377q84 0 142.5 -58.5t58.5 -142.5q0 -85 -58 -143t-143 -58q-83 0 -141.5 58.5t-58.5 142.5q0 83 58.5 142t141.5 59zM473 569q-1 -29 -23 -49t-51 -20h-170q-29 0 -50.5 20t-22.5 49l-39 768q-2 40 25 68.5t67 28.5h211q40 0 67 -28.5t25 -68.5z" />
    <glyph glyph-name="quotedbl" unicode="&#x22;" horiz-adv-x="909" 
d="M524 1360q0 31 21.5 52.5t50.5 21.5h129q29 0 50.5 -21.5t21.5 -52.5v-365q0 -30 -21 -50.5t-51 -20.5h-129q-30 0 -51 20.5t-21 50.5v365zM186 924q-31 0 -52 20t-21 51v365q0 31 21 52.5t52 21.5h127q31 0 52.5 -21.5t21.5 -52.5v-365q0 -30 -21.5 -50.5t-52.5 -20.5
h-127z" />
    <glyph glyph-name="numbersign" unicode="#" horiz-adv-x="1335" 
d="M1233 856q-3 -26 -23.5 -43.5t-48.5 -17.5h-110l-25 -152h90q32 0 54 -26t18 -60l-19 -108q-3 -26 -23 -44t-48 -18h-115l-35 -219q-6 -34 -31 -55t-59 -21h-115q-34 0 -55.5 25t-15.5 59l35 211h-185l-37 -219q-6 -34 -31 -55t-59 -21h-114q-34 0 -55.5 25t-16.5 59
l35 211h-86q-34 0 -56 25.5t-16 58.5l16 109q5 28 24.5 45.5t47.5 17.5h111l26 152h-90q-34 0 -55.5 25t-15.5 59l16 108q5 28 24.5 46t47.5 18h114l37 215q4 33 29.5 55t58.5 22h115q34 0 56 -26t16 -60l-33 -206h184l35 215q6 34 31 55.5t59 21.5h115q34 0 55.5 -26
t15.5 -60l-34 -206h86q34 0 55.5 -26t15.5 -58zM748 643l24 152h-184l-25 -152h185z" />
    <glyph glyph-name="dollar" unicode="$" horiz-adv-x="1228" 
d="M1198 438q0 -177 -131.5 -307.5t-353.5 -153.5v-167q0 -14 -11 -24.5t-26 -10.5h-92q-14 0 -24.5 10.5t-10.5 24.5v167q-172 15 -306.5 90t-189.5 216q-12 29 1 58t44 38l230 72q24 7 47 -2t37 -31q26 -40 79 -65t125 -25q78 0 118 30t40 74q0 18 -5.5 32t-19.5 25
t-27.5 18.5t-40 15t-45 12t-54.5 13t-58 13.5q-222 54 -329 154.5t-107 288.5q0 184 127.5 306t333.5 144v170q0 15 10.5 25t24.5 10h92q15 0 26 -10t11 -25v-170q146 -15 258.5 -91t163.5 -202q12 -31 -4 -60t-48 -38l-227 -55q-53 -10 -78 28q-44 68 -141 68
q-65 0 -104 -26t-39 -74q0 -20 10.5 -35.5t25 -25.5t41 -19.5t47.5 -15t55.5 -13.5t55.5 -14q261 -73 365 -172.5t104 -270.5z" />
    <glyph glyph-name="percent" unicode="%" horiz-adv-x="1794" 
d="M1247 1401q23 33 62 33h92q23 0 33 -19.5t-2 -38.5l-887 -1343q-23 -33 -62 -33h-92q-22 0 -32.5 19t1.5 38zM807 1081q0 -153 -107.5 -260.5t-261.5 -107.5q-152 0 -259 108t-107 260q0 153 107 261t259 108q153 0 261 -108t108 -261zM326 1081q0 -46 33 -79t79 -33
q47 0 81 33t34 79t-34 79.5t-81 33.5q-46 0 -79 -33.5t-33 -79.5zM1354 721q152 0 260 -108.5t108 -260.5t-108 -260t-260 -108t-260.5 108t-108.5 260t108.5 260.5t260.5 108.5zM1354 240q46 0 79 33t33 79q0 47 -33 80t-79 33q-47 0 -80 -33t-33 -80q0 -46 33 -79t80 -33z
" />
    <glyph glyph-name="ampersand" unicode="&#x26;" horiz-adv-x="1583" 
d="M1503 94q26 -25 12 -59.5t-51 -34.5h-276q-45 0 -84 31l-64 55q-193 -111 -428 -111q-113 0 -213 26.5t-178.5 78t-124 133.5t-45.5 186q0 122 70.5 215.5t187.5 149.5q-110 159 -110 301q0 179 126.5 287t340.5 108q116 0 207 -30t147 -81.5t84.5 -118t28.5 -143.5
q0 -134 -82.5 -226.5t-231.5 -129.5q132 -115 205 -182q22 46 31 76q9 33 38.5 51t63.5 12l154 -29q38 -6 59.5 -37.5t13.5 -68.5q-28 -131 -106 -248q47 -43 133.5 -125t91.5 -86zM666 1149q-47 0 -75 -28.5t-28 -73.5q0 -55 66 -134q57 9 98 50t41 92q0 41 -28 67.5
t-74 26.5zM455 436q0 -74 55.5 -111.5t138.5 -37.5q61 0 125 24q-169 133 -274 234q-45 -45 -45 -109z" />
    <glyph glyph-name="quotesingle" unicode="'" horiz-adv-x="497" 
d="M113 1360q0 31 21 52.5t50 21.5h129q29 0 50.5 -21.5t21.5 -52.5v-365q0 -30 -21 -50.5t-51 -20.5h-129q-30 0 -50.5 20.5t-20.5 50.5v365z" />
    <glyph glyph-name="parenleft" unicode="(" horiz-adv-x="800" 
d="M655 1542q22 -15 27.5 -42t-8.5 -52q-76 -133 -127 -320t-51 -411t51 -411t127 -320q13 -25 8 -51.5t-27 -43.5l-145 -108q-25 -19 -55 -14.5t-49 30.5q-51 73 -98.5 163.5t-93.5 208.5t-73.5 260.5t-27.5 285.5t27.5 285.5t73.5 260t93.5 208t98.5 163.5q19 26 49 31
t55 -14z" />
    <glyph glyph-name="parenright" unicode=")" horiz-adv-x="800" 
d="M291 1651q25 19 55 14t49 -31q51 -73 98.5 -163.5t93.5 -208t73.5 -260t27.5 -285.5t-27.5 -285.5t-73.5 -260.5t-93.5 -208.5t-98.5 -163.5q-19 -26 -49 -30.5t-55 14.5l-146 108q-22 17 -27 43.5t9 51.5q76 133 127 320t51 411t-51 411t-127 320q-14 25 -9 52t27 42z
" />
    <glyph glyph-name="asterisk" unicode="*" horiz-adv-x="940" 
d="M850 1110q8 -22 -4.5 -43t-36.5 -27l-168 -36l115 -130q15 -19 12 -42.5t-23 -38.5l-108 -78q-20 -15 -44 -10.5t-36 26.5l-86 148l-88 -148q-12 -22 -36 -26.5t-44 10.5l-108 78q-20 15 -23 38.5t14 42.5l113 130l-168 36q-23 6 -35 27t-6 43l41 127q7 23 29.5 32.5
t44.5 0.5l162 -70l-17 174q-2 25 14.5 42.5t41.5 17.5h131q25 0 40.5 -17.5t12.5 -42.5l-17 -174l162 70q23 9 45 -0.5t29 -32.5z" />
    <glyph glyph-name="plus" unicode="+" horiz-adv-x="1064" 
d="M879 774q31 0 52 -21.5t21 -52.5v-182q0 -30 -21 -51t-52 -21h-183v-182q0 -31 -21 -52.5t-50 -21.5h-183q-31 0 -52 21.5t-21 52.5v182h-183q-30 0 -51.5 21t-21.5 51v182q0 31 21 52.5t52 21.5h183v182q0 31 21 52.5t52 21.5h183q29 0 50 -21.5t21 -52.5v-182h183z" />
    <glyph glyph-name="comma" unicode="," horiz-adv-x="561" 
d="M180 244q13 29 44 38t59 -6l139 -79q27 -17 34 -47t-10 -58l-180 -276q-17 -25 -45 -32t-53 7l-100 57q-25 15 -33 43t4 54z" />
    <glyph glyph-name="hyphen" unicode="-" horiz-adv-x="917" 
d="M113 700q0 31 21 52.5t52 21.5h547q29 0 50.5 -21.5t21.5 -52.5v-182q0 -29 -21.5 -50.5t-50.5 -21.5h-547q-30 0 -51.5 21t-21.5 51v182z" />
    <glyph glyph-name="period" unicode="." horiz-adv-x="544" 
d="M272 375q83 0 142 -59t59 -142t-59 -142t-142 -59q-84 0 -142 58.5t-58 142.5t58 142.5t142 58.5z" />
    <glyph glyph-name="slash" unicode="/" horiz-adv-x="1062" 
d="M639 1554q10 35 39 55.5t65 20.5h175q28 0 44 -21.5t7 -47.5l-545 -1682q-11 -34 -39 -55t-63 -21h-175q-28 0 -44 22t-9 50z" />
    <glyph glyph-name="zero" unicode="0" horiz-adv-x="1378" 
d="M690 1458q126 0 230 -38t177 -105.5t123 -161t73.5 -203t23.5 -233.5t-23.5 -233.5t-73.5 -203.5t-123 -162t-177 -106.5t-230 -38.5t-230 38.5t-177.5 106.5t-123.5 162t-74 204t-24 233t24 233t74 203.5t123.5 161t177.5 105.5t230 38zM690 367q59 0 102.5 29t69 79
t37.5 110.5t12 131.5t-12 131.5t-37.5 110.5t-69 79t-102.5 29t-103 -29t-69.5 -79t-38 -111t-12.5 -131t12.5 -131t38 -111t69.5 -79t103 -29z" />
    <glyph glyph-name="one" unicode="1" horiz-adv-x="1001" 
d="M467 1415q28 19 61 19h209q37 0 63.5 -27t26.5 -64v-1251q0 -38 -26.5 -65t-63.5 -27h-241q-38 0 -65.5 27t-27.5 65v885l-137 -92q-26 -19 -55.5 -12.5t-46.5 34.5l-96 156q-15 25 -9 54t31 44z" />
    <glyph glyph-name="two" unicode="2" horiz-adv-x="1216" 
d="M698 385h332q38 0 65 -26.5t27 -63.5v-203q0 -38 -27 -65t-65 -27h-840q-38 0 -65 27t-27 65v137q0 42 33 80q183 172 371 369q98 103 147 168.5t49 107.5q0 53 -32.5 88t-87.5 35q-50 0 -82 -24.5t-45 -65.5q-6 -21 -24.5 -32.5t-39.5 -6.5l-248 60q-31 8 -46.5 33.5
t-6.5 56.5q35 126 118.5 209.5t185.5 118t222 34.5q232 0 366 -128.5t134 -325.5q0 -58 -17 -113t-43.5 -103t-85 -117.5t-112.5 -127t-156 -160.5z" />
    <glyph glyph-name="three" unicode="3" horiz-adv-x="1228" 
d="M938 743q229 -94 229 -337q0 -203 -153 -317t-404 -114q-199 0 -342 82.5t-202 229.5q-12 31 4.5 60.5t48.5 35.5l278 61q19 5 36 -3t24 -25q42 -74 139 -74q64 0 97.5 35.5t33.5 91.5q0 53 -35.5 83t-99.5 30h-103q-23 0 -39 16t-16 39v197q0 23 16 39t39 16h103
q56 0 88.5 26t32.5 78t-32 79.5t-87 27.5q-77 0 -109 -56q-20 -37 -59 -28l-254 57q-32 6 -47.5 36t-3.5 62q56 135 180.5 212t308.5 77q243 0 383 -112t140 -301q0 -98 -50.5 -176t-144.5 -128z" />
    <glyph glyph-name="four" unicode="4" horiz-adv-x="1333" 
d="M1188 594q31 0 52.5 -21.5t21.5 -50.5v-219q0 -31 -21.5 -52.5t-52.5 -21.5h-78v-137q0 -38 -26.5 -65t-63.5 -27h-242q-38 0 -65 27t-27 65v137h-522q-38 0 -65 27.5t-27 65.5v196q0 34 20 76l475 786q13 25 38.5 39.5t53.5 14.5h361q37 0 63.5 -27t26.5 -64v-749h78z
M455 594h231v387z" />
    <glyph glyph-name="five" unicode="5" horiz-adv-x="1214" 
d="M723 899q208 0 319 -122t111 -316q0 -216 -146.5 -351t-394.5 -135q-189 0 -330 83.5t-198 228.5q-12 31 4.5 60.5t48.5 35.5l273 59q19 5 36.5 -3t24.5 -25q13 -32 46 -53t85 -21q68 0 102.5 43t34.5 109q0 67 -42 106t-113 39q-56 0 -113 -33q-40 -22 -80 -14l-201 41
q-28 6 -44 29t-13 51l74 643q5 34 30.5 57t59.5 23h655q38 0 65 -27t27 -64v-204q0 -37 -27 -63.5t-65 -26.5h-413l-23 -189q88 39 207 39z" />
    <glyph glyph-name="six" unicode="6" horiz-adv-x="1241" 
d="M709 995q208 -25 338.5 -160.5t130.5 -336.5q0 -228 -157.5 -375.5t-402.5 -147.5t-401 147.5t-156 375.5q0 70 15.5 136t45.5 123.5t49 88t50 72.5l324 462q41 54 104 54h275q34 0 49.5 -30t-4.5 -58zM618 358q61 0 100.5 38.5t39.5 101.5q0 62 -39.5 100.5t-100.5 38.5
t-100 -38.5t-39 -100.5q0 -64 39 -102t100 -38z" />
    <glyph glyph-name="seven" unicode="7" horiz-adv-x="1130" 
d="M70 1343q0 37 27 64t65 27h803q38 0 65 -27t27 -64v-217q0 -30 -13 -59l-452 -1014q-10 -24 -32.5 -38.5t-49.5 -14.5h-283q-31 0 -47 25t-4 53l432 971h-446q-38 0 -65 26.5t-27 63.5v204z" />
    <glyph glyph-name="eight" unicode="8" horiz-adv-x="1277" 
d="M1006 778q211 -110 211 -336q0 -220 -159 -344.5t-419 -124.5q-259 0 -418.5 124.5t-159.5 344.5q0 226 211 336q-155 103 -155 287q0 183 136 288t386 105q251 0 386.5 -105t135.5 -288q0 -184 -155 -287zM639 1130q-55 0 -88 -29.5t-33 -82.5q0 -49 34.5 -80t86.5 -31
t86.5 31t34.5 80q0 53 -33 82.5t-88 29.5zM639 319q67 0 103 41t36 99q0 61 -37 101t-102 40t-102 -40t-37 -101q0 -58 36 -99t103 -41z" />
    <glyph glyph-name="nine" unicode="9" horiz-adv-x="1241" 
d="M530 438q-209 27 -339 162t-130 338q0 227 157 374.5t403 147.5q245 0 401 -147.5t156 -374.5q0 -57 -13 -115.5t-26.5 -96.5t-42.5 -88.5t-39.5 -66t-38.5 -55.5l-324 -461q-39 -55 -104 -55h-275q-34 0 -49.5 30t4.5 58zM621 1077q-61 0 -101.5 -38t-40.5 -101
t40.5 -101t101.5 -38q60 0 99.5 38t39.5 101t-39.5 101t-99.5 38z" />
    <glyph glyph-name="colon" unicode=":" horiz-adv-x="585" 
d="M293 375q83 0 142 -59t59 -142t-59 -142t-142 -59q-84 0 -142.5 58.5t-58.5 142.5t58.5 142.5t142.5 58.5zM293 662q-85 0 -143 58t-58 142t58.5 142.5t142.5 58.5q83 0 142 -59t59 -142t-59 -141.5t-142 -58.5z" />
    <glyph glyph-name="semicolon" unicode=";" horiz-adv-x="641" 
d="M348 662q-83 0 -142 58.5t-59 141.5t59 142t142 59t142 -59t59 -142t-59 -141.5t-142 -58.5zM88 -152q-25 15 -33 43t4 54l144 299q12 29 42 38t58 -6l139 -79q28 -17 35 -47t-10 -58l-180 -276q-15 -25 -44 -32t-55 7z" />
    <glyph glyph-name="less" unicode="&#x3c;" horiz-adv-x="1028" 
d="M840 1030q28 10 51.5 -5.5t23.5 -43.5v-199q0 -51 -49 -67l-420 -152l420 -149q23 -7 36 -26.5t13 -43.5v-197q0 -29 -23.5 -45t-51.5 -6l-680 273q-22 9 -34.5 27t-12.5 40v254q0 23 12.5 42t34.5 26z" />
    <glyph glyph-name="equal" unicode="=" horiz-adv-x="1028" 
d="M113 901q0 31 20.5 52.5t50.5 21.5h658q29 0 50 -21.5t21 -52.5v-145q0 -29 -21 -50.5t-50 -21.5h-658q-30 0 -50.5 21t-20.5 51v145zM184 246q-31 0 -51 21t-20 52v146q0 30 20.5 51t50.5 21h658q29 0 50 -21.5t21 -50.5v-146q0 -31 -21 -52t-50 -21h-658z" />
    <glyph glyph-name="greater" unicode="&#x3e;" horiz-adv-x="1028" 
d="M188 96q-26 -11 -49.5 5.5t-23.5 45.5v197q0 24 13 43.5t34 26.5l422 149l-422 152q-22 7 -34.5 25.5t-12.5 41.5v199q0 28 23.5 43.5t49.5 5.5l682 -272q45 -16 45 -68v-254q0 -48 -45 -67z" />
    <glyph glyph-name="question" unicode="?" horiz-adv-x="1093" 
d="M553 377q84 0 142.5 -58.5t58.5 -142.5q0 -85 -58 -143t-143 -58q-84 0 -142.5 58.5t-58.5 142.5q0 83 59 142t142 59zM518 1085q-64 0 -96 -55q-8 -17 -24.5 -26t-35.5 -5l-235 60q-32 8 -47 38t-2 62q62 146 188.5 223.5t286.5 77.5q128 0 225 -34t153 -92t83.5 -128
t27.5 -149q0 -68 -25 -128t-63.5 -105t-78.5 -84.5t-75.5 -86t-49.5 -90.5q-9 -29 -32.5 -46t-53.5 -17h-215q-35 0 -57.5 27t-14.5 61q12 61 41.5 115t62.5 91.5t64.5 70.5t52 64.5t20.5 59.5q0 44 -27 70t-73 26z" />
    <glyph glyph-name="at" unicode="@" horiz-adv-x="1855" 
d="M938 1493q155 0 289.5 -40t231.5 -109.5t166.5 -162.5t103.5 -200t34 -221q0 -96 -21.5 -177.5t-57 -137t-82 -94.5t-96.5 -57t-101 -18q-175 0 -256 132q-86 -121 -252 -121q-177 0 -278 115t-101 286q0 77 23 148.5t66 128.5t111 91t152 34q115 0 199 -91v17
q0 23 16 39t39 16h117q29 0 50.5 -21.5t21.5 -52.5v-370q0 -113 90 -113q54 0 88.5 67t34.5 179q0 82 -22.5 156.5t-69.5 140t-115.5 113.5t-166 76t-214.5 28q-292 0 -451 -161t-159 -429q0 -137 48 -249.5t128.5 -184.5t181.5 -111t211 -39q176 0 307 88q23 15 50 11.5
t46 -25.5l54 -61q22 -26 16.5 -59t-33.5 -50q-189 -121 -440 -121q-235 0 -419 102.5t-285 285t-101 413.5q0 236 104.5 419.5t297.5 286.5t444 103zM920 547q60 0 100.5 40t40.5 101q0 62 -40.5 101.5t-100.5 39.5q-64 0 -103 -40t-39 -101t39 -101t103 -40z" />
    <glyph glyph-name="A" unicode="A" horiz-adv-x="1503" 
d="M1104 0q-31 0 -56 19t-32 49l-45 163h-439l-45 -163q-7 -30 -32 -49t-56 -19h-288q-37 0 -58.5 30.5t-9.5 65.5l422 1264q11 32 40 53t64 21h365q35 0 64 -21t40 -53l422 -1264q12 -35 -9.5 -65.5t-59.5 -30.5h-287zM616 532h271l-135 490z" />
    <glyph glyph-name="B" unicode="B" horiz-adv-x="1339" 
d="M1069 750q221 -94 221 -324q0 -426 -575 -426h-508q-38 0 -65 27t-27 65v1251q0 37 27 64t65 27h452q295 0 436.5 -94.5t141.5 -290.5q0 -201 -168 -291v-8zM641 1120h-102v-254h102q81 0 123.5 33t42.5 94q0 63 -44.5 95t-121.5 32zM696 332q78 0 122 33.5t44 95.5
q0 64 -43.5 96.5t-122.5 32.5h-157v-258h157z" />
    <glyph glyph-name="C" unicode="C" horiz-adv-x="1421" 
d="M799 385q129 0 213 78q19 17 43.5 19.5t46.5 -11.5l231 -154q28 -19 33 -51t-18 -57q-100 -111 -241.5 -172.5t-307.5 -61.5q-211 0 -380.5 97t-263.5 266.5t-94 378.5q0 210 94 379.5t263 266.5t381 97q166 0 307.5 -62t241.5 -173q23 -25 18 -57.5t-33 -51.5l-231 -153
q-22 -14 -46.5 -11.5t-43.5 19.5q-84 78 -213 78q-144 0 -229 -93.5t-85 -238.5q0 -144 85 -238t229 -94z" />
    <glyph glyph-name="D" unicode="D" horiz-adv-x="1490" 
d="M659 1434q358 0 565.5 -192t207.5 -525t-207.5 -525t-565.5 -192h-454q-38 0 -65 27t-27 65v1251q0 37 27 64t65 27h454zM659 385q167 0 258 88.5t91 243.5t-91 243.5t-258 88.5h-122v-664h122z" />
    <glyph glyph-name="E" unicode="E" horiz-adv-x="1159" 
d="M537 348h458q37 0 63.5 -26t26.5 -64v-166q0 -38 -26.5 -65t-63.5 -27h-792q-37 0 -63.5 27t-26.5 65v1251q0 37 26.5 64t63.5 27h772q38 0 65 -27t27 -64v-167q0 -37 -27 -64t-65 -27h-438v-196h374q37 0 63.5 -26.5t26.5 -63.5v-150q0 -38 -26.5 -65t-63.5 -27h-374
v-209z" />
    <glyph glyph-name="F" unicode="F" horiz-adv-x="1150" 
d="M1079 1157q0 -37 -26.5 -63.5t-63.5 -26.5h-452v-244h393q37 0 63.5 -27t26.5 -65v-170q0 -37 -26.5 -63.5t-63.5 -26.5h-393v-379q0 -38 -27 -65t-64 -27h-241q-38 0 -65 27t-27 65v1251q0 37 27 64t65 27h784q37 0 63.5 -27t26.5 -64v-186z" />
    <glyph glyph-name="G" unicode="G" horiz-adv-x="1576" 
d="M764 739q0 37 26.5 63.5t63.5 26.5h541q37 0 63.5 -26.5t26.5 -63.5v-665q0 -31 -21.5 -52.5t-50.5 -21.5h-57q-25 0 -45.5 15.5t-26.5 39.5l-33 123q-160 -203 -452 -203q-211 0 -380.5 97t-263.5 266.5t-94 378.5q0 210 94 379.5t263 266.5t381 97q167 0 309 -62
t242 -173q22 -25 17.5 -57.5t-32.5 -51.5l-233 -153q-20 -14 -44.5 -11.5t-43.5 19.5q-84 78 -215 78q-144 0 -229 -93.5t-85 -238.5q0 -94 36.5 -173t109.5 -128t168 -49q217 0 284 168h-229q-37 0 -63.5 26t-26.5 64v114z" />
    <glyph glyph-name="H" unicode="H" horiz-adv-x="1519" 
d="M983 1343q0 37 26.5 64t63.5 27h242q38 0 65 -27t27 -64v-1251q0 -38 -27 -65t-65 -27h-242q-37 0 -63.5 27t-26.5 65v443h-446v-443q0 -38 -27.5 -65t-65.5 -27h-241q-37 0 -63.5 27t-26.5 65v1251q0 37 26.5 64t63.5 27h241q38 0 65.5 -27t27.5 -64v-430h446v430z" />
    <glyph glyph-name="I" unicode="I" horiz-adv-x="649" 
d="M113 1343q0 37 26.5 64t63.5 27h241q38 0 65.5 -27t27.5 -64v-1251q0 -38 -27.5 -65t-65.5 -27h-241q-37 0 -63.5 27t-26.5 65v1251z" />
    <glyph glyph-name="J" unicode="J" horiz-adv-x="1253" 
d="M809 1434h242q37 0 63.5 -27t26.5 -64v-786q0 -297 -140 -439.5t-419 -142.5q-218 0 -368 111t-183 291q-6 29 11 53.5t46 30.5l281 51q20 4 37.5 -6t23.5 -29q35 -92 143 -92q77 0 110.5 48.5t33.5 123.5v786q0 37 27 64t65 27z" />
    <glyph glyph-name="K" unicode="K" horiz-adv-x="1409" 
d="M1346 84q17 -28 0.5 -56t-48.5 -28h-329q-53 0 -78 45l-354 592v-545q0 -38 -27.5 -65t-65.5 -27h-241q-37 0 -63.5 27t-26.5 65v1251q0 37 26.5 64t63.5 27h241q38 0 65.5 -27t27.5 -64v-538l337 584q25 45 80 45h314q31 0 46.5 -28t-1.5 -56l-381 -617z" />
    <glyph glyph-name="L" unicode="L" horiz-adv-x="1122" 
d="M537 385h444q37 0 63.5 -26.5t26.5 -63.5v-203q0 -38 -26.5 -65t-63.5 -27h-776q-38 0 -65 27t-27 65v1251q0 37 27 64t65 27h241q37 0 64 -27t27 -64v-958z" />
    <glyph glyph-name="M" unicode="M" horiz-adv-x="1875" 
d="M1272 1378q32 56 96 56h305q37 0 63.5 -27t26.5 -64v-1251q0 -38 -26.5 -65t-63.5 -27h-241q-38 0 -65.5 27t-27.5 65v694l-315 -548q-23 -37 -63 -37h-46q-40 0 -63 37l-315 548v-694q0 -38 -27.5 -65t-65.5 -27h-241q-37 0 -63.5 27t-26.5 65v1251q0 37 26.5 64
t63.5 27h305q64 0 96 -56l334 -587z" />
    <glyph glyph-name="N" unicode="N" horiz-adv-x="1515" 
d="M981 1343q0 37 27 64t65 27h240q37 0 63.5 -27t26.5 -64v-1251q0 -38 -26.5 -65t-63.5 -27h-230q-61 0 -92 51l-454 713v-672q0 -38 -27 -65t-64 -27h-241q-38 0 -65 27t-27 65v1251q0 37 27 64t65 27h227q60 0 92 -52l457 -712v673z" />
    <glyph glyph-name="O" unicode="O" horiz-adv-x="1597" 
d="M799 1458q211 0 380 -97t263 -266t94 -378q0 -210 -94 -380t-263 -267t-380 -97q-159 0 -296.5 57t-234 155.5t-152 236.5t-55.5 295q0 209 94 378t263.5 266t380.5 97zM799 385q144 0 228.5 93.5t84.5 238.5q0 144 -84.5 238t-228.5 94t-229 -94t-85 -238
q0 -145 85 -238.5t229 -93.5z" />
    <glyph glyph-name="P" unicode="P" horiz-adv-x="1339" 
d="M700 1434q289 0 438.5 -142.5t149.5 -388.5q0 -248 -155 -371.5t-433 -123.5h-163v-316q0 -38 -27.5 -65t-65.5 -27h-241q-37 0 -63.5 27t-26.5 65v1251q0 37 26.5 64t63.5 27h497zM700 756q75 0 117.5 39t42.5 108q0 65 -41.5 105.5t-118.5 40.5h-163v-293h163z" />
    <glyph glyph-name="Q" unicode="Q" horiz-adv-x="1597" 
d="M1538 717q0 -253 -139 -447l94 -96q17 -15 17 -38t-17 -40l-115 -114q-17 -15 -40 -15t-38 15l-102 102q-176 -109 -399 -109q-211 0 -380 97t-263.5 266.5t-94.5 378.5q0 210 94.5 379.5t263.5 266.5t380 97q212 0 381 -97t263.5 -266.5t94.5 -379.5zM799 385
q42 0 90 10l-98 99q-15 17 -15 39.5t15 37.5l116 117q15 15 38 15t40 -15l105 -106q24 62 24 135q0 145 -85 238.5t-230 93.5q-144 0 -229 -93.5t-85 -238.5q0 -144 85 -238t229 -94z" />
    <glyph glyph-name="R" unicode="R" horiz-adv-x="1398" 
d="M981 0q-56 0 -82 51l-207 412h-155v-371q0 -38 -27.5 -65t-65.5 -27h-241q-37 0 -63.5 27t-26.5 65v1251q0 37 26.5 64t63.5 27h497q290 0 439 -136t149 -378q0 -265 -207 -379l260 -459q17 -28 1 -55t-48 -27h-313zM537 1049v-256h163q158 0 158 127q0 65 -38 97
t-120 32h-163z" />
    <glyph glyph-name="S" unicode="S" horiz-adv-x="1228" 
d="M729 881q261 -73 365 -172.5t104 -270.5q0 -93 -39.5 -177t-111 -147.5t-178.5 -101t-234 -37.5q-93 0 -179 16.5t-166 51.5t-142.5 96.5t-94.5 143.5q-12 29 1 58t44 38l230 72q24 7 47 -2t37 -31q26 -40 79 -65t125 -25q78 0 118 30t40 74q0 18 -5.5 32t-19.5 25
t-27.5 18.5t-40 15t-45 12t-54.5 13t-58 13.5q-222 54 -329 154.5t-107 288.5q0 204 153.5 330t391.5 126q172 0 308 -77.5t194 -221.5q12 -31 -4 -60t-48 -38l-227 -55q-53 -10 -78 28q-44 68 -141 68q-65 0 -104 -26t-39 -74q0 -20 10.5 -35.5t25 -25.5t41 -19.5t47.5 -15
t55.5 -13.5t55.5 -14z" />
    <glyph glyph-name="T" unicode="T" horiz-adv-x="1198" 
d="M1057 1434q37 0 63.5 -27t26.5 -64v-204q0 -37 -26.5 -63.5t-63.5 -26.5h-246v-957q0 -38 -26.5 -65t-63.5 -27h-242q-38 0 -65 27t-27 65v957h-244q-37 0 -63.5 26.5t-26.5 63.5v204q0 37 26.5 64t63.5 27h914z" />
    <glyph glyph-name="U" unicode="U" horiz-adv-x="1497" 
d="M1051 1434h241q37 0 63.5 -27t26.5 -64v-759q0 -310 -166 -459.5t-468 -149.5t-468.5 149.5t-166.5 459.5v759q0 37 26.5 64t63.5 27h241q38 0 65.5 -27t27.5 -64v-722q0 -118 55 -177t156 -59q100 0 155 59t55 177v722q0 37 27.5 64t65.5 27z" />
    <glyph glyph-name="V" unicode="V" horiz-adv-x="1503" 
d="M1016 1366q7 31 31 49.5t55 18.5h289q37 0 59 -31t10 -66l-422 -1261q-12 -34 -40.5 -55t-63.5 -21h-367q-35 0 -63 21t-39 55l-424 1261q-11 35 11 66t59 31h288q31 0 55 -18.5t33 -49.5l265 -954z" />
    <glyph glyph-name="W" unicode="W" horiz-adv-x="2066" 
d="M1581 1364q6 31 31 50.5t57 19.5h289q37 0 59 -30t11 -65l-373 -1261q-11 -34 -40.5 -56t-66.5 -22h-211q-37 0 -66 22.5t-38 57.5l-201 715l-201 -715q-11 -35 -40 -57.5t-66 -22.5h-211q-35 0 -64 22t-40 56l-373 1261q-11 35 10.5 65t58.5 30h289q31 0 56 -19.5
t32 -50.5l176 -743l211 747q7 29 32 47.5t56 18.5h148q31 0 55 -18.5t33 -47.5l209 -747z" />
    <glyph glyph-name="X" unicode="X" horiz-adv-x="1439" 
d="M1376 84q17 -28 1.5 -56t-46.5 -28h-309q-62 0 -94 53l-209 359l-211 -359q-32 -53 -94 -53h-310q-31 0 -46.5 28t1.5 56l396 649l-379 617q-15 28 0 56t47 28h309q61 0 94 -54l193 -327l190 327q33 54 95 54h309q32 0 47 -28t0 -56l-377 -615z" />
    <glyph glyph-name="Y" unicode="Y" horiz-adv-x="1476" 
d="M1372 1434q32 0 48 -27t1 -55l-471 -811v-449q0 -38 -26 -65t-64 -27h-242q-38 0 -64 27t-26 65v449l-471 811q-15 28 1 55t48 27h304q68 0 98 -64l231 -493l232 493q30 64 98 64h303z" />
    <glyph glyph-name="Z" unicode="Z" horiz-adv-x="1259" 
d="M610 385h508q38 0 65 -26.5t27 -63.5v-203q0 -38 -27 -65t-65 -27h-975q-38 0 -65 27t-27 65v195q0 43 29 80l534 682h-452q-38 0 -65 26.5t-27 63.5v204q0 37 27 64t65 27h919q38 0 65.5 -27t27.5 -64v-196q0 -41 -29 -78z" />
    <glyph glyph-name="bracketleft" unicode="[" horiz-adv-x="815" 
d="M725 1346q0 -31 -21.5 -52.5t-52.5 -21.5h-155v-1110h155q31 0 52.5 -21.5t21.5 -52.5v-213q0 -29 -21.5 -50.5t-52.5 -21.5h-465q-30 0 -51.5 21.5t-21.5 50.5v1684q0 31 21 51t52 20h465q31 0 52.5 -20.5t21.5 -50.5v-213z" />
    <glyph glyph-name="backslash" unicode="\" horiz-adv-x="1064" 
d="M424 1554l545 -1679q8 -28 -8.5 -50t-45.5 -22h-172q-36 0 -64.5 21t-39.5 55l-545 1682q-8 27 8 48t45 21h172q37 0 66 -20.5t39 -55.5z" />
    <glyph glyph-name="bracketright" unicode="]" horiz-adv-x="815" 
d="M92 1346v213q0 31 20.5 51t51.5 20h467q30 0 50.5 -20.5t20.5 -50.5v-1684q0 -29 -21 -50.5t-50 -21.5h-467q-30 0 -51 21t-21 51v213q0 31 20.5 52.5t51.5 21.5h155v1110h-155q-31 0 -51.5 21.5t-20.5 52.5z" />
    <glyph glyph-name="asciicircum" unicode="^" horiz-adv-x="1093" 
d="M983 866q14 -28 -2 -54t-47 -26h-180q-26 0 -49 14.5t-33 39.5l-123 272l-125 -272q-10 -25 -33 -39.5t-49 -14.5h-180q-31 0 -47 26t-2 54l264 518q10 23 32.5 36.5t47.5 13.5h182q57 0 80 -50z" />
    <glyph glyph-name="underscore" unicode="_" horiz-adv-x="845" 
d="M31 -217q0 31 21 52.5t52 21.5h639q29 0 50.5 -21.5t21.5 -52.5v-145q0 -31 -21.5 -52.5t-50.5 -21.5h-639q-31 0 -52 21.5t-21 52.5v145z" />
    <glyph glyph-name="grave" unicode="`" horiz-adv-x="733" 
d="M420 1489q27 0 49.5 -14.5t32.5 -38.5l94 -201q8 -18 -2.5 -34.5t-30.5 -16.5h-192q-48 0 -76 39l-143 209q-12 19 -3 38t31 19h240z" />
    <glyph glyph-name="a" unicode="a" 
d="M795 983q0 23 16 39t39 16h242q29 0 50 -21t21 -52v-891q0 -31 -21 -52.5t-50 -21.5h-242q-23 0 -39 16t-16 39v29q-95 -109 -273 -109q-116 0 -210 46.5t-152 124t-88.5 173t-30.5 199.5t30.5 200t88.5 174t152 124.5t210 46.5q176 0 273 -109v29zM598 334q82 0 134 51
t52 133q0 83 -52 135t-134 52q-85 0 -135.5 -52t-50.5 -135q0 -81 50.5 -132.5t135.5 -51.5z" />
    <glyph glyph-name="b" unicode="b" 
d="M743 1063q116 0 210 -46.5t152 -124.5t89 -174t31 -200q0 -103 -31 -199t-89 -173.5t-152 -124t-210 -46.5q-177 0 -272 109v-29q0 -23 -16 -39t-39 -16h-240q-31 0 -52.5 21.5t-21.5 52.5v1286q0 31 21.5 52.5t52.5 21.5h223q29 0 50.5 -21.5t21.5 -52.5v-406
q97 109 272 109zM668 334q85 0 135.5 51.5t50.5 132.5q0 83 -50.5 135t-135.5 52q-82 0 -133.5 -52t-51.5 -135q0 -82 51.5 -133t133.5 -51z" />
    <glyph glyph-name="c" unicode="c" horiz-adv-x="1073" 
d="M600 334q78 0 133 49q26 29 66 8l225 -139q21 -12 25 -36.5t-11 -43.5q-74 -93 -188 -145t-250 -52q-244 0 -401.5 153t-157.5 390q0 238 157.5 391.5t401.5 153.5q136 0 250 -52t188 -145q15 -19 11 -43.5t-25 -36.5l-225 -139q-17 -9 -35.5 -7.5t-30.5 13.5
q-55 52 -133 52q-81 0 -133.5 -51t-52.5 -136q0 -83 52.5 -133.5t133.5 -50.5z" />
    <glyph glyph-name="d" unicode="d" 
d="M793 1360q0 31 21 52.5t52 21.5h224q31 0 52 -21.5t21 -52.5v-1286q0 -31 -21 -52.5t-52 -21.5h-242q-23 0 -39 16t-16 39v29q-91 -109 -271 -109q-94 0 -174 30.5t-136 83t-95.5 122t-58.5 147.5t-19 160q0 83 19 161t58.5 148t95.5 122.5t136 83t174 30.5
q177 0 271 -109v406zM596 334q83 0 134.5 51t51.5 133q0 83 -51.5 135t-134.5 52q-84 0 -134 -52t-50 -135q0 -81 50 -132.5t134 -51.5z" />
    <glyph glyph-name="e" unicode="e" horiz-adv-x="1167" 
d="M590 1063q110 0 207 -38t171.5 -108.5t116 -181t37.5 -246.5q0 -29 -21 -50t-50 -21h-652q24 -76 82 -117t148 -41q96 0 166 59q25 25 61 7l162 -97q21 -13 25 -38.5t-11 -45.5q-65 -77 -171 -123.5t-232 -46.5q-263 0 -425.5 150t-162.5 393q0 151 70 275.5t196.5 197
t282.5 72.5zM399 618h383q-38 160 -192 160q-70 0 -119 -43.5t-72 -116.5z" />
    <glyph glyph-name="f" unicode="f" horiz-adv-x="804" 
d="M702 1188q-74 0 -107.5 -41t-33.5 -109h131q30 0 51 -21t21 -52v-164q0 -31 -21.5 -52.5t-50.5 -21.5h-131v-653q0 -31 -21.5 -52.5t-52.5 -21.5h-223q-31 0 -52.5 21.5t-21.5 52.5v653h-55q-29 0 -50.5 21.5t-21.5 52.5v164q0 31 21.5 52t50.5 21h55q0 45 4 86.5
t15.5 89.5t30.5 87.5t50.5 77.5t73.5 64t103 42t135 16q62 0 117 -10q20 -3 32.5 -18t12.5 -35v-197q0 -22 -16 -38t-39 -15h-7z" />
    <glyph glyph-name="g" unicode="g" 
d="M795 983q0 23 16 39t39 16h242q29 0 50 -21t21 -52v-873q0 -229 -155 -367.5t-428 -138.5q-143 0 -270 45.5t-199 128.5q-17 19 -13 44.5t27 37.5l182 111q34 17 64 -6q73 -62 190 -62q133 0 183.5 61t50.5 181v18q-95 -98 -269 -98q-149 0 -261.5 71t-168 185t-55.5 252
q0 139 54 252.5t166 184.5t265 71q175 0 269 -105v25zM598 371q84 0 135 49.5t51 134.5q0 87 -51 136.5t-135 49.5q-85 0 -134.5 -51.5t-49.5 -134.5q0 -81 49.5 -132.5t134.5 -51.5z" />
    <glyph glyph-name="h" unicode="h" horiz-adv-x="1239" 
d="M756 1063q93 0 164 -29t111 -72t65 -102t33 -109t8 -102v-575q0 -31 -21.5 -52.5t-52.5 -21.5h-223q-29 0 -50.5 21.5t-21.5 52.5v485q0 63 -40 103t-107 40q-68 0 -108 -40t-40 -103v-485q0 -31 -21.5 -52.5t-52.5 -21.5h-223q-31 0 -52.5 21.5t-21.5 52.5v1286
q0 31 21.5 52.5t52.5 21.5h223q31 0 52.5 -21.5t21.5 -52.5v-432q97 135 283 135z" />
    <glyph glyph-name="i" unicode="i" horiz-adv-x="573" 
d="M176 0q-31 0 -52.5 21.5t-21.5 52.5v891q0 31 21.5 52t52.5 21h223q29 0 50.5 -21t21.5 -52v-891q0 -31 -21.5 -52.5t-50.5 -21.5h-223zM287 1137q-78 0 -134.5 56.5t-56.5 135.5t56.5 136t134.5 57q79 0 135.5 -56.5t56.5 -136.5q0 -79 -56.5 -135.5t-135.5 -56.5z" />
    <glyph glyph-name="j" unicode="j" horiz-adv-x="573" 
d="M287 1137q-78 0 -134.5 56.5t-56.5 135.5q0 78 56.5 134.5t134.5 56.5q79 0 135.5 -56.5t56.5 -134.5q0 -79 -56.5 -135.5t-135.5 -56.5zM399 1038q31 0 52.5 -21t21.5 -52v-928q0 -68 -11 -126t-39 -112t-70.5 -92.5t-109 -61t-151.5 -22.5q-49 0 -115 8q-20 4 -32.5 20
t-12.5 36v225q0 23 15.5 39t38.5 18q53 2 85.5 30.5t32.5 109.5v856q0 31 21 52t51 21h223z" />
    <glyph glyph-name="k" unicode="k" horiz-adv-x="1167" 
d="M1104 84q17 -28 1 -56t-48 -28h-275q-53 0 -80 45l-231 404v-375q0 -31 -21.5 -52.5t-52.5 -21.5h-223q-29 0 -50.5 21.5t-21.5 52.5v1286q0 31 21.5 52.5t50.5 21.5h223q31 0 52.5 -21.5t21.5 -52.5v-744l223 377q25 45 78 45h256q32 0 48 -29t-1 -55l-262 -409z" />
    <glyph glyph-name="l" unicode="l" horiz-adv-x="573" 
d="M102 1360q0 31 21.5 52.5t50.5 21.5h223q31 0 52.5 -21.5t21.5 -52.5v-1286q0 -31 -21.5 -52.5t-52.5 -21.5h-223q-29 0 -50.5 21.5t-21.5 52.5v1286z" />
    <glyph glyph-name="m" unicode="m" horiz-adv-x="1794" 
d="M1319 1063q89 0 158 -29t108 -72.5t64 -102t33 -108.5t8 -102v-575q0 -31 -21.5 -52.5t-50.5 -21.5h-223q-31 0 -52.5 21.5t-21.5 52.5v504q0 59 -33 91.5t-88 32.5q-54 0 -86.5 -32.5t-32.5 -91.5v-504q0 -31 -21 -52.5t-52 -21.5h-224q-31 0 -52 21.5t-21 52.5v504
q0 59 -32 91.5t-87 32.5q-54 0 -87.5 -32.5t-33.5 -91.5v-504q0 -31 -21.5 -52.5t-52.5 -21.5h-223q-29 0 -50.5 21.5t-21.5 52.5v891q0 31 21 52t51 21h242q23 0 39 -16t16 -39v-29q95 109 256 109q199 0 285 -137q119 137 307 137z" />
    <glyph glyph-name="n" unicode="n" horiz-adv-x="1236" 
d="M756 1063q93 0 164 -29t111 -72t65 -102t33 -109t8 -102v-575q0 -31 -21.5 -52.5t-52.5 -21.5h-223q-29 0 -50.5 21.5t-21.5 52.5v485q0 63 -40 103t-107 40q-68 0 -108 -40t-40 -103v-485q0 -31 -21.5 -52.5t-52.5 -21.5h-223q-31 0 -52.5 21.5t-21.5 52.5v891
q0 31 21.5 52t52.5 21h242q23 0 39 -16t16 -39v-55q97 135 283 135z" />
    <glyph glyph-name="o" unicode="o" horiz-adv-x="1196" 
d="M598 1063q243 0 400 -153.5t157 -391.5t-157 -391.5t-400 -153.5t-400 153.5t-157 391.5t157 391.5t400 153.5zM598 334q81 0 132.5 49.5t51.5 134.5t-51.5 136t-132.5 51t-133.5 -51t-52.5 -136q0 -84 52.5 -134t133.5 -50z" />
    <glyph glyph-name="p" unicode="p" 
d="M743 1063q117 0 211.5 -46.5t152.5 -124.5t89 -174t31 -200t-31 -199.5t-89 -173t-152.5 -124t-211.5 -46.5q-179 0 -270 109v-408q0 -29 -21.5 -50t-52.5 -21h-223q-31 0 -52.5 21t-21.5 50v1289q0 31 21.5 52t52.5 21h242q23 0 39 -16t16 -39v-29q94 109 270 109z
M670 334q85 0 134.5 51.5t49.5 132.5q0 83 -49.5 135t-134.5 52q-83 0 -135 -52t-52 -135q0 -82 52 -133t135 -51z" />
    <glyph glyph-name="q" unicode="q" horiz-adv-x="1267" 
d="M797 983q0 23 15.5 39t37.5 16h242q31 0 52 -21t21 -52v-1289q0 -29 -21 -50t-52 -21h-224q-29 0 -50 21t-21 50v408q-95 -109 -273 -109q-116 0 -210 46.5t-152 124t-88.5 173t-30.5 199.5t30.5 200t88.5 174t152 124.5t210 46.5q176 0 273 -109v29zM600 334
q82 0 133 51t51 133q0 83 -51 135t-133 52q-85 0 -135.5 -52t-50.5 -135q0 -81 50.5 -132.5t135.5 -51.5z" />
    <glyph glyph-name="r" unicode="r" horiz-adv-x="831" 
d="M473 877q41 70 105 117.5t137 62.5q26 5 46.5 -11t20.5 -42v-279q0 -25 -17 -41t-40 -14q-65 2 -112 -12t-74 -37.5t-42 -63t-19.5 -77t-4.5 -89.5v-317q0 -31 -21.5 -52.5t-52.5 -21.5h-223q-31 0 -52.5 21.5t-21.5 52.5v891q0 31 21.5 52t52.5 21h223q31 0 52.5 -21
t21.5 -52v-88z" />
    <glyph glyph-name="s" unicode="s" horiz-adv-x="1011" 
d="M598 643q201 -43 284 -111.5t83 -207.5q0 -166 -121 -257.5t-348 -91.5q-151 0 -271.5 45t-171.5 140q-11 23 -1 47t34 31l221 67q40 13 64 -18q34 -54 121 -54q52 0 79 21t27 55q0 13 -4.5 23.5t-16 18t-23 13t-33 11t-38 9t-45.5 9.5t-49 10q-81 17 -137 39.5
t-100.5 59t-66.5 91.5t-22 130q0 158 130.5 249t332.5 91q124 0 230.5 -51t156.5 -148q11 -23 0.5 -47t-36.5 -31l-191 -45q-38 -10 -59 21q-29 47 -99 47q-50 0 -78 -20.5t-28 -57.5q0 -10 3 -19t10 -16t13.5 -12.5t19.5 -10t22 -8t25.5 -7t26 -5.5t28.5 -5t28 -5z" />
    <glyph glyph-name="t" unicode="t" horiz-adv-x="843" 
d="M752 801q0 -31 -21.5 -52.5t-52.5 -21.5h-131v-274q0 -72 36 -110t107 -38h6q22 2 39 -14t17 -39v-209q0 -20 -12.5 -35t-32.5 -18q-48 -10 -117 -10q-94 0 -167 26.5t-118.5 69t-74.5 101t-40.5 117.5t-11.5 124v309h-74q-31 0 -52 21.5t-21 52.5v164q0 31 21 52t52 21
h74v146q0 29 21.5 50t50.5 21h223q31 0 52.5 -21t21.5 -50v-146h131q31 0 52.5 -21t21.5 -52v-164z" />
    <glyph glyph-name="u" unicode="u" horiz-adv-x="1239" 
d="M840 1038h223q31 0 52.5 -21t21.5 -52v-891q0 -31 -21.5 -52.5t-52.5 -21.5h-242q-22 0 -37.5 16t-15.5 39v56q-95 -136 -285 -136q-67 0 -123 15t-94.5 40t-68.5 60t-47.5 72t-28.5 79t-15 77t-4 71v576q0 31 21.5 52t52.5 21h223q31 0 52.5 -21t21.5 -52v-486
q0 -63 40 -103t108 -40q67 0 107 40t40 103v486q0 31 21 52t51 21z" />
    <glyph glyph-name="v" unicode="v" horiz-adv-x="1183" 
d="M764 975q9 28 33 45.5t55 17.5h242q29 0 45 -23.5t6 -51.5l-350 -906q-10 -26 -34 -41.5t-52 -15.5h-234q-28 0 -51.5 15.5t-32.5 41.5l-352 906q-10 28 6 51.5t45 23.5h244q29 0 53 -17.5t33 -45.5l172 -541z" />
    <glyph glyph-name="w" unicode="w" horiz-adv-x="1667" 
d="M1251 971q7 29 32 48t56 19h244q29 0 45.5 -22.5t7.5 -48.5l-305 -906q-9 -28 -33 -44.5t-53 -16.5h-172q-29 0 -53 17.5t-33 45.5l-151 474l-152 -474q-9 -28 -33 -45.5t-53 -17.5h-172q-29 0 -53 16.5t-33 44.5l-303 906q-9 26 7 48.5t44 22.5h244q31 0 56 -19t32 -48
l123 -469l151 473q7 28 31.5 45.5t54.5 17.5h111q31 0 55 -17.5t33 -45.5l149 -473z" />
    <glyph glyph-name="x" unicode="x" horiz-adv-x="1165" 
d="M1104 84q17 -28 1 -56t-48 -28h-258q-54 0 -80 47l-135 242l-138 -242q-23 -47 -77 -47h-258q-32 0 -48.5 28t0.5 56l277 436l-262 434q-17 28 -1 56t48 28h258q25 0 47.5 -14t32.5 -37l121 -235l118 235q26 51 82 51h258q32 0 47.5 -28t0.5 -56l-263 -434z" />
    <glyph glyph-name="y" unicode="y" horiz-adv-x="1185" 
d="M764 977q9 28 33 44.5t53 16.5h246q29 0 45 -23.5t6 -51.5q-303 -757 -383 -963q-14 -36 -22.5 -56t-25.5 -57.5t-30 -60.5t-34.5 -56t-42 -53.5t-49 -44t-58 -36.5t-66.5 -22t-78 -9q-52 0 -114 10q-20 4 -32.5 19.5t-12.5 35.5v203q0 22 16 37.5t39 15.5
q124 -3 170 135q-6 16 -78.5 187t-171 403.5t-131.5 311.5q-11 27 5 51t46 24h242q29 0 52 -16.5t34 -44.5l170 -479z" />
    <glyph glyph-name="z" unicode="z" horiz-adv-x="1038" 
d="M543 328h350q31 0 52.5 -21.5t21.5 -50.5v-182q0 -31 -21.5 -52.5t-52.5 -21.5h-752q-29 0 -50 21.5t-21 52.5v147q0 35 22 60l381 430h-313q-29 0 -50.5 21t-21.5 50v183q0 31 21 52t51 21h714q31 0 52.5 -21t21.5 -52v-148q0 -35 -24 -59z" />
    <glyph glyph-name="braceleft" unicode="{" horiz-adv-x="888" 
d="M616 940q0 -85 -32.5 -141t-112.5 -76v-10q81 -22 113 -78t32 -141v-191q0 -72 31.5 -106.5t104.5 -34.5q20 0 33.5 -13.5t13.5 -33.5v-240q0 -29 -21.5 -50.5t-52.5 -21.5h-104q-388 0 -388 353v284q0 65 -18 96t-57 39q-20 4 -32.5 19.5t-12.5 34.5v176q0 20 12.5 34
t32.5 19q39 8 57 39t18 96v287q0 350 388 350h104q31 0 52.5 -20.5t21.5 -50.5v-240q0 -19 -13.5 -33t-33.5 -14q-73 0 -104.5 -34.5t-31.5 -107.5v-190z" />
    <glyph glyph-name="bar" unicode="|" horiz-adv-x="589" 
d="M113 1477q0 31 21 52t52 21h220q29 0 50 -21t21 -52v-1708q0 -31 -21 -52.5t-50 -21.5h-220q-31 0 -52 21.5t-21 52.5v1708z" />
    <glyph glyph-name="braceright" unicode="}" horiz-adv-x="888" 
d="M272 940v190q0 73 -31 107.5t-104 34.5q-20 0 -33.5 14t-13.5 33v240q0 30 21.5 50.5t52.5 20.5h104q387 0 387 -350v-287q0 -65 18.5 -96t57.5 -39q20 -5 32.5 -19t12.5 -34v-176q0 -19 -12.5 -34.5t-32.5 -19.5q-39 -8 -57.5 -39t-18.5 -96v-284q0 -353 -387 -353h-104
q-31 0 -52.5 21.5t-21.5 50.5v240q0 20 13.5 33.5t33.5 13.5q73 0 104 34t31 107v191q0 180 146 219v10q-146 37 -146 217z" />
    <glyph glyph-name="asciitilde" unicode="~" horiz-adv-x="1189" 
d="M868 778l179 -37q23 -4 35.5 -22.5t7.5 -40.5q-24 -121 -87.5 -186.5t-164.5 -65.5q-68 0 -140.5 23.5t-133.5 47t-103 23.5q-55 0 -80 -49q-16 -36 -59 -29l-177 37q-22 5 -34.5 24t-6.5 42q62 250 271 250q64 0 133.5 -22t127.5 -44t95 -22q54 0 78 43q20 34 59 28z
" />
    <glyph glyph-name="exclamdown" unicode="&#xa1;" horiz-adv-x="628" 
d="M315 662q-83 0 -141.5 58.5t-58.5 141.5t58.5 142t141.5 59t142 -59t59 -142t-59 -141.5t-142 -58.5zM401 539q29 0 49.5 -20.5t22.5 -49.5l39 -768q2 -40 -25 -68t-67 -28h-211q-39 0 -66 28.5t-24 67.5l37 768q2 29 23 49.5t50 20.5h172z" />
    <glyph glyph-name="cent" unicode="&#xa2;" horiz-adv-x="1175" 
d="M629 530q81 0 133 52q12 12 31 13.5t34 -7.5l228 -137q21 -14 25 -38.5t-13 -43.5q-70 -86 -172 -137t-225 -58v-137q0 -15 -11 -26t-26 -11h-90q-15 0 -26 11t-11 26v147q-195 37 -314.5 183t-119.5 350t119.5 349.5t314.5 182.5v148q0 15 11 26t26 11h90q15 0 26 -11
t11 -26v-137q123 -7 225 -58t172 -137q17 -19 13 -43.5t-25 -36.5l-228 -139q-15 -9 -34 -7.5t-31 13.5q-51 51 -133 51q-81 0 -134 -50.5t-53 -135.5t53 -136t134 -51z" />
    <glyph glyph-name="sterling" unicode="&#xa3;" horiz-adv-x="1277" 
d="M469 385h627q37 0 63.5 -26.5t26.5 -63.5v-203q0 -38 -26.5 -65t-63.5 -27h-932q-38 0 -65 27t-27 65v244q0 44 41 74q55 39 74.5 92.5t19.5 122.5h-98q-15 0 -26 11t-11 26v73q0 15 11 26t26 11h81q-3 12 -15 53t-16.5 60.5t-10 56t-5.5 70.5q0 90 31 169t91 142
t159.5 100t226.5 37q179 0 304.5 -70t177.5 -216q11 -31 -4.5 -60.5t-47.5 -36.5l-252 -61q-17 -4 -33.5 2.5t-25.5 21.5q-25 45 -82 45q-50 0 -76 -30.5t-26 -77.5q0 -28 16.5 -95t20.5 -110h272q15 0 26 -11t11 -26v-73q0 -15 -11 -26t-26 -11h-279q-15 -73 -54 -134
t-93 -102v-4z" />
    <glyph glyph-name="currency" unicode="&#xa4;" horiz-adv-x="1013" 
d="M918 422q10 -10 10 -25t-10 -26l-64 -64q-10 -11 -26 -11t-27 11l-90 92q-89 -59 -203 -59q-117 0 -203 59l-92 -92q-11 -11 -26 -11t-25 11l-66 64q-10 11 -10 26t10 25l92 92q-59 94 -59 203t59 203l-92 92q-10 10 -10 25t10 26l66 63q10 10 25 10t26 -10l92 -90
q92 60 203 60q107 0 203 -60l90 90q11 10 27 10t26 -10l64 -63q10 -11 10 -26t-10 -25l-93 -92q60 -96 60 -203t-60 -203zM508 594q51 0 87 36t36 87t-36 87t-87 36t-87 -36t-36 -87t36 -87t87 -36z" />
    <glyph glyph-name="yen" unicode="&#xa5;" horiz-adv-x="1476" 
d="M1372 1434q32 0 47 -27t0 -55l-389 -676h137q15 0 26 -10.5t11 -24.5v-74q0 -15 -11 -26t-26 -11h-217v-98h217q15 0 26 -11t11 -26v-73q0 -14 -11 -24.5t-26 -10.5h-217v-195q0 -38 -27 -65t-65 -27h-240q-38 0 -65 27t-27 65v195h-217q-15 0 -26 10.5t-11 24.5v73
q0 15 11 26t26 11h217v98h-217q-15 0 -26 11t-11 26v74q0 14 11 24.5t26 10.5h137l-389 676q-15 28 0 55t47 27h304q32 0 59 -17.5t41 -46.5l231 -493l230 493q14 29 41 46.5t59 17.5h303z" />
    <glyph glyph-name="brokenbar" unicode="&#xa6;" horiz-adv-x="589" 
d="M184 -305q-29 0 -50 21.5t-21 52.5v581q0 29 21 50.5t50 21.5h219q31 0 52.5 -21.5t21.5 -50.5v-581q0 -31 -21.5 -52.5t-52.5 -21.5h-219zM113 1477q0 31 21 52t50 21h219q31 0 52.5 -21t21.5 -52v-580q0 -31 -21.5 -52.5t-52.5 -21.5h-219q-29 0 -50 21.5t-21 52.5v580
z" />
    <glyph glyph-name="section" unicode="&#xa7;" horiz-adv-x="1212" 
d="M1118 621q0 -84 -41 -159t-108 -122q78 -88 78 -213q0 -167 -123.5 -267t-348.5 -100q-164 0 -277.5 60.5t-156.5 167.5q-9 23 2.5 46t36.5 27l221 50q40 10 60 -29q28 -57 98 -57q45 0 72.5 23.5t27.5 62.5q0 34 -31.5 59.5t-81.5 44t-110 38t-120.5 47t-110.5 64
t-81.5 97t-31.5 137.5q0 84 41.5 159t108.5 122q-78 88 -78 215q0 167 123 266.5t348 99.5q162 0 276.5 -60.5t157.5 -166.5q9 -25 -2.5 -47.5t-36.5 -28.5l-221 -49q-40 -6 -59 31q-28 55 -99 55q-45 0 -72.5 -23.5t-27.5 -62.5q0 -33 31.5 -58.5t81.5 -44.5t110 -38
t120.5 -47t110.5 -64.5t81.5 -97t31.5 -137.5zM647 518q49 -17 88 -33q43 40 43 84q0 22 -13.5 39t-45.5 33t-59.5 26.5t-80.5 28.5q-4 1 -6 2t-5.5 2t-6.5 2q-53 19 -86 31q-43 -37 -43 -82q0 -28 28 -51.5t58 -35.5t97 -35q7 -3 11 -4t10 -3t11 -4z" />
    <glyph glyph-name="dieresis" unicode="&#xa8;" horiz-adv-x="1064" 
d="M291 1505q73 0 124.5 -52t51.5 -126t-51.5 -126t-124.5 -52t-125.5 52.5t-52.5 125.5t52.5 125.5t125.5 52.5zM774 1505q74 0 126 -52.5t52 -125.5t-52 -125.5t-126 -52.5t-126 52.5t-52 125.5t52 125.5t126 52.5z" />
    <glyph glyph-name="copyright" unicode="&#xa9;" horiz-adv-x="1669" 
d="M846 889q-74 0 -118 -49t-44 -123t44 -123t118 -49q66 0 110 41q21 21 45 4l123 -80q13 -9 15 -26t-9 -29q-110 -123 -284 -123q-167 0 -277 110t-110 275t110 275t277 110q174 0 284 -123q11 -12 9 -29t-15 -26l-123 -80q-24 -17 -45 4q-44 41 -110 41zM834 1458
q150 0 287.5 -58.5t236.5 -157.5t158 -236.5t59 -288.5t-59 -288.5t-158 -237t-236.5 -158t-287.5 -58.5q-202 0 -372.5 99.5t-270 270t-99.5 372.5t99.5 372.5t270 269.5t372.5 99zM834 102q166 0 307 82.5t223 224.5t82 308t-82 307.5t-223 224t-307 82.5q-125 0 -239 -49
t-196.5 -131t-131 -195.5t-48.5 -238.5t48.5 -238.5t131 -196t196.5 -131.5t239 -49z" />
    <glyph glyph-name="guillemotleft" unicode="&#xab;" horiz-adv-x="1320" 
d="M592 895q32 0 48 -29t-3 -57l-201 -295l201 -295q19 -28 3 -57t-48 -29h-213q-49 0 -76 41l-197 289q-15 23 -15 51t15 51l197 289q30 41 76 41h213zM1147 895q32 0 48 -29t-3 -57l-201 -295l201 -295q19 -28 3 -57t-48 -29h-213q-52 0 -76 41l-196 289q-15 23 -15 51
t15 51l196 289q26 41 76 41h213z" />
    <glyph glyph-name="registered" unicode="&#xae;" horiz-adv-x="1667" 
d="M834 1458q151 0 288.5 -58.5t236.5 -157.5t157.5 -236.5t58.5 -288.5q0 -202 -99 -372.5t-269.5 -270t-372.5 -99.5q-150 0 -287.5 58.5t-237 158t-158.5 237t-59 288.5t59 288.5t158.5 236.5t237 157.5t287.5 58.5zM834 102q125 0 239 49t196 131.5t130.5 196
t48.5 238.5q0 166 -82 307.5t-223.5 224t-308.5 82.5q-166 0 -307.5 -82.5t-223.5 -224t-82 -307.5q0 -125 48.5 -238.5t130.5 -196t196 -131.5t238 -49zM1153 831q0 -138 -109 -196l132 -229q9 -19 -1.5 -37.5t-31.5 -18.5h-135q-46 0 -66 41l-100 201h-82v-186
q0 -23 -16 -39.5t-39 -16.5h-113q-23 0 -39 16.5t-16 39.5v641q0 23 16 39t39 16h254q152 0 229.5 -71.5t77.5 -199.5zM760 899v-133h86q82 0 82 65q0 68 -82 68h-86z" />
    <glyph glyph-name="macron" unicode="&#xaf;" horiz-adv-x="858" 
d="M113 1382q0 31 21 51.5t52 20.5h488q30 0 50.5 -21t20.5 -51v-110q0 -29 -21 -50.5t-50 -21.5h-488q-30 0 -51.5 21t-21.5 51v110z" />
    <glyph glyph-name="degree" unicode="&#xb0;" horiz-adv-x="804" 
d="M401 1434q138 0 235 -97.5t97 -234.5t-97 -234.5t-235 -97.5q-136 0 -232.5 97.5t-96.5 234.5t96.5 234.5t232.5 97.5zM401 989q47 0 80 33.5t33 79.5t-33 79t-80 33q-46 0 -79 -33t-33 -79t33 -79.5t79 -33.5z" />
    <glyph glyph-name="plusminus" unicode="&#xb1;" horiz-adv-x="1062" 
d="M696 1012h183q31 0 52 -21.5t21 -52.5v-182q0 -30 -21 -51t-52 -21h-183v-166q0 -30 -21 -51t-52 -21h-183q-29 0 -50 21.5t-21 50.5v166h-183q-30 0 -51.5 21t-21.5 51v182q0 31 21 52.5t52 21.5h183v164q0 31 21 52t50 21h183q31 0 52 -21t21 -52v-164zM186 0
q-31 0 -52 21.5t-21 52.5v164q0 29 21 50t52 21h693q31 0 52 -21t21 -50v-164q0 -31 -21 -52.5t-52 -21.5h-693z" />
    <glyph glyph-name="acute" unicode="&#xb4;" horiz-adv-x="733" 
d="M229 1436q26 53 84 53h238q22 0 32.5 -19t-1.5 -38l-146 -209q-25 -39 -74 -39h-192q-20 0 -31 17t-2 34z" />
    <glyph glyph-name="paragraph" unicode="&#xb6;" horiz-adv-x="1386" 
d="M485 1434h736q31 0 52 -21.5t21 -52.5v-211q0 -31 -21 -52.5t-52 -21.5h-19v-1184q0 -30 -21 -50.5t-51 -20.5h-147q-30 0 -51 20.5t-21 50.5v1184h-168v-1184q0 -31 -21 -51t-52 -20h-146q-30 0 -50.5 20.5t-20.5 50.5v791q-178 13 -290 108.5t-112 266.5q0 91 34 163
t93.5 117.5t137 70t169.5 26.5z" />
    <glyph glyph-name="cedilla" unicode="&#xb8;" horiz-adv-x="753" 
d="M401 -90q102 0 171 -52.5t69 -156.5q0 -114 -77 -168.5t-195 -54.5q-113 0 -203 39q-22 9 -29.5 32t4.5 43l45 84q19 30 47 17q48 -21 78 -21q78 0 78 64q0 28 -20 41.5t-50 13.5q-16 0 -24 -2q-25 -4 -37 14l-20 25q-20 30 -5 59l41 82q6 13 20.5 22t29.5 9h57
q20 0 31 -17t2 -36l-19 -37h6z" />
    <glyph glyph-name="guillemotright" unicode="&#xbb;" horiz-adv-x="1320" 
d="M729 895h213q48 0 74 -41l196 -289q17 -23 17 -51t-17 -51l-196 -289q-24 -41 -74 -41h-213q-34 0 -49 29t4 57l201 295l-201 295q-19 28 -4 57t49 29zM174 895h213q46 0 76 -41l196 -289q15 -23 15 -51t-15 -51l-196 -289q-27 -41 -76 -41h-213q-34 0 -49 29t4 57
l201 295l-201 295q-19 28 -4 57t49 29z" />
    <glyph glyph-name="questiondown" unicode="&#xbf;" horiz-adv-x="1093" 
d="M541 662q-85 0 -143 58t-58 142t58.5 142.5t142.5 58.5q83 0 141.5 -59t58.5 -142t-58.5 -141.5t-141.5 -58.5zM731 39l236 -59q32 -7 47.5 -38.5t1.5 -62.5q-62 -146 -188 -223.5t-287 -77.5q-128 0 -225 34t-153.5 92.5t-84 128.5t-27.5 149q0 50 13.5 95t36 80.5
t50 68t57 63t56 58.5t48.5 61.5t32 66.5q9 29 33 46.5t55 17.5h213q35 0 57.5 -27t14.5 -61q-12 -61 -41.5 -115t-62.5 -92t-65 -71t-52.5 -64.5t-20.5 -59.5q0 -44 27 -70t73 -26q65 0 97 55q7 17 23.5 25.5t35.5 5.5z" />
    <glyph glyph-name="Agrave" unicode="&#xc0;" horiz-adv-x="1503" 
d="M1104 0q-31 0 -56 19t-32 49l-45 163h-439l-45 -163q-7 -30 -32 -49t-56 -19h-288q-37 0 -58.5 30.5t-9.5 65.5l422 1264q11 32 40 53t64 21h365q35 0 64 -21t40 -53l422 -1264q12 -35 -9.5 -65.5t-59.5 -30.5h-287zM616 532h271l-135 490zM702 1898q27 0 49.5 -14.5
t32.5 -38.5l95 -200q8 -18 -2.5 -35t-30.5 -17h-193q-47 0 -75 39l-144 209q-12 19 -2.5 38t31.5 19h239z" />
    <glyph glyph-name="Aacute" unicode="&#xc1;" horiz-adv-x="1503" 
d="M1104 0q-31 0 -56 19t-32 49l-45 163h-439l-45 -163q-7 -30 -32 -49t-56 -19h-288q-37 0 -58.5 30.5t-9.5 65.5l422 1264q11 32 40 53t64 21h365q35 0 64 -21t40 -53l422 -1264q12 -35 -9.5 -65.5t-59.5 -30.5h-287zM616 532h271l-135 490zM717 1845q26 53 84 53h237
q22 0 32.5 -19t-1.5 -38l-145 -209q-25 -39 -74 -39h-193q-20 0 -30.5 17.5t-1.5 34.5z" />
    <glyph glyph-name="Acircumflex" unicode="&#xc2;" horiz-adv-x="1503" 
d="M1104 0q-31 0 -56 19t-32 49l-45 163h-439l-45 -163q-7 -30 -32 -49t-56 -19h-288q-37 0 -58.5 30.5t-9.5 65.5l422 1264q11 32 40 53t64 21h365q35 0 64 -21t40 -53l422 -1264q12 -35 -9.5 -65.5t-59.5 -30.5h-287zM616 532h271l-135 490zM1106 1653q15 -19 4.5 -39.5
t-33.5 -20.5h-182q-48 0 -74 37l-69 96l-70 -96q-29 -37 -74 -37h-184q-22 0 -32 20.5t3 39.5l166 211q27 34 72 34h235q48 0 72 -34z" />
    <glyph glyph-name="Atilde" unicode="&#xc3;" horiz-adv-x="1503" 
d="M1104 0q-31 0 -56 19t-32 49l-45 163h-439l-45 -163q-7 -30 -32 -49t-56 -19h-288q-37 0 -58.5 30.5t-9.5 65.5l422 1264q11 32 40 53t64 21h365q35 0 64 -21t40 -53l422 -1264q12 -35 -9.5 -65.5t-59.5 -30.5h-287zM616 532h271l-135 490zM920 1858l135 -23
q23 -5 36 -24t9 -42q-19 -100 -65 -149t-124 -49q-55 0 -137 30.5t-102 30.5q-32 0 -47 -33q-4 -10 -15.5 -16t-23.5 -4l-135 25q-23 3 -36.5 22.5t-8.5 42.5q45 197 206 197q43 0 115 -30t104 -30q37 0 48 29q6 12 17.5 19t23.5 4z" />
    <glyph glyph-name="Adieresis" unicode="&#xc4;" horiz-adv-x="1503" 
d="M1104 0q-31 0 -56 19t-32 49l-45 163h-439l-45 -163q-7 -30 -32 -49t-56 -19h-288q-37 0 -58.5 30.5t-9.5 65.5l422 1264q11 32 40 53t64 21h365q35 0 64 -21t40 -53l422 -1264q12 -35 -9.5 -65.5t-59.5 -30.5h-287zM616 532h271l-135 490zM510 1915q73 0 124.5 -52
t51.5 -126t-51.5 -126t-124.5 -52q-74 0 -126 52.5t-52 125.5t52 125.5t126 52.5zM993 1915q73 0 125.5 -52.5t52.5 -125.5t-52.5 -125.5t-125.5 -52.5t-125.5 52.5t-52.5 125.5t52.5 125.5t125.5 52.5z" />
    <glyph glyph-name="Aring" unicode="&#xc5;" horiz-adv-x="1503" 
d="M1104 0q-31 0 -56 19t-32 49l-45 163h-439l-45 -163q-7 -30 -32 -49t-56 -19h-288q-37 0 -58.5 30.5t-9.5 65.5l422 1264q11 32 40 53t64 21h365q35 0 64 -21t40 -53l422 -1264q12 -35 -9.5 -65.5t-59.5 -30.5h-287zM616 532h271l-135 490zM752 2005q104 0 178 -73.5
t74 -176.5q0 -104 -74 -178t-178 -74t-178 74t-74 178q0 103 74 176.5t178 73.5zM752 1667q35 0 60.5 25.5t25.5 62.5q0 35 -25.5 60.5t-60.5 25.5t-61.5 -25.5t-26.5 -60.5q0 -36 26 -62t62 -26z" />
    <glyph glyph-name="AE" unicode="&#xc6;" horiz-adv-x="2017" 
d="M1395 348h458q39 0 66 -26t27 -64v-166q0 -38 -27.5 -65t-65.5 -27h-790q-38 0 -65 27t-27 65v139h-404l-75 -176q-11 -25 -33.5 -40t-50.5 -15h-283q-40 0 -62.5 34t-5.5 70l596 1256q17 34 48.5 54t68.5 20h1065q38 0 64 -27t26 -64v-167q0 -37 -26 -64t-64 -27h-440
v-196h374q38 0 65.5 -26.5t27.5 -63.5v-150q0 -38 -27.5 -65t-65.5 -27h-374v-209zM696 532h275v553h-37z" />
    <glyph glyph-name="Ccedilla" unicode="&#xc7;" horiz-adv-x="1421" 
d="M799 385q131 0 215 78q17 17 42.5 19.5t45.5 -11.5l233 -154q28 -19 32 -52t-19 -58q-95 -105 -228 -165.5t-289 -66.5l-32 -65h6q102 0 170.5 -52.5t68.5 -156.5q0 -59 -22 -103.5t-61 -70t-86 -37.5t-103 -12q-113 0 -203 39q-22 9 -29 31t5 44l45 84q8 12 21.5 16.5
t25.5 -1.5q44 -19 78 -19q35 0 56.5 15.5t21.5 46.5q0 57 -70 57q-17 0 -25 -2q-21 -6 -36 12l-19 27q-23 26 -6 57l47 97q-182 25 -324 126t-220.5 260t-78.5 349q0 210 94 379.5t263 266.5t381 97q167 0 309 -62t242 -173q22 -25 17.5 -57.5t-32.5 -51.5l-233 -153
q-20 -14 -45.5 -11.5t-42.5 19.5q-84 78 -215 78q-144 0 -229 -93.5t-85 -238.5q0 -144 85 -238t229 -94z" />
    <glyph glyph-name="Egrave" unicode="&#xc8;" horiz-adv-x="1159" 
d="M537 348h458q37 0 63.5 -26t26.5 -64v-166q0 -38 -26.5 -65t-63.5 -27h-792q-37 0 -63.5 27t-26.5 65v1251q0 37 26.5 64t63.5 27h772q38 0 65 -27t27 -64v-167q0 -37 -27 -64t-65 -27h-438v-196h374q37 0 63.5 -26.5t26.5 -63.5v-150q0 -38 -26.5 -65t-63.5 -27h-374
v-209zM571 1898q27 0 49.5 -14.5t32.5 -38.5l95 -200q8 -18 -2.5 -35t-30.5 -17h-193q-48 0 -76 39l-143 209q-12 19 -2.5 38t31.5 19h239z" />
    <glyph glyph-name="Eacute" unicode="&#xc9;" horiz-adv-x="1159" 
d="M537 348h458q37 0 63.5 -26t26.5 -64v-166q0 -38 -26.5 -65t-63.5 -27h-792q-37 0 -63.5 27t-26.5 65v1251q0 37 26.5 64t63.5 27h772q38 0 65 -27t27 -64v-167q0 -37 -27 -64t-65 -27h-438v-196h374q37 0 63.5 -26.5t26.5 -63.5v-150q0 -38 -26.5 -65t-63.5 -27h-374
v-209zM524 1845q26 53 84 53h238q22 0 32.5 -19t-1.5 -38l-146 -209q-25 -39 -74 -39h-192q-20 0 -31 17.5t-2 34.5z" />
    <glyph glyph-name="Ecircumflex" unicode="&#xca;" horiz-adv-x="1159" 
d="M537 348h458q37 0 63.5 -26t26.5 -64v-166q0 -38 -26.5 -65t-63.5 -27h-792q-37 0 -63.5 27t-26.5 65v1251q0 37 26.5 64t63.5 27h772q38 0 65 -27t27 -64v-167q0 -37 -27 -64t-65 -27h-438v-196h374q37 0 63.5 -26.5t26.5 -63.5v-150q0 -38 -26.5 -65t-63.5 -27h-374
v-209zM954 1653q15 -19 5 -39.5t-33 -20.5h-183q-47 0 -73 37l-70 96l-70 -96q-29 -37 -73 -37h-185q-22 0 -31.5 20.5t3.5 39.5l166 211q27 34 71 34h236q47 0 71 -34z" />
    <glyph glyph-name="Edieresis" unicode="&#xcb;" horiz-adv-x="1159" 
d="M537 348h458q37 0 63.5 -26t26.5 -64v-166q0 -38 -26.5 -65t-63.5 -27h-792q-37 0 -63.5 27t-26.5 65v1251q0 37 26.5 64t63.5 27h772q38 0 65 -27t27 -64v-167q0 -37 -27 -64t-65 -27h-438v-196h374q37 0 63.5 -26.5t26.5 -63.5v-150q0 -38 -26.5 -65t-63.5 -27h-374
v-209zM358 1915q73 0 125 -52t52 -126t-52 -126t-125 -52q-74 0 -126 52.5t-52 125.5t52 125.5t126 52.5zM842 1915q74 0 126 -52.5t52 -125.5t-52 -125.5t-126 -52.5t-126 52.5t-52 125.5t52 125.5t126 52.5z" />
    <glyph glyph-name="Igrave" unicode="&#xcc;" horiz-adv-x="649" 
d="M113 1343q0 37 26.5 64t63.5 27h241q38 0 65.5 -27t27.5 -64v-1251q0 -38 -27.5 -65t-65.5 -27h-241q-37 0 -63.5 27t-26.5 65v1251zM276 1898q27 0 49.5 -14.5t32.5 -38.5l95 -200q8 -18 -2.5 -35t-30.5 -17h-193q-47 0 -75 39l-144 209q-12 19 -2.5 38t31.5 19h239z
" />
    <glyph glyph-name="Iacute" unicode="&#xcd;" horiz-adv-x="649" 
d="M113 1343q0 37 26.5 64t63.5 27h241q38 0 65.5 -27t27.5 -64v-1251q0 -38 -27.5 -65t-65.5 -27h-241q-37 0 -63.5 27t-26.5 65v1251zM291 1845q26 53 84 53h237q22 0 32.5 -19t-1.5 -38l-145 -209q-25 -39 -74 -39h-193q-20 0 -30.5 17.5t-1.5 34.5z" />
    <glyph glyph-name="Icircumflex" unicode="&#xce;" horiz-adv-x="649" 
d="M113 1343q0 37 26.5 64t63.5 27h241q38 0 65.5 -27t27.5 -64v-1251q0 -38 -27.5 -65t-65.5 -27h-241q-37 0 -63.5 27t-26.5 65v1251zM678 1653q15 -19 4.5 -39.5t-33.5 -20.5h-182q-48 0 -74 37l-69 96l-70 -96q-29 -37 -74 -37h-184q-22 0 -32 20.5t3 39.5l166 211
q27 34 72 34h235q48 0 72 -34z" />
    <glyph glyph-name="Idieresis" unicode="&#xcf;" horiz-adv-x="649" 
d="M113 1343q0 37 26.5 64t63.5 27h241q38 0 65.5 -27t27.5 -64v-1251q0 -38 -27.5 -65t-65.5 -27h-241q-37 0 -63.5 27t-26.5 65v1251zM82 1915q73 0 124.5 -52t51.5 -126t-51.5 -126t-124.5 -52q-74 0 -126 52.5t-52 125.5t52 125.5t126 52.5zM565 1915q73 0 125.5 -52.5
t52.5 -125.5t-52.5 -125.5t-125.5 -52.5t-125.5 52.5t-52.5 125.5t52.5 125.5t125.5 52.5z" />
    <glyph glyph-name="Eth" unicode="&#xd0;" horiz-adv-x="1533" 
d="M700 1434q359 0 566 -192t207 -525t-207 -525t-566 -192h-454q-37 0 -63.5 27t-26.5 65v570h-109q-15 0 -26 10.5t-11 25.5v37q0 15 11 26t26 11h109v571q0 37 26.5 64t63.5 27h454zM700 385q168 0 258.5 88t90.5 244t-90.5 244t-258.5 88h-120v-277h196q15 0 26 -11
t11 -26v-37q0 -15 -11 -25.5t-26 -10.5h-196v-277h120z" />
    <glyph glyph-name="Ntilde" unicode="&#xd1;" horiz-adv-x="1515" 
d="M981 1343q0 37 27 64t65 27h240q37 0 63.5 -27t26.5 -64v-1251q0 -38 -26.5 -65t-63.5 -27h-230q-61 0 -92 51l-454 713v-672q0 -38 -27 -65t-64 -27h-241q-38 0 -65 27t-27 65v1251q0 37 27 64t65 27h227q60 0 92 -52l457 -712v673zM926 1858l135 -23q23 -5 36 -24
t9 -42q-19 -100 -64.5 -149t-123.5 -49q-55 0 -137.5 30.5t-102.5 30.5q-32 0 -47 -33q-4 -10 -15.5 -16t-23.5 -4l-135 25q-23 3 -36.5 22.5t-8.5 42.5q45 197 206 197q43 0 115.5 -30t104.5 -30q36 0 47 29q6 12 17.5 19t23.5 4z" />
    <glyph glyph-name="Ograve" unicode="&#xd2;" horiz-adv-x="1597" 
d="M799 1458q211 0 380 -97t263 -266t94 -378q0 -210 -94 -380t-263 -267t-380 -97q-159 0 -296.5 57t-234 155.5t-152 236.5t-55.5 295q0 209 94 378t263.5 266t380.5 97zM799 385q144 0 228.5 93.5t84.5 238.5q0 144 -84.5 238t-228.5 94t-229 -94t-85 -238
q0 -145 85 -238.5t229 -93.5zM750 1898q27 0 49 -14t32 -39l95 -200q8 -18 -2.5 -35t-30.5 -17h-193q-47 0 -75 39l-144 209q-12 19 -2.5 38t31.5 19h240z" />
    <glyph glyph-name="Oacute" unicode="&#xd3;" horiz-adv-x="1597" 
d="M799 1458q211 0 380 -97t263 -266t94 -378q0 -210 -94 -380t-263 -267t-380 -97q-159 0 -296.5 57t-234 155.5t-152 236.5t-55.5 295q0 209 94 378t263.5 266t380.5 97zM799 385q144 0 228.5 93.5t84.5 238.5q0 144 -84.5 238t-228.5 94t-229 -94t-85 -238
q0 -145 85 -238.5t229 -93.5zM764 1845q26 53 84 53h237q22 0 32.5 -19t-1.5 -38l-145 -209q-25 -39 -74 -39h-192q-20 0 -31 17.5t-2 34.5z" />
    <glyph glyph-name="Ocircumflex" unicode="&#xd4;" horiz-adv-x="1597" 
d="M799 1458q211 0 380 -97t263 -266t94 -378q0 -210 -94 -380t-263 -267t-380 -97q-159 0 -296.5 57t-234 155.5t-152 236.5t-55.5 295q0 209 94 378t263.5 266t380.5 97zM799 385q144 0 228.5 93.5t84.5 238.5q0 144 -84.5 238t-228.5 94t-229 -94t-85 -238
q0 -145 85 -238.5t229 -93.5zM1153 1653q15 -19 4.5 -39.5t-33.5 -20.5h-182q-48 0 -74 37l-69 96l-70 -96q-29 -37 -74 -37h-184q-22 0 -32 20.5t3 39.5l166 211q27 34 72 34h235q48 0 72 -34z" />
    <glyph glyph-name="Otilde" unicode="&#xd5;" horiz-adv-x="1597" 
d="M799 1458q211 0 380 -97t263 -266t94 -378q0 -210 -94 -380t-263 -267t-380 -97q-159 0 -296.5 57t-234 155.5t-152 236.5t-55.5 295q0 209 94 378t263.5 266t380.5 97zM799 385q144 0 228.5 93.5t84.5 238.5q0 144 -84.5 238t-228.5 94t-229 -94t-85 -238
q0 -145 85 -238.5t229 -93.5zM967 1858l135 -23q23 -5 36 -24t9 -42q-19 -100 -65 -149t-124 -49q-55 0 -137 30.5t-102 30.5q-32 0 -47 -33q-4 -10 -15.5 -16t-23.5 -4l-135 25q-23 3 -36.5 22.5t-8.5 42.5q45 197 206 197q43 0 115.5 -30t104.5 -30q36 0 47 29
q6 12 17.5 19t23.5 4z" />
    <glyph glyph-name="Odieresis" unicode="&#xd6;" horiz-adv-x="1597" 
d="M799 1458q211 0 380 -97t263 -266t94 -378q0 -210 -94 -380t-263 -267t-380 -97q-159 0 -296.5 57t-234 155.5t-152 236.5t-55.5 295q0 209 94 378t263.5 266t380.5 97zM799 385q144 0 228.5 93.5t84.5 238.5q0 144 -84.5 238t-228.5 94t-229 -94t-85 -238
q0 -145 85 -238.5t229 -93.5zM557 1915q73 0 124.5 -52t51.5 -126t-51.5 -126t-124.5 -52t-125.5 52.5t-52.5 125.5t52.5 125.5t125.5 52.5zM1040 1915q74 0 126.5 -52.5t52.5 -125.5t-52.5 -125.5t-126.5 -52.5t-126 52.5t-52 125.5t52 125.5t126 52.5z" />
    <glyph glyph-name="multiply" unicode="&#xd7;" horiz-adv-x="1009" 
d="M866 481q22 -22 22 -52t-22 -50l-129 -129q-22 -22 -52 -22t-50 22l-129 129l-129 -129q-22 -22 -52.5 -22t-52.5 22l-129 129q-22 20 -22 50t22 52l129 129l-129 129q-22 22 -22 51.5t22 51.5l129 129q22 22 52.5 22t52.5 -22l129 -129l129 129q20 22 50 22t52 -22
l129 -129q22 -22 22 -51.5t-22 -51.5l-129 -129z" />
    <glyph glyph-name="Oslash" unicode="&#xd8;" horiz-adv-x="1597" 
d="M1386 1180q150 -195 150 -463q0 -209 -94 -378.5t-263 -266.5t-380 -97q-307 0 -514 197l-95 -84q-11 -10 -25.5 -9.5t-25.5 11.5l-24 27q-10 12 -9.5 27t11.5 24l94 86q-150 199 -150 463q0 210 94 379.5t263 266.5t381 97q305 0 516 -198l92 84q11 10 26.5 9t24.5 -12
l25 -26q10 -11 9.5 -26.5t-11.5 -24.5zM485 717q0 -100 41 -174l478 434q-82 72 -205 72q-144 0 -229 -93.5t-85 -238.5zM799 385q144 0 228.5 94t84.5 238q0 100 -41 174l-477 -434q82 -72 205 -72z" />
    <glyph glyph-name="Ugrave" unicode="&#xd9;" horiz-adv-x="1497" 
d="M1051 1434h241q37 0 63.5 -27t26.5 -64v-759q0 -310 -166 -459.5t-468 -149.5t-468.5 149.5t-166.5 459.5v759q0 37 26.5 64t63.5 27h241q38 0 65.5 -27t27.5 -64v-722q0 -118 55 -177t156 -59q100 0 155 59t55 177v722q0 37 27.5 64t65.5 27zM739 1898q27 0 49.5 -14.5
t32.5 -38.5l94 -200q8 -18 -2 -35t-30 -17h-193q-48 0 -76 39l-143 209q-12 19 -2.5 38t31.5 19h239z" />
    <glyph glyph-name="Uacute" unicode="&#xda;" horiz-adv-x="1497" 
d="M1051 1434h241q37 0 63.5 -27t26.5 -64v-759q0 -310 -166 -459.5t-468 -149.5t-468.5 149.5t-166.5 459.5v759q0 37 26.5 64t63.5 27h241q38 0 65.5 -27t27.5 -64v-722q0 -118 55 -177t156 -59q100 0 155 59t55 177v722q0 37 27.5 64t65.5 27zM713 1845q26 53 84 53h237
q22 0 32.5 -19t-1.5 -38l-145 -209q-25 -39 -74 -39h-193q-20 0 -30.5 17.5t-1.5 34.5z" />
    <glyph glyph-name="Ucircumflex" unicode="&#xdb;" horiz-adv-x="1497" 
d="M1051 1434h241q37 0 63.5 -27t26.5 -64v-759q0 -310 -166 -459.5t-468 -149.5t-468.5 149.5t-166.5 459.5v759q0 37 26.5 64t63.5 27h241q38 0 65.5 -27t27.5 -64v-722q0 -118 55 -177t156 -59q100 0 155 59t55 177v722q0 37 27.5 64t65.5 27zM1102 1653
q15 -19 4.5 -39.5t-33.5 -20.5h-182q-48 0 -74 37l-69 96l-70 -96q-29 -37 -74 -37h-184q-22 0 -32 20.5t3 39.5l166 211q27 34 72 34h235q48 0 72 -34z" />
    <glyph glyph-name="Udieresis" unicode="&#xdc;" horiz-adv-x="1497" 
d="M1051 1434h241q37 0 63.5 -27t26.5 -64v-759q0 -310 -166 -459.5t-468 -149.5t-468.5 149.5t-166.5 459.5v759q0 37 26.5 64t63.5 27h241q38 0 65.5 -27t27.5 -64v-722q0 -118 55 -177t156 -59q100 0 155 59t55 177v722q0 37 27.5 64t65.5 27zM506 1915q73 0 124.5 -52
t51.5 -126t-51.5 -126t-124.5 -52q-74 0 -126 52.5t-52 125.5t52 125.5t126 52.5zM989 1915q73 0 125.5 -52.5t52.5 -125.5t-52.5 -125.5t-125.5 -52.5t-125.5 52.5t-52.5 125.5t52.5 125.5t125.5 52.5z" />
    <glyph glyph-name="Yacute" unicode="&#xdd;" horiz-adv-x="1476" 
d="M1372 1434q32 0 48 -27t1 -55l-471 -811v-449q0 -38 -26 -65t-64 -27h-242q-38 0 -64 27t-26 65v449l-471 811q-15 28 1 55t48 27h304q68 0 98 -64l231 -493l232 493q30 64 98 64h303zM702 1845q26 53 84 53h238q22 0 32.5 -19t-1.5 -38l-146 -209q-25 -39 -73 -39h-193
q-20 0 -31 17.5t-2 34.5z" />
    <glyph glyph-name="Thorn" unicode="&#xde;" horiz-adv-x="1339" 
d="M700 1249q289 0 438.5 -143t149.5 -389t-149.5 -388.5t-438.5 -142.5h-163v-94q0 -38 -27 -65t-64 -27h-241q-38 0 -65 27t-27 65v1251q0 37 27 64t65 27h241q37 0 64 -27t27 -64v-94h163zM700 571q77 0 118.5 40.5t41.5 105.5q0 66 -41 105.5t-119 39.5h-163v-291h163z
" />
    <glyph glyph-name="germandbls" unicode="&#xdf;" horiz-adv-x="1228" 
d="M936 731q121 -44 186.5 -130.5t65.5 -213.5q0 -180 -116.5 -292.5t-323.5 -112.5q-62 0 -103 8q-20 3 -33.5 18t-13.5 35v207q0 22 16 37.5t39 15.5q79 0 123.5 35t44.5 102q0 72 -44.5 103.5t-125.5 34.5q-22 0 -37.5 16t-15.5 39v164q0 20 14 37t33 20q40 4 63 39
t23 80q0 57 -36 92t-89 35q-62 0 -98.5 -40.5t-36.5 -119.5v-866q0 -31 -21.5 -52.5t-52.5 -21.5h-223q-29 0 -50.5 21.5t-21.5 52.5v934q0 214 138 333t370 119q114 0 208 -37t153.5 -98.5t92 -138t32.5 -158.5q0 -205 -160 -297z" />
    <glyph glyph-name="agrave" unicode="&#xe0;" 
d="M795 983q0 23 16 39t39 16h242q29 0 50 -21t21 -52v-891q0 -31 -21 -52.5t-50 -21.5h-242q-23 0 -39 16t-16 39v29q-95 -109 -273 -109q-116 0 -210 46.5t-152 124t-88.5 173t-30.5 199.5t30.5 200t88.5 174t152 124.5t210 46.5q176 0 273 -109v29zM598 334q82 0 134 51
t52 133q0 83 -52 135t-134 52q-85 0 -135.5 -52t-50.5 -135q0 -81 50.5 -132.5t135.5 -51.5zM596 1489q27 0 49.5 -14.5t32.5 -38.5l94 -201q8 -18 -2.5 -34.5t-30.5 -16.5h-192q-48 0 -76 39l-143 209q-12 19 -3 38t31 19h240z" />
    <glyph glyph-name="aacute" unicode="&#xe1;" 
d="M795 983q0 23 16 39t39 16h242q29 0 50 -21t21 -52v-891q0 -31 -21 -52.5t-50 -21.5h-242q-23 0 -39 16t-16 39v29q-95 -109 -273 -109q-116 0 -210 46.5t-152 124t-88.5 173t-30.5 199.5t30.5 200t88.5 174t152 124.5t210 46.5q176 0 273 -109v29zM598 334q82 0 134 51
t52 133q0 83 -52 135t-134 52q-85 0 -135.5 -52t-50.5 -135q0 -81 50.5 -132.5t135.5 -51.5zM569 1436q26 53 84 53h238q22 0 32.5 -19t-1.5 -38l-146 -209q-25 -39 -74 -39h-192q-20 0 -31 17t-2 34z" />
    <glyph glyph-name="acircumflex" unicode="&#xe2;" 
d="M795 983q0 23 16 39t39 16h242q29 0 50 -21t21 -52v-891q0 -31 -21 -52.5t-50 -21.5h-242q-23 0 -39 16t-16 39v29q-95 -109 -273 -109q-116 0 -210 46.5t-152 124t-88.5 173t-30.5 199.5t30.5 200t88.5 174t152 124.5t210 46.5q176 0 273 -109v29zM598 334q82 0 134 51
t52 133q0 83 -52 135t-134 52q-85 0 -135.5 -52t-50.5 -135q0 -81 50.5 -132.5t135.5 -51.5zM999 1243q15 -19 5 -39t-33 -20h-183q-47 0 -73 37l-70 96l-70 -96q-29 -37 -73 -37h-185q-22 0 -31.5 20t3.5 39l166 211q27 35 71 35h236q48 0 72 -35z" />
    <glyph glyph-name="atilde" unicode="&#xe3;" 
d="M795 983q0 23 16 39t39 16h242q29 0 50 -21t21 -52v-891q0 -31 -21 -52.5t-50 -21.5h-242q-23 0 -39 16t-16 39v29q-95 -109 -273 -109q-116 0 -210 46.5t-152 124t-88.5 173t-30.5 199.5t30.5 200t88.5 174t152 124.5t210 46.5q176 0 273 -109v29zM598 334q82 0 134 51
t52 133q0 83 -52 135t-134 52q-85 0 -135.5 -52t-50.5 -135q0 -81 50.5 -132.5t135.5 -51.5zM811 1448l135 -23q23 -5 36 -23.5t9 -41.5q-19 -100 -64.5 -149.5t-123.5 -49.5q-55 0 -137.5 31t-102.5 31q-32 0 -47 -33q-4 -10 -15.5 -16.5t-23.5 -4.5l-135 25
q-23 3 -36.5 23t-8.5 43q45 196 207 196q43 0 115 -29.5t104 -29.5q36 0 47 28q6 12 17.5 19t23.5 4z" />
    <glyph glyph-name="adieresis" unicode="&#xe4;" 
d="M795 983q0 23 16 39t39 16h242q29 0 50 -21t21 -52v-891q0 -31 -21 -52.5t-50 -21.5h-242q-23 0 -39 16t-16 39v29q-95 -109 -273 -109q-116 0 -210 46.5t-152 124t-88.5 173t-30.5 199.5t30.5 200t88.5 174t152 124.5t210 46.5q176 0 273 -109v29zM598 334q82 0 134 51
t52 133q0 83 -52 135t-134 52q-85 0 -135.5 -52t-50.5 -135q0 -81 50.5 -132.5t135.5 -51.5zM403 1505q73 0 125 -52t52 -126t-52 -126t-125 -52t-125.5 52.5t-52.5 125.5t52.5 125.5t125.5 52.5zM887 1505q73 0 125.5 -52.5t52.5 -125.5t-52.5 -125.5t-125.5 -52.5
t-125.5 52.5t-52.5 125.5t52.5 125.5t125.5 52.5z" />
    <glyph glyph-name="aring" unicode="&#xe5;" 
d="M795 983q0 23 16 39t39 16h242q29 0 50 -21t21 -52v-891q0 -31 -21 -52.5t-50 -21.5h-242q-23 0 -39 16t-16 39v29q-95 -109 -273 -109q-116 0 -210 46.5t-152 124t-88.5 173t-30.5 199.5t30.5 200t88.5 174t152 124.5t210 46.5q176 0 273 -109v29zM598 334q82 0 134 51
t52 133q0 83 -52 135t-134 52q-85 0 -135.5 -52t-50.5 -135q0 -81 50.5 -132.5t135.5 -51.5zM625 1616q104 0 178 -73.5t74 -176.5q0 -104 -74 -178t-178 -74t-178 74t-74 178q0 103 74 176.5t178 73.5zM625 1278q35 0 60.5 25.5t25.5 62.5q0 35 -25.5 60.5t-60.5 25.5
t-61.5 -25.5t-26.5 -60.5q0 -36 26 -62t62 -26z" />
    <glyph glyph-name="ae" unicode="&#xe6;" horiz-adv-x="2095" 
d="M1518 1063q110 0 207 -38t172 -108.5t117 -181t38 -246.5q-2 -30 -23 -50.5t-51 -20.5h-649q22 -76 79.5 -117t147.5 -41q96 0 166 59q28 25 64 7l162 -97q21 -13 25 -38.5t-11 -45.5q-67 -78 -173 -124t-233 -46q-244 0 -391 129v-49q0 -23 -16 -39t-39 -16h-260
q-23 0 -39 16t-16 39v29q-91 -109 -271 -109q-94 0 -174 30.5t-136 83t-95.5 122t-58.5 147.5t-19 160q0 83 19 161t58.5 148t95.5 122.5t136 83t174 30.5q177 0 271 -109v29q0 23 16 39t39 16h260q23 0 39 -16t16 -39v-47q143 127 353 127zM598 334q83 0 134.5 51t51.5 133
q0 83 -51.5 135t-134.5 52q-85 0 -134.5 -52t-49.5 -135q0 -81 49.5 -132.5t134.5 -51.5zM1329 618h381q-15 75 -64.5 117.5t-127.5 42.5q-69 0 -118.5 -43.5t-70.5 -116.5z" />
    <glyph glyph-name="ccedilla" unicode="&#xe7;" horiz-adv-x="1073" 
d="M598 334q81 0 133 49q12 13 31.5 15t34.5 -7l227 -139q21 -12 25 -36.5t-13 -45.5q-71 -89 -178 -140t-237 -55l-33 -65h6q102 0 171 -52.5t69 -156.5q0 -115 -76.5 -169t-196.5 -54q-111 0 -201 39q-23 9 -30.5 31t4.5 44l47 84q6 12 19.5 16.5t25.5 -1.5q44 -19 80 -19
q76 0 76 62q0 57 -68 57q-17 0 -25 -2q-20 -6 -38 12l-19 27q-20 26 -6 57l51 101q-196 37 -316 182.5t-120 349.5q0 238 157 391.5t400 153.5q136 0 250 -52t190 -145q15 -19 10.5 -43.5t-24.5 -36.5l-227 -139q-15 -9 -34.5 -7.5t-31.5 13.5q-52 52 -133 52t-133.5 -51
t-52.5 -136q0 -83 52.5 -133.5t133.5 -50.5z" />
    <glyph glyph-name="egrave" unicode="&#xe8;" horiz-adv-x="1167" 
d="M590 1063q110 0 207 -38t171.5 -108.5t116 -181t37.5 -246.5q0 -29 -21 -50t-50 -21h-652q24 -76 82 -117t148 -41q96 0 166 59q25 25 61 7l162 -97q21 -13 25 -38.5t-11 -45.5q-65 -77 -171 -123.5t-232 -46.5q-263 0 -425.5 150t-162.5 393q0 151 70 275.5t196.5 197
t282.5 72.5zM399 618h383q-38 160 -192 160q-70 0 -119 -43.5t-72 -116.5zM555 1489q27 0 49.5 -14.5t32.5 -38.5l94 -201q8 -18 -2.5 -34.5t-30.5 -16.5h-192q-48 0 -76 39l-143 209q-12 19 -3 38t31 19h240z" />
    <glyph glyph-name="eacute" unicode="&#xe9;" horiz-adv-x="1167" 
d="M590 1063q110 0 207 -38t171.5 -108.5t116 -181t37.5 -246.5q0 -29 -21 -50t-50 -21h-652q24 -76 82 -117t148 -41q96 0 166 59q25 25 61 7l162 -97q21 -13 25 -38.5t-11 -45.5q-65 -77 -171 -123.5t-232 -46.5q-263 0 -425.5 150t-162.5 393q0 151 70 275.5t196.5 197
t282.5 72.5zM399 618h383q-38 160 -192 160q-70 0 -119 -43.5t-72 -116.5zM528 1436q26 53 84 53h238q22 0 32.5 -19t-1.5 -38l-146 -209q-25 -39 -73 -39h-193q-20 0 -31 17t-2 34z" />
    <glyph glyph-name="ecircumflex" unicode="&#xea;" horiz-adv-x="1167" 
d="M590 1063q110 0 207 -38t171.5 -108.5t116 -181t37.5 -246.5q0 -29 -21 -50t-50 -21h-652q24 -76 82 -117t148 -41q96 0 166 59q25 25 61 7l162 -97q21 -13 25 -38.5t-11 -45.5q-65 -77 -171 -123.5t-232 -46.5q-263 0 -425.5 150t-162.5 393q0 151 70 275.5t196.5 197
t282.5 72.5zM399 618h383q-38 160 -192 160q-70 0 -119 -43.5t-72 -116.5zM938 1243q15 -19 4.5 -39t-33.5 -20h-182q-48 0 -74 37l-69 96l-70 -96q-29 -37 -74 -37h-184q-22 0 -32 20t3 39l166 211q27 35 72 35h235q48 0 72 -35z" />
    <glyph glyph-name="edieresis" unicode="&#xeb;" horiz-adv-x="1167" 
d="M590 1063q110 0 207 -38t171.5 -108.5t116 -181t37.5 -246.5q0 -29 -21 -50t-50 -21h-652q24 -76 82 -117t148 -41q96 0 166 59q25 25 61 7l162 -97q21 -13 25 -38.5t-11 -45.5q-65 -77 -171 -123.5t-232 -46.5q-263 0 -425.5 150t-162.5 393q0 151 70 275.5t196.5 197
t282.5 72.5zM399 618h383q-38 160 -192 160q-70 0 -119 -43.5t-72 -116.5zM342 1505q73 0 124.5 -52t51.5 -126t-51.5 -126t-124.5 -52q-74 0 -126 52.5t-52 125.5t52 125.5t126 52.5zM825 1505q74 0 126.5 -52.5t52.5 -125.5t-52.5 -125.5t-126.5 -52.5q-73 0 -125.5 52.5
t-52.5 125.5t52.5 125.5t125.5 52.5z" />
    <glyph glyph-name="igrave" unicode="&#xec;" horiz-adv-x="573" 
d="M176 0q-31 0 -52.5 21.5t-21.5 52.5v891q0 31 21.5 52t52.5 21h223q29 0 50.5 -21t21.5 -52v-891q0 -31 -21.5 -52.5t-50.5 -21.5h-223zM238 1489q27 0 49 -14t32 -39l95 -201q8 -18 -2.5 -34.5t-30.5 -16.5h-193q-47 0 -75 39l-144 209q-12 19 -2.5 38t31.5 19h240z" />
    <glyph glyph-name="iacute" unicode="&#xed;" horiz-adv-x="573" 
d="M176 0q-31 0 -52.5 21.5t-21.5 52.5v891q0 31 21.5 52t52.5 21h223q29 0 50.5 -21t21.5 -52v-891q0 -31 -21.5 -52.5t-50.5 -21.5h-223zM252 1436q26 53 84 53h237q22 0 32.5 -19t-1.5 -38l-145 -209q-25 -39 -74 -39h-192q-20 0 -31 17t-2 34z" />
    <glyph glyph-name="icircumflex" unicode="&#xee;" horiz-adv-x="573" 
d="M176 0q-31 0 -52.5 21.5t-21.5 52.5v891q0 31 21.5 52t52.5 21h223q29 0 50.5 -21t21.5 -52v-891q0 -31 -21.5 -52.5t-50.5 -21.5h-223zM641 1243q15 -19 4.5 -39t-33.5 -20h-182q-48 0 -74 37l-69 96l-70 -96q-29 -37 -74 -37h-184q-22 0 -32 20t3 39l166 211
q27 35 72 35h235q48 0 72 -35z" />
    <glyph glyph-name="idieresis" unicode="&#xef;" horiz-adv-x="573" 
d="M176 0q-31 0 -52.5 21.5t-21.5 52.5v891q0 31 21.5 52t52.5 21h223q29 0 50.5 -21t21.5 -52v-891q0 -31 -21.5 -52.5t-50.5 -21.5h-223zM45 1505q73 0 124.5 -52t51.5 -126t-51.5 -126t-124.5 -52t-125.5 52.5t-52.5 125.5t52.5 125.5t125.5 52.5zM528 1505
q74 0 126.5 -52.5t52.5 -125.5t-52.5 -125.5t-126.5 -52.5t-126 52.5t-52 125.5t52 125.5t126 52.5z" />
    <glyph glyph-name="eth" unicode="&#xf0;" horiz-adv-x="1187" 
d="M811 1276q336 -328 336 -744q0 -260 -154.5 -408.5t-404.5 -148.5q-128 0 -233 40.5t-173.5 111.5t-105.5 166t-37 205q0 215 137.5 341t355.5 126q123 0 201 -47l2 2q-51 107 -192 225l-230 -111q-12 -7 -26.5 -2t-20.5 19l-16 32q-7 14 -2.5 28t18.5 22l180 88
q-65 45 -151 94q-28 15 -29.5 45t23.5 49l139 94q35 25 78 4q121 -72 217 -151l207 100q13 6 28 1.5t21 -17.5l16 -33q6 -14 1 -28.5t-17 -20.5zM588 322q77 0 126.5 50.5t49.5 125.5q0 74 -51 124t-125 50q-72 0 -124 -51t-52 -123q0 -75 50 -125.5t126 -50.5z" />
    <glyph glyph-name="ntilde" unicode="&#xf1;" horiz-adv-x="1236" 
d="M756 1063q93 0 164 -29t111 -72t65 -102t33 -109t8 -102v-575q0 -31 -21.5 -52.5t-52.5 -21.5h-223q-29 0 -50.5 21.5t-21.5 52.5v485q0 63 -40 103t-107 40q-68 0 -108 -40t-40 -103v-485q0 -31 -21.5 -52.5t-52.5 -21.5h-223q-31 0 -52.5 21.5t-21.5 52.5v891
q0 31 21.5 52t52.5 21h242q23 0 39 -16t16 -39v-55q97 135 283 135zM786 1448l136 -23q23 -5 36 -23.5t9 -41.5q-19 -100 -65 -149.5t-124 -49.5q-55 0 -137 31t-102 31q-32 0 -47 -33q-4 -10 -15.5 -16.5t-23.5 -4.5l-136 25q-23 3 -36.5 23t-8.5 43q45 196 207 196
q43 0 115 -29.5t104 -29.5q36 0 47 28q6 12 17.5 19t23.5 4z" />
    <glyph glyph-name="ograve" unicode="&#xf2;" horiz-adv-x="1196" 
d="M598 1063q243 0 400 -153.5t157 -391.5t-157 -391.5t-400 -153.5t-400 153.5t-157 391.5t157 391.5t400 153.5zM598 334q81 0 132.5 49.5t51.5 134.5t-51.5 136t-132.5 51t-133.5 -51t-52.5 -136q0 -84 52.5 -134t133.5 -50zM549 1489q27 0 49.5 -14.5t32.5 -38.5
l94 -201q8 -18 -2.5 -34.5t-30.5 -16.5h-192q-48 0 -76 39l-143 209q-12 19 -3 38t31 19h240z" />
    <glyph glyph-name="oacute" unicode="&#xf3;" horiz-adv-x="1196" 
d="M598 1063q243 0 400 -153.5t157 -391.5t-157 -391.5t-400 -153.5t-400 153.5t-157 391.5t157 391.5t400 153.5zM598 334q81 0 132.5 49.5t51.5 134.5t-51.5 136t-132.5 51t-133.5 -51t-52.5 -136q0 -84 52.5 -134t133.5 -50zM543 1436q26 53 84 53h237q22 0 32.5 -19
t-1.5 -38l-145 -209q-25 -39 -74 -39h-193q-20 0 -30.5 17t-1.5 34z" />
    <glyph glyph-name="ocircumflex" unicode="&#xf4;" horiz-adv-x="1196" 
d="M598 1063q243 0 400 -153.5t157 -391.5t-157 -391.5t-400 -153.5t-400 153.5t-157 391.5t157 391.5t400 153.5zM598 334q81 0 132.5 49.5t51.5 134.5t-51.5 136t-132.5 51t-133.5 -51t-52.5 -136q0 -84 52.5 -134t133.5 -50zM952 1243q15 -19 5 -39t-33 -20h-183
q-47 0 -73 37l-70 96l-70 -96q-29 -37 -73 -37h-185q-22 0 -31.5 20t3.5 39l166 211q27 35 71 35h236q47 0 71 -35z" />
    <glyph glyph-name="otilde" unicode="&#xf5;" horiz-adv-x="1196" 
d="M598 1063q243 0 400 -153.5t157 -391.5t-157 -391.5t-400 -153.5t-400 153.5t-157 391.5t157 391.5t400 153.5zM598 334q81 0 132.5 49.5t51.5 134.5t-51.5 136t-132.5 51t-133.5 -51t-52.5 -136q0 -84 52.5 -134t133.5 -50zM766 1448l135 -23q23 -5 36 -23.5t9 -41.5
q-19 -100 -64.5 -149.5t-123.5 -49.5q-55 0 -137.5 31t-102.5 31q-32 0 -47 -33q-4 -10 -15.5 -16.5t-23.5 -4.5l-135 25q-23 3 -36.5 23t-8.5 43q45 196 207 196q43 0 115 -29.5t104 -29.5q36 0 47 28q6 12 17.5 19t23.5 4z" />
    <glyph glyph-name="odieresis" unicode="&#xf6;" horiz-adv-x="1196" 
d="M598 1063q243 0 400 -153.5t157 -391.5t-157 -391.5t-400 -153.5t-400 153.5t-157 391.5t157 391.5t400 153.5zM598 334q81 0 132.5 49.5t51.5 134.5t-51.5 136t-132.5 51t-133.5 -51t-52.5 -136q0 -84 52.5 -134t133.5 -50zM356 1505q73 0 124.5 -52t51.5 -126
t-51.5 -126t-124.5 -52q-74 0 -126 52.5t-52 125.5t52 125.5t126 52.5zM840 1505q74 0 126 -52.5t52 -125.5t-52 -125.5t-126 -52.5t-126 52.5t-52 125.5t52 125.5t126 52.5z" />
    <glyph glyph-name="divide" unicode="&#xf7;" horiz-adv-x="1064" 
d="M113 684q0 30 21.5 51t51.5 21h693q31 0 52 -21t21 -51v-147q0 -29 -21 -50.5t-52 -21.5h-693q-30 0 -51.5 21.5t-21.5 50.5v147zM532 358q70 0 120 -50t50 -120q0 -71 -50 -121.5t-120 -50.5t-120 50.5t-50 121.5q0 70 50 120t120 50zM532 862q-70 0 -120 50t-50 120
q0 71 50 121.5t120 50.5t120 -50.5t50 -121.5q0 -70 -50 -120t-120 -50z" />
    <glyph glyph-name="oslash" unicode="&#xf8;" horiz-adv-x="1196" 
d="M1049 854q108 -143 108 -336q0 -236 -157 -389.5t-400 -153.5q-224 0 -375 129l-69 -65q-12 -9 -28 -8.5t-26 12.5l-24 27q-9 10 -8.5 25.5t12.5 25.5l68 63q-109 144 -109 334q0 238 157.5 391.5t401.5 153.5q222 0 373 -129l69 63q12 11 28 10.5t26 -12.5l24 -26
q9 -10 8.5 -25.5t-12.5 -25.5zM414 518q0 -40 16 -80l266 244q-48 23 -96 23q-81 0 -133.5 -51t-52.5 -136zM600 334q80 0 132 50.5t52 133.5q0 42 -16 82l-266 -244q46 -22 98 -22z" />
    <glyph glyph-name="ugrave" unicode="&#xf9;" horiz-adv-x="1239" 
d="M840 1038h223q31 0 52.5 -21t21.5 -52v-891q0 -31 -21.5 -52.5t-52.5 -21.5h-242q-22 0 -37.5 16t-15.5 39v56q-95 -136 -285 -136q-67 0 -123 15t-94.5 40t-68.5 60t-47.5 72t-28.5 79t-15 77t-4 71v576q0 31 21.5 52t52.5 21h223q31 0 52.5 -21t21.5 -52v-486
q0 -63 40 -103t108 -40q67 0 107 40t40 103v486q0 31 21 52t51 21zM610 1489q27 0 49.5 -14.5t32.5 -38.5l94 -201q8 -18 -2 -34.5t-30 -16.5h-193q-48 0 -76 39l-143 209q-12 19 -2.5 38t31.5 19h239z" />
    <glyph glyph-name="uacute" unicode="&#xfa;" horiz-adv-x="1239" 
d="M840 1038h223q31 0 52.5 -21t21.5 -52v-891q0 -31 -21.5 -52.5t-52.5 -21.5h-242q-22 0 -37.5 16t-15.5 39v56q-95 -136 -285 -136q-67 0 -123 15t-94.5 40t-68.5 60t-47.5 72t-28.5 79t-15 77t-4 71v576q0 31 21.5 52t52.5 21h223q31 0 52.5 -21t21.5 -52v-486
q0 -63 40 -103t108 -40q67 0 107 40t40 103v486q0 31 21 52t51 21zM584 1436q26 53 84 53h237q22 0 32.5 -19t-1.5 -38l-145 -209q-25 -39 -74 -39h-193q-20 0 -30.5 17t-1.5 34z" />
    <glyph glyph-name="ucircumflex" unicode="&#xfb;" horiz-adv-x="1239" 
d="M840 1038h223q31 0 52.5 -21t21.5 -52v-891q0 -31 -21.5 -52.5t-52.5 -21.5h-242q-22 0 -37.5 16t-15.5 39v56q-95 -136 -285 -136q-67 0 -123 15t-94.5 40t-68.5 60t-47.5 72t-28.5 79t-15 77t-4 71v576q0 31 21.5 52t52.5 21h223q31 0 52.5 -21t21.5 -52v-486
q0 -63 40 -103t108 -40q67 0 107 40t40 103v486q0 31 21 52t51 21zM973 1243q15 -19 4.5 -39t-33.5 -20h-182q-48 0 -74 37l-70 96l-69 -96q-29 -37 -74 -37h-184q-22 0 -32 20t3 39l166 211q27 35 72 35h235q48 0 72 -35z" />
    <glyph glyph-name="udieresis" unicode="&#xfc;" horiz-adv-x="1239" 
d="M840 1038h223q31 0 52.5 -21t21.5 -52v-891q0 -31 -21.5 -52.5t-52.5 -21.5h-242q-22 0 -37.5 16t-15.5 39v56q-95 -136 -285 -136q-67 0 -123 15t-94.5 40t-68.5 60t-47.5 72t-28.5 79t-15 77t-4 71v576q0 31 21.5 52t52.5 21h223q31 0 52.5 -21t21.5 -52v-486
q0 -63 40 -103t108 -40q67 0 107 40t40 103v486q0 31 21 52t51 21zM377 1505q73 0 124.5 -52t51.5 -126t-51.5 -126t-124.5 -52t-125.5 52.5t-52.5 125.5t52.5 125.5t125.5 52.5zM860 1505q74 0 126 -52.5t52 -125.5t-52 -125.5t-126 -52.5t-126 52.5t-52 125.5t52 125.5
t126 52.5z" />
    <glyph glyph-name="yacute" unicode="&#xfd;" horiz-adv-x="1185" 
d="M764 977q9 28 33 44.5t53 16.5h246q29 0 45 -23.5t6 -51.5q-303 -757 -383 -963q-14 -36 -22.5 -56t-25.5 -57.5t-30 -60.5t-34.5 -56t-42 -53.5t-49 -44t-58 -36.5t-66.5 -22t-78 -9q-52 0 -114 10q-20 4 -32.5 19.5t-12.5 35.5v203q0 22 16 37.5t39 15.5
q124 -3 170 135q-6 16 -78.5 187t-171 403.5t-131.5 311.5q-11 27 5 51t46 24h242q29 0 52 -16.5t34 -44.5l170 -479zM537 1436q26 53 84 53h237q22 0 32.5 -19t-1.5 -38l-146 -209q-25 -39 -73 -39h-193q-20 0 -31 17t-2 34z" />
    <glyph glyph-name="thorn" unicode="&#xfe;" horiz-adv-x="1267" 
d="M743 1063q116 0 210.5 -46.5t153 -124.5t89.5 -174t31 -200q0 -103 -31 -199t-89.5 -173.5t-153 -124t-210.5 -46.5q-177 0 -272 109v-408q0 -29 -21.5 -50t-50.5 -21h-223q-31 0 -52.5 21t-21.5 50v1684q0 31 21.5 52.5t52.5 21.5h223q29 0 50.5 -21.5t21.5 -52.5v-406
q97 109 272 109zM668 334q85 0 135.5 51.5t50.5 132.5q0 83 -50.5 135t-135.5 52q-82 0 -133.5 -52t-51.5 -135q0 -82 51.5 -133t133.5 -51z" />
    <glyph glyph-name="ydieresis" unicode="&#xff;" horiz-adv-x="1185" 
d="M764 977q9 28 33 44.5t53 16.5h246q29 0 45 -23.5t6 -51.5q-303 -757 -383 -963q-14 -36 -22.5 -56t-25.5 -57.5t-30 -60.5t-34.5 -56t-42 -53.5t-49 -44t-58 -36.5t-66.5 -22t-78 -9q-52 0 -114 10q-20 4 -32.5 19.5t-12.5 35.5v203q0 22 16 37.5t39 15.5
q124 -3 170 135q-6 16 -78.5 187t-171 403.5t-131.5 311.5q-11 27 5 51t46 24h242q29 0 52 -16.5t34 -44.5l170 -479zM350 1505q73 0 124.5 -52t51.5 -126t-51.5 -126t-124.5 -52q-74 0 -126 52.5t-52 125.5t52 125.5t126 52.5zM834 1505q74 0 126 -52.5t52 -125.5
t-52 -125.5t-126 -52.5t-126.5 52.5t-52.5 125.5t52.5 125.5t126.5 52.5z" />
    <glyph glyph-name="Amacron" unicode="&#x100;" horiz-adv-x="1503" 
d="M1104 0q-31 0 -56 19t-32 49l-45 163h-439l-45 -163q-7 -30 -32 -49t-56 -19h-288q-37 0 -58.5 30.5t-9.5 65.5l422 1264q11 32 40 53t64 21h365q35 0 64 -21t40 -53l422 -1264q12 -35 -9.5 -65.5t-59.5 -30.5h-287zM616 532h271l-135 490zM436 1792q0 31 21.5 51.5
t52.5 20.5h487q30 0 51 -21t21 -51v-111q0 -29 -21.5 -50t-50.5 -21h-487q-31 0 -52.5 21t-21.5 50v111z" />
    <glyph glyph-name="amacron" unicode="&#x101;" 
d="M795 983q0 23 16 39t39 16h242q29 0 50 -21t21 -52v-891q0 -31 -21 -52.5t-50 -21.5h-242q-23 0 -39 16t-16 39v29q-95 -109 -273 -109q-116 0 -210 46.5t-152 124t-88.5 173t-30.5 199.5t30.5 200t88.5 174t152 124.5t210 46.5q176 0 273 -109v29zM598 334q82 0 134 51
t52 133q0 83 -52 135t-134 52q-85 0 -135.5 -52t-50.5 -135q0 -81 50.5 -132.5t135.5 -51.5zM328 1382q0 31 21 51.5t52 20.5h488q30 0 51 -21t21 -51v-110q0 -29 -21.5 -50.5t-50.5 -21.5h-488q-31 0 -52 21t-21 51v110z" />
    <glyph glyph-name="Abreve" unicode="&#x102;" horiz-adv-x="1503" 
d="M1104 0q-31 0 -56 19t-32 49l-45 163h-439l-45 -163q-7 -30 -32 -49t-56 -19h-288q-37 0 -58.5 30.5t-9.5 65.5l422 1264q11 32 40 53t64 21h365q35 0 64 -21t40 -53l422 -1264q12 -35 -9.5 -65.5t-59.5 -30.5h-287zM616 532h271l-135 490zM905 1890h131q25 0 41.5 -18.5
t12.5 -42.5q-19 -122 -110.5 -192t-227.5 -70t-227 70t-111 192q-4 24 12 42.5t41 18.5h131q19 0 33.5 -10t19.5 -25q19 -69 101 -69q83 0 102 69q4 15 19 25t32 10z" />
    <glyph glyph-name="abreve" unicode="&#x103;" 
d="M795 983q0 23 16 39t39 16h242q29 0 50 -21t21 -52v-891q0 -31 -21 -52.5t-50 -21.5h-242q-23 0 -39 16t-16 39v29q-95 -109 -273 -109q-116 0 -210 46.5t-152 124t-88.5 173t-30.5 199.5t30.5 200t88.5 174t152 124.5t210 46.5q176 0 273 -109v29zM598 334q82 0 134 51
t52 133q0 83 -52 135t-134 52q-85 0 -135.5 -52t-50.5 -135q0 -81 50.5 -132.5t135.5 -51.5zM776 1481h131q25 0 41.5 -19t12.5 -43q-19 -122 -110.5 -192t-227.5 -70t-227 70t-111 192q-4 25 12 43.5t41 18.5h131q19 0 33.5 -10t19.5 -25q20 -70 101 -70q82 0 102 70
q4 15 19 25t32 10z" />
    <glyph glyph-name="Aogonek" unicode="&#x104;" horiz-adv-x="1503" 
d="M1327 -197q0 -44 27 -71t80 -27h18q17 1 29 -9.5t12 -25.5v-102q0 -19 -11 -32.5t-28 -18.5q-67 -19 -135 -19q-118 0 -189 53.5t-71 153.5q0 96 59.5 174t132.5 121h-147q-31 0 -56 19t-32 49l-45 163h-439l-45 -163q-7 -30 -32 -49t-56 -19h-286q-38 0 -60 30.5
t-10 65.5l422 1264q11 32 40 53t64 21h365q35 0 64 -21t40 -53l437 -1303q7 -25 -1 -47.5t-28 -36.5q-119 -76 -119 -170zM616 532h271l-135 490z" />
    <glyph glyph-name="aogonek" unicode="&#x105;" 
d="M1161 43q0 -43 -35 -61q-55 -34 -92 -80.5t-37 -98.5q0 -44 26 -71t79 -27h20q15 2 27 -9t12 -26v-102q0 -42 -39 -51q-66 -19 -135 -19q-118 0 -189 53.5t-71 153.5q0 96 60 174t133 121h-72q-23 0 -39 16t-16 39v29q-91 -109 -271 -109q-94 0 -174 30.5t-136 83
t-95.5 122t-58.5 147.5t-19 160q0 83 19 161t58.5 148t95.5 122.5t136 83t174 30.5q177 0 271 -109v29q0 23 16 39t39 16h242q29 0 50 -21t21 -52v-922zM596 334q83 0 134.5 51t51.5 133q0 83 -51.5 135t-134.5 52q-85 0 -134.5 -52t-49.5 -135q0 -81 49.5 -132.5
t134.5 -51.5z" />
    <glyph glyph-name="Cacute" unicode="&#x106;" horiz-adv-x="1421" 
d="M799 385q129 0 213 78q19 17 43.5 19.5t46.5 -11.5l231 -154q28 -19 33 -51t-18 -57q-100 -111 -241.5 -172.5t-307.5 -61.5q-211 0 -380.5 97t-263.5 266.5t-94 378.5q0 210 94 379.5t263 266.5t381 97q166 0 307.5 -62t241.5 -173q23 -25 18 -57.5t-33 -51.5l-231 -153
q-22 -14 -46.5 -11.5t-43.5 19.5q-84 78 -213 78q-144 0 -229 -93.5t-85 -238.5q0 -144 85 -238t229 -94zM717 1845q26 53 84 53h237q22 0 32.5 -19t-1.5 -38l-145 -209q-25 -39 -74 -39h-193q-20 0 -30.5 17.5t-1.5 34.5z" />
    <glyph glyph-name="cacute" unicode="&#x107;" horiz-adv-x="1073" 
d="M600 334q78 0 133 49q26 29 66 8l225 -139q21 -12 25 -36.5t-11 -43.5q-74 -93 -188 -145t-250 -52q-244 0 -401.5 153t-157.5 390q0 238 157.5 391.5t401.5 153.5q136 0 250 -52t188 -145q15 -19 11 -43.5t-25 -36.5l-225 -139q-17 -9 -35.5 -7.5t-30.5 13.5
q-55 52 -133 52q-81 0 -133.5 -51t-52.5 -136q0 -83 52.5 -133.5t133.5 -50.5zM522 1436q26 53 84 53h238q22 0 32 -19t-2 -38l-145 -209q-25 -39 -74 -39h-192q-20 0 -31 17t-2 34z" />
    <glyph glyph-name="Ccircumflex" unicode="&#x108;" horiz-adv-x="1421" 
d="M799 385q129 0 213 78q19 17 43.5 19.5t46.5 -11.5l231 -154q28 -19 33 -51t-18 -57q-100 -111 -241.5 -172.5t-307.5 -61.5q-211 0 -380.5 97t-263.5 266.5t-94 378.5q0 210 94 379.5t263 266.5t381 97q166 0 307.5 -62t241.5 -173q23 -25 18 -57.5t-33 -51.5l-231 -153
q-22 -14 -46.5 -11.5t-43.5 19.5q-84 78 -213 78q-144 0 -229 -93.5t-85 -238.5q0 -144 85 -238t229 -94zM1126 1653q15 -19 5 -39.5t-33 -20.5h-183q-47 0 -73 37l-70 96l-70 -96q-29 -37 -73 -37h-185q-22 0 -31.5 20.5t3.5 39.5l166 211q27 34 71 34h236q48 0 72 -34z
" />
    <glyph glyph-name="ccircumflex" unicode="&#x109;" horiz-adv-x="1073" 
d="M600 334q78 0 133 49q26 29 66 8l225 -139q21 -12 25 -36.5t-11 -43.5q-74 -93 -188 -145t-250 -52q-244 0 -401.5 153t-157.5 390q0 238 157.5 391.5t401.5 153.5q136 0 250 -52t188 -145q15 -19 11 -43.5t-25 -36.5l-225 -139q-17 -9 -35.5 -7.5t-30.5 13.5
q-55 52 -133 52q-81 0 -133.5 -51t-52.5 -136q0 -83 52.5 -133.5t133.5 -50.5zM932 1243q15 -19 4.5 -39t-33.5 -20h-182q-48 0 -74 37l-69 96l-70 -96q-29 -37 -74 -37h-184q-22 0 -32 20t3 39l166 211q27 35 72 35h235q48 0 72 -35z" />
    <glyph glyph-name="Cdotaccent" unicode="&#x10a;" horiz-adv-x="1421" 
d="M799 385q129 0 213 78q19 17 43.5 19.5t46.5 -11.5l231 -154q28 -19 33 -51t-18 -57q-100 -111 -241.5 -172.5t-307.5 -61.5q-211 0 -380.5 97t-263.5 266.5t-94 378.5q0 210 94 379.5t263 266.5t381 97q166 0 307.5 -62t241.5 -173q23 -25 18 -57.5t-33 -51.5l-231 -153
q-22 -14 -46.5 -11.5t-43.5 19.5q-84 78 -213 78q-144 0 -229 -93.5t-85 -238.5q0 -144 85 -238t229 -94zM772 1915q73 0 124.5 -52t51.5 -126t-51.5 -126t-124.5 -52q-74 0 -126 52.5t-52 125.5t52 125.5t126 52.5z" />
    <glyph glyph-name="cdotaccent" unicode="&#x10b;" horiz-adv-x="1032" 
d="M559 334q78 0 133 49q26 29 66 8l225 -139q21 -12 25 -36.5t-11 -43.5q-74 -93 -188 -145t-250 -52q-244 0 -401.5 153t-157.5 390q0 238 157.5 391.5t401.5 153.5q136 0 250 -52t188 -145q15 -19 11 -43.5t-25 -36.5l-225 -139q-17 -9 -35.5 -7.5t-30.5 13.5
q-55 52 -133 52q-81 0 -133.5 -51t-52.5 -136q0 -83 52.5 -133.5t133.5 -50.5zM537 1505q73 0 124.5 -52t51.5 -126t-51.5 -126t-124.5 -52q-74 0 -126.5 52.5t-52.5 125.5t52.5 125.5t126.5 52.5z" />
    <glyph glyph-name="Ccaron" unicode="&#x10c;" horiz-adv-x="1421" 
d="M799 385q129 0 213 78q19 17 43.5 19.5t46.5 -11.5l231 -154q28 -19 33 -51t-18 -57q-100 -111 -241.5 -172.5t-307.5 -61.5q-211 0 -380.5 97t-263.5 266.5t-94 378.5q0 210 94 379.5t263 266.5t381 97q166 0 307.5 -62t241.5 -173q23 -25 18 -57.5t-33 -51.5l-231 -153
q-22 -14 -46.5 -11.5t-43.5 19.5q-84 78 -213 78q-144 0 -229 -93.5t-85 -238.5q0 -144 85 -238t229 -94zM418 1839q-15 19 -5 39t33 20h183q45 0 73 -36l70 -97l70 97q25 36 73 36h183q23 0 33 -20t-5 -39l-165 -211q-24 -35 -72 -35h-234q-47 0 -71 35z" />
    <glyph glyph-name="ccaron" unicode="&#x10d;" horiz-adv-x="1073" 
d="M600 334q78 0 133 49q26 29 66 8l225 -139q21 -12 25 -36.5t-11 -43.5q-74 -93 -188 -145t-250 -52q-244 0 -401.5 153t-157.5 390q0 238 157.5 391.5t401.5 153.5q136 0 250 -52t188 -145q15 -19 11 -43.5t-25 -36.5l-225 -139q-17 -9 -35.5 -7.5t-30.5 13.5
q-55 52 -133 52q-81 0 -133.5 -51t-52.5 -136q0 -83 52.5 -133.5t133.5 -50.5zM223 1430q-15 19 -4.5 39t33.5 20h182q45 0 74 -37l70 -96l69 96q26 37 74 37h182q23 0 33.5 -20t-4.5 -39l-166 -211q-24 -35 -72 -35h-233q-48 0 -72 35z" />
    <glyph glyph-name="Dcaron" unicode="&#x10e;" horiz-adv-x="1490" 
d="M659 1434q358 0 565.5 -192t207.5 -525t-207.5 -525t-565.5 -192h-454q-38 0 -65 27t-27 65v1251q0 37 27 64t65 27h454zM659 385q167 0 258 88.5t91 243.5t-91 243.5t-258 88.5h-122v-664h122zM354 1839q-15 19 -4.5 39t33.5 20h182q46 0 74 -36l70 -97l69 97
q25 36 74 36h182q23 0 33.5 -20t-4.5 -39l-166 -211q-24 -35 -72 -35h-233q-48 0 -72 35z" />
    <glyph glyph-name="dcaron" unicode="&#x10f;" horiz-adv-x="1449" 
d="M793 1360q0 31 21 52.5t52 21.5h224q31 0 52 -21.5t21 -52.5v-1286q0 -31 -21 -52.5t-52 -21.5h-242q-23 0 -39 16t-16 39v29q-91 -109 -271 -109q-94 0 -174 30.5t-136 83t-95.5 122t-58.5 147.5t-19 160q0 83 19 161t58.5 148t95.5 122.5t136 83t174 30.5
q177 0 271 -109v406zM596 334q83 0 134.5 51t51.5 133q0 83 -51.5 135t-134.5 52q-84 0 -134 -52t-50 -135q0 -81 50 -132.5t134 -51.5zM1614 1434q20 0 30.5 -18.5t0.5 -35.5l-115 -215q-23 -37 -66 -37h-161q-19 0 -29.5 15.5t-3.5 34.5l78 208q17 48 67 48h199z" />
    <glyph glyph-name="Dcroat" unicode="&#x110;" horiz-adv-x="1533" 
d="M700 1434q359 0 566 -192t207 -525t-207 -525t-566 -192h-454q-37 0 -63.5 27t-26.5 65v570h-109q-15 0 -26 10.5t-11 25.5v37q0 15 11 26t26 11h109v571q0 37 26.5 64t63.5 27h454zM700 385q168 0 258.5 88t90.5 244t-90.5 244t-258.5 88h-120v-277h196q15 0 26 -11
t11 -26v-37q0 -15 -11 -25.5t-26 -10.5h-196v-277h120z" />
    <glyph glyph-name="dcroat" unicode="&#x111;" 
d="M1253 1239q14 0 24.5 -11t10.5 -26v-37q0 -13 -11 -24t-24 -11h-90v-1056q0 -31 -21 -52.5t-52 -21.5h-242q-23 0 -39 16t-16 39v31q-87 -111 -269 -111q-118 0 -212 41t-152.5 111.5t-89.5 161t-31 194.5t31 200t89.5 174t153 124.5t211.5 46.5q173 0 269 -115v217h-195
q-14 0 -24.5 11t-10.5 24v37q0 15 10.5 26t24.5 11h195v121q0 31 21 52.5t52 21.5h224q31 0 52 -21.5t21 -52.5v-121h90zM596 297q83 0 134.5 51.5t51.5 134.5t-51.5 134t-134.5 51t-133.5 -52t-50.5 -133q0 -83 50 -134.5t134 -51.5z" />
    <glyph glyph-name="Emacron" unicode="&#x112;" horiz-adv-x="1159" 
d="M537 348h458q37 0 63.5 -26t26.5 -64v-166q0 -38 -26.5 -65t-63.5 -27h-792q-37 0 -63.5 27t-26.5 65v1251q0 37 26.5 64t63.5 27h772q38 0 65 -27t27 -64v-167q0 -37 -27 -64t-65 -27h-438v-196h374q37 0 63.5 -26.5t26.5 -63.5v-150q0 -38 -26.5 -65t-63.5 -27h-374
v-209zM285 1792q0 31 21 51.5t52 20.5h488q30 0 51 -21t21 -51v-111q0 -29 -21.5 -50t-50.5 -21h-488q-31 0 -52 21t-21 50v111z" />
    <glyph glyph-name="emacron" unicode="&#x113;" horiz-adv-x="1167" 
d="M590 1063q110 0 207 -38t171.5 -108.5t116 -181t37.5 -246.5q0 -29 -21 -50t-50 -21h-652q24 -76 82 -117t148 -41q96 0 166 59q25 25 61 7l162 -97q21 -13 25 -38.5t-11 -45.5q-65 -77 -171 -123.5t-232 -46.5q-263 0 -425.5 150t-162.5 393q0 151 70 275.5t196.5 197
t282.5 72.5zM399 618h383q-38 160 -192 160q-70 0 -119 -43.5t-72 -116.5zM266 1382q0 31 21.5 51.5t52.5 20.5h487q30 0 51 -21t21 -51v-110q0 -29 -21.5 -50.5t-50.5 -21.5h-487q-31 0 -52.5 21.5t-21.5 50.5v110z" />
    <glyph glyph-name="Ebreve" unicode="&#x114;" horiz-adv-x="1159" 
d="M537 348h458q37 0 63.5 -26t26.5 -64v-166q0 -38 -26.5 -65t-63.5 -27h-792q-37 0 -63.5 27t-26.5 65v1251q0 37 26.5 64t63.5 27h772q38 0 65 -27t27 -64v-167q0 -37 -27 -64t-65 -27h-438v-196h374q37 0 63.5 -26.5t26.5 -63.5v-150q0 -38 -26.5 -65t-63.5 -27h-374
v-209zM754 1890h131q25 0 41 -18.5t12 -42.5q-19 -122 -110.5 -192t-227.5 -70t-227 70t-111 192q-4 24 12 42.5t41 18.5h131q19 0 34 -10t20 -25q19 -69 100 -69q83 0 102 69q4 15 19.5 25t32.5 10z" />
    <glyph glyph-name="ebreve" unicode="&#x115;" horiz-adv-x="1167" 
d="M590 1063q110 0 207 -38t171.5 -108.5t116 -181t37.5 -246.5q0 -29 -21 -50t-50 -21h-652q24 -76 82 -117t148 -41q96 0 166 59q25 25 61 7l162 -97q21 -13 25 -38.5t-11 -45.5q-65 -77 -171 -123.5t-232 -46.5q-263 0 -425.5 150t-162.5 393q0 151 70 275.5t196.5 197
t282.5 72.5zM399 618h383q-38 160 -192 160q-70 0 -119 -43.5t-72 -116.5zM735 1481h131q25 0 41.5 -19t12.5 -43q-19 -122 -110.5 -192t-227.5 -70t-227 70t-111 192q-4 25 12 43.5t41 18.5h131q19 0 33.5 -10t19.5 -25q20 -70 101 -70q82 0 102 70q4 15 19 25t32 10z" />
    <glyph glyph-name="Edotaccent" unicode="&#x116;" horiz-adv-x="1159" 
d="M537 348h458q37 0 63.5 -26t26.5 -64v-166q0 -38 -26.5 -65t-63.5 -27h-792q-37 0 -63.5 27t-26.5 65v1251q0 37 26.5 64t63.5 27h772q38 0 65 -27t27 -64v-167q0 -37 -27 -64t-65 -27h-438v-196h374q37 0 63.5 -26.5t26.5 -63.5v-150q0 -38 -26.5 -65t-63.5 -27h-374
v-209zM600 1915q73 0 124.5 -52t51.5 -126t-51.5 -126t-124.5 -52q-74 0 -126 52.5t-52 125.5t52 125.5t126 52.5z" />
    <glyph glyph-name="edotaccent" unicode="&#x117;" horiz-adv-x="1167" 
d="M590 1063q110 0 207 -38t171.5 -108.5t116 -181t37.5 -246.5q0 -29 -21 -50t-50 -21h-652q24 -76 82 -117t148 -41q96 0 166 59q25 25 61 7l162 -97q21 -13 25 -38.5t-11 -45.5q-65 -77 -171 -123.5t-232 -46.5q-263 0 -425.5 150t-162.5 393q0 151 70 275.5t196.5 197
t282.5 72.5zM399 618h383q-38 160 -192 160q-70 0 -119 -43.5t-72 -116.5zM584 1505q73 0 124.5 -52t51.5 -126t-51.5 -126t-124.5 -52q-74 0 -126 52.5t-52 125.5t52 125.5t126 52.5z" />
    <glyph glyph-name="Eogonek" unicode="&#x118;" horiz-adv-x="1159" 
d="M1087 43q0 -41 -34 -61q-56 -33 -93.5 -79.5t-37.5 -99.5q0 -44 26.5 -71t79.5 -27h19q17 1 28.5 -9.5t11.5 -25.5v-102q0 -41 -38 -51q-66 -19 -136 -19q-118 0 -189 53.5t-71 153.5q0 96 60 174t133 121h-641q-38 0 -65 27t-27 65v1251q0 37 27 64t65 27h772
q38 0 65 -27t27 -64v-167q0 -37 -27 -64t-65 -27h-440v-196h374q38 0 65.5 -26.5t27.5 -63.5v-150q0 -38 -27.5 -65t-65.5 -27h-374v-209h458q38 0 65 -26t27 -64v-215z" />
    <glyph glyph-name="eogonek" unicode="&#x119;" horiz-adv-x="1165" 
d="M590 1063q110 0 207 -38t171.5 -108.5t116 -181t37.5 -246.5q0 -29 -21 -50t-50 -21h-652q24 -76 82 -117t146 -41q98 0 168 59q25 25 61 7l162 -97q21 -13 25 -38.5t-11 -45.5q-90 -103 -229 -145q-62 -31 -110 -84t-48 -113q0 -44 27 -71t80 -27h18q17 1 29 -9.5
t12 -25.5v-102q0 -19 -11 -32.5t-28 -18.5q-70 -19 -135 -19q-118 0 -189 53.5t-71 153.5q0 85 48 156t114 119q-227 26 -362.5 172t-135.5 366q0 151 70 275.5t196.5 197t282.5 72.5zM399 618h383q-38 160 -192 160q-70 0 -120 -43.5t-71 -116.5z" />
    <glyph glyph-name="Ecaron" unicode="&#x11a;" horiz-adv-x="1159" 
d="M537 348h458q37 0 63.5 -26t26.5 -64v-166q0 -38 -26.5 -65t-63.5 -27h-792q-37 0 -63.5 27t-26.5 65v1251q0 37 26.5 64t63.5 27h772q38 0 65 -27t27 -64v-167q0 -37 -27 -64t-65 -27h-438v-196h374q37 0 63.5 -26.5t26.5 -63.5v-150q0 -38 -26.5 -65t-63.5 -27h-374
v-209zM246 1839q-15 19 -5 39t33 20h183q45 0 73 -36l70 -97l70 97q25 36 73 36h183q23 0 33 -20t-5 -39l-166 -211q-24 -35 -71 -35h-234q-47 0 -71 35z" />
    <glyph glyph-name="ecaron" unicode="&#x11b;" horiz-adv-x="1167" 
d="M590 1063q110 0 207 -38t171.5 -108.5t116 -181t37.5 -246.5q0 -29 -21 -50t-50 -21h-652q24 -76 82 -117t148 -41q96 0 166 59q25 25 61 7l162 -97q21 -13 25 -38.5t-11 -45.5q-65 -77 -171 -123.5t-232 -46.5q-263 0 -425.5 150t-162.5 393q0 151 70 275.5t196.5 197
t282.5 72.5zM399 618h383q-38 160 -192 160q-70 0 -119 -43.5t-72 -116.5zM229 1430q-15 19 -4.5 39t33.5 20h182q45 0 74 -37l70 -96l69 96q26 37 74 37h182q23 0 33.5 -20t-4.5 -39l-166 -211q-24 -35 -72 -35h-233q-48 0 -72 35z" />
    <glyph glyph-name="Gcircumflex" unicode="&#x11c;" horiz-adv-x="1576" 
d="M764 739q0 37 26.5 63.5t63.5 26.5h541q37 0 63.5 -26.5t26.5 -63.5v-665q0 -31 -21.5 -52.5t-50.5 -21.5h-57q-25 0 -45.5 15.5t-26.5 39.5l-33 123q-160 -203 -452 -203q-211 0 -380.5 97t-263.5 266.5t-94 378.5q0 210 94 379.5t263 266.5t381 97q167 0 309 -62
t242 -173q22 -25 17.5 -57.5t-32.5 -51.5l-233 -153q-20 -14 -44.5 -11.5t-43.5 19.5q-84 78 -215 78q-144 0 -229 -93.5t-85 -238.5q0 -94 36.5 -173t109.5 -128t168 -49q217 0 284 168h-229q-37 0 -63.5 26t-26.5 64v114zM1151 1653q15 -19 4.5 -39.5t-33.5 -20.5h-182
q-48 0 -74 37l-69 96l-70 -96q-29 -37 -74 -37h-184q-22 0 -32 20.5t3 39.5l166 211q27 34 72 34h235q48 0 72 -34z" />
    <glyph glyph-name="gcircumflex" unicode="&#x11d;" 
d="M795 983q0 23 16 39t39 16h242q29 0 50 -21t21 -52v-873q0 -229 -155 -367.5t-428 -138.5q-143 0 -270 45.5t-199 128.5q-17 19 -13 44.5t27 37.5l182 111q34 17 64 -6q73 -62 190 -62q133 0 183.5 61t50.5 181v18q-95 -98 -269 -98q-149 0 -261.5 71t-168 185t-55.5 252
q0 139 54 252.5t166 184.5t265 71q175 0 269 -105v25zM598 371q84 0 135 49.5t51 134.5q0 87 -51 136.5t-135 49.5q-85 0 -134.5 -51.5t-49.5 -134.5q0 -81 49.5 -132.5t134.5 -51.5zM977 1243q15 -19 4.5 -39t-33.5 -20h-182q-48 0 -74 37l-69 96l-70 -96q-29 -37 -74 -37
h-184q-22 0 -32 20t3 39l166 211q27 35 72 35h235q48 0 72 -35z" />
    <glyph glyph-name="Gbreve" unicode="&#x11e;" horiz-adv-x="1576" 
d="M764 739q0 37 26.5 63.5t63.5 26.5h541q37 0 63.5 -26.5t26.5 -63.5v-665q0 -31 -21.5 -52.5t-50.5 -21.5h-57q-25 0 -45.5 15.5t-26.5 39.5l-33 123q-160 -203 -452 -203q-211 0 -380.5 97t-263.5 266.5t-94 378.5q0 210 94 379.5t263 266.5t381 97q167 0 309 -62
t242 -173q22 -25 17.5 -57.5t-32.5 -51.5l-233 -153q-20 -14 -44.5 -11.5t-43.5 19.5q-84 78 -215 78q-144 0 -229 -93.5t-85 -238.5q0 -94 36.5 -173t109.5 -128t168 -49q217 0 284 168h-229q-37 0 -63.5 26t-26.5 64v114zM950 1890h131q25 0 41.5 -18.5t12.5 -42.5
q-19 -122 -110.5 -192t-227.5 -70t-227 70t-111 192q-4 24 12 42.5t41 18.5h131q19 0 33.5 -10t19.5 -25q19 -69 101 -69q83 0 102 69q4 15 19 25t32 10z" />
    <glyph glyph-name="gbreve" unicode="&#x11f;" 
d="M795 983q0 23 16 39t39 16h242q29 0 50 -21t21 -52v-873q0 -229 -155 -367.5t-428 -138.5q-143 0 -270 45.5t-199 128.5q-17 19 -13 44.5t27 37.5l182 111q34 17 64 -6q73 -62 190 -62q133 0 183.5 61t50.5 181v18q-95 -98 -269 -98q-149 0 -261.5 71t-168 185t-55.5 252
q0 139 54 252.5t166 184.5t265 71q175 0 269 -105v25zM598 371q84 0 135 49.5t51 134.5q0 87 -51 136.5t-135 49.5q-85 0 -134.5 -51.5t-49.5 -134.5q0 -81 49.5 -132.5t134.5 -51.5zM774 1481h131q25 0 41 -18.5t12 -43.5q-19 -122 -110 -192t-227 -70t-227 70t-111 192
q-4 25 12 43.5t41 18.5h131q19 0 33.5 -10t19.5 -25q20 -70 101 -70q82 0 102 70q4 15 19 25t32 10z" />
    <glyph glyph-name="Gdotaccent" unicode="&#x120;" horiz-adv-x="1576" 
d="M764 739q0 37 26.5 63.5t63.5 26.5h541q37 0 63.5 -26.5t26.5 -63.5v-665q0 -31 -21.5 -52.5t-50.5 -21.5h-57q-25 0 -45.5 15.5t-26.5 39.5l-33 123q-160 -203 -452 -203q-211 0 -380.5 97t-263.5 266.5t-94 378.5q0 210 94 379.5t263 266.5t381 97q167 0 309 -62
t242 -173q22 -25 17.5 -57.5t-32.5 -51.5l-233 -153q-20 -14 -44.5 -11.5t-43.5 19.5q-84 78 -215 78q-144 0 -229 -93.5t-85 -238.5q0 -94 36.5 -173t109.5 -128t168 -49q217 0 284 168h-229q-37 0 -63.5 26t-26.5 64v114zM778 1915q73 0 124.5 -52t51.5 -126t-51.5 -126
t-124.5 -52q-74 0 -126 52.5t-52 125.5t52 125.5t126 52.5z" />
    <glyph glyph-name="gdotaccent" unicode="&#x121;" 
d="M795 983q0 23 16 39t39 16h242q29 0 50 -21t21 -52v-873q0 -229 -155 -367.5t-428 -138.5q-143 0 -270 45.5t-199 128.5q-17 19 -13 44.5t27 37.5l182 111q34 17 64 -6q73 -62 190 -62q133 0 183.5 61t50.5 181v18q-95 -98 -269 -98q-149 0 -261.5 71t-168 185t-55.5 252
q0 139 54 252.5t166 184.5t265 71q175 0 269 -105v25zM598 371q84 0 135 49.5t51 134.5q0 87 -51 136.5t-135 49.5q-85 0 -134.5 -51.5t-49.5 -134.5q0 -81 49.5 -132.5t134.5 -51.5zM623 1505q73 0 124.5 -52t51.5 -126t-51.5 -126t-124.5 -52q-74 0 -126.5 52.5
t-52.5 125.5t52.5 125.5t126.5 52.5z" />
    <glyph glyph-name="Gcommaaccent" unicode="&#x122;" horiz-adv-x="1576" 
d="M764 739q0 37 26.5 63.5t63.5 26.5h541q37 0 63.5 -26.5t26.5 -63.5v-665q0 -31 -21.5 -52.5t-50.5 -21.5h-57q-25 0 -45.5 15.5t-26.5 39.5l-33 123q-160 -203 -452 -203q-211 0 -380.5 97t-263.5 266.5t-94 378.5q0 210 94 379.5t263 266.5t381 97q167 0 309 -62
t242 -173q22 -25 17.5 -57.5t-32.5 -51.5l-233 -153q-20 -14 -44.5 -11.5t-43.5 19.5q-84 78 -215 78q-144 0 -229 -93.5t-85 -238.5q0 -94 36.5 -173t109.5 -128t168 -49q217 0 284 168h-229q-37 0 -63.5 26t-26.5 64v114zM887 -147q20 0 30.5 -18.5t0.5 -35.5l-115 -215
q-23 -37 -66 -37h-162q-19 0 -29 15.5t-3 34.5l78 208q17 48 67 48h199z" />
    <glyph glyph-name="gcommaaccent" unicode="&#x123;" 
d="M795 983q0 23 16 39t39 16h242q29 0 50 -21t21 -52v-873q0 -229 -155 -367.5t-428 -138.5q-143 0 -270 45.5t-199 128.5q-17 19 -13 44.5t27 37.5l182 111q34 17 64 -6q73 -62 190 -62q133 0 183.5 61t50.5 181v18q-95 -98 -269 -98q-149 0 -261.5 71t-168 185t-55.5 252
q0 139 54 252.5t166 184.5t265 71q175 0 269 -105v25zM598 371q84 0 135 49.5t51 134.5q0 87 -51 136.5t-135 49.5q-85 0 -134.5 -51.5t-49.5 -134.5q0 -81 49.5 -132.5t134.5 -51.5zM512 1184q-20 0 -30.5 18t-0.5 35l115 215q23 37 66 37h161q19 0 29.5 -15.5t3.5 -33.5
l-78 -209q-7 -22 -25.5 -34.5t-41.5 -12.5h-199z" />
    <glyph glyph-name="Hcircumflex" unicode="&#x124;" horiz-adv-x="1519" 
d="M983 1343q0 37 26.5 64t63.5 27h242q38 0 65 -27t27 -64v-1251q0 -38 -27 -65t-65 -27h-242q-37 0 -63.5 27t-26.5 65v443h-446v-443q0 -38 -27.5 -65t-65.5 -27h-241q-37 0 -63.5 27t-26.5 65v1251q0 37 26.5 64t63.5 27h241q38 0 65.5 -27t27.5 -64v-430h446v430z
M1114 1653q15 -19 4.5 -39.5t-33.5 -20.5h-182q-48 0 -74 37l-69 96l-70 -96q-29 -37 -74 -37h-184q-22 0 -32 20.5t3 39.5l166 211q27 34 72 34h236q47 0 71 -34z" />
    <glyph glyph-name="hcircumflex" unicode="&#x125;" horiz-adv-x="1239" 
d="M756 1063q93 0 164 -29t111 -72t65 -102t33 -109t8 -102v-575q0 -31 -21.5 -52.5t-52.5 -21.5h-223q-29 0 -50.5 21.5t-21.5 52.5v485q0 63 -40 103t-107 40q-68 0 -108 -40t-40 -103v-485q0 -31 -21.5 -52.5t-52.5 -21.5h-223q-31 0 -52.5 21.5t-21.5 52.5v1286
q0 31 21.5 52.5t52.5 21.5h223q31 0 52.5 -21.5t21.5 -52.5v-432q97 135 283 135zM932 1653q15 -19 4.5 -39.5t-33.5 -20.5h-182q-48 0 -74 37l-69 96l-70 -96q-29 -37 -74 -37h-184q-22 0 -32 20.5t3 39.5l166 211q27 34 72 34h235q48 0 72 -34z" />
    <glyph glyph-name="Hbar" unicode="&#x126;" horiz-adv-x="1605" 
d="M1559 1210q15 0 25.5 -10t10.5 -24v-37q0 -15 -10.5 -26t-25.5 -11h-109v-1010q0 -38 -26.5 -65t-63.5 -27h-242q-38 0 -65 27t-27 65v443h-446v-443q0 -38 -27.5 -65t-65.5 -27h-241q-37 0 -63.5 27t-26.5 65v1010h-109q-15 0 -26 11t-11 26v37q0 14 11 24t26 10h109
v133q0 37 26.5 64t63.5 27h241q38 0 65.5 -27t27.5 -64v-133h446v133q0 37 27 64t65 27h242q37 0 63.5 -27t26.5 -64v-133h109zM1026 913v189h-446v-189h446z" />
    <glyph glyph-name="hbar" unicode="&#x127;" horiz-adv-x="1239" 
d="M756 1026q67 0 123.5 -15t95 -40t68 -60t47 -71.5t28.5 -78.5t15 -77t4 -70v-540q0 -31 -21.5 -52.5t-52.5 -21.5h-223q-29 0 -50.5 21.5t-21.5 52.5v448q0 63 -40.5 103.5t-106.5 40.5q-67 0 -107.5 -41t-40.5 -103v-448q0 -31 -21.5 -52.5t-52.5 -21.5h-223
q-31 0 -52.5 21.5t-21.5 52.5v1056h-88q-15 0 -26 10.5t-11 24.5v37q0 15 11 26t26 11h88v121q0 31 21.5 52.5t52.5 21.5h223q31 0 52.5 -21.5t21.5 -52.5v-121h195q15 0 24.5 -11t9.5 -26v-37q0 -14 -9.5 -24.5t-24.5 -10.5h-195v-239q94 135 283 135z" />
    <glyph glyph-name="Itilde" unicode="&#x128;" horiz-adv-x="649" 
d="M113 1343q0 37 26.5 64t63.5 27h241q38 0 65.5 -27t27.5 -64v-1251q0 -38 -27.5 -65t-65.5 -27h-241q-37 0 -63.5 27t-26.5 65v1251zM492 1858l135 -23q23 -5 36 -24t9 -42q-19 -100 -65 -149t-124 -49q-55 0 -137 30.5t-102 30.5q-32 0 -47 -33q-4 -10 -15.5 -16
t-23.5 -4l-135 25q-23 3 -37 22.5t-9 42.5q45 197 207 197q43 0 115 -30t104 -30q37 0 48 29q6 12 17.5 19t23.5 4z" />
    <glyph glyph-name="itilde" unicode="&#x129;" horiz-adv-x="573" 
d="M176 0q-31 0 -52.5 21.5t-21.5 52.5v891q0 31 21.5 52t52.5 21h223q29 0 50.5 -21t21.5 -52v-891q0 -31 -21.5 -52.5t-50.5 -21.5h-223zM455 1448l135 -23q23 -5 36 -23.5t9 -41.5q-19 -100 -65 -149.5t-124 -49.5q-55 0 -137 31t-102 31q-32 0 -47 -33
q-4 -10 -15.5 -16.5t-23.5 -4.5l-135 25q-23 3 -36.5 23t-8.5 43q45 196 206 196q43 0 115.5 -29.5t104.5 -29.5q37 0 47 28q6 12 17.5 19t23.5 4z" />
    <glyph glyph-name="Imacron" unicode="&#x12a;" horiz-adv-x="649" 
d="M113 1343q0 37 26.5 64t63.5 27h241q38 0 65.5 -27t27.5 -64v-1251q0 -38 -27.5 -65t-65.5 -27h-241q-37 0 -63.5 27t-26.5 65v1251zM8 1792q0 31 21.5 51.5t52.5 20.5h487q30 0 51 -21t21 -51v-111q0 -29 -21.5 -50t-50.5 -21h-487q-31 0 -52.5 21t-21.5 50v111z" />
    <glyph glyph-name="imacron" unicode="&#x12b;" horiz-adv-x="573" 
d="M176 0q-31 0 -52.5 21.5t-21.5 52.5v891q0 31 21.5 52t52.5 21h223q29 0 50.5 -21t21.5 -52v-891q0 -31 -21.5 -52.5t-50.5 -21.5h-223zM-29 1382q0 31 21.5 51.5t52.5 20.5h487q30 0 51 -21t21 -51v-110q0 -29 -21.5 -50.5t-50.5 -21.5h-487q-31 0 -52.5 21.5
t-21.5 50.5v110z" />
    <glyph glyph-name="Ibreve" unicode="&#x12c;" horiz-adv-x="649" 
d="M113 1343q0 37 26.5 64t63.5 27h241q38 0 65.5 -27t27.5 -64v-1251q0 -38 -27.5 -65t-65.5 -27h-241q-37 0 -63.5 27t-26.5 65v1251zM477 1890h131q25 0 41.5 -18.5t12.5 -42.5q-19 -122 -110.5 -192t-227.5 -70t-227 70t-111 192q-4 24 12 42.5t41 18.5h131
q19 0 33.5 -10t19.5 -25q19 -69 101 -69q83 0 102 69q4 15 19 25t32 10z" />
    <glyph glyph-name="ibreve" unicode="&#x12d;" horiz-adv-x="573" 
d="M176 0q-31 0 -52.5 21.5t-21.5 52.5v891q0 31 21.5 52t52.5 21h223q29 0 50.5 -21t21.5 -52v-891q0 -31 -21.5 -52.5t-50.5 -21.5h-223zM440 1481h131q25 0 41.5 -19t12.5 -43q-19 -122 -110.5 -192t-227.5 -70t-227 70t-111 192q-4 25 12 43.5t41 18.5h131
q19 0 33.5 -10t19.5 -25q20 -70 101 -70q82 0 102 70q4 15 19 25t32 10z" />
    <glyph glyph-name="Iogonek" unicode="&#x12e;" horiz-adv-x="649" 
d="M537 43q0 -43 -35 -61q-55 -34 -92 -80.5t-37 -98.5q0 -44 25.5 -71t78.5 -27h21q15 2 27 -9t12 -26v-102q0 -42 -39 -51q-67 -19 -136 -19q-118 0 -189 53.5t-71 153.5q0 96 60 174t133 121h-90q-38 0 -65 27t-27 65v1251q0 37 27 64t65 27h241q37 0 64 -27t27 -64
v-1300z" />
    <glyph glyph-name="iogonek" unicode="&#x12f;" horiz-adv-x="573" 
d="M176 0q-31 0 -52.5 21.5t-21.5 52.5v891q0 31 21.5 52t52.5 21h223q29 0 50.5 -21t21.5 -52v-922q0 -43 -35 -61q-55 -34 -92 -80.5t-37 -98.5q0 -44 26 -71t79 -27h20q15 2 27 -9t12 -26v-102q0 -42 -39 -51q-66 -19 -135 -19q-118 0 -189 53.5t-71 153.5q0 96 59.5 174
t132.5 121h-53zM287 1137q-79 0 -135 56t-56 136t56 136.5t135 56.5t135.5 -56.5t56.5 -136.5q0 -79 -56.5 -135.5t-135.5 -56.5z" />
    <glyph glyph-name="Idotaccent" unicode="&#x130;" horiz-adv-x="649" 
d="M113 1343q0 37 26.5 64t63.5 27h241q38 0 65.5 -27t27.5 -64v-1251q0 -38 -27.5 -65t-65.5 -27h-241q-37 0 -63.5 27t-26.5 65v1251zM326 1915q73 0 124.5 -52t51.5 -126t-51.5 -126t-124.5 -52q-74 0 -126.5 52.5t-52.5 125.5t52.5 125.5t126.5 52.5z" />
    <glyph glyph-name="dotlessi" unicode="&#x131;" horiz-adv-x="573" 
d="M176 0q-31 0 -52.5 21.5t-21.5 52.5v891q0 31 21.5 52t52.5 21h223q29 0 50.5 -21t21.5 -52v-891q0 -31 -21.5 -52.5t-50.5 -21.5h-223z" />
    <glyph glyph-name="IJ" unicode="&#x132;" horiz-adv-x="1871" 
d="M113 1343q0 37 26.5 64t63.5 27h241q38 0 65.5 -27t27.5 -64v-1251q0 -38 -27.5 -65t-65.5 -27h-241q-37 0 -63.5 27t-26.5 65v1251zM1427 1434h242q37 0 63.5 -27t26.5 -64v-786q0 -297 -140 -439.5t-419 -142.5q-218 0 -368 111t-183 291q-6 29 11 53.5t47 30.5l280 51
q20 4 38 -6t24 -29q35 -92 143 -92q77 0 110 48.5t33 123.5v786q0 37 27 64t65 27z" />
    <glyph glyph-name="ij" unicode="&#x133;" horiz-adv-x="1161" 
d="M176 0q-31 0 -52.5 21.5t-21.5 52.5v891q0 31 21.5 52t52.5 21h223q29 0 50.5 -21t21.5 -52v-891q0 -31 -21.5 -52.5t-50.5 -21.5h-223zM287 1137q-78 0 -134.5 56.5t-56.5 135.5t56.5 136t134.5 57q79 0 135.5 -56.5t56.5 -136.5q0 -79 -56.5 -135.5t-135.5 -56.5z
M874 1137q-78 0 -134 56.5t-56 135.5q0 78 56 134.5t134 56.5q79 0 136 -56.5t57 -134.5q0 -79 -56.5 -135.5t-136.5 -56.5zM987 1038q31 0 52.5 -21t21.5 -52v-928q0 -68 -11 -126t-39 -112t-70.5 -92.5t-109 -61t-151.5 -22.5q-49 0 -115 8q-20 4 -32.5 20t-12.5 36v225
q0 23 15 39.5t38 17.5q53 2 86 30.5t33 109.5v856q0 31 21 52t51 21h223z" />
    <glyph glyph-name="Jcircumflex" unicode="&#x134;" horiz-adv-x="1253" 
d="M809 1434h242q37 0 63.5 -27t26.5 -64v-786q0 -297 -140 -439.5t-419 -142.5q-218 0 -368 111t-183 291q-6 29 11 53.5t46 30.5l281 51q20 4 37.5 -6t23.5 -29q35 -92 143 -92q77 0 110.5 48.5t33.5 123.5v786q0 37 27 64t65 27zM1262 1653q15 -19 4.5 -39.5t-33.5 -20.5
h-182q-48 0 -74 37l-70 96l-69 -96q-29 -37 -74 -37h-184q-22 0 -32 20.5t3 39.5l166 211q27 34 71 34h236q48 0 72 -34z" />
    <glyph glyph-name="jcircumflex" unicode="&#x135;" horiz-adv-x="573" 
d="M399 1038q31 0 52.5 -21t21.5 -52v-928q0 -68 -11 -126t-39 -112t-70.5 -92.5t-109 -61t-151.5 -22.5q-49 0 -115 8q-20 4 -32.5 20t-12.5 36v225q0 23 15.5 39t38.5 18q53 2 85.5 30.5t32.5 109.5v856q0 31 21 52t51 21h223zM633 1243q15 -19 4.5 -39t-33.5 -20h-182
q-48 0 -74 37l-69 96l-70 -96q-29 -37 -74 -37h-184q-22 0 -32 20t3 39l166 211q27 35 72 35h235q48 0 72 -35z" />
    <glyph glyph-name="Kcommaaccent" unicode="&#x136;" horiz-adv-x="1409" 
d="M1346 84q17 -28 0.5 -56t-48.5 -28h-329q-53 0 -78 45l-354 592v-545q0 -38 -27.5 -65t-65.5 -27h-241q-37 0 -63.5 27t-26.5 65v1251q0 37 26.5 64t63.5 27h241q38 0 65.5 -27t27.5 -64v-538l337 584q25 45 80 45h314q31 0 46.5 -28t-1.5 -56l-381 -617zM803 -147
q20 0 30.5 -18.5t0.5 -35.5l-115 -215q-23 -37 -66 -37h-161q-19 0 -29.5 15.5t-3.5 34.5l78 208q17 48 67 48h199z" />
    <glyph glyph-name="kcommaaccent" unicode="&#x137;" horiz-adv-x="1167" 
d="M1104 84q17 -28 1 -56t-48 -28h-275q-53 0 -80 45l-231 404v-375q0 -31 -21.5 -52.5t-52.5 -21.5h-223q-29 0 -50.5 21.5t-21.5 52.5v1286q0 31 21.5 52.5t50.5 21.5h223q31 0 52.5 -21.5t21.5 -52.5v-744l223 377q25 45 78 45h256q32 0 48 -29t-1 -55l-262 -409z
M698 -147q20 0 30.5 -18.5t0.5 -35.5l-115 -215q-23 -37 -65 -37h-162q-19 0 -29.5 15.5t-3.5 34.5l78 208q7 22 26 35t42 13h198z" />
    <glyph glyph-name="kgreenlandic" unicode="&#x138;" horiz-adv-x="1167" 
d="M1104 84q17 -28 1 -56t-48 -28h-275q-53 0 -80 45l-231 404v-375q0 -31 -21.5 -52.5t-52.5 -21.5h-223q-29 0 -50.5 21.5t-21.5 52.5v891q0 31 21 52t51 21h223q31 0 52.5 -21t21.5 -52v-349l223 377q25 45 78 45h256q32 0 48 -29t-1 -55l-262 -409z" />
    <glyph glyph-name="Lacute" unicode="&#x139;" horiz-adv-x="1122" 
d="M537 385h444q37 0 63.5 -26.5t26.5 -63.5v-203q0 -38 -26.5 -65t-63.5 -27h-776q-38 0 -65 27t-27 65v1251q0 37 27 64t65 27h241q37 0 64 -27t27 -64v-958zM291 1845q26 53 84 53h237q22 0 32.5 -19t-1.5 -38l-145 -209q-25 -39 -74 -39h-193q-20 0 -30.5 17.5
t-1.5 34.5z" />
    <glyph glyph-name="lacute" unicode="&#x13a;" horiz-adv-x="573" 
d="M102 1360q0 31 21.5 52.5t50.5 21.5h223q31 0 52.5 -21.5t21.5 -52.5v-1286q0 -31 -21.5 -52.5t-52.5 -21.5h-223q-29 0 -50.5 21.5t-21.5 52.5v1286zM260 1845q26 53 84 53h238q22 0 32 -19t-2 -38l-145 -209q-25 -39 -74 -39h-192q-20 0 -31 17.5t-2 34.5z" />
    <glyph glyph-name="Lcommaaccent" unicode="&#x13b;" horiz-adv-x="1122" 
d="M537 385h444q37 0 63.5 -26.5t26.5 -63.5v-203q0 -38 -26.5 -65t-63.5 -27h-776q-38 0 -65 27t-27 65v1251q0 37 27 64t65 27h241q37 0 64 -27t27 -64v-958zM721 -147q20 0 30.5 -18.5t0.5 -35.5l-115 -215q-23 -37 -66 -37h-161q-19 0 -29.5 15.5t-3.5 34.5l78 208
q17 48 67 48h199z" />
    <glyph glyph-name="lcommaaccent" unicode="&#x13c;" horiz-adv-x="573" 
d="M102 1360q0 31 21.5 52.5t50.5 21.5h223q31 0 52.5 -21.5t21.5 -52.5v-1286q0 -31 -21.5 -52.5t-52.5 -21.5h-223q-29 0 -50.5 21.5t-21.5 52.5v1286zM377 -147q20 0 30.5 -18.5t0.5 -35.5l-115 -215q-23 -37 -66 -37h-161q-19 0 -29.5 15.5t-3.5 34.5l78 208
q17 48 67 48h199z" />
    <glyph glyph-name="Lcaron" unicode="&#x13d;" horiz-adv-x="1122" 
d="M537 385h444q37 0 63.5 -26.5t26.5 -63.5v-203q0 -38 -26.5 -65t-63.5 -27h-776q-38 0 -65 27t-27 65v1251q0 37 27 64t65 27h241q37 0 64 -27t27 -64v-958zM987 1434q20 0 30.5 -18.5t0.5 -35.5l-115 -215q-23 -37 -65 -37h-162q-19 0 -29.5 15.5t-3.5 34.5l78 208
q17 48 67 48h199z" />
    <glyph glyph-name="lcaron" unicode="&#x13e;" horiz-adv-x="757" 
d="M102 1360q0 31 21.5 52.5t50.5 21.5h223q31 0 52.5 -21.5t21.5 -52.5v-1286q0 -31 -21.5 -52.5t-52.5 -21.5h-223q-29 0 -50.5 21.5t-21.5 52.5v1286zM922 1434q20 0 30.5 -18.5t-0.5 -35.5l-114 -215q-23 -37 -66 -37h-162q-19 0 -29 15.5t-3 34.5l77 208q7 22 26 35
t42 13h199z" />
    <glyph glyph-name="Ldot" unicode="&#x13f;" horiz-adv-x="1122" 
d="M860 600q-75 0 -127.5 52.5t-52.5 127.5t52.5 129t127.5 54t127.5 -54t52.5 -129t-52.5 -127.5t-127.5 -52.5zM537 385h444q37 0 63.5 -26.5t26.5 -63.5v-203q0 -38 -26.5 -65t-63.5 -27h-776q-38 0 -65 27t-27 65v1251q0 37 27 64t65 27h241q37 0 64 -27t27 -64v-958z
" />
    <glyph glyph-name="ldot" unicode="&#x140;" horiz-adv-x="964" 
d="M774 889q75 0 127.5 -53t52.5 -127q0 -75 -52.5 -129t-127.5 -54t-128.5 54t-53.5 129q0 74 53.5 127t128.5 53zM102 1360q0 31 21.5 52.5t50.5 21.5h223q31 0 52.5 -21.5t21.5 -52.5v-1286q0 -31 -21.5 -52.5t-52.5 -21.5h-223q-29 0 -50.5 21.5t-21.5 52.5v1286z" />
    <glyph glyph-name="Lslash" unicode="&#x141;" horiz-adv-x="1189" 
d="M604 385h445q37 0 63.5 -26.5t26.5 -63.5v-203q0 -38 -26.5 -65t-63.5 -27h-777q-38 0 -65 27t-27 65v453l-104 -60q-14 -7 -27.5 -3t-21.5 18l-19 30q-7 14 -3 28t18 22l157 90v673q0 37 27 64t65 27h242q37 0 63.5 -27t26.5 -64v-436l156 88q14 7 28.5 2.5t20.5 -16.5
l18 -33q8 -12 3.5 -27t-17.5 -22l-209 -117v-397z" />
    <glyph glyph-name="lslash" unicode="&#x142;" horiz-adv-x="729" 
d="M700 899q8 -12 4.5 -27t-16.5 -22l-139 -84v-692q0 -31 -21.5 -52.5t-50.5 -21.5h-223q-31 0 -52.5 21.5t-21.5 52.5v469l-82 -51q-12 -7 -27 -3.5t-24 15.5l-18 31q-7 14 -3.5 28.5t15.5 22.5l139 84v690q0 31 21.5 52.5t52.5 21.5h223q29 0 50.5 -21.5t21.5 -52.5v-467
l82 51q14 7 28.5 3.5t22.5 -15.5z" />
    <glyph glyph-name="Nacute" unicode="&#x143;" horiz-adv-x="1515" 
d="M981 1343q0 37 27 64t65 27h240q37 0 63.5 -27t26.5 -64v-1251q0 -38 -26.5 -65t-63.5 -27h-230q-61 0 -92 51l-454 713v-672q0 -38 -27 -65t-64 -27h-241q-38 0 -65 27t-27 65v1251q0 37 27 64t65 27h227q60 0 92 -52l457 -712v673zM702 1845q26 53 84 53h238
q22 0 32.5 -19t-1.5 -38l-146 -209q-25 -39 -73 -39h-193q-20 0 -31 17.5t-2 34.5z" />
    <glyph glyph-name="nacute" unicode="&#x144;" horiz-adv-x="1236" 
d="M756 1063q93 0 164 -29t111 -72t65 -102t33 -109t8 -102v-575q0 -31 -21.5 -52.5t-52.5 -21.5h-223q-29 0 -50.5 21.5t-21.5 52.5v485q0 63 -40 103t-107 40q-68 0 -108 -40t-40 -103v-485q0 -31 -21.5 -52.5t-52.5 -21.5h-223q-31 0 -52.5 21.5t-21.5 52.5v891
q0 31 21.5 52t52.5 21h242q23 0 39 -16t16 -39v-55q97 135 283 135zM522 1436q26 53 84 53h238q22 0 32 -19t-2 -38l-145 -209q-25 -39 -74 -39h-192q-20 0 -31 17t-2 34z" />
    <glyph glyph-name="Ncommaaccent" unicode="&#x145;" horiz-adv-x="1515" 
d="M981 1343q0 37 27 64t65 27h240q37 0 63.5 -27t26.5 -64v-1251q0 -38 -26.5 -65t-63.5 -27h-230q-61 0 -92 51l-454 713v-672q0 -38 -27 -65t-64 -27h-241q-38 0 -65 27t-27 65v1251q0 37 27 64t65 27h227q60 0 92 -52l457 -712v673zM887 -147q20 0 30.5 -18.5t0.5 -35.5
l-115 -215q-23 -37 -66 -37h-162q-19 0 -29 15.5t-3 34.5l78 208q17 48 67 48h199z" />
    <glyph glyph-name="ncommaaccent" unicode="&#x146;" horiz-adv-x="1236" 
d="M756 1063q93 0 164 -29t111 -72t65 -102t33 -109t8 -102v-575q0 -31 -21.5 -52.5t-52.5 -21.5h-223q-29 0 -50.5 21.5t-21.5 52.5v485q0 63 -40 103t-107 40q-68 0 -108 -40t-40 -103v-485q0 -31 -21.5 -52.5t-52.5 -21.5h-223q-31 0 -52.5 21.5t-21.5 52.5v891
q0 31 21.5 52t52.5 21h242q23 0 39 -16t16 -39v-55q97 135 283 135zM707 -147q20 0 30.5 -18.5t-0.5 -35.5l-114 -215q-23 -37 -66 -37h-162q-19 0 -29.5 15.5t-3.5 34.5l78 208q7 22 26 35t42 13h199z" />
    <glyph glyph-name="Ncaron" unicode="&#x147;" horiz-adv-x="1515" 
d="M981 1343q0 37 27 64t65 27h240q37 0 63.5 -27t26.5 -64v-1251q0 -38 -26.5 -65t-63.5 -27h-230q-61 0 -92 51l-454 713v-672q0 -38 -27 -65t-64 -27h-241q-38 0 -65 27t-27 65v1251q0 37 27 64t65 27h227q60 0 92 -52l457 -712v673zM403 1839q-15 19 -4.5 39t33.5 20
h182q46 0 74 -36l70 -97l69 97q25 36 74 36h182q23 0 33.5 -20t-4.5 -39l-166 -211q-24 -35 -72 -35h-233q-48 0 -72 35z" />
    <glyph glyph-name="ncaron" unicode="&#x148;" horiz-adv-x="1236" 
d="M756 1063q93 0 164 -29t111 -72t65 -102t33 -109t8 -102v-575q0 -31 -21.5 -52.5t-52.5 -21.5h-223q-29 0 -50.5 21.5t-21.5 52.5v485q0 63 -40 103t-107 40q-68 0 -108 -40t-40 -103v-485q0 -31 -21.5 -52.5t-52.5 -21.5h-223q-31 0 -52.5 21.5t-21.5 52.5v891
q0 31 21.5 52t52.5 21h242q23 0 39 -16t16 -39v-55q97 135 283 135zM264 1430q-15 19 -4.5 39t33.5 20h182q45 0 74 -37l69 -96l70 96q26 37 74 37h182q23 0 33.5 -20t-4.5 -39l-166 -211q-24 -35 -72 -35h-233q-48 0 -72 35z" />
    <glyph glyph-name="napostrophe" unicode="&#x149;" horiz-adv-x="1294" 
d="M811 1063q67 0 123 -15t94.5 -40t68.5 -60t47.5 -72t28.5 -79t15 -77t4 -71v-575q0 -31 -21.5 -52.5t-52.5 -21.5h-223q-31 0 -52.5 21.5t-21.5 52.5v485q0 63 -39.5 103t-107.5 40q-67 0 -107.5 -40.5t-40.5 -102.5v-485q0 -31 -21 -52.5t-50 -21.5h-224q-31 0 -52 21.5
t-21 52.5v891q0 31 21 52t52 21h242q22 0 37.5 -16t15.5 -39v-55q97 135 285 135zM319 1434q21 0 31.5 -17.5t1.5 -36.5l-116 -213q-19 -39 -64 -39h-162q-19 0 -29.5 15.5t-3.5 34.5l76 208q7 22 27 35t43 13h196z" />
    <glyph glyph-name="Eng" unicode="&#x14a;" horiz-adv-x="1515" 
d="M1313 1434q37 0 63.5 -27.5t26.5 -65.5v-1378q-3 -206 -104.5 -319t-329.5 -113q-47 0 -97 6q-26 3 -44.5 24.5t-18.5 49.5v229q0 22 15.5 38t37.5 16q53 4 86 29.5t33 94.5v45l-444 701v-672q0 -38 -27 -65t-64 -27h-241q-38 0 -65 27t-27 65v1249q0 38 27 65.5t65 27.5
h227q60 0 92 -52l457 -712v671q0 38 27 65.5t65 27.5h240z" />
    <glyph glyph-name="eng" unicode="&#x14b;" horiz-adv-x="1236" 
d="M754 1063q93 0 164 -29t111 -72t65 -102t33 -109t8 -102v-649q0 -68 -11 -126t-38.5 -112t-70 -92.5t-108.5 -61t-151 -22.5q-53 0 -117 11q-19 3 -32 18t-13 35v227q0 22 15.5 37.5t37.5 17.5q54 2 86.5 30.5t32.5 111.5v485q0 62 -40.5 102.5t-107.5 40.5
q-66 0 -106.5 -40t-40.5 -103v-485q0 -31 -21.5 -52.5t-52.5 -21.5h-223q-29 0 -50.5 21.5t-21.5 52.5v891q0 31 21 52t51 21h242q23 0 39 -16t16 -39v-55q97 135 283 135z" />
    <glyph glyph-name="Omacron" unicode="&#x14c;" horiz-adv-x="1597" 
d="M799 1458q211 0 380 -97t263 -266t94 -378q0 -210 -94 -380t-263 -267t-380 -97q-159 0 -296.5 57t-234 155.5t-152 236.5t-55.5 295q0 209 94 378t263.5 266t380.5 97zM799 385q144 0 228.5 93.5t84.5 238.5q0 144 -84.5 238t-228.5 94t-229 -94t-85 -238
q0 -145 85 -238.5t229 -93.5zM481 1792q0 31 21.5 51.5t52.5 20.5h487q30 0 51 -21t21 -51v-111q0 -29 -21.5 -50t-50.5 -21h-487q-31 0 -52.5 21t-21.5 50v111z" />
    <glyph glyph-name="omacron" unicode="&#x14d;" horiz-adv-x="1196" 
d="M598 1063q243 0 400 -153.5t157 -391.5t-157 -391.5t-400 -153.5t-400 153.5t-157 391.5t157 391.5t400 153.5zM598 334q81 0 132.5 49.5t51.5 134.5t-51.5 136t-132.5 51t-133.5 -51t-52.5 -136q0 -84 52.5 -134t133.5 -50zM283 1382q0 31 21 51.5t52 20.5h488
q30 0 50.5 -21t20.5 -51v-110q0 -29 -21 -50.5t-50 -21.5h-488q-30 0 -51.5 21t-21.5 51v110z" />
    <glyph glyph-name="Obreve" unicode="&#x14e;" horiz-adv-x="1597" 
d="M799 1458q211 0 380 -97t263 -266t94 -378q0 -210 -94 -380t-263 -267t-380 -97q-159 0 -296.5 57t-234 155.5t-152 236.5t-55.5 295q0 209 94 378t263.5 266t380.5 97zM799 385q144 0 228.5 93.5t84.5 238.5q0 144 -84.5 238t-228.5 94t-229 -94t-85 -238
q0 -145 85 -238.5t229 -93.5zM952 1890h131q25 0 41.5 -18.5t12.5 -42.5q-19 -122 -110.5 -192t-227.5 -70t-227 70t-111 192q-4 24 12 42.5t41 18.5h131q19 0 33.5 -10t19.5 -25q19 -69 101 -69q83 0 102 69q4 15 19 25t32 10z" />
    <glyph glyph-name="obreve" unicode="&#x14f;" horiz-adv-x="1196" 
d="M598 1063q243 0 400 -153.5t157 -391.5t-157 -391.5t-400 -153.5t-400 153.5t-157 391.5t157 391.5t400 153.5zM598 334q81 0 132.5 49.5t51.5 134.5t-51.5 136t-132.5 51t-133.5 -51t-52.5 -136q0 -84 52.5 -134t133.5 -50zM752 1481h131q25 0 41 -18.5t12 -43.5
q-19 -122 -110.5 -192t-227.5 -70t-227 70t-111 192q-4 25 12 43.5t41 18.5h131q19 0 34 -10t20 -25q20 -70 100 -70q82 0 102 70q4 15 19.5 25t32.5 10z" />
    <glyph glyph-name="Ohungarumlaut" unicode="&#x150;" horiz-adv-x="1597" 
d="M799 1458q211 0 380 -97t263 -266t94 -378q0 -210 -94 -380t-263 -267t-380 -97q-159 0 -296.5 57t-234 155.5t-152 236.5t-55.5 295q0 209 94 378t263.5 266t380.5 97zM799 385q144 0 228.5 93.5t84.5 238.5q0 144 -84.5 238t-228.5 94t-229 -94t-85 -238
q0 -145 85 -238.5t229 -93.5zM526 1845q10 24 32.5 38.5t49.5 14.5h240q22 0 31.5 -19t-2.5 -38l-144 -209q-28 -39 -76 -39h-192q-20 0 -30.5 17t-2.5 35zM999 1845q10 24 32.5 38.5t49.5 14.5h240q22 0 31.5 -19t-2.5 -38l-144 -209q-28 -39 -76 -39h-192q-20 0 -30.5 17
t-2.5 35z" />
    <glyph glyph-name="ohungarumlaut" unicode="&#x151;" horiz-adv-x="1196" 
d="M598 1063q243 0 400 -153.5t157 -391.5t-157 -391.5t-400 -153.5t-400 153.5t-157 391.5t157 391.5t400 153.5zM598 334q81 0 132.5 49.5t51.5 134.5t-51.5 136t-132.5 51t-133.5 -51t-52.5 -136q0 -84 52.5 -134t133.5 -50zM305 1436q10 24 32.5 38.5t49.5 14.5h240
q22 0 31 -19t-3 -38l-143 -209q-28 -39 -76 -39h-192q-20 0 -30.5 16.5t-2.5 34.5zM778 1436q10 24 32.5 38.5t49.5 14.5h240q22 0 31 -19t-3 -38l-143 -209q-28 -39 -76 -39h-192q-20 0 -30.5 16.5t-2.5 34.5z" />
    <glyph glyph-name="OE" unicode="&#x152;" horiz-adv-x="2000" 
d="M1378 348h459q38 0 65 -26t27 -64v-166q0 -38 -27 -65t-65 -27h-989q-361 0 -574 192.5t-213 524.5t213 524.5t574 192.5h971q37 0 63.5 -27t26.5 -64v-167q0 -37 -26.5 -64t-63.5 -27h-441v-196h375q38 0 65 -26.5t27 -63.5v-150q0 -38 -27 -65t-65 -27h-375v-209z
M848 385h106v664h-106q-170 0 -266.5 -89t-96.5 -243t96.5 -243t266.5 -89z" />
    <glyph glyph-name="oe" unicode="&#x153;" horiz-adv-x="1966" 
d="M1391 1063q110 0 207 -38t172 -108.5t117 -181t38 -246.5q-2 -29 -23.5 -50t-50.5 -21h-649q22 -76 80 -117t148 -41q95 0 165 59q12 12 30.5 13.5t31.5 -6.5l162 -97q22 -14 26.5 -39t-12.5 -45q-65 -78 -170.5 -124t-232.5 -46q-284 0 -437 170q-141 -170 -395 -170
q-243 0 -400 153.5t-157 389.5q0 238 157 391.5t400 153.5q256 0 395 -172q153 172 398 172zM598 334q81 0 133.5 50.5t52.5 133.5q0 85 -52.5 136t-133.5 51q-80 0 -132 -51t-52 -136q0 -83 52 -133.5t132 -50.5zM1200 618h383q-38 160 -192 160q-70 0 -119 -43.5
t-72 -116.5z" />
    <glyph glyph-name="Racute" unicode="&#x154;" horiz-adv-x="1398" 
d="M981 0q-56 0 -82 51l-207 412h-155v-371q0 -38 -27.5 -65t-65.5 -27h-241q-37 0 -63.5 27t-26.5 65v1251q0 37 26.5 64t63.5 27h497q290 0 439 -136t149 -378q0 -265 -207 -379l260 -459q17 -28 1 -55t-48 -27h-313zM537 1049v-256h163q158 0 158 127q0 65 -38 97
t-120 32h-163zM592 1845q26 53 84 53h237q22 0 32.5 -19t-1.5 -38l-145 -209q-25 -39 -74 -39h-193q-20 0 -30.5 17.5t-1.5 34.5z" />
    <glyph glyph-name="racute" unicode="&#x155;" horiz-adv-x="831" 
d="M473 877q41 70 105 117.5t137 62.5q26 5 46.5 -11t20.5 -42v-279q0 -25 -17 -41t-40 -14q-65 2 -112 -12t-74 -37.5t-42 -63t-19.5 -77t-4.5 -89.5v-317q0 -31 -21.5 -52.5t-52.5 -21.5h-223q-31 0 -52.5 21.5t-21.5 52.5v891q0 31 21.5 52t52.5 21h223q31 0 52.5 -21
t21.5 -52v-88zM344 1436q26 53 84 53h238q22 0 32 -19t-2 -38l-145 -209q-25 -39 -74 -39h-192q-20 0 -31 17t-2 34z" />
    <glyph glyph-name="Rcommaaccent" unicode="&#x156;" horiz-adv-x="1398" 
d="M981 0q-56 0 -82 51l-207 412h-155v-371q0 -38 -27.5 -65t-65.5 -27h-241q-37 0 -63.5 27t-26.5 65v1251q0 37 26.5 64t63.5 27h497q290 0 439 -136t149 -378q0 -265 -207 -379l260 -459q17 -28 1 -55t-48 -27h-313zM537 1049v-256h163q158 0 158 127q0 65 -38 97
t-120 32h-163zM819 -147q20 0 30.5 -18.5t0.5 -35.5l-115 -215q-23 -37 -65 -37h-162q-19 0 -29.5 15.5t-3.5 34.5l78 208q7 22 26 35t42 13h198z" />
    <glyph glyph-name="rcommaaccent" unicode="&#x157;" horiz-adv-x="831" 
d="M473 877q41 70 105 117.5t137 62.5q26 5 46.5 -11t20.5 -42v-279q0 -25 -17 -41t-40 -14q-65 2 -112 -12t-74 -37.5t-42 -63t-19.5 -77t-4.5 -89.5v-317q0 -31 -21.5 -52.5t-52.5 -21.5h-223q-31 0 -52.5 21.5t-21.5 52.5v891q0 31 21.5 52t52.5 21h223q31 0 52.5 -21
t21.5 -52v-88zM367 -147q20 0 30.5 -18.5t-0.5 -35.5l-114 -215q-23 -37 -66 -37h-162q-19 0 -29 15.5t-3 34.5l77 208q7 22 26 35t42 13h199z" />
    <glyph glyph-name="Rcaron" unicode="&#x158;" horiz-adv-x="1398" 
d="M981 0q-56 0 -82 51l-207 412h-155v-371q0 -38 -27.5 -65t-65.5 -27h-241q-37 0 -63.5 27t-26.5 65v1251q0 37 26.5 64t63.5 27h497q290 0 439 -136t149 -378q0 -265 -207 -379l260 -459q17 -28 1 -55t-48 -27h-313zM537 1049v-256h163q158 0 158 127q0 65 -38 97
t-120 32h-163zM334 1839q-15 19 -5 39t33 20h183q45 0 73 -36l70 -97l70 97q25 36 73 36h183q23 0 33 -20t-5 -39l-165 -211q-24 -35 -72 -35h-234q-47 0 -71 35z" />
    <glyph glyph-name="rcaron" unicode="&#x159;" horiz-adv-x="831" 
d="M473 877q41 70 105 117.5t137 62.5q26 5 46.5 -11t20.5 -42v-279q0 -25 -17 -41t-40 -14q-65 2 -112 -12t-74 -37.5t-42 -63t-19.5 -77t-4.5 -89.5v-317q0 -31 -21.5 -52.5t-52.5 -21.5h-223q-31 0 -52.5 21.5t-21.5 52.5v891q0 31 21.5 52t52.5 21h223q31 0 52.5 -21
t21.5 -52v-88zM57 1430q-15 19 -4.5 39t33.5 20h182q45 0 74 -37l70 -96l69 96q26 37 74 37h182q23 0 33.5 -20t-4.5 -39l-166 -211q-24 -35 -72 -35h-233q-48 0 -72 35z" />
    <glyph glyph-name="Sacute" unicode="&#x15a;" horiz-adv-x="1228" 
d="M729 881q261 -73 365 -172.5t104 -270.5q0 -93 -39.5 -177t-111 -147.5t-178.5 -101t-234 -37.5q-93 0 -179 16.5t-166 51.5t-142.5 96.5t-94.5 143.5q-12 29 1 58t44 38l230 72q24 7 47 -2t37 -31q26 -40 79 -65t125 -25q78 0 118 30t40 74q0 18 -5.5 32t-19.5 25
t-27.5 18.5t-40 15t-45 12t-54.5 13t-58 13.5q-222 54 -329 154.5t-107 288.5q0 204 153.5 330t391.5 126q172 0 308 -77.5t194 -221.5q12 -31 -4 -60t-48 -38l-227 -55q-53 -10 -78 28q-44 68 -141 68q-65 0 -104 -26t-39 -74q0 -20 10.5 -35.5t25 -25.5t41 -19.5t47.5 -15
t55.5 -13.5t55.5 -14zM580 1845q26 53 84 53h237q22 0 32.5 -19t-1.5 -38l-146 -209q-25 -39 -73 -39h-193q-20 0 -31 17.5t-2 34.5z" />
    <glyph glyph-name="sacute" unicode="&#x15b;" horiz-adv-x="1011" 
d="M598 643q201 -43 284 -111.5t83 -207.5q0 -166 -121 -257.5t-348 -91.5q-151 0 -271.5 45t-171.5 140q-11 23 -1 47t34 31l221 67q40 13 64 -18q34 -54 121 -54q52 0 79 21t27 55q0 13 -4.5 23.5t-16 18t-23 13t-33 11t-38 9t-45.5 9.5t-49 10q-81 17 -137 39.5
t-100.5 59t-66.5 91.5t-22 130q0 158 130.5 249t332.5 91q124 0 230.5 -51t156.5 -148q11 -23 0.5 -47t-36.5 -31l-191 -45q-38 -10 -59 21q-29 47 -99 47q-50 0 -78 -20.5t-28 -57.5q0 -10 3 -19t10 -16t13.5 -12.5t19.5 -10t22 -8t25.5 -7t26 -5.5t28.5 -5t28 -5z
M451 1436q26 53 84 53h237q22 0 32.5 -19t-1.5 -38l-146 -209q-25 -39 -73 -39h-193q-20 0 -31 17t-2 34z" />
    <glyph glyph-name="Scircumflex" unicode="&#x15c;" horiz-adv-x="1228" 
d="M729 881q261 -73 365 -172.5t104 -270.5q0 -93 -39.5 -177t-111 -147.5t-178.5 -101t-234 -37.5q-93 0 -179 16.5t-166 51.5t-142.5 96.5t-94.5 143.5q-12 29 1 58t44 38l230 72q24 7 47 -2t37 -31q26 -40 79 -65t125 -25q78 0 118 30t40 74q0 18 -5.5 32t-19.5 25
t-27.5 18.5t-40 15t-45 12t-54.5 13t-58 13.5q-222 54 -329 154.5t-107 288.5q0 204 153.5 330t391.5 126q172 0 308 -77.5t194 -221.5q12 -31 -4 -60t-48 -38l-227 -55q-53 -10 -78 28q-44 68 -141 68q-65 0 -104 -26t-39 -74q0 -20 10.5 -35.5t25 -25.5t41 -19.5t47.5 -15
t55.5 -13.5t55.5 -14zM969 1653q15 -19 4.5 -39.5t-33.5 -20.5h-182q-48 0 -74 37l-70 96l-69 -96q-29 -37 -74 -37h-184q-22 0 -32 20.5t3 39.5l166 211q27 34 72 34h235q48 0 72 -34z" />
    <glyph glyph-name="scircumflex" unicode="&#x15d;" horiz-adv-x="1011" 
d="M598 643q201 -43 284 -111.5t83 -207.5q0 -166 -121 -257.5t-348 -91.5q-151 0 -271.5 45t-171.5 140q-11 23 -1 47t34 31l221 67q40 13 64 -18q34 -54 121 -54q52 0 79 21t27 55q0 13 -4.5 23.5t-16 18t-23 13t-33 11t-38 9t-45.5 9.5t-49 10q-81 17 -137 39.5
t-100.5 59t-66.5 91.5t-22 130q0 158 130.5 249t332.5 91q124 0 230.5 -51t156.5 -148q11 -23 0.5 -47t-36.5 -31l-191 -45q-38 -10 -59 21q-29 47 -99 47q-50 0 -78 -20.5t-28 -57.5q0 -10 3 -19t10 -16t13.5 -12.5t19.5 -10t22 -8t25.5 -7t26 -5.5t28.5 -5t28 -5z
M860 1243q15 -19 4.5 -39t-33.5 -20h-182q-48 0 -74 37l-69 96l-70 -96q-29 -37 -74 -37h-184q-22 0 -31.5 20t3.5 39l165 211q27 35 72 35h236q47 0 71 -35z" />
    <glyph glyph-name="Scedilla" unicode="&#x15e;" horiz-adv-x="1228" 
d="M1198 438q0 -185 -142 -318t-378 -145l-35 -65h6q102 0 171 -52.5t69 -156.5q0 -115 -76.5 -169t-194.5 -54q-112 0 -202 39q-23 9 -31 31t4 44l47 84q6 12 19.5 16.5t25.5 -1.5q44 -19 80 -19q76 0 76 62q0 57 -68 57q-16 0 -24 -2q-22 -6 -37 12l-21 27q-20 26 -6 57
l47 95q-108 12 -197 44.5t-165.5 99t-112.5 159.5q-12 31 1 59t44 37l230 72q24 7 47 -2t37 -31q26 -40 79 -65t125 -25q78 0 118 30t40 74q0 18 -5.5 32t-19.5 25t-27.5 18.5t-40 15t-45 12t-54.5 13t-58 13.5q-222 54 -329 154.5t-107 288.5q0 204 153.5 330t391.5 126
q172 0 308 -77.5t194 -221.5q12 -31 -4 -60t-48 -38l-227 -55q-53 -10 -78 28q-44 68 -141 68q-65 0 -104 -26t-39 -74q0 -20 10.5 -35.5t25 -25.5t41 -19.5t47.5 -15t55.5 -13.5t55.5 -14q261 -73 365 -172.5t104 -270.5z" />
    <glyph glyph-name="scedilla" unicode="&#x15f;" horiz-adv-x="1011" 
d="M965 324q0 -152 -100 -242t-290 -105l-34 -67h6q102 0 170.5 -52.5t68.5 -156.5q0 -59 -22 -103.5t-61 -70t-86 -37.5t-103 -12q-111 0 -201 39q-23 9 -30.5 31t4.5 44l45 84q8 12 21.5 16.5t25.5 -1.5q44 -19 78 -19q35 0 56.5 15.5t21.5 46.5q0 57 -68 57q-19 0 -27 -2
q-25 -4 -37 12l-18 27q-23 26 -6 57l45 92q-129 8 -228.5 53t-142.5 130q-12 23 -2 46.5t35 31.5l221 67q17 6 35 1t27 -19q37 -54 123 -54q51 0 77.5 21t26.5 55q0 13 -4.5 23.5t-16 18t-22.5 13t-32.5 11t-37.5 9t-46 9.5l-50 10q-164 35 -245 105.5t-81 214.5
q0 158 131.5 249t333.5 91q124 0 230 -51t155 -148q12 -23 1.5 -46.5t-35.5 -31.5l-191 -45q-37 -10 -61 21q-29 47 -97 47q-50 0 -79 -20.5t-29 -57.5q0 -10 3 -19t10 -16t14 -12.5t19.5 -10t22 -8t25.5 -7t26.5 -5.5t28.5 -5t27 -5q202 -42 285.5 -111t83.5 -208z" />
    <glyph glyph-name="Scaron" unicode="&#x160;" horiz-adv-x="1228" 
d="M729 881q261 -73 365 -172.5t104 -270.5q0 -93 -39.5 -177t-111 -147.5t-178.5 -101t-234 -37.5q-93 0 -179 16.5t-166 51.5t-142.5 96.5t-94.5 143.5q-12 29 1 58t44 38l230 72q24 7 47 -2t37 -31q26 -40 79 -65t125 -25q78 0 118 30t40 74q0 18 -5.5 32t-19.5 25
t-27.5 18.5t-40 15t-45 12t-54.5 13t-58 13.5q-222 54 -329 154.5t-107 288.5q0 204 153.5 330t391.5 126q172 0 308 -77.5t194 -221.5q12 -31 -4 -60t-48 -38l-227 -55q-53 -10 -78 28q-44 68 -141 68q-65 0 -104 -26t-39 -74q0 -20 10.5 -35.5t25 -25.5t41 -19.5t47.5 -15
t55.5 -13.5t55.5 -14zM260 1839q-15 19 -4.5 39t33.5 20h182q46 0 74 -36l69 -97l70 97q25 36 74 36h182q23 0 33.5 -20t-4.5 -39l-166 -211q-24 -35 -72 -35h-233q-48 0 -72 35z" />
    <glyph glyph-name="scaron" unicode="&#x161;" horiz-adv-x="1011" 
d="M598 643q201 -43 284 -111.5t83 -207.5q0 -166 -121 -257.5t-348 -91.5q-151 0 -271.5 45t-171.5 140q-11 23 -1 47t34 31l221 67q40 13 64 -18q34 -54 121 -54q52 0 79 21t27 55q0 13 -4.5 23.5t-16 18t-23 13t-33 11t-38 9t-45.5 9.5t-49 10q-81 17 -137 39.5
t-100.5 59t-66.5 91.5t-22 130q0 158 130.5 249t332.5 91q124 0 230.5 -51t156.5 -148q11 -23 0.5 -47t-36.5 -31l-191 -45q-38 -10 -59 21q-29 47 -99 47q-50 0 -78 -20.5t-28 -57.5q0 -10 3 -19t10 -16t13.5 -12.5t19.5 -10t22 -8t25.5 -7t26 -5.5t28.5 -5t28 -5z
M152 1430q-15 19 -5 39t33 20h182q45 0 74 -37l70 -96l69 96q26 37 74 37h182q23 0 33.5 -20t-4.5 -39l-166 -211q-24 -35 -71 -35h-234q-48 0 -72 35z" />
    <glyph glyph-name="Tcommaaccent" unicode="&#x162;" horiz-adv-x="1198" 
d="M1057 1434q37 0 63.5 -27t26.5 -64v-204q0 -37 -26.5 -63.5t-63.5 -26.5h-246v-957q0 -38 -26.5 -65t-63.5 -27h-242q-38 0 -65 27t-27 65v957h-244q-37 0 -63.5 26.5t-26.5 63.5v204q0 37 26.5 64t63.5 27h914zM688 -147q20 0 30.5 -18.5t0.5 -35.5l-115 -215
q-23 -37 -65 -37h-162q-19 0 -29.5 15.5t-3.5 34.5l78 208q17 48 67 48h199z" />
    <glyph glyph-name="tcommaaccent" unicode="&#x163;" horiz-adv-x="843" 
d="M752 801q0 -31 -21.5 -52.5t-52.5 -21.5h-131v-274q0 -72 36 -110t107 -38h6q22 2 39 -14t17 -39v-209q0 -20 -12.5 -35t-32.5 -18q-48 -10 -117 -10q-94 0 -167 26.5t-118.5 69t-74.5 101t-40.5 117.5t-11.5 124v309h-74q-31 0 -52 21.5t-21 52.5v164q0 31 21 52t52 21
h74v146q0 29 21.5 50t50.5 21h223q31 0 52.5 -21t21.5 -50v-146h131q31 0 52.5 -21t21.5 -52v-164zM551 -147q20 0 30.5 -18.5t0.5 -35.5l-115 -215q-23 -37 -66 -37h-161q-19 0 -29.5 15.5t-3.5 34.5l78 208q17 48 67 48h199z" />
    <glyph glyph-name="Tcaron" unicode="&#x164;" horiz-adv-x="1198" 
d="M1057 1434q37 0 63.5 -27t26.5 -64v-204q0 -37 -26.5 -63.5t-63.5 -26.5h-246v-957q0 -38 -26.5 -65t-63.5 -27h-242q-38 0 -65 27t-27 65v957h-244q-37 0 -63.5 26.5t-26.5 63.5v204q0 37 26.5 64t63.5 27h914zM244 1839q-15 19 -5 39t33 20h183q45 0 73 -36l70 -97
l70 97q25 36 73 36h183q23 0 33 -20t-5 -39l-166 -211q-24 -35 -71 -35h-234q-47 0 -71 35z" />
    <glyph glyph-name="tcaron" unicode="&#x165;" horiz-adv-x="843" 
d="M752 801q0 -31 -21.5 -52.5t-52.5 -21.5h-131v-274q0 -72 36 -110t107 -38h6q22 2 39 -14t17 -39v-209q0 -20 -12.5 -35t-32.5 -18q-48 -10 -117 -10q-94 0 -167 26.5t-118.5 69t-74.5 101t-40.5 117.5t-11.5 124v309h-74q-31 0 -52 21.5t-21 52.5v164q0 31 21 52t52 21
h74v146q0 29 21.5 50t50.5 21h223q31 0 52.5 -21t21.5 -50v-146h131q31 0 52.5 -21t21.5 -52v-164zM1026 1458q20 0 30.5 -18t0.5 -35l-115 -215q-23 -37 -65 -37h-162q-19 0 -29.5 15.5t-3.5 33.5l78 209q7 22 25.5 34.5t41.5 12.5h199z" />
    <glyph glyph-name="Tbar" unicode="&#x166;" horiz-adv-x="1198" 
d="M1145 1139q0 -37 -27 -63.5t-65 -26.5h-244v-295h172q15 0 26 -11t11 -26v-37q0 -15 -11 -26t-26 -11h-172v-551q0 -38 -26.5 -65t-63.5 -27h-242q-38 0 -65 27t-27 65v551h-172q-15 0 -26 11t-11 26v37q0 15 11 26t26 11h172v295h-244q-38 0 -65 26.5t-27 63.5v204
q0 37 27 64t65 27h912q38 0 65 -27t27 -64v-204z" />
    <glyph glyph-name="tbar" unicode="&#x167;" horiz-adv-x="843" 
d="M752 545q0 -14 -11 -24.5t-26 -10.5h-168v-57q0 -71 36.5 -109.5t106.5 -38.5h6q23 1 39.5 -14.5t16.5 -38.5v-209q0 -20 -12.5 -35t-32.5 -18q-45 -10 -117 -10q-94 0 -167 26.5t-118.5 69t-74.5 101t-40.5 117.5t-11.5 124v92h-110q-14 0 -24.5 11t-10.5 24v37
q0 15 10.5 25.5t24.5 10.5h110v109h-74q-29 0 -50 21.5t-21 52.5v164q0 31 21 52t50 21h74v146q0 29 21.5 50t52.5 21h223q29 0 50.5 -21t21.5 -50v-146h131q31 0 52.5 -21t21.5 -52v-164q0 -31 -21.5 -52.5t-52.5 -21.5h-131v-109h168q15 0 26 -10.5t11 -25.5v-37z" />
    <glyph glyph-name="Utilde" unicode="&#x168;" horiz-adv-x="1497" 
d="M1051 1434h241q37 0 63.5 -27t26.5 -64v-759q0 -310 -166 -459.5t-468 -149.5t-468.5 149.5t-166.5 459.5v759q0 37 26.5 64t63.5 27h241q38 0 65.5 -27t27.5 -64v-722q0 -118 55 -177t156 -59q100 0 155 59t55 177v722q0 37 27.5 64t65.5 27zM915 1858l136 -23
q23 -5 36 -24t9 -42q-19 -100 -65 -149t-124 -49q-55 0 -137 30.5t-102 30.5q-32 0 -47 -33q-4 -10 -15.5 -16t-23.5 -4l-136 25q-23 3 -36.5 22.5t-8.5 42.5q45 197 207 197q43 0 115 -30t104 -30q36 0 47 29q6 12 17.5 19t23.5 4z" />
    <glyph glyph-name="utilde" unicode="&#x169;" horiz-adv-x="1239" 
d="M840 1038h223q31 0 52.5 -21t21.5 -52v-891q0 -31 -21.5 -52.5t-52.5 -21.5h-242q-22 0 -37.5 16t-15.5 39v56q-95 -136 -285 -136q-67 0 -123 15t-94.5 40t-68.5 60t-47.5 72t-28.5 79t-15 77t-4 71v576q0 31 21.5 52t52.5 21h223q31 0 52.5 -21t21.5 -52v-486
q0 -63 40 -103t108 -40q67 0 107 40t40 103v486q0 31 21 52t51 21zM786 1448l136 -23q23 -5 36 -23.5t9 -41.5q-19 -100 -65 -149.5t-124 -49.5q-55 0 -137 31t-102 31q-32 0 -47 -33q-4 -10 -15.5 -16.5t-23.5 -4.5l-136 25q-23 3 -36.5 23t-8.5 43q45 196 207 196
q43 0 115 -29.5t104 -29.5q36 0 47 28q6 12 17.5 19t23.5 4z" />
    <glyph glyph-name="Umacron" unicode="&#x16a;" horiz-adv-x="1497" 
d="M1051 1434h241q37 0 63.5 -27t26.5 -64v-759q0 -310 -166 -459.5t-468 -149.5t-468.5 149.5t-166.5 459.5v759q0 37 26.5 64t63.5 27h241q38 0 65.5 -27t27.5 -64v-722q0 -118 55 -177t156 -59q100 0 155 59t55 177v722q0 37 27.5 64t65.5 27zM432 1792q0 31 21.5 51.5
t52.5 20.5h487q30 0 51 -21t21 -51v-111q0 -29 -21.5 -50t-50.5 -21h-487q-31 0 -52.5 21t-21.5 50v111z" />
    <glyph glyph-name="umacron" unicode="&#x16b;" horiz-adv-x="1239" 
d="M840 1038h223q31 0 52.5 -21t21.5 -52v-891q0 -31 -21.5 -52.5t-52.5 -21.5h-242q-22 0 -37.5 16t-15.5 39v56q-95 -136 -285 -136q-67 0 -123 15t-94.5 40t-68.5 60t-47.5 72t-28.5 79t-15 77t-4 71v576q0 31 21.5 52t52.5 21h223q31 0 52.5 -21t21.5 -52v-486
q0 -63 40 -103t108 -40q67 0 107 40t40 103v486q0 31 21 52t51 21zM303 1382q0 31 21.5 51.5t52.5 20.5h487q30 0 51 -21t21 -51v-110q0 -29 -21.5 -50.5t-50.5 -21.5h-487q-31 0 -52.5 21.5t-21.5 50.5v110z" />
    <glyph glyph-name="Ubreve" unicode="&#x16c;" horiz-adv-x="1497" 
d="M1051 1434h241q37 0 63.5 -27t26.5 -64v-759q0 -310 -166 -459.5t-468 -149.5t-468.5 149.5t-166.5 459.5v759q0 37 26.5 64t63.5 27h241q38 0 65.5 -27t27.5 -64v-722q0 -118 55 -177t156 -59q100 0 155 59t55 177v722q0 37 27.5 64t65.5 27zM901 1890h131
q25 0 41 -18.5t12 -42.5q-19 -122 -110 -192t-227 -70t-227 70t-111 192q-4 24 12 42.5t41 18.5h131q19 0 33.5 -10t19.5 -25q19 -69 101 -69q83 0 102 69q4 15 19 25t32 10z" />
    <glyph glyph-name="ubreve" unicode="&#x16d;" horiz-adv-x="1239" 
d="M840 1038h223q31 0 52.5 -21t21.5 -52v-891q0 -31 -21.5 -52.5t-52.5 -21.5h-242q-22 0 -37.5 16t-15.5 39v56q-95 -136 -285 -136q-67 0 -123 15t-94.5 40t-68.5 60t-47.5 72t-28.5 79t-15 77t-4 71v576q0 31 21.5 52t52.5 21h223q31 0 52.5 -21t21.5 -52v-486
q0 -63 40 -103t108 -40q67 0 107 40t40 103v486q0 31 21 52t51 21zM772 1481h131q25 0 41 -18.5t12 -43.5q-19 -122 -110.5 -192t-227.5 -70t-226.5 70t-110.5 192q-4 25 12 43.5t41 18.5h131q19 0 33.5 -10t19.5 -25q20 -70 100 -70q83 0 103 70q4 15 19 25t32 10z" />
    <glyph glyph-name="Uring" unicode="&#x16e;" horiz-adv-x="1497" 
d="M1051 1434h241q37 0 63.5 -27t26.5 -64v-759q0 -310 -166 -459.5t-468 -149.5t-468.5 149.5t-166.5 459.5v759q0 37 26.5 64t63.5 27h241q38 0 65.5 -27t27.5 -64v-722q0 -118 55 -177t156 -59q100 0 155 59t55 177v722q0 37 27.5 64t65.5 27zM748 2005
q104 0 177.5 -73.5t73.5 -176.5q0 -104 -73.5 -178t-177.5 -74t-178 74t-74 178q0 103 74 176.5t178 73.5zM748 1667q35 0 60.5 25.5t25.5 62.5q0 35 -25.5 60.5t-60.5 25.5q-36 0 -62.5 -25.5t-26.5 -60.5q0 -36 26.5 -62t62.5 -26z" />
    <glyph glyph-name="uring" unicode="&#x16f;" horiz-adv-x="1239" 
d="M840 1038h223q31 0 52.5 -21t21.5 -52v-891q0 -31 -21.5 -52.5t-52.5 -21.5h-242q-22 0 -37.5 16t-15.5 39v56q-95 -136 -285 -136q-67 0 -123 15t-94.5 40t-68.5 60t-47.5 72t-28.5 79t-15 77t-4 71v576q0 31 21.5 52t52.5 21h223q31 0 52.5 -21t21.5 -52v-486
q0 -63 40 -103t108 -40q67 0 107 40t40 103v486q0 31 21 52t51 21zM618 1616q104 0 178 -73.5t74 -176.5q0 -104 -74 -178t-178 -74t-177.5 74t-73.5 178q0 103 73.5 176.5t177.5 73.5zM618 1278q36 0 61.5 26t25.5 62q0 35 -26 60.5t-61 25.5t-61.5 -25.5t-26.5 -60.5
q0 -36 26 -62t62 -26z" />
    <glyph glyph-name="Uhungarumlaut" unicode="&#x170;" horiz-adv-x="1497" 
d="M1051 1434h241q37 0 63.5 -27t26.5 -64v-759q0 -310 -166 -459.5t-468 -149.5t-468.5 149.5t-166.5 459.5v759q0 37 26.5 64t63.5 27h241q38 0 65.5 -27t27.5 -64v-722q0 -118 55 -177t156 -59q100 0 155 59t55 177v722q0 37 27.5 64t65.5 27zM457 1845q10 24 32.5 38.5
t49.5 14.5h239q22 0 31.5 -19t-2.5 -38l-143 -209q-28 -39 -76 -39h-193q-20 0 -30.5 17t-2.5 35zM930 1845q10 24 32.5 38.5t49.5 14.5h239q22 0 31.5 -19t-2.5 -38l-143 -209q-28 -39 -76 -39h-193q-20 0 -30 17t-2 35z" />
    <glyph glyph-name="uhungarumlaut" unicode="&#x171;" horiz-adv-x="1239" 
d="M840 1038h223q31 0 52.5 -21t21.5 -52v-891q0 -31 -21.5 -52.5t-52.5 -21.5h-242q-22 0 -37.5 16t-15.5 39v56q-95 -136 -285 -136q-67 0 -123 15t-94.5 40t-68.5 60t-47.5 72t-28.5 79t-15 77t-4 71v576q0 31 21.5 52t52.5 21h223q31 0 52.5 -21t21.5 -52v-486
q0 -63 40 -103t108 -40q67 0 107 40t40 103v486q0 31 21 52t51 21zM328 1436q10 24 32.5 38.5t49.5 14.5h239q22 0 31.5 -19t-2.5 -38l-143 -209q-28 -39 -76 -39h-193q-20 0 -30.5 16.5t-2.5 34.5zM801 1436q10 24 32.5 38.5t49.5 14.5h239q22 0 31.5 -19t-2.5 -38
l-143 -209q-28 -39 -76 -39h-193q-20 0 -30 16.5t-2 34.5z" />
    <glyph glyph-name="Uogonek" unicode="&#x172;" horiz-adv-x="1497" 
d="M1051 1434h241q38 0 65 -27t27 -64v-759q0 -232 -94.5 -374.5t-271.5 -197.5q-57 -35 -102.5 -93.5t-45.5 -115.5q0 -44 27 -71t80 -27h18q17 1 29 -9.5t12 -25.5v-102q0 -19 -11 -32.5t-28 -18.5q-66 -19 -135 -19q-118 0 -189 53.5t-71 153.5q0 82 45.5 151t110.5 119
h-8q-304 0 -470.5 149.5t-166.5 459.5v759q0 37 27 64t65 27h241q37 0 64 -27t27 -64v-722q0 -117 56 -176.5t157 -59.5t156 59t55 177v722q0 37 26.5 64t63.5 27z" />
    <glyph glyph-name="uogonek" unicode="&#x173;" horiz-adv-x="1239" 
d="M1135 43q0 -43 -35 -61q-55 -34 -92 -80.5t-37 -98.5q0 -44 25.5 -71t78.5 -27h21q15 2 27 -9t12 -26v-102q0 -42 -39 -51q-66 -19 -135 -19q-118 0 -189.5 53.5t-71.5 153.5q0 96 60 174t133 121h-72q-23 0 -39 16t-16 39v56q-95 -136 -283 -136q-93 0 -164 29t-111 72
t-65 102t-33 109t-8 102v576q0 31 21 52t51 21h223q31 0 52.5 -21t21.5 -52v-486q0 -63 40.5 -103t106.5 -40q67 0 107.5 40.5t40.5 102.5v486q0 31 21.5 52t52.5 21h223q29 0 50.5 -21t21.5 -52v-922z" />
    <glyph glyph-name="Wcircumflex" unicode="&#x174;" horiz-adv-x="2066" 
d="M1581 1364q6 31 31 50.5t57 19.5h289q37 0 59 -30t11 -65l-373 -1261q-11 -34 -40.5 -56t-66.5 -22h-211q-37 0 -66 22.5t-38 57.5l-201 715l-201 -715q-11 -35 -40 -57.5t-66 -22.5h-211q-35 0 -64 22t-40 56l-373 1261q-11 35 10.5 65t58.5 30h289q31 0 56 -19.5
t32 -50.5l176 -743l211 747q7 29 32 47.5t56 18.5h148q31 0 55 -18.5t33 -47.5l209 -747zM1386 1653q15 -19 5 -39.5t-33 -20.5h-182q-48 0 -74 37l-70 96l-69 -96q-29 -37 -74 -37h-184q-22 0 -32 20.5t3 39.5l166 211q27 34 71 34h236q48 0 72 -34z" />
    <glyph glyph-name="wcircumflex" unicode="&#x175;" horiz-adv-x="1667" 
d="M1251 971q7 29 32 48t56 19h244q29 0 45.5 -22.5t7.5 -48.5l-305 -906q-9 -28 -33 -44.5t-53 -16.5h-172q-29 0 -53 17.5t-33 45.5l-151 474l-152 -474q-9 -28 -33 -45.5t-53 -17.5h-172q-29 0 -53 16.5t-33 44.5l-303 906q-9 26 7 48.5t44 22.5h244q31 0 56 -19t32 -48
l123 -469l151 473q7 28 31.5 45.5t54.5 17.5h111q31 0 55 -17.5t33 -45.5l149 -473zM1188 1243q15 -19 4.5 -39t-33.5 -20h-182q-48 0 -74 37l-69 96l-70 -96q-29 -37 -74 -37h-184q-22 0 -32 20t3 39l166 211q27 35 72 35h235q48 0 72 -35z" />
    <glyph glyph-name="Ycircumflex" unicode="&#x176;" horiz-adv-x="1476" 
d="M1372 1434q32 0 48 -27t1 -55l-471 -811v-449q0 -38 -26 -65t-64 -27h-242q-38 0 -64 27t-26 65v449l-471 811q-15 28 1 55t48 27h304q68 0 98 -64l231 -493l232 493q30 64 98 64h303zM1092 1653q15 -19 4.5 -39.5t-33.5 -20.5h-182q-48 0 -74 37l-70 96l-69 -96
q-29 -37 -74 -37h-184q-22 0 -32 20.5t3 39.5l166 211q27 34 71 34h236q48 0 72 -34z" />
    <glyph glyph-name="ycircumflex" unicode="&#x177;" horiz-adv-x="1185" 
d="M764 977q9 28 33 44.5t53 16.5h246q29 0 45 -23.5t6 -51.5q-303 -757 -383 -963q-14 -36 -22.5 -56t-25.5 -57.5t-30 -60.5t-34.5 -56t-42 -53.5t-49 -44t-58 -36.5t-66.5 -22t-78 -9q-52 0 -114 10q-20 4 -32.5 19.5t-12.5 35.5v203q0 22 16 37.5t39 15.5
q124 -3 170 135q-6 16 -78.5 187t-171 403.5t-131.5 311.5q-11 27 5 51t46 24h242q29 0 52 -16.5t34 -44.5l170 -479zM946 1243q15 -19 5 -39t-33 -20h-183q-47 0 -73 37l-70 96l-70 -96q-29 -37 -73 -37h-185q-22 0 -31.5 20t3.5 39l165 211q27 35 72 35h236q47 0 71 -35z
" />
    <glyph glyph-name="Ydieresis" unicode="&#x178;" horiz-adv-x="1476" 
d="M1372 1434q32 0 48 -27t1 -55l-471 -811v-449q0 -38 -26 -65t-64 -27h-242q-38 0 -64 27t-26 65v449l-471 811q-15 28 1 55t48 27h304q68 0 98 -64l231 -493l232 493q30 64 98 64h303zM496 1915q73 0 124.5 -52t51.5 -126t-51.5 -126t-124.5 -52q-74 0 -126.5 52.5
t-52.5 125.5t52.5 125.5t126.5 52.5zM979 1915q73 0 125.5 -52.5t52.5 -125.5t-52.5 -125.5t-125.5 -52.5t-125.5 52.5t-52.5 125.5t52.5 125.5t125.5 52.5z" />
    <glyph glyph-name="Zacute" unicode="&#x179;" horiz-adv-x="1259" 
d="M610 385h508q38 0 65 -26.5t27 -63.5v-203q0 -38 -27 -65t-65 -27h-975q-38 0 -65 27t-27 65v195q0 43 29 80l534 682h-452q-38 0 -65 26.5t-27 63.5v204q0 37 27 64t65 27h919q38 0 65.5 -27t27.5 -64v-196q0 -41 -29 -78zM573 1845q26 53 84 53h238q22 0 32.5 -19
t-1.5 -38l-146 -209q-25 -39 -73 -39h-193q-20 0 -31 17.5t-2 34.5z" />
    <glyph glyph-name="zacute" unicode="&#x17a;" horiz-adv-x="1038" 
d="M543 328h350q31 0 52.5 -21.5t21.5 -50.5v-182q0 -31 -21.5 -52.5t-52.5 -21.5h-752q-29 0 -50 21.5t-21 52.5v147q0 35 22 60l381 430h-313q-29 0 -50.5 21t-21.5 50v183q0 31 21 52t51 21h714q31 0 52.5 -21t21.5 -52v-148q0 -35 -24 -59zM463 1436q26 53 84 53h237
q22 0 32.5 -19t-1.5 -38l-145 -209q-25 -39 -74 -39h-193q-20 0 -30.5 17t-1.5 34z" />
    <glyph glyph-name="Zdotaccent" unicode="&#x17b;" horiz-adv-x="1259" 
d="M610 385h508q38 0 65 -26.5t27 -63.5v-203q0 -38 -27 -65t-65 -27h-975q-38 0 -65 27t-27 65v195q0 43 29 80l534 682h-452q-38 0 -65 26.5t-27 63.5v204q0 37 27 64t65 27h919q38 0 65.5 -27t27.5 -64v-196q0 -41 -29 -78zM631 1915q73 0 124.5 -52t51.5 -126
t-51.5 -126t-124.5 -52t-125.5 52.5t-52.5 125.5t52.5 125.5t125.5 52.5z" />
    <glyph glyph-name="zdotaccent" unicode="&#x17c;" horiz-adv-x="1038" 
d="M543 328h350q31 0 52.5 -21.5t21.5 -50.5v-182q0 -31 -21.5 -52.5t-52.5 -21.5h-752q-29 0 -50 21.5t-21 52.5v147q0 35 22 60l381 430h-313q-29 0 -50.5 21t-21.5 50v183q0 31 21 52t51 21h714q31 0 52.5 -21t21.5 -52v-148q0 -35 -24 -59zM520 1505q73 0 124.5 -52
t51.5 -126t-51.5 -126t-124.5 -52q-74 0 -126 52.5t-52 125.5t52 125.5t126 52.5z" />
    <glyph glyph-name="Zcaron" unicode="&#x17d;" horiz-adv-x="1259" 
d="M610 385h508q38 0 65 -26.5t27 -63.5v-203q0 -38 -27 -65t-65 -27h-975q-38 0 -65 27t-27 65v195q0 43 29 80l534 682h-452q-38 0 -65 26.5t-27 63.5v204q0 37 27 64t65 27h919q38 0 65.5 -27t27.5 -64v-196q0 -41 -29 -78zM274 1839q-15 19 -4.5 39t33.5 20h182
q46 0 74 -36l70 -97l69 97q25 36 74 36h182q23 0 33.5 -20t-4.5 -39l-166 -211q-24 -35 -72 -35h-233q-48 0 -72 35z" />
    <glyph glyph-name="zcaron" unicode="&#x17e;" horiz-adv-x="1038" 
d="M543 328h350q31 0 52.5 -21.5t21.5 -50.5v-182q0 -31 -21.5 -52.5t-52.5 -21.5h-752q-29 0 -50 21.5t-21 52.5v147q0 35 22 60l381 430h-313q-29 0 -50.5 21t-21.5 50v183q0 31 21 52t51 21h714q31 0 52.5 -21t21.5 -52v-148q0 -35 -24 -59zM164 1430q-15 19 -4.5 39
t33.5 20h182q45 0 74 -37l69 -96l70 96q26 37 74 37h182q23 0 33 -20t-5 -39l-165 -211q-24 -35 -72 -35h-234q-47 0 -71 35z" />
    <glyph glyph-name="longs" unicode="&#x17f;" horiz-adv-x="804" 
d="M702 1188q-74 0 -107.5 -41t-33.5 -109v-964q0 -31 -21.5 -52.5t-52.5 -21.5h-223q-31 0 -52.5 21.5t-21.5 52.5v653h-55q-29 0 -50.5 21.5t-21.5 52.5v164q0 31 21.5 52t50.5 21h55q0 45 4 86.5t15.5 89.5t30.5 87.5t50.5 77.5t73.5 64t103 42t135 16q62 0 117 -10
q20 -3 32.5 -18t12.5 -35v-197q0 -22 -16 -38t-39 -15h-7z" />
    <glyph glyph-name="AEacute" unicode="&#x1fc;" horiz-adv-x="2017" 
d="M1395 348h458q39 0 66 -26t27 -64v-166q0 -38 -27.5 -65t-65.5 -27h-790q-38 0 -65 27t-27 65v139h-404l-75 -176q-11 -25 -33.5 -40t-50.5 -15h-283q-40 0 -62.5 34t-5.5 70l596 1256q17 34 48.5 54t68.5 20h1065q38 0 64 -27t26 -64v-167q0 -37 -26 -64t-64 -27h-440
v-196h374q38 0 65.5 -26.5t27.5 -63.5v-150q0 -38 -27.5 -65t-65.5 -27h-374v-209zM696 532h275v553h-37zM1188 1845q26 53 84 53h237q22 0 32.5 -19t-1.5 -38l-145 -209q-25 -39 -74 -39h-193q-20 0 -30.5 17.5t-1.5 34.5z" />
    <glyph glyph-name="aeacute" unicode="&#x1fd;" horiz-adv-x="2095" 
d="M1518 1063q110 0 207 -38t172 -108.5t117 -181t38 -246.5q-2 -30 -23 -50.5t-51 -20.5h-649q22 -76 79.5 -117t147.5 -41q96 0 166 59q28 25 64 7l162 -97q21 -13 25 -38.5t-11 -45.5q-67 -78 -173 -124t-233 -46q-244 0 -391 129v-49q0 -23 -16 -39t-39 -16h-260
q-23 0 -39 16t-16 39v29q-91 -109 -271 -109q-94 0 -174 30.5t-136 83t-95.5 122t-58.5 147.5t-19 160q0 83 19 161t58.5 148t95.5 122.5t136 83t174 30.5q177 0 271 -109v29q0 23 16 39t39 16h260q23 0 39 -16t16 -39v-47q143 127 353 127zM598 334q83 0 134.5 51t51.5 133
q0 83 -51.5 135t-134.5 52q-85 0 -134.5 -52t-49.5 -135q0 -81 49.5 -132.5t134.5 -51.5zM1329 618h381q-15 75 -64.5 117.5t-127.5 42.5q-69 0 -118.5 -43.5t-70.5 -116.5zM963 1436q26 53 84 53h237q22 0 32.5 -19t-1.5 -38l-146 -209q-25 -39 -73 -39h-193q-20 0 -31 17
t-2 34z" />
    <glyph glyph-name="Oslashacute" unicode="&#x1fe;" horiz-adv-x="1597" 
d="M1386 1180q150 -195 150 -463q0 -209 -94 -378.5t-263 -266.5t-380 -97q-307 0 -514 197l-95 -84q-11 -10 -25.5 -9.5t-25.5 11.5l-24 27q-10 12 -9.5 27t11.5 24l94 86q-150 199 -150 463q0 210 94 379.5t263 266.5t381 97q305 0 516 -198l92 84q11 10 26.5 9t24.5 -12
l25 -26q10 -11 9.5 -26.5t-11.5 -24.5zM485 717q0 -100 41 -174l478 434q-82 72 -205 72q-144 0 -229 -93.5t-85 -238.5zM799 385q144 0 228.5 94t84.5 238q0 100 -41 174l-477 -434q82 -72 205 -72zM764 1845q26 53 84 53h237q22 0 32.5 -19t-1.5 -38l-145 -209
q-25 -39 -74 -39h-192q-20 0 -31 17.5t-2 34.5z" />
    <glyph glyph-name="oslashacute" unicode="&#x1ff;" horiz-adv-x="1196" 
d="M1049 854q108 -143 108 -336q0 -236 -157 -389.5t-400 -153.5q-224 0 -375 129l-69 -65q-12 -9 -28 -8.5t-26 12.5l-24 27q-9 10 -8.5 25.5t12.5 25.5l68 63q-109 144 -109 334q0 238 157.5 391.5t401.5 153.5q222 0 373 -129l69 63q12 11 28 10.5t26 -12.5l24 -26
q9 -10 8.5 -25.5t-12.5 -25.5zM414 518q0 -40 16 -80l266 244q-48 23 -96 23q-81 0 -133.5 -51t-52.5 -136zM600 334q80 0 132 50.5t52 133.5q0 42 -16 82l-266 -244q46 -22 98 -22zM543 1436q26 53 84 53h237q22 0 32.5 -19t-1.5 -38l-145 -209q-25 -39 -74 -39h-193
q-20 0 -30.5 17t-1.5 34z" />
    <glyph glyph-name="Scommaaccent" unicode="&#x218;" horiz-adv-x="1228" 
d="M729 881q261 -73 365 -172.5t104 -270.5q0 -93 -39.5 -177t-111 -147.5t-178.5 -101t-234 -37.5q-93 0 -179 16.5t-166 51.5t-142.5 96.5t-94.5 143.5q-12 29 1 58t44 38l230 72q24 7 47 -2t37 -31q26 -40 79 -65t125 -25q78 0 118 30t40 74q0 18 -5.5 32t-19.5 25
t-27.5 18.5t-40 15t-45 12t-54.5 13t-58 13.5q-222 54 -329 154.5t-107 288.5q0 204 153.5 330t391.5 126q172 0 308 -77.5t194 -221.5q12 -31 -4 -60t-48 -38l-227 -55q-53 -10 -78 28q-44 68 -141 68q-65 0 -104 -26t-39 -74q0 -20 10.5 -35.5t25 -25.5t41 -19.5t47.5 -15
t55.5 -13.5t55.5 -14zM733 -147q20 0 30.5 -18.5t0.5 -35.5l-115 -215q-23 -37 -65 -37h-162q-19 0 -29.5 15.5t-3.5 34.5l78 208q7 22 26 35t42 13h198z" />
    <glyph glyph-name="scommaaccent" unicode="&#x219;" horiz-adv-x="1011" 
d="M598 643q201 -43 284 -111.5t83 -207.5q0 -166 -121 -257.5t-348 -91.5q-151 0 -271.5 45t-171.5 140q-11 23 -1 47t34 31l221 67q40 13 64 -18q34 -54 121 -54q52 0 79 21t27 55q0 13 -4.5 23.5t-16 18t-23 13t-33 11t-38 9t-45.5 9.5t-49 10q-81 17 -137 39.5
t-100.5 59t-66.5 91.5t-22 130q0 158 130.5 249t332.5 91q124 0 230.5 -51t156.5 -148q11 -23 0.5 -47t-36.5 -31l-191 -45q-38 -10 -59 21q-29 47 -99 47q-50 0 -78 -20.5t-28 -57.5q0 -10 3 -19t10 -16t13.5 -12.5t19.5 -10t22 -8t25.5 -7t26 -5.5t28.5 -5t28 -5z
M594 -147q20 0 30.5 -18.5t0.5 -35.5l-115 -215q-23 -37 -66 -37h-161q-19 0 -29.5 15.5t-3.5 34.5l78 208q17 48 67 48h199z" />
    <glyph glyph-name="circumflex" unicode="&#x2c6;" horiz-adv-x="1028" 
d="M868 1243q15 -19 5 -39t-33 -20h-183q-47 0 -73 37l-70 96l-70 -96q-29 -37 -73 -37h-185q-22 0 -31.5 20t3.5 39l166 211q27 35 71 35h236q47 0 71 -35z" />
    <glyph glyph-name="caron" unicode="&#x2c7;" horiz-adv-x="1028" 
d="M160 1430q-15 19 -5 39t33 20h183q44 0 73 -37l70 -96l70 96q26 37 73 37h183q23 0 33 -20t-5 -39l-166 -211q-24 -35 -71 -35h-234q-47 0 -71 35z" />
    <glyph glyph-name="breve" unicode="&#x2d8;" horiz-adv-x="911" 
d="M608 1481h131q25 0 41.5 -19t12.5 -43q-19 -122 -110.5 -192t-227.5 -70t-227 70t-111 192q-4 25 12 43.5t41 18.5h131q19 0 33.5 -10t19.5 -25q20 -70 101 -70q82 0 102 70q4 15 19 25t32 10z" />
    <glyph glyph-name="dotaccent" unicode="&#x2d9;" horiz-adv-x="579" 
d="M291 1505q73 0 124.5 -52t51.5 -126t-51.5 -126t-124.5 -52t-125.5 52.5t-52.5 125.5t52.5 125.5t125.5 52.5z" />
    <glyph glyph-name="ring" unicode="&#x2da;" horiz-adv-x="729" 
d="M365 1595q104 0 177.5 -73t73.5 -176q0 -104 -73.5 -178t-177.5 -74t-178 74t-74 178q0 103 74 176t178 73zM365 1257q35 0 60.5 26t25.5 63q0 35 -25.5 60.5t-60.5 25.5q-36 0 -62.5 -25.5t-26.5 -60.5q0 -36 26.5 -62.5t62.5 -26.5z" />
    <glyph glyph-name="ogonek" unicode="&#x2db;" horiz-adv-x="659" 
d="M383 -197q0 -44 25.5 -71t78.5 -27h21q15 2 27 -9t12 -26v-102q0 -19 -11 -32.5t-28 -18.5q-67 -19 -135 -19q-118 0 -189 53.5t-71 153.5q0 88 50 160t118 119q21 16 51 16h96q25 0 34.5 -23t-9.5 -40q-70 -63 -70 -134z" />
    <glyph glyph-name="tilde" unicode="&#x2dc;" horiz-adv-x="935" 
d="M635 1448l135 -23q23 -5 36 -23.5t9 -41.5q-19 -100 -64.5 -149.5t-123.5 -49.5q-55 0 -137.5 31t-102.5 31q-32 0 -47 -33q-4 -10 -15.5 -16.5t-23.5 -4.5l-135 25q-23 3 -36.5 23t-8.5 43q45 196 207 196q43 0 115 -29.5t104 -29.5q37 0 47 28q6 12 17.5 19t23.5 4z
" />
    <glyph glyph-name="hungarumlaut" unicode="&#x2dd;" horiz-adv-x="1206" 
d="M229 1436q10 24 32.5 38.5t49.5 14.5h240q22 0 31.5 -19t-2.5 -38l-144 -209q-28 -39 -76 -39h-192q-20 0 -30.5 16.5t-2.5 34.5zM702 1436q10 24 32.5 38.5t49.5 14.5h240q22 0 31.5 -19t-2.5 -38l-144 -209q-28 -39 -75 -39h-193q-20 0 -30.5 16.5t-2.5 34.5z" />
    <glyph glyph-name="Wgrave" unicode="&#x1e80;" horiz-adv-x="2066" 
d="M1581 1364q6 31 31 50.5t57 19.5h289q37 0 59 -30t11 -65l-373 -1261q-11 -34 -40.5 -56t-66.5 -22h-211q-37 0 -66 22.5t-38 57.5l-201 715l-201 -715q-11 -35 -40 -57.5t-66 -22.5h-211q-35 0 -64 22t-40 56l-373 1261q-11 35 10.5 65t58.5 30h289q31 0 56 -19.5
t32 -50.5l176 -743l211 747q7 29 32 47.5t56 18.5h148q31 0 55 -18.5t33 -47.5l209 -747zM983 1898q27 0 49.5 -14.5t32.5 -38.5l94 -200q8 -18 -2.5 -35t-30.5 -17h-192q-48 0 -76 39l-143 209q-12 19 -3 38t31 19h240z" />
    <glyph glyph-name="wgrave" unicode="&#x1e81;" horiz-adv-x="1667" 
d="M1251 971q7 29 32 48t56 19h244q29 0 45.5 -22.5t7.5 -48.5l-305 -906q-9 -28 -33 -44.5t-53 -16.5h-172q-29 0 -53 17.5t-33 45.5l-151 474l-152 -474q-9 -28 -33 -45.5t-53 -17.5h-172q-29 0 -53 16.5t-33 44.5l-303 906q-9 26 7 48.5t44 22.5h244q31 0 56 -19t32 -48
l123 -469l151 473q7 28 31.5 45.5t54.5 17.5h111q31 0 55 -17.5t33 -45.5l149 -473zM784 1489q27 0 49.5 -14.5t32.5 -38.5l95 -201q8 -18 -2.5 -34.5t-30.5 -16.5h-193q-48 0 -76 39l-143 209q-12 19 -2.5 38t31.5 19h239z" />
    <glyph glyph-name="Wacute" unicode="&#x1e82;" horiz-adv-x="2066" 
d="M1581 1364q6 31 31 50.5t57 19.5h289q37 0 59 -30t11 -65l-373 -1261q-11 -34 -40.5 -56t-66.5 -22h-211q-37 0 -66 22.5t-38 57.5l-201 715l-201 -715q-11 -35 -40 -57.5t-66 -22.5h-211q-35 0 -64 22t-40 56l-373 1261q-11 35 10.5 65t58.5 30h289q31 0 56 -19.5
t32 -50.5l176 -743l211 747q7 29 32 47.5t56 18.5h148q31 0 55 -18.5t33 -47.5l209 -747zM997 1845q26 53 84 53h238q22 0 32.5 -19t-1.5 -38l-146 -209q-25 -39 -74 -39h-192q-20 0 -31 17.5t-2 34.5z" />
    <glyph glyph-name="wacute" unicode="&#x1e83;" horiz-adv-x="1667" 
d="M1251 971q7 29 32 48t56 19h244q29 0 45.5 -22.5t7.5 -48.5l-305 -906q-9 -28 -33 -44.5t-53 -16.5h-172q-29 0 -53 17.5t-33 45.5l-151 474l-152 -474q-9 -28 -33 -45.5t-53 -17.5h-172q-29 0 -53 16.5t-33 44.5l-303 906q-9 26 7 48.5t44 22.5h244q31 0 56 -19t32 -48
l123 -469l151 473q7 28 31.5 45.5t54.5 17.5h111q31 0 55 -17.5t33 -45.5l149 -473zM799 1436q26 53 84 53h237q22 0 32.5 -19t-1.5 -38l-145 -209q-25 -39 -74 -39h-193q-20 0 -30.5 17t-1.5 34z" />
    <glyph glyph-name="Wdieresis" unicode="&#x1e84;" horiz-adv-x="2066" 
d="M1581 1364q6 31 31 50.5t57 19.5h289q37 0 59 -30t11 -65l-373 -1261q-11 -34 -40.5 -56t-66.5 -22h-211q-37 0 -66 22.5t-38 57.5l-201 715l-201 -715q-11 -35 -40 -57.5t-66 -22.5h-211q-35 0 -64 22t-40 56l-373 1261q-11 35 10.5 65t58.5 30h289q31 0 56 -19.5
t32 -50.5l176 -743l211 747q7 29 32 47.5t56 18.5h148q31 0 55 -18.5t33 -47.5l209 -747zM791 1915q73 0 124.5 -52t51.5 -126t-51.5 -126t-124.5 -52q-74 0 -126.5 52.5t-52.5 125.5t52.5 125.5t126.5 52.5zM1274 1915q74 0 126 -52.5t52 -125.5t-52 -125.5t-126 -52.5
t-126 52.5t-52 125.5t52 125.5t126 52.5z" />
    <glyph glyph-name="wdieresis" unicode="&#x1e85;" horiz-adv-x="1667" 
d="M1251 971q7 29 32 48t56 19h244q29 0 45.5 -22.5t7.5 -48.5l-305 -906q-9 -28 -33 -44.5t-53 -16.5h-172q-29 0 -53 17.5t-33 45.5l-151 474l-152 -474q-9 -28 -33 -45.5t-53 -17.5h-172q-29 0 -53 16.5t-33 44.5l-303 906q-9 26 7 48.5t44 22.5h244q31 0 56 -19t32 -48
l123 -469l151 473q7 28 31.5 45.5t54.5 17.5h111q31 0 55 -17.5t33 -45.5l149 -473zM592 1505q73 0 124.5 -52t51.5 -126t-51.5 -126t-124.5 -52q-74 0 -126 52.5t-52 125.5t52 125.5t126 52.5zM1075 1505q73 0 125.5 -52.5t52.5 -125.5t-52.5 -125.5t-125.5 -52.5
t-125.5 52.5t-52.5 125.5t52.5 125.5t125.5 52.5z" />
    <glyph glyph-name="Ygrave" unicode="&#x1ef2;" horiz-adv-x="1476" 
d="M1372 1434q32 0 48 -27t1 -55l-471 -811v-449q0 -38 -26 -65t-64 -27h-242q-38 0 -64 27t-26 65v449l-471 811q-15 28 1 55t48 27h304q68 0 98 -64l231 -493l232 493q30 64 98 64h303zM709 1898q27 0 49.5 -14.5t32.5 -38.5l94 -200q8 -18 -2.5 -35t-30.5 -17h-193
q-47 0 -75 39l-144 209q-12 19 -2.5 38t31.5 19h240z" />
    <glyph glyph-name="ygrave" unicode="&#x1ef3;" horiz-adv-x="1185" 
d="M764 977q9 28 33 44.5t53 16.5h246q29 0 45 -23.5t6 -51.5q-303 -757 -383 -963q-14 -36 -22.5 -56t-25.5 -57.5t-30 -60.5t-34.5 -56t-42 -53.5t-49 -44t-58 -36.5t-66.5 -22t-78 -9q-52 0 -114 10q-20 4 -32.5 19.5t-12.5 35.5v203q0 22 16 37.5t39 15.5
q124 -3 170 135q-6 16 -78.5 187t-171 403.5t-131.5 311.5q-11 27 5 51t46 24h242q29 0 52 -16.5t34 -44.5l170 -479zM563 1489q27 0 49.5 -14.5t32.5 -38.5l94 -201q8 -18 -2 -34.5t-30 -16.5h-193q-48 0 -76 39l-143 209q-12 19 -2.5 38t31.5 19h239z" />
    <glyph glyph-name="endash" unicode="&#x2013;" horiz-adv-x="1028" 
d="M113 700q0 31 21 52.5t50 21.5h658q31 0 52 -21.5t21 -52.5v-182q0 -30 -21.5 -51t-51.5 -21h-658q-29 0 -50 21.5t-21 50.5v182z" />
    <glyph glyph-name="emdash" unicode="&#x2014;" horiz-adv-x="1136" 
d="M113 700q0 31 21 52.5t50 21.5h768q29 0 50.5 -21.5t21.5 -52.5v-182q0 -29 -21.5 -50.5t-50.5 -21.5h-768q-29 0 -50 21.5t-21 50.5v182z" />
    <glyph glyph-name="quoteleft" unicode="&#x2018;" horiz-adv-x="606" 
d="M305 1382q15 25 43.5 32t54.5 -7l74 -43q25 -14 34 -41t-3 -53l-152 -332q-12 -29 -43 -38.5t-59 5.5l-115 68q-28 15 -35.5 44.5t9.5 55.5z" />
    <glyph glyph-name="quoteright" unicode="&#x2019;" horiz-adv-x="606" 
d="M250 1368q14 30 44 40t58 -7l117 -68q27 -15 34.5 -44.5t-9.5 -55.5l-191 -307q-17 -26 -45 -33t-53 8l-76 41q-25 15 -33.5 41.5t2.5 52.5z" />
    <glyph glyph-name="quotesinglbase" unicode="&#x201a;" horiz-adv-x="544" 
d="M188 236q13 29 44 38t59 -6l117 -67q27 -15 34 -45t-10 -58l-190 -307q-15 -24 -45 -31t-54 7l-75 43q-24 13 -33 40.5t2 53.5z" />
    <glyph glyph-name="quotedblleft" unicode="&#x201c;" horiz-adv-x="1087" 
d="M786 1382q15 25 44 32t55 -7l73 -43q25 -14 34 -41t-3 -53l-151 -332q-12 -29 -43.5 -38.5t-59.5 5.5l-114 68q-28 15 -36 44.5t9 55.5zM137 973q-28 15 -35.5 44.5t9.5 55.5l192 309q15 25 43.5 32t54.5 -7l74 -43q25 -14 34 -41t-3 -53l-152 -332q-12 -29 -43 -38.5
t-59 5.5z" />
    <glyph glyph-name="quotedblright" unicode="&#x201d;" horiz-adv-x="1089" 
d="M131 942q-25 15 -33.5 41.5t2.5 52.5l152 332q14 30 44 40t58 -7l117 -68q27 -15 34.5 -44.5t-9.5 -55.5l-191 -307q-15 -26 -44 -33t-54 8zM735 1368q14 30 44.5 40t58.5 -7l116 -68q27 -15 34.5 -44.5t-9.5 -55.5l-191 -307q-17 -26 -45 -33t-53 8l-76 41
q-24 15 -32.5 41.5t2.5 52.5z" />
    <glyph glyph-name="quotedblbase" unicode="&#x201e;" horiz-adv-x="1028" 
d="M68 -190q-24 13 -33 40.5t2 53.5l151 332q13 29 44 38t59 -6l117 -67q27 -15 34 -45t-10 -58l-190 -307q-15 -24 -45 -31t-54 7zM672 236q13 29 43.5 38t58.5 -6l117 -67q27 -15 34 -45t-10 -58l-190 -307q-15 -24 -44 -31t-54 7l-76 43q-24 13 -33 40.5t2 53.5z" />
    <glyph glyph-name="dagger" unicode="&#x2020;" horiz-adv-x="1069" 
d="M885 1178q31 0 52 -20.5t21 -51.5v-182q0 -31 -21 -52.5t-52 -21.5h-164v-776q0 -31 -21.5 -52.5t-52.5 -21.5h-223q-31 0 -52.5 21.5t-21.5 52.5v776h-164q-31 0 -52 21.5t-21 52.5v182q0 31 21 51.5t52 20.5h164v182q0 31 21.5 52.5t52.5 21.5h223q31 0 52.5 -21.5
t21.5 -52.5v-182h164z" />
    <glyph glyph-name="daggerdbl" unicode="&#x2021;" horiz-adv-x="1071" 
d="M958 924q0 -31 -21 -52.5t-50 -21.5h-166v-266h166q29 0 50 -21.5t21 -52.5v-182q0 -29 -21 -50.5t-50 -21.5h-166v-182q0 -31 -21.5 -52.5t-52.5 -21.5h-223q-29 0 -50.5 21.5t-21.5 52.5v182h-166q-30 0 -51.5 21t-21.5 51v182q0 31 21 52.5t52 21.5h166v266h-166
q-31 0 -52 21.5t-21 52.5v182q0 31 21 51.5t52 20.5h166v182q0 31 21.5 52.5t50.5 21.5h223q31 0 52.5 -21.5t21.5 -52.5v-182h166q29 0 50 -21t21 -51v-182z" />
    <glyph glyph-name="bullet" unicode="&#x2022;" horiz-adv-x="772" 
d="M385 940q123 0 209 -86t86 -209q0 -122 -86 -207.5t-209 -85.5q-121 0 -207 86t-86 207q0 123 85.5 209t207.5 86z" />
    <glyph glyph-name="ellipsis" unicode="&#x2026;" horiz-adv-x="1634" 
d="M272 375q83 0 142 -59t59 -142t-59 -142t-142 -59q-84 0 -142 58.5t-58 142.5t58 142.5t142 58.5zM817 375q83 0 142 -59t59 -142t-59 -142t-142 -59q-84 0 -142.5 58.5t-58.5 142.5t58.5 142.5t142.5 58.5zM1362 375q83 0 142 -59t59 -142t-59 -142t-142 -59
q-84 0 -142.5 58.5t-58.5 142.5t58.5 142.5t142.5 58.5z" />
    <glyph glyph-name="perthousand" unicode="&#x2030;" horiz-adv-x="2650" 
d="M1249 1401q20 33 60 33h94q21 0 31.5 -19.5t-0.5 -38.5l-889 -1343q-20 -33 -60 -33h-94q-22 0 -32.5 19t1.5 38zM809 1081q0 -152 -108.5 -260t-260.5 -108t-260 108t-108 260t108 260.5t260 108.5t260.5 -108.5t108.5 -260.5zM328 1081q0 -46 32.5 -79t79.5 -33
q46 0 79.5 33t33.5 79t-33.5 79.5t-79.5 33.5q-47 0 -79.5 -33.5t-32.5 -79.5zM1354 721q152 0 260 -108.5t108 -260.5t-108 -260t-260 -108t-260.5 108t-108.5 260t108.5 260.5t260.5 108.5zM1354 240q47 0 79.5 33t32.5 79q0 47 -32.5 80t-79.5 33q-46 0 -79.5 -33
t-33.5 -80q0 -46 33.5 -79t79.5 -33zM2210 721q152 0 260 -108.5t108 -260.5t-108 -260t-260 -108t-260.5 108t-108.5 260t108.5 260.5t260.5 108.5zM2210 240q47 0 79.5 33t32.5 79q0 47 -32.5 80t-79.5 33q-46 0 -79.5 -33t-33.5 -80q0 -46 33.5 -79t79.5 -33z" />
    <glyph glyph-name="guilsinglleft" unicode="&#x2039;" horiz-adv-x="765" 
d="M592 895q32 0 48 -29t-3 -57l-201 -295l201 -295q19 -28 3 -57t-48 -29h-213q-49 0 -76 41l-197 289q-15 23 -15 51t15 51l197 289q30 41 76 41h213z" />
    <glyph glyph-name="guilsinglright" unicode="&#x203a;" horiz-adv-x="768" 
d="M174 895h213q46 0 76 -41l196 -289q15 -23 15 -51t-15 -51l-196 -289q-27 -41 -76 -41h-213q-34 0 -49 29t4 57l201 295l-201 295q-19 28 -4 57t49 29z" />
    <glyph glyph-name="fraction" unicode="&#x2044;" horiz-adv-x="1062" 
d="M639 1554q10 35 39 55.5t65 20.5h175q28 0 44 -21.5t7 -47.5l-545 -1682q-11 -34 -39 -55t-63 -21h-175q-28 0 -44 22t-9 50z" />
    <glyph glyph-name="Euro" unicode="&#x20ac;" horiz-adv-x="1542" 
d="M918 385q118 0 204 70q41 37 88 8l234 -154q29 -20 32.5 -53.5t-20.5 -58.5q-100 -106 -238 -164t-300 -58q-267 0 -460.5 150.5t-254.5 396.5h-135q-15 0 -26 10.5t-11 24.5v74q0 15 11 26t26 11h112v49v49h-112q-15 0 -26 11t-11 26v74q0 15 11 24.5t26 9.5h135
q61 246 254.5 397.5t460.5 151.5q162 0 300 -58.5t238 -164.5q24 -25 20.5 -58.5t-32.5 -52.5l-234 -155q-50 -27 -88 8q-86 70 -204 70q-87 0 -154.5 -36.5t-108.5 -101.5h273q15 0 26 -9.5t11 -24.5v-74q0 -15 -11 -26t-26 -11h-322q-2 -16 -2 -49t2 -49h322q15 0 26 -11
t11 -26v-74q0 -14 -11 -24.5t-26 -10.5h-273q41 -65 108.5 -101t154.5 -36z" />
    <glyph glyph-name="ruble" unicode="&#x20bd;" horiz-adv-x="1458" 
d="M819 408h-164v-93h314q15 0 26 -10.5t11 -25.5v-72q0 -15 -11 -26t-26 -11h-314v-78q0 -38 -27 -65t-65 -27h-239q-38 0 -65.5 27t-27.5 65v78h-122q-15 0 -26 11t-11 26v72q0 15 11 25.5t26 10.5h122v93h-67q-38 0 -65 26.5t-27 63.5v168q0 37 27 63.5t65 26.5h67v587
q0 37 27.5 64t65.5 27h495q289 0 438.5 -142.5t149.5 -388.5q0 -250 -154 -372.5t-434 -122.5zM655 1049v-293h164q76 0 118 39t42 108q0 65 -41.5 105.5t-118.5 40.5h-164z" />
    <glyph glyph-name="bitcoin" unicode="&#x20bf;" horiz-adv-x="1337" 
d="M1288 426q0 -338 -366 -408v-208q0 -14 -11 -24.5t-24 -10.5h-92q-15 0 -26 10.5t-11 24.5v190h-47h-117v-190q0 -14 -11 -24.5t-26 -10.5h-92q-13 0 -24 10.5t-11 24.5v190h-227q-37 0 -63.5 27t-26.5 65v1251q0 37 26.5 64t63.5 27h227v190q0 15 10.5 25t24.5 10h92
q15 0 26 -10t11 -25v-190h61q72 0 103 -2v192q0 15 11 25t26 10h92q14 0 24.5 -10t10.5 -25v-217q159 -35 235 -123.5t76 -234.5q0 -201 -168 -291v-8q223 -93 223 -324zM805 993q0 63 -44.5 95t-121.5 32h-102v-254h102q79 0 122.5 33.5t43.5 93.5zM692 332q78 0 122 33.5
t44 95.5q0 129 -166 129h-155v-258h155z" />
    <glyph glyph-name="afii61352" unicode="&#x2116;" horiz-adv-x="2320" 
d="M1894 743q-146 0 -250 103.5t-104 251.5q0 146 104 250t250 104t250.5 -104t104.5 -250q0 -147 -104 -251t-251 -104zM1894 1196q-41 0 -69.5 -29t-28.5 -69q0 -42 28.5 -71.5t69.5 -29.5t70 30t29 71q0 40 -29 69t-70 29zM1636 319q-29 0 -50 21.5t-21 50.5v166
q0 29 21 50.5t50 21.5h516q31 0 52.5 -21.5t21.5 -50.5v-166q0 -29 -21.5 -50.5t-52.5 -21.5h-516zM981 1343q0 37 27 64t65 27h240q37 0 63.5 -27t26.5 -64v-1251q0 -38 -26.5 -65t-63.5 -27h-228q-64 0 -92 51l-456 713v-672q0 -38 -27 -65t-64 -27h-241q-38 0 -65 27
t-27 65v1251q0 37 27 64t65 27h227q60 0 92 -52l457 -712v673z" />
    <glyph glyph-name="minus" unicode="&#x2212;" horiz-adv-x="917" 
d="M113 700q0 31 21 52.5t52 21.5h547q29 0 50.5 -21.5t21.5 -52.5v-182q0 -29 -21.5 -50.5t-50.5 -21.5h-547q-30 0 -51.5 21t-21.5 51v182z" />
    <glyph glyph-name="approxequal" unicode="&#x2248;" horiz-adv-x="1189" 
d="M424 739q-66 0 -96 -49q-20 -34 -60 -24l-125 30q-23 6 -34.5 25t-6.5 43q63 252 273 252q64 0 133 -22.5t127 -45t96 -22.5q54 0 78 43q19 36 59 30l179 -36q23 -4 35.5 -23.5t7.5 -42.5q-24 -121 -87.5 -186.5t-164.5 -65.5q-68 0 -149.5 23.5t-152 47t-112.5 23.5z
M784 485q54 0 78 43q9 17 25.5 24.5t34.5 2.5l129 -31q22 -6 33 -24.5t6 -40.5q-24 -121 -87.5 -187.5t-164.5 -66.5q-68 0 -140.5 23.5t-134 47t-104.5 23.5q-54 0 -78 -47q-8 -17 -24 -25t-35 -4l-177 35q-23 4 -35 24.5t-6 43.5q26 111 92 179t179 68q82 0 225.5 -44
t183.5 -44z" />
    <glyph glyph-name="notequal" unicode="&#x2260;" horiz-adv-x="1028" 
d="M915 756q0 -30 -21.5 -51t-51.5 -21h-207l-64 -147h271q30 0 51.5 -21.5t21.5 -50.5v-146q0 -31 -21 -52t-52 -21h-396l-57 -133q-11 -21 -33 -21h-102q-19 0 -29.5 16t-3.5 35l45 103h-82q-29 0 -50 21t-21 52v146q0 29 21 50.5t50 21.5h207l64 147h-271q-29 0 -50 21.5
t-21 50.5v145q0 31 21 52.5t50 21.5h396l57 133q10 20 35 20h100q20 0 30.5 -16t2.5 -35l-43 -102h80q31 0 52 -21.5t21 -52.5v-145z" />
    <glyph glyph-name="lessequal" unicode="&#x2264;" horiz-adv-x="1028" 
d="M186 0q-31 0 -52 21.5t-21 52.5v164q0 29 21 50t52 21h658q29 0 50 -21t21 -50v-164q0 -31 -21 -52.5t-50 -21.5h-658zM844 1253q26 9 48.5 -7t22.5 -44v-160q0 -25 -14.5 -44t-38.5 -25l-456 -125l456 -123q24 -6 38.5 -26.5t14.5 -45.5v-157q0 -29 -22.5 -45t-48.5 -7
l-682 242q-22 7 -35.5 27t-13.5 43v186q0 23 13.5 41.5t35.5 26.5z" />
    <glyph glyph-name="greaterequal" unicode="&#x2265;" horiz-adv-x="1028" 
d="M842 0h-656q-31 0 -52 21.5t-21 52.5v164q0 29 21 50t52 21h656q31 0 52 -21t21 -50v-164q0 -31 -21 -52.5t-52 -21.5zM186 1253l680 -243q49 -16 49 -68v-186q0 -24 -13 -43.5t-36 -26.5l-680 -242q-28 -9 -50.5 7t-22.5 45v157q0 25 15 45.5t38 26.5l459 123l-459 125
q-23 6 -38 25t-15 44v160q0 28 22.5 44t50.5 7z" />
    <glyph glyph-name="commaaccent" unicode="&#xf6c3;" horiz-adv-x="649" 
d="M475 -147q20 0 30.5 -18.5t0.5 -35.5l-115 -215q-23 -37 -65 -37h-162q-19 0 -29.5 15.5t-3.5 34.5l78 208q17 48 67 48h199z" />
    </font>
</defs>
</svg>
