<?xml version="1.0" encoding="utf-8"?>
<!-- Generator: Adobe Illustrator 24.1.1, SVG Export Plug-In . SVG Version: 6.00 Build 0)  -->
<svg version="1.1" id="Calque_1" xmlns="http://www.w3.org/2000/svg" xmlns:xlink="http://www.w3.org/1999/xlink" x="0px" y="0px"
	 viewBox="0 0 11.7 13.7" style="enable-background:new 0 0 11.7 13.7;" xml:space="preserve">
<style type="text/css">
	.st0{fill:#FFFFFF;filter:url(#Adobe_OpacityMaskFilter);}
	.st1{mask:url(#mask0_127_3_1_);}
	.st2{fill:#FFFFFF;filter:url(#Adobe_OpacityMaskFilter_1_);}
	.st3{mask:url(#mask1_127_3_1_);}
	.st4{fill:#FFFFFF;filter:url(#Adobe_OpacityMaskFilter_2_);}
	.st5{mask:url(#mask2_127_3_1_);}
	.st6{fill-rule:evenodd;clip-rule:evenodd;fill:#FFFFFF;}
	.st7{fill:#FFFFFF;filter:url(#Adobe_OpacityMaskFilter_3_);}
	.st8{mask:url(#mask3_127_3_1_);}
	.st9{fill:#FFFFFF;filter:url(#Adobe_OpacityMaskFilter_4_);}
	.st10{mask:url(#mask4_127_3_1_);}
	.st11{fill:#FFFFFF;filter:url(#Adobe_OpacityMaskFilter_5_);}
	.st12{mask:url(#mask5_127_3_1_);}
</style>
<defs>
	<filter id="Adobe_OpacityMaskFilter" filterUnits="userSpaceOnUse" x="0" y="0" width="10.9" height="13.6">
		<feColorMatrix  type="matrix" values="1 0 0 0 0  0 1 0 0 0  0 0 1 0 0  0 0 0 1 0"/>
	</filter>
</defs>
<mask maskUnits="userSpaceOnUse" x="0" y="0" width="10.9" height="13.6" id="mask0_127_3_1_">
	<path class="st0" d="M0.4-1.5l-2.1,1.6L9.5,14.7l2.1-1.6L0.4-1.5z"/>
</mask>
<g class="st1">
	<defs>
		<filter id="Adobe_OpacityMaskFilter_1_" filterUnits="userSpaceOnUse" x="0" y="0" width="10.9" height="13.6">
			<feColorMatrix  type="matrix" values="1 0 0 0 0  0 1 0 0 0  0 0 1 0 0  0 0 0 1 0"/>
		</filter>
	</defs>
	<mask maskUnits="userSpaceOnUse" x="0" y="0" width="10.9" height="13.6" id="mask1_127_3_1_">
		<path class="st2" d="M-61,72.4l-87.8-310.9l218.5,45.3l87.8,310.9L-61,72.4z"/>
	</mask>
	<g class="st3">
		<defs>
			<filter id="Adobe_OpacityMaskFilter_2_" filterUnits="userSpaceOnUse" x="0" y="0" width="10.9" height="13.6">
				<feColorMatrix  type="matrix" values="1 0 0 0 0  0 1 0 0 0  0 0 1 0 0  0 0 0 1 0"/>
			</filter>
		</defs>
		<mask maskUnits="userSpaceOnUse" x="0" y="0" width="10.9" height="13.6" id="mask2_127_3_1_">
			<path class="st4" d="M-61,72.4l-87.8-310.9l218.5,45.3l87.8,310.9L-61,72.4z"/>
		</mask>
		<g class="st5">
			<path class="st6" d="M10.9,13.2c-0.3,0.1-0.6,0.4-1.1,0.4c-0.3,0-0.8-0.3-1.1-0.6C5.7,9.4,2.5,5.7,0.2,1.5
				C-0.1,1.1,0,0.3,0.2,0.1c0.2-0.2,1.1,0.1,1.4,0.5c3,3.8,6,7.5,9,11.3C10.8,12.1,10.8,12.6,10.9,13.2z"/>
		</g>
	</g>
</g>
<defs>
	<filter id="Adobe_OpacityMaskFilter_3_" filterUnits="userSpaceOnUse" x="0.2" y="0.6" width="11.5" height="13.1">
		<feColorMatrix  type="matrix" values="1 0 0 0 0  0 1 0 0 0  0 0 1 0 0  0 0 0 1 0"/>
	</filter>
</defs>
<mask maskUnits="userSpaceOnUse" x="0.2" y="0.6" width="11.5" height="13.1" id="mask3_127_3_1_">
	<path class="st7" d="M10.3-0.5L-1.6,13.5l2.1,1.7L12.4,1.2L10.3-0.5z"/>
</mask>
<g class="st8">
	<defs>
		<filter id="Adobe_OpacityMaskFilter_4_" filterUnits="userSpaceOnUse" x="0.2" y="0.6" width="11.5" height="13.1">
			<feColorMatrix  type="matrix" values="1 0 0 0 0  0 1 0 0 0  0 0 1 0 0  0 0 0 1 0"/>
		</filter>
	</defs>
	<mask maskUnits="userSpaceOnUse" x="0.2" y="0.6" width="11.5" height="13.1" id="mask4_127_3_1_">
		<path class="st9" d="M-57.5-61.4l-101.9,306.6L61,209.9L162.8-96.7L-57.5-61.4z"/>
	</mask>
	<g class="st10">
		<defs>
			<filter id="Adobe_OpacityMaskFilter_5_" filterUnits="userSpaceOnUse" x="0.2" y="0.6" width="11.5" height="13.1">
				<feColorMatrix  type="matrix" values="1 0 0 0 0  0 1 0 0 0  0 0 1 0 0  0 0 0 1 0"/>
			</filter>
		</defs>
		<mask maskUnits="userSpaceOnUse" x="0.2" y="0.6" width="11.5" height="13.1" id="mask5_127_3_1_">
			<path class="st11" d="M-57.5-61.4l-101.9,306.6L61,209.9L162.8-96.7L-57.5-61.4z"/>
		</mask>
		<g class="st12">
			<path class="st6" d="M11.7,1c-0.3-0.1-0.6-0.4-1.1-0.4c-0.3,0-0.8,0.3-1.1,0.5c-3.3,3.5-6.6,7-9.1,11.1c-0.3,0.4-0.3,1.3,0,1.5
				c0.2,0.2,1.1-0.1,1.4-0.4C5,9.6,8.1,6,11.3,2.4C11.5,2.1,11.5,1.6,11.7,1z"/>
		</g>
	</g>
</g>
</svg>
