<?xml version="1.0" encoding="utf-8"?>
<!-- Generator: Adobe Illustrator 24.1.1, SVG Export Plug-In . SVG Version: 6.00 Build 0)  -->
<svg version="1.1" id="Calque_1" xmlns="http://www.w3.org/2000/svg" xmlns:xlink="http://www.w3.org/1999/xlink" x="0px" y="0px"
	 viewBox="0 0 46.5 38.8" style="enable-background:new 0 0 46.5 38.8;" xml:space="preserve">
<style type="text/css">
	.st0{fill-rule:evenodd;clip-rule:evenodd;fill:#2A2F36;}
</style>
<g>
	<g>
		<g>
			<g>
				<g>
					<path class="st0" d="M3.8,25.3c1,0.7,2.5,1.3,3.5,1.3c0.2-0.8,0.2-1.5-0.1-2.2C5.5,24.5,4.6,24.8,3.8,25.3z M7.7,13
						c0.3,0.2,0.4,0.3,0.7,0.4c1.6,0.7,3.2,1.3,4.9,2c2.4,0.9,4.9,1.9,7.3,2.8c0.8,0.3,1.6,0.7,2.4,1c4,1.3,7.8,2.7,11.7,4.4
						c1.8,0.8,3.6,1.6,5.5,2.3c-0.4-0.4-0.8-0.7-1.2-1c-1.8-0.9-3.5-1.9-5-3.3c-1.5-1.4-3.2-2.4-4.9-3.6c-2.1-1.6-4.2-3-6.3-4.5
						c-1.2-0.9-2.4-1.7-3.7-2.5c-1.9-1.1-3.7-2.4-5.6-3.6C12.2,6.6,11,5.7,9.7,4.9C8.6,4.2,7.4,3.6,6.4,2.7C6.2,2.5,6,2.4,5.8,2.6
						c0,0.1-0.1,0.2-0.1,0.3C6.3,6.3,7,9.7,7.7,13z M1.5,24.1c1.7,0.1,4.3-0.2,5.4-0.8C7.5,23,8,23,8.6,23.2
						c0.2,0.1,0.3,0.1,0.5,0.1c2.8,0.3,5.5,0.7,8.3,1c2.1,0.2,4.3,0.4,6.4,0.8c0.4,0.1,0.8,0.1,1.2,0.1c3.9,0.5,7.9,0.9,11.8,1.4
						c0.7,0.1,1.3,0.2,2,0.3c0.2,0,0.4-0.1,0.8-0.2c-1.4-0.7-2.5-1.3-3.7-1.8c-1.4-0.6-2.9-1.3-4.3-1.9c-1.6-0.6-3.3-1.2-4.9-1.8
						c-1.5-0.5-3-1-4.5-1.6c-2.2-0.8-4.5-1.7-6.7-2.6c-2.4-0.9-4.7-1.9-7.1-2.8C8.1,14.1,7.8,14,7.5,14c-0.3,0.4-0.6,0.8-0.9,1.2
						C5,18.2,3.3,21.1,1.5,24.1z M8.9,37.4c0.7-0.1,1.2-0.3,1.7-0.3c1.8,0,3.5-0.6,5.3-1.2c1.1-0.4,2.3-0.7,3.4-1
						c1.8-0.5,3.6-1,5.4-1.6c2.6-0.8,5.1-1.6,7.7-2.4c0.8-0.2,1.6-0.4,2.4-0.6c1.7-0.4,3.4-0.8,5-1.2c0.2-0.1,0.4-0.1,0.6-0.2
						c0.2-0.1,0.5,0,0.7-0.5c-0.9-0.1-1.8-0.2-2.7-0.3c-2.9-0.4-5.9-1-8.8-1.2c-3.2-0.3-6.3-0.7-9.5-1.1c-3.5-0.5-7-0.9-10.5-1.3
						c-0.4-0.1-0.8,0-1.2-0.1c-0.3,1.2-0.2,2.4-0.1,3.6c0.1,2.5,0.3,5.1,0.5,7.6C8.7,36.1,8.8,36.6,8.9,37.4z M46.5,28.6
						c-2.2,0.5-4.4,1-6.5,1.5c-1.8,0.4-3.6,0.7-5.4,1.2c-3.4,0.9-6.8,1.6-10,3.2c-0.7,0.3-1.5,0.5-2.2,0.7c-1.1,0.3-2.2,0.7-3.3,1
						c-2.7,0.8-5.3,1.5-8,2.2c-0.9,0.2-1.8,0.3-2.7,0.4c-0.3,0-0.4-0.2-0.4-0.5c-0.1-2.4-0.2-4.8-0.3-7.3c0-0.9-0.1-1.9-0.2-2.9
						C6.6,27.7,5.8,27.3,5,27c-0.9-0.3-1.7-0.6-2.6-1c-0.8-0.4-1.7-0.2-2.4-1.1c0.1-0.3,0.2-0.7,0.4-1c0.8-1.3,1.7-2.6,2.5-4
						c1.2-1.9,2.4-3.8,3.5-5.8c0.2-0.3,0.3-0.7,0.3-1.1c0-0.6-0.1-1.1-0.2-1.7C6,8.8,5.5,6.3,5,3.8C4.9,3.3,4.7,2.7,4.6,2.2
						c-0.1-0.6-0.3-1.3-0.3-2c0.4-0.4,0.7-0.2,1,0c3.2,2.6,6.5,4.7,9.9,6.9c0.5,0.3,0.9,0.7,1.4,1c1.1,0.7,2.3,1.3,3.4,2.1
						c2.1,1.4,4.1,2.9,6.1,4.3c1.6,1.2,3.3,2.3,4.9,3.5s3.2,2.4,4.9,3.5c1.8,1.2,3.5,2.2,5.3,3.3c1.7,1,3.3,1.9,5,2.9
						C46.3,27.9,46.6,28.1,46.5,28.6z"/>
				</g>
			</g>
		</g>
	</g>
</g>
</svg>
