<svg width="29" height="30" viewBox="0 0 29 30" fill="none" xmlns="http://www.w3.org/2000/svg">
<path fill-rule="evenodd" clip-rule="evenodd" d="M28.0779 5.29671C26.672 7.85081 25.4892 10.3907 23.9827 12.772C20.8252 18.0814 17.5813 23.4411 14.4237 28.7506C14.3012 28.9376 14.0923 29.175 13.7969 29.4626C13.5814 28.8938 13.2796 28.3753 13.1144 27.8928C11.0323 21.9309 8.60441 16.1702 5.52128 10.6753C4.09839 8.03231 2.53877 5.35321 1.11588 2.71022C0.814019 2.19168 0.238691 1.60092 0.67852 0.766324C0.988098 0.701816 1.47052 0.536688 1.88072 0.645024C4.00394 0.913241 6.16327 1.04473 8.20007 1.36326C12.8206 2.14476 17.4914 3.01269 22.1623 3.88061C23.7527 4.22754 25.3432 4.57447 26.9337 4.92139C27.4303 4.97942 27.6677 5.18838 28.0779 5.29671Z" fill="#F7F5F5" fill-opacity="0.6"/>
</svg>
