<?xml version="1.0" encoding="utf-8"?>
<!-- Generator: Adobe Illustrator 24.1.1, SVG Export Plug-In . SVG Version: 6.00 Build 0)  -->
<svg version="1.1" id="Calque_1" xmlns="http://www.w3.org/2000/svg" xmlns:xlink="http://www.w3.org/1999/xlink" x="0px" y="0px"
	 viewBox="0 0 1920 177" style="enable-background:new 0 0 1920 177;" xml:space="preserve">
<style type="text/css">
	.st0{fill:url(#SVGID_1_);}
	.st1{fill:url(#SVGID_2_);}
	.st2{fill:url(#SVGID_3_);}
	.st3{fill:url(#SVGID_4_);}
	.st4{fill:#BD1622;}
	.st5{fill:url(#SVGID_5_);}
	.st6{fill-rule:evenodd;clip-rule:evenodd;fill:#4F4F4F;}
</style>
<linearGradient id="SVGID_1_" gradientUnits="userSpaceOnUse" x1="173.174" y1="1064.1331" x2="173.174" y2="924.0107" gradientTransform="matrix(1 0 0 -1 0 1082)">
	<stop  offset="0" style="stop-color:#931416"/>
	<stop  offset="2.360000e-02" style="stop-color:#951417"/>
	<stop  offset="0.3707" style="stop-color:#AB151D"/>
	<stop  offset="0.7025" style="stop-color:#B81621"/>
	<stop  offset="1" style="stop-color:#BD1622"/>
</linearGradient>
<path class="st0" d="M207.3,17.9V45h-42.6v29.4h32.6v27.1h-32.6v29.4h42.6V158h-68.2V17.9H207.3z"/>
<linearGradient id="SVGID_2_" gradientUnits="userSpaceOnUse" x1="267.8183" y1="1064.1331" x2="267.8183" y2="924.0632" gradientTransform="matrix(1 0 0 -1 0 1082)">
	<stop  offset="0" style="stop-color:#931416"/>
	<stop  offset="2.360000e-02" style="stop-color:#951417"/>
	<stop  offset="0.3707" style="stop-color:#AB151D"/>
	<stop  offset="0.7025" style="stop-color:#B81621"/>
	<stop  offset="1" style="stop-color:#BD1622"/>
</linearGradient>
<path class="st1" d="M317.4,17.9l-34.3,140.1h-30.5L218.2,17.9h26.4l23.2,94.1L291,17.9H317.4z"/>
<linearGradient id="SVGID_3_" gradientUnits="userSpaceOnUse" x1="344.3632" y1="1064.1331" x2="344.3632" y2="924.0632" gradientTransform="matrix(1 0 0 -1 0 1082)">
	<stop  offset="0" style="stop-color:#931416"/>
	<stop  offset="2.360000e-02" style="stop-color:#951417"/>
	<stop  offset="0.3707" style="stop-color:#AB151D"/>
	<stop  offset="0.7025" style="stop-color:#B81621"/>
	<stop  offset="1" style="stop-color:#BD1622"/>
</linearGradient>
<path class="st2" d="M331.5,17.9h25.8v140.1h-25.8V17.9z"/>
<linearGradient id="SVGID_4_" gradientUnits="userSpaceOnUse" x1="416.5375" y1="1064.1331" x2="416.5375" y2="924.0369" gradientTransform="matrix(1 0 0 -1 0 1082)">
	<stop  offset="0" style="stop-color:#931416"/>
	<stop  offset="2.360000e-02" style="stop-color:#951417"/>
	<stop  offset="0.3707" style="stop-color:#AB151D"/>
	<stop  offset="0.7025" style="stop-color:#B81621"/>
	<stop  offset="1" style="stop-color:#BD1622"/>
</linearGradient>
<path class="st3" d="M408.1,17.9v113h42.6V158h-68.2V17.9H408.1z"/>
<path class="st4" d="M115.6,118.4l-27,6c0,0,8.8,11.7,16.3,21.6c6.7-7,10.8-16.7,10.8-27.4V118.4z"/>
<path class="st4" d="M67.5,157.3l11.9,0c6,0,11.6-1.6,16.6-4.3c-7.2-10.1-15.5-21.8-15.5-21.8L67.5,157.3z"/>
<linearGradient id="SVGID_5_" gradientUnits="userSpaceOnUse" x1="67.2422" y1="1064.1594" x2="67.2422" y2="924.5882" gradientTransform="matrix(1 0 0 -1 0 1082)">
	<stop  offset="0" style="stop-color:#931416"/>
	<stop  offset="2.360000e-02" style="stop-color:#951417"/>
	<stop  offset="0.3707" style="stop-color:#AB151D"/>
	<stop  offset="0.7025" style="stop-color:#B81621"/>
	<stop  offset="1" style="stop-color:#BD1622"/>
</linearGradient>
<path class="st5" d="M39.5,64.7l76.2,52.1l-0.1-60.5C115.4,35.1,99,17.8,79,17.8l-17.3,0.1L18.9,18v139.4l36-0.1l11.4,0L39.6,64.9
	L39.5,64.7z"/>
<path class="st6" d="M1250.7,160.7c-33.1,0-49.4-18.6-49.4-56.1V72.4c0-37.3,16.5-56.1,49.8-56.1c14.8,0,26.6,4.1,35.5,12.2
	c8.7,8.2,13.2,19.8,13.2,34.5v1.4h-25.8v-1.2c0-7.1-2.2-12.8-6.1-17.1c-3.9-4.1-9.6-6.3-16.9-6.3c-8.3,0-14.4,2.7-18.1,8
	c-3.7,5.3-5.5,14.1-5.5,26.1v30.4c0,11.4,1.8,19.8,5.7,24.9c3.9,5.3,10,7.7,18.3,7.7c7.3,0,12.8-2,16.7-6.1
	c3.9-4.1,5.9-9.6,5.9-16.7v-1.6h25.4v1.4c0,15.1-4.3,26.7-13,34.9C1277.7,156.8,1265.7,160.7,1250.7,160.7z M520.3,159.1V18.4h25.8
	v140.7H520.3z M655.3,18.4v23.2h-34.7v117.5h-26V41.6H560V18.4H655.3z M814.1,159.1h-26.2l-18-55L755,55.5l-16.3,54h13.4l7.3,22.2
	h-27.6l-8.3,27.3h-27.2l48.3-140.7h21.1L814.1,159.1z M877.4,18.4c13.8,0,24.6,4.1,32.5,11.8c7.9,8,12,18.8,12,32.4
	c0,13.1-4.1,23.7-12,31.4c-7.9,7.7-18.7,11.6-32.5,11.6h-6.7l0-23.5h5.6c6.1,0,11-1.6,14.6-5.1c3.5-3.3,5.3-8.2,5.3-14.5
	c0-6.7-1.8-11.8-5.3-15.5c-3.5-3.7-8.3-5.5-14.6-5.5h-23.8l-0.1,0v66.6h0.1v50.9h-25.8V18.4H877.4z M1021.7,30.2
	c-7.9-7.7-18.7-11.8-32.5-11.8h-50.8v140.7h25.5V41.7h0.3v-0.1H988c6.3,0,11,1.8,14.6,5.5c3.5,3.7,5.3,8.8,5.3,15.5
	c0,6.3-1.8,11.2-5.3,14.5c-3.5,3.5-8.5,5.1-14.6,5.1h-5.7v23.5h6.9c13.8,0,24.6-3.9,32.5-11.6c7.9-7.7,12-18.4,12-31.4
	C1033.7,48.9,1029.6,38.1,1021.7,30.2z M1050.1,159.1V18.4h25.8v117.5h59.5v23.2H1050.1z M1152.9,18.4v140.7h25.8V18.4H1152.9z
	 M1367.7,131.7h-27.9l-8.3,27.3h-27.2l48.3-140.7h21.1l48.4,140.7h-25.9l-20.9-64l-0.2,0.1L1363,55.5l-16.3,54h13.8L1367.7,131.7z
	 M1507.4,18.4v23.2h-34.7v117.5h-26V41.6H1412V18.4H1507.4z M1521.4,18.4v140.7h25.8V18.4H1521.4z M1609.6,160.2
	c-26.6-3.2-39.9-21.6-39.9-55.6V72.4c0-37.3,16.3-56.1,49.4-56.1c15,0,27,4.5,35.8,13.3c8.7,8.8,13.2,23,13.2,42.8v32.2
	c0,20-4.5,34.3-13.6,43c-7.1,6.8-15.9,10.9-26.7,12.4v-24.6c3.6-1.2,6.4-3.3,8.7-6.4c3.7-5.3,5.7-13.5,5.7-24.9V73.8
	c0-11.8-2-20.6-5.7-25.9c-3.9-5.3-9.6-8.2-17.5-8.2c-8.3,0-14.4,2.7-17.9,8c-3.7,5.3-5.5,13.9-5.5,26.1v30.4c0,11.6,1.8,20,5.5,25.1
	c2,2.9,4.8,4.9,8.3,6.1V160.2z M1789.3,18.4h-25.8v88.1l-50-88.1h-25.8v140.7h25.8V71.2l50,87.9h25.8V18.4z M1852.6,160.3
	c-14.6,0-26-3.7-34.1-11.2c-8.3-7.5-12.8-18.6-13.6-32.8h24.4c0.8,7.7,3.1,13.3,7.1,16.5c3.9,3.3,9.7,4.7,17.3,4.7
	c14.6,0,21.9-6.1,21.9-18.6c0-5.5-1.6-9.8-4.3-12.6c-3-2.9-7.5-4.9-13.8-6.1l-12.8-2.2c-24.6-4.1-36.8-17.1-36.8-39.2
	c0-13.1,4.1-23.2,12.4-31c8.3-7.5,19.5-11.4,33.3-11.4c13.4,0,23.8,3.7,31.7,11c7.9,7.3,12.2,17.7,13.4,31h-24.8
	c-0.4-6.7-2.4-11.6-5.7-14.9c-3.5-3.1-8.5-4.7-15-4.7c-6.7,0-11.8,1.6-15.2,4.9c-3.5,3.3-5.1,7.5-5.1,13.1c0,4.9,1.4,8.8,4.5,11.6
	c3,2.9,7.7,4.9,14.2,6.1l14.4,2.7c23.2,4.5,35.1,17.5,35.1,39.6c0,14.3-4.5,25.1-13.2,32.4C1879.1,156.6,1867.3,160.3,1852.6,160.3z
	"/>
</svg>
